<?xml version="1.0" encoding="UTF-8" standalone="no"?>
<!-- Created with Inkscape (http://www.inkscape.org/) -->

<svg
   xmlns:dc="http://purl.org/dc/elements/1.1/"
   xmlns:cc="http://creativecommons.org/ns#"
   xmlns:rdf="http://www.w3.org/1999/02/22-rdf-syntax-ns#"
   xmlns:svg="http://www.w3.org/2000/svg"
   xmlns="http://www.w3.org/2000/svg"
   xmlns:sodipodi="http://sodipodi.sourceforge.net/DTD/sodipodi-0.dtd"
   xmlns:inkscape="http://www.inkscape.org/namespaces/inkscape"
   width="137.05417mm"
   height="195.79167mm"
   viewBox="0 0 137.05417 195.79167"
   version="1.1"
   id="svg4517"
   inkscape:version="0.92+devel unknown"
   sodipodi:docname="ovarios.svg"
   inkscape:export-filename="/home/fundacion/Documentos/fundecyt_02/conozco_mi_cuerpo/conozco-mi-cuerpo/img/femenino/ovarios.png"
   inkscape:export-xdpi="96"
   inkscape:export-ydpi="96">
  <defs
     id="defs4511" />
  <sodipodi:namedview
     id="base"
     pagecolor="#ffffff"
     bordercolor="#666666"
     borderopacity="1.0"
     inkscape:pageopacity="0.0"
     inkscape:pageshadow="2"
     inkscape:zoom="0.45630484"
     inkscape:cx="44.002417"
     inkscape:cy="408.19365"
     inkscape:document-units="mm"
     inkscape:current-layer="layer1"
     showgrid="false"
     inkscape:window-width="1920"
     inkscape:window-height="1012"
     inkscape:window-x="0"
     inkscape:window-y="32"
     inkscape:window-maximized="1"
     inkscape:document-rotation="0"
     fit-margin-top="0"
     fit-margin-left="0"
     fit-margin-right="0"
     fit-margin-bottom="0" />
  <metadata
     id="metadata4514">
    <rdf:RDF>
      <cc:Work
         rdf:about="">
        <dc:format>image/svg+xml</dc:format>
        <dc:type
           rdf:resource="http://purl.org/dc/dcmitype/StillImage" />
        <dc:title></dc:title>
      </cc:Work>
    </rdf:RDF>
  </metadata>
  <g
     inkscape:label="Capa 1"
     inkscape:groupmode="layer"
     id="layer1"
     transform="translate(-400.759,13.639415)">
    <g
       id="g4857"
       transform="translate(234.47855,67.468141)">
      <path
         sodipodi:nodetypes="acsaacaaaaaacaccaasacaaaaaaaaaaaaaa"
         inkscape:connector-curvature="0"
         id="path5496-9"
         d="m 234.91804,110.8044 c -1.6995,-0.0863 -4.20312,2.89749 -4.20312,2.89749 0,0 -3.38224,0.62783 -3.30955,-0.50113 0.1637,-2.54253 1.42411,-4.03688 1.77255,-6.13769 0.23508,-1.41729 0.35906,-2.87672 0.20501,-4.30509 -0.25418,-2.35672 -1.84504,-6.867635 -1.84504,-6.867635 0,0 -3.33035,-5.72348 -3.89508,-8.91768 -0.37926,-2.14517 -0.0248,-4.38697 0.40379,-6.52282 0.3086,-1.53779 1.25856,-2.9026 1.54375,-4.4449 0.12789,-0.69163 0.29694,-1.44456 0.0663,-2.10901 -0.61709,-1.77756 -2.60346,-2.74504 -3.63518,-4.31859 -0.67127,-1.0238 -1.37068,-2.09368 -1.63382,-3.2893 -0.26471,-1.20278 0.1025,-3.69327 0.1025,-3.69327 0,0 0.19601,-2.394949 -0.24231,-3.467489 -0.51547,-1.26132 -2.65261,-3.11023 -2.65261,-3.11023 v -4.40759 c 0,0 3.63244,-4.36212 5.94511,-5.94511 1.81786,-1.2443 3.89588,-2.19292 6.04762,-2.66506 2.88776,-0.63364 5.91893,-0.35748 8.86812,-0.15011 4.82199,0.33905 10.53905,4.13777 13.27232,8.65778 0.74592,1.23353 0.41,4.30509 0.41,4.30509 0,0 -1.89313,1.61143 -2.34511,2.71994 -1.05297,2.5825 0.39921,5.718919 -0.52494,8.350269 -0.62752,1.78675 -2.08714,3.16664 -3.26723,4.64773 -0.60765,0.76264 -1.70396,1.23267 -1.95695,2.1744 -0.75912,2.82578 1.59656,5.67083 1.81199,8.58886 0.14702,1.99143 0.0684,4.02975 -0.3624,5.97959 -0.47037,2.12909 -1.59905,4.05711 -2.39183,6.08831 -0.69249,1.77424 -1.58947,3.48319 -2.06568,5.32727 -0.40239,1.558195 -0.61409,3.174815 -0.65232,4.783685 -0.0294,1.2366 0.1201,2.47681 0.32616,3.69647 0.28015,1.65822 1.97909,3.38564 1.23216,4.8924 -0.28004,0.56491 -1.1119,0.68263 -1.73952,0.74291 -0.79953,0.0768 -1.63537,-0.15182 -2.35559,-0.50736 -1.1495,-0.56747 -1.64878,-2.42717 -2.92907,-2.49213 z"
         style="fill:#f8b7b5;fill-opacity:1;stroke:none;stroke-width:0.26458332px;stroke-linecap:butt;stroke-linejoin:miter;stroke-opacity:1" />
      <path
         sodipodi:nodetypes="aaaaaaaaaaaaaaaaaaaaaaaaaaaaaaaaa"
         inkscape:connector-curvature="0"
         id="path5498-6"
         d="m 230.63536,112.82541 c -0.46532,0.16759 -1.12109,-0.24742 -1.30464,-0.70668 -0.18147,-0.45406 0.0857,-1.07242 0.453,-1.39523 0.22155,-0.19475 0.70109,0.0789 0.86976,-0.16308 0.39234,-0.56291 -0.50799,-1.36311 -0.34428,-2.02944 0.181,-0.73674 1.10213,-1.10495 1.37712,-1.81199 0.45292,-1.16454 0.37894,-2.48368 0.34428,-3.73271 -0.0639,-2.30118 0.44639,-5.052295 -1.01472,-6.831235 -0.51291,-0.62448 -1.78024,-0.18282 -2.28312,-0.81541 -0.84758,-1.06619 -0.29431,-2.70836 -0.47112,-4.05887 -0.0761,-0.58101 -0.0325,-1.19691 -0.25368,-1.73952 -0.25952,-0.63655 -0.93905,-1.03701 -1.21403,-1.66704 -0.25113,-0.57539 -0.56252,-1.25317 -0.3624,-1.84823 0.38182,-1.13532 1.48443,-2.42602 2.68175,-2.39184 0.99045,0.0283 1.82489,1.15058 2.10192,2.10192 0.12455,0.42772 -0.35812,0.8644 -0.28992,1.30463 0.13259,0.85585 0.54657,1.82808 1.30464,2.24688 1.79865,0.99367 4.59768,1.11643 6.16079,-0.21744 0.86142,-0.73509 0.10542,-2.34245 0.65231,-3.33407 0.56127,-1.01768 1.39175,-2.5907 2.5368,-2.39184 1.46909,0.25513 2.28745,2.5178 2.02944,3.98639 -0.17747,1.01012 -1.85649,1.15354 -2.24688,2.10192 -0.48776,1.18492 0.2961,2.56899 0.14496,3.84143 -0.18945,1.59502 -1.00516,3.06066 -1.30464,4.63872 -0.35768,1.88475 -0.38173,3.817775 -0.57984,5.725915 -0.11793,1.13582 -0.60692,2.29111 -0.3624,3.40655 0.31319,1.4287 2.1764,2.30803 2.24688,3.76895 0.0463,0.96074 -0.28196,2.45999 -1.23216,2.60929 -0.9076,0.14259 -1.33222,-1.27709 -1.88447,-2.01132 -0.35491,-0.47186 -0.42077,-1.18565 -0.90598,-1.52209 -1.08946,-0.75541 -2.6085,-0.9379 -3.91392,-0.70667 -0.73034,0.12936 -1.43596,0.56204 -1.92071,1.12344 -0.59155,0.68508 -0.16315,2.21198 -1.01474,2.51867 z"
         style="fill:#f29697;fill-opacity:1;stroke:none;stroke-width:0.26458332px;stroke-linecap:butt;stroke-linejoin:miter;stroke-opacity:1" />
      <path
         sodipodi:nodetypes="ccaacaaacaaac"
         inkscape:connector-curvature="0"
         id="path5500-3"
         d="m 234.86921,84.886895 c -1.40003,-4.47411 -2.15797,-9.64929 -4.95865,-13.42938 -1.75593,-2.27664 -5.10993,-3.18254 -6.45071,-5.72591 -1.08522,-2.0586 -0.0407,-4.753489 -0.8734,-6.926529 -1.04453,-2.7258 -4.99122,-7.19561 -4.99122,-7.19561 0,0 4.835,-2.41665 7.45918,-2.54823 3.29526,-0.16523 6.34076,2.1989 9.63982,2.24688 3.77119,0.0549 7.34445,-2.69417 11.08942,-2.24688 2.03486,0.24304 5.56851,2.60564 5.56851,2.60564 0,0 -4.1082,5.17078 -4.98867,8.26634 -0.58829,2.06834 0.86565,4.515769 -0.0725,6.450709 -1.12431,2.3189 -4.48837,2.78052 -6.01583,4.85615 -2.90003,3.94079 -5.40595,13.64682 -5.40595,13.64682 z"
         style="fill:#f39b99;fill-opacity:1;stroke:none;stroke-width:0.26458332px;stroke-linecap:butt;stroke-linejoin:miter;stroke-opacity:1" />
      <path
         sodipodi:nodetypes="accccccccccccaaaccccassaaaaaaacaaaaacccccccccccca"
         inkscape:connector-curvature="0"
         id="path5502-8"
         d="m 234.7006,110.69567 c -1.20891,-0.0224 -2.95702,2.10091 -2.95702,2.10091 l 0.15065,-2.59439 2.22942,-1.87065 -0.7944,-1.66566 -0.52532,-3.47227 -0.19219,-5.048215 -0.71751,-8.61018 1.89629,-1.74253 0.1025,-1.28128 -0.71752,-2.35755 1.84504,-2.40879 -1.28128,-5.89387 c 0,0 0.78076,-6.61536 -0.87126,-9.22518 -1.52003,-2.4013 -5.45785,-2.2172 -7.3289,-4.356339 -1.40596,-1.60741 -1.18913,-4.21686 -2.5113,-5.89386 -0.81656,-1.0357 -3.17756,-2.35755 -3.17756,-2.35755 l -3.89508,1.43503 -1.84503,-1.33253 -2.92131,1.69129 c 0,0 1.1945,-2.23528 2.27005,-2.72768 1.05188,-0.48157 2.43358,0.5765 3.47006,0.0626 4.10226,-2.03386 2.17159,-1.28647 3.38257,-1.33252 1.67933,-0.0639 3.2342,0.92313 4.81759,1.48628 2.44796,0.87064 4.68774,2.36836 7.2264,2.9213 1.1195,0.24384 2.29055,0.2293 3.43381,0.15376 1.45456,-0.0961 2.8993,-0.38312 4.30509,-0.76877 3.3783,-0.92676 6.33709,-3.68217 9.84019,-3.69007 1.32967,-0.003 2.41321,1.31936 3.74133,1.38378 1.00574,0.0488 1.99082,-1.15359 2.92131,-0.76877 1.25783,0.5202 2.0614,3.52495 2.0614,3.52495 0,0 -1.72916,-2.28732 -2.98393,-2.29492 -0.59792,-0.004 -0.84893,0.95791 -1.43503,1.07626 -1.86419,0.37646 -3.78077,-2.1181 -5.53511,-1.38377 -2.54323,1.06454 -2.39386,5.04307 -4.20257,7.12389 -0.8454,0.97259 -1.94172,1.709 -3.02381,2.408799 -1.62962,1.0539 -5.17636,2.66505 -5.17636,2.66505 l -0.61501,13.22276 -0.35876,3.12631 0.25626,1.53753 0.87127,0.56376 -0.66627,3.53632 2.15255,1.28128 -0.35876,12.505235 -0.76877,4.51009 -1.17877,2.15256 2.3063,2.61379 0.20908,2.6433 c 0,0 -2.0005,-2.62259 -3.45033,-2.64952 z"
         style="fill:#ef8996;fill-opacity:1;stroke:none;stroke-width:0.26458332px;stroke-linecap:butt;stroke-linejoin:miter;stroke-opacity:1" />
      <path
         id="path5504-5"
         d="m 275.69864,41.676776 c -1.17725,0.008 -2.38718,0.32332 -3.39308,0.91261 -1.73223,1.0148 -2.21756,3.6359 -4.04884,4.45864 -1.42595,0.64063 -3.63064,-1.09873 -4.68964,0.0512 -1.05584,1.14646 1.42803,3.55492 0.33331,4.66431 -0.93152,0.944 -2.91795,-1.03606 -3.97185,-0.23099 -1.11696,0.85324 0.4456,3.63443 -0.87126,4.12585 -0.66263,0.24728 -1.08805,-0.91195 -1.69137,-1.28106 -0.46928,-0.2871 -0.93614,-0.70979 -1.48622,-0.71779 -0.86025,-0.0131 -1.49869,1.10268 -2.35747,1.05058 -0.69602,-0.0422 -1.17596,-0.75243 -1.79369,-1.0759 -1.3784,-0.7218 -2.69903,-1.86796 -4.25401,-1.92236 -2.31202,-0.0808 -4.25722,1.87708 -6.50864,2.40915 -1.89843,0.44865 -3.87093,0.50885 -5.81722,0.64027 -1.35549,0.0915 -2.7263,0.26897 -4.07468,0.10284 -1.46035,-0.17992 -2.86719,-0.68571 -4.25349,-1.17874 -1.4235,-0.50625 -2.67296,-1.50971 -4.15169,-1.81953 -0.9698,-0.20319 -2.03597,-0.32377 -2.97243,0 -1.44848,0.5008 -2.09178,2.67746 -3.6158,2.83962 -0.81187,0.0864 -1.38572,-1.09382 -2.20193,-1.07332 -1.15051,0.029 -1.89359,1.88847 -3.02307,1.6676 -0.2265,-0.0443 -0.33613,-0.33021 -0.43563,-0.53847 -0.49312,-1.03255 0.19355,-2.66428 -0.71727,-3.3569 -1.02172,-0.77696 -2.9396,1.14164 -3.84421,0.231 -0.63349,-0.63771 0.15653,-1.79222 0.17983,-2.6908 0.0151,-0.58071 0.37578,-1.32281 -0.0259,-1.74253 -1.10622,-1.15608 -3.37016,0.45187 -4.79195,-0.28215 -1.43073,-0.73864 -1.72839,-2.81011 -3.02359,-3.76669 -0.96843,-0.71524 -2.15943,-1.21348 -3.35742,-1.33274 -1.76225,-0.17544 -3.63527,0.17312 -5.22758,0.94826 -1.38723,0.6753 -2.52531,1.84717 -3.45922,3.07527 -0.92727,1.21935 -1.69647,2.62892 -2.02417,4.12533 -0.29245,1.33547 -0.17486,2.7618 0.10232,4.10052 0.33802,1.63245 0.93324,3.25943 1.87069,4.63796 0.72877,1.07168 1.77977,1.90344 2.81894,2.67787 0.85293,0.63563 2.11725,0.74653 2.76728,1.588539 0.24541,0.31789 0.36755,0.76448 0.31574,1.16272 -0.16197,1.24513 -1.49238,2.06886 -1.88412,3.26181 -0.20477,0.62357 -0.79182,1.63918 -0.21756,1.95699 0.78242,0.43301 1.34064,-2.13665 2.10168,-1.66708 0.50406,0.31101 -0.074,1.222 -0.36225,1.73943 -0.32432,0.58225 -1.70438,0.76135 -1.44952,1.37717 0.36965,0.89323 2.1368,0.52221 2.89904,-0.0723 0.71177,-0.55518 0.40178,-1.76683 0.72502,-2.60966 1.37888,-3.59528 5.14387,-10.343039 5.14387,-10.343039 0,0 -3.92845,0.40008 -5.79654,-0.094 -1.11844,-0.29584 -2.38494,-0.71556 -3.04374,-1.66657 -1.07012,-1.54475 -1.46758,-3.82543 -0.79737,-5.58105 0.74608,-1.95435 2.79441,-3.45238 4.80178,-4.0411 1.39681,-0.40966 3.12226,-0.25014 4.33048,0.56172 0.93399,0.62759 0.65169,2.45078 1.66708,2.93574 0.90588,0.43265 2.14091,-1.05262 2.97191,-0.48937 1.14154,0.77371 -0.20119,3.19449 0.8878,4.04058 1.28374,0.9974 3.54478,-1.09852 4.87412,-0.16278 0.98561,0.69378 -0.0126,2.99238 1.10536,3.44268 1.3875,0.55884 2.46289,-2.28872 3.95015,-2.12907 0.7986,0.0857 1.04134,1.41453 1.82986,1.56735 1.03882,0.20133 1.96274,-1.17901 3.00809,-1.01493 1.76625,0.27723 3.17488,1.81014 4.3124,3.18947 1.30292,1.57989 1.32658,3.97811 2.64583,5.544369 1.69714,2.01493 5.19284,2.25194 6.45077,4.56664 0.56575,1.04103 0.0123,2.37381 0.14469,3.55121 0.34461,3.06435 1.3679,6.02932 1.68517,9.0966 0.0541,0.52283 0.0362,1.57613 0.0362,1.57613 0,0 -0.13692,0.6213 -0.36225,0.81546 -0.22313,0.19225 -0.68548,-0.008 -0.85163,0.23564 -0.13358,0.19552 -0.0253,0.49072 0.0724,0.70641 0.0476,0.10512 0.19175,0.14702 0.23565,0.25374 0.28511,0.69299 0.41104,1.57846 0.0723,2.24689 -0.24156,0.47672 -0.79097,0.96239 -1.3224,0.90589 -0.94317,-0.10029 -1.37257,-1.31845 -1.95698,-2.06551 -0.44185,-0.56481 -0.52693,-1.47422 -1.15962,-1.81178 -0.50103,-0.26732 -1.28747,-0.35062 -1.70326,0.0362 -0.28427,0.26445 -0.0179,0.78222 -0.10903,1.15962 -0.0611,0.25294 -0.38151,0.48095 -0.28991,0.7245 0.27202,0.72307 1.53374,0.4907 2.06551,1.0511 0.45042,0.47467 0.97963,1.16574 0.79737,1.79421 -0.10312,0.35556 -0.93778,0.24602 -0.92398,0.61598 0.0143,0.38107 1.02572,0.18152 0.99632,0.56172 -0.0279,0.36012 -0.97871,0.0209 -1.01441,0.38034 -0.0373,0.37525 0.87305,0.23099 0.96015,0.59789 0.0964,0.40618 -0.76602,0.66756 -0.65215,1.06919 0.10904,0.38462 1.01488,0.14757 1.06918,0.54364 0.0413,0.30069 -0.69084,0.31314 -0.67076,0.61598 0.0244,0.36783 0.9472,0.26769 0.90641,0.63407 -0.0441,0.39638 -1.08911,0.0558 -1.10691,0.45423 -0.0232,0.51906 1.40108,0.19799 1.38337,0.71727 -0.0146,0.42823 -1.16324,0.0845 -1.17874,0.51263 -0.0146,0.40473 0.97443,0.17186 1.07642,0.56379 0.0962,0.3698 -0.74003,0.5945 -0.62735,0.95963 0.11858,0.38426 1.05735,0.0639 1.11415,0.462 0.0334,0.23391 -0.52613,0.20906 -0.55242,0.4439 -0.0313,0.27982 0.52054,0.37993 0.52554,0.66146 0.005,0.28081 -0.54256,0.40221 -0.49816,0.67954 0.0617,0.38479 0.94585,0.28988 0.95085,0.67954 0.005,0.407665 -1.02073,0.328335 -0.97823,0.733815 0.0434,0.41389 1.03259,0.12161 1.13274,0.52555 0.10683,0.4309 -0.82347,0.61627 -0.80667,1.05988 0.0216,0.5729 1.15264,0.71301 1.14154,1.28623 -0.008,0.40575 -0.85283,0.47331 -0.84233,0.87901 0.009,0.34813 0.72788,0.36901 0.76068,0.71571 0.032,0.33799 -0.6694,0.49235 -0.5979,0.82424 0.082,0.38085 0.91155,0.20422 1.01493,0.57982 0.0847,0.30771 -0.55709,0.52614 -0.47129,0.83354 0.18069,0.64726 1.71901,0.31662 1.75751,0.98753 0.0573,0.99753 -2.43475,1.03414 -2.42776,1.75803 0.0132,1.43723 0.21756,2.27376 0.21756,2.27376 l -0.58911,1.03301 1.16272,-0.57256 c 0,0 0.10387,-3.59706 2.99517,-3.93981 3.17754,0.69188 2.85302,2.95801 4.22816,4.74078 l 0.81959,-0.0253 -0.58911,-0.25631 -0.38447,-0.7431 c 0,0 -0.27878,-0.72201 -0.30748,-1.10227 -0.0531,-0.70361 0.77665,-1.62455 0.25632,-2.10116 -0.58294,-0.3256 -2.3439,0.91332 -2.2934,-1.48622 0.0507,-0.35679 0.22748,-0.62063 0.49971,-0.74309 0.4669,-0.21005 1.25924,0.64328 1.52239,0.20412 0.21237,-0.35446 -0.85093,-0.61207 -0.72503,-1.00562 0.10882,-0.34029 0.91573,-0.001 1.01493,-0.34418 0.11337,-0.39191 -0.79319,-0.544 -0.7705,-0.95136 0.0189,-0.33901 0.66774,-0.38104 0.72502,-0.71572 0.0816,-0.47658 -0.72547,-0.83 -0.63407,-1.30482 0.0849,-0.44085 0.91193,-0.46493 0.99633,-0.90589 0.0853,-0.44572 -0.76374,-0.80075 -0.5979,-1.22319 0.11354,-0.28922 0.83032,-0.0272 0.86971,-0.33537 0.0499,-0.39073 -0.95014,-0.29456 -0.96014,-0.688335 -0.0107,-0.4319 0.99301,-0.37465 1.01441,-0.80615 0.0142,-0.28583 -0.65169,-0.31395 -0.61599,-0.5979 0.0417,-0.33152 0.82072,-0.16817 0.86972,-0.49868 0.0426,-0.2874 -0.6447,-0.34732 -0.5979,-0.63407 0.0712,-0.43602 1.15002,-0.18388 1.16892,-0.62528 0.0159,-0.37074 -0.92327,-0.23573 -0.93328,-0.60667 -0.0101,-0.38466 0.95826,-0.29559 0.93328,-0.67956 -0.0172,-0.26432 -0.66343,-0.11818 -0.69763,-0.38085 -0.0402,-0.30929 0.69574,-0.33138 0.67954,-0.64286 -0.0144,-0.27748 -0.64465,-0.23011 -0.66145,-0.50746 -0.0256,-0.42207 0.92968,-0.46563 0.90588,-0.8878 -0.0177,-0.31364 -0.7361,-0.26574 -0.7431,-0.57981 -0.008,-0.39627 0.8509,-0.37805 0.9064,-0.7705 0.0436,-0.30851 -0.58466,-0.47466 -0.51676,-0.77876 0.057,-0.25528 0.64736,-0.14725 0.67076,-0.40773 0.029,-0.32173 -0.76042,-0.32229 -0.72502,-0.64337 0.0348,-0.31576 0.78444,-0.14813 0.83354,-0.46199 0.0532,-0.33983 -0.70742,-0.40792 -0.70642,-0.75189 10e-4,-0.35459 0.57027,-0.45586 0.7338,-0.77049 0.17045,-0.32792 -0.0622,-0.84513 0.21705,-1.08728 0.32904,-0.28538 0.98192,0.21995 1.30483,-0.0723 0.58014,-0.52511 0.87106,-1.72475 0.36225,-2.31924 -0.56555,-0.66078 -1.83747,-0.40126 -2.60914,0 -1.2503,0.65014 -1.01928,3.43527 -2.42828,3.46077 -0.81044,0.0147 -1.32574,-1.14084 -1.46761,-1.9389 -0.13042,-0.73365 0.94283,-1.45152 0.65267,-2.13785 -0.1557,-0.36829 -0.99092,-0.0913 -1.06712,-0.54829 -0.25622,-1.5375 1.05249,-6.65148 1.41129,-9.99784 0.17562,-1.63792 -0.49353,-3.5208 0.36225,-4.92838 1.14951,-1.8907 4.0347,-1.97025 5.6534,-3.47886 0.57631,-0.53711 1.02227,-1.21749 1.37718,-1.92081 0.56619,-1.12208 0.52559,-2.5027 1.15962,-3.587899 0.63826,-1.09244 1.54993,-2.046081 2.57297,-2.790521 0.7663,-0.55761 1.63445,-1.16293 2.58175,-1.19063 0.93547,-0.0273 1.69152,1.1837 2.6138,1.02475 0.84731,-0.14605 1.08891,-1.64918 1.94768,-1.691369 1.15046,-0.0566 1.73102,1.62048 2.81895,1.99884 0.61401,0.213519 1.43782,0.50678 1.94717,0.102839 0.91109,-0.72254 -0.28488,-2.69739 0.61495,-3.4339 1.21653,-0.99572 3.50498,1.10537 4.71547,0.10232 1.0402,-0.86194 -0.42951,-3.20742 0.66611,-3.99769 0.98177,-0.70817 2.5406,1.17177 3.58738,0.56379 0.91638,-0.53225 0.16563,-2.52779 1.12758,-2.97243 2.86443,-1.32403 8.21,0.10237 8.9178,3.17758 0.82302,3.57583 1.23877,8.07984 -7.71064,7.85637 -3.49077,-0.0872 1.8747,6.74151 3.17087,9.98389 0.37902,0.94814 0.47218,2.21792 1.341,2.75435 0.8943,0.55215 2.86778,0.97548 3.15278,-0.0362 0.16632,-0.59037 -1.18468,-0.49253 -1.55856,-0.97875 -0.44718,-0.58156 -1.27215,-1.70953 -0.65216,-2.10168 0.69363,-0.43873 1.05233,1.97701 1.81229,1.66708 0.63846,-0.26038 0.29885,-1.4033 0.10852,-2.06603 -0.23219,-0.80851 -1.15715,-1.27676 -1.44952,-2.0655 -0.25734,-0.69427 -0.52193,-1.53574 -0.21756,-2.21072 0.88206,-1.95607 3.82174,-2.14012 5.2188,-3.76876 0.95907,-1.11804 1.57276,-2.52856 2.01177,-3.93465 0.34672,-1.11048 0.46647,-2.29588 0.46147,-3.459219 -0.006,-1.328781 -0.0178,-2.735101 -0.56379,-3.946531 -0.74202,-1.646244 -2.03588,-3.084194 -3.5109,-4.125844 -1.56797,-1.10729 -3.46608,-1.91799 -5.38107,-2.05001 -0.16614,-0.0114 -0.33411,-0.0167 -0.50229,-0.0155 z m -54.27834,10.4128 c 1.30654,0.0288 2.49176,0.97603 3.73465,1.44177 2.19836,0.82376 4.2714,2.03869 6.55981,2.56264 1.28615,0.29448 2.62888,0.37597 3.94653,0.30747 1.69991,-0.0884 3.40246,-0.39974 5.02243,-0.92242 2.06905,-0.66758 3.8704,-1.99758 5.8937,-2.79311 0.50031,-0.19671 1.0017,-0.52605 1.53789,-0.48731 0.89925,0.065 2.43448,1.17926 2.43448,1.17926 0,0 -2.66234,0.37794 -3.66489,1.17873 -0.72112,0.576 -1.06333,1.52715 -1.40922,2.3828 -0.28963,0.71646 -0.25838,1.53472 -0.53795,2.25516 -0.29324,0.75567 -0.63858,1.52265 -1.17874,2.127 -0.62863,0.70335 -1.48053,1.184219 -2.30632,1.640209 -1.33447,0.7369 -2.96574,0.88809 -4.22817,1.74253 -0.36518,0.24717 -0.69369,0.57107 -0.92294,0.94775 -0.39321,0.64608 -0.61261,1.40379 -0.71727,2.15284 -0.16092,1.15163 0.20441,2.32333 0.154,3.48506 -0.0852,1.96248 -0.76895,5.84254 -0.76895,5.84254 0,0 -0.84805,-3.59731 -0.97358,-5.43275 -0.0857,-1.25377 0.25046,-2.51374 0.15348,-3.76669 -0.0611,-0.79 0.0144,-1.69859 -0.46147,-2.33216 -1.30547,-1.73815 -4.01041,-1.75183 -5.79138,-2.99827 -1.06485,-0.745249 -2.14128,-1.562599 -2.86959,-2.639109 -0.93163,-1.37705 -0.71598,-3.37668 -1.76837,-4.6638 -0.76054,-0.93017 -1.86835,-1.70118 -3.04943,-1.92184 -0.74431,-0.13906 -2.22932,0.43563 -2.22932,0.43563 0,0 1.97709,-1.62656 3.17759,-1.71721 0.0882,-0.007 0.17593,-0.009 0.26303,-0.007 z m 13.54904,31.526239 c 0.42908,0.011 0.84936,0.4536 0.94827,0.87127 0.0611,0.25781 -0.21496,0.48683 -0.28216,0.7431 -0.14463,0.55155 -0.22456,1.12206 -0.25631,1.69137 -0.0367,0.6572 -0.27207,1.41497 0.077,1.97301 0.28778,0.46007 1.43574,0.22629 1.43505,0.76894 -0.001,0.74517 -1.22792,1.06073 -1.97301,1.05059 -0.7956,-0.0108 -2.09434,-0.38328 -2.07584,-1.17874 0.014,-0.60341 1.28104,-0.31693 1.61437,-0.82011 0.34047,-0.51395 0.17313,-1.23 0.12816,-1.84485 -0.0408,-0.55812 -0.25019,-1.09121 -0.35863,-1.64021 -0.0571,-0.28932 -0.2557,-0.59444 -0.154,-0.87126 0.1339,-0.36443 0.50897,-0.75306 0.8971,-0.74311 z m -0.11213,7.91631 a 2.1916952,0.70887905 0 0 1 2.19159,0.709 2.1916952,0.70887905 0 0 1 -2.19159,0.70901 2.1916952,0.70887905 0 0 1 -2.1916,-0.70901 2.1916952,0.70887905 0 0 1 2.1916,-0.709 z m 0.0362,2.93574 a 1.5031364,0.79947889 0 0 1 1.50327,0.79945 1.5031364,0.79947889 0 0 1 -1.50327,0.79942 1.5031364,0.79947889 0 0 1 -1.50275,-0.79942 1.5031364,0.79947889 0 0 1 1.50275,-0.79945 z m 0.0909,2.71767 a 1.5031365,0.70887905 0 0 1 1.50275,0.70901 1.5031365,0.70887905 0 0 1 -1.50275,0.70899 1.5031365,0.70887905 0 0 1 -1.50327,-0.70899 1.5031365,0.70887905 0 0 1 1.50327,-0.70901 z m 0,2.33784 a 1.5031364,0.79947889 0 0 1 1.50275,0.799435 1.5031364,0.79947889 0 0 1 -1.50275,0.79943 1.5031364,0.79947889 0 0 1 -1.50327,-0.79943 1.5031364,0.79947889 0 0 1 1.50327,-0.799435 z m -0.0909,2.400885 a 1.4668964,0.89007873 0 0 1 1.46709,0.88986 1.4668964,0.89007873 0 0 1 -1.46709,0.88988 1.4668964,0.89007873 0 0 1 -1.46658,-0.88988 1.4668964,0.89007873 0 0 1 1.46658,-0.88986 z m 0.108,2.29393 a 1.4668965,1.1890581 0 0 1 1.4671,1.18907 1.4668965,1.1890581 0 0 1 -1.4671,1.18907 1.4668965,1.1890581 0 0 1 -1.46657,-1.18907 1.4668965,1.1890581 0 0 1 1.46657,-1.18907 z"
         style="opacity:1;fill:#d1616f;fill-opacity:1;stroke:none;stroke-width:0.26458332px;stroke-linecap:butt;stroke-linejoin:miter;stroke-opacity:1"
         inkscape:connector-curvature="0" />
      <path
         sodipodi:nodetypes="ccssaaaaaaaaaaaaaaasc"
         inkscape:connector-curvature="0"
         id="path5596-6"
         d="m 220.49015,62.594775 0.0837,-2.443369 c 0,0 -3.00685,0.81959 -3.9271,1.95621 -1.11929,1.382459 -1.18841,3.241229 -4.42128,3.913909 -1.61933,0.33694 -0.7723,-1.78849 -1.37712,-2.53679 -0.42005,-0.5197 -1.07484,-0.80814 -1.52207,-1.304639 -0.82529,-0.91621 -1.02979,-2.43499 -2.10192,-3.04416 -1.09199,-0.62045 -2.52517,-0.0194 -3.7594,-0.25188 -1.56507,-0.29483 -2.99206,-1.73484 -4.55656,-1.43702 -2.33972,0.44539 -4.3471,2.44569 -5.54817,4.50241 -0.78077,1.336999 -1.30344,3.123459 -0.7768,4.579419 0.45764,1.26524 2.16596,1.62553 3.06462,2.62687 0.67891,0.75646 0.82449,2.04119 1.72345,2.51556 1.10981,0.58563 2.50978,-0.0106 3.76455,0.004 1.11155,0.0126 2.23878,0.26229 3.33408,0.0725 0.98045,-0.16988 1.8598,-0.70832 2.78865,-1.06522 0.77345,-0.29719 1.672,-0.37801 2.3186,-0.89614 0.31184,-0.24988 0.32257,-0.79201 0.66551,-0.99712 1.34048,-0.80173 3.36436,0.41778 4.66434,-0.44807 1.61929,-1.07852 1.27084,-3.88716 2.75423,-5.14607 1.43696,-1.219508 2.82869,-0.60004 2.82869,-0.60004 z"
         style="fill:#f09696;fill-opacity:1;stroke:none;stroke-width:0.26458332px;stroke-linecap:butt;stroke-linejoin:miter;stroke-opacity:1" />
      <path
         sodipodi:nodetypes="ccssaaaaaaaaaaaaaaasc"
         inkscape:connector-curvature="0"
         id="path5596-1-6-1"
         d="m 249.4523,62.594775 -0.0837,-2.443369 c 0,0 3.00685,0.81959 3.9271,1.95621 1.11929,1.382459 1.18841,3.241229 4.42128,3.913909 1.61933,0.33694 0.7723,-1.78849 1.37712,-2.53679 0.42005,-0.5197 1.07484,-0.80814 1.52207,-1.304639 0.82529,-0.91621 1.02979,-2.43499 2.10192,-3.04416 1.09199,-0.62045 2.52517,-0.0194 3.7594,-0.25188 1.56507,-0.29483 2.99206,-1.73484 4.55656,-1.43702 2.33972,0.44539 4.34709,2.44569 5.54816,4.50241 0.78078,1.336999 1.30344,3.123459 0.77681,4.579419 -0.45765,1.26524 -2.16597,1.62553 -3.06463,2.62687 -0.6789,0.75646 -0.82448,2.04119 -1.72344,2.51556 -1.10982,0.58563 -2.50978,-0.0106 -3.76456,0.004 -1.11154,0.0126 -2.23877,0.26229 -3.33407,0.0725 -0.98045,-0.16988 -1.8598,-0.70832 -2.78865,-1.06522 -0.77345,-0.29719 -1.672,-0.37801 -2.3186,-0.89614 -0.31184,-0.24988 -0.32257,-0.79201 -0.66551,-0.99712 -1.34048,-0.80173 -3.36436,0.41778 -4.66434,-0.44807 -1.61929,-1.07852 -1.27085,-3.88716 -2.75423,-5.14607 -1.43696,-1.219508 -2.82869,-0.60004 -2.82869,-0.60004 z"
         style="fill:#f09696;fill-opacity:1;stroke:none;stroke-width:0.26458332px;stroke-linecap:butt;stroke-linejoin:miter;stroke-opacity:1" />
      <path
         sodipodi:nodetypes="aaaascaaacaaaaacaaaa"
         inkscape:connector-curvature="0"
         id="path5613-1"
         d="m 197.14376,68.512225 c -0.61357,-1.03328 -2.58487,-0.5514 -3.25569,-1.54846 -0.70247,-1.04409 -0.55573,-2.55687 -0.21744,-3.76895 0.39725,-1.423369 1.29969,-2.806709 2.51041,-3.654019 1.19285,-0.83481 2.82441,-1.56297 4.22946,-1.09084 2.60476,0.87525 3.58229,2.21685 3.58229,2.21685 0,0 0.40208,-1.15884 0.91222,-1.31343 0.82008,-0.24851 1.79188,0.33039 2.39183,0.94224 0.63155,0.64407 0.78268,1.64898 0.94224,2.536799 0.16667,0.92738 0,2.82671 0,2.82671 0,0 0.30405,-3.17279 1.37712,-2.97167 1.49904,0.28095 0.65024,3.08426 0.28992,4.56623 -0.19969,0.82133 -0.64358,1.64766 -1.30464,2.1744 -0.91422,0.72846 -2.19392,0.82929 -3.33407,1.08719 -0.54658,0.12364 -1.25699,0.59939 -1.66704,0.21744 -0.30106,-0.28043 0.0725,-1.23216 0.0725,-1.23216 0,0 -0.89271,1.14173 -1.52208,1.4496 -0.87781,0.4294 -1.953,0.6791 -2.8992,0.43488 -0.88431,-0.22825 -1.79301,-0.83718 -2.17439,-1.66704 -0.16809,-0.36576 0.27208,-0.85966 0.0666,-1.20577 z"
         style="fill:#f7b6b4;fill-opacity:1;stroke:none;stroke-width:0.26458332px;stroke-linecap:butt;stroke-linejoin:miter;stroke-opacity:1" />
      <path
         sodipodi:nodetypes="aaaascaaacaaaaacaaaa"
         inkscape:connector-curvature="0"
         id="path5613-5-2-5"
         d="m 273.17206,68.607205 c 0.61357,-1.03328 2.58487,-0.5514 3.2557,-1.54846 0.70246,-1.04409 0.55572,-2.55687 0.21744,-3.76895 -0.39726,-1.423369 -1.2997,-2.806709 -2.51042,-3.654019 -1.19285,-0.83481 -2.82441,-1.56297 -4.22946,-1.09084 -2.60476,0.87525 -3.58229,2.21685 -3.58229,2.21685 0,0 -0.40208,-1.15884 -0.91222,-1.31343 -0.82008,-0.24851 -1.79188,0.33039 -2.39183,0.94224 -0.63155,0.64407 -0.78268,1.64898 -0.94224,2.536799 -0.16667,0.92738 0,2.82671 0,2.82671 0,0 -0.30405,-3.17279 -1.37712,-2.97167 -1.49904,0.28095 -0.65024,3.08426 -0.28992,4.56623 0.19969,0.82133 0.64358,1.64766 1.30464,2.1744 0.91422,0.72846 2.19392,0.82929 3.33407,1.08719 0.54658,0.12364 1.25699,0.59939 1.66704,0.21744 0.30106,-0.28043 -0.0725,-1.23216 -0.0725,-1.23216 0,0 0.89271,1.14173 1.52208,1.4496 0.87781,0.4294 1.953,0.6791 2.8992,0.43488 0.88431,-0.22825 1.79301,-0.83718 2.17439,-1.66704 0.16809,-0.36576 -0.27208,-0.85966 -0.0666,-1.20577 z"
         style="fill:#f7b6b4;fill-opacity:1;stroke:none;stroke-width:0.26458332px;stroke-linecap:butt;stroke-linejoin:miter;stroke-opacity:1" />
      <path
         sodipodi:nodetypes="cccc"
         inkscape:connector-curvature="0"
         id="path5727"
         d="m 201.69483,16.04642 67.83533,46.080268 23.7292,-81.041946 z"
         style="fill:#ffba95;fill-opacity:1;stroke:none;stroke-width:1.06500006;stroke-linecap:butt;stroke-linejoin:miter;stroke-miterlimit:4;stroke-dasharray:none;stroke-opacity:1" />
      <ellipse
         transform="rotate(1.336152)"
         ry="53.011078"
         rx="59.321918"
         cy="-32.752552"
         cx="234.10747"
         id="path5725"
         style="opacity:1;fill:#ffccaa;fill-opacity:1;stroke:none;stroke-width:1.08837843;stroke-linecap:round;stroke-miterlimit:4;stroke-dasharray:none;stroke-opacity:1" />
      <path
         sodipodi:nodetypes="caaaaaaaaaaaaaacc"
         inkscape:connector-curvature="0"
         id="path5596-1-0"
         d="m 185.88529,-25.520109 c 0,0 1.90221,-4.137289 3.35635,-5.852967 1.00991,-1.191545 2.55575,-1.829892 3.62791,-2.96574 1.9785,-2.096036 2.53916,-5.634004 5.07774,-6.99909 2.58559,-1.390367 5.90192,0.09235 8.79877,-0.383694 3.67335,-0.603658 7.08645,-3.890925 10.72618,-3.109701 5.44322,1.168324 10.02506,5.952075 12.71965,10.823722 1.75167,3.166887 2.87565,7.370009 1.56566,10.74362 -1.13841,2.931691 -5.15008,3.68052 -7.30467,5.971482 -1.6277,1.730716 -2.03791,4.724954 -4.16447,5.784475 -2.62538,1.308027 -5.86433,-0.161589 -8.79731,-0.19619 -2.59816,-0.03109 -5.24591,0.490899 -7.79508,-0.0123 -2.28187,-0.450422 -4.30741,-1.756589 -6.45851,-2.641229 -1.79121,-0.736628 -3.88656,-0.974472 -5.36931,-2.220486 -0.71509,-0.600928 -0.71062,-1.868368 -1.50082,-2.36637 -3.08876,-1.946553 -10.87531,-1.301285 -10.87531,-1.301285 z"
         style="fill:#f09696;fill-opacity:1;stroke:none;stroke-width:0.61845171px;stroke-linecap:butt;stroke-linejoin:miter;stroke-opacity:1" />
      <path
         sodipodi:nodetypes="aaaascaaacaaaaacaaaa"
         inkscape:connector-curvature="0"
         id="path5613-5-6"
         d="m 221.8601,-18.635461 c 1.49012,-2.381151 6.07042,-1.147631 7.69238,-3.441024 1.69843,-2.401558 1.43798,-5.944655 0.71355,-8.795503 -0.85075,-3.347808 -2.88419,-6.629616 -5.66724,-8.675618 -2.74197,-2.015816 -6.51495,-3.806321 -9.82403,-2.779624 -6.13456,1.903331 -8.492,4.985128 -8.492,4.985128 0,0 -0.87642,-2.729919 -2.0601,-3.118966 -1.90284,-0.62543 -4.20531,0.674394 -5.64064,2.071474 -1.51092,1.470648 -1.91886,3.810712 -2.34011,5.876691 -0.44002,2.158036 -0.15407,6.605514 -0.15407,6.605514 0,0 -0.53757,-7.430816 -3.05611,-7.019322 -3.5183,0.574826 -1.6876,7.171919 -0.92637,10.654656 0.42187,1.930182 1.41412,3.885361 2.93019,5.152288 2.09666,1.752106 5.0816,2.057482 7.73187,2.722292 1.27051,0.318713 2.90468,1.469182 3.88372,0.598984 0.7188,-0.638912 -0.10227,-2.883288 -0.10227,-2.883288 0,0 2.02388,2.716671 3.47782,3.47041 2.02788,1.051282 4.5268,1.693387 6.75121,1.174255 2.07891,-0.485176 4.23557,-1.85861 5.17202,-3.777055 0.41273,-0.845546 -0.58895,-2.023694 -0.0899,-2.821294 z"
         style="fill:#f7b6b4;fill-opacity:1;stroke:none;stroke-width:0.61845171px;stroke-linecap:butt;stroke-linejoin:miter;stroke-opacity:1" />
      <path
         sodipodi:nodetypes="caaaaaaaaaaaaaacc"
         inkscape:connector-curvature="0"
         id="path5596-1"
         d="m 243.6801,-24.172073 c 0,0 1.90221,-4.137289 3.35635,-5.852968 1.00991,-1.191545 2.55576,-1.829892 3.62791,-2.96574 1.9785,-2.096035 2.53916,-5.634004 5.07774,-6.99909 2.58559,-1.390367 5.90192,0.09235 8.79877,-0.383693 3.67335,-0.603659 7.08646,-3.890925 10.72618,-3.109701 5.44323,1.168323 10.02506,5.952074 12.71965,10.823721 1.75167,3.166887 2.87565,7.370009 1.56566,10.74362 -1.13841,2.931691 -5.15008,3.68052 -7.30467,5.971482 -1.6277,1.730716 -2.03791,4.724955 -4.16447,5.784475 -2.62538,1.3080272 -5.86433,-0.161589 -8.79731,-0.19619 -2.59816,-0.03109 -5.2459,0.490899 -7.79507,-0.0123 -2.28188,-0.450421 -4.30741,-1.756588 -6.45852,-2.641228 -1.79121,-0.736628 -3.88655,-0.974473 -5.3693,-2.220486 -0.7151,-0.600928 -0.71063,-1.868369 -1.50083,-2.36637 -3.08876,-1.946554 -10.87531,-1.301286 -10.87531,-1.301286 z"
         style="fill:#f09696;fill-opacity:1;stroke:none;stroke-width:0.61845171px;stroke-linecap:butt;stroke-linejoin:miter;stroke-opacity:1" />
      <path
         sodipodi:nodetypes="aaaascaaacaaaaacaaaa"
         inkscape:connector-curvature="0"
         id="path5613-5"
         d="m 279.65491,-17.287426 c 1.49012,-2.38115 6.07042,-1.147631 7.69238,-3.441023 1.69843,-2.401559 1.43798,-5.944656 0.71355,-8.795503 -0.85075,-3.347808 -2.88419,-6.629617 -5.66724,-8.675619 -2.74197,-2.015815 -6.51495,-3.806321 -9.82403,-2.779623 -6.13456,1.903331 -8.492,4.985127 -8.492,4.985127 0,0 -0.87642,-2.729918 -2.0601,-3.118965 -1.90283,-0.625431 -4.20531,0.674393 -5.64064,2.071474 -1.51092,1.470648 -1.91886,3.810712 -2.34011,5.876691 -0.44002,2.158036 -0.15407,6.605513 -0.15407,6.605513 0,0 -0.53757,-7.430816 -3.05611,-7.019321 -3.5183,0.574826 -1.68759,7.171918 -0.92637,10.654655 0.42187,1.930182 1.41413,3.885362 2.9302,5.152288 2.09665,1.752107 5.08159,2.057483 7.73186,2.722293 1.27051,0.318713 2.90468,1.469181 3.88372,0.598984 0.7188,-0.638913 -0.10227,-2.883289 -0.10227,-2.883289 0,0 2.02388,2.716672 3.47783,3.47041 2.02787,1.051282 4.52679,1.693387 6.7512,1.174255 2.07891,-0.485176 4.23557,-1.85861 5.17202,-3.777055 0.41273,-0.845546 -0.58895,-2.023694 -0.0899,-2.821294 z"
         style="fill:#f7b6b4;fill-opacity:1;stroke:none;stroke-width:0.61845171px;stroke-linecap:butt;stroke-linejoin:miter;stroke-opacity:1" />
      <path
         sodipodi:nodetypes="aaaa"
         inkscape:connector-curvature="0"
         id="path5178"
         d="m 251.24028,-23.170992 c 0.75089,-12.347088 31.73402,-18.339998 36.46091,-6.908858 2.85906,6.914138 -11.15978,11.542564 -18.56419,12.616929 -6.19676,0.899127 -18.27681,0.542036 -17.89672,-5.708071 z"
         style="fill:#852c34;fill-opacity:1;stroke:none;stroke-width:0.26458332px;stroke-linecap:butt;stroke-linejoin:miter;stroke-opacity:1" />
      <ellipse
         transform="rotate(1.336152)"
         ry="3.1165938"
         rx="3.2056396"
         cy="-37.522114"
         cx="266.91711"
         id="path5180-8"
         style="opacity:1;fill:#e5989e;fill-opacity:1;stroke:none;stroke-width:1.73743975;stroke-linecap:round;stroke-miterlimit:4;stroke-dasharray:none;stroke-opacity:1" />
      <ellipse
         transform="rotate(1.336152)"
         ry="2.504437"
         rx="2.5759926"
         cy="-37.522114"
         cx="266.91711"
         id="path5180-2-1"
         style="opacity:1;fill:#af666d;fill-opacity:1;stroke:none;stroke-width:1.39617443;stroke-linecap:round;stroke-miterlimit:4;stroke-dasharray:none;stroke-opacity:1" />
      <ellipse
         transform="rotate(1.336152)"
         ry="1.9958262"
         rx="2.05285"
         cy="-37.522114"
         cx="266.91711"
         id="path5180-2-9-3"
         style="opacity:1;fill:#ecadb5;fill-opacity:1;stroke:none;stroke-width:1.11263394;stroke-linecap:round;stroke-miterlimit:4;stroke-dasharray:none;stroke-opacity:1" />
      <ellipse
         transform="rotate(1.336152)"
         ry="0.95515972"
         rx="0.58105004"
         cy="-37.522114"
         cx="266.91711"
         id="path5180-2-9-9-1"
         style="opacity:1;fill:#7e2c32;fill-opacity:1;stroke:none;stroke-width:0.40950298;stroke-linecap:round;stroke-miterlimit:4;stroke-dasharray:none;stroke-opacity:1" />
      <ellipse
         transform="rotate(1.3361522)"
         ry="1.3726358"
         rx="1.411854"
         cy="-37.087715"
         cx="260.32547"
         id="path5180-0"
         style="opacity:1;fill:#e5989e;fill-opacity:1;stroke:none;stroke-width:0.76521748;stroke-linecap:round;stroke-miterlimit:4;stroke-dasharray:none;stroke-opacity:1" />
      <ellipse
         transform="rotate(1.3361522)"
         ry="1.1030247"
         rx="1.1345397"
         cy="-37.087715"
         cx="260.32547"
         id="path5180-2-3"
         style="opacity:1;fill:#af666d;fill-opacity:1;stroke:none;stroke-width:0.6149146;stroke-linecap:round;stroke-miterlimit:4;stroke-dasharray:none;stroke-opacity:1" />
      <ellipse
         transform="rotate(1.3361522)"
         ry="0.87901819"
         rx="0.90413308"
         cy="-37.087715"
         cx="260.32547"
         id="path5180-2-9-4"
         style="opacity:1;fill:#ecadb5;fill-opacity:1;stroke:none;stroke-width:0.49003536;stroke-linecap:round;stroke-miterlimit:4;stroke-dasharray:none;stroke-opacity:1" />
      <ellipse
         transform="rotate(1.3361522)"
         ry="0.4206793"
         rx="0.25591081"
         cy="-37.087715"
         cx="260.32547"
         id="path5180-2-9-9-0"
         style="opacity:1;fill:#7e2c32;fill-opacity:1;stroke:none;stroke-width:0.18035667;stroke-linecap:round;stroke-miterlimit:4;stroke-dasharray:none;stroke-opacity:1" />
      <ellipse
         transform="rotate(1.3361522)"
         ry="1.372636"
         rx="1.4118541"
         cy="-33.288883"
         cx="258.24081"
         id="path5180-0-9"
         style="opacity:1;fill:#e5989e;fill-opacity:1;stroke:none;stroke-width:0.76521748;stroke-linecap:round;stroke-miterlimit:4;stroke-dasharray:none;stroke-opacity:1" />
      <ellipse
         transform="rotate(1.3361522)"
         ry="1.1030247"
         rx="1.1345398"
         cy="-33.288883"
         cx="258.24081"
         id="path5180-2-3-1"
         style="opacity:1;fill:#af666d;fill-opacity:1;stroke:none;stroke-width:0.6149146;stroke-linecap:round;stroke-miterlimit:4;stroke-dasharray:none;stroke-opacity:1" />
      <ellipse
         transform="rotate(1.3361522)"
         ry="0.87901819"
         rx="0.90413308"
         cy="-33.288883"
         cx="258.24081"
         id="path5180-2-9-4-9"
         style="opacity:1;fill:#ecadb5;fill-opacity:1;stroke:none;stroke-width:0.49003538;stroke-linecap:round;stroke-miterlimit:4;stroke-dasharray:none;stroke-opacity:1" />
      <ellipse
         transform="rotate(1.3361522)"
         ry="0.4206793"
         rx="0.25591081"
         cy="-33.288883"
         cx="258.24081"
         id="path5180-2-9-9-0-6"
         style="opacity:1;fill:#7e2c32;fill-opacity:1;stroke:none;stroke-width:0.18035667;stroke-linecap:round;stroke-miterlimit:4;stroke-dasharray:none;stroke-opacity:1" />
      <ellipse
         transform="rotate(1.3361522)"
         ry="1.372636"
         rx="1.4118541"
         cy="-33.288879"
         cx="262.9559"
         id="path5180-0-3"
         style="opacity:1;fill:#e5989e;fill-opacity:1;stroke:none;stroke-width:0.76521748;stroke-linecap:round;stroke-miterlimit:4;stroke-dasharray:none;stroke-opacity:1" />
      <ellipse
         transform="rotate(1.3361522)"
         ry="1.1030247"
         rx="1.1345398"
         cy="-33.288879"
         cx="262.9559"
         id="path5180-2-3-3"
         style="opacity:1;fill:#af666d;fill-opacity:1;stroke:none;stroke-width:0.6149146;stroke-linecap:round;stroke-miterlimit:4;stroke-dasharray:none;stroke-opacity:1" />
      <ellipse
         transform="rotate(1.3361522)"
         ry="0.87901819"
         rx="0.90413308"
         cy="-33.288879"
         cx="262.9559"
         id="path5180-2-9-4-8"
         style="opacity:1;fill:#ecadb5;fill-opacity:1;stroke:none;stroke-width:0.49003538;stroke-linecap:round;stroke-miterlimit:4;stroke-dasharray:none;stroke-opacity:1" />
      <ellipse
         transform="rotate(1.3361522)"
         ry="0.4206793"
         rx="0.25591081"
         cy="-33.288879"
         cx="262.9559"
         id="path5180-2-9-9-0-0"
         style="opacity:1;fill:#7e2c32;fill-opacity:1;stroke:none;stroke-width:0.18035667;stroke-linecap:round;stroke-miterlimit:4;stroke-dasharray:none;stroke-opacity:1" />
      <ellipse
         transform="rotate(1.3361522)"
         ry="1.372636"
         rx="1.4118541"
         cy="-32.878872"
         cx="253.83324"
         id="path5180-0-6"
         style="opacity:1;fill:#e5989e;fill-opacity:1;stroke:none;stroke-width:0.76521748;stroke-linecap:round;stroke-miterlimit:4;stroke-dasharray:none;stroke-opacity:1" />
      <ellipse
         transform="rotate(1.3361522)"
         ry="1.1030247"
         rx="1.1345398"
         cy="-32.878872"
         cx="253.83324"
         id="path5180-2-3-6"
         style="opacity:1;fill:#af666d;fill-opacity:1;stroke:none;stroke-width:0.6149146;stroke-linecap:round;stroke-miterlimit:4;stroke-dasharray:none;stroke-opacity:1" />
      <ellipse
         transform="rotate(1.3361522)"
         ry="0.87901819"
         rx="0.90413308"
         cy="-32.878872"
         cx="253.83324"
         id="path5180-2-9-4-4"
         style="opacity:1;fill:#ecadb5;fill-opacity:1;stroke:none;stroke-width:0.49003538;stroke-linecap:round;stroke-miterlimit:4;stroke-dasharray:none;stroke-opacity:1" />
      <ellipse
         transform="rotate(1.3361522)"
         ry="0.4206793"
         rx="0.25591081"
         cy="-32.878872"
         cx="253.83324"
         id="path5180-2-9-9-0-00"
         style="opacity:1;fill:#7e2c32;fill-opacity:1;stroke:none;stroke-width:0.18035667;stroke-linecap:round;stroke-miterlimit:4;stroke-dasharray:none;stroke-opacity:1" />
      <path
         sodipodi:nodetypes="aaaaaaaaaaaaaaaaaaaa"
         inkscape:connector-curvature="0"
         id="path5342-7"
         d="m 273.20201,-25.967407 c 0.64128,0.438363 1.63176,-0.286619 2.32972,0.05434 0.6544,0.319665 0.73271,1.36336 1.38284,1.691604 0.44676,0.225623 1.12289,-0.255078 1.49958,0.07444 0.43534,0.380817 0.61112,1.208923 0.31578,1.706223 -0.12119,0.204091 -0.56758,0.01053 -0.67681,0.221264 -0.24907,0.480522 0.79726,1.115344 0.47741,1.55196 -0.24909,0.34004 -0.8878,-0.179221 -1.26449,0.01 -0.6237,0.313184 -0.59867,1.457656 -1.2637,1.669383 -0.7186,0.22877 -1.41684,-0.538065 -2.15703,-0.682445 -0.93184,-0.181774 -2.10547,0.378004 -2.83937,-0.224304 -0.41528,-0.340819 -0.0322,-1.198887 -0.43792,-1.551039 -0.27011,-0.234454 -0.84794,0.142006 -1.06337,-0.143414 -0.26361,-0.349361 0.25296,-0.866532 0.18834,-1.299382 -0.0695,-0.465867 -0.77296,-0.839266 -0.60232,-1.278315 0.0833,-0.21435 0.51323,-0.0687 0.63824,-0.26165 0.3871,-0.597637 -0.58312,-1.642687 -0.0687,-2.135052 0.54289,-0.519632 1.528,0.386396 2.24798,0.171045 0.3408,-0.101942 0.50106,-0.743158 0.84488,-0.651935 0.37603,0.09969 0.1278,0.857752 0.44897,1.077306 z"
         style="fill:#feece1;fill-opacity:1;stroke:none;stroke-width:0.57673287px;stroke-linecap:butt;stroke-linejoin:miter;stroke-opacity:1" />
      <path
         sodipodi:nodetypes="aaaaaaaaaaaaaaaaaaaa"
         inkscape:connector-curvature="0"
         id="path5342-4-5"
         d="m 273.27118,-25.062575 c 0.47899,0.327435 1.21883,-0.214073 1.74016,0.04059 0.4888,0.238792 0.54729,1.018352 1.03291,1.263546 0.3337,0.168476 0.83873,-0.190625 1.12009,0.05556 0.32518,0.284448 0.45648,0.902986 0.23587,1.274456 -0.0905,0.152476 -0.42394,0.0076 -0.50553,0.165255 -0.18605,0.358932 0.59551,0.833098 0.3566,1.159226 -0.18607,0.25399 -0.66314,-0.133862 -0.94451,0.0074 -0.46586,0.233946 -0.44717,1.088782 -0.9439,1.246938 -0.53676,0.170849 -1.0583,-0.401911 -1.61119,-0.50974 -0.69603,-0.135719 -1.57266,0.282329 -2.12084,-0.167643 -0.31019,-0.254577 -0.0241,-0.895495 -0.3271,-1.158539 -0.20176,-0.175211 -0.63336,0.10602 -0.79428,-0.107049 -0.19691,-0.260961 0.18894,-0.64724 0.14068,-0.970559 -0.052,-0.347978 -0.57735,-0.626892 -0.44989,-0.954834 0.0622,-0.160115 0.38335,-0.05124 0.47672,-0.195362 0.28915,-0.446402 -0.43556,-1.227002 -0.0513,-1.594765 0.40551,-0.388132 1.14134,0.288614 1.67912,0.127688 0.25456,-0.07605 0.37426,-0.555093 0.63108,-0.486962 0.28087,0.07436 0.0954,0.640704 0.33535,0.804682 z"
         style="fill:#bb8e7f;fill-opacity:1;stroke:none;stroke-width:0.43078643px;stroke-linecap:butt;stroke-linejoin:miter;stroke-opacity:1" />
      <path
         sodipodi:nodetypes="aaaaaaaaaaaaaaaaaaaa"
         inkscape:connector-curvature="0"
         id="path5342-4-6-6"
         d="m 272.32125,-24.069573 c 0.16474,0.112643 0.4192,-0.07373 0.5985,0.01396 0.1681,0.0822 0.18821,0.350241 0.35524,0.434571 0.11477,0.05806 0.28847,-0.06566 0.38522,0.01989 0.11183,0.09789 0.157,0.31055 0.0811,0.438315 -0.0311,0.05248 -0.14581,0.0031 -0.17386,0.05678 -0.064,0.123442 0.20482,0.286524 0.12264,0.398685 -0.064,0.08725 -0.22807,-0.04609 -0.32486,0.0033 -0.16024,0.08043 -0.1538,0.374468 -0.32464,0.428873 -0.18461,0.05871 -0.36398,-0.138222 -0.55413,-0.175362 -0.23939,-0.04658 -0.54088,0.09706 -0.72942,-0.05757 -0.10667,-0.08752 -0.008,-0.307996 -0.1125,-0.39847 -0.0694,-0.06027 -0.21785,0.03656 -0.27318,-0.0369 -0.0677,-0.08967 0.065,-0.222605 0.0484,-0.333798 -0.0179,-0.119684 -0.19858,-0.215692 -0.15474,-0.328397 0.0213,-0.0551 0.13182,-0.01655 0.16397,-0.06726 0.0994,-0.153577 -0.14981,-0.421994 -0.0177,-0.548491 0.13947,-0.133456 0.39254,0.09921 0.57749,0.04399 0.0875,-0.02608 0.12871,-0.190833 0.21704,-0.167406 0.0966,0.02558 0.0328,0.220351 0.11534,0.276763 z"
         style="fill:#99695c;fill-opacity:1;stroke:none;stroke-width:0.14815985px;stroke-linecap:butt;stroke-linejoin:miter;stroke-opacity:1" />
      <path
         sodipodi:nodetypes="aaaaaaaaaaaaaaaaaaaa"
         inkscape:connector-curvature="0"
         id="path5342-4-6-2-9"
         d="m 274.59114,-22.597557 c 0.16473,0.112643 0.41919,-0.07373 0.59849,0.01396 0.16811,0.0822 0.18822,0.35024 0.35525,0.43457 0.11477,0.05806 0.28846,-0.06566 0.38521,0.01989 0.11184,0.09789 0.15701,0.310549 0.0811,0.438315 -0.0311,0.05248 -0.14581,0.0031 -0.17385,0.05678 -0.064,0.123443 0.20481,0.286525 0.12263,0.398685 -0.064,0.08725 -0.22807,-0.04609 -0.32486,0.0033 -0.16023,0.08042 -0.15379,0.374467 -0.32463,0.428872 -0.18461,0.05871 -0.36399,-0.138221 -0.55414,-0.175362 -0.23938,-0.04658 -0.54088,0.09706 -0.72942,-0.05757 -0.10667,-0.08752 -0.008,-0.307997 -0.1125,-0.398471 -0.0694,-0.06027 -0.21784,0.03656 -0.27317,-0.0369 -0.0677,-0.08967 0.065,-0.222605 0.0484,-0.333799 -0.0179,-0.119684 -0.19857,-0.215691 -0.15473,-0.328397 0.0213,-0.0551 0.13182,-0.01655 0.16396,-0.06726 0.0994,-0.153576 -0.1498,-0.421994 -0.0177,-0.548491 0.13948,-0.133456 0.39254,0.09921 0.5775,0.04399 0.0875,-0.02608 0.12871,-0.190833 0.21703,-0.167405 0.0966,0.02558 0.0328,0.220351 0.11534,0.276763 z"
         style="fill:#99695c;fill-opacity:1;stroke:none;stroke-width:0.14815985px;stroke-linecap:butt;stroke-linejoin:miter;stroke-opacity:1" />
      <path
         sodipodi:nodetypes="aaaaaaaaaaaaaaaaaaaa"
         inkscape:connector-curvature="0"
         id="path5342-7-7"
         d="m 263.61999,-23.205549 c 0.47584,0.325274 1.2108,-0.212674 1.72869,0.04032 0.48557,0.237197 0.54368,1.011632 1.02609,1.255197 0.3315,0.167416 0.8332,-0.189272 1.11271,0.05526 0.32302,0.282569 0.45346,0.897038 0.23431,1.266048 -0.09,0.151433 -0.42115,0.0078 -0.5022,0.164174 -0.18481,0.356557 0.59159,0.82761 0.35425,1.151583 -0.18484,0.252309 -0.65877,-0.132987 -0.93828,0.0074 -0.4628,0.232391 -0.44421,1.081605 -0.93768,1.238711 -0.53321,0.169753 -1.05132,-0.399253 -1.60055,-0.506389 -0.69144,-0.13488 -1.56229,0.280486 -2.10685,-0.166433 -0.30815,-0.252894 -0.0239,-0.889588 -0.32495,-1.15089 -0.20043,-0.173971 -0.62919,0.105367 -0.78904,-0.106428 -0.19559,-0.259232 0.1877,-0.642978 0.13976,-0.964164 -0.0517,-0.345678 -0.57356,-0.622743 -0.44694,-0.948529 0.0618,-0.159052 0.38083,-0.05093 0.47359,-0.19415 0.28724,-0.443452 -0.43269,-1.218901 -0.051,-1.584239 0.40283,-0.385572 1.1338,0.286716 1.66804,0.12693 0.25287,-0.07562 0.37179,-0.55143 0.62691,-0.483743 0.27902,0.07393 0.0948,0.636464 0.33314,0.799376 z"
         style="fill:#feece1;fill-opacity:1;stroke:none;stroke-width:0.4279446px;stroke-linecap:butt;stroke-linejoin:miter;stroke-opacity:1" />
      <path
         sodipodi:nodetypes="aaaaaaaaaaaaaaaaaaaa"
         inkscape:connector-curvature="0"
         id="path5342-4-5-2"
         d="m 263.67132,-22.53415 c 0.35542,0.242964 0.90439,-0.158844 1.29123,0.03012 0.36269,0.177185 0.40609,0.755634 0.76642,0.937566 0.24762,0.125018 0.62236,-0.141446 0.83114,0.04119 0.24128,0.211064 0.33871,0.67003 0.17502,0.945658 -0.0672,0.113145 -0.31458,0.0056 -0.37511,0.122626 -0.13806,0.266334 0.44187,0.618172 0.26459,0.860164 -0.13806,0.188462 -0.49206,-0.0993 -0.70084,0.0055 -0.34568,0.173597 -0.3318,0.807893 -0.70038,0.92525 -0.39829,0.126778 -0.78528,-0.298222 -1.19553,-0.37823 -0.51647,-0.10067 -1.16694,0.209486 -1.5737,-0.124429 -0.23016,-0.188899 -0.0179,-0.664469 -0.24271,-0.859654 -0.14971,-0.130006 -0.46997,0.07866 -0.58936,-0.07946 -0.14612,-0.19363 0.14018,-0.480262 0.10442,-0.720161 -0.0386,-0.25821 -0.42841,-0.465166 -0.33383,-0.708507 0.0462,-0.118806 0.28445,-0.03798 0.35373,-0.144961 0.21456,-0.331237 -0.32318,-0.910454 -0.0381,-1.183341 0.30089,-0.288002 0.84687,0.214156 1.24592,0.09478 0.18888,-0.05641 0.27771,-0.411887 0.46827,-0.361329 0.20841,0.05517 0.0708,0.475411 0.24884,0.597085 z"
         style="fill:#bb8e7f;fill-opacity:1;stroke:none;stroke-width:0.31965011px;stroke-linecap:butt;stroke-linejoin:miter;stroke-opacity:1" />
      <path
         sodipodi:nodetypes="aaaaaaaaaaaaaaaaaaaa"
         inkscape:connector-curvature="0"
         id="path5342-7-7-9"
         d="m 255.68757,-22.316554 c 0.292,0.199611 0.74303,-0.130511 1.06084,0.02474 0.29798,0.14556 0.33364,0.620806 0.62968,0.770275 0.20343,0.102737 0.51131,-0.116151 0.68283,0.03391 0.19823,0.173403 0.27828,0.550483 0.14379,0.776933 -0.0552,0.09293 -0.25845,0.0048 -0.30818,0.100748 -0.11342,0.218808 0.36303,0.507878 0.21739,0.70669 -0.11343,0.154834 -0.40427,-0.08161 -0.5758,0.0046 -0.284,0.142611 -0.27259,0.663746 -0.57542,0.760157 -0.32722,0.104172 -0.64516,-0.245009 -0.9822,-0.310755 -0.42432,-0.08277 -0.95874,0.172126 -1.29291,-0.102134 -0.1891,-0.155193 -0.0146,-0.545912 -0.19941,-0.706265 -0.123,-0.10676 -0.38612,0.06466 -0.48421,-0.06531 -0.12003,-0.159082 0.11518,-0.394575 0.0858,-0.591676 -0.0317,-0.212132 -0.35197,-0.382158 -0.27427,-0.582083 0.0379,-0.0976 0.23371,-0.03126 0.29063,-0.119143 0.17627,-0.272133 -0.26553,-0.748 -0.0313,-0.972197 0.2472,-0.236613 0.69578,0.175949 1.02362,0.07789 0.15518,-0.04641 0.22816,-0.338395 0.38472,-0.296858 0.17122,0.04537 0.0582,0.390578 0.20443,0.490552 z"
         style="fill:#feece1;fill-opacity:1;stroke:none;stroke-width:0.26261589px;stroke-linecap:butt;stroke-linejoin:miter;stroke-opacity:1" />
      <path
         sodipodi:nodetypes="aaaaaaaaaaaaaaaaaaaa"
         inkscape:connector-curvature="0"
         id="path5342-4-5-2-6"
         d="m 255.71907,-21.904537 c 0.21811,0.149099 0.55499,-0.09748 0.79238,0.01848 0.22257,0.108733 0.24921,0.463708 0.47033,0.575354 0.15195,0.07672 0.38192,-0.0868 0.51004,0.02528 0.14807,0.129523 0.20786,0.411176 0.10741,0.58032 -0.0412,0.06943 -0.19305,0.0034 -0.2302,0.07525 -0.0847,0.16344 0.27117,0.379353 0.16238,0.527855 -0.0847,0.115653 -0.30196,-0.06094 -0.43009,0.0034 -0.21213,0.106531 -0.20361,0.495778 -0.4298,0.567797 -0.24441,0.0778 -0.4819,-0.18301 -0.73366,-0.232108 -0.31694,-0.06178 -0.71611,0.128555 -0.96572,-0.07636 -0.14125,-0.115921 -0.011,-0.407763 -0.14895,-0.527542 -0.0919,-0.07978 -0.2884,0.04827 -0.36167,-0.04876 -0.0897,-0.118824 0.086,-0.294721 0.0641,-0.44194 -0.0237,-0.158455 -0.2629,-0.285457 -0.20486,-0.434788 0.0283,-0.07291 0.17456,-0.02331 0.21707,-0.08896 0.13167,-0.203269 -0.19833,-0.558716 -0.0234,-0.726178 0.18465,-0.176738 0.5197,0.131421 0.76458,0.05816 0.11592,-0.03462 0.17042,-0.252761 0.28737,-0.221736 0.12789,0.03386 0.0435,0.291745 0.1527,0.366412 z"
         style="fill:#bb8e7f;fill-opacity:1;stroke:none;stroke-width:0.19615905px;stroke-linecap:butt;stroke-linejoin:miter;stroke-opacity:1" />
      <ellipse
         transform="rotate(1.3361519)"
         ry="3.0169389"
         rx="3.1031373"
         cy="-38.740139"
         cx="274.79874"
         id="path5180-21"
         style="opacity:1;fill:#e5989e;fill-opacity:1;stroke:none;stroke-width:1.68188405;stroke-linecap:round;stroke-miterlimit:4;stroke-dasharray:none;stroke-opacity:1" />
      <ellipse
         transform="rotate(1.3361519)"
         ry="2.4243562"
         rx="2.4936237"
         cy="-38.740139"
         cx="274.79874"
         id="path5180-2-5"
         style="opacity:1;fill:#796970;fill-opacity:1;stroke:none;stroke-width:1.35153091;stroke-linecap:round;stroke-miterlimit:4;stroke-dasharray:none;stroke-opacity:1" />
      <ellipse
         transform="rotate(1.3361519)"
         ry="1.9320086"
         rx="1.9872088"
         cy="-38.740139"
         cx="274.79874"
         id="path5180-2-9-99"
         style="opacity:1;fill:#9fa9b3;fill-opacity:1;stroke:none;stroke-width:1.07705677;stroke-linecap:round;stroke-miterlimit:4;stroke-dasharray:none;stroke-opacity:1" />
      <ellipse
         transform="rotate(1.3361519)"
         ry="0.58474195"
         rx="0.35571465"
         cy="-39.080013"
         cx="274.59198"
         id="path5180-2-9-9-14"
         style="opacity:1;fill:#e5afad;fill-opacity:1;stroke:none;stroke-width:0.25069481;stroke-linecap:round;stroke-miterlimit:4;stroke-dasharray:none;stroke-opacity:1" />
      <ellipse
         transform="rotate(21.772294)"
         ry="0.58474195"
         rx="0.35571465"
         cy="-131.85988"
         cx="242.78535"
         id="path5180-2-9-9-02-9"
         style="opacity:1;fill:#e5afad;fill-opacity:1;stroke:none;stroke-width:0.25069481;stroke-linecap:round;stroke-miterlimit:4;stroke-dasharray:none;stroke-opacity:1" />
      <path
         sodipodi:nodetypes="aaaaaaaaaaaa"
         inkscape:connector-curvature="0"
         id="path5576-1-7"
         d="m 285.4989,-24.447279 c 0.46452,0.243306 0.84492,-0.976462 1.34444,-0.816896 0.44432,0.141879 0.71462,0.847675 0.5532,1.285285 -0.31724,0.860005 -1.57503,1.003832 -2.46706,1.214839 -0.85143,0.201406 -1.84841,0.421903 -2.62472,0.01836 -1.3467,-0.700034 -2.62101,-2.227544 -2.58994,-3.745015 0.026,-1.272038 1.08431,-2.665295 2.29775,-3.047822 1.11683,-0.352069 2.44707,0.329047 3.34119,1.085219 0.4468,0.377861 0.40339,1.137489 0.81195,1.5564 0.29243,0.299827 1.2115,0.205343 1.09913,0.608812 -0.16828,0.604251 -1.44189,-0.518821 -1.88042,-0.07034 -0.44617,0.456306 -0.45086,1.615042 0.11448,1.911155 z"
         style="fill:#ecacaa;fill-opacity:1;stroke:none;stroke-width:0.38695672px;stroke-linecap:butt;stroke-linejoin:miter;stroke-opacity:1" />
      <path
         sodipodi:nodetypes="caaaaaaccc"
         inkscape:connector-curvature="0"
         id="path5576-1-0-0"
         d="m 284.08932,-24.471218 c 0.30065,0.195362 0.55219,-0.794238 0.87588,-0.666832 0.2879,0.113362 0.46074,0.684023 0.3543,1.039134 -0.20918,0.697918 -1.02627,0.819182 -1.60617,0.993465 -0.55349,0.166355 -1.20155,0.348733 -1.70401,0.02462 -0.87164,-0.562076 -1.69318,-1.794752 -1.66731,-3.024238 0.0215,-1.030645 0.71394,-2.163349 1.50313,-2.477768 0.72636,-0.289421 1.58739,0.257383 2.16501,0.866612 2.50612,0.496464 -1.1022,2.361968 0.0792,3.244916 z"
         style="fill:#6b728c;fill-opacity:1;stroke:none;stroke-width:0.28062236px;stroke-linecap:butt;stroke-linejoin:miter;stroke-opacity:1" />
      <path
         sodipodi:nodetypes="ccaaccc"
         inkscape:connector-curvature="0"
         id="path5576-1-0-7-4"
         d="m 283.95297,-24.533149 c 1.16162,-0.86929 1.03249,0.494409 -0.27334,0.807969 -0.4087,0.09668 -0.88728,0.20253 -1.25992,0.0088 -0.64645,-0.336026 -1.25815,-1.069271 -1.24323,-1.797687 0.0125,-0.610621 0.52049,-1.279406 1.10297,-1.46302 2.85712,-0.335792 1.65275,2.428815 1.67352,2.443929 z"
         style="fill:#eaceda;fill-opacity:1;stroke:none;stroke-width:0.18574813px;stroke-linecap:butt;stroke-linejoin:miter;stroke-opacity:1" />
      <path
         sodipodi:nodetypes="ccaaccc"
         inkscape:connector-curvature="0"
         id="path5576-1-0-7-5-8"
         d="m 284.91776,-23.826661 c 1.16162,-0.869291 1.03249,0.494408 -0.27334,0.807969 -0.4087,0.09667 -0.88728,0.20253 -1.25992,0.0088 -0.64645,-0.336026 -1.25815,-1.06927 -1.24324,-1.797687 0.0125,-0.61062 0.5205,-1.279405 1.10298,-1.46302 2.85712,-0.335791 1.65275,2.428815 1.67352,2.443929 z"
         style="fill:#fef1f1;fill-opacity:1;stroke:none;stroke-width:0.18574813px;stroke-linecap:butt;stroke-linejoin:miter;stroke-opacity:1" />
    </g>
  </g>
</svg>
