<?xml version="1.0" encoding="UTF-8" standalone="no"?>
<!-- Created with Inkscape (http://www.inkscape.org/) -->

<svg
   xmlns:dc="http://purl.org/dc/elements/1.1/"
   xmlns:cc="http://creativecommons.org/ns#"
   xmlns:rdf="http://www.w3.org/1999/02/22-rdf-syntax-ns#"
   xmlns:svg="http://www.w3.org/2000/svg"
   xmlns="http://www.w3.org/2000/svg"
   xmlns:xlink="http://www.w3.org/1999/xlink"
   xmlns:sodipodi="http://sodipodi.sourceforge.net/DTD/sodipodi-0.dtd"
   xmlns:inkscape="http://www.inkscape.org/namespaces/inkscape"
   width="264.58334mm"
   height="202.40625mm"
   viewBox="0 0 264.58334 202.40625"
   version="1.1"
   id="svg4422"
   inkscape:version="0.92+devel unknown"
   sodipodi:docname="srf_juego.svg"
   inkscape:export-filename="/home/fundacion/Documentos/fundecyt_02/conozco_mi_cuerpo/conozco-mi-cuerpo/img/femenino/srf_juego.png"
   inkscape:export-xdpi="96"
   inkscape:export-ydpi="96">
  <defs
     id="defs4416">
    <radialGradient
       gradientUnits="userSpaceOnUse"
       gradientTransform="matrix(3.7864401,0,0,-3.2240373,-280.33141,536.38311)"
       r="3.5887158"
       fy="130.59647"
       fx="100.74132"
       cy="130.59647"
       cx="100.74132"
       id="radialGradient4567-8-8"
       xlink:href="#linearGradient4565"
       inkscape:collect="always" />
    <linearGradient
       id="linearGradient4565"
       inkscape:collect="always">
      <stop
         id="stop4561"
         offset="0"
         style="stop-color:#e0765d;stop-opacity:1;" />
      <stop
         id="stop4563"
         offset="1"
         style="stop-color:#e0765d;stop-opacity:0;" />
    </linearGradient>
    <radialGradient
       gradientUnits="userSpaceOnUse"
       gradientTransform="matrix(1,0,0,0.69757514,0,35.481133)"
       r="13.196461"
       fy="117.32214"
       fx="100.93559"
       cy="117.32214"
       cx="100.93559"
       id="radialGradient4834"
       xlink:href="#linearGradient4565"
       inkscape:collect="always" />
    <radialGradient
       gradientUnits="userSpaceOnUse"
       gradientTransform="matrix(3.7864401,0,0,3.2240374,-281.39715,-292.3666)"
       r="3.5887158"
       fy="130.59647"
       fx="100.74132"
       cy="130.59647"
       cx="100.74132"
       id="radialGradient4567-8"
       xlink:href="#linearGradient4565"
       inkscape:collect="always" />
    <radialGradient
       gradientUnits="userSpaceOnUse"
       gradientTransform="matrix(1,0,0,1.0074834,0,-0.91724093)"
       r="9.13904"
       fy="122.5701"
       fx="101.20678"
       cy="122.5701"
       cx="101.20678"
       id="radialGradient4516"
       xlink:href="#linearGradient4510"
       inkscape:collect="always" />
    <linearGradient
       id="linearGradient4510"
       inkscape:collect="always">
      <stop
         id="stop4506"
         offset="0"
         style="stop-color:#ed8164;stop-opacity:1;" />
      <stop
         id="stop4508"
         offset="1"
         style="stop-color:#ed8164;stop-opacity:0;" />
    </linearGradient>
    <radialGradient
       gradientUnits="userSpaceOnUse"
       gradientTransform="matrix(0.89612181,0,0,7.4407388,10.403303,-895.87003)"
       r="0.59796"
       fy="138.9214"
       fx="100.74702"
       cy="138.9214"
       cx="100.74702"
       id="radialGradient4557"
       xlink:href="#linearGradient4555"
       inkscape:collect="always" />
    <linearGradient
       id="linearGradient4555"
       inkscape:collect="always">
      <stop
         id="stop4551"
         offset="0"
         style="stop-color:#e67a5f;stop-opacity:1;" />
      <stop
         id="stop4553"
         offset="1"
         style="stop-color:#e67a5f;stop-opacity:0;" />
    </linearGradient>
    <radialGradient
       gradientUnits="userSpaceOnUse"
       gradientTransform="matrix(1,0,0,0.52347649,0,62.23229)"
       r="3.5887158"
       fy="130.59647"
       fx="100.74132"
       cy="130.59647"
       cx="100.74132"
       id="radialGradient4567"
       xlink:href="#linearGradient4565"
       inkscape:collect="always" />
  </defs>
  <sodipodi:namedview
     id="base"
     pagecolor="#ffffff"
     bordercolor="#666666"
     borderopacity="1.0"
     inkscape:pageopacity="0.0"
     inkscape:pageshadow="2"
     inkscape:zoom="0.35"
     inkscape:cx="220.29542"
     inkscape:cy="330.65046"
     inkscape:document-units="mm"
     inkscape:current-layer="layer1"
     inkscape:document-rotation="0"
     showgrid="false"
     fit-margin-top="0"
     fit-margin-left="0"
     fit-margin-right="0"
     fit-margin-bottom="0"
     inkscape:window-width="1920"
     inkscape:window-height="1012"
     inkscape:window-x="0"
     inkscape:window-y="32"
     inkscape:window-maximized="1" />
  <metadata
     id="metadata4419">
    <rdf:RDF>
      <cc:Work
         rdf:about="">
        <dc:format>image/svg+xml</dc:format>
        <dc:type
           rdf:resource="http://purl.org/dc/dcmitype/StillImage" />
        <dc:title></dc:title>
      </cc:Work>
    </rdf:RDF>
  </metadata>
  <g
     inkscape:label="Capa 1"
     inkscape:groupmode="layer"
     id="layer1"
     transform="translate(-289.4516,-64.14978)">
    <g
       id="g811"
       transform="matrix(1.8652795,0,0,1.8652795,171.03441,-305.35969)"
       inkscape:export-xdpi="96"
       inkscape:export-ydpi="96">
      <g
         transform="matrix(1.1729305,0.0319587,-0.02925164,1.0735774,19.903213,126.4096)"
         id="g705">
        <path
           style="fill:#f9c5b3;fill-opacity:1;stroke:none;stroke-width:0.26458332px;stroke-linecap:butt;stroke-linejoin:miter;stroke-opacity:1"
           d="m 101.27199,147.24455 c 3.39552,-0.28345 6.07962,-3.92327 7.38015,-7.07264 0.83486,-2.02171 -0.15375,-6.56012 -0.15375,-6.56012 0,0 -1.83303,-0.0509 -2.71318,0.16423 -1.76008,0.43011 -3.48571,2.21686 -4.96568,2.21089 -2.105415,-0.008 -2.454962,-2.27732 -4.017303,-2.53692 -1.356284,-0.22536 -4.012276,0.95618 -4.012276,0.95618 0,0 -0.288191,5.58196 1.101897,7.81578 1.572195,2.52646 4.414758,5.27014 7.380142,5.0226 z"
           id="path4496"
           inkscape:connector-curvature="0"
           sodipodi:nodetypes="aacasacaa" />
        <path
           style="fill:#c9513e;fill-opacity:1;stroke:none;stroke-width:0.26458332px;stroke-linecap:butt;stroke-linejoin:miter;stroke-opacity:1"
           d="m 85.01889,121.88863 c -1.826935,-2.01078 -0.347951,-5.88891 1.304636,-8.04527 2.966483,-3.87079 8.477329,-5.59937 13.336296,-6.01583 3.754108,-0.32176 7.659448,0.98132 10.944458,2.82672 1.02782,0.57739 1.71459,1.61947 2.5368,2.46431 0.57241,0.58817 1.26773,1.09496 1.66703,1.812 0.40625,0.72951 0.32882,1.01251 0.69419,1.86657 0.38103,0.89068 1.18652,2.35165 0.68293,3.06206 -6.02065,8.4933 -24.165492,9.7348 -31.16634,2.02944 z"
           id="path4498"
           inkscape:connector-curvature="0"
           sodipodi:nodetypes="aaaaasssa" />
        <path
           style="fill:url(#radialGradient4567-8-8);fill-opacity:1;stroke:url(#radialGradient4834);stroke-width:1.27770185px;stroke-linecap:butt;stroke-linejoin:miter;stroke-opacity:1"
           d="m 88.379642,119.19276 c -0.131087,-7.28153 7.334664,-10.18084 11.810818,-10.41756 4.87919,-0.25808 13.46486,2.03519 13.30048,9.97117 -0.12531,6.04859 -6.70831,6.39459 -10.42873,6.47277 -1.02177,0.0185 -2.89139,-1.65679 -2.89139,-1.65679 0,0 -1.898515,2.32151 -3.009082,2.32638 -3.233007,0.0126 -8.687464,-1.43945 -8.782096,-6.69597 z"
           id="path4559-9-4"
           inkscape:connector-curvature="0"
           sodipodi:nodetypes="aaaacaa" />
        <path
           style="fill:#b43951;fill-opacity:1;stroke:none;stroke-width:0.26458332px;stroke-linecap:butt;stroke-linejoin:miter;stroke-opacity:1"
           d="m 100.91324,136.22558 c 1.47246,0.0261 2.19891,-1.03577 3.59756,-1.60293 1.15782,-0.46951 3.0101,-0.37757 4.03262,-1.04142 2.12664,-1.38068 3.97404,-3.33206 5.20015,-5.55141 1.37158,-2.48267 2.25443,-5.39538 2.16058,-8.23018 -0.0406,-1.22676 -0.34653,-2.58041 -1.16851,-3.49196 -3.52871,-3.91322 -9.05253,-5.65353 -14.49598,-5.43599 -5.694047,0.22755 -12.188472,2.2166 -14.858372,7.32046 -0.880648,1.68348 -1.09146,3.78925 -0.724798,5.65344 0.359143,1.82596 1.637299,3.36767 2.754235,4.85614 1.558538,2.07697 3.211735,3.804 5.431763,5.58404 0.67402,0.54044 2.049417,-0.18905 3.048382,-0.003 1.764707,0.32852 3.227628,1.91102 5.02237,1.94289 z"
           id="path4500"
           inkscape:connector-curvature="0"
           sodipodi:nodetypes="sssaasssaasas" />
        <path
           style="fill:url(#radialGradient4567-8);fill-opacity:1;stroke:none;stroke-width:1.27770174px;stroke-linecap:butt;stroke-linejoin:miter;stroke-opacity:1"
           d="m 87.313924,124.82375 c -0.131087,7.28153 7.334663,10.18084 11.810823,10.41756 4.879173,0.25808 13.464843,-2.03519 13.300463,-9.97117 -0.12531,-6.04859 -6.70831,-6.39459 -10.42872,-6.47277 -1.02177,-0.0185 -2.891392,1.65679 -2.891392,1.65679 0,0 -1.898512,-2.32151 -3.009079,-2.32638 -3.233007,-0.0126 -8.687463,1.43945 -8.782095,6.69597 z"
           id="path4559-9"
           inkscape:connector-curvature="0"
           sodipodi:nodetypes="aaaacaa" />
        <path
           style="fill:#ffd0cc;fill-opacity:1;stroke:none;stroke-width:0.28142214px;stroke-linecap:butt;stroke-linejoin:miter;stroke-opacity:1"
           d="m 102.12245,150.20527 -0.93228,0.14981 c 0,0 -0.58101,-4.9194 -1.01164,-7.35951 -0.11422,-0.64725 -0.357396,-1.27504 -0.416542,-1.92883 -0.164958,-1.82318 0.179687,-3.65705 0.178527,-5.48687 -3.83e-4,-0.58706 0.152885,-1.20852 -0.05956,-1.76027 -0.373203,-0.96942 -1.147891,-1.81725 -2.023253,-2.43445 -0.96309,-0.67904 -2.295835,-0.71331 -3.352258,-1.25468 -0.662682,-0.3396 -1.335122,-0.71127 -1.844732,-1.23594 -0.626926,-0.64544 -0.792433,-1.61107 -1.408341,-2.2659 -0.617267,-0.65628 -1.650236,-0.89944 -2.221614,-1.59176 -0.591766,-0.71703 -1.081064,-1.60158 -1.130642,-2.50935 -0.03812,-0.69803 0.49948,-1.32028 0.654585,-2.00372 0.124221,-0.54737 -0.09259,-1.18994 0.218192,-1.66667 0.404652,-0.62073 1.502268,-0.60676 1.924077,-1.21723 0.227468,-0.32919 -0.09881,-0.90621 0.218191,-1.16103 0.649498,-0.52209 1.945325,0.52215 2.558824,-0.0374 0.285671,-0.26056 -0.232813,-0.86969 0.05951,-1.12359 1.02241,-0.88802 2.929876,0.73062 4.165524,0.13108 0.275643,-0.13374 0.208571,-0.69137 0.515732,-0.73033 0.199738,-0.0253 0.265791,0.31228 0.456224,0.37453 0.638053,0.20861 1.358186,0.0165 2.023256,-0.0936 0.53147,-0.088 1.00799,-0.46876 1.54719,-0.44944 0.79506,0.0285 1.42979,0.75054 2.2216,0.82396 0.88933,0.0825 1.76346,-0.6219 2.63818,-0.44943 0.77906,0.1536 1.22825,1.01792 1.98358,1.25467 0.74143,0.23239 1.73666,-0.35543 2.34062,0.11236 0.50087,0.38795 -0.0104,1.37479 0.47606,1.77901 0.16495,0.13713 0.50621,-0.0781 0.65458,0.0749 0.55824,0.57593 -0.24925,1.62444 0.0794,2.34081 0.0557,0.12152 0.25698,0.15414 0.29754,0.2809 0.31013,0.96913 -0.14086,2.07886 -0.63475,2.97751 -0.4825,0.87791 -1.63106,1.30096 -2.16209,2.15354 -0.36889,0.59224 -0.24831,1.39629 -0.65459,1.96628 -0.4693,0.65846 -1.23455,1.09095 -1.94391,1.51685 -1.27781,0.76717 -2.91145,0.95658 -4.10602,1.8352 -0.72994,0.53687 -1.47042,1.19446 -1.76539,2.02246 -0.83532,2.34485 0.2465,4.94268 0.31738,7.41569 0.0912,3.18261 0.13883,9.55044 0.13883,9.55044 z"
           id="path4502-3"
           inkscape:connector-curvature="0"
           sodipodi:nodetypes="ccaaaaaaaaaaaaaaaaaaaaaaaaaaaaaaaaaaaac" />
        <path
           style="fill:#942f32;fill-opacity:1;stroke:none;stroke-width:0.26458332px;stroke-linecap:butt;stroke-linejoin:miter;stroke-opacity:1"
           d="m 101.97918,149.6303 -0.85164,0.14496 c 0,0 -0.53075,-4.76007 -0.92412,-7.12115 -0.10434,-0.62629 -0.32648,-1.23375 -0.380516,-1.86636 -0.150685,-1.76413 0.164138,-3.5386 0.163078,-5.30915 -3.4e-4,-0.56805 0.139668,-1.16939 -0.05436,-1.70327 -0.340911,-0.93802 -1.048592,-1.75839 -1.848239,-2.3556 -0.879773,-0.65705 -2.097236,-0.6902 -3.062275,-1.21404 -0.605359,-0.3286 -1.219631,-0.68824 -1.685157,-1.19591 -0.572696,-0.62454 -0.723886,-1.5589 -1.286516,-2.19252 -0.563872,-0.63502 -1.507486,-0.8703 -2.029438,-1.5402 -0.540577,-0.69381 -0.987549,-1.54971 -1.032838,-2.42808 -0.03482,-0.67542 0.456273,-1.27752 0.597961,-1.93883 0.113476,-0.52963 -0.08458,-1.15139 0.199318,-1.61268 0.369648,-0.60062 1.372317,-0.58711 1.757638,-1.1778 0.207792,-0.31854 -0.09026,-0.87687 0.199318,-1.12343 0.593314,-0.50519 1.777048,0.50524 2.337478,-0.0362 0.26096,-0.25212 -0.212674,-0.84153 0.05436,-1.0872 0.933969,-0.85926 2.676437,0.70695 3.805193,0.12684 0.2518,-0.12941 0.190531,-0.66899 0.471119,-0.70668 0.182458,-0.0245 0.242801,0.30216 0.416762,0.3624 0.582857,0.20185 1.240704,0.016 1.848234,-0.0906 0.4855,-0.0852 0.9208,-0.45357 1.41336,-0.43488 0.72629,0.0276 1.3061,0.72624 2.02943,0.79728 0.81239,0.0798 1.61091,-0.60176 2.40996,-0.43488 0.71168,0.14863 1.122,0.98496 1.812,1.21404 0.67729,0.22486 1.58643,-0.34392 2.13815,0.10872 0.45754,0.37538 -0.009,1.33026 0.43488,1.72139 0.15068,0.13269 0.46242,-0.0756 0.59796,0.0725 0.50994,0.55728 -0.2277,1.57183 0.0725,2.265 0.0509,0.11758 0.23474,0.14915 0.2718,0.2718 0.28331,0.93775 -0.12868,2.01153 -0.57984,2.88107 -0.44076,0.84949 -1.48997,1.25883 -1.97507,2.0838 -0.33697,0.57305 -0.22683,1.35106 -0.59796,1.9026 -0.42871,0.63712 -1.12776,1.05561 -1.77576,1.46771 -1.16727,0.74233 -2.6596,0.9256 -3.75083,1.77576 -0.6668,0.51949 -1.34323,1.15578 -1.61268,1.95696 -0.76307,2.26891 0.22517,4.7826 0.28992,7.17551 0.0833,3.07953 0.12682,9.24112 0.12682,9.24112 z"
           id="path4502"
           inkscape:connector-curvature="0"
           sodipodi:nodetypes="ccaaaaaaaaaaaaaaaaaaaaaaaaaaaaaaaaaaaac" />
        <path
           style="fill:url(#radialGradient4516);fill-opacity:1;stroke:none;stroke-width:0.26458332px;stroke-linecap:butt;stroke-linejoin:miter;stroke-opacity:1"
           d="m 107.70509,125.87502 c -0.54135,0.18783 -0.85619,0.84472 -1.41336,0.97848 -0.43856,0.10529 -0.89006,-0.16765 -1.34088,-0.1812 -1.46505,-0.044 -2.92787,0.16807 -4.38503,0.32616 -1.18888,0.12899 -2.388363,0.78513 -3.551513,0.50736 -1.147377,-0.274 -1.879109,-1.43701 -2.899193,-2.02944 -0.635495,-0.36908 -1.760192,-0.24526 -1.993197,-0.94224 -0.337502,-1.00956 0.992647,-1.88338 1.485837,-2.82671 0.630834,-1.20661 0.742201,-2.88302 1.884476,-3.624 1.360432,-0.8825 3.237606,-0.38941 4.85615,-0.28992 1.26285,0.0776 2.68903,-0.0267 3.73271,0.68856 0.45632,0.3127 0.41009,1.10561 0.86976,1.41336 1.50504,1.0076 4.69473,-0.81344 5.36351,0.86976 0.26408,0.66463 -1.21858,0.9933 -1.30463,1.70328 -0.0508,0.41887 0.64234,0.75992 0.50736,1.15968 -0.11936,0.35351 -0.82188,0.20497 -0.97848,0.54364 -0.23268,0.50317 0.66409,1.19133 0.32616,1.63079 -0.2361,0.30703 -0.79377,-0.0545 -1.15968,0.0724 z"
           id="path4504"
           inkscape:connector-curvature="0"
           sodipodi:nodetypes="caaaaaaaaaaaaaaaaac" />
        <path
           style="fill:#7f2528;fill-opacity:1;stroke:none;stroke-width:0.26458332px;stroke-linecap:butt;stroke-linejoin:miter;stroke-opacity:1"
           d="m 100.71339,143.43958 0.50736,-5.9071 -0.5436,-5.21856 -0.65232,5.32728 z"
           id="path4526"
           inkscape:connector-curvature="0" />
        <path
           style="fill:url(#radialGradient4557);fill-opacity:1;stroke:none;stroke-width:0.223997px;stroke-linecap:butt;stroke-linejoin:miter;stroke-opacity:1"
           d="m 100.76609,142.2571 0.45466,-4.72462 -0.48713,-4.17391 -0.58456,4.26087 z"
           id="path4526-9"
           inkscape:connector-curvature="0" />
        <path
           style="fill:url(#radialGradient4567);fill-opacity:1;stroke:none;stroke-width:0.26458332px;stroke-linecap:butt;stroke-linejoin:miter;stroke-opacity:1"
           d="m 97.376706,129.97013 c -0.03462,1.18228 1.937087,1.65303 3.119244,1.69147 1.28859,0.0419 3.55607,-0.33045 3.51266,-1.61899 -0.0331,-0.98209 -1.77167,-1.03827 -2.75423,-1.05096 -0.26985,-0.003 -0.76362,0.26901 -0.76362,0.26901 0,0 -0.501398,-0.37694 -0.794698,-0.37773 -0.853839,-0.002 -2.294363,0.23372 -2.319356,1.0872 z"
           id="path4559"
           inkscape:connector-curvature="0"
           sodipodi:nodetypes="aaaacaa" />
        <ellipse
           style="opacity:1;fill:#c28d7d;fill-opacity:1;stroke:none;stroke-width:0.39164808;stroke-linecap:round;stroke-miterlimit:4;stroke-dasharray:none;stroke-opacity:1"
           id="path4614-8"
           cx="113.66009"
           cy="125.72395"
           rx="0.96491116"
           ry="0.21743961"
           transform="rotate(7.5729084)" />
        <ellipse
           style="opacity:1;fill:#c28d7d;fill-opacity:1;stroke:none;stroke-width:0.31327128;stroke-linecap:round;stroke-miterlimit:4;stroke-dasharray:none;stroke-opacity:1"
           id="path4614-8-4"
           cx="112.89133"
           cy="124.09673"
           rx="0.87522191"
           ry="0.15337585"
           transform="rotate(7.5729084)" />
        <ellipse
           style="opacity:1;fill:#c28d7d;fill-opacity:1;stroke:none;stroke-width:0.39164808;stroke-linecap:round;stroke-miterlimit:4;stroke-dasharray:none;stroke-opacity:1"
           id="path4614-8-8"
           cx="116.0817"
           cy="124.08392"
           rx="0.96491116"
           ry="0.21743961"
           transform="rotate(7.5729084)" />
        <ellipse
           style="opacity:1;fill:#c28d7d;fill-opacity:1;stroke:none;stroke-width:0.39164808;stroke-linecap:round;stroke-miterlimit:4;stroke-dasharray:none;stroke-opacity:1"
           id="path4614-8-1"
           cx="115.18481"
           cy="126.85146"
           rx="0.96491116"
           ry="0.21743961"
           transform="rotate(7.5729084)" />
        <ellipse
           style="opacity:1;fill:#c28d7d;fill-opacity:1;stroke:none;stroke-width:0.39164808;stroke-linecap:round;stroke-miterlimit:4;stroke-dasharray:none;stroke-opacity:1"
           id="path4614-8-0"
           cx="115.15919"
           cy="125.10892"
           rx="0.96491116"
           ry="0.21743961"
           transform="rotate(7.5729084)" />
        <ellipse
           style="opacity:1;fill:#c28d7d;fill-opacity:1;stroke:none;stroke-width:0.39164808;stroke-linecap:round;stroke-miterlimit:4;stroke-dasharray:none;stroke-opacity:1"
           id="path4614-8-3"
           cx="112.95539"
           cy="127.59459"
           rx="0.96491116"
           ry="0.21743961"
           transform="rotate(7.5729084)" />
        <ellipse
           style="opacity:1;fill:#c28d7d;fill-opacity:1;stroke:none;stroke-width:0.34280443;stroke-linecap:round;stroke-miterlimit:4;stroke-dasharray:none;stroke-opacity:1"
           id="path4614-8-04"
           cx="112.28913"
           cy="121.91855"
           rx="0.78553265"
           ry="0.20462686"
           transform="rotate(7.5729084)" />
        <ellipse
           style="opacity:1;fill:#c28d7d;fill-opacity:1;stroke:none;stroke-width:0.27469453;stroke-linecap:round;stroke-miterlimit:4;stroke-dasharray:none;stroke-opacity:1"
           id="path4614-8-44"
           cx="114.51855"
           cy="122.77702"
           rx="0.7342816"
           ry="0.1405631"
           transform="rotate(7.5729084)" />
        <ellipse
           style="opacity:1;fill:#c28d7d;fill-opacity:1;stroke:none;stroke-width:0.39164808;stroke-linecap:round;stroke-miterlimit:4;stroke-dasharray:none;stroke-opacity:1"
           id="path4614-8-47"
           cx="87.476814"
           cy="149.61105"
           rx="0.96491116"
           ry="0.21743961"
           transform="rotate(-6.3275666)" />
        <ellipse
           style="opacity:1;fill:#c28d7d;fill-opacity:1;stroke:none;stroke-width:0.39164808;stroke-linecap:round;stroke-miterlimit:4;stroke-dasharray:none;stroke-opacity:1"
           id="path4614-8-6"
           cx="87.169319"
           cy="151.31898"
           rx="0.96491116"
           ry="0.21743961"
           transform="rotate(-6.3275666)" />
        <ellipse
           style="opacity:1;fill:#c28d7d;fill-opacity:1;stroke:none;stroke-width:0.28442666;stroke-linecap:round;stroke-miterlimit:4;stroke-dasharray:none;stroke-opacity:1"
           id="path4614-8-31"
           cx="87.669006"
           cy="148.0351"
           rx="0.72146887"
           ry="0.15337585"
           transform="rotate(-6.3275666)" />
        <ellipse
           style="opacity:1;fill:#c28d7d;fill-opacity:1;stroke:none;stroke-width:0.39164808;stroke-linecap:round;stroke-miterlimit:4;stroke-dasharray:none;stroke-opacity:1"
           id="path4614-8-7"
           cx="90.679993"
           cy="147.91977"
           rx="0.96491116"
           ry="0.21743961"
           transform="rotate(-6.3275666)" />
        <ellipse
           style="opacity:1;fill:#c28d7d;fill-opacity:1;stroke:none;stroke-width:0.32128462;stroke-linecap:round;stroke-miterlimit:4;stroke-dasharray:none;stroke-opacity:1"
           id="path4614-8-5"
           cx="91.154068"
           cy="149.86731"
           rx="0.84959638"
           ry="0.1661886"
           transform="rotate(-6.3275666)" />
        <ellipse
           style="opacity:1;fill:#c28d7d;fill-opacity:1;stroke:none;stroke-width:0.28411934;stroke-linecap:round;stroke-miterlimit:4;stroke-dasharray:none;stroke-opacity:1"
           id="path4614-8-9"
           cx="89.706223"
           cy="152.12236"
           rx="0.78553265"
           ry="0.1405631"
           transform="rotate(-6.3275666)" />
        <ellipse
           style="opacity:1;fill:#c28d7d;fill-opacity:1;stroke:none;stroke-width:0.39164808;stroke-linecap:round;stroke-miterlimit:4;stroke-dasharray:none;stroke-opacity:1"
           id="path4614-8-62"
           cx="89.475609"
           cy="148.8423"
           rx="0.96491116"
           ry="0.21743961"
           transform="rotate(-6.3275666)" />
        <ellipse
           style="opacity:1;fill:#c28d7d;fill-opacity:1;stroke:none;stroke-width:0.30385324;stroke-linecap:round;stroke-miterlimit:4;stroke-dasharray:none;stroke-opacity:1"
           id="path4614-8-17"
           cx="91.346252"
           cy="146.02348"
           rx="0.75990713"
           ry="0.1661886"
           transform="rotate(-6.3275666)" />
        <ellipse
           style="opacity:1;fill:#c28d7d;fill-opacity:1;stroke:none;stroke-width:0.39164808;stroke-linecap:round;stroke-miterlimit:4;stroke-dasharray:none;stroke-opacity:1"
           id="path4614-8-85"
           cx="87.399933"
           cy="152.50674"
           rx="0.96491116"
           ry="0.21743961"
           transform="rotate(-6.3275666)" />
        <ellipse
           style="opacity:1;fill:#c28d7d;fill-opacity:1;stroke:none;stroke-width:0.39164808;stroke-linecap:round;stroke-miterlimit:4;stroke-dasharray:none;stroke-opacity:1"
           id="path4614-8-74"
           cx="91.192513"
           cy="151.22546"
           rx="0.96491116"
           ry="0.21743961"
           transform="rotate(-6.3275666)" />
        <ellipse
           style="opacity:1;fill:#c28d7d;fill-opacity:1;stroke:none;stroke-width:0.24839646;stroke-linecap:round;stroke-miterlimit:4;stroke-dasharray:none;stroke-opacity:1"
           id="path4614-8-18"
           cx="87.553688"
           cy="155.14616"
           rx="0.7342816"
           ry="0.11493759"
           transform="rotate(-6.3275666)" />
        <ellipse
           style="opacity:1;fill:#c28d7d;fill-opacity:1;stroke:none;stroke-width:0.39164808;stroke-linecap:round;stroke-miterlimit:4;stroke-dasharray:none;stroke-opacity:1"
           id="path4614-8-59"
           cx="115.21043"
           cy="129.23463"
           rx="0.96491116"
           ry="0.21743961"
           transform="rotate(7.5729084)" />
        <ellipse
           style="opacity:1;fill:#c28d7d;fill-opacity:1;stroke:none;stroke-width:0.39164808;stroke-linecap:round;stroke-miterlimit:4;stroke-dasharray:none;stroke-opacity:1"
           id="path4614-8-75"
           cx="116.69672"
           cy="131.46405"
           rx="0.96491116"
           ry="0.21743961"
           transform="rotate(7.5729084)" />
        <ellipse
           style="opacity:1;fill:#c28d7d;fill-opacity:1;stroke:none;stroke-width:0.26740801;stroke-linecap:round;stroke-miterlimit:4;stroke-dasharray:none;stroke-opacity:1"
           id="path4614-8-38"
           cx="116.4789"
           cy="130.3109"
           rx="0.69584334"
           ry="0.1405631"
           transform="rotate(7.5729084)" />
        <ellipse
           style="opacity:1;fill:#c28d7d;fill-opacity:1;stroke:none;stroke-width:0.27469453;stroke-linecap:round;stroke-miterlimit:4;stroke-dasharray:none;stroke-opacity:1"
           id="path4614-8-44-8"
           cx="115.74857"
           cy="128.44023"
           rx="0.7342816"
           ry="0.1405631"
           transform="rotate(7.5729084)" />
        <ellipse
           style="opacity:1;fill:#c28d7d;fill-opacity:1;stroke:none;stroke-width:0.27469453;stroke-linecap:round;stroke-miterlimit:4;stroke-dasharray:none;stroke-opacity:1"
           id="path4614-8-44-3"
           cx="89.091217"
           cy="150.40544"
           rx="0.7342816"
           ry="0.1405631"
           transform="rotate(-6.3275666)" />
        <ellipse
           style="opacity:1;fill:#c28d7d;fill-opacity:1;stroke:none;stroke-width:0.24839646;stroke-linecap:round;stroke-miterlimit:4;stroke-dasharray:none;stroke-opacity:1"
           id="path4614-8-18-1"
           cx="89.770386"
           cy="153.07401"
           rx="0.7342816"
           ry="0.11493759"
           transform="rotate(-6.3275666)" />
      </g>
      <g
         transform="matrix(1.0739758,0,0,1.0739758,-14.858044,80.646469)"
         inkscape:label="Capa 1"
         id="layer1-6">
        <path
           style="fill:#f8b7b5;fill-opacity:1;stroke:none;stroke-width:0.26458332px;stroke-linecap:butt;stroke-linejoin:miter;stroke-opacity:1"
           d="m 139.09524,192.9092 c -1.6995,-0.0863 -4.20312,2.8975 -4.20312,2.8975 0,0 -3.38224,0.62783 -3.30955,-0.50114 0.1637,-2.54252 1.42411,-4.03688 1.77255,-6.13768 0.23508,-1.41729 0.35906,-2.87672 0.20501,-4.30509 -0.25418,-2.35672 -1.84504,-6.86764 -1.84504,-6.86764 0,0 -3.33035,-5.72347 -3.89508,-8.91767 -0.37926,-2.14517 -0.0248,-4.38697 0.40379,-6.52282 0.3086,-1.53779 1.25856,-2.9026 1.54375,-4.4449 0.12789,-0.69163 0.29694,-1.44456 0.0663,-2.10901 -0.61709,-1.77756 -2.60346,-2.74504 -3.63518,-4.31859 -0.67127,-1.0238 -1.37068,-2.09368 -1.63382,-3.2893 -0.26471,-1.20278 0.1025,-3.69327 0.1025,-3.69327 0,0 0.19601,-2.39495 -0.24231,-3.46749 -0.51547,-1.26132 -2.65261,-3.11023 -2.65261,-3.11023 v -4.40759 c 0,0 3.63244,-4.36212 5.94511,-5.94511 1.81786,-1.2443 3.89588,-2.19292 6.04762,-2.66506 2.88776,-0.63364 5.91893,-0.35748 8.86812,-0.15011 4.82199,0.33905 10.53905,4.13777 13.27232,8.65778 0.74592,1.23353 0.41,4.30509 0.41,4.30509 0,0 -1.89313,1.61143 -2.34511,2.71994 -1.05297,2.5825 0.39921,5.71892 -0.52494,8.35027 -0.62752,1.78675 -2.08714,3.16664 -3.26723,4.64773 -0.60765,0.76264 -1.70396,1.23267 -1.95695,2.1744 -0.75912,2.82578 1.59656,5.67083 1.81199,8.58886 0.14702,1.99143 0.0684,4.02975 -0.3624,5.97959 -0.47037,2.12909 -1.59905,4.05711 -2.39183,6.08831 -0.69249,1.77423 -1.58947,3.48319 -2.06568,5.32727 -0.40239,1.5582 -0.61409,3.17481 -0.65232,4.78367 -0.0294,1.2366 0.1201,2.47682 0.32616,3.69648 0.28015,1.65822 1.97909,3.38564 1.23216,4.89239 -0.28004,0.56491 -1.1119,0.68264 -1.73952,0.74292 -0.79953,0.0768 -1.63537,-0.15182 -2.35559,-0.50736 -1.1495,-0.56746 -1.64878,-2.42716 -2.92907,-2.49214 z"
           id="path5496-5"
           inkscape:connector-curvature="0"
           sodipodi:nodetypes="acsaacaaaaaacaccaasacaaaaaaaaaaaaaa" />
        <path
           style="fill:#f29697;fill-opacity:1;stroke:none;stroke-width:0.26458332px;stroke-linecap:butt;stroke-linejoin:miter;stroke-opacity:1"
           d="m 134.81256,194.93022 c -0.46532,0.16759 -1.12109,-0.24742 -1.30464,-0.70668 -0.18147,-0.45406 0.0857,-1.07241 0.453,-1.39524 0.22155,-0.19474 0.70109,0.0789 0.86976,-0.16308 0.39234,-0.56291 -0.50799,-1.36311 -0.34428,-2.02944 0.181,-0.73673 1.10213,-1.10495 1.37712,-1.81199 0.45292,-1.16454 0.37894,-2.48367 0.34428,-3.73271 -0.0639,-2.30117 0.44639,-5.05229 -1.01472,-6.83123 -0.51291,-0.62448 -1.78024,-0.18281 -2.28312,-0.8154 -0.84758,-1.06619 -0.29431,-2.70836 -0.47112,-4.05887 -0.0761,-0.58101 -0.0325,-1.19691 -0.25368,-1.73952 -0.25952,-0.63655 -0.93905,-1.03701 -1.21403,-1.66704 -0.25113,-0.57539 -0.56252,-1.25317 -0.3624,-1.84823 0.38182,-1.13532 1.48443,-2.42602 2.68175,-2.39184 0.99045,0.0283 1.82489,1.15058 2.10192,2.10192 0.12455,0.42772 -0.35812,0.8644 -0.28992,1.30463 0.13259,0.85585 0.54657,1.82808 1.30464,2.24688 1.79865,0.99367 4.59768,1.11643 6.16079,-0.21744 0.86142,-0.73509 0.10542,-2.34245 0.65231,-3.33407 0.56127,-1.01768 1.39175,-2.5907 2.5368,-2.39184 1.46909,0.25513 2.28745,2.5178 2.02944,3.98639 -0.17747,1.01012 -1.85649,1.15354 -2.24688,2.10192 -0.48776,1.18492 0.2961,2.56899 0.14496,3.84143 -0.18945,1.59502 -1.00516,3.06065 -1.30464,4.63871 -0.35768,1.88476 -0.38173,3.81778 -0.57984,5.72592 -0.11793,1.13582 -0.60692,2.29111 -0.3624,3.40655 0.31319,1.4287 2.1764,2.30802 2.24688,3.76895 0.0463,0.96074 -0.28196,2.45999 -1.23216,2.60928 -0.9076,0.14259 -1.33222,-1.27709 -1.88447,-2.01132 -0.35491,-0.47186 -0.42077,-1.18565 -0.90598,-1.52208 -1.08946,-0.75541 -2.6085,-0.93791 -3.91392,-0.70668 -0.73034,0.12936 -1.43596,0.56205 -1.92071,1.12344 -0.59155,0.68508 -0.16315,2.21198 -1.01474,2.51868 z"
           id="path5498-3"
           inkscape:connector-curvature="0"
           sodipodi:nodetypes="aaaaaaaaaaaaaaaaaaaaaaaaaaaaaaaaa" />
        <path
           style="fill:#f39b99;fill-opacity:1;stroke:none;stroke-width:0.26458332px;stroke-linecap:butt;stroke-linejoin:miter;stroke-opacity:1"
           d="m 139.04641,166.99171 c -1.40003,-4.47411 -2.15797,-9.64929 -4.95865,-13.42938 -1.75593,-2.27664 -5.10993,-3.18254 -6.45071,-5.72591 -1.08522,-2.0586 -0.0407,-4.75349 -0.8734,-6.92653 -1.04453,-2.7258 -4.99122,-7.19561 -4.99122,-7.19561 0,0 4.835,-2.41665 7.45918,-2.54823 3.29526,-0.16523 6.34076,2.1989 9.63982,2.24688 3.77119,0.0549 7.34445,-2.69417 11.08942,-2.24688 2.03486,0.24304 5.56851,2.60564 5.56851,2.60564 0,0 -4.1082,5.17078 -4.98867,8.26634 -0.58829,2.06834 0.86565,4.51577 -0.0725,6.45071 -1.12431,2.3189 -4.48837,2.78052 -6.01583,4.85615 -2.90003,3.94079 -5.40595,13.64682 -5.40595,13.64682 z"
           id="path5500-5"
           inkscape:connector-curvature="0"
           sodipodi:nodetypes="ccaacaaacaaac" />
        <path
           style="fill:#ef8996;fill-opacity:1;stroke:none;stroke-width:0.26458332px;stroke-linecap:butt;stroke-linejoin:miter;stroke-opacity:1"
           d="m 138.8778,192.80048 c -1.20891,-0.0224 -2.95702,2.10091 -2.95702,2.10091 l 0.15065,-2.59439 2.22942,-1.87066 -0.7944,-1.66566 -0.52532,-3.47226 -0.19219,-5.04822 -0.71751,-8.61017 1.89629,-1.74253 0.1025,-1.28128 -0.71752,-2.35755 1.84504,-2.40879 -1.28128,-5.89387 c 0,0 0.78076,-6.61536 -0.87126,-9.22518 -1.52003,-2.4013 -5.45785,-2.2172 -7.3289,-4.35634 -1.40596,-1.60741 -1.18913,-4.21686 -2.5113,-5.89386 -0.81656,-1.0357 -3.17756,-2.35755 -3.17756,-2.35755 l -3.89508,1.43503 -1.84503,-1.33253 -2.92131,1.69129 c 0,0 1.1945,-2.23528 2.27005,-2.72768 1.05188,-0.48157 2.43358,0.5765 3.47006,0.0626 4.10226,-2.03386 2.17159,-1.28647 3.38257,-1.33252 1.67933,-0.0639 3.2342,0.92313 4.81759,1.48628 2.44796,0.87064 4.68774,2.36836 7.2264,2.9213 1.1195,0.24384 2.29055,0.2293 3.43381,0.15376 1.45456,-0.0961 2.8993,-0.38312 4.30509,-0.76877 3.3783,-0.92676 6.33709,-3.68217 9.84019,-3.69007 1.32967,-0.003 2.41321,1.31936 3.74133,1.38378 1.00574,0.0488 1.99082,-1.15359 2.92131,-0.76877 1.25783,0.5202 2.0614,3.52495 2.0614,3.52495 0,0 -1.72916,-2.28732 -2.98393,-2.29492 -0.59792,-0.004 -0.84893,0.95791 -1.43503,1.07626 -1.86419,0.37646 -3.78077,-2.1181 -5.53511,-1.38377 -2.54323,1.06454 -2.39386,5.04307 -4.20257,7.12389 -0.8454,0.97259 -1.94172,1.709 -3.02381,2.4088 -1.62962,1.0539 -5.17636,2.66505 -5.17636,2.66505 l -0.61501,13.22276 -0.35876,3.12631 0.25626,1.53753 0.87127,0.56376 -0.66627,3.53632 2.15255,1.28128 -0.35876,12.50524 -0.76877,4.51009 -1.17877,2.15255 2.3063,2.6138 0.20908,2.64329 c 0,0 -2.0005,-2.62259 -3.45033,-2.64951 z"
           id="path5502-6"
           inkscape:connector-curvature="0"
           sodipodi:nodetypes="accccccccccccaaaccccassaaaaaaacaaaaacccccccccccca" />
        <path
           inkscape:connector-curvature="0"
           style="opacity:1;fill:#d1616f;fill-opacity:1;stroke:none;stroke-width:0.26458332px;stroke-linecap:butt;stroke-linejoin:miter;stroke-opacity:1"
           d="m 179.87584,123.78159 c -1.17725,0.008 -2.38718,0.32332 -3.39308,0.91261 -1.73223,1.0148 -2.21756,3.6359 -4.04884,4.45864 -1.42595,0.64063 -3.63064,-1.09873 -4.68964,0.0512 -1.05584,1.14646 1.42803,3.55492 0.33331,4.66431 -0.93152,0.944 -2.91795,-1.03606 -3.97185,-0.23099 -1.11696,0.85324 0.4456,3.63443 -0.87126,4.12585 -0.66263,0.24728 -1.08805,-0.91195 -1.69137,-1.28106 -0.46928,-0.2871 -0.93614,-0.70979 -1.48622,-0.71779 -0.86025,-0.0131 -1.49869,1.10268 -2.35747,1.05058 -0.69602,-0.0422 -1.17596,-0.75243 -1.79369,-1.0759 -1.3784,-0.7218 -2.69903,-1.86796 -4.25401,-1.92236 -2.31202,-0.0808 -4.25722,1.87708 -6.50864,2.40915 -1.89843,0.44865 -3.87093,0.50885 -5.81722,0.64027 -1.35549,0.0915 -2.7263,0.26897 -4.07468,0.10284 -1.46035,-0.17992 -2.86719,-0.68571 -4.25349,-1.17874 -1.4235,-0.50625 -2.67296,-1.50971 -4.15169,-1.81953 -0.9698,-0.20319 -2.03597,-0.32377 -2.97243,0 -1.44848,0.5008 -2.09178,2.67746 -3.6158,2.83962 -0.81187,0.0864 -1.38572,-1.09382 -2.20193,-1.07332 -1.15051,0.029 -1.89359,1.88847 -3.02307,1.6676 -0.2265,-0.0443 -0.33613,-0.33021 -0.43563,-0.53847 -0.49312,-1.03255 0.19355,-2.66428 -0.71727,-3.3569 -1.02172,-0.77696 -2.9396,1.14164 -3.84421,0.231 -0.63349,-0.63771 0.15653,-1.79222 0.17983,-2.6908 0.0151,-0.58071 0.37578,-1.32281 -0.0259,-1.74253 -1.10622,-1.15608 -3.37016,0.45187 -4.79195,-0.28215 -1.43073,-0.73864 -1.72839,-2.81011 -3.02359,-3.76669 -0.96843,-0.71524 -2.15943,-1.21348 -3.357416,-1.33274 -1.762252,-0.17544 -3.635275,0.17312 -5.227587,0.94826 -1.387227,0.6753 -2.525308,1.84717 -3.459221,3.07527 -0.927264,1.21935 -1.696469,2.62892 -2.024166,4.12533 -0.292454,1.33547 -0.174863,2.7618 0.102317,4.10052 0.338021,1.63245 0.933244,3.25943 1.870689,4.63796 0.728776,1.07168 1.779778,1.90344 2.818948,2.67787 0.852924,0.63563 2.117248,0.74653 2.767274,1.58854 0.245409,0.31789 0.367554,0.76448 0.315743,1.16272 -0.161975,1.24513 -1.492379,2.06886 -1.884124,3.26181 -0.204769,0.62357 -0.791816,1.63918 -0.217556,1.95699 0.782417,0.43301 1.340641,-2.13665 2.10168,-1.66708 0.504061,0.31101 -0.07403,1.222 -0.362251,1.73943 -0.324324,0.58225 -1.70438,0.76135 -1.449525,1.37717 0.369657,0.89323 2.136801,0.52221 2.899047,-0.0723 0.711772,-0.55518 0.401775,-1.76683 0.725022,-2.60966 1.378876,-3.59528 5.143866,-10.34304 5.143866,-10.34304 0,0 -3.92845,0.40008 -5.79654,-0.094 -1.118442,-0.29584 -2.384939,-0.71556 -3.043743,-1.66657 -1.070115,-1.54475 -1.46758,-3.82543 -0.797367,-5.58105 0.746077,-1.95435 2.794413,-3.45238 4.801775,-4.0411 1.396817,-0.40966 3.122265,-0.25014 4.330485,0.56172 0.93399,0.62759 0.65169,2.45078 1.66708,2.93574 0.90588,0.43265 2.14091,-1.05262 2.97191,-0.48937 1.14154,0.77371 -0.20119,3.19449 0.8878,4.04058 1.28374,0.9974 3.54478,-1.09852 4.87412,-0.16278 0.98561,0.69378 -0.0126,2.99238 1.10536,3.44268 1.3875,0.55884 2.46289,-2.28872 3.95015,-2.12907 0.7986,0.0857 1.04134,1.41453 1.82986,1.56735 1.03882,0.20133 1.96274,-1.17901 3.00809,-1.01493 1.76625,0.27723 3.17488,1.81014 4.3124,3.18947 1.30292,1.57989 1.32658,3.97811 2.64583,5.54437 1.69714,2.01493 5.19284,2.25194 6.45077,4.56664 0.56575,1.04103 0.0123,2.37381 0.14469,3.55121 0.34461,3.06435 1.3679,6.02932 1.68517,9.0966 0.0541,0.52283 0.0362,1.57613 0.0362,1.57613 0,0 -0.13692,0.6213 -0.36225,0.81546 -0.22313,0.19225 -0.68548,-0.008 -0.85163,0.23564 -0.13358,0.19552 -0.0253,0.49072 0.0724,0.70641 0.0476,0.10512 0.19175,0.14702 0.23565,0.25374 0.28511,0.69299 0.41104,1.57846 0.0723,2.24689 -0.24156,0.47672 -0.79097,0.96239 -1.3224,0.90589 -0.94317,-0.10029 -1.37257,-1.31845 -1.95698,-2.06551 -0.44185,-0.56481 -0.52693,-1.47422 -1.15962,-1.81178 -0.50103,-0.26732 -1.28747,-0.35062 -1.70326,0.0362 -0.28427,0.26445 -0.0179,0.78222 -0.10903,1.15962 -0.0611,0.25294 -0.38151,0.48095 -0.28991,0.7245 0.27202,0.72307 1.53374,0.4907 2.06551,1.0511 0.45042,0.47467 0.97963,1.16574 0.79737,1.79421 -0.10312,0.35556 -0.93778,0.24602 -0.92398,0.61598 0.0143,0.38107 1.02572,0.18152 0.99632,0.56172 -0.0279,0.36012 -0.97871,0.0209 -1.01441,0.38034 -0.0373,0.37525 0.87305,0.23099 0.96015,0.59789 0.0964,0.40618 -0.76602,0.66756 -0.65215,1.06919 0.10904,0.38462 1.01488,0.14757 1.06918,0.54364 0.0413,0.30069 -0.69084,0.31314 -0.67076,0.61598 0.0244,0.36783 0.9472,0.26769 0.90641,0.63407 -0.0441,0.39638 -1.08911,0.0558 -1.10691,0.45423 -0.0232,0.51906 1.40108,0.19799 1.38337,0.71727 -0.0146,0.42822 -1.16324,0.0845 -1.17874,0.51263 -0.0146,0.40473 0.97443,0.17185 1.07642,0.56379 0.0962,0.3698 -0.74003,0.5945 -0.62735,0.95963 0.11858,0.38426 1.05735,0.0639 1.11415,0.46199 0.0334,0.23392 -0.52613,0.20907 -0.55242,0.4439 -0.0313,0.27983 0.52054,0.37994 0.52554,0.66146 0.005,0.28082 -0.54256,0.40221 -0.49816,0.67955 0.0617,0.38478 0.94585,0.28988 0.95085,0.67954 0.005,0.40767 -1.02073,0.32834 -0.97823,0.73381 0.0434,0.41389 1.03259,0.12162 1.13274,0.52555 0.10683,0.4309 -0.82347,0.61627 -0.80667,1.05988 0.0216,0.57291 1.15264,0.71302 1.14154,1.28623 -0.008,0.40575 -0.85283,0.47332 -0.84233,0.87901 0.009,0.34813 0.72788,0.36902 0.76068,0.71572 0.032,0.33798 -0.6694,0.49235 -0.5979,0.82424 0.082,0.38084 0.91155,0.20421 1.01493,0.57981 0.0847,0.30771 -0.55709,0.52614 -0.47129,0.83354 0.18069,0.64727 1.71901,0.31662 1.75751,0.98754 0.0573,0.99752 -2.43475,1.03414 -2.42776,1.75803 0.0132,1.43722 0.21756,2.27376 0.21756,2.27376 l -0.58911,1.03301 1.16272,-0.57257 c 0,0 0.10387,-3.59706 2.99517,-3.93981 3.17754,0.69188 2.85302,2.95801 4.22816,4.74079 l 0.81959,-0.0253 -0.58911,-0.25631 -0.38447,-0.74311 c 0,0 -0.27878,-0.72201 -0.30748,-1.10226 -0.0531,-0.70361 0.77665,-1.62456 0.25632,-2.10116 -0.58294,-0.32561 -2.3439,0.91332 -2.2934,-1.48622 0.0507,-0.3568 0.22748,-0.62063 0.49971,-0.7431 0.4669,-0.21005 1.25924,0.64329 1.52239,0.20412 0.21237,-0.35445 -0.85093,-0.61207 -0.72503,-1.00563 0.10882,-0.34028 0.91573,-0.001 1.01493,-0.34416 0.11337,-0.39191 -0.79319,-0.54401 -0.7705,-0.95136 0.0189,-0.33902 0.66774,-0.38105 0.72502,-0.71572 0.0816,-0.4766 -0.72547,-0.83002 -0.63407,-1.30483 0.0849,-0.44085 0.91193,-0.46494 0.99633,-0.90589 0.0853,-0.44572 -0.76374,-0.80075 -0.5979,-1.22318 0.11354,-0.28922 0.83032,-0.0272 0.86971,-0.33538 0.0499,-0.39072 -0.95014,-0.29455 -0.96014,-0.68833 -0.0107,-0.4319 0.99301,-0.37465 1.01441,-0.80615 0.0142,-0.28583 -0.65169,-0.31395 -0.61599,-0.5979 0.0417,-0.33152 0.82072,-0.16817 0.86972,-0.49868 0.0426,-0.28741 -0.6447,-0.34732 -0.5979,-0.63407 0.0712,-0.43602 1.15002,-0.18388 1.16892,-0.62528 0.0159,-0.37074 -0.92327,-0.23573 -0.93328,-0.60668 -0.0101,-0.38465 0.95826,-0.29558 0.93328,-0.67955 -0.0172,-0.26432 -0.66343,-0.11818 -0.69763,-0.38085 -0.0402,-0.30929 0.69574,-0.33138 0.67954,-0.64286 -0.0144,-0.27748 -0.64465,-0.23011 -0.66145,-0.50746 -0.0256,-0.42207 0.92968,-0.46563 0.90588,-0.8878 -0.0177,-0.31364 -0.7361,-0.26574 -0.7431,-0.57981 -0.008,-0.39627 0.8509,-0.37805 0.9064,-0.7705 0.0436,-0.30851 -0.58466,-0.47466 -0.51676,-0.77876 0.057,-0.25528 0.64736,-0.14725 0.67076,-0.40773 0.029,-0.32173 -0.76042,-0.32229 -0.72502,-0.64337 0.0348,-0.31576 0.78444,-0.14813 0.83354,-0.46199 0.0532,-0.33983 -0.70742,-0.40792 -0.70642,-0.75189 10e-4,-0.35459 0.57027,-0.45586 0.7338,-0.77049 0.17045,-0.32792 -0.0622,-0.84513 0.21705,-1.08728 0.32904,-0.28538 0.98192,0.21995 1.30483,-0.0723 0.58014,-0.52511 0.87106,-1.72475 0.36225,-2.31924 -0.56555,-0.66078 -1.83747,-0.40126 -2.60914,0 -1.2503,0.65014 -1.01928,3.43527 -2.42828,3.46077 -0.81044,0.0147 -1.32574,-1.14084 -1.46761,-1.9389 -0.13042,-0.73365 0.94283,-1.45152 0.65267,-2.13785 -0.1557,-0.36829 -0.99092,-0.0913 -1.06712,-0.54829 -0.25622,-1.5375 1.05249,-6.65148 1.41129,-9.99784 0.17562,-1.63792 -0.49353,-3.5208 0.36225,-4.92838 1.14951,-1.8907 4.0347,-1.97025 5.6534,-3.47886 0.57631,-0.53711 1.02227,-1.21749 1.37718,-1.92081 0.56619,-1.12208 0.52559,-2.5027 1.15962,-3.5879 0.63826,-1.09244 1.54993,-2.04608 2.57297,-2.79052 0.7663,-0.55761 1.63445,-1.16293 2.58175,-1.19063 0.93547,-0.0273 1.69152,1.1837 2.6138,1.02475 0.84731,-0.14605 1.08891,-1.64918 1.94768,-1.69137 1.15046,-0.0566 1.73102,1.62048 2.81895,1.99884 0.61401,0.21352 1.43782,0.50678 1.94717,0.10284 0.91109,-0.72254 -0.28488,-2.69739 0.61495,-3.4339 1.21653,-0.99572 3.50498,1.10537 4.71547,0.10232 1.0402,-0.86194 -0.42951,-3.20742 0.66611,-3.99769 0.98177,-0.70817 2.5406,1.17177 3.58738,0.56379 0.91638,-0.53225 0.16563,-2.52779 1.12758,-2.97243 2.86443,-1.32403 8.21,0.10237 8.9178,3.17758 0.82302,3.57583 1.23877,8.07984 -7.71064,7.85637 -3.49077,-0.0872 1.8747,6.74151 3.17087,9.98389 0.37902,0.94814 0.47218,2.21792 1.341,2.75435 0.8943,0.55215 2.86778,0.97548 3.15278,-0.0362 0.16632,-0.59037 -1.18468,-0.49253 -1.55856,-0.97875 -0.44718,-0.58156 -1.27215,-1.70953 -0.65216,-2.10168 0.69363,-0.43873 1.05233,1.97701 1.81229,1.66708 0.63846,-0.26038 0.29885,-1.4033 0.10852,-2.06603 -0.23219,-0.80851 -1.15715,-1.27676 -1.44952,-2.0655 -0.25734,-0.69427 -0.52193,-1.53574 -0.21756,-2.21072 0.88206,-1.95607 3.82174,-2.14012 5.2188,-3.76876 0.95907,-1.11804 1.57276,-2.52856 2.01177,-3.93465 0.34672,-1.11048 0.46647,-2.29588 0.46147,-3.45922 -0.006,-1.32878 -0.0178,-2.7351 -0.56379,-3.94653 -0.74202,-1.64624 -2.03588,-3.08419 -3.5109,-4.12584 -1.56797,-1.10729 -3.46608,-1.91799 -5.38107,-2.05001 -0.16614,-0.0114 -0.33411,-0.0167 -0.50229,-0.0155 z m -54.27834,10.4128 c 1.30654,0.0288 2.49176,0.97603 3.73465,1.44177 2.19836,0.82376 4.2714,2.03869 6.55981,2.56264 1.28615,0.29448 2.62888,0.37597 3.94653,0.30747 1.69991,-0.0884 3.40246,-0.39974 5.02243,-0.92242 2.06905,-0.66758 3.8704,-1.99758 5.8937,-2.79311 0.50031,-0.19671 1.0017,-0.52605 1.53789,-0.48731 0.89925,0.065 2.43448,1.17926 2.43448,1.17926 0,0 -2.66234,0.37794 -3.66489,1.17873 -0.72112,0.576 -1.06333,1.52715 -1.40922,2.3828 -0.28963,0.71646 -0.25838,1.53472 -0.53795,2.25516 -0.29324,0.75567 -0.63858,1.52265 -1.17874,2.127 -0.62863,0.70335 -1.48053,1.18422 -2.30632,1.64021 -1.33447,0.7369 -2.96574,0.88809 -4.22817,1.74253 -0.36518,0.24717 -0.69369,0.57107 -0.92294,0.94775 -0.39321,0.64608 -0.61261,1.40379 -0.71727,2.15284 -0.16092,1.15163 0.20441,2.32333 0.154,3.48506 -0.0852,1.96248 -0.76895,5.84254 -0.76895,5.84254 0,0 -0.84805,-3.59731 -0.97358,-5.43275 -0.0857,-1.25377 0.25046,-2.51374 0.15348,-3.76669 -0.0611,-0.79 0.0144,-1.69859 -0.46147,-2.33216 -1.30547,-1.73815 -4.01041,-1.75183 -5.79138,-2.99827 -1.06485,-0.74525 -2.14128,-1.5626 -2.86959,-2.63911 -0.93163,-1.37705 -0.71598,-3.37668 -1.76837,-4.6638 -0.76054,-0.93017 -1.86835,-1.70118 -3.04943,-1.92184 -0.74431,-0.13906 -2.22932,0.43563 -2.22932,0.43563 0,0 1.97709,-1.62656 3.17759,-1.71721 0.0882,-0.007 0.17593,-0.009 0.26303,-0.007 z m 13.54904,31.52624 c 0.42908,0.011 0.84936,0.4536 0.94827,0.87127 0.0611,0.25781 -0.21496,0.48683 -0.28216,0.7431 -0.14463,0.55155 -0.22456,1.12206 -0.25631,1.69137 -0.0367,0.6572 -0.27207,1.41497 0.077,1.97301 0.28778,0.46007 1.43574,0.22629 1.43505,0.76894 -0.001,0.74517 -1.22792,1.06073 -1.97301,1.05059 -0.7956,-0.0108 -2.09434,-0.38328 -2.07584,-1.17874 0.014,-0.60341 1.28104,-0.31693 1.61437,-0.82011 0.34047,-0.51395 0.17313,-1.23 0.12816,-1.84485 -0.0408,-0.55812 -0.25019,-1.09121 -0.35863,-1.64021 -0.0571,-0.28932 -0.2557,-0.59444 -0.154,-0.87126 0.1339,-0.36443 0.50897,-0.75306 0.8971,-0.74311 z m -0.11213,7.91631 a 2.1916952,0.70887904 0 0 1 2.19159,0.709 2.1916952,0.70887904 0 0 1 -2.19159,0.70901 2.1916952,0.70887904 0 0 1 -2.1916,-0.70901 2.1916952,0.70887904 0 0 1 2.1916,-0.709 z m 0.0362,2.93574 a 1.5031364,0.79947888 0 0 1 1.50327,0.79944 1.5031364,0.79947888 0 0 1 -1.50327,0.79943 1.5031364,0.79947888 0 0 1 -1.50275,-0.79943 1.5031364,0.79947888 0 0 1 1.50275,-0.79944 z m 0.0909,2.71767 a 1.5031365,0.70887904 0 0 1 1.50275,0.709 1.5031365,0.70887904 0 0 1 -1.50275,0.709 1.5031365,0.70887904 0 0 1 -1.50327,-0.709 1.5031365,0.70887904 0 0 1 1.50327,-0.709 z m 0,2.33784 a 1.5031364,0.79947888 0 0 1 1.50275,0.79943 1.5031364,0.79947888 0 0 1 -1.50275,0.79944 1.5031364,0.79947888 0 0 1 -1.50327,-0.79944 1.5031364,0.79947888 0 0 1 1.50327,-0.79943 z m -0.0909,2.40089 a 1.4668964,0.89007872 0 0 1 1.46709,0.88986 1.4668964,0.89007872 0 0 1 -1.46709,0.88987 1.4668964,0.89007872 0 0 1 -1.46658,-0.88987 1.4668964,0.89007872 0 0 1 1.46658,-0.88986 z m 0.108,2.29391 a 1.4668965,1.1890581 0 0 1 1.4671,1.18908 1.4668965,1.1890581 0 0 1 -1.4671,1.18907 1.4668965,1.1890581 0 0 1 -1.46657,-1.18907 1.4668965,1.1890581 0 0 1 1.46657,-1.18908 z"
           id="path5504-2" />
        <path
           style="fill:#f09696;fill-opacity:1;stroke:none;stroke-width:0.26458332px;stroke-linecap:butt;stroke-linejoin:miter;stroke-opacity:1"
           d="m 124.66735,144.69959 0.0837,-2.44337 c 0,0 -3.00685,0.81959 -3.9271,1.95621 -1.11929,1.38246 -1.18841,3.24123 -4.42128,3.91391 -1.61933,0.33694 -0.7723,-1.78849 -1.37712,-2.53679 -0.42005,-0.5197 -1.07484,-0.80814 -1.52207,-1.30464 -0.82529,-0.91621 -1.02979,-2.43499 -2.10192,-3.04416 -1.09199,-0.62045 -2.52517,-0.0194 -3.7594,-0.25188 -1.56507,-0.29483 -2.99206,-1.73484 -4.55656,-1.43702 -2.33972,0.44539 -4.347099,2.44569 -5.548168,4.50241 -0.780772,1.337 -1.303437,3.12346 -0.776805,4.57942 0.457645,1.26524 2.165966,1.62553 3.064628,2.62687 0.678905,0.75646 0.824485,2.04119 1.723445,2.51556 1.10981,0.58563 2.50978,-0.0106 3.76455,0.004 1.11155,0.0126 2.23878,0.26229 3.33408,0.0725 0.98045,-0.16988 1.8598,-0.70832 2.78865,-1.06522 0.77345,-0.29719 1.672,-0.37801 2.3186,-0.89614 0.31184,-0.24988 0.32257,-0.79201 0.66551,-0.99712 1.34048,-0.80173 3.36436,0.41778 4.66434,-0.44807 1.61929,-1.07852 1.27084,-3.88716 2.75423,-5.14607 1.43696,-1.21951 2.82869,-0.60004 2.82869,-0.60004 z"
           id="path5596-9"
           inkscape:connector-curvature="0"
           sodipodi:nodetypes="ccssaaaaaaaaaaaaaaasc" />
        <path
           style="fill:#f09696;fill-opacity:1;stroke:none;stroke-width:0.26458332px;stroke-linecap:butt;stroke-linejoin:miter;stroke-opacity:1"
           d="m 153.6295,144.69959 -0.0837,-2.44337 c 0,0 3.00685,0.81959 3.9271,1.95621 1.11929,1.38246 1.18841,3.24123 4.42128,3.91391 1.61933,0.33694 0.7723,-1.78849 1.37712,-2.53679 0.42005,-0.5197 1.07484,-0.80814 1.52207,-1.30464 0.82529,-0.91621 1.02979,-2.43499 2.10192,-3.04416 1.09199,-0.62045 2.52517,-0.0194 3.7594,-0.25188 1.56507,-0.29483 2.99206,-1.73484 4.55656,-1.43702 2.33972,0.44539 4.34709,2.44569 5.54816,4.50241 0.78078,1.337 1.30344,3.12346 0.77681,4.57942 -0.45765,1.26524 -2.16597,1.62553 -3.06463,2.62687 -0.6789,0.75646 -0.82448,2.04119 -1.72344,2.51556 -1.10982,0.58563 -2.50978,-0.0106 -3.76456,0.004 -1.11154,0.0126 -2.23877,0.26229 -3.33407,0.0725 -0.98045,-0.16988 -1.8598,-0.70832 -2.78865,-1.06522 -0.77345,-0.29719 -1.672,-0.37801 -2.3186,-0.89614 -0.31184,-0.24988 -0.32257,-0.79201 -0.66551,-0.99712 -1.34048,-0.80173 -3.36436,0.41778 -4.66434,-0.44807 -1.61929,-1.07852 -1.27085,-3.88716 -2.75423,-5.14607 -1.43696,-1.21951 -2.82869,-0.60004 -2.82869,-0.60004 z"
           id="path5596-1-1"
           inkscape:connector-curvature="0"
           sodipodi:nodetypes="ccssaaaaaaaaaaaaaaasc" />
        <path
           style="fill:#f7b6b4;fill-opacity:1;stroke:none;stroke-width:0.26458332px;stroke-linecap:butt;stroke-linejoin:miter;stroke-opacity:1"
           d="m 101.32096,150.61704 c -0.61357,-1.03328 -2.58487,-0.5514 -3.255694,-1.54846 -0.702465,-1.04409 -0.555726,-2.55687 -0.21744,-3.76895 0.397254,-1.42337 1.299696,-2.80671 2.510414,-3.65402 1.19285,-0.83481 2.82441,-1.56297 4.22946,-1.09084 2.60476,0.87525 3.58229,2.21685 3.58229,2.21685 0,0 0.40208,-1.15884 0.91222,-1.31343 0.82008,-0.24851 1.79188,0.33039 2.39183,0.94224 0.63155,0.64407 0.78268,1.64898 0.94224,2.5368 0.16667,0.92738 0,2.82671 0,2.82671 0,0 0.30405,-3.17279 1.37712,-2.97167 1.49904,0.28095 0.65024,3.08426 0.28992,4.56623 -0.19969,0.82133 -0.64358,1.64766 -1.30464,2.1744 -0.91422,0.72846 -2.19392,0.82929 -3.33407,1.08719 -0.54658,0.12364 -1.25699,0.59939 -1.66704,0.21744 -0.30106,-0.28043 0.0725,-1.23216 0.0725,-1.23216 0,0 -0.89271,1.14173 -1.52208,1.4496 -0.87781,0.4294 -1.953,0.6791 -2.8992,0.43488 -0.88431,-0.22825 -1.79301,-0.83718 -2.17439,-1.66704 -0.16809,-0.36576 0.27208,-0.85966 0.0666,-1.20577 z"
           id="path5613-2"
           inkscape:connector-curvature="0"
           sodipodi:nodetypes="aaaascaaacaaaaacaaaa" />
        <path
           style="fill:#f7b6b4;fill-opacity:1;stroke:none;stroke-width:0.26458332px;stroke-linecap:butt;stroke-linejoin:miter;stroke-opacity:1"
           d="m 177.34926,150.71202 c 0.61357,-1.03328 2.58487,-0.5514 3.2557,-1.54846 0.70246,-1.04409 0.55572,-2.55687 0.21744,-3.76895 -0.39726,-1.42337 -1.2997,-2.80671 -2.51042,-3.65402 -1.19285,-0.83481 -2.82441,-1.56297 -4.22946,-1.09084 -2.60476,0.87525 -3.58229,2.21685 -3.58229,2.21685 0,0 -0.40208,-1.15884 -0.91222,-1.31343 -0.82008,-0.24851 -1.79188,0.33039 -2.39183,0.94224 -0.63155,0.64407 -0.78268,1.64898 -0.94224,2.5368 -0.16667,0.92738 0,2.82671 0,2.82671 0,0 -0.30405,-3.17279 -1.37712,-2.97167 -1.49904,0.28095 -0.65024,3.08426 -0.28992,4.56623 0.19969,0.82133 0.64358,1.64766 1.30464,2.1744 0.91422,0.72846 2.19392,0.82929 3.33407,1.08719 0.54658,0.12364 1.25699,0.59939 1.66704,0.21744 0.30106,-0.28043 -0.0725,-1.23216 -0.0725,-1.23216 0,0 0.89271,1.14173 1.52208,1.4496 0.87781,0.4294 1.953,0.6791 2.8992,0.43488 0.88431,-0.22825 1.79301,-0.83718 2.17439,-1.66704 0.16809,-0.36576 -0.27208,-0.85966 -0.0666,-1.20577 z"
           id="path5613-5-7"
           inkscape:connector-curvature="0"
           sodipodi:nodetypes="aaaascaaacaaaaacaaaa" />
      </g>
    </g>
  </g>
</svg>
