<?xml version="1.0" encoding="UTF-8" standalone="no"?>
<!-- Created with Inkscape (http://www.inkscape.org/) -->

<svg
   xmlns:dc="http://purl.org/dc/elements/1.1/"
   xmlns:cc="http://creativecommons.org/ns#"
   xmlns:rdf="http://www.w3.org/1999/02/22-rdf-syntax-ns#"
   xmlns:svg="http://www.w3.org/2000/svg"
   xmlns="http://www.w3.org/2000/svg"
   xmlns:sodipodi="http://sodipodi.sourceforge.net/DTD/sodipodi-0.dtd"
   xmlns:inkscape="http://www.inkscape.org/namespaces/inkscape"
   width="137.05417mm"
   height="195.79167mm"
   viewBox="0 0 137.05416 195.79167"
   version="1.1"
   id="svg4517"
   inkscape:version="0.92+devel unknown"
   sodipodi:docname="trompas-falopio.svg"
   inkscape:export-filename="/home/fundacion/Documentos/fundecyt_02/conozco_mi_cuerpo/conozco-mi-cuerpo/img/femenino/trompas-falopio.png"
   inkscape:export-xdpi="90"
   inkscape:export-ydpi="90">
  <defs
     id="defs4511" />
  <sodipodi:namedview
     id="base"
     pagecolor="#ffffff"
     bordercolor="#666666"
     borderopacity="1.0"
     inkscape:pageopacity="0.0"
     inkscape:pageshadow="2"
     inkscape:zoom="0.64531249"
     inkscape:cx="279.61075"
     inkscape:cy="332.55295"
     inkscape:document-units="mm"
     inkscape:current-layer="layer1"
     showgrid="false"
     inkscape:window-width="1920"
     inkscape:window-height="1012"
     inkscape:window-x="0"
     inkscape:window-y="32"
     inkscape:window-maximized="1"
     inkscape:document-rotation="0"
     fit-margin-top="0"
     fit-margin-left="0"
     fit-margin-right="0"
     fit-margin-bottom="0" />
  <metadata
     id="metadata4514">
    <rdf:RDF>
      <cc:Work
         rdf:about="">
        <dc:format>image/svg+xml</dc:format>
        <dc:type
           rdf:resource="http://purl.org/dc/dcmitype/StillImage" />
        <dc:title></dc:title>
      </cc:Work>
    </rdf:RDF>
  </metadata>
  <g
     inkscape:label="Capa 1"
     inkscape:groupmode="layer"
     id="layer1"
     transform="translate(-234.06036,-14.999168)">
    <g
       id="g4825"
       transform="translate(201.66563,21.310963)">
      <path
         sodipodi:nodetypes="acsaacaaaaaacaccaasacaaaaaaaaaaaaaa"
         inkscape:connector-curvature="0"
         id="path5496"
         d="m 101.03232,174.57237 c -1.699499,-0.0863 -4.203119,2.89749 -4.203119,2.89749 0,0 -3.38224,0.62783 -3.30955,-0.50113 0.1637,-2.54253 1.42411,-4.03688 1.77255,-6.13768 0.23508,-1.4173 0.35906,-2.87672 0.20501,-4.3051 -0.25418,-2.35672 -1.84504,-6.86763 -1.84504,-6.86763 0,0 -3.33035,-5.72348 -3.89508,-8.91768 -0.37926,-2.14517 -0.0248,-4.38697 0.40379,-6.52282 0.3086,-1.53779 1.25856,-2.9026 1.54375,-4.4449 0.12789,-0.69163 0.29694,-1.44456 0.0663,-2.10901 -0.61709,-1.77756 -2.60346,-2.74504 -3.63518,-4.31859 -0.67127,-1.0238 -1.37068,-2.09368 -1.63382,-3.2893 -0.26471,-1.20278 0.1025,-3.69327 0.1025,-3.69327 0,0 0.19601,-2.39495 -0.24231,-3.46749 -0.51547,-1.26132 -2.65261,-3.11023 -2.65261,-3.11023 v -4.40759 c 0,0 3.63244,-4.36212 5.94511,-5.94511 1.81786,-1.2443 3.89588,-2.19292 6.04762,-2.66506 2.88776,-0.63364 5.918929,-0.35748 8.868119,-0.15011 4.82199,0.33905 10.53905,4.13777 13.27232,8.65778 0.74592,1.23353 0.41,4.30509 0.41,4.30509 0,0 -1.89313,1.61143 -2.34511,2.71994 -1.05297,2.5825 0.39921,5.71892 -0.52494,8.35027 -0.62752,1.78675 -2.08714,3.16664 -3.26723,4.64773 -0.60765,0.76264 -1.70396,1.23267 -1.95695,2.1744 -0.75912,2.82578 1.59656,5.67083 1.81199,8.58886 0.14702,1.99143 0.0684,4.02975 -0.3624,5.97959 -0.47037,2.12909 -1.59905,4.05711 -2.39183,6.08831 -0.69249,1.77424 -1.58947,3.48319 -2.06568,5.32727 -0.40239,1.5582 -0.61409,3.17481 -0.65232,4.78368 -0.0294,1.2366 0.1201,2.47681 0.32616,3.69647 0.28015,1.65822 1.97909,3.38564 1.23216,4.8924 -0.28004,0.56491 -1.1119,0.68263 -1.73952,0.74291 -0.79953,0.0768 -1.63537,-0.15181 -2.35559,-0.50736 -1.1495,-0.56746 -1.64878,-2.42716 -2.92907,-2.49213 z"
         style="fill:#f8b7b5;fill-opacity:1;stroke:none;stroke-width:0.26458332px;stroke-linecap:butt;stroke-linejoin:miter;stroke-opacity:1" />
      <path
         sodipodi:nodetypes="aaaaaaaaaaaaaaaaaaaaaaaaaaaaaaaaa"
         inkscape:connector-curvature="0"
         id="path5498"
         d="m 96.749641,176.59339 c -0.46532,0.16758 -1.12109,-0.24742 -1.30464,-0.70669 -0.18147,-0.45406 0.0857,-1.07241 0.453,-1.39523 0.22155,-0.19475 0.70109,0.0789 0.86976,-0.16308 0.39234,-0.56291 -0.50799,-1.36311 -0.34428,-2.02944 0.181,-0.73674 1.10213,-1.10495 1.37712,-1.81199 0.45292,-1.16454 0.37894,-2.48368 0.34428,-3.73271 -0.0639,-2.30118 0.44639,-5.05229 -1.01472,-6.83123 -0.51291,-0.62448 -1.78024,-0.18282 -2.28312,-0.81541 -0.84758,-1.06619 -0.29431,-2.70836 -0.47112,-4.05887 -0.0761,-0.58101 -0.0325,-1.19691 -0.25368,-1.73952 -0.25952,-0.63655 -0.93905,-1.03701 -1.21403,-1.66704 -0.25113,-0.57539 -0.56252,-1.25317 -0.3624,-1.84823 0.38182,-1.13532 1.48443,-2.42602 2.68175,-2.39184 0.99045,0.0283 1.82489,1.15058 2.10192,2.10192 0.12455,0.42772 -0.35812,0.8644 -0.28992,1.30463 0.13259,0.85585 0.54657,1.82808 1.30464,2.24688 1.798649,0.99367 4.597679,1.11643 6.160789,-0.21744 0.86142,-0.73509 0.10542,-2.34245 0.65231,-3.33407 0.56127,-1.01768 1.39175,-2.5907 2.5368,-2.39184 1.46909,0.25513 2.28745,2.5178 2.02944,3.98639 -0.17747,1.01012 -1.85649,1.15354 -2.24688,2.10192 -0.48776,1.18492 0.2961,2.56899 0.14496,3.84143 -0.18945,1.59502 -1.00516,3.06066 -1.30464,4.63872 -0.35768,1.88475 -0.38173,3.81777 -0.57984,5.72591 -0.11793,1.13582 -0.60692,2.29111 -0.3624,3.40655 0.31319,1.4287 2.1764,2.30803 2.24688,3.76895 0.0463,0.96074 -0.28196,2.45999 -1.23216,2.60929 -0.9076,0.14259 -1.33222,-1.27709 -1.88447,-2.01132 -0.35491,-0.47186 -0.42077,-1.18565 -0.90598,-1.52209 -1.08946,-0.75541 -2.6085,-0.9379 -3.913919,-0.70667 -0.73034,0.12936 -1.43596,0.56204 -1.92071,1.12344 -0.59155,0.68508 -0.16315,2.21198 -1.01474,2.51868 z"
         style="fill:#f29697;fill-opacity:1;stroke:none;stroke-width:0.26458332px;stroke-linecap:butt;stroke-linejoin:miter;stroke-opacity:1" />
      <path
         sodipodi:nodetypes="ccaacaaacaaac"
         inkscape:connector-curvature="0"
         id="path5500"
         d="m 100.98349,148.65487 c -1.400029,-4.47411 -2.157969,-9.64929 -4.958649,-13.42938 -1.75593,-2.27664 -5.10993,-3.18254 -6.45071,-5.72591 -1.08522,-2.0586 -0.0407,-4.75349 -0.8734,-6.92653 -1.04453,-2.7258 -4.99122,-7.19561 -4.99122,-7.19561 0,0 4.835,-2.41665 7.45918,-2.54823 3.29526,-0.16523 6.34076,2.1989 9.639819,2.24688 3.77119,0.0549 7.34445,-2.69417 11.08942,-2.24688 2.03486,0.24304 5.56851,2.60564 5.56851,2.60564 0,0 -4.1082,5.17078 -4.98867,8.26634 -0.58829,2.06834 0.86565,4.51577 -0.0725,6.45071 -1.12431,2.3189 -4.48837,2.78052 -6.01583,4.85615 -2.90003,3.94079 -5.40595,13.64682 -5.40595,13.64682 z"
         style="fill:#f39b99;fill-opacity:1;stroke:none;stroke-width:0.26458332px;stroke-linecap:butt;stroke-linejoin:miter;stroke-opacity:1" />
      <path
         sodipodi:nodetypes="accccccccccccaaaccccassaaaaaaacaaaaacccccccccccca"
         inkscape:connector-curvature="0"
         id="path5502"
         d="m 100.81488,174.46365 c -1.208909,-0.0224 -2.957019,2.10091 -2.957019,2.10091 l 0.15065,-2.59439 2.229419,-1.87066 -0.794399,-1.66566 -0.52532,-3.47226 -0.19219,-5.04822 -0.71751,-8.61018 1.89629,-1.74253 0.102499,-1.28128 -0.717519,-2.35755 1.845039,-2.40879 -1.281279,-5.89387 c 0,0 0.780759,-6.61536 -0.87126,-9.22518 -1.52003,-2.4013 -5.45785,-2.2172 -7.3289,-4.35634 -1.40596,-1.60741 -1.18913,-4.21686 -2.5113,-5.89386 -0.81656,-1.0357 -3.17756,-2.35755 -3.17756,-2.35755 l -3.89508,1.43503 -1.84503,-1.33253 -2.92131,1.69129 c 0,0 1.1945,-2.23528 2.27005,-2.72768 1.05188,-0.48157 2.43358,0.5765 3.47006,0.0626 4.10226,-2.03386 2.17159,-1.28647 3.38257,-1.33252 1.67933,-0.0639 3.2342,0.92313 4.81759,1.48628 2.44796,0.87064 4.68774,2.36836 7.2264,2.9213 1.1195,0.24384 2.290549,0.2293 3.433809,0.15376 1.45456,-0.0961 2.8993,-0.38312 4.30509,-0.76877 3.3783,-0.92676 6.33709,-3.68217 9.84019,-3.69007 1.32967,-0.003 2.41321,1.31936 3.74133,1.38378 1.00574,0.0488 1.99082,-1.15359 2.92131,-0.76877 1.25783,0.5202 2.0614,3.52495 2.0614,3.52495 0,0 -1.72916,-2.28732 -2.98393,-2.29492 -0.59792,-0.004 -0.84893,0.95791 -1.43503,1.07626 -1.86419,0.37646 -3.78077,-2.1181 -5.53511,-1.38377 -2.54323,1.06454 -2.39386,5.04307 -4.20257,7.12389 -0.8454,0.97259 -1.94172,1.709 -3.02381,2.4088 -1.62962,1.0539 -5.17636,2.66505 -5.17636,2.66505 l -0.61501,13.22276 -0.35876,3.12631 0.25626,1.53753 0.87127,0.56376 -0.66627,3.53632 2.15255,1.28128 -0.35876,12.50524 -0.76877,4.51009 -1.17877,2.15255 2.3063,2.6138 0.20908,2.6433 c 0,0 -2.0005,-2.62259 -3.45033,-2.64952 z"
         style="fill:#ef8996;fill-opacity:1;stroke:none;stroke-width:0.26458332px;stroke-linecap:butt;stroke-linejoin:miter;stroke-opacity:1" />
      <path
         id="path5504"
         d="m 141.81292,105.44475 c -1.17725,0.008 -2.38718,0.32332 -3.39308,0.91261 -1.73223,1.0148 -2.21756,3.6359 -4.04884,4.45864 -1.42595,0.64063 -3.63064,-1.09873 -4.68964,0.0512 -1.05584,1.14646 1.42803,3.55492 0.33331,4.66431 -0.93152,0.944 -2.91795,-1.03606 -3.97185,-0.23099 -1.11696,0.85324 0.4456,3.63443 -0.87126,4.12585 -0.66263,0.24728 -1.08805,-0.91195 -1.69137,-1.28106 -0.46928,-0.2871 -0.93614,-0.70979 -1.48622,-0.71779 -0.86025,-0.0131 -1.49869,1.10268 -2.35747,1.05058 -0.69602,-0.0422 -1.17596,-0.75243 -1.79369,-1.0759 -1.3784,-0.7218 -2.69903,-1.86796 -4.25401,-1.92236 -2.31202,-0.0808 -4.25722,1.87708 -6.50864,2.40915 -1.89843,0.44865 -3.87093,0.50885 -5.81722,0.64027 -1.355489,0.0915 -2.726299,0.26897 -4.074679,0.10284 -1.46035,-0.17992 -2.86719,-0.68571 -4.25349,-1.17874 -1.4235,-0.50625 -2.67296,-1.50971 -4.15169,-1.81953 -0.9698,-0.20319 -2.03597,-0.32377 -2.97243,0 -1.44848,0.5008 -2.09178,2.67746 -3.6158,2.83962 -0.81187,0.0864 -1.38572,-1.09382 -2.20193,-1.07332 -1.15051,0.029 -1.89359,1.88847 -3.02307,1.6676 -0.2265,-0.0443 -0.33613,-0.33021 -0.43563,-0.53847 -0.49312,-1.03255 0.19355,-2.66428 -0.71727,-3.3569 -1.02172,-0.77696 -2.9396,1.14164 -3.84421,0.231 -0.63349,-0.63771 0.15653,-1.79222 0.17983,-2.6908 0.0151,-0.58071 0.37578,-1.32281 -0.0259,-1.74253 -1.10622,-1.15608 -3.37016,0.45187 -4.79195,-0.28215 -1.43073,-0.73864 -1.72839,-2.81011 -3.02359,-3.76669 -0.96843,-0.71524 -2.15943,-1.21348 -3.35742,-1.33274 -1.76225,-0.17544 -3.63527,0.17312 -5.22758,0.94826 -1.38723,0.6753 -2.52531,1.84717 -3.45922,3.07527 -0.92727,1.21935 -1.69647,2.62892 -2.02417,4.12533 -0.29245,1.33547 -0.17486,2.7618 0.10232,4.10052 0.33802,1.63245 0.93324,3.25943 1.87069,4.63796 0.72877,1.07168 1.77977,1.90344 2.81894,2.67787 0.85293,0.63563 2.11725,0.74653 2.76728,1.58854 0.24541,0.31789 0.36755,0.76448 0.31574,1.16272 -0.16197,1.24513 -1.49238,2.06886 -1.88412,3.26181 -0.20477,0.62357 -0.79182,1.63918 -0.21756,1.95699 0.78242,0.43301 1.34064,-2.13665 2.10168,-1.66708 0.50406,0.31101 -0.074,1.222 -0.36225,1.73943 -0.32432,0.58225 -1.70438,0.76135 -1.44952,1.37717 0.36965,0.89323 2.1368,0.52221 2.89904,-0.0723 0.71177,-0.55518 0.40178,-1.76683 0.72502,-2.60966 1.37888,-3.59528 5.14387,-10.34304 5.14387,-10.34304 0,0 -3.92845,0.40008 -5.79654,-0.094 -1.11844,-0.29584 -2.38494,-0.71556 -3.04374,-1.66657 -1.07012,-1.54475 -1.46758,-3.82543 -0.79737,-5.58105 0.74608,-1.95435 2.79441,-3.45238 4.80178,-4.0411 1.39681,-0.40966 3.12226,-0.25014 4.33048,0.56172 0.93399,0.62759 0.65169,2.45078 1.66708,2.93574 0.90588,0.43265 2.14091,-1.05262 2.97191,-0.48937 1.14154,0.77371 -0.20119,3.19449 0.8878,4.04058 1.28374,0.9974 3.54478,-1.09852 4.87412,-0.16278 0.98561,0.69378 -0.0126,2.99238 1.10536,3.44268 1.3875,0.55884 2.46289,-2.28872 3.95015,-2.12907 0.7986,0.0857 1.04134,1.41453 1.82986,1.56735 1.03882,0.20133 1.96274,-1.17901 3.00809,-1.01493 1.76625,0.27723 3.17488,1.81014 4.3124,3.18947 1.30292,1.57989 1.32658,3.97811 2.64583,5.54437 1.69714,2.01493 5.19284,2.25194 6.45077,4.56664 0.56575,1.04103 0.0123,2.37381 0.14469,3.55121 0.34461,3.06435 1.3679,6.02932 1.685169,9.0966 0.0541,0.52283 0.0362,1.57613 0.0362,1.57613 0,0 -0.13692,0.6213 -0.362249,0.81546 -0.22313,0.19225 -0.68548,-0.008 -0.85163,0.23564 -0.13358,0.19552 -0.0253,0.49072 0.0724,0.70641 0.0476,0.10512 0.19175,0.14702 0.23565,0.25374 0.28511,0.69299 0.41104,1.57846 0.0723,2.24689 -0.24156,0.47672 -0.79097,0.96239 -1.3224,0.90589 -0.94317,-0.10029 -1.37257,-1.31845 -1.95698,-2.06551 -0.44185,-0.56481 -0.52693,-1.47422 -1.15962,-1.81178 -0.50103,-0.26732 -1.28747,-0.35062 -1.70326,0.0362 -0.28427,0.26445 -0.0179,0.78222 -0.10903,1.15962 -0.0611,0.25294 -0.38151,0.48095 -0.28991,0.7245 0.27202,0.72307 1.53374,0.4907 2.06551,1.0511 0.45042,0.47467 0.97963,1.16574 0.79737,1.79421 -0.10312,0.35556 -0.93778,0.24602 -0.92398,0.61598 0.0143,0.38107 1.02572,0.18152 0.99632,0.56172 -0.0279,0.36012 -0.97871,0.0209 -1.01441,0.38034 -0.0373,0.37525 0.87305,0.23099 0.96015,0.59789 0.0964,0.40618 -0.76602,0.66756 -0.65215,1.06919 0.10904,0.38462 1.01488,0.14757 1.06918,0.54364 0.0413,0.30069 -0.69084,0.31314 -0.67076,0.61598 0.0244,0.36783 0.9472,0.26769 0.90641,0.63407 -0.0441,0.39638 -1.08911,0.0558 -1.10691,0.45423 -0.0232,0.51906 1.40108,0.19799 1.38337,0.71727 -0.0146,0.42823 -1.16324,0.0845 -1.17874,0.51263 -0.0146,0.40473 0.97443,0.17186 1.07642,0.56379 0.0962,0.3698 -0.74003,0.5945 -0.62735,0.95963 0.11858,0.38426 1.05735,0.0639 1.11415,0.462 0.0334,0.23391 -0.52613,0.20906 -0.55242,0.4439 -0.0313,0.27982 0.52054,0.37993 0.52554,0.66146 0.005,0.28081 -0.54256,0.40221 -0.49816,0.67954 0.0617,0.38479 0.94585,0.28988 0.95085,0.67954 0.005,0.40767 -1.02073,0.32834 -0.97823,0.73382 0.0434,0.41389 1.03259,0.12161 1.13274,0.52555 0.10683,0.4309 -0.82347,0.61627 -0.80667,1.05988 0.0216,0.5729 1.15264,0.71301 1.14154,1.28623 -0.008,0.40575 -0.85283,0.47331 -0.84233,0.87901 0.009,0.34813 0.72788,0.36901 0.76068,0.71571 0.032,0.33799 -0.6694,0.49235 -0.5979,0.82424 0.082,0.38085 0.91155,0.20422 1.01493,0.57982 0.0847,0.30771 -0.55709,0.52614 -0.47129,0.83354 0.18069,0.64726 1.71901,0.31662 1.75751,0.98753 0.0573,0.99753 -2.43475,1.03414 -2.42776,1.75803 0.0132,1.43723 0.21756,2.27376 0.21756,2.27376 l -0.58911,1.03301 1.16272,-0.57256 c 0,0 0.10387,-3.59706 2.995169,-3.93981 3.17754,0.69188 2.85302,2.95801 4.22816,4.74078 l 0.81959,-0.0253 -0.58911,-0.25631 -0.38447,-0.7431 c 0,0 -0.27878,-0.72202 -0.30748,-1.10227 -0.0531,-0.70361 0.77665,-1.62455 0.25632,-2.10116 -0.58294,-0.32561 -2.3439,0.91332 -2.2934,-1.48622 0.0507,-0.35679 0.22748,-0.62063 0.49971,-0.74309 0.4669,-0.21005 1.25924,0.64328 1.52239,0.20411 0.21237,-0.35445 -0.85093,-0.61206 -0.72503,-1.00562 0.10882,-0.34029 0.91573,-10e-4 1.01493,-0.34417 0.11337,-0.39191 -0.79319,-0.54401 -0.7705,-0.95136 0.0189,-0.33901 0.66774,-0.38105 0.72502,-0.71572 0.0816,-0.47659 -0.72547,-0.83001 -0.63407,-1.30483 0.0849,-0.44085 0.91193,-0.46493 0.99633,-0.90589 0.0853,-0.44572 -0.76374,-0.80074 -0.5979,-1.22318 0.11354,-0.28922 0.83032,-0.0272 0.86971,-0.33538 0.0499,-0.39072 -0.95014,-0.29455 -0.96014,-0.68833 -0.0107,-0.4319 0.99301,-0.37465 1.01441,-0.80615 0.0142,-0.28583 -0.65169,-0.31395 -0.61599,-0.5979 0.0417,-0.33152 0.82072,-0.16817 0.86972,-0.49868 0.0426,-0.2874 -0.6447,-0.34732 -0.5979,-0.63407 0.0712,-0.43602 1.15002,-0.18388 1.16892,-0.62528 0.0159,-0.37074 -0.92327,-0.23573 -0.93328,-0.60667 -0.0101,-0.38466 0.95826,-0.29559 0.93328,-0.67956 -0.0172,-0.26432 -0.66343,-0.11818 -0.69763,-0.38085 -0.0402,-0.30929 0.69574,-0.33138 0.67954,-0.64286 -0.0144,-0.27748 -0.64465,-0.23011 -0.66145,-0.50746 -0.0256,-0.42207 0.92968,-0.46563 0.90588,-0.8878 -0.0177,-0.31364 -0.7361,-0.26574 -0.7431,-0.57981 -0.008,-0.39627 0.8509,-0.37805 0.9064,-0.7705 0.0436,-0.30851 -0.58466,-0.47466 -0.51676,-0.77876 0.057,-0.25528 0.64736,-0.14725 0.67076,-0.40773 0.029,-0.32173 -0.76042,-0.32229 -0.72502,-0.64337 0.0348,-0.31576 0.78444,-0.14813 0.83354,-0.46199 0.0532,-0.33983 -0.70742,-0.40792 -0.70642,-0.75189 10e-4,-0.35459 0.57027,-0.45586 0.7338,-0.77049 0.17045,-0.32792 -0.0622,-0.84513 0.21705,-1.08728 0.32904,-0.28538 0.98192,0.21995 1.30483,-0.0723 0.58014,-0.52511 0.87106,-1.72475 0.36225,-2.31924 -0.56555,-0.66078 -1.83747,-0.40126 -2.60914,0 -1.2503,0.65014 -1.01928,3.43527 -2.42828,3.46077 -0.81044,0.0147 -1.32574,-1.14084 -1.46761,-1.9389 -0.13042,-0.73365 0.94283,-1.45152 0.65267,-2.13785 -0.1557,-0.36829 -0.99092,-0.0913 -1.06712,-0.54829 -0.25622,-1.5375 1.05249,-6.65148 1.41129,-9.99784 0.17562,-1.63792 -0.49353,-3.5208 0.36225,-4.92838 1.14951,-1.8907 4.0347,-1.97025 5.6534,-3.47886 0.57631,-0.53711 1.02227,-1.21749 1.37718,-1.92081 0.56619,-1.12208 0.52559,-2.5027 1.15962,-3.5879 0.63826,-1.09244 1.54993,-2.04608 2.57297,-2.79052 0.7663,-0.55761 1.63445,-1.16293 2.58175,-1.19063 0.93547,-0.0273 1.69152,1.1837 2.6138,1.02475 0.84731,-0.14605 1.08891,-1.64918 1.94768,-1.69137 1.15046,-0.0566 1.73102,1.62048 2.81895,1.99884 0.61401,0.21352 1.43782,0.50678 1.94717,0.10284 0.91109,-0.72254 -0.28488,-2.69739 0.61495,-3.4339 1.21653,-0.99572 3.50498,1.10537 4.71547,0.10232 1.0402,-0.86194 -0.42951,-3.20742 0.66611,-3.99769 0.98177,-0.70817 2.5406,1.17177 3.58738,0.56379 0.91638,-0.53225 0.16563,-2.52779 1.12758,-2.97243 2.86443,-1.32403 8.21,0.10237 8.9178,3.17758 0.82302,3.57583 1.23877,8.07984 -7.71064,7.85637 -3.49077,-0.0872 1.8747,6.74151 3.17087,9.98389 0.37902,0.94814 0.47218,2.21792 1.341,2.75435 0.8943,0.55215 2.86778,0.97548 3.15278,-0.0362 0.16632,-0.59037 -1.18468,-0.49253 -1.55856,-0.97875 -0.44718,-0.58156 -1.27215,-1.70953 -0.65216,-2.10168 0.69363,-0.43873 1.05233,1.97701 1.81229,1.66708 0.63846,-0.26038 0.29885,-1.4033 0.10852,-2.06603 -0.23219,-0.80851 -1.15715,-1.27676 -1.44952,-2.0655 -0.25734,-0.69427 -0.52193,-1.53574 -0.21756,-2.21072 0.88206,-1.95607 3.82174,-2.14012 5.2188,-3.76876 0.95907,-1.11804 1.57276,-2.52856 2.01177,-3.93465 0.34672,-1.11048 0.46647,-2.29588 0.46147,-3.45922 -0.006,-1.32878 -0.0178,-2.7351 -0.56379,-3.94653 -0.74202,-1.64625 -2.03588,-3.0842 -3.5109,-4.12585 -1.56797,-1.10729 -3.46608,-1.91799 -5.38107,-2.05001 -0.16614,-0.0114 -0.33411,-0.0167 -0.50229,-0.0155 z m -54.278339,10.4128 c 1.30654,0.0288 2.49176,0.97603 3.73465,1.44177 2.19836,0.82376 4.2714,2.03869 6.55981,2.56264 1.28615,0.29448 2.628879,0.37597 3.946529,0.30747 1.69991,-0.0884 3.40246,-0.39974 5.02243,-0.92242 2.06905,-0.66758 3.8704,-1.99758 5.8937,-2.79311 0.50031,-0.19671 1.0017,-0.52605 1.53789,-0.48731 0.89925,0.065 2.43448,1.17926 2.43448,1.17926 0,0 -2.66234,0.37794 -3.66489,1.17873 -0.72112,0.576 -1.06333,1.52715 -1.40922,2.3828 -0.28963,0.71646 -0.25838,1.53472 -0.53795,2.25516 -0.29324,0.75567 -0.63858,1.52265 -1.17874,2.127 -0.62863,0.70335 -1.48053,1.18422 -2.30632,1.64021 -1.33447,0.7369 -2.96574,0.88809 -4.22817,1.74253 -0.36518,0.24717 -0.69369,0.57107 -0.92294,0.94775 -0.39321,0.64608 -0.61261,1.40379 -0.71727,2.15284 -0.16092,1.15163 0.20441,2.32333 0.154,3.48506 -0.0852,1.96248 -0.76895,5.84254 -0.76895,5.84254 0,0 -0.84805,-3.59731 -0.97358,-5.43275 -0.0857,-1.25377 0.25046,-2.51374 0.15348,-3.76669 -0.0611,-0.79 0.0144,-1.69859 -0.461469,-2.33216 -1.30547,-1.73815 -4.01041,-1.75183 -5.79138,-2.99827 -1.06485,-0.74525 -2.14128,-1.5626 -2.86959,-2.63911 -0.93163,-1.37705 -0.71598,-3.37668 -1.76837,-4.6638 -0.76054,-0.93017 -1.86835,-1.70118 -3.04943,-1.92184 -0.74431,-0.13906 -2.22932,0.43563 -2.22932,0.43563 0,0 1.97709,-1.62656 3.17759,-1.71721 0.0882,-0.007 0.17593,-0.009 0.26303,-0.007 z m 13.549039,31.52624 c 0.42908,0.011 0.84936,0.4536 0.94827,0.87127 0.0611,0.25781 -0.21496,0.48683 -0.28216,0.7431 -0.14463,0.55155 -0.22456,1.12206 -0.25631,1.69137 -0.0367,0.6572 -0.27207,1.41497 0.077,1.97301 0.28778,0.46007 1.43574,0.22629 1.43505,0.76894 -0.001,0.74517 -1.22792,1.06073 -1.97301,1.05059 -0.7956,-0.0108 -2.094339,-0.38328 -2.075839,-1.17874 0.014,-0.60341 1.281039,-0.31693 1.614369,-0.82011 0.34047,-0.51395 0.17313,-1.23 0.12816,-1.84485 -0.0408,-0.55812 -0.25019,-1.09121 -0.35863,-1.64021 -0.0571,-0.28932 -0.2557,-0.59444 -0.154,-0.87126 0.1339,-0.36443 0.50897,-0.75306 0.8971,-0.74311 z m -0.11213,7.91631 a 2.1916952,0.70887905 0 0 1 2.19159,0.709 2.1916952,0.70887905 0 0 1 -2.19159,0.70901 2.1916952,0.70887905 0 0 1 -2.191599,-0.70901 2.1916952,0.70887905 0 0 1 2.191599,-0.709 z m 0.0362,2.93574 a 1.5031364,0.79947889 0 0 1 1.50327,0.79945 1.5031364,0.79947889 0 0 1 -1.50327,0.79942 1.5031364,0.79947889 0 0 1 -1.502749,-0.79942 1.5031364,0.79947889 0 0 1 1.502749,-0.79945 z m 0.0909,2.71767 a 1.5031365,0.70887905 0 0 1 1.50275,0.70901 1.5031365,0.70887905 0 0 1 -1.50275,0.70899 1.5031365,0.70887905 0 0 1 -1.503269,-0.70899 1.5031365,0.70887905 0 0 1 1.503269,-0.70901 z m 0,2.33784 a 1.5031364,0.79947889 0 0 1 1.50275,0.79944 1.5031364,0.79947889 0 0 1 -1.50275,0.79943 1.5031364,0.79947889 0 0 1 -1.503269,-0.79943 1.5031364,0.79947889 0 0 1 1.503269,-0.79944 z m -0.0909,2.40089 a 1.4668964,0.89007873 0 0 1 1.46709,0.88986 1.4668964,0.89007873 0 0 1 -1.46709,0.88988 1.4668964,0.89007873 0 0 1 -1.466579,-0.88988 1.4668964,0.89007873 0 0 1 1.466579,-0.88986 z m 0.108,2.29392 a 1.4668965,1.1890581 0 0 1 1.4671,1.18908 1.4668965,1.1890581 0 0 1 -1.4671,1.18906 1.4668965,1.1890581 0 0 1 -1.466569,-1.18906 1.4668965,1.1890581 0 0 1 1.466569,-1.18908 z"
         style="opacity:1;fill:#d1616f;fill-opacity:1;stroke:none;stroke-width:0.26458332px;stroke-linecap:butt;stroke-linejoin:miter;stroke-opacity:1"
         inkscape:connector-curvature="0" />
      <path
         sodipodi:nodetypes="ccssaaaaaaaaaaaaaaasc"
         inkscape:connector-curvature="0"
         id="path5596"
         d="m 86.604431,126.36275 0.0837,-2.44337 c 0,0 -3.00685,0.81959 -3.9271,1.95621 -1.11929,1.38246 -1.18841,3.24123 -4.42128,3.91391 -1.61933,0.33694 -0.7723,-1.78849 -1.37712,-2.53679 -0.42005,-0.5197 -1.07484,-0.80814 -1.52207,-1.30464 -0.82529,-0.91621 -1.02979,-2.43499 -2.10192,-3.04416 -1.09199,-0.62045 -2.52517,-0.0194 -3.7594,-0.25188 -1.56507,-0.29483 -2.99206,-1.73484 -4.55656,-1.43702 -2.33972,0.44539 -4.3471,2.44569 -5.54817,4.50241 -0.78077,1.337 -1.30344,3.12346 -0.7768,4.57942 0.45764,1.26524 2.16596,1.62553 3.06462,2.62687 0.67891,0.75646 0.82449,2.04119 1.72345,2.51556 1.10981,0.58563 2.50978,-0.0106 3.76455,0.004 1.11155,0.0126 2.23878,0.26229 3.33408,0.0725 0.98045,-0.16988 1.8598,-0.70832 2.78865,-1.06522 0.77345,-0.29719 1.672,-0.37801 2.3186,-0.89614 0.31184,-0.24988 0.32257,-0.79201 0.66551,-0.99712 1.34048,-0.80173 3.36436,0.41778 4.66434,-0.44807 1.61929,-1.07852 1.27084,-3.88716 2.75423,-5.14607 1.43696,-1.21951 2.82869,-0.60004 2.82869,-0.60004 z"
         style="fill:#f09696;fill-opacity:1;stroke:none;stroke-width:0.26458332px;stroke-linecap:butt;stroke-linejoin:miter;stroke-opacity:1" />
      <path
         sodipodi:nodetypes="ccssaaaaaaaaaaaaaaasc"
         inkscape:connector-curvature="0"
         id="path5596-1-6"
         d="m 115.56658,126.36275 -0.0837,-2.44337 c 0,0 3.00685,0.81959 3.9271,1.95621 1.11929,1.38246 1.18841,3.24123 4.42128,3.91391 1.61933,0.33694 0.7723,-1.78849 1.37712,-2.53679 0.42005,-0.5197 1.07484,-0.80814 1.52207,-1.30464 0.82529,-0.91621 1.02979,-2.43499 2.10192,-3.04416 1.09199,-0.62045 2.52517,-0.0194 3.7594,-0.25188 1.56507,-0.29483 2.99206,-1.73484 4.55656,-1.43702 2.33972,0.44539 4.34709,2.44569 5.54816,4.50241 0.78078,1.337 1.30344,3.12346 0.77681,4.57942 -0.45765,1.26524 -2.16597,1.62553 -3.06463,2.62687 -0.6789,0.75646 -0.82448,2.04119 -1.72344,2.51556 -1.10982,0.58563 -2.50978,-0.0106 -3.76456,0.004 -1.11154,0.0126 -2.23877,0.26229 -3.33407,0.0725 -0.98045,-0.16988 -1.8598,-0.70832 -2.78865,-1.06522 -0.77345,-0.29719 -1.672,-0.37801 -2.3186,-0.89614 -0.31184,-0.24988 -0.32257,-0.79201 -0.66551,-0.99712 -1.34048,-0.80173 -3.36436,0.41778 -4.66434,-0.44807 -1.61929,-1.07852 -1.27085,-3.88716 -2.75423,-5.14607 -1.43696,-1.21951 -2.82869,-0.60004 -2.82869,-0.60004 z"
         style="fill:#f09696;fill-opacity:1;stroke:none;stroke-width:0.26458332px;stroke-linecap:butt;stroke-linejoin:miter;stroke-opacity:1" />
      <path
         sodipodi:nodetypes="aaaascaaacaaaaacaaaa"
         inkscape:connector-curvature="0"
         id="path5613"
         d="m 63.258041,132.2802 c -0.61357,-1.03328 -2.58487,-0.5514 -3.25569,-1.54846 -0.70247,-1.04409 -0.55573,-2.55687 -0.21744,-3.76895 0.39725,-1.42337 1.29969,-2.80671 2.51041,-3.65402 1.19285,-0.83481 2.82441,-1.56297 4.22946,-1.09084 2.60476,0.87525 3.58229,2.21685 3.58229,2.21685 0,0 0.40208,-1.15884 0.91222,-1.31343 0.82008,-0.24851 1.79188,0.33039 2.39183,0.94224 0.63155,0.64407 0.78268,1.64898 0.94224,2.5368 0.16667,0.92738 0,2.82671 0,2.82671 0,0 0.30405,-3.17279 1.37712,-2.97167 1.49904,0.28095 0.65024,3.08426 0.28992,4.56623 -0.19969,0.82133 -0.64358,1.64766 -1.30464,2.1744 -0.91422,0.72846 -2.19392,0.82929 -3.33407,1.08719 -0.54658,0.12364 -1.25699,0.59939 -1.66704,0.21744 -0.30106,-0.28043 0.0725,-1.23216 0.0725,-1.23216 0,0 -0.89271,1.14173 -1.52208,1.4496 -0.87781,0.4294 -1.953,0.6791 -2.8992,0.43488 -0.88431,-0.22825 -1.79301,-0.83718 -2.17439,-1.66704 -0.16809,-0.36576 0.27208,-0.85966 0.0666,-1.20577 z"
         style="fill:#f7b6b4;fill-opacity:1;stroke:none;stroke-width:0.26458332px;stroke-linecap:butt;stroke-linejoin:miter;stroke-opacity:1" />
      <path
         sodipodi:nodetypes="aaaascaaacaaaaacaaaa"
         inkscape:connector-curvature="0"
         id="path5613-5-2"
         d="m 139.28634,132.37518 c 0.61357,-1.03328 2.58487,-0.5514 3.2557,-1.54846 0.70246,-1.04409 0.55572,-2.55687 0.21744,-3.76895 -0.39726,-1.42337 -1.2997,-2.80671 -2.51042,-3.65402 -1.19285,-0.83481 -2.82441,-1.56297 -4.22946,-1.09084 -2.60476,0.87525 -3.58229,2.21685 -3.58229,2.21685 0,0 -0.40208,-1.15884 -0.91222,-1.31343 -0.82008,-0.24851 -1.79188,0.33039 -2.39183,0.94224 -0.63155,0.64407 -0.78268,1.64898 -0.94224,2.5368 -0.16667,0.92738 0,2.82671 0,2.82671 0,0 -0.30405,-3.17279 -1.37712,-2.97167 -1.49904,0.28095 -0.65024,3.08426 -0.28992,4.56623 0.19969,0.82133 0.64358,1.64766 1.30464,2.1744 0.91422,0.72846 2.19392,0.82929 3.33407,1.08719 0.54658,0.12364 1.25699,0.59939 1.66704,0.21744 0.30106,-0.28043 -0.0725,-1.23216 -0.0725,-1.23216 0,0 0.89271,1.14173 1.52208,1.4496 0.87781,0.4294 1.953,0.6791 2.8992,0.43488 0.88431,-0.22825 1.79301,-0.83718 2.17439,-1.66704 0.16809,-0.36576 -0.27208,-0.85966 -0.0666,-1.20577 z"
         style="fill:#f7b6b4;fill-opacity:1;stroke:none;stroke-width:0.26458332px;stroke-linecap:butt;stroke-linejoin:miter;stroke-opacity:1" />
      <path
         sodipodi:nodetypes="cccc"
         inkscape:connector-curvature="0"
         id="path6244"
         d="m 77.748354,93.907143 69.939676,18.371617 7.8839,-55.699551 z"
         style="fill:#ffba95;fill-opacity:1;stroke:none;stroke-width:0.75310361;stroke-linecap:butt;stroke-linejoin:miter;stroke-miterlimit:4;stroke-dasharray:none;stroke-opacity:1" />
      <ellipse
         transform="rotate(2.47221)"
         ry="46.340881"
         rx="55.209949"
         cy="47.481567"
         cx="103.06586"
         id="path6235"
         style="opacity:1;fill:#ffccaa;fill-opacity:1;stroke:none;stroke-width:0.81449842;stroke-linecap:round;stroke-miterlimit:4;stroke-dasharray:none;stroke-opacity:1" />
      <path
         sodipodi:nodetypes="ccccccccccccccscccccccccccccccscc"
         id="path5504-0"
         d="m 68.113486,44.624138 c 1.215352,0.482357 17.595287,4.976132 18.65389,4.208577 1.893593,-1.372949 -0.338432,-5.445321 1.533725,-6.847321 2.531099,-1.895423 6.947611,2.525426 9.467209,0.614749 2.165143,-1.641881 -0.584846,-6.482814 1.68545,-7.97586 2.0344,-1.337938 5.00388,2.57519 7.16021,1.444232 1.88771,-0.990088 0.55216,-5.065411 2.52385,-5.875486 5.87114,-2.41221 16.4897,0.918046 17.64529,7.159321 1.34364,7.257302 1.78836,16.344517 -16.17675,15.118956 -7.00742,-0.478106 3.18243,13.710219 5.50586,20.338482 0.67939,1.938242 0.75643,4.498042 2.45584,5.65142 1.74928,1.187179 5.6784,2.209118 6.33891,0.2008 0.38543,-1.171963 -2.33797,-1.092563 -3.04712,-2.102097 -0.84819,-1.207487 -2.40816,-3.545803 -1.12822,-4.280065 1.43197,-0.821479 1.9432,4.064252 3.49729,3.507361 1.30563,-0.467858 0.72232,-2.794106 0.39732,-4.142426 -0.39644,-1.644905 -2.21461,-2.666142 -2.73369,-4.276539 -0.45691,-1.417515 -0.91563,-3.131469 -0.24542,-4.461483 1.9423,-3.854336 7.86578,-3.969142 10.81456,-7.120802 2.02433,-2.163572 3.37996,-4.944871 4.38418,-7.732423 0.79311,-2.201509 1.13661,-4.573268 1.2275,-6.91152 0.10323,-2.670802 0.20153,-5.49793 -0.79057,-7.979761 -1.34831,-3.372661 -3.82363,-6.374587 -6.69742,-8.595838 -3.0549,-2.361216 -6.79895,-4.155064 -10.63579,-4.586518 -0.33288,-0.03732 -0.66997,-0.06255 -1.00805,-0.07473 l 4e-5,-3.31e-4 c -2.36647,-0.08607 -4.82527,0.442616 -6.89783,1.539562 -3.56907,1.889025 -4.77181,7.11421 -8.52329,8.608679 -2.92113,1.163673 -7.200689,-2.522985 -9.4286,-0.303998 -2.22128,2.212287 2.561295,7.267776 0.26512,9.402196 -1.953863,1.816216 -5.773965,-2.335212 -7.961706,-0.808804 -2.318643,1.617738 0.580131,7.342318 -2.108834,8.215608 -1.353039,0.439437 -16.857244,-5.760004 -18.037635,-6.554104"
         style="opacity:1;fill:#d1616f;fill-opacity:1;stroke:none;stroke-width:0.53219509px;stroke-linecap:butt;stroke-linejoin:miter;stroke-opacity:1"
         inkscape:connector-curvature="0" />
      <path
         sodipodi:nodetypes="cccccccczcccccccccccscc"
         id="path5504-0-1"
         d="m 68.327074,43.859479 c 1.215353,0.482357 17.209068,4.959458 18.267671,4.191903 1.893593,-1.372949 -0.834507,-5.905281 1.03765,-7.307281 2.531099,-1.895423 6.497678,2.789758 9.017275,0.879081 2.165144,-1.641881 -1.294858,-7.364741 0.975438,-8.857787 2.034403,-1.337938 5.956552,2.616322 8.112892,1.485363 1.88771,-0.990087 2.04795,-4.459105 4.01964,-5.26918 6.80719,-6.348265 18.09587,-2.954749 19.25145,3.286525 1.34365,7.257303 0.59612,22.081197 -12.42364,23.67171 -13.01973,1.590495 1.73264,2.95619 1.73264,2.95619 0,0 8.33834,-1.395043 11.28712,-4.546703 2.02433,-2.163573 3.77473,-3.103759 4.77895,-5.891311 0.79311,-2.201509 0.74443,-3.094465 0.83531,-5.432717 0.10323,-2.670802 0.43256,-5.779807 -0.5595,-8.261636 -1.34831,-3.372661 -1.96026,-6.440061 -4.83405,-8.661312 -4.58265,-3.240526 -4.82724,-3.39132 -10.34867,-4.240509 -2.6243,0.121153 -4.72646,0.92636 -6.67611,1.987018 -3.56907,1.889023 -4.34332,5.921796 -8.0948,7.416265 -2.92113,1.163674 -7.553382,-2.718787 -9.781292,-0.49982 -2.221279,2.212287 2.806379,6.96881 0.510204,9.103229 -1.953863,1.816217 -6.404157,-2.078662 -8.591902,-0.552154 -2.318644,1.617738 1.112891,6.95259 -1.576074,7.825879 -1.353039,0.439437 -16.26134,-4.625037 -17.441732,-5.419137"
         style="opacity:1;fill:#800000;fill-opacity:1;stroke:none;stroke-width:0.53219509px;stroke-linecap:butt;stroke-linejoin:miter;stroke-opacity:1"
         inkscape:connector-curvature="0" />
      <path
         sodipodi:nodetypes="ccssaaaaaaaaaaaaaaasc"
         inkscape:connector-curvature="0"
         id="path5596-1-6-4"
         d="m 63.707997,63.201301 0.04379,-4.917395 c 0,0 5.971378,1.907911 7.722071,4.271877 2.12935,2.87527 2.106978,6.616603 8.545306,8.248898 3.22495,0.817605 1.707169,-3.527096 2.987545,-4.978383 0.889213,-1.007931 2.230068,-1.530762 3.171888,-2.489712 1.737994,-1.769586 2.280707,-4.803945 4.488105,-5.935095 2.248247,-1.152096 5.0762,0.180107 7.576627,-0.179994 3.170731,-0.456691 6.163311,-3.226687 9.281451,-2.492455 4.66318,1.098046 8.52358,5.291963 10.75877,9.529303 1.45304,2.754544 2.34838,6.389916 1.16375,9.270083 -1.02947,2.502886 -4.49373,3.078696 -6.38653,5.012992 -1.42994,1.461258 -1.83394,4.030388 -3.68164,4.905672 -2.28106,1.080577 -5.04267,-0.239058 -7.56551,-0.318587 -2.2348,-0.07112 -4.521736,0.332848 -6.706356,-0.143581 -1.955527,-0.426453 -3.67595,-1.584784 -5.511577,-2.382591 -1.52852,-0.664333 -3.32721,-0.904708 -4.581646,-2.00203 -0.604985,-0.529208 -0.579511,-1.61959 -1.250878,-2.061528 -2.624213,-1.727439 -6.797159,0.547658 -9.334441,-1.305123 -3.160507,-2.307861 -2.216624,-7.9218 -5.088359,-10.580376 -2.781869,-2.575371 -5.632381,-1.45125 -5.632381,-1.45125 z"
         style="fill:#f09696;fill-opacity:1;stroke:none;stroke-width:0.53219509px;stroke-linecap:butt;stroke-linejoin:miter;stroke-opacity:1" />
      <path
         sodipodi:nodetypes="aaaascaaacaaaaacaaaa"
         inkscape:connector-curvature="0"
         id="path5613-5-2-9"
         d="m 111.16592,76.906857 c 1.32268,-2.023217 5.24233,-0.883808 6.67692,-2.82927 1.50223,-2.037229 1.3386,-5.090004 0.76396,-7.555119 -0.6748,-2.894834 -2.36832,-5.753058 -4.72784,-7.560836 -2.32468,-1.781108 -5.54023,-3.385958 -8.40476,-2.559086 -5.31038,1.532883 -7.391202,4.144114 -7.391202,4.144114 0,0 -0.707485,-2.363662 -1.719216,-2.718582 -1.62645,-0.570553 -3.629581,0.508473 -4.888312,1.685977 -1.325028,1.239511 -1.715924,3.24584 -2.113602,5.016136 -0.415398,1.849178 -0.245255,5.680483 -0.245255,5.680483 0,0 -0.335729,-6.402337 -2.509613,-6.091275 -3.036788,0.434529 -1.574306,6.141632 -0.978797,9.151023 0.330051,1.66785 1.150386,3.366935 2.433133,4.482814 1.773989,1.543215 4.336893,1.856871 6.605712,2.474063 1.087686,0.295887 2.47401,1.313579 3.331195,0.5816 0.629313,-0.537424 -0.03879,-2.482407 -0.03879,-2.482407 0,0 1.694907,2.371846 2.932967,3.04514 1.72676,0.939072 3.86577,1.53415 5.78842,1.125468 1.79689,-0.38196 3.67582,-1.526808 4.51424,-3.161383 0.36952,-0.720438 -0.47218,-1.751158 -0.0292,-2.428863 z"
         style="fill:#f7b6b4;fill-opacity:1;stroke:none;stroke-width:0.53219509px;stroke-linecap:butt;stroke-linejoin:miter;stroke-opacity:1" />
    </g>
  </g>
</svg>
