<?xml version="1.0" encoding="UTF-8" standalone="no"?>
<!-- Created with Inkscape (http://www.inkscape.org/) -->

<svg
   xmlns:dc="http://purl.org/dc/elements/1.1/"
   xmlns:cc="http://creativecommons.org/ns#"
   xmlns:rdf="http://www.w3.org/1999/02/22-rdf-syntax-ns#"
   xmlns:svg="http://www.w3.org/2000/svg"
   xmlns="http://www.w3.org/2000/svg"
   xmlns:sodipodi="http://sodipodi.sourceforge.net/DTD/sodipodi-0.dtd"
   xmlns:inkscape="http://www.inkscape.org/namespaces/inkscape"
   width="210mm"
   height="297mm"
   viewBox="0 0 210 297"
   version="1.1"
   id="svg4517"
   inkscape:version="0.92.1 r"
   sodipodi:docname="trompas-falopio.svg">
  <defs
     id="defs4511" />
  <sodipodi:namedview
     id="base"
     pagecolor="#ffffff"
     bordercolor="#666666"
     borderopacity="1.0"
     inkscape:pageopacity="0.0"
     inkscape:pageshadow="2"
     inkscape:zoom="0.32265625"
     inkscape:cx="723.94224"
     inkscape:cy="727.24668"
     inkscape:document-units="mm"
     inkscape:current-layer="layer1"
     showgrid="false"
     inkscape:window-width="1366"
     inkscape:window-height="708"
     inkscape:window-x="0"
     inkscape:window-y="32"
     inkscape:window-maximized="1" />
  <metadata
     id="metadata4514">
    <rdf:RDF>
      <cc:Work
         rdf:about="">
        <dc:format>image/svg+xml</dc:format>
        <dc:type
           rdf:resource="http://purl.org/dc/dcmitype/StillImage" />
        <dc:title></dc:title>
      </cc:Work>
    </rdf:RDF>
  </metadata>
  <g
     inkscape:label="Capa 1"
     inkscape:groupmode="layer"
     id="layer1">
    <g
       id="g6263"
       inkscape:export-xdpi="90"
       inkscape:export-ydpi="90">
      <path
         sodipodi:nodetypes="acsaacaaaaaacaccaasacaaaaaaaaaaaaaa"
         inkscape:connector-curvature="0"
         id="path5496"
         d="m 38.651261,115.5938 c -1.699501,-0.0863 -4.203121,2.89749 -4.203121,2.89749 0,0 -3.38224,0.62783 -3.309548,-0.50113 0.163697,-2.54253 1.424109,-4.03688 1.772549,-6.13768 0.23508,-1.4173 0.359061,-2.87672 0.20501,-4.3051 -0.25418,-2.35672 -1.84504,-6.86763 -1.84504,-6.86763 0,0 -3.33035,-5.723475 -3.895079,-8.917674 -0.379262,-2.14517 -0.02479,-4.386971 0.403788,-6.52282 0.3086,-1.53779 1.25856,-2.902601 1.543751,-4.4449 0.127889,-0.691631 0.296939,-1.444561 0.0663,-2.109012 -0.617091,-1.777558 -2.603461,-2.745039 -3.63518,-4.31859 -0.671271,-1.0238 -1.370682,-2.093679 -1.63382,-3.289299 -0.264711,-1.20278 0.102499,-3.69327 0.102499,-3.69327 0,0 0.196012,-2.39495 -0.24231,-3.46749 -0.51547,-1.26132 -2.65261,-3.11023 -2.65261,-3.11023 v -4.40759 c 0,0 3.632441,-4.36212 5.945111,-5.94511 1.81786,-1.2443 3.895879,-2.19292 6.047621,-2.66506 2.887758,-0.63364 5.918928,-0.35748 8.868119,-0.15011 4.821989,0.33905 10.53905,4.13777 13.27232,8.65778 0.745919,1.23353 0.410001,4.30509 0.410001,4.30509 0,0 -1.893131,1.61143 -2.34511,2.71994 -1.052971,2.5825 0.399208,5.71892 -0.524942,8.35027 -0.62752,1.786751 -2.087139,3.166641 -3.267228,4.647731 -0.60765,0.76264 -1.703962,1.23267 -1.956951,2.174398 -0.759119,2.825782 1.596559,5.670831 1.811991,8.588862 0.147018,1.991429 0.0684,4.02975 -0.3624,5.979589 -0.470371,2.129091 -1.599052,4.05711 -2.391831,6.088311 -0.692491,1.774234 -1.589471,3.483184 -2.065681,5.327264 -0.402389,1.5582 -0.61409,3.17481 -0.65232,4.78368 -0.0294,1.2366 0.1201,2.47681 0.32616,3.69647 0.280152,1.65822 1.979091,3.38564 1.232162,4.8924 -0.28004,0.56491 -1.111901,0.68263 -1.739522,0.74291 -0.799528,0.0768 -1.635368,-0.15181 -2.35559,-0.50736 -1.149498,-0.56746 -1.64878,-2.42716 -2.92907,-2.49213 z"
         style="fill:#f8b7b5;fill-opacity:1;stroke:none;stroke-width:0.26458332px;stroke-linecap:butt;stroke-linejoin:miter;stroke-opacity:1" />
      <path
         sodipodi:nodetypes="aaaaaaaaaaaaaaaaaaaaaaaaaaaaaaaaa"
         inkscape:connector-curvature="0"
         id="path5498"
         d="m 34.36858,117.61482 c -0.46532,0.16758 -1.12109,-0.24742 -1.304639,-0.70669 -0.18147,-0.45406 0.0857,-1.07241 0.453001,-1.39523 0.221549,-0.19475 0.701088,0.0789 0.869759,-0.16308 0.39234,-0.56291 -0.507989,-1.36311 -0.344281,-2.02944 0.181002,-0.73674 1.10213,-1.10495 1.377119,-1.81199 0.452922,-1.16454 0.378942,-2.48368 0.344282,-3.73271 -0.0639,-2.30118 0.446389,-5.05229 -1.01472,-6.83123 -0.51291,-0.62448 -1.780241,-0.18282 -2.283121,-0.81541 -0.84758,-1.066183 -0.294309,-2.708354 -0.47112,-4.058864 -0.0761,-0.581009 -0.0325,-1.196912 -0.25368,-1.739519 -0.259519,-0.636551 -0.939048,-1.037011 -1.21403,-1.667042 -0.251129,-0.575389 -0.56252,-1.25317 -0.3624,-1.848228 0.381821,-1.135322 1.484432,-2.42602 2.681751,-2.391842 0.990449,0.0283 1.824889,1.150581 2.101919,2.101919 0.12455,0.42772 -0.358119,0.864402 -0.28992,1.304632 0.132591,0.85585 0.546571,1.82808 1.304642,2.246878 1.798648,0.993672 4.597678,1.116431 6.160788,-0.21744 0.86142,-0.735089 0.105421,-2.342449 0.652312,-3.33407 0.561269,-1.017677 1.391748,-2.590699 2.536799,-2.391838 1.469091,0.255129 2.287449,2.517798 2.029441,3.986389 -0.177472,1.010121 -1.856491,1.153541 -2.246881,2.101922 -0.48776,1.184918 0.2961,2.568988 0.14496,3.84143 -0.18945,1.595019 -1.00516,3.060653 -1.30464,4.638713 -0.357679,1.88475 -0.38173,3.81777 -0.579839,5.72591 -0.11793,1.13582 -0.60692,2.29111 -0.3624,3.40655 0.31319,1.4287 2.176399,2.30803 2.246879,3.76895 0.0463,0.96074 -0.281959,2.45999 -1.23216,2.60929 -0.9076,0.14259 -1.332219,-1.27709 -1.884471,-2.01132 -0.354909,-0.47186 -0.420769,-1.18565 -0.905978,-1.52209 -1.089462,-0.75541 -2.608501,-0.9379 -3.91392,-0.70667 -0.73034,0.12936 -1.43596,0.56204 -1.920711,1.12344 -0.59155,0.68508 -0.16315,2.21198 -1.014741,2.51868 z"
         style="fill:#f29697;fill-opacity:1;stroke:none;stroke-width:0.26458332px;stroke-linecap:butt;stroke-linejoin:miter;stroke-opacity:1" />
      <path
         sodipodi:nodetypes="ccaacaaacaaac"
         inkscape:connector-curvature="0"
         id="path5500"
         d="M 38.602432,89.676305 C 37.2024,85.202196 36.444461,80.027014 33.643781,76.246926 c -1.755929,-2.276639 -5.10993,-3.182541 -6.450711,-5.725911 -1.085218,-2.0586 -0.0407,-4.75349 -0.873398,-6.92653 -1.04453,-2.7258 -4.991222,-7.19561 -4.991222,-7.19561 0,0 4.835001,-2.41665 7.459181,-2.54823 3.295259,-0.16523 6.340761,2.1989 9.639819,2.24688 3.771191,0.0549 7.344452,-2.69417 11.08942,-2.24688 2.03486,0.24304 5.568511,2.60564 5.568511,2.60564 0,0 -4.108201,5.17078 -4.988671,8.26634 -0.588288,2.06834 0.86565,4.51577 -0.0725,6.45071 -1.124309,2.3189 -4.48837,2.780521 -6.015831,4.856151 -2.900029,3.940789 -5.405948,13.646819 -5.405947,13.646819 z"
         style="fill:#f39b99;fill-opacity:1;stroke:none;stroke-width:0.26458332px;stroke-linecap:butt;stroke-linejoin:miter;stroke-opacity:1" />
      <path
         sodipodi:nodetypes="accccccccccccaaaccccassaaaaaaacaaaaacccccccccccca"
         inkscape:connector-curvature="0"
         id="path5502"
         d="m 38.433821,115.48508 c -1.20891,-0.0224 -2.95702,2.10091 -2.95702,2.10091 l 0.150651,-2.59439 2.229419,-1.87066 -0.794401,-1.66566 -0.52532,-3.47226 -0.192188,-5.04822 -0.71751,-8.610176 1.89629,-1.74253 0.102499,-1.281279 -0.717521,-2.357549 1.84504,-2.40879 -1.281279,-5.893872 c 0,0 0.780759,-6.615358 -0.871259,-9.225179 -1.520032,-2.4013 -5.457852,-2.2172 -7.328901,-4.35634 -1.405961,-1.60741 -1.18913,-4.21686 -2.5113,-5.89386 -0.81656,-1.0357 -3.177561,-2.35755 -3.177561,-2.35755 l -3.89508,1.43503 -1.845029,-1.33253 -2.92131,1.69129 c 0,0 1.194499,-2.23528 2.270048,-2.72768 1.051881,-0.48157 2.433582,0.5765 3.470061,0.0626 4.102261,-2.03386 2.171592,-1.28647 3.382571,-1.33252 1.679329,-0.0639 3.234201,0.92313 4.817589,1.48628 2.447962,0.87064 4.687742,2.36836 7.2264,2.9213 1.1195,0.24384 2.290551,0.2293 3.433811,0.15376 1.45456,-0.0961 2.899301,-0.38312 4.305091,-0.76877 3.3783,-0.92676 6.337088,-3.68217 9.84019,-3.69007 1.329669,-0.003 2.413209,1.31936 3.74133,1.38378 1.005739,0.0488 1.99082,-1.15359 2.921309,-0.76877 1.25783,0.5202 2.061401,3.52495 2.061401,3.52495 0,0 -1.729161,-2.28732 -2.983931,-2.29492 -0.597919,-0.004 -0.848929,0.95791 -1.435029,1.07626 -1.864191,0.37646 -3.780771,-2.1181 -5.535112,-1.38377 -2.543228,1.06454 -2.393858,5.04307 -4.202568,7.12389 -0.845402,0.97259 -1.941721,1.709 -3.023812,2.4088 -1.629619,1.0539 -5.176358,2.66505 -5.176358,2.66505 l -0.615011,13.22276 -0.358759,3.126311 0.256259,1.537529 0.871271,0.56376 -0.666271,3.536321 2.152549,1.281279 -0.358759,12.505235 -0.768771,4.51009 -1.178769,2.15255 2.306299,2.6138 0.209082,2.6433 c 0,0 -2.000502,-2.62259 -3.450331,-2.64952 z"
         style="fill:#ef8996;fill-opacity:1;stroke:none;stroke-width:0.26458332px;stroke-linecap:butt;stroke-linejoin:miter;stroke-opacity:1" />
      <path
         id="path5504"
         d="m 79.43186,46.466185 c -1.17725,0.008 -2.387179,0.32332 -3.39308,0.91261 -1.732229,1.0148 -2.21756,3.6359 -4.048839,4.45864 -1.425951,0.64063 -3.630639,-1.09873 -4.689639,0.0512 -1.055841,1.14646 1.42803,3.55492 0.333309,4.66431 -0.931519,0.944 -2.91795,-1.03606 -3.971851,-0.23099 -1.11696,0.85324 0.4456,3.63443 -0.87126,4.12585 -0.662628,0.24728 -1.088049,-0.91195 -1.69137,-1.28106 -0.469278,-0.2871 -0.936138,-0.70979 -1.48622,-0.71779 -0.860248,-0.0131 -1.49869,1.10268 -2.357469,1.05058 -0.696021,-0.0422 -1.17596,-0.75243 -1.79369,-1.0759 -1.3784,-0.7218 -2.699031,-1.86796 -4.254011,-1.92236 -2.312019,-0.0808 -4.25722,1.87708 -6.508639,2.40915 -1.89843,0.44865 -3.87093,0.50885 -5.817221,0.64027 -1.35549,0.0915 -2.726299,0.26897 -4.074679,0.10284 -1.460349,-0.17992 -2.867189,-0.68571 -4.253489,-1.17874 -1.423501,-0.50625 -2.672961,-1.50971 -4.151691,-1.81953 -0.969801,-0.20319 -2.035971,-0.32377 -2.97243,0 -1.44848,0.5008 -2.09178,2.67746 -3.615801,2.83962 -0.811869,0.0864 -1.385718,-1.09382 -2.201929,-1.07332 -1.150511,0.029 -1.893591,1.88847 -3.023071,1.6676 -0.226499,-0.0443 -0.336129,-0.33021 -0.435631,-0.53847 -0.493118,-1.03255 0.193551,-2.66428 -0.717268,-3.3569 -1.02172,-0.77696 -2.9396,1.14164 -3.8442111,0.231 -0.63349,-0.63771 0.156531,-1.79222 0.179831,-2.6908 0.0151,-0.58071 0.3757801,-1.32281 -0.0259,-1.74253 -1.10622,-1.15608 -3.370161,0.45187 -4.79195,-0.28215 -1.430731,-0.73864 -1.728391,-2.81011 -3.02359,-3.76669 -0.96843097,-0.71524 -2.15942997,-1.21348 -3.357417,-1.33274 -1.7622517,-0.17544 -3.6352747,0.17312 -5.2275866,0.94826 -1.3872271,0.6753 -2.525308,1.84717 -3.4592213,3.07527 -0.927264,1.21935 -1.696469,2.62892 -2.024166,4.12533 -0.292454,1.33547 -0.174863,2.7618 0.102317,4.10052 0.338021,1.63245 0.933244,3.25943 1.870689,4.63796 0.7287762,1.07168 1.7797782,1.90344 2.8189483,2.67787 0.852924,0.63563 2.1172479,0.74653 2.7672739,1.58854 0.245409,0.31789 0.3675541,0.76448 0.3157432,1.16272 -0.1619751,1.24513 -1.4923792,2.06886 -1.8841242,3.26181 -0.2047689,0.62357 -0.7918159,1.63918 -0.217556,1.95699 0.7824171,0.433009 1.3406411,-2.13665 2.1016802,-1.66708 0.5040608,0.31101 -0.07403,1.222001 -0.3622511,1.73943 -0.3243239,0.58225 -1.70438,0.761349 -1.4495251,1.37717 0.369657,0.89323 2.1368012,0.522211 2.899047,-0.0723 0.711772,-0.555181 0.401775,-1.76683 0.7250221,-2.60966 1.3788756,-3.59528 5.1438666,-10.34304 5.1438666,-10.34304 0,0 -3.928451,0.40008 -5.7965405,-0.094 -1.1184422,-0.29584 -2.3849391,-0.71556 -3.0437432,-1.66657 -1.0701149,-1.54475 -1.4675799,-3.82543 -0.7973671,-5.58105 0.7460771,-1.95435 2.7944133,-3.45238 4.8017758,-4.0411 1.39681603,-0.40966 3.12226403,-0.25014 4.330484,0.56172 0.93399,0.62759 0.651691,2.45078 1.66708,2.93574 0.905881,0.43265 2.140911,-1.05262 2.971911,-0.48937 1.14154,0.77371 -0.20119,3.19449 0.8878,4.04058 1.283739,0.9974 3.5447791,-1.09852 4.8741201,-0.16278 0.98561,0.69378 -0.0126,2.99238 1.10536,3.44268 1.3875,0.55884 2.462891,-2.28872 3.950151,-2.12907 0.798599,0.0857 1.041339,1.41453 1.829858,1.56735 1.03882,0.20133 1.96274,-1.17901 3.00809,-1.01493 1.76625,0.27723 3.174881,1.81014 4.312402,3.18947 1.302919,1.57989 1.326578,3.97811 2.645828,5.54437 1.69714,2.01493 5.192842,2.25194 6.450772,4.566639 0.56575,1.041032 0.0123,2.373813 0.14469,3.551211 0.344609,3.064351 1.367898,6.02932 1.685168,9.0966 0.0541,0.52283 0.0362,1.576131 0.0362,1.576131 0,0 -0.136919,0.6213 -0.362249,0.815459 -0.223131,0.192251 -0.68548,-0.008 -0.85163,0.23564 -0.13358,0.19552 -0.02529,0.49072 0.0724,0.706411 0.0476,0.105119 0.191749,0.147019 0.235649,0.253739 0.28511,0.692991 0.411041,1.578461 0.0723,2.246891 -0.241559,0.476719 -0.790969,0.962391 -1.322398,0.905889 -0.943171,-0.100291 -1.372571,-1.318451 -1.95698,-2.06551 -0.441852,-0.564808 -0.526931,-1.474218 -1.159621,-1.811779 -0.501031,-0.267322 -1.287471,-0.350621 -1.703261,0.0362 -0.284268,0.264449 -0.01791,0.78222 -0.109029,1.159619 -0.0611,0.252941 -0.381511,0.480951 -0.289909,0.7245 0.272018,0.72307 1.533739,0.490699 2.065509,1.0511 0.450419,0.47467 0.97963,1.165741 0.79737,1.794211 -0.103119,0.35556 -0.937779,0.24602 -0.923981,0.615979 0.01429,0.381072 1.025721,0.18152 0.99632,0.561721 -0.0279,0.360119 -0.978709,0.0209 -1.01441,0.380339 -0.0373,0.37525 0.873051,0.230991 0.960149,0.597892 0.0964,0.406178 -0.766019,0.667559 -0.652147,1.069189 0.10904,0.38462 1.014878,0.147569 1.069178,0.543639 0.0413,0.300691 -0.69084,0.31314 -0.670758,0.615979 0.02439,0.367832 0.947198,0.267693 0.90641,0.634072 -0.0441,0.39638 -1.08911,0.0558 -1.106911,0.454229 -0.0232,0.519062 1.40108,0.19799 1.383371,0.717272 -0.01461,0.428223 -1.163241,0.0845 -1.178742,0.512623 -0.01461,0.40473 0.974431,0.17186 1.07642,0.56379 0.0962,0.3698 -0.740029,0.5945 -0.627348,0.95963 0.118578,0.38426 1.057349,0.0639 1.114149,0.462 0.0334,0.23391 -0.526129,0.20906 -0.552421,0.4439 -0.0313,0.27982 0.520542,0.37993 0.52554,0.66146 0.005,0.28081 -0.54256,0.40221 -0.49816,0.67954 0.0617,0.38479 0.945851,0.28988 0.950851,0.67954 0.005,0.40767 -1.020731,0.32834 -0.978231,0.73382 0.0434,0.41389 1.03259,0.12161 1.13274,0.52555 0.106831,0.4309 -0.823468,0.61627 -0.80667,1.05988 0.02159,0.5729 1.152642,0.71301 1.14154,1.28623 -0.008,0.40575 -0.852829,0.47331 -0.84233,0.87901 0.009,0.34813 0.727882,0.36901 0.760682,0.71571 0.032,0.33799 -0.669401,0.49235 -0.5979,0.82424 0.082,0.38085 0.911548,0.20422 1.014928,0.57982 0.0847,0.30771 -0.55709,0.52614 -0.471289,0.83354 0.18069,0.64726 1.719009,0.31662 1.757511,0.98753 0.0573,0.99753 -2.434751,1.03414 -2.427761,1.75803 0.0132,1.43723 0.217559,2.27376 0.217559,2.27376 l -0.589108,1.03301 1.162719,-0.57256 c 0,0 0.10387,-3.59706 2.995171,-3.93981 3.17754,0.69188 2.853018,2.95801 4.228158,4.74078 l 0.819592,-0.0253 -0.589111,-0.25631 -0.384471,-0.7431 c 0,0 -0.278778,-0.72202 -0.307478,-1.10227 -0.0531,-0.70361 0.77665,-1.62455 0.256318,-2.10116 -0.582938,-0.32561 -2.343899,0.91332 -2.293398,-1.48622 0.0507,-0.35679 0.227478,-0.62063 0.499708,-0.74309 0.4669,-0.21005 1.259242,0.64328 1.522391,0.20411 0.212371,-0.35445 -0.850931,-0.61206 -0.725029,-1.00562 0.10882,-0.34029 0.915728,-0.001 1.014928,-0.34417 0.113371,-0.39191 -0.793189,-0.54401 -0.770498,-0.95136 0.01889,-0.33901 0.667739,-0.38105 0.725019,-0.71572 0.0816,-0.47659 -0.725469,-0.83001 -0.634071,-1.30483 0.0849,-0.44085 0.911931,-0.46493 0.99633,-0.90589 0.0853,-0.44572 -0.763738,-0.80074 -0.5979,-1.22318 0.113541,-0.28922 0.830321,-0.0272 0.869712,-0.33538 0.0499,-0.39072 -0.950142,-0.29455 -0.960141,-0.68833 -0.01069,-0.4319 0.99301,-0.37465 1.01441,-0.80615 0.01421,-0.28583 -0.65169,-0.31395 -0.61599,-0.5979 0.0417,-0.33152 0.820719,-0.16817 0.86972,-0.49868 0.0426,-0.2874 -0.6447,-0.34732 -0.5979,-0.63407 0.0712,-0.43602 1.150019,-0.18388 1.168921,-0.62528 0.0159,-0.37074 -0.923271,-0.23573 -0.933281,-0.60667 -0.01011,-0.38466 0.95826,-0.29559 0.933281,-0.67956 -0.0172,-0.264316 -0.663432,-0.11818 -0.697632,-0.380844 -0.0402,-0.30929 0.69574,-0.33138 0.67954,-0.642861 -0.01439,-0.277479 -0.644649,-0.230111 -0.661448,-0.50746 -0.02561,-0.422071 0.92968,-0.46563 0.905878,-0.887799 -0.0177,-0.313642 -0.7361,-0.265742 -0.743098,-0.57981 -0.008,-0.396272 0.8509,-0.37805 0.906399,-0.770502 0.0436,-0.308509 -0.584661,-0.474659 -0.516761,-0.778758 0.057,-0.255281 0.647362,-0.147251 0.670761,-0.407731 0.029,-0.321731 -0.76042,-0.322289 -0.725021,-0.643369 0.0348,-0.315762 0.784442,-0.148132 0.83354,-0.461991 0.0532,-0.339831 -0.707419,-0.407919 -0.706419,-0.751891 0.0011,-0.354589 0.57027,-0.455858 0.733801,-0.77049 0.17045,-0.32792 -0.0622,-0.84513 0.217048,-1.087279 0.329041,-0.28538 0.981922,0.219951 1.30483,-0.0723 0.580141,-0.525111 0.871061,-1.72475 0.362252,-2.31924 -0.56555,-0.660781 -1.837471,-0.401261 -2.609141,0 -1.250299,0.65014 -1.019281,3.435271 -2.42828,3.460769 -0.81044,0.01471 -1.32574,-1.140838 -1.467609,-1.938899 -0.130421,-0.733649 0.942829,-1.45152 0.652669,-2.137851 -0.1557,-0.36829 -0.99092,-0.0913 -1.06712,-0.548288 -0.25622,-1.537502 1.052491,-6.651483 1.41129,-9.997843 0.175619,-1.637919 -0.49353,-3.520799 0.362249,-4.928378 1.149511,-1.8907 4.0347,-1.970251 5.653402,-3.478861 0.57631,-0.53711 1.022268,-1.21749 1.37718,-1.920809 0.56619,-1.122081 0.52559,-2.502701 1.159619,-3.5879 0.638259,-1.09244 1.549929,-2.046081 2.572969,-2.790521 0.7663,-0.55761 1.634451,-1.16293 2.581752,-1.19063 0.935468,-0.0273 1.691518,1.1837 2.6138,1.02475 0.847309,-0.14605 1.088908,-1.64918 1.94768,-1.691369 1.150458,-0.0566 1.73102,1.62048 2.81895,1.99884 0.614008,0.213519 1.43782,0.50678 1.947169,0.102839 0.91109,-0.72254 -0.284879,-2.69739 0.61495,-3.4339 1.21653,-0.99572 3.50498,1.10537 4.71547,0.10232 1.040199,-0.86194 -0.429511,-3.20742 0.66611,-3.99769 0.981771,-0.70817 2.540601,1.17177 3.58738,0.56379 0.916381,-0.53225 0.165631,-2.52779 1.12758,-2.97243 2.864429,-1.32403 8.209999,0.10237 8.9178,3.17758 0.82302,3.57583 1.238771,8.07984 -7.710639,7.85637 -3.490772,-0.0872 1.8747,6.74151 3.17087,9.983891 0.379018,0.94814 0.472178,2.21792 1.340998,2.75435 0.894303,0.552151 2.867782,0.975479 3.152781,-0.0362 0.166319,-0.59037 -1.18468,-0.49253 -1.55856,-0.97875 -0.44718,-0.581559 -1.272149,-1.70953 -0.652158,-2.10168 0.693629,-0.43873 1.052329,1.977009 1.81229,1.667078 0.638458,-0.260379 0.298849,-1.403298 0.108518,-2.066029 -0.23219,-0.80851 -1.15715,-1.276759 -1.449519,-2.065499 -0.257339,-0.694271 -0.521931,-1.535741 -0.217562,-2.21072 0.882063,-1.956071 3.821742,-2.140121 5.2188,-3.768761 0.959069,-1.11804 1.572759,-2.52856 2.011769,-3.93465 0.34672,-1.11048 0.46647,-2.29588 0.46147,-3.459219 -0.006,-1.328781 -0.0178,-2.735101 -0.56379,-3.946531 -0.74202,-1.646244 -2.035877,-3.084194 -3.510897,-4.125844 -1.567972,-1.10729 -3.466082,-1.91799 -5.38107,-2.05001 -0.16614,-0.0114 -0.33411,-0.0167 -0.50229,-0.0155 z m -54.278339,10.4128 c 1.306539,0.0288 2.491758,0.97603 3.734649,1.44177 2.19836,0.82376 4.271402,2.03869 6.55981,2.56264 1.28615,0.29448 2.628881,0.37597 3.94653,0.30747 1.699911,-0.0884 3.402462,-0.39974 5.022432,-0.92242 2.069049,-0.66758 3.870399,-1.99758 5.893699,-2.79311 0.500309,-0.19671 1.0017,-0.52605 1.537891,-0.48731 0.89925,0.065 2.434479,1.17926 2.434479,1.17926 0,0 -2.662341,0.37794 -3.664889,1.17873 -0.721122,0.576 -1.063332,1.52715 -1.409221,2.3828 -0.289629,0.71646 -0.258379,1.53472 -0.537951,2.25516 -0.293238,0.75567 -0.63858,1.52265 -1.17874,2.127 -0.628629,0.70335 -1.480529,1.18422 -2.30632,1.64021 -1.334469,0.7369 -2.965739,0.88809 -4.228169,1.74253 -0.36518,0.24717 -0.69369,0.57107 -0.922941,0.94775 -0.39321,0.64608 -0.612608,1.40379 -0.717269,2.15284 -0.16092,1.151631 0.204409,2.32333 0.154001,3.48506 -0.0852,1.962481 -0.768951,5.84254 -0.768951,5.84254 0,0 -0.848051,-3.59731 -0.973579,-5.432751 -0.0857,-1.253767 0.250459,-2.51374 0.153479,-3.766689 -0.0611,-0.79 0.01439,-1.69859 -0.46147,-2.33216 -1.30547,-1.73815 -4.010409,-1.75183 -5.79138,-2.99827 -1.06485,-0.74525 -2.141281,-1.5626 -2.869589,-2.63911 -0.931632,-1.37705 -0.715981,-3.37668 -1.768372,-4.6638 -0.760539,-0.93017 -1.86835,-1.70118 -3.049429,-1.92184 -0.74431,-0.13906 -2.229321,0.43563 -2.229321,0.43563 0,0 1.977091,-1.62656 3.177591,-1.71721 0.0882,-0.007 0.175929,-0.009 0.26303,-0.007 z m 13.54904,31.526241 c 0.42908,0.01101 0.84936,0.453599 0.948269,0.87127 0.0611,0.25781 -0.214958,0.486831 -0.282159,0.743101 -0.14463,0.551548 -0.22456,1.122058 -0.25631,1.691367 -0.0367,0.657201 -0.272071,1.414971 0.077,1.973011 0.287782,0.460071 1.43574,0.226291 1.43505,0.76894 -0.0011,0.74517 -1.227918,1.060731 -1.973009,1.050589 -0.795599,-0.01079 -2.094341,-0.383278 -2.075841,-1.17874 0.014,-0.603408 1.281041,-0.316928 1.614371,-0.820107 0.340471,-0.513951 0.17313,-1.230001 0.128159,-1.844853 -0.0408,-0.55812 -0.25019,-1.091207 -0.35863,-1.640207 -0.0571,-0.289322 -0.255699,-0.594442 -0.153998,-0.871263 0.133898,-0.364429 0.508968,-0.753059 0.897098,-0.743108 z m -0.11213,7.916309 a 2.1916952,0.70887905 0 0 1 2.191591,0.709001 2.1916952,0.70887905 0 0 1 -2.191591,0.70901 2.1916952,0.70887905 0 0 1 -2.1916,-0.70901 2.1916952,0.70887905 0 0 1 2.1916,-0.709001 z m 0.0362,2.93574 a 1.5031364,0.79947889 0 0 1 1.50327,0.799445 1.5031364,0.79947889 0 0 1 -1.50327,0.79942 1.5031364,0.79947889 0 0 1 -1.502749,-0.79942 1.5031364,0.79947889 0 0 1 1.502749,-0.799445 z m 0.0909,2.717665 a 1.5031365,0.70887905 0 0 1 1.502749,0.70901 1.5031365,0.70887905 0 0 1 -1.502749,0.70899 1.5031365,0.70887905 0 0 1 -1.50327,-0.70899 1.5031365,0.70887905 0 0 1 1.50327,-0.70901 z m 0,2.33784 a 1.5031364,0.79947889 0 0 1 1.502749,0.79944 1.5031364,0.79947889 0 0 1 -1.502749,0.79943 1.5031364,0.79947889 0 0 1 -1.50327,-0.79943 1.5031364,0.79947889 0 0 1 1.50327,-0.79944 z m -0.0909,2.40089 a 1.4668964,0.89007873 0 0 1 1.467091,0.88986 1.4668964,0.89007873 0 0 1 -1.467091,0.88988 1.4668964,0.89007873 0 0 1 -1.46658,-0.88988 1.4668964,0.89007873 0 0 1 1.46658,-0.88986 z m 0.108,2.29392 a 1.4668965,1.1890581 0 0 1 1.467099,1.18908 1.4668965,1.1890581 0 0 1 -1.467099,1.18906 1.4668965,1.1890581 0 0 1 -1.466569,-1.18906 1.4668965,1.1890581 0 0 1 1.466569,-1.18908 z"
         style="opacity:1;fill:#d1616f;fill-opacity:1;stroke:none;stroke-width:0.26458332px;stroke-linecap:butt;stroke-linejoin:miter;stroke-opacity:1"
         inkscape:connector-curvature="0" />
      <path
         sodipodi:nodetypes="ccssaaaaaaaaaaaaaaasc"
         inkscape:connector-curvature="0"
         id="path5596"
         d="m 24.22337,67.384185 0.0837,-2.44337 c 0,0 -3.006849,0.81959 -3.927099,1.95621 -1.119291,1.38246 -1.18841,3.24123 -4.42128,3.91391 -1.619332,0.33694 -0.7723,-1.78849 -1.377122,-2.53679 -0.42005,-0.5197 -1.074839,-0.80814 -1.522069,-1.30464 -0.825291,-0.91621 -1.02979,-2.43499 -2.10192,-3.04416 -1.0919901,-0.62045 -2.5251711,-0.0194 -3.7594001,-0.25188 -1.56507,-0.29483 -2.99206,-1.73484 -4.55656,-1.43702 -2.33972097,0.44539 -4.3471,2.44569 -5.5481685,4.50241 -0.7807722,1.337 -1.3034372,3.12346 -0.776805,4.57942 0.457645,1.26524 2.1659655,1.625531 3.06462753,2.626871 0.678905,0.75646 0.824486,2.041189 1.72344597,2.51556 1.109809,0.585629 2.509779,-0.01061 3.764549,0.004 1.11155,0.01259 2.23878,0.262292 3.334081,0.0725 0.98045,-0.169881 1.8598001,-0.708319 2.7886491,-1.065221 0.773451,-0.29719 1.672,-0.37801 2.318601,-0.896138 0.31184,-0.249881 0.32257,-0.792012 0.665509,-0.997122 1.34048,-0.801729 3.36436,0.41778 4.66434,-0.448069 1.61929,-1.07852 1.270842,-3.88716 2.754231,-5.14607 1.43696,-1.21951 2.828689,-0.60004 2.828689,-0.60004 z"
         style="fill:#f09696;fill-opacity:1;stroke:none;stroke-width:0.26458332px;stroke-linecap:butt;stroke-linejoin:miter;stroke-opacity:1" />
      <path
         sodipodi:nodetypes="ccssaaaaaaaaaaaaaaasc"
         inkscape:connector-curvature="0"
         id="path5596-1-6"
         d="m 53.185522,67.384185 -0.0837,-2.44337 c 0,0 3.006849,0.81959 3.927099,1.95621 1.119291,1.38246 1.188411,3.24123 4.42128,3.91391 1.619332,0.33694 0.772301,-1.78849 1.377122,-2.53679 0.42005,-0.5197 1.074838,-0.80814 1.522069,-1.30464 0.825291,-0.91621 1.02979,-2.43499 2.101921,-3.04416 1.091988,-0.62045 2.52517,-0.0194 3.759399,-0.25188 1.565071,-0.29483 2.992061,-1.73484 4.556561,-1.43702 2.339719,0.44539 4.347088,2.44569 5.548159,4.50241 0.78078,1.337 1.303441,3.12346 0.776812,4.57942 -0.457653,1.26524 -2.165972,1.625531 -3.064632,2.626871 -0.6789,0.75646 -0.824479,2.041189 -1.72344,2.51556 -1.109819,0.585629 -2.50978,-0.01061 -3.764561,0.004 -1.111538,0.01259 -2.238769,0.262292 -3.33407,0.0725 -0.980448,-0.169881 -1.859799,-0.708319 -2.78865,-1.065221 -0.773449,-0.29719 -1.672,-0.37801 -2.318599,-0.896138 -0.311841,-0.249881 -0.32257,-0.792012 -0.66551,-0.997122 -1.340479,-0.801729 -3.364359,0.41778 -4.664339,-0.448069 -1.61929,-1.07852 -1.270852,-3.88716 -2.754231,-5.14607 -1.43696,-1.21951 -2.828689,-0.60004 -2.828689,-0.60004 z"
         style="fill:#f09696;fill-opacity:1;stroke:none;stroke-width:0.26458332px;stroke-linecap:butt;stroke-linejoin:miter;stroke-opacity:1" />
      <path
         sodipodi:nodetypes="aaaascaaacaaaaacaaaa"
         inkscape:connector-curvature="0"
         id="path5613"
         d="m 0.87697993,73.301634 c -0.61357,-1.033279 -2.58486903,-0.551399 -3.25569353,-1.548459 -0.7024651,-1.04409 -0.5557261,-2.55687 -0.2174402,-3.76895 0.3972537,-1.42337 1.2996957,-2.80671 2.51041373,-3.65402 1.19285097,-0.83481 2.82441097,-1.56297 4.22945997,-1.09084 2.60476,0.87525 3.582291,2.21685 3.582291,2.21685 0,0 0.402079,-1.15884 0.91222,-1.31343 0.82008,-0.24851 1.7918801,0.33039 2.3918301,0.94224 0.63155,0.64407 0.78268,1.64898 0.942239,2.5368 0.166671,0.92738 0,2.82671 0,2.82671 0,0 0.304051,-3.17279 1.37712,-2.97167 1.49904,0.28095 0.65024,3.08426 0.289921,4.56623 -0.19969,0.82133 -0.64358,1.647659 -1.30464,2.1744 -0.914221,0.728461 -2.19392,0.829291 -3.3340711,1.087191 -0.54658,0.12364 -1.25699,0.59939 -1.667039,0.21744 -0.301061,-0.280432 0.0725,-1.232162 0.0725,-1.232162 0,0 -0.892711,1.14173 -1.522081,1.449602 -0.87781,0.4294 -1.952999,0.679098 -2.899199,0.43488 -0.88431,-0.228251 -1.793011,-0.837182 -2.17438997,-1.667042 -0.168091,-0.36576 0.27207997,-0.859658 0.0666,-1.20577 z"
         style="fill:#f7b6b4;fill-opacity:1;stroke:none;stroke-width:0.26458332px;stroke-linecap:butt;stroke-linejoin:miter;stroke-opacity:1" />
      <path
         sodipodi:nodetypes="aaaascaaacaaaaacaaaa"
         inkscape:connector-curvature="0"
         id="path5613-5-2"
         d="m 76.90528,73.396614 c 0.613572,-1.033279 2.584871,-0.551399 3.255701,-1.548459 0.70246,-1.04409 0.55572,-2.55687 0.21744,-3.76895 -0.397259,-1.42337 -1.2997,-2.80671 -2.51042,-3.65402 -1.19285,-0.83481 -2.824409,-1.56297 -4.22946,-1.09084 -2.604759,0.87525 -3.582289,2.21685 -3.582289,2.21685 0,0 -0.402082,-1.15884 -0.91222,-1.31343 -0.820081,-0.24851 -1.79188,0.33039 -2.39183,0.94224 -0.63155,0.64407 -0.78268,1.64898 -0.94224,2.5368 -0.166671,0.92738 0,2.82671 0,2.82671 0,0 -0.304051,-3.17279 -1.377122,-2.97167 -1.499039,0.28095 -0.65024,3.08426 -0.28992,4.56623 0.199692,0.821331 0.643581,1.647659 1.304642,2.1744 0.91422,0.728461 2.19392,0.829291 3.334068,1.087191 0.546581,0.12364 1.25699,0.59939 1.667042,0.21744 0.301058,-0.280432 -0.0725,-1.232162 -0.0725,-1.232162 0,0 0.89271,1.14173 1.522082,1.449602 0.877808,0.4294 1.952998,0.679098 2.899199,0.43488 0.884311,-0.228251 1.793009,-0.837182 2.17439,-1.667042 0.16809,-0.36576 -0.272079,-0.859658 -0.0666,-1.20577 z"
         style="fill:#f7b6b4;fill-opacity:1;stroke:none;stroke-width:0.26458332px;stroke-linecap:butt;stroke-linejoin:miter;stroke-opacity:1" />
      <ellipse
         ry="46.340881"
         rx="55.209949"
         cy="46.338085"
         cx="151.9178"
         id="path6235"
         style="opacity:1;fill:#f6b7b5;fill-opacity:0.47058824;stroke:#000000;stroke-width:0.81449842;stroke-linecap:round;stroke-miterlimit:4;stroke-dasharray:none;stroke-opacity:1" />
      <g
         transform="matrix(2.0114463,0,0,2.0114463,-187.69017,-184.3682)"
         id="g6242">
        <path
           inkscape:connector-curvature="0"
           style="opacity:1;fill:#d1616f;fill-opacity:1;stroke:none;stroke-width:0.26458332px;stroke-linecap:butt;stroke-linejoin:miter;stroke-opacity:1"
           d="m 152.43745,112.05255 c 0.614,0.21352 8.84615,2.09428 9.35549,1.69034 0.91109,-0.72254 -0.28487,-2.69739 0.61495,-3.4339 1.21653,-0.99572 3.50498,1.10537 4.71547,0.10232 1.0402,-0.86194 -0.42951,-3.20742 0.66611,-3.99769 0.98178,-0.70817 2.54061,1.17177 3.58739,0.56379 0.91638,-0.53225 0.16563,-2.52779 1.12758,-2.97243 2.86442,-1.32403 8.20999,0.10237 8.9178,3.17758 0.82301,3.57583 1.23877,8.07984 -7.71064,7.85637 -3.49078,-0.0872 1.8747,6.74151 3.17087,9.98389 0.37901,0.94814 0.47217,2.21792 1.34099,2.75435 0.89431,0.55215 2.86779,0.97548 3.15279,-0.0362 0.16631,-0.59037 -1.18468,-0.49253 -1.55856,-0.97875 -0.44718,-0.58156 -1.27215,-1.70953 -0.65216,-2.10168 0.69363,-0.43873 1.05233,1.97701 1.81229,1.66708 0.63846,-0.26038 0.29885,-1.4033 0.10851,-2.06603 -0.23218,-0.80851 -1.15715,-1.27676 -1.44951,-2.0655 -0.25734,-0.69427 -0.52194,-1.53574 -0.21757,-2.21072 0.88207,-1.95607 3.82175,-2.14012 5.2188,-3.76876 0.95907,-1.11804 1.57276,-2.52856 2.01177,-3.93465 0.34672,-1.11048 0.46647,-2.29588 0.46147,-3.45922 -0.006,-1.32878 -0.0178,-2.7351 -0.56379,-3.94653 -0.74202,-1.64626 -2.03587,-3.08421 -3.51089,-4.12586 -1.56798,-1.107286 -3.46609,-1.917986 -5.38107,-2.050006 -0.16614,-0.0114 -0.33411,-0.0167 -0.50229,-0.0155 l 10e-6,-1.65e-4 c -1.17725,0.008 -2.38718,0.32332 -3.39308,0.91261 -1.73222,1.014801 -2.21756,3.635901 -4.04884,4.458641 -1.42595,0.64063 -3.63063,-1.09873 -4.68963,0.0512 -1.05585,1.14646 1.42803,3.55492 0.33331,4.66431 -0.93152,0.944 -2.91796,-1.03606 -3.97186,-0.23099 -1.11696,0.85324 0.4456,3.63443 -0.87126,4.12585 -0.66262,0.24728 -8.49638,-2.49945 -9.0997,-2.86856"
           id="path5504-0"
           sodipodi:nodetypes="ccccccccccccccscccccccccccccccscc" />
        <path
           inkscape:connector-curvature="0"
           style="opacity:1;fill:#800000;fill-opacity:1;stroke:none;stroke-width:0.26458332px;stroke-linecap:butt;stroke-linejoin:miter;stroke-opacity:1"
           d="m 152.52714,111.66817 c 0.614,0.21352 8.65396,2.09428 9.1633,1.69034 0.91109,-0.72254 -0.54113,-2.91521 0.35869,-3.65172 1.21653,-0.99572 3.28717,1.24631 4.49766,0.24326 1.0402,-0.86194 -0.80108,-3.63024 0.29454,-4.42051 0.98178,-0.70817 3.01468,1.17177 4.06146,0.56379 0.91638,-0.53225 0.92158,-2.25872 1.88353,-2.70336 3.24494,-3.29911 8.92471,-1.85566 9.63252,1.21955 0.82301,3.57583 0.76961,10.95477 -5.66309,12.02397 -6.43269,1.06919 0.92398,1.43116 0.92398,1.43116 0,0 4.11167,-0.87172 5.50872,-2.50036 0.95907,-1.11804 1.80832,-1.62256 2.24733,-3.02865 0.34672,-1.11048 0.30339,-1.55296 0.29839,-2.7163 -0.006,-1.32878 0.0909,-2.88006 -0.45507,-4.09149 -0.74202,-1.64626 -1.11175,-3.15669 -2.58677,-4.19834 -2.34566,-1.51127 -2.47038,-1.580923 -5.23104,-1.884303 -1.30087,0.116453 -2.32773,0.561473 -3.27336,1.130103 -1.73222,1.0148 -2.0303,3.03445 -3.86158,3.85719 -1.42595,0.64063 -3.81001,-1.18842 -4.86901,-0.0385 -1.05585,1.14646 1.54335,3.40117 0.44863,4.51056 -0.93152,0.944 -3.22547,-0.89512 -4.27937,-0.09 -1.11696,0.85324 0.70186,3.42943 -0.615,3.92085 -0.66262,0.24728 -8.17606,-1.9485 -8.77938,-2.31761"
           id="path5504-0-1"
           sodipodi:nodetypes="cccccccczcccccccccccscc" />
        <g
           id="g6212"
           transform="translate(4.7625002,-0.52916663)">
          <path
             sodipodi:nodetypes="ccssaaaaaaaaaaaaaaasc"
             inkscape:connector-curvature="0"
             id="path5596-1-6-4"
             d="m 145.88516,121.90332 -0.0837,-2.44337 c 0,0 3.00685,0.81959 3.9271,1.95621 1.11929,1.38246 1.18841,3.24123 4.42128,3.91391 1.61934,0.33694 0.7723,-1.78849 1.37713,-2.53679 0.42005,-0.5197 1.07483,-0.80814 1.52206,-1.30464 0.8253,-0.91621 1.02979,-2.43499 2.10193,-3.04416 1.09198,-0.62045 2.52517,-0.0194 3.75939,-0.25188 1.56508,-0.29483 2.99207,-1.73484 4.55657,-1.43702 2.33971,0.44539 4.34708,2.44569 5.54815,4.50241 0.78078,1.337 1.30345,3.12346 0.77682,4.57942 -0.45766,1.26524 -2.16598,1.62553 -3.06464,2.62687 -0.6789,0.75646 -0.82447,2.04119 -1.72344,2.51556 -1.10981,0.58563 -2.50978,-0.0106 -3.76456,0.004 -1.11153,0.0126 -2.23877,0.26229 -3.33407,0.0725 -0.98044,-0.16988 -1.8598,-0.70832 -2.78865,-1.06522 -0.77345,-0.29719 -1.672,-0.37801 -2.3186,-0.89614 -0.31184,-0.24988 -0.32257,-0.79201 -0.66551,-0.99712 -1.34047,-0.80173 -3.36435,0.41778 -4.66433,-0.44807 -1.61929,-1.07852 -1.27086,-3.88716 -2.75424,-5.14607 -1.43696,-1.21951 -2.82868,-0.60004 -2.82868,-0.60004 z"
             style="fill:#f09696;fill-opacity:1;stroke:none;stroke-width:0.26458332px;stroke-linecap:butt;stroke-linejoin:miter;stroke-opacity:1" />
          <path
             sodipodi:nodetypes="aaaascaaacaaaaacaaaa"
             inkscape:connector-curvature="0"
             id="path5613-5-2-9"
             d="m 169.75104,127.69304 c 0.61358,-1.03328 2.58487,-0.5514 3.2557,-1.54846 0.70246,-1.04409 0.55572,-2.55687 0.21744,-3.76895 -0.39725,-1.42337 -1.2997,-2.80671 -2.51042,-3.65402 -1.19285,-0.83481 -2.8244,-1.56297 -4.22946,-1.09084 -2.60475,0.87525 -3.58228,2.21685 -3.58228,2.21685 0,0 -0.40209,-1.15884 -0.91222,-1.31343 -0.82008,-0.24851 -1.79188,0.33039 -2.39183,0.94224 -0.63155,0.64407 -0.78268,1.64898 -0.94224,2.5368 -0.16667,0.92738 0,2.82671 0,2.82671 0,0 -0.30405,-3.17279 -1.37713,-2.97167 -1.49903,0.28095 -0.65024,3.08426 -0.28992,4.56623 0.1997,0.82133 0.64359,1.64766 1.30465,2.1744 0.91422,0.72846 2.19392,0.82929 3.33406,1.08719 0.54659,0.12364 1.25699,0.59939 1.66705,0.21744 0.30105,-0.28043 -0.0725,-1.23216 -0.0725,-1.23216 0,0 0.89271,1.14173 1.52208,1.4496 0.87781,0.4294 1.953,0.6791 2.8992,0.43488 0.88431,-0.22825 1.79301,-0.83718 2.17439,-1.66704 0.16809,-0.36576 -0.27208,-0.85966 -0.0666,-1.20577 z"
             style="fill:#f7b6b4;fill-opacity:1;stroke:none;stroke-width:0.26458332px;stroke-linecap:butt;stroke-linejoin:miter;stroke-opacity:1" />
        </g>
      </g>
      <path
         sodipodi:nodetypes="cccc"
         inkscape:connector-curvature="0"
         id="path6244"
         d="M 100.04197,29.264729 69.291363,54.204876 97.58192,39.924939 Z"
         style="fill:none;stroke:#000000;stroke-width:0.66500002;stroke-linecap:butt;stroke-linejoin:miter;stroke-miterlimit:4;stroke-dasharray:none;stroke-opacity:1" />
    </g>
  </g>
</svg>
