<?xml version="1.0" encoding="UTF-8" standalone="no"?>
<!-- Created with Inkscape (http://www.inkscape.org/) -->

<svg
   xmlns:dc="http://purl.org/dc/elements/1.1/"
   xmlns:cc="http://creativecommons.org/ns#"
   xmlns:rdf="http://www.w3.org/1999/02/22-rdf-syntax-ns#"
   xmlns:svg="http://www.w3.org/2000/svg"
   xmlns="http://www.w3.org/2000/svg"
   xmlns:xlink="http://www.w3.org/1999/xlink"
   xmlns:sodipodi="http://sodipodi.sourceforge.net/DTD/sodipodi-0.dtd"
   xmlns:inkscape="http://www.inkscape.org/namespaces/inkscape"
   width="210mm"
   height="297mm"
   viewBox="0 0 210 297"
   version="1.1"
   id="svg8"
   inkscape:version="0.92.1 r"
   sodipodi:docname="uretra.svg">
  <defs
     id="defs2">
    <linearGradient
       inkscape:collect="always"
       id="linearGradient4565">
      <stop
         style="stop-color:#e0765d;stop-opacity:1;"
         offset="0"
         id="stop4561" />
      <stop
         style="stop-color:#e0765d;stop-opacity:0;"
         offset="1"
         id="stop4563" />
    </linearGradient>
    <linearGradient
       inkscape:collect="always"
       id="linearGradient4555">
      <stop
         style="stop-color:#e67a5f;stop-opacity:1;"
         offset="0"
         id="stop4551" />
      <stop
         style="stop-color:#e67a5f;stop-opacity:0;"
         offset="1"
         id="stop4553" />
    </linearGradient>
    <linearGradient
       inkscape:collect="always"
       id="linearGradient4510">
      <stop
         style="stop-color:#ed8164;stop-opacity:1;"
         offset="0"
         id="stop4506" />
      <stop
         style="stop-color:#ed8164;stop-opacity:0;"
         offset="1"
         id="stop4508" />
    </linearGradient>
    <radialGradient
       inkscape:collect="always"
       xlink:href="#linearGradient4510"
       id="radialGradient4516"
       cx="101.20678"
       cy="122.5701"
       fx="101.20678"
       fy="122.5701"
       r="9.13904"
       gradientTransform="matrix(1,0,0,1.0074834,0,-0.91724093)"
       gradientUnits="userSpaceOnUse" />
    <radialGradient
       inkscape:collect="always"
       xlink:href="#linearGradient4555"
       id="radialGradient4557"
       cx="100.74702"
       cy="138.9214"
       fx="100.74702"
       fy="138.9214"
       r="0.59796"
       gradientTransform="matrix(0.89612181,0,0,7.4407388,10.403303,-895.87003)"
       gradientUnits="userSpaceOnUse" />
    <radialGradient
       inkscape:collect="always"
       xlink:href="#linearGradient4565"
       id="radialGradient4567"
       cx="100.74132"
       cy="130.59647"
       fx="100.74132"
       fy="130.59647"
       r="3.5887157"
       gradientTransform="matrix(1,0,0,0.52347649,0,62.23229)"
       gradientUnits="userSpaceOnUse" />
    <radialGradient
       inkscape:collect="always"
       xlink:href="#linearGradient4565"
       id="radialGradient4567-8"
       cx="100.74132"
       cy="130.59647"
       fx="100.74132"
       fy="130.59647"
       r="3.5887158"
       gradientTransform="matrix(3.7864401,0,0,3.2240374,-281.39715,-292.3666)"
       gradientUnits="userSpaceOnUse" />
    <radialGradient
       inkscape:collect="always"
       xlink:href="#linearGradient4565"
       id="radialGradient4567-8-8"
       cx="100.74132"
       cy="130.59647"
       fx="100.74132"
       fy="130.59647"
       r="3.5887158"
       gradientTransform="matrix(3.7864401,0,0,-3.2240373,-280.33141,536.38311)"
       gradientUnits="userSpaceOnUse" />
    <radialGradient
       inkscape:collect="always"
       xlink:href="#linearGradient4565"
       id="radialGradient4834"
       cx="100.93559"
       cy="117.32214"
       fx="100.93559"
       fy="117.32214"
       r="13.196461"
       gradientTransform="matrix(1,0,0,0.69757514,0,35.481133)"
       gradientUnits="userSpaceOnUse" />
  </defs>
  <sodipodi:namedview
     id="base"
     pagecolor="#ffffff"
     bordercolor="#666666"
     borderopacity="1.0"
     inkscape:pageopacity="0.0"
     inkscape:pageshadow="2"
     inkscape:zoom="2.3795898"
     inkscape:cx="269.55998"
     inkscape:cy="614.75956"
     inkscape:document-units="mm"
     inkscape:current-layer="layer1"
     showgrid="false"
     inkscape:window-width="1366"
     inkscape:window-height="708"
     inkscape:window-x="0"
     inkscape:window-y="32"
     inkscape:window-maximized="1" />
  <metadata
     id="metadata5">
    <rdf:RDF>
      <cc:Work
         rdf:about="">
        <dc:format>image/svg+xml</dc:format>
        <dc:type
           rdf:resource="http://purl.org/dc/dcmitype/StillImage" />
        <dc:title />
      </cc:Work>
    </rdf:RDF>
  </metadata>
  <g
     inkscape:label="Capa 1"
     inkscape:groupmode="layer"
     id="layer1">
    <path
       style="fill:#f9c5b3;fill-opacity:1;stroke:none;stroke-width:0.26458332px;stroke-linecap:butt;stroke-linejoin:miter;stroke-opacity:1"
       d="m 101.27199,147.24455 c 3.39552,-0.28345 6.07962,-3.92327 7.38015,-7.07264 0.83486,-2.02171 -0.15375,-6.56012 -0.15375,-6.56012 0,0 -1.83303,-0.0509 -2.71318,0.16423 -1.76008,0.43011 -3.48571,2.21686 -4.96568,2.21089 -2.105415,-0.008 -2.454962,-2.27732 -4.017303,-2.53692 -1.356284,-0.22536 -4.012276,0.95618 -4.012276,0.95618 0,0 -0.288191,5.58196 1.101897,7.81578 1.572195,2.52646 4.414758,5.27014 7.380142,5.0226 z"
       id="path4496"
       inkscape:connector-curvature="0"
       sodipodi:nodetypes="aacasacaa" />
    <path
       style="fill:#c9513e;fill-opacity:1;stroke:none;stroke-width:0.26458332px;stroke-linecap:butt;stroke-linejoin:miter;stroke-opacity:1"
       d="m 85.01889,121.88863 c -1.826935,-2.01078 -0.347951,-5.88891 1.304636,-8.04527 2.966483,-3.87079 8.477329,-5.59937 13.336296,-6.01583 3.754108,-0.32176 7.659448,0.98132 10.944458,2.82672 1.02782,0.57739 1.71459,1.61947 2.5368,2.46431 0.57241,0.58817 1.26773,1.09496 1.66703,1.812 0.40625,0.72951 0.32882,1.01251 0.69419,1.86657 0.38103,0.89068 1.18652,2.35165 0.68293,3.06206 -6.02065,8.4933 -24.165492,9.7348 -31.16634,2.02944 z"
       id="path4498"
       inkscape:connector-curvature="0"
       sodipodi:nodetypes="aaaaasssa" />
    <path
       style="fill:url(#radialGradient4567-8-8);fill-opacity:1;stroke:url(#radialGradient4834);stroke-width:1.27770185px;stroke-linecap:butt;stroke-linejoin:miter;stroke-opacity:1"
       d="m 88.379642,119.19276 c -0.131087,-7.28153 7.334664,-10.18084 11.810818,-10.41756 4.87919,-0.25808 13.46486,2.03519 13.30048,9.97117 -0.12531,6.04859 -6.70831,6.39459 -10.42873,6.47277 -1.02177,0.0185 -2.89139,-1.65679 -2.89139,-1.65679 0,0 -1.898515,2.32151 -3.009082,2.32638 -3.233007,0.0126 -8.687464,-1.43945 -8.782096,-6.69597 z"
       id="path4559-9-4"
       inkscape:connector-curvature="0"
       sodipodi:nodetypes="aaaacaa" />
    <path
       style="fill:#b43951;fill-opacity:1;stroke:none;stroke-width:0.26458332px;stroke-linecap:butt;stroke-linejoin:miter;stroke-opacity:1"
       d="m 100.91324,136.22558 c 1.47246,0.0261 2.19891,-1.03577 3.59756,-1.60293 1.15782,-0.46951 3.0101,-0.37757 4.03262,-1.04142 2.12664,-1.38068 3.97404,-3.33206 5.20015,-5.55141 1.37158,-2.48267 2.25443,-5.39538 2.16058,-8.23018 -0.0406,-1.22676 -0.34653,-2.58041 -1.16851,-3.49196 -3.52871,-3.91322 -9.05253,-5.65353 -14.49598,-5.43599 -5.694047,0.22755 -12.188472,2.2166 -14.858372,7.32046 -0.880648,1.68348 -1.09146,3.78925 -0.724798,5.65344 0.359143,1.82596 1.637299,3.36767 2.754235,4.85614 1.558538,2.07697 3.211735,3.804 5.431763,5.58404 0.67402,0.54044 2.049417,-0.18905 3.048382,-0.003 1.764707,0.32852 3.227628,1.91102 5.02237,1.94289 z"
       id="path4500"
       inkscape:connector-curvature="0"
       sodipodi:nodetypes="sssaasssaasas" />
    <path
       style="fill:url(#radialGradient4567-8);fill-opacity:1;stroke:none;stroke-width:1.27770174px;stroke-linecap:butt;stroke-linejoin:miter;stroke-opacity:1"
       d="m 87.313924,124.82375 c -0.131087,7.28153 7.334663,10.18084 11.810823,10.41756 4.879173,0.25808 13.464843,-2.03519 13.300463,-9.97117 -0.12531,-6.04859 -6.70831,-6.39459 -10.42872,-6.47277 -1.02177,-0.0185 -2.891392,1.65679 -2.891392,1.65679 0,0 -1.898512,-2.32151 -3.009079,-2.32638 -3.233007,-0.0126 -8.687463,1.43945 -8.782095,6.69597 z"
       id="path4559-9"
       inkscape:connector-curvature="0"
       sodipodi:nodetypes="aaaacaa" />
    <path
       style="fill:#ffd0cc;fill-opacity:1;stroke:none;stroke-width:0.28142214px;stroke-linecap:butt;stroke-linejoin:miter;stroke-opacity:1"
       d="m 102.12245,150.20527 -0.93228,0.14981 c 0,0 -0.58101,-4.9194 -1.01164,-7.35951 -0.11422,-0.64725 -0.357396,-1.27504 -0.416542,-1.92883 -0.164958,-1.82318 0.179687,-3.65705 0.178527,-5.48687 -3.83e-4,-0.58706 0.152885,-1.20852 -0.05956,-1.76027 -0.373203,-0.96942 -1.147891,-1.81725 -2.023253,-2.43445 -0.96309,-0.67904 -2.295835,-0.71331 -3.352258,-1.25468 -0.662682,-0.3396 -1.335122,-0.71127 -1.844732,-1.23594 -0.626926,-0.64544 -0.792433,-1.61107 -1.408341,-2.2659 -0.617267,-0.65628 -1.650236,-0.89944 -2.221614,-1.59176 -0.591766,-0.71703 -1.081064,-1.60158 -1.130642,-2.50935 -0.03812,-0.69803 0.49948,-1.32028 0.654585,-2.00372 0.124221,-0.54737 -0.09259,-1.18994 0.218192,-1.66667 0.404652,-0.62073 1.502268,-0.60676 1.924077,-1.21723 0.227468,-0.32919 -0.09881,-0.90621 0.218191,-1.16103 0.649498,-0.52209 1.945325,0.52215 2.558824,-0.0374 0.285671,-0.26056 -0.232813,-0.86969 0.05951,-1.12359 1.02241,-0.88802 2.929876,0.73062 4.165524,0.13108 0.275643,-0.13374 0.208571,-0.69137 0.515732,-0.73033 0.199738,-0.0253 0.265791,0.31228 0.456224,0.37453 0.638053,0.20861 1.358186,0.0165 2.023256,-0.0936 0.53147,-0.088 1.00799,-0.46876 1.54719,-0.44944 0.79506,0.0285 1.42979,0.75054 2.2216,0.82396 0.88933,0.0825 1.76346,-0.6219 2.63818,-0.44943 0.77906,0.1536 1.22825,1.01792 1.98358,1.25467 0.74143,0.23239 1.73666,-0.35543 2.34062,0.11236 0.50087,0.38795 -0.0104,1.37479 0.47606,1.77901 0.16495,0.13713 0.50621,-0.0781 0.65458,0.0749 0.55824,0.57593 -0.24925,1.62444 0.0794,2.34081 0.0557,0.12152 0.25698,0.15414 0.29754,0.2809 0.31013,0.96913 -0.14086,2.07886 -0.63475,2.97751 -0.4825,0.87791 -1.63106,1.30096 -2.16209,2.15354 -0.36889,0.59224 -0.24831,1.39629 -0.65459,1.96628 -0.4693,0.65846 -1.23455,1.09095 -1.94391,1.51685 -1.27781,0.76717 -2.91145,0.95658 -4.10602,1.8352 -0.72994,0.53687 -1.47042,1.19446 -1.76539,2.02246 -0.83532,2.34485 0.2465,4.94268 0.31738,7.41569 0.0912,3.18261 0.13883,9.55044 0.13883,9.55044 z"
       id="path4502-3"
       inkscape:connector-curvature="0"
       sodipodi:nodetypes="ccaaaaaaaaaaaaaaaaaaaaaaaaaaaaaaaaaaaac" />
    <path
       style="fill:#942f32;fill-opacity:1;stroke:none;stroke-width:0.26458332px;stroke-linecap:butt;stroke-linejoin:miter;stroke-opacity:1"
       d="m 101.97918,149.6303 -0.85164,0.14496 c 0,0 -0.53075,-4.76007 -0.92412,-7.12115 -0.10434,-0.62629 -0.32648,-1.23375 -0.380516,-1.86636 -0.150685,-1.76413 0.164138,-3.5386 0.163078,-5.30915 -3.4e-4,-0.56805 0.139668,-1.16939 -0.05436,-1.70327 -0.340911,-0.93802 -1.048592,-1.75839 -1.848239,-2.3556 -0.879773,-0.65705 -2.097236,-0.6902 -3.062275,-1.21404 -0.605359,-0.3286 -1.219631,-0.68824 -1.685157,-1.19591 -0.572696,-0.62454 -0.723886,-1.5589 -1.286516,-2.19252 -0.563872,-0.63502 -1.507486,-0.8703 -2.029438,-1.5402 -0.540577,-0.69381 -0.987549,-1.54971 -1.032838,-2.42808 -0.03482,-0.67542 0.456273,-1.27752 0.597961,-1.93883 0.113476,-0.52963 -0.08458,-1.15139 0.199318,-1.61268 0.369648,-0.60062 1.372317,-0.58711 1.757638,-1.1778 0.207792,-0.31854 -0.09026,-0.87687 0.199318,-1.12343 0.593314,-0.50519 1.777048,0.50524 2.337478,-0.0362 0.26096,-0.25212 -0.212674,-0.84153 0.05436,-1.0872 0.933969,-0.85926 2.676437,0.70695 3.805193,0.12684 0.2518,-0.12941 0.190531,-0.66899 0.471119,-0.70668 0.182458,-0.0245 0.242801,0.30216 0.416762,0.3624 0.582857,0.20185 1.240704,0.016 1.848234,-0.0906 0.4855,-0.0852 0.9208,-0.45357 1.41336,-0.43488 0.72629,0.0276 1.3061,0.72624 2.02943,0.79728 0.81239,0.0798 1.61091,-0.60176 2.40996,-0.43488 0.71168,0.14863 1.122,0.98496 1.812,1.21404 0.67729,0.22486 1.58643,-0.34392 2.13815,0.10872 0.45754,0.37538 -0.009,1.33026 0.43488,1.72139 0.15068,0.13269 0.46242,-0.0756 0.59796,0.0725 0.50994,0.55728 -0.2277,1.57183 0.0725,2.265 0.0509,0.11758 0.23474,0.14915 0.2718,0.2718 0.28331,0.93775 -0.12868,2.01153 -0.57984,2.88107 -0.44076,0.84949 -1.48997,1.25883 -1.97507,2.0838 -0.33697,0.57305 -0.22683,1.35106 -0.59796,1.9026 -0.42871,0.63712 -1.12776,1.05561 -1.77576,1.46771 -1.16727,0.74233 -2.6596,0.9256 -3.75083,1.77576 -0.6668,0.51949 -1.34323,1.15578 -1.61268,1.95696 -0.76307,2.26891 0.22517,4.7826 0.28992,7.17551 0.0833,3.07953 0.12682,9.24112 0.12682,9.24112 z"
       id="path4502"
       inkscape:connector-curvature="0"
       sodipodi:nodetypes="ccaaaaaaaaaaaaaaaaaaaaaaaaaaaaaaaaaaaac" />
    <path
       style="fill:url(#radialGradient4516);fill-opacity:1;stroke:none;stroke-width:0.26458332px;stroke-linecap:butt;stroke-linejoin:miter;stroke-opacity:1"
       d="m 107.70509,125.87502 c -0.54135,0.18783 -0.85619,0.84472 -1.41336,0.97848 -0.43856,0.10529 -0.89006,-0.16765 -1.34088,-0.1812 -1.46505,-0.044 -2.92787,0.16807 -4.38503,0.32616 -1.18888,0.12899 -2.388363,0.78513 -3.551513,0.50736 -1.147377,-0.274 -1.879109,-1.43701 -2.899193,-2.02944 -0.635495,-0.36908 -1.760192,-0.24526 -1.993197,-0.94224 -0.337502,-1.00956 0.992647,-1.88338 1.485837,-2.82671 0.630834,-1.20661 0.742201,-2.88302 1.884476,-3.624 1.360432,-0.8825 3.237606,-0.38941 4.85615,-0.28992 1.26285,0.0776 2.68903,-0.0267 3.73271,0.68856 0.45632,0.3127 0.41009,1.10561 0.86976,1.41336 1.50504,1.0076 4.69473,-0.81344 5.36351,0.86976 0.26408,0.66463 -1.21858,0.9933 -1.30463,1.70328 -0.0508,0.41887 0.64234,0.75992 0.50736,1.15968 -0.11936,0.35351 -0.82188,0.20497 -0.97848,0.54364 -0.23268,0.50317 0.66409,1.19133 0.32616,1.63079 -0.2361,0.30703 -0.79377,-0.0545 -1.15968,0.0724 z"
       id="path4504"
       inkscape:connector-curvature="0"
       sodipodi:nodetypes="caaaaaaaaaaaaaaaaac" />
    <path
       style="fill:#7f2528;fill-opacity:1;stroke:none;stroke-width:0.26458332px;stroke-linecap:butt;stroke-linejoin:miter;stroke-opacity:1"
       d="m 100.71339,143.43958 0.50736,-5.9071 -0.5436,-5.21856 -0.65232,5.32728 z"
       id="path4526"
       inkscape:connector-curvature="0" />
    <path
       style="fill:url(#radialGradient4557);fill-opacity:1;stroke:none;stroke-width:0.223997px;stroke-linecap:butt;stroke-linejoin:miter;stroke-opacity:1"
       d="m 100.76609,142.2571 0.45466,-4.72462 -0.48713,-4.17391 -0.58456,4.26087 z"
       id="path4526-9"
       inkscape:connector-curvature="0" />
    <path
       style="fill:url(#radialGradient4567);fill-opacity:1;stroke:none;stroke-width:0.26458332px;stroke-linecap:butt;stroke-linejoin:miter;stroke-opacity:1"
       d="m 97.376706,129.97013 c -0.03462,1.18228 1.937087,1.65303 3.119244,1.69147 1.28859,0.0419 3.55607,-0.33045 3.51266,-1.61899 -0.0331,-0.98209 -1.77167,-1.03827 -2.75423,-1.05096 -0.26985,-0.003 -0.76362,0.26901 -0.76362,0.26901 0,0 -0.501398,-0.37694 -0.794698,-0.37773 -0.853839,-0.002 -2.294363,0.23372 -2.319356,1.0872 z"
       id="path4559"
       inkscape:connector-curvature="0"
       sodipodi:nodetypes="aaaacaa" />
    <ellipse
       style="opacity:1;fill:#c28d7d;fill-opacity:1;stroke:none;stroke-width:0.39164808;stroke-linecap:round;stroke-miterlimit:4;stroke-dasharray:none;stroke-opacity:1"
       id="path4614-8"
       cx="113.66009"
       cy="125.72395"
       rx="0.96491116"
       ry="0.21743961"
       transform="rotate(7.5729084)" />
    <ellipse
       style="opacity:1;fill:#c28d7d;fill-opacity:1;stroke:none;stroke-width:0.31327128;stroke-linecap:round;stroke-miterlimit:4;stroke-dasharray:none;stroke-opacity:1"
       id="path4614-8-4"
       cx="112.89133"
       cy="124.09673"
       rx="0.87522191"
       ry="0.15337585"
       transform="rotate(7.5729084)" />
    <ellipse
       style="opacity:1;fill:#c28d7d;fill-opacity:1;stroke:none;stroke-width:0.39164808;stroke-linecap:round;stroke-miterlimit:4;stroke-dasharray:none;stroke-opacity:1"
       id="path4614-8-8"
       cx="116.0817"
       cy="124.08392"
       rx="0.96491116"
       ry="0.21743961"
       transform="rotate(7.5729084)" />
    <ellipse
       style="opacity:1;fill:#c28d7d;fill-opacity:1;stroke:none;stroke-width:0.39164808;stroke-linecap:round;stroke-miterlimit:4;stroke-dasharray:none;stroke-opacity:1"
       id="path4614-8-1"
       cx="115.18481"
       cy="126.85146"
       rx="0.96491116"
       ry="0.21743961"
       transform="rotate(7.5729084)" />
    <ellipse
       style="opacity:1;fill:#c28d7d;fill-opacity:1;stroke:none;stroke-width:0.39164808;stroke-linecap:round;stroke-miterlimit:4;stroke-dasharray:none;stroke-opacity:1"
       id="path4614-8-0"
       cx="115.15919"
       cy="125.10892"
       rx="0.96491116"
       ry="0.21743961"
       transform="rotate(7.5729084)" />
    <ellipse
       style="opacity:1;fill:#c28d7d;fill-opacity:1;stroke:none;stroke-width:0.39164808;stroke-linecap:round;stroke-miterlimit:4;stroke-dasharray:none;stroke-opacity:1"
       id="path4614-8-3"
       cx="112.95539"
       cy="127.59459"
       rx="0.96491116"
       ry="0.21743961"
       transform="rotate(7.5729084)" />
    <ellipse
       style="opacity:1;fill:#c28d7d;fill-opacity:1;stroke:none;stroke-width:0.34280443;stroke-linecap:round;stroke-miterlimit:4;stroke-dasharray:none;stroke-opacity:1"
       id="path4614-8-04"
       cx="112.28913"
       cy="121.91855"
       rx="0.78553265"
       ry="0.20462686"
       transform="rotate(7.5729084)" />
    <ellipse
       style="opacity:1;fill:#c28d7d;fill-opacity:1;stroke:none;stroke-width:0.27469453;stroke-linecap:round;stroke-miterlimit:4;stroke-dasharray:none;stroke-opacity:1"
       id="path4614-8-44"
       cx="114.51855"
       cy="122.77702"
       rx="0.7342816"
       ry="0.1405631"
       transform="rotate(7.5729084)" />
    <ellipse
       style="opacity:1;fill:#c28d7d;fill-opacity:1;stroke:none;stroke-width:0.39164808;stroke-linecap:round;stroke-miterlimit:4;stroke-dasharray:none;stroke-opacity:1"
       id="path4614-8-47"
       cx="87.476814"
       cy="149.61105"
       rx="0.96491116"
       ry="0.21743961"
       transform="rotate(-6.3275666)" />
    <ellipse
       style="opacity:1;fill:#c28d7d;fill-opacity:1;stroke:none;stroke-width:0.39164808;stroke-linecap:round;stroke-miterlimit:4;stroke-dasharray:none;stroke-opacity:1"
       id="path4614-8-6"
       cx="87.169319"
       cy="151.31898"
       rx="0.96491116"
       ry="0.21743961"
       transform="rotate(-6.3275666)" />
    <ellipse
       style="opacity:1;fill:#c28d7d;fill-opacity:1;stroke:none;stroke-width:0.28442666;stroke-linecap:round;stroke-miterlimit:4;stroke-dasharray:none;stroke-opacity:1"
       id="path4614-8-31"
       cx="87.669006"
       cy="148.0351"
       rx="0.72146887"
       ry="0.15337585"
       transform="rotate(-6.3275666)" />
    <ellipse
       style="opacity:1;fill:#c28d7d;fill-opacity:1;stroke:none;stroke-width:0.39164808;stroke-linecap:round;stroke-miterlimit:4;stroke-dasharray:none;stroke-opacity:1"
       id="path4614-8-7"
       cx="90.679993"
       cy="147.91977"
       rx="0.96491116"
       ry="0.21743961"
       transform="rotate(-6.3275666)" />
    <ellipse
       style="opacity:1;fill:#c28d7d;fill-opacity:1;stroke:none;stroke-width:0.32128462;stroke-linecap:round;stroke-miterlimit:4;stroke-dasharray:none;stroke-opacity:1"
       id="path4614-8-5"
       cx="91.154068"
       cy="149.86731"
       rx="0.84959638"
       ry="0.1661886"
       transform="rotate(-6.3275666)" />
    <ellipse
       style="opacity:1;fill:#c28d7d;fill-opacity:1;stroke:none;stroke-width:0.28411934;stroke-linecap:round;stroke-miterlimit:4;stroke-dasharray:none;stroke-opacity:1"
       id="path4614-8-9"
       cx="89.706223"
       cy="152.12236"
       rx="0.78553265"
       ry="0.1405631"
       transform="rotate(-6.3275666)" />
    <ellipse
       style="opacity:1;fill:#c28d7d;fill-opacity:1;stroke:none;stroke-width:0.39164808;stroke-linecap:round;stroke-miterlimit:4;stroke-dasharray:none;stroke-opacity:1"
       id="path4614-8-62"
       cx="89.475609"
       cy="148.8423"
       rx="0.96491116"
       ry="0.21743961"
       transform="rotate(-6.3275666)" />
    <ellipse
       style="opacity:1;fill:#c28d7d;fill-opacity:1;stroke:none;stroke-width:0.30385324;stroke-linecap:round;stroke-miterlimit:4;stroke-dasharray:none;stroke-opacity:1"
       id="path4614-8-17"
       cx="91.346252"
       cy="146.02348"
       rx="0.75990713"
       ry="0.1661886"
       transform="rotate(-6.3275666)" />
    <ellipse
       style="opacity:1;fill:#c28d7d;fill-opacity:1;stroke:none;stroke-width:0.39164808;stroke-linecap:round;stroke-miterlimit:4;stroke-dasharray:none;stroke-opacity:1"
       id="path4614-8-85"
       cx="87.399933"
       cy="152.50674"
       rx="0.96491116"
       ry="0.21743961"
       transform="rotate(-6.3275666)" />
    <ellipse
       style="opacity:1;fill:#c28d7d;fill-opacity:1;stroke:none;stroke-width:0.39164808;stroke-linecap:round;stroke-miterlimit:4;stroke-dasharray:none;stroke-opacity:1"
       id="path4614-8-74"
       cx="91.192513"
       cy="151.22546"
       rx="0.96491116"
       ry="0.21743961"
       transform="rotate(-6.3275666)" />
    <ellipse
       style="opacity:1;fill:#c28d7d;fill-opacity:1;stroke:none;stroke-width:0.24839646;stroke-linecap:round;stroke-miterlimit:4;stroke-dasharray:none;stroke-opacity:1"
       id="path4614-8-18"
       cx="87.553688"
       cy="155.14616"
       rx="0.7342816"
       ry="0.11493759"
       transform="rotate(-6.3275666)" />
    <ellipse
       style="opacity:1;fill:#c28d7d;fill-opacity:1;stroke:none;stroke-width:0.39164808;stroke-linecap:round;stroke-miterlimit:4;stroke-dasharray:none;stroke-opacity:1"
       id="path4614-8-59"
       cx="115.21043"
       cy="129.23463"
       rx="0.96491116"
       ry="0.21743961"
       transform="rotate(7.5729084)" />
    <ellipse
       style="opacity:1;fill:#c28d7d;fill-opacity:1;stroke:none;stroke-width:0.39164808;stroke-linecap:round;stroke-miterlimit:4;stroke-dasharray:none;stroke-opacity:1"
       id="path4614-8-75"
       cx="116.69672"
       cy="131.46405"
       rx="0.96491116"
       ry="0.21743961"
       transform="rotate(7.5729084)" />
    <ellipse
       style="opacity:1;fill:#c28d7d;fill-opacity:1;stroke:none;stroke-width:0.26740801;stroke-linecap:round;stroke-miterlimit:4;stroke-dasharray:none;stroke-opacity:1"
       id="path4614-8-38"
       cx="116.4789"
       cy="130.3109"
       rx="0.69584334"
       ry="0.1405631"
       transform="rotate(7.5729084)" />
    <ellipse
       style="opacity:1;fill:#c28d7d;fill-opacity:1;stroke:none;stroke-width:0.27469453;stroke-linecap:round;stroke-miterlimit:4;stroke-dasharray:none;stroke-opacity:1"
       id="path4614-8-44-8"
       cx="115.74857"
       cy="128.44023"
       rx="0.7342816"
       ry="0.1405631"
       transform="rotate(7.5729084)" />
    <ellipse
       style="opacity:1;fill:#c28d7d;fill-opacity:1;stroke:none;stroke-width:0.27469453;stroke-linecap:round;stroke-miterlimit:4;stroke-dasharray:none;stroke-opacity:1"
       id="path4614-8-44-3"
       cx="89.091217"
       cy="150.40544"
       rx="0.7342816"
       ry="0.1405631"
       transform="rotate(-6.3275666)" />
    <ellipse
       style="opacity:1;fill:#c28d7d;fill-opacity:1;stroke:none;stroke-width:0.24839646;stroke-linecap:round;stroke-miterlimit:4;stroke-dasharray:none;stroke-opacity:1"
       id="path4614-8-18-1"
       cx="89.770386"
       cy="153.07401"
       rx="0.7342816"
       ry="0.11493759"
       transform="rotate(-6.3275666)" />
  </g>
</svg>
