<?xml version="1.0" encoding="UTF-8" standalone="no"?>
<!-- Created with Inkscape (http://www.inkscape.org/) -->

<svg
   xmlns:dc="http://purl.org/dc/elements/1.1/"
   xmlns:cc="http://creativecommons.org/ns#"
   xmlns:rdf="http://www.w3.org/1999/02/22-rdf-syntax-ns#"
   xmlns:svg="http://www.w3.org/2000/svg"
   xmlns="http://www.w3.org/2000/svg"
   xmlns:xlink="http://www.w3.org/1999/xlink"
   xmlns:sodipodi="http://sodipodi.sourceforge.net/DTD/sodipodi-0.dtd"
   xmlns:inkscape="http://www.inkscape.org/namespaces/inkscape"
   width="137.05417mm"
   height="195.79167mm"
   viewBox="0 0 137.05417 195.79167"
   version="1.1"
   id="svg8"
   inkscape:version="0.92+devel unknown"
   sodipodi:docname="uretra.svg"
   inkscape:export-filename="/home/fundacion/Documentos/fundecyt_02/conozco_mi_cuerpo/conozco-mi-cuerpo/img/femenino/uretra.png"
   inkscape:export-xdpi="96"
   inkscape:export-ydpi="96">
  <defs
     id="defs2">
    <linearGradient
       inkscape:collect="always"
       id="linearGradient4565">
      <stop
         style="stop-color:#e0765d;stop-opacity:1;"
         offset="0"
         id="stop4561" />
      <stop
         style="stop-color:#e0765d;stop-opacity:0;"
         offset="1"
         id="stop4563" />
    </linearGradient>
    <linearGradient
       inkscape:collect="always"
       id="linearGradient4555">
      <stop
         style="stop-color:#e67a5f;stop-opacity:1;"
         offset="0"
         id="stop4551" />
      <stop
         style="stop-color:#e67a5f;stop-opacity:0;"
         offset="1"
         id="stop4553" />
    </linearGradient>
    <linearGradient
       inkscape:collect="always"
       id="linearGradient4510">
      <stop
         style="stop-color:#ed8164;stop-opacity:1;"
         offset="0"
         id="stop4506" />
      <stop
         style="stop-color:#ed8164;stop-opacity:0;"
         offset="1"
         id="stop4508" />
    </linearGradient>
    <radialGradient
       inkscape:collect="always"
       xlink:href="#linearGradient4510"
       id="radialGradient4516"
       cx="101.20678"
       cy="122.5701"
       fx="101.20678"
       fy="122.5701"
       r="9.13904"
       gradientTransform="matrix(1.0756676,0,0,1.0837173,125.81792,103.70214)"
       gradientUnits="userSpaceOnUse" />
    <radialGradient
       inkscape:collect="always"
       xlink:href="#linearGradient4555"
       id="radialGradient4557"
       cx="100.74702"
       cy="138.9214"
       fx="100.74702"
       fy="138.9214"
       r="0.59796"
       gradientTransform="matrix(0.96392923,0,0,8.0037619,137.00842,-858.96962)"
       gradientUnits="userSpaceOnUse" />
    <radialGradient
       inkscape:collect="always"
       xlink:href="#linearGradient4565"
       id="radialGradient4567"
       cx="100.74132"
       cy="130.59647"
       fx="100.74132"
       fy="130.59647"
       r="3.5887158"
       gradientTransform="matrix(1.0756676,0,0,0.56308672,125.81792,171.63004)"
       gradientUnits="userSpaceOnUse" />
    <radialGradient
       inkscape:collect="always"
       xlink:href="#linearGradient4565"
       id="radialGradient4567-8"
       cx="100.74132"
       cy="130.59647"
       fx="100.74132"
       fy="130.59647"
       r="3.5887158"
       gradientTransform="matrix(4.072951,0,0,3.4679927,-176.87188,-209.8005)"
       gradientUnits="userSpaceOnUse" />
    <radialGradient
       inkscape:collect="always"
       xlink:href="#linearGradient4565"
       id="radialGradient4567-8-8"
       cx="100.74132"
       cy="130.59647"
       fx="100.74132"
       fy="130.59647"
       r="3.5887158"
       gradientTransform="matrix(4.072951,0,0,-3.4679926,-175.7255,681.65873)"
       gradientUnits="userSpaceOnUse" />
    <radialGradient
       inkscape:collect="always"
       xlink:href="#linearGradient4565"
       id="radialGradient4834"
       cx="100.93559"
       cy="117.32214"
       fx="100.93559"
       fy="117.32214"
       r="13.196461"
       gradientTransform="matrix(1.0756676,0,0,0.750359,125.81792,142.85469)"
       gradientUnits="userSpaceOnUse" />
    <radialGradient
       inkscape:collect="always"
       xlink:href="#linearGradient4565"
       id="radialGradient4567-8-8-7"
       cx="100.74132"
       cy="130.59647"
       fx="100.74132"
       fy="130.59647"
       r="3.5887158"
       gradientTransform="matrix(6.9206349,0,0,-5.8927078,-460.53221,886.2389)"
       gradientUnits="userSpaceOnUse" />
    <radialGradient
       inkscape:collect="always"
       xlink:href="#linearGradient4565"
       id="radialGradient4834-5"
       cx="100.93559"
       cy="117.32214"
       fx="100.93559"
       fy="117.32214"
       r="13.196461"
       gradientTransform="matrix(1.8277418,0,0,1.2749873,51.841225,-29.28062)"
       gradientUnits="userSpaceOnUse" />
    <radialGradient
       inkscape:collect="always"
       xlink:href="#linearGradient4565"
       id="radialGradient4567-8-6"
       cx="100.74132"
       cy="130.59647"
       fx="100.74132"
       fy="130.59647"
       r="3.5887158"
       gradientTransform="matrix(6.9206349,0,0,5.892708,-462.48011,-628.50163)"
       gradientUnits="userSpaceOnUse" />
    <radialGradient
       inkscape:collect="always"
       xlink:href="#linearGradient4510"
       id="radialGradient4516-2"
       cx="101.20678"
       cy="122.5701"
       fx="101.20678"
       fy="122.5701"
       r="9.13904"
       gradientTransform="matrix(1.8277418,0,0,1.8414196,51.841225,-95.80745)"
       gradientUnits="userSpaceOnUse" />
    <radialGradient
       inkscape:collect="always"
       xlink:href="#linearGradient4555"
       id="radialGradient4557-2"
       cx="100.74702"
       cy="138.9214"
       fx="100.74702"
       fy="138.9214"
       r="0.59796"
       gradientTransform="matrix(1.6378793,0,0,13.599749,70.855777,-1731.5501)"
       gradientUnits="userSpaceOnUse" />
    <radialGradient
       inkscape:collect="always"
       xlink:href="#linearGradient4565"
       id="radialGradient4567-9"
       cx="100.74132"
       cy="130.59647"
       fx="100.74132"
       fy="130.59647"
       r="3.5887158"
       gradientTransform="matrix(1.8277418,0,0,0.95677986,51.841225,19.613591)"
       gradientUnits="userSpaceOnUse" />
  </defs>
  <sodipodi:namedview
     id="base"
     pagecolor="#ffffff"
     bordercolor="#666666"
     borderopacity="1.0"
     inkscape:pageopacity="0.0"
     inkscape:pageshadow="2"
     inkscape:zoom="0.33422211"
     inkscape:cx="247.56451"
     inkscape:cy="330.60371"
     inkscape:document-units="mm"
     inkscape:current-layer="layer1"
     showgrid="false"
     inkscape:window-width="1920"
     inkscape:window-height="1012"
     inkscape:window-x="0"
     inkscape:window-y="32"
     inkscape:window-maximized="1"
     inkscape:document-rotation="0"
     fit-margin-top="0"
     fit-margin-left="0"
     fit-margin-right="0"
     fit-margin-bottom="0" />
  <metadata
     id="metadata5">
    <rdf:RDF>
      <cc:Work
         rdf:about="">
        <dc:format>image/svg+xml</dc:format>
        <dc:type
           rdf:resource="http://purl.org/dc/dcmitype/StillImage" />
        <dc:title></dc:title>
      </cc:Work>
    </rdf:RDF>
  </metadata>
  <g
     inkscape:label="Capa 1"
     inkscape:groupmode="layer"
     id="layer1"
     transform="translate(-468.45703,-73.769547)">
    <g
       id="g5415"
       transform="matrix(1.129888,0,0,1.129888,271.35421,-31.464536)">
      <path
         sodipodi:nodetypes="aacasacaa"
         inkscape:connector-curvature="0"
         id="path4496"
         d="m 234.75293,263.07498 c 3.65244,-0.30489 6.53964,-4.22014 7.93859,-7.60781 0.89802,-2.17468 -0.16539,-7.05651 -0.16539,-7.05651 0,0 -1.97172,-0.0548 -2.91848,0.17666 -1.89326,0.46266 -3.74946,2.38461 -5.34142,2.37818 -2.26473,-0.009 -2.64072,-2.44963 -4.32128,-2.72888 -1.45891,-0.24241 -4.31587,1.02854 -4.31587,1.02854 0,0 -0.31001,6.00433 1.18527,8.40718 1.69116,2.71763 4.74882,5.66891 7.93858,5.40264 z"
         style="fill:#f9c5b3;fill-opacity:1;stroke:none;stroke-width:0.28460371px;stroke-linecap:butt;stroke-linejoin:miter;stroke-opacity:1" />
      <path
         sodipodi:nodetypes="aaaaasssa"
         inkscape:connector-curvature="0"
         id="path4498"
         d="m 217.26999,235.80043 c -1.96516,-2.16293 -0.37428,-6.33449 1.40336,-8.65402 3.19095,-4.16369 9.11879,-6.02307 14.34542,-6.47104 4.03817,-0.34611 8.23903,1.05558 11.7726,3.04061 1.10559,0.62108 1.84433,1.74201 2.72876,2.65078 0.61572,0.63267 1.36365,1.17781 1.79316,1.9491 0.43699,0.78472 0.35371,1.08914 0.74672,2.00782 0.40986,0.95807 1.2763,2.52959 0.73461,3.29375 -6.47623,9.13597 -25.99404,10.47141 -33.52463,2.183 z"
         style="fill:#c9513e;fill-opacity:1;stroke:none;stroke-width:0.28460371px;stroke-linecap:butt;stroke-linejoin:miter;stroke-opacity:1" />
      <path
         sodipodi:nodetypes="aaaacaa"
         inkscape:connector-curvature="0"
         id="path4559-9-4"
         d="m 220.88505,232.90057 c -0.14101,-7.83249 7.88966,-10.95118 12.70451,-11.20582 5.24838,-0.27761 14.48371,2.18918 14.3069,10.72566 -0.13479,6.50628 -7.21592,6.87846 -11.21785,6.96255 -1.09909,0.0199 -3.11017,-1.78216 -3.11017,-1.78216 0,0 -2.04217,2.49718 -3.23677,2.50242 -3.47765,0.0135 -9.34483,-1.54837 -9.44662,-7.20265 z"
         style="fill:url(#radialGradient4567-8-8);fill-opacity:1;stroke:url(#radialGradient4834);stroke-width:1.3743825px;stroke-linecap:butt;stroke-linejoin:miter;stroke-opacity:1" />
      <path
         sodipodi:nodetypes="sssaasssaasas"
         inkscape:connector-curvature="0"
         id="path4500"
         d="m 234.36703,251.22223 c 1.58387,0.0281 2.36529,-1.11414 3.86978,-1.72421 1.24543,-0.50504 3.23786,-0.40615 4.33776,-1.12023 2.28756,-1.48515 4.27475,-3.58419 5.59363,-5.97147 1.47537,-2.67053 2.42502,-5.80365 2.32407,-8.85294 -0.0437,-1.31959 -0.37275,-2.77566 -1.25694,-3.75618 -3.79571,-4.20934 -9.7375,-6.08133 -15.59284,-5.84732 -6.1249,0.24476 -13.11075,2.38432 -15.98267,7.87437 -0.94729,1.81087 -1.17405,4.07598 -0.77965,6.08122 0.38632,1.96413 1.76119,3.6225 2.96264,5.22361 1.67648,2.23412 3.45477,4.09183 5.84278,6.00656 0.72502,0.58134 2.20449,-0.20335 3.27904,-0.003 1.89825,0.35338 3.47186,2.05562 5.4024,2.0899 z"
         style="fill:#b43951;fill-opacity:1;stroke:none;stroke-width:0.28460371px;stroke-linecap:butt;stroke-linejoin:miter;stroke-opacity:1" />
      <path
         sodipodi:nodetypes="aaaacaa"
         inkscape:connector-curvature="0"
         id="path4559-9"
         d="m 219.73869,238.95766 c -0.14101,7.8325 7.88966,10.95119 12.70452,11.20583 5.24836,0.2776 14.48369,-2.18919 14.30687,-10.72567 -0.13479,-6.50628 -7.2159,-6.87845 -11.21783,-6.96255 -1.09909,-0.0199 -3.11018,1.78216 -3.11018,1.78216 0,0 -2.04217,-2.49718 -3.23677,-2.50242 -3.47764,-0.0136 -9.34482,1.54838 -9.44661,7.20265 z"
         style="fill:url(#radialGradient4567-8);fill-opacity:1;stroke:none;stroke-width:1.37438238px;stroke-linecap:butt;stroke-linejoin:miter;stroke-opacity:1" />
      <path
         sodipodi:nodetypes="ccaaaaaaaaaaaaaaaaaaaaaaaaaaaaaaaaaaaac"
         inkscape:connector-curvature="0"
         id="path4502-3"
         d="m 235.66774,266.25973 -1.00282,0.16115 c 0,0 -0.62499,-5.29164 -1.08819,-7.91638 -0.12286,-0.69624 -0.38444,-1.37153 -0.44807,-2.07479 -0.17744,-1.96113 0.19329,-3.93377 0.19204,-5.90205 -4.2e-4,-0.63148 0.16446,-1.29997 -0.0641,-1.89346 -0.40143,-1.04278 -1.23474,-1.95477 -2.17634,-2.61866 -1.03596,-0.73042 -2.46956,-0.76729 -3.60592,-1.34962 -0.71282,-0.36529 -1.43615,-0.7651 -1.98432,-1.32947 -0.67436,-0.69427 -0.85238,-1.73296 -1.5149,-2.43734 -0.66397,-0.70595 -1.77511,-0.96751 -2.38972,-1.71221 -0.63654,-0.77129 -1.16287,-1.72277 -1.21619,-2.69923 -0.041,-0.75084 0.53727,-1.42017 0.70411,-2.15533 0.13363,-0.58879 -0.0996,-1.27999 0.23471,-1.79278 0.43525,-0.66771 1.61593,-0.65268 2.06966,-1.30934 0.24467,-0.3541 -0.10628,-0.97479 0.2347,-1.24889 0.69864,-0.56159 2.09252,0.56167 2.75245,-0.0402 0.30728,-0.28026 -0.25044,-0.93549 0.064,-1.20859 1.09977,-0.95523 3.15157,0.78589 4.48072,0.14098 0.2965,-0.14385 0.22435,-0.74368 0.55475,-0.78558 0.21485,-0.0272 0.28591,0.3359 0.49075,0.40286 0.68633,0.2244 1.46096,0.0177 2.17635,-0.10068 0.57168,-0.0947 1.08426,-0.50423 1.66426,-0.48344 0.85522,0.0307 1.53798,0.80732 2.38971,0.8863 0.95662,0.0887 1.89689,-0.66896 2.8378,-0.48344 0.83801,0.16523 1.32119,1.09495 2.13367,1.34961 0.79754,0.24997 1.86807,-0.38233 2.51773,0.12086 0.53877,0.4173 -0.0112,1.47883 0.51209,1.91362 0.17743,0.14751 0.54451,-0.084 0.70411,0.0806 0.60047,0.6195 -0.26812,1.74735 0.0854,2.51792 0.0599,0.13072 0.27643,0.16581 0.32006,0.30216 0.33359,1.04247 -0.15152,2.23617 -0.68278,3.20282 -0.51901,0.94433 -1.75448,1.39939 -2.32569,2.31649 -0.3968,0.63705 -0.2671,1.50195 -0.70412,2.11506 -0.50481,0.70829 -1.32797,1.1735 -2.09102,1.63163 -1.37448,0.82522 -3.13174,1.02897 -4.4167,1.97407 -0.78517,0.57749 -1.58169,1.28483 -1.89898,2.17549 -0.89852,2.52228 0.26516,5.31667 0.34141,7.97682 0.098,3.42343 0.14933,10.2731 0.14933,10.2731 z"
         style="fill:#ffd0cc;fill-opacity:1;stroke:none;stroke-width:0.3027167px;stroke-linecap:butt;stroke-linejoin:miter;stroke-opacity:1" />
      <path
         sodipodi:nodetypes="ccaaaaaaaaaaaaaaaaaaaaaaaaaaaaaaaaaaaac"
         inkscape:connector-curvature="0"
         id="path4502"
         d="m 235.51363,265.64126 -0.91608,0.15593 c 0,0 -0.57091,-5.12026 -0.99404,-7.66 -0.11224,-0.67367 -0.35119,-1.3271 -0.40932,-2.00758 -0.16209,-1.89761 0.17655,-3.80635 0.17542,-5.71088 -3.6e-4,-0.61103 0.15024,-1.25787 -0.0585,-1.83216 -0.36671,-1.00899 -1.12793,-1.89144 -1.98809,-2.53384 -0.94634,-0.70676 -2.25592,-0.74241 -3.29399,-1.3059 -0.65116,-0.35346 -1.31191,-0.74031 -1.81266,-1.28639 -0.61604,-0.67181 -0.77867,-1.67688 -1.38387,-2.35844 -0.60654,-0.68306 -1.62156,-0.93615 -2.183,-1.65674 -0.58148,-0.7463 -1.06227,-1.66697 -1.11099,-2.6118 -0.0374,-0.72653 0.49079,-1.3742 0.6432,-2.08554 0.12207,-0.56971 -0.0909,-1.23852 0.2144,-1.7347 0.39763,-0.64608 1.47617,-0.63154 1.89063,-1.26693 0.22353,-0.34264 -0.097,-0.94323 0.21442,-1.20844 0.6382,-0.54342 1.9115,0.54348 2.51434,-0.0389 0.28071,-0.2712 -0.22876,-0.90522 0.0585,-1.16947 1.00464,-0.92428 2.87896,0.76045 4.09313,0.13643 0.27086,-0.1392 0.20494,-0.7196 0.50676,-0.76014 0.19627,-0.0264 0.26118,0.32502 0.4483,0.38981 0.62697,0.21714 1.33459,0.0172 1.98809,-0.0975 0.52223,-0.0917 0.99047,-0.48789 1.5203,-0.46779 0.78125,0.0297 1.40493,0.7812 2.183,0.85761 0.87385,0.0858 1.7328,-0.64728 2.59231,-0.46779 0.76553,0.15989 1.2069,1.05949 1.94912,1.30591 0.72853,0.24187 1.70646,-0.36994 2.29994,0.11694 0.49214,0.40379 -0.01,1.43092 0.46778,1.85165 0.16208,0.14274 0.49741,-0.0813 0.6432,0.078 0.54854,0.59944 -0.24492,1.69075 0.078,2.43638 0.0547,0.12648 0.2525,0.16044 0.29236,0.29236 0.30475,1.00872 -0.13841,2.16374 -0.62371,3.09909 -0.47412,0.91376 -1.6027,1.35407 -2.12452,2.24146 -0.36247,0.61641 -0.24399,1.4533 -0.6432,2.04657 -0.46116,0.68534 -1.2131,1.13549 -1.91013,1.57877 -1.2556,0.7985 -2.86085,0.99564 -4.03466,1.91012 -0.71725,0.5588 -1.44486,1.24323 -1.7347,2.10505 -0.82081,2.44059 0.24221,5.14448 0.31186,7.71846 0.0896,3.31256 0.13642,9.94038 0.13642,9.94038 z"
         style="fill:#942f32;fill-opacity:1;stroke:none;stroke-width:0.28460371px;stroke-linecap:butt;stroke-linejoin:miter;stroke-opacity:1" />
      <path
         sodipodi:nodetypes="caaaaaaaaaaaaaaaaac"
         inkscape:connector-curvature="0"
         id="path4504"
         d="m 241.67281,240.08847 c -0.58232,0.20204 -0.92098,0.90864 -1.52031,1.05251 -0.47174,0.11326 -0.95742,-0.18033 -1.44235,-0.1949 -1.57591,-0.0473 -3.14941,0.18078 -4.71682,0.35084 -1.27885,0.13875 -2.5691,0.84454 -3.82025,0.54575 -1.2342,-0.29473 -2.02131,-1.54575 -3.11858,-2.183 -0.68357,-0.39701 -1.89337,-0.26382 -2.14401,-1.01354 -0.36304,-1.08595 1.06776,-2.02589 1.59826,-3.0406 0.67857,-1.29791 0.79837,-3.10118 2.02707,-3.89822 1.46339,-0.94927 3.48259,-0.41888 5.22361,-0.31186 1.35841,0.0835 2.89249,-0.0287 4.01515,0.74066 0.49085,0.33636 0.44112,1.18928 0.93557,1.5203 1.61893,1.08385 5.04997,-0.87498 5.76935,0.93559 0.28408,0.71491 -1.31078,1.06846 -1.40334,1.83216 -0.0546,0.45056 0.69094,0.81741 0.54575,1.24743 -0.12839,0.38026 -0.88407,0.22048 -1.05251,0.58477 -0.25029,0.54124 0.71433,1.28148 0.35083,1.75419 -0.25396,0.33026 -0.85383,-0.0586 -1.24742,0.0779 z"
         style="fill:url(#radialGradient4516);fill-opacity:1;stroke:none;stroke-width:0.28460371px;stroke-linecap:butt;stroke-linejoin:miter;stroke-opacity:1" />
      <path
         inkscape:connector-curvature="0"
         id="path4526"
         d="m 234.15205,258.9821 0.54576,-6.35408 -0.58473,-5.61343 -0.70168,5.73038 z"
         style="fill:#7f2528;fill-opacity:1;stroke:none;stroke-width:0.28460371px;stroke-linecap:butt;stroke-linejoin:miter;stroke-opacity:1" />
      <path
         inkscape:connector-curvature="0"
         id="path4526-9"
         d="m 234.20875,257.71015 0.48906,-5.08213 -0.52399,-4.48974 -0.62879,4.58328 z"
         style="fill:url(#radialGradient4557);fill-opacity:1;stroke:none;stroke-width:0.24094632px;stroke-linecap:butt;stroke-linejoin:miter;stroke-opacity:1" />
      <path
         sodipodi:nodetypes="aaaacaa"
         inkscape:connector-curvature="0"
         id="path4559"
         d="m 230.5629,244.49345 c -0.0372,1.27173 2.08366,1.7781 3.35527,1.81946 1.38609,0.0451 3.82514,-0.35546 3.77845,-1.7415 -0.0357,-1.0564 -1.90573,-1.11684 -2.96264,-1.13049 -0.29026,-0.003 -0.8214,0.28937 -0.8214,0.28937 0,0 -0.53933,-0.40546 -0.85482,-0.40631 -0.91845,-0.002 -2.46797,0.2514 -2.49486,1.16947 z"
         style="fill:url(#radialGradient4567);fill-opacity:1;stroke:none;stroke-width:0.28460371px;stroke-linecap:butt;stroke-linejoin:miter;stroke-opacity:1" />
      <ellipse
         transform="rotate(7.572909)"
         ry="0.23389272"
         rx="1.0379237"
         cy="222.43159"
         cx="260.77771"
         id="path4614-8"
         style="opacity:1;fill:#c28d7d;fill-opacity:1;stroke:none;stroke-width:0.42128316;stroke-linecap:round;stroke-miterlimit:4;stroke-dasharray:none;stroke-opacity:1" />
      <ellipse
         transform="rotate(7.572909)"
         ry="0.16498142"
         rx="0.94144779"
         cy="220.68126"
         cx="259.95078"
         id="path4614-8-4"
         style="opacity:1;fill:#c28d7d;fill-opacity:1;stroke:none;stroke-width:0.33697572;stroke-linecap:round;stroke-miterlimit:4;stroke-dasharray:none;stroke-opacity:1" />
      <ellipse
         transform="rotate(7.572909)"
         ry="0.23389272"
         rx="1.0379237"
         cy="220.66748"
         cx="263.38257"
         id="path4614-8-8"
         style="opacity:1;fill:#c28d7d;fill-opacity:1;stroke:none;stroke-width:0.42128316;stroke-linecap:round;stroke-miterlimit:4;stroke-dasharray:none;stroke-opacity:1" />
      <ellipse
         transform="rotate(7.572909)"
         ry="0.23389272"
         rx="1.0379237"
         cy="223.64442"
         cx="262.41779"
         id="path4614-8-1"
         style="opacity:1;fill:#c28d7d;fill-opacity:1;stroke:none;stroke-width:0.42128316;stroke-linecap:round;stroke-miterlimit:4;stroke-dasharray:none;stroke-opacity:1" />
      <ellipse
         transform="rotate(7.572909)"
         ry="0.23389272"
         rx="1.0379237"
         cy="221.77002"
         cx="262.39026"
         id="path4614-8-0"
         style="opacity:1;fill:#c28d7d;fill-opacity:1;stroke:none;stroke-width:0.42128316;stroke-linecap:round;stroke-miterlimit:4;stroke-dasharray:none;stroke-opacity:1" />
      <ellipse
         transform="rotate(7.572909)"
         ry="0.23389272"
         rx="1.0379237"
         cy="224.44379"
         cx="260.01971"
         id="path4614-8-3"
         style="opacity:1;fill:#c28d7d;fill-opacity:1;stroke:none;stroke-width:0.42128316;stroke-linecap:round;stroke-miterlimit:4;stroke-dasharray:none;stroke-opacity:1" />
      <ellipse
         transform="rotate(7.572909)"
         ry="0.22011046"
         rx="0.84497195"
         cy="218.33826"
         cx="259.30301"
         id="path4614-8-04"
         style="opacity:1;fill:#c28d7d;fill-opacity:1;stroke:none;stroke-width:0.3687436;stroke-linecap:round;stroke-miterlimit:4;stroke-dasharray:none;stroke-opacity:1" />
      <ellipse
         transform="rotate(7.572909)"
         ry="0.15119918"
         rx="0.7898429"
         cy="219.26169"
         cx="261.70114"
         id="path4614-8-44"
         style="opacity:1;fill:#c28d7d;fill-opacity:1;stroke:none;stroke-width:0.29548001;stroke-linecap:round;stroke-miterlimit:4;stroke-dasharray:none;stroke-opacity:1" />
      <ellipse
         transform="rotate(-6.3275664)"
         ry="0.23389275"
         rx="1.0379237"
         cy="278.84952"
         cx="207.60941"
         id="path4614-8-47"
         style="opacity:1;fill:#c28d7d;fill-opacity:1;stroke:none;stroke-width:0.42128316;stroke-linecap:round;stroke-miterlimit:4;stroke-dasharray:none;stroke-opacity:1" />
      <ellipse
         transform="rotate(-6.3275664)"
         ry="0.23389275"
         rx="1.0379237"
         cy="280.68668"
         cx="207.27866"
         id="path4614-8-6"
         style="opacity:1;fill:#c28d7d;fill-opacity:1;stroke:none;stroke-width:0.42128316;stroke-linecap:round;stroke-miterlimit:4;stroke-dasharray:none;stroke-opacity:1" />
      <ellipse
         transform="rotate(-6.3275664)"
         ry="0.16498144"
         rx="0.7760607"
         cy="277.1543"
         cx="207.81613"
         id="path4614-8-31"
         style="opacity:1;fill:#c28d7d;fill-opacity:1;stroke:none;stroke-width:0.30594856;stroke-linecap:round;stroke-miterlimit:4;stroke-dasharray:none;stroke-opacity:1" />
      <ellipse
         transform="rotate(-6.3275664)"
         ry="0.23389275"
         rx="1.0379237"
         cy="277.03024"
         cx="211.05498"
         id="path4614-8-7"
         style="opacity:1;fill:#c28d7d;fill-opacity:1;stroke:none;stroke-width:0.42128316;stroke-linecap:round;stroke-miterlimit:4;stroke-dasharray:none;stroke-opacity:1" />
      <ellipse
         transform="rotate(-6.3275664)"
         ry="0.1787637"
         rx="0.91388339"
         cy="279.12515"
         cx="211.56491"
         id="path4614-8-5"
         style="opacity:1;fill:#c28d7d;fill-opacity:1;stroke:none;stroke-width:0.34559548;stroke-linecap:round;stroke-miterlimit:4;stroke-dasharray:none;stroke-opacity:1" />
      <ellipse
         transform="rotate(-6.3275664)"
         ry="0.15119918"
         rx="0.84497201"
         cy="281.55084"
         cx="210.00751"
         id="path4614-8-9"
         style="opacity:1;fill:#c28d7d;fill-opacity:1;stroke:none;stroke-width:0.30561799;stroke-linecap:round;stroke-miterlimit:4;stroke-dasharray:none;stroke-opacity:1" />
      <ellipse
         transform="rotate(-6.3275664)"
         ry="0.23389275"
         rx="1.0379237"
         cy="278.02258"
         cx="209.75945"
         id="path4614-8-62"
         style="opacity:1;fill:#c28d7d;fill-opacity:1;stroke:none;stroke-width:0.42128316;stroke-linecap:round;stroke-miterlimit:4;stroke-dasharray:none;stroke-opacity:1" />
      <ellipse
         transform="rotate(-6.3275664)"
         ry="0.1787637"
         rx="0.81740755"
         cy="274.99048"
         cx="211.77165"
         id="path4614-8-17"
         style="opacity:1;fill:#c28d7d;fill-opacity:1;stroke:none;stroke-width:0.32684514;stroke-linecap:round;stroke-miterlimit:4;stroke-dasharray:none;stroke-opacity:1" />
      <ellipse
         transform="rotate(-6.3275664)"
         ry="0.23389275"
         rx="1.0379237"
         cy="281.96429"
         cx="207.52672"
         id="path4614-8-85"
         style="opacity:1;fill:#c28d7d;fill-opacity:1;stroke:none;stroke-width:0.42128316;stroke-linecap:round;stroke-miterlimit:4;stroke-dasharray:none;stroke-opacity:1" />
      <ellipse
         transform="rotate(-6.3275664)"
         ry="0.23389275"
         rx="1.0379237"
         cy="280.58609"
         cx="211.60626"
         id="path4614-8-74"
         style="opacity:1;fill:#c28d7d;fill-opacity:1;stroke:none;stroke-width:0.42128316;stroke-linecap:round;stroke-miterlimit:4;stroke-dasharray:none;stroke-opacity:1" />
      <ellipse
         transform="rotate(-6.3275664)"
         ry="0.12363465"
         rx="0.78984296"
         cy="284.80344"
         cx="207.69211"
         id="path4614-8-18"
         style="opacity:1;fill:#c28d7d;fill-opacity:1;stroke:none;stroke-width:0.26719204;stroke-linecap:round;stroke-miterlimit:4;stroke-dasharray:none;stroke-opacity:1" />
      <ellipse
         transform="rotate(7.572909)"
         ry="0.23389272"
         rx="1.0379237"
         cy="226.20793"
         cx="262.44537"
         id="path4614-8-59"
         style="opacity:1;fill:#c28d7d;fill-opacity:1;stroke:none;stroke-width:0.42128316;stroke-linecap:round;stroke-miterlimit:4;stroke-dasharray:none;stroke-opacity:1" />
      <ellipse
         transform="rotate(7.572909)"
         ry="0.23389272"
         rx="1.0379237"
         cy="228.60603"
         cx="264.0441"
         id="path4614-8-75"
         style="opacity:1;fill:#c28d7d;fill-opacity:1;stroke:none;stroke-width:0.42128316;stroke-linecap:round;stroke-miterlimit:4;stroke-dasharray:none;stroke-opacity:1" />
      <ellipse
         transform="rotate(7.572909)"
         ry="0.15119918"
         rx="0.74849606"
         cy="227.36563"
         cx="263.80981"
         id="path4614-8-38"
         style="opacity:1;fill:#c28d7d;fill-opacity:1;stroke:none;stroke-width:0.28764212;stroke-linecap:round;stroke-miterlimit:4;stroke-dasharray:none;stroke-opacity:1" />
      <ellipse
         transform="rotate(7.572909)"
         ry="0.15119918"
         rx="0.7898429"
         cy="225.35342"
         cx="263.02423"
         id="path4614-8-44-8"
         style="opacity:1;fill:#c28d7d;fill-opacity:1;stroke:none;stroke-width:0.29548001;stroke-linecap:round;stroke-miterlimit:4;stroke-dasharray:none;stroke-opacity:1" />
      <ellipse
         transform="rotate(-6.3275664)"
         ry="0.15119918"
         rx="0.78984296"
         cy="279.70401"
         cx="209.34598"
         id="path4614-8-44-3"
         style="opacity:1;fill:#c28d7d;fill-opacity:1;stroke:none;stroke-width:0.29548001;stroke-linecap:round;stroke-miterlimit:4;stroke-dasharray:none;stroke-opacity:1" />
      <ellipse
         transform="rotate(-6.3275664)"
         ry="0.12363465"
         rx="0.78984296"
         cy="282.57449"
         cx="210.07652"
         id="path4614-8-18-1"
         style="opacity:1;fill:#c28d7d;fill-opacity:1;stroke:none;stroke-width:0.26719204;stroke-linecap:round;stroke-miterlimit:4;stroke-dasharray:none;stroke-opacity:1" />
      <path
         sodipodi:nodetypes="acsaacaaaaaacaccaasacaaaaaaaaaaaaaa"
         inkscape:connector-curvature="0"
         id="path5496"
         d="m 235.21295,262.93408 c -1.82811,-0.0928 -4.52117,3.11676 -4.52117,3.11676 0,0 -3.63817,0.67533 -3.55997,-0.53907 0.17609,-2.73491 1.53186,-4.34235 1.90668,-6.60211 0.25286,-1.52453 0.38622,-3.09438 0.22051,-4.63084 -0.27341,-2.53505 -1.98464,-7.3873 -1.98464,-7.3873 0,0 -3.58236,-6.15656 -4.18982,-9.59245 -0.40796,-2.30748 -0.0267,-4.71891 0.43434,-7.01638 0.33195,-1.65416 1.3538,-3.12223 1.66057,-4.78124 0.13756,-0.74396 0.31941,-1.55387 0.0713,-2.26859 -0.66378,-1.91207 -2.80045,-2.95275 -3.91025,-4.64536 -0.72205,-1.10128 -1.47439,-2.25211 -1.75744,-3.5382 -0.28474,-1.2938 0.11026,-3.97273 0.11026,-3.97273 0,0 0.21084,-2.57617 -0.26065,-3.72986 -0.55447,-1.35677 -2.85332,-3.34558 -2.85332,-3.34558 v -4.74111 c 0,0 3.90729,-4.69219 6.39496,-6.39496 1.95541,-1.33845 4.19066,-2.35885 6.50523,-2.86672 3.10627,-0.68158 6.3668,-0.38453 9.53915,-0.16147 5.18685,0.36471 11.33651,4.45087 14.27661,9.3129 0.80236,1.32687 0.44102,4.63084 0.44102,4.63084 0,0 -2.03638,1.73337 -2.52256,2.92576 -1.13265,2.77791 0.42942,6.15165 -0.56467,8.98212 -0.675,1.92194 -2.24506,3.40625 -3.51445,4.99941 -0.65363,0.82033 -1.83289,1.32593 -2.10503,2.33892 -0.81656,3.0396 1.71737,6.09993 1.9491,9.23877 0.15815,2.14211 0.0736,4.33466 -0.38981,6.43205 -0.50597,2.29019 -1.72006,4.3641 -2.57282,6.549 -0.74489,1.90847 -1.70974,3.74675 -2.22198,5.73037 -0.43285,1.6761 -0.66056,3.41504 -0.70169,5.14563 -0.0316,1.33017 0.12919,2.66424 0.35084,3.97619 0.30135,1.78368 2.12885,3.64182 1.3254,5.26258 -0.30124,0.60766 -1.19603,0.73429 -1.87115,0.79914 -0.86003,0.0826 -1.75911,-0.16331 -2.53383,-0.54575 -1.23648,-0.6104 -1.77354,-2.61082 -3.1507,-2.68072 z"
         style="fill:#f8b7b5;fill-opacity:1;stroke:none;stroke-width:0.28460371px;stroke-linecap:butt;stroke-linejoin:miter;stroke-opacity:1" />
      <path
         sodipodi:nodetypes="aaaaaaaaaaaaaaaaaaaaaaaaaaaaaaaaa"
         inkscape:connector-curvature="0"
         id="path5498"
         d="m 230.6062,265.10803 c -0.50053,0.18027 -1.20591,-0.26615 -1.40336,-0.76015 -0.19519,-0.48843 0.0922,-1.15356 0.48727,-1.50082 0.23833,-0.20947 0.75415,0.0849 0.93558,-0.17542 0.42203,-0.6055 -0.54643,-1.46626 -0.37033,-2.183 0.19469,-0.79248 1.18554,-1.18857 1.48133,-1.94909 0.48718,-1.25267 0.4076,-2.67161 0.37033,-4.01516 -0.0687,-2.4753 0.48017,-5.43459 -1.09151,-7.34814 -0.55172,-0.67173 -1.91494,-0.19664 -2.45587,-0.8771 -0.91172,-1.14687 -0.31658,-2.91329 -0.50677,-4.36599 -0.0819,-0.62498 -0.035,-1.28749 -0.27288,-1.87115 -0.27915,-0.68472 -1.01011,-1.11548 -1.30589,-1.79318 -0.27014,-0.61892 -0.60509,-1.34799 -0.38983,-1.98808 0.41073,-1.22123 1.59676,-2.60959 2.88469,-2.57283 1.06539,0.0304 1.96296,1.23764 2.26095,2.26097 0.13398,0.46009 -0.38521,0.92982 -0.31185,1.40335 0.14262,0.9206 0.58792,1.96642 1.40335,2.4169 1.93475,1.06885 4.94559,1.20091 6.62697,-0.2339 0.92661,-0.79071 0.1134,-2.51969 0.70168,-3.58635 0.60373,-1.09468 1.49705,-2.78673 2.72875,-2.57282 1.58025,0.27443 2.46053,2.70831 2.18299,4.28803 -0.19089,1.08655 -1.99697,1.24082 -2.41689,2.26096 -0.52467,1.27459 0.31851,2.76338 0.15594,4.13211 -0.2038,1.71571 -1.08123,3.29225 -1.40338,4.98971 -0.38474,2.02737 -0.4106,4.10667 -0.6237,6.15918 -0.12685,1.22177 -0.65285,2.46448 -0.38983,3.66432 0.3369,1.5368 2.34108,2.48266 2.41691,4.05414 0.0498,1.03344 -0.30331,2.64613 -1.3254,2.80671 -0.97628,0.15338 -1.43304,-1.37371 -2.02707,-2.16351 -0.38176,-0.50756 -0.45261,-1.27536 -0.97453,-1.63725 -1.17189,-0.81257 -2.80589,-1.00888 -4.21007,-0.76015 -0.78561,0.13915 -1.54462,0.60458 -2.06606,1.20845 -0.63631,0.73691 -0.17549,2.37935 -1.09152,2.70926 z"
         style="fill:#f29697;fill-opacity:1;stroke:none;stroke-width:0.28460371px;stroke-linecap:butt;stroke-linejoin:miter;stroke-opacity:1" />
      <path
         sodipodi:nodetypes="ccaacaaacaaac"
         inkscape:connector-curvature="0"
         id="path5500"
         d="m 235.16042,235.05547 c -1.50597,-4.81265 -2.32126,-10.37942 -5.33386,-14.44554 -1.8888,-2.44891 -5.4966,-3.42336 -6.93882,-6.15918 -1.16733,-2.21437 -0.0438,-5.11317 -0.93949,-7.45064 -1.12357,-2.93206 -5.36889,-7.74009 -5.36889,-7.74009 0,0 5.20084,-2.59951 8.0236,-2.74105 3.5446,-0.17773 6.82054,2.36529 10.36924,2.4169 4.05654,0.059 7.90018,-2.89803 11.92853,-2.4169 2.18883,0.26143 5.98986,2.80281 5.98986,2.80281 0,0 -4.41905,5.56204 -5.36615,8.89183 -0.6328,2.22484 0.93116,4.85747 -0.078,6.93882 -1.20938,2.49437 -4.82798,2.99091 -6.47103,5.2236 -3.11946,4.23899 -5.815,14.67944 -5.815,14.67944 z"
         style="fill:#f39b99;fill-opacity:1;stroke:none;stroke-width:0.28460371px;stroke-linecap:butt;stroke-linejoin:miter;stroke-opacity:1" />
      <path
         sodipodi:nodetypes="accccccccccccaaaccccassaaaaaaacaaaaacccccccccccca"
         inkscape:connector-curvature="0"
         id="path5502"
         d="m 234.97904,262.81714 c -1.30038,-0.0241 -3.18077,2.25987 -3.18077,2.25987 l 0.16206,-2.79069 2.39811,-2.01221 -0.85451,-1.7917 -0.56508,-3.735 -0.20672,-5.4302 -0.7718,-9.26168 2.03977,-1.87439 0.11026,-1.37823 -0.77181,-2.53593 1.98465,-2.59107 -1.37823,-6.33984 c 0,0 0.83983,-7.11593 -0.9372,-9.92323 -1.63504,-2.583 -5.87082,-2.38497 -7.88345,-4.68597 -1.51234,-1.72904 -1.2791,-4.53594 -2.70132,-6.33984 -0.87836,-1.11406 -3.418,-2.53594 -3.418,-2.53594 l -4.18981,1.54362 -1.98464,-1.43336 -3.14236,1.81926 c 0,0 1.28488,-2.40441 2.44182,-2.93407 1.13147,-0.51801 2.61772,0.62012 3.73263,0.0673 4.41267,-2.18776 2.3359,-1.38381 3.63852,-1.43336 1.80641,-0.0687 3.47892,0.99299 5.18213,1.59875 2.63319,0.93653 5.04245,2.54757 7.7732,3.14236 1.20421,0.26229 2.46387,0.24663 3.69364,0.16538 1.56461,-0.10337 3.11868,-0.41211 4.63085,-0.82694 3.63392,-0.99689 6.81659,-3.96078 10.58477,-3.96928 1.43028,-0.003 2.59581,1.41919 4.02443,1.48848 1.08184,0.0525 2.14146,-1.24088 3.14235,-0.82694 1.35301,0.55956 2.21739,3.79167 2.21739,3.79167 0,0 -1.86,-2.46038 -3.20972,-2.46857 -0.64316,-0.004 -0.91317,1.0304 -1.54361,1.1577 -2.00525,0.40495 -4.06686,-2.27837 -5.95394,-1.48847 -2.73568,1.14509 -2.57501,5.42466 -4.52057,7.66293 -0.90938,1.04618 -2.08865,1.83832 -3.25262,2.59107 -1.75292,1.13365 -5.56804,2.86671 -5.56804,2.86671 l -0.66155,14.2233 -0.3859,3.36287 0.27565,1.65386 0.9372,0.60642 -0.71669,3.80391 2.31543,1.37824 -0.38591,13.45147 -0.82694,4.85136 -1.26797,2.31543 2.48082,2.81159 0.2249,2.8433 c 0,0 -2.15188,-2.82105 -3.71142,-2.84999 z"
         style="fill:#ef8996;fill-opacity:1;stroke:none;stroke-width:0.28460371px;stroke-linecap:butt;stroke-linejoin:miter;stroke-opacity:1" />
      <path
         id="path5504"
         d="m 279.07932,188.57575 c -1.26633,0.009 -2.56782,0.34779 -3.64983,0.98167 -1.86331,1.09158 -2.38536,3.91102 -4.35521,4.79601 -1.53384,0.68911 -3.90537,-1.18187 -5.0445,0.0551 -1.13572,1.23322 1.53609,3.82392 0.35853,5.01726 -1.002,1.01543 -3.13874,-1.11446 -4.27238,-0.24848 -1.20148,0.91781 0.47932,3.90945 -0.93718,4.43805 -0.71278,0.26599 -1.17039,-0.98095 -1.81936,-1.378 -0.5048,-0.30881 -1.00697,-0.7635 -1.59868,-0.7721 -0.92535,-0.0141 -1.61209,1.18612 -2.53585,1.13007 -0.74869,-0.0454 -1.26495,-0.80936 -1.92941,-1.15731 -1.48271,-0.77641 -2.90327,-2.00929 -4.57592,-2.06781 -2.48695,-0.0869 -4.57934,2.01911 -7.00112,2.59143 -2.04209,0.4826 -4.16383,0.54737 -6.2574,0.68873 -1.45806,0.0984 -2.93259,0.28931 -4.383,0.11061 -1.57085,-0.19352 -3.08414,-0.73759 -4.57535,-1.26793 -1.5312,-0.54455 -2.87521,-1.62394 -4.46583,-1.9572 -1.04317,-0.21857 -2.19003,-0.34828 -3.19735,0 -1.55808,0.53869 -2.25005,2.88005 -3.8894,3.05449 -0.87329,0.0929 -1.49057,-1.1766 -2.36854,-1.15454 -1.23756,0.0312 -2.03688,2.03136 -3.25182,1.79378 -0.24364,-0.0477 -0.36156,-0.3552 -0.46859,-0.57921 -0.53044,-1.11069 0.2082,-2.86588 -0.77155,-3.61092 -1.09903,-0.83574 -3.16203,1.22804 -4.13509,0.24848 -0.68142,-0.68596 0.16838,-1.92782 0.19345,-2.8944 0.0162,-0.62465 0.4042,-1.4229 -0.0279,-1.87438 -1.18992,-1.24356 -3.62517,0.48606 -5.15455,-0.3035 -1.53899,-0.79453 -1.85917,-3.02275 -3.25237,-4.05171 -1.04171,-0.76936 -2.32283,-1.3053 -3.61148,-1.43359 -1.89558,-0.18871 -3.91033,0.18622 -5.62313,1.02002 -1.49221,0.7264 -2.7164,1.98694 -3.72098,3.30797 -0.99743,1.31161 -1.82483,2.82784 -2.17733,4.43748 -0.31457,1.43652 -0.18809,2.97078 0.11005,4.41079 0.36361,1.75598 1.00388,3.50607 2.01226,4.98891 0.78392,1.15277 1.91444,2.04747 3.03224,2.8805 0.91746,0.68372 2.27746,0.80302 2.97667,1.70874 0.26398,0.34194 0.39537,0.82232 0.33964,1.2507 -0.17423,1.33935 -1.60531,2.2254 -2.0267,3.50862 -0.22025,0.67076 -0.85173,1.76321 -0.23402,2.10507 0.84163,0.46578 1.44209,-2.29833 2.26072,-1.79322 0.5422,0.33454 -0.0796,1.31446 -0.38967,1.87105 -0.34887,0.62631 -1.83335,0.81896 -1.5592,1.48138 0.39763,0.96081 2.29848,0.56172 3.11841,-0.0778 0.76562,-0.59718 0.43218,-1.90052 0.77988,-2.80713 1.48321,-3.86732 5.53309,-11.12566 5.53309,-11.12566 0,0 -4.22571,0.43034 -6.23515,-0.10112 -1.20307,-0.31822 -2.5654,-0.7697 -3.27406,-1.79266 -1.15109,-1.66163 -1.57862,-4.1149 -0.8577,-6.00336 0.80253,-2.10223 3.00586,-3.71361 5.16512,-4.34688 1.50251,-0.44066 3.35852,-0.26907 4.65816,0.60422 1.00466,0.67508 0.70101,2.63623 1.79323,3.15788 0.97442,0.4654 2.30291,-1.13226 3.19678,-0.5264 1.22793,0.83226 -0.21641,3.43622 0.95498,4.34632 1.38088,1.07287 3.813,-1.18163 5.24293,-0.1751 1.06018,0.74628 -0.0136,3.21882 1.189,3.70319 1.49249,0.60112 2.64926,-2.46191 4.24905,-2.29018 0.85902,0.0922 1.12013,1.52157 1.96832,1.68594 1.11742,0.21658 2.11126,-1.2682 3.23571,-1.09172 1.8999,0.29821 3.41511,1.94711 4.63871,3.43082 1.40151,1.69943 1.42696,4.27912 2.84603,5.9639 1.82556,2.16739 5.58577,2.42234 6.93888,4.91218 0.60857,1.1198 0.0132,2.55343 0.15564,3.81992 0.37069,3.29623 1.47141,6.48554 1.81269,9.78492 0.0582,0.56239 0.0389,1.69539 0.0389,1.69539 0,0 -0.14728,0.66832 -0.38966,0.87717 -0.24001,0.2068 -0.73734,-0.009 -0.91606,0.25347 -0.1437,0.21031 -0.0272,0.52785 0.0779,0.75986 0.0512,0.11307 0.20627,0.15814 0.25348,0.27294 0.30669,0.74542 0.44214,1.6979 0.0777,2.4169 -0.25984,0.51279 -0.85082,1.03522 -1.42246,0.97445 -1.01454,-0.10788 -1.47642,-1.41822 -2.10505,-2.22181 -0.47529,-0.60754 -0.56681,-1.58577 -1.24737,-1.94887 -0.53894,-0.28755 -1.3849,-0.37716 -1.83215,0.0389 -0.30578,0.28446 -0.0192,0.84141 -0.11728,1.24736 -0.0657,0.27208 -0.41037,0.51734 -0.31184,0.77933 0.2926,0.77778 1.64979,0.52782 2.2218,1.13063 0.4845,0.51058 1.05375,1.25394 0.85771,1.92996 -0.11093,0.38248 -1.00874,0.26465 -0.9939,0.6626 0.0154,0.4099 1.10333,0.19525 1.07172,0.60422 -0.03,0.38737 -1.05278,0.0225 -1.09119,0.40912 -0.0401,0.40365 0.93912,0.24848 1.03281,0.64314 0.10369,0.43691 -0.82398,0.71807 -0.70149,1.15009 0.11729,0.41373 1.09168,0.15873 1.15007,0.58477 0.0444,0.32344 -0.74311,0.33683 -0.72151,0.6626 0.0263,0.39566 1.01887,0.28794 0.975,0.68203 -0.0474,0.42639 -1.17152,0.06 -1.19067,0.48861 -0.0249,0.55834 1.5071,0.21297 1.48805,0.77155 -0.0157,0.46061 -1.25126,0.0909 -1.26794,0.55142 -0.0157,0.43535 1.04816,0.18484 1.15788,0.60645 0.10348,0.39778 -0.79603,0.63948 -0.67483,1.03224 0.12755,0.41333 1.13737,0.0687 1.19846,0.49694 0.0359,0.25163 -0.56594,0.2249 -0.59422,0.4775 -0.0337,0.301 0.55993,0.40868 0.56531,0.71151 0.005,0.30206 -0.58362,0.43263 -0.53585,0.73097 0.0664,0.4139 1.01741,0.31181 1.02279,0.73095 0.005,0.43853 -1.09796,0.35319 -1.05225,0.78934 0.0467,0.4452 1.11072,0.13082 1.21845,0.56532 0.11492,0.4635 -0.88578,0.6629 -0.86771,1.14008 0.0232,0.61625 1.23986,0.76696 1.22792,1.38356 -0.009,0.43645 -0.91736,0.50913 -0.90606,0.94552 0.01,0.37448 0.78295,0.39694 0.81823,0.76987 0.0344,0.36355 -0.72005,0.5296 -0.64314,0.8866 0.0882,0.40967 0.98052,0.21968 1.09173,0.62369 0.0911,0.331 -0.59925,0.56595 -0.50695,0.89662 0.19436,0.69625 1.84908,0.34057 1.8905,1.06226 0.0616,1.073 -2.61899,1.11239 -2.61148,1.89105 0.0142,1.54598 0.23403,2.44582 0.23403,2.44582 l -0.63368,1.11116 1.2507,-0.61588 c 0,0 0.11174,-3.86924 3.2218,-4.23793 3.41797,0.74423 3.06891,3.18184 4.5481,5.09952 l 0.8816,-0.0272 -0.63368,-0.2757 -0.41356,-0.79934 c 0,0 -0.29988,-0.77665 -0.33075,-1.18566 -0.0571,-0.75685 0.83542,-1.74749 0.27572,-2.26016 -0.62706,-0.35025 -2.52126,0.98243 -2.46694,-1.59867 0.0545,-0.38381 0.24469,-0.6676 0.53752,-0.79934 0.50224,-0.22593 1.35453,0.69197 1.63759,0.21957 0.22844,-0.38127 -0.91531,-0.65837 -0.7799,-1.08172 0.11705,-0.36603 0.98502,-10e-4 1.09173,-0.3702 0.12195,-0.42157 -0.8532,-0.58517 -0.82881,-1.02335 0.0203,-0.36467 0.71828,-0.40988 0.77989,-0.76988 0.0878,-0.51266 -0.78037,-0.89282 -0.68205,-1.40357 0.0913,-0.4742 0.98094,-0.50011 1.07172,-0.97443 0.0918,-0.47945 -0.82152,-0.86134 -0.64314,-1.31573 0.12213,-0.3111 0.89315,-0.0293 0.93552,-0.36077 0.0537,-0.42027 -1.02203,-0.31683 -1.03279,-0.74041 -0.0115,-0.46458 1.06816,-0.403 1.09116,-0.86714 0.0154,-0.30746 -0.70099,-0.33771 -0.66259,-0.64314 0.0448,-0.35662 0.88282,-0.1809 0.93552,-0.53642 0.0458,-0.30915 -0.69348,-0.37361 -0.64314,-0.68205 0.0766,-0.469 1.23704,-0.1978 1.25737,-0.67258 0.0171,-0.3988 -0.99313,-0.25358 -1.0039,-0.6526 -0.0109,-0.41375 1.03078,-0.31794 1.0039,-0.73096 -0.0185,-0.28433 -0.71363,-0.12714 -0.75042,-0.40968 -0.0432,-0.33269 0.74839,-0.35645 0.73096,-0.69149 -0.0155,-0.29849 -0.69343,-0.24753 -0.7115,-0.54587 -0.0275,-0.45401 1.00004,-0.50086 0.97442,-0.95497 -0.019,-0.33737 -0.79179,-0.28586 -0.79932,-0.62368 -0.009,-0.42625 0.91529,-0.40667 0.97498,-0.82881 0.0469,-0.33185 -0.6289,-0.51058 -0.55585,-0.83768 0.0613,-0.2746 0.69634,-0.1584 0.72151,-0.43858 0.0312,-0.34608 -0.81796,-0.34668 -0.77989,-0.69205 0.0374,-0.33966 0.84381,-0.15934 0.89661,-0.49696 0.0572,-0.36554 -0.76094,-0.43879 -0.75986,-0.80878 0.001,-0.38142 0.61341,-0.49035 0.78933,-0.82879 0.18334,-0.35274 -0.0669,-0.90909 0.23347,-1.16956 0.35393,-0.30697 1.05622,0.2366 1.40356,-0.0778 0.62404,-0.56485 0.93697,-1.85526 0.38967,-2.49474 -0.60836,-0.71078 -1.97651,-0.43161 -2.80657,0 -1.34491,0.69934 -1.0964,3.69521 -2.61203,3.72264 -0.87177,0.0158 -1.42605,-1.22717 -1.57866,-2.08561 -0.14029,-0.78916 1.01417,-1.56135 0.70205,-2.29962 -0.16748,-0.39615 -1.0659,-0.0982 -1.14786,-0.58977 -0.27561,-1.65384 1.13214,-7.15478 1.51809,-10.75436 0.18889,-1.76186 -0.53089,-3.78721 0.38966,-5.30128 1.23648,-2.03378 4.34,-2.11935 6.08117,-3.74212 0.61992,-0.57775 1.09962,-1.30961 1.48138,-2.06614 0.60903,-1.20699 0.56537,-2.69208 1.24738,-3.8594 0.68655,-1.17509 1.6672,-2.2009 2.76766,-3.00167 0.82428,-0.5998 1.75812,-1.25092 2.7771,-1.28071 1.00625,-0.0294 1.81952,1.27326 2.81157,1.10228 0.91143,-0.15709 1.17132,-1.77396 2.09507,-1.81934 1.23751,-0.0609 1.86199,1.7431 3.03225,2.15009 0.66047,0.22966 1.54661,0.54512 2.0945,0.11061 0.98004,-0.77721 -0.30643,-2.9015 0.66148,-3.69373 1.30859,-1.07106 3.7702,1.18901 5.07229,0.11006 1.1189,-0.92716 -0.46202,-3.45012 0.71651,-4.30018 1.05606,-0.76176 2.73284,1.26043 3.85882,0.60645 0.98573,-0.57252 0.17816,-2.71907 1.21291,-3.19735 3.08117,-1.42422 8.83124,0.11011 9.59259,3.41802 0.8853,3.8464 1.3325,8.69122 -8.29409,8.45084 -3.75491,-0.0938 2.01655,7.25163 3.4108,10.73935 0.40771,1.01988 0.50791,2.38574 1.44247,2.96276 0.96198,0.59394 3.08478,1.04929 3.39134,-0.0389 0.17892,-0.63504 -1.27431,-0.52979 -1.67648,-1.0528 -0.48102,-0.62557 -1.36842,-1.83889 -0.70152,-2.26071 0.74612,-0.47193 1.13196,2.1266 1.94943,1.79322 0.68677,-0.28008 0.32147,-1.50949 0.11674,-2.22236 -0.24977,-0.8697 -1.24472,-1.37337 -1.55921,-2.22179 -0.27681,-0.7468 -0.56142,-1.65194 -0.23403,-2.378 0.94881,-2.10409 4.11093,-2.30206 5.6137,-4.05393 1.03165,-1.20265 1.69176,-2.71989 2.164,-4.23238 0.37295,-1.19452 0.50177,-2.46961 0.49639,-3.72097 -0.006,-1.42933 -0.0192,-2.94206 -0.60646,-4.24516 -0.79817,-1.7708 -2.18992,-3.31756 -3.77656,-4.43803 -1.68661,-1.19108 -3.72836,-2.06312 -5.78824,-2.20513 -0.17871,-0.0123 -0.3594,-0.018 -0.54031,-0.0167 z m -58.38546,11.20071 c 1.40539,0.031 2.6803,1.04989 4.01724,1.55087 2.36471,0.88609 4.59461,2.19295 7.05617,2.75655 1.38348,0.31676 2.82781,0.40441 4.24516,0.33073 1.82853,-0.0951 3.65991,-0.42998 5.40247,-0.99222 2.22561,-0.71808 4.16326,-2.14873 6.33966,-3.00445 0.53817,-0.21159 1.0775,-0.56586 1.65426,-0.52419 0.96729,0.0699 2.61869,1.2685 2.61869,1.2685 0,0 -2.86379,0.40653 -3.9422,1.26792 -0.77569,0.61959 -1.14378,1.6427 -1.51586,2.5631 -0.31154,0.77067 -0.27793,1.65085 -0.57865,2.4258 -0.31543,0.81284 -0.68691,1.63787 -1.26794,2.28794 -0.67619,0.75657 -1.59255,1.27383 -2.48083,1.76433 -1.43545,0.79265 -3.19015,0.95528 -4.5481,1.87437 -0.39281,0.26588 -0.74619,0.61429 -0.99278,1.01947 -0.42296,0.69497 -0.65897,1.51002 -0.77154,2.31575 -0.1731,1.23876 0.21987,2.49913 0.16565,3.74876 -0.0916,2.11097 -0.82714,6.28464 -0.82714,6.28464 0,0 -0.91221,-3.86952 -1.04725,-5.84385 -0.0922,-1.34864 0.26942,-2.70393 0.16511,-4.0517 -0.0657,-0.84977 0.0155,-1.82712 -0.4964,-2.50863 -1.40426,-1.86966 -4.31387,-1.88439 -6.2296,-3.22514 -1.14543,-0.80163 -2.30331,-1.68084 -3.08672,-2.8388 -1.00212,-1.48125 -0.77017,-3.63219 -1.90218,-5.0167 -0.81809,-1.00055 -2.00972,-1.82991 -3.28018,-2.06726 -0.80063,-0.14959 -2.398,0.46859 -2.398,0.46859 0,0 2.12669,-1.74964 3.41803,-1.84715 0.0949,-0.008 0.18924,-0.01 0.28293,-0.008 z m 14.57426,33.91176 c 0.46155,0.0118 0.91363,0.48792 1.02003,0.9372 0.0657,0.27732 -0.23123,0.52367 -0.30351,0.79933 -0.15558,0.59328 -0.24155,1.20696 -0.27571,1.81935 -0.0395,0.70693 -0.29265,1.52203 0.0828,2.1223 0.30956,0.49489 1.54438,0.24341 1.54364,0.82713 -0.001,0.80155 -1.32083,1.14099 -2.12229,1.13008 -0.85581,-0.0116 -2.25282,-0.41228 -2.23292,-1.26793 0.0151,-0.64908 1.37797,-0.34092 1.73652,-0.88217 0.36624,-0.55284 0.18624,-1.32307 0.13786,-1.98445 -0.0439,-0.60035 -0.26912,-1.17377 -0.38577,-1.76431 -0.0614,-0.31121 -0.27504,-0.63943 -0.16565,-0.93719 0.14403,-0.392 0.54748,-0.81005 0.96498,-0.79934 z m -0.12061,8.51531 a 2.3575356,0.76251823 0 0 1 2.35742,0.76266 2.3575356,0.76251823 0 0 1 -2.35742,0.76266 2.3575356,0.76251823 0 0 1 -2.35743,-0.76266 2.3575356,0.76251823 0 0 1 2.35743,-0.76266 z m 0.0389,3.15788 a 1.6168751,0.85997355 0 0 1 1.61701,0.85994 1.6168751,0.85997355 0 0 1 -1.61701,0.85992 1.6168751,0.85997355 0 0 1 -1.61646,-0.85992 1.6168751,0.85997355 0 0 1 1.61646,-0.85994 z m 0.0978,2.92332 a 1.6168752,0.76251823 0 0 1 1.61646,0.76264 1.6168752,0.76251823 0 0 1 -1.61646,0.76265 1.6168752,0.76251823 0 0 1 -1.61702,-0.76265 1.6168752,0.76251823 0 0 1 1.61702,-0.76264 z m 0,2.51474 a 1.6168751,0.85997355 0 0 1 1.61646,0.85992 1.6168751,0.85997355 0 0 1 -1.61646,0.85994 1.6168751,0.85997355 0 0 1 -1.61702,-0.85994 1.6168751,0.85997355 0 0 1 1.61702,-0.85992 z m -0.0978,2.58256 a 1.577893,0.95742887 0 0 1 1.5781,0.95718 1.577893,0.95742887 0 0 1 -1.5781,0.95721 1.577893,0.95742887 0 0 1 -1.57756,-0.95721 1.577893,0.95742887 0 0 1 1.57756,-0.95718 z m 0.11617,2.46748 a 1.5778931,1.2790313 0 0 1 1.57811,1.27906 1.5778931,1.2790313 0 0 1 -1.57811,1.27905 1.5778931,1.2790313 0 0 1 -1.57754,-1.27905 1.5778931,1.2790313 0 0 1 1.57754,-1.27906 z"
         style="opacity:1;fill:#d1616f;fill-opacity:1;stroke:none;stroke-width:0.28460371px;stroke-linecap:butt;stroke-linejoin:miter;stroke-opacity:1"
         inkscape:connector-curvature="0" />
      <path
         sodipodi:nodetypes="ccssaaaaaaaaaaaaaaasc"
         inkscape:connector-curvature="0"
         id="path5596"
         d="m 219.69333,211.07657 0.09,-2.62825 c 0,0 -3.23436,0.8816 -4.22425,2.10423 -1.20399,1.48706 -1.27833,3.48648 -4.75582,4.21006 -1.74186,0.36243 -0.83073,-1.92381 -1.48132,-2.72874 -0.45184,-0.55902 -1.15618,-0.86929 -1.63724,-1.40336 -0.88774,-0.98554 -1.10772,-2.61924 -2.26097,-3.2745 -1.17462,-0.6674 -2.71625,-0.0209 -4.04387,-0.27095 -1.6835,-0.31713 -3.21846,-1.8661 -4.90133,-1.54575 -2.51678,0.47909 -4.67604,2.63075 -5.968,4.8431 -0.83984,1.43816 -1.40206,3.3598 -0.83558,4.92593 0.49227,1.36098 2.32985,1.74853 3.29652,2.82564 0.73028,0.8137 0.88687,2.19564 1.85385,2.7059 1.19379,0.62994 2.6997,-0.0114 4.04941,0.004 1.19566,0.0136 2.40818,0.28215 3.58636,0.078 1.05464,-0.18273 2.00053,-0.76191 2.99966,-1.14582 0.83198,-0.31969 1.79852,-0.40662 2.49404,-0.96395 0.33543,-0.26879 0.34698,-0.85194 0.71586,-1.07257 1.44193,-0.8624 3.61894,0.44939 5.01729,-0.48197 1.74182,-1.16014 1.367,-4.1813 2.96264,-5.53546 1.54569,-1.31179 3.04273,-0.64545 3.04273,-0.64545 z"
         style="fill:#f09696;fill-opacity:1;stroke:none;stroke-width:0.28460371px;stroke-linecap:butt;stroke-linejoin:miter;stroke-opacity:1" />
      <path
         sodipodi:nodetypes="ccssaaaaaaaaaaaaaaasc"
         inkscape:connector-curvature="0"
         id="path5596-1"
         d="m 250.84697,211.07657 -0.09,-2.62825 c 0,0 3.23435,0.8816 4.22424,2.10423 1.20399,1.48706 1.27833,3.48648 4.75583,4.21006 1.74187,0.36243 0.83074,-1.92381 1.48132,-2.72874 0.45183,-0.55902 1.15618,-0.86929 1.63725,-1.40336 0.88774,-0.98554 1.10772,-2.61924 2.26097,-3.2745 1.17461,-0.6674 2.71624,-0.0209 4.04386,-0.27095 1.68349,-0.31713 3.21846,-1.8661 4.90134,-1.54575 2.51676,0.47909 4.67603,2.63075 5.96799,4.8431 0.83985,1.43816 1.40206,3.3598 0.83558,4.92593 -0.49228,1.36098 -2.32986,1.74853 -3.29653,2.82564 -0.73027,0.8137 -0.88686,2.19564 -1.85384,2.7059 -1.1938,0.62994 -2.69969,-0.0114 -4.04941,0.004 -1.19565,0.0136 -2.40818,0.28215 -3.58636,0.078 -1.05463,-0.18273 -2.00053,-0.76191 -2.99966,-1.14582 -0.83197,-0.31969 -1.79852,-0.40662 -2.49404,-0.96395 -0.33544,-0.26879 -0.34698,-0.85194 -0.71587,-1.07257 -1.44191,-0.8624 -3.61894,0.44939 -5.01728,-0.48197 -1.74182,-1.16014 -1.36701,-4.1813 -2.96263,-5.53546 -1.54569,-1.31179 -3.04273,-0.64545 -3.04273,-0.64545 z"
         style="fill:#f09696;fill-opacity:1;stroke:none;stroke-width:0.28460371px;stroke-linecap:butt;stroke-linejoin:miter;stroke-opacity:1" />
      <path
         sodipodi:nodetypes="aaaascaaacaaaaacaaaa"
         inkscape:connector-curvature="0"
         id="path5613"
         d="m 194.58038,217.44178 c -0.66,-1.11147 -2.78046,-0.59314 -3.50205,-1.66563 -0.75562,-1.1231 -0.59778,-2.75035 -0.2339,-4.05415 0.42731,-1.53107 1.39805,-3.01907 2.70037,-3.93049 1.28312,-0.89799 3.03814,-1.68126 4.54949,-1.17339 2.80185,0.94148 3.85336,2.38459 3.85336,2.38459 0,0 0.4325,-1.24652 0.98125,-1.41282 0.88213,-0.2673 1.92747,0.35539 2.57282,1.01354 0.67933,0.69281 0.8419,1.77377 1.01353,2.72876 0.17928,0.99755 0,3.0406 0,3.0406 0,0 0.32705,-3.41288 1.48132,-3.19654 1.61247,0.30222 0.69945,3.31765 0.31186,4.91175 -0.2148,0.88348 -0.69228,1.77234 -1.40336,2.33894 -0.98339,0.78357 -2.35993,0.89203 -3.58635,1.16945 -0.58795,0.133 -1.35211,0.64475 -1.79318,0.2339 -0.32384,-0.30165 0.078,-1.32539 0.078,-1.32539 0,0 -0.96026,1.22811 -1.63725,1.55928 -0.94423,0.46189 -2.10078,0.73048 -3.11858,0.46778 -0.95122,-0.24552 -1.92868,-0.90052 -2.33892,-1.79318 -0.18081,-0.39344 0.29267,-0.92471 0.0716,-1.297 z"
         style="fill:#f7b6b4;fill-opacity:1;stroke:none;stroke-width:0.28460371px;stroke-linecap:butt;stroke-linejoin:miter;stroke-opacity:1" />
      <path
         sodipodi:nodetypes="aaaascaaacaaaaacaaaa"
         inkscape:connector-curvature="0"
         id="path5613-5"
         d="m 276.36155,217.54394 c 0.66,-1.11147 2.78046,-0.59312 3.50205,-1.66563 0.75562,-1.12309 0.59777,-2.75033 0.2339,-4.05413 -0.42733,-1.53107 -1.39805,-3.01909 -2.70037,-3.93052 -1.28312,-0.89797 -3.03814,-1.68123 -4.5495,-1.17338 -2.80186,0.94148 -3.85335,2.3846 -3.85335,2.3846 0,0 -0.43251,-1.24653 -0.98125,-1.41281 -0.88213,-0.26732 -1.92747,0.35539 -2.57282,1.01353 -0.67933,0.69281 -0.8419,1.77375 -1.01354,2.72876 -0.17928,0.99756 0,3.0406 0,3.0406 0,0 -0.32706,-3.41287 -1.48132,-3.19653 -1.61246,0.30221 -0.69944,3.31764 -0.31185,4.91175 0.2148,0.88347 0.69227,1.77233 1.40336,2.33892 0.98339,0.78359 2.35992,0.89205 3.58635,1.16946 0.58793,0.133 1.3521,0.64474 1.79318,0.23389 0.32384,-0.30165 -0.078,-1.3254 -0.078,-1.3254 0,0 0.96026,1.22813 1.63725,1.55929 0.94424,0.46189 2.10079,0.7305 3.11858,0.46779 0.95123,-0.24552 1.92868,-0.90052 2.33892,-1.79317 0.18082,-0.39345 -0.29266,-0.92472 -0.0716,-1.29702 z"
         style="fill:#f7b6b4;fill-opacity:1;stroke:none;stroke-width:0.28460371px;stroke-linecap:butt;stroke-linejoin:miter;stroke-opacity:1" />
      <path
         sodipodi:nodetypes="cccc"
         inkscape:connector-curvature="0"
         id="path5727"
         d="m 183.90208,157.94699 35.83661,81.01067 59.07518,-67.93189 z"
         style="fill:#ffba95;fill-opacity:1;stroke:none;stroke-width:1.23032677;stroke-linecap:butt;stroke-linejoin:miter;stroke-miterlimit:4;stroke-dasharray:none;stroke-opacity:1" />
      <ellipse
         transform="rotate(1.3361523)"
         ry="48.629852"
         rx="54.419117"
         cy="136.24942"
         cx="238.33591"
         id="path5725"
         style="opacity:1;fill:#ffccaa;fill-opacity:1;stroke:none;stroke-width:0.9984268;stroke-linecap:round;stroke-miterlimit:4;stroke-dasharray:none;stroke-opacity:1" />
      <path
         sodipodi:nodetypes="aacasacaa"
         inkscape:connector-curvature="0"
         id="path4496-6"
         d="m 236.94028,174.99406 c 6.20613,-0.51808 11.11197,-7.17073 13.48901,-12.92696 1.52591,-3.69517 -0.28102,-11.99022 -0.28102,-11.99022 0,0 -3.3503,-0.093 -4.95899,0.30018 -3.21697,0.78613 -6.37098,4.05185 -9.07599,4.04094 -3.84815,-0.0146 -4.48703,-4.16236 -7.34258,-4.63684 -2.47894,-0.4119 -7.33341,1.74765 -7.33341,1.74765 0,0 -0.52674,10.20238 2.01398,14.28523 2.87357,4.61771 8.06904,9.63245 13.489,9.18002 z"
         style="fill:#f9c5b3;fill-opacity:1;stroke:none;stroke-width:0.48358998px;stroke-linecap:butt;stroke-linejoin:miter;stroke-opacity:1" />
      <path
         sodipodi:nodetypes="aaaaasssa"
         inkscape:connector-curvature="0"
         id="path4498-0"
         d="m 207.23381,128.64998 c -3.33917,-3.67518 -0.63597,-10.76341 2.38454,-14.70468 5.42196,-7.0748 15.49437,-10.2342 24.3753,-10.99538 6.86154,-0.5881 13.99949,1.7936 20.00365,5.16651 1.87858,1.05532 3.13382,2.95998 4.63661,4.50413 1.04621,1.07502 2.31709,2.0013 3.0469,3.31186 0.74252,1.33336 0.601,1.85061 1.2688,3.41161 0.69642,1.62793 2.16865,4.29821 1.24822,5.59666 -11.00419,15.52355 -44.16828,17.7927 -56.96402,3.70929 z"
         style="fill:#c9513e;fill-opacity:1;stroke:none;stroke-width:0.48358998px;stroke-linecap:butt;stroke-linejoin:miter;stroke-opacity:1" />
      <path
         sodipodi:nodetypes="aaaacaa"
         inkscape:connector-curvature="0"
         id="path4559-9-4-6"
         d="m 213.37639,123.72262 c -0.23959,-13.30875 13.40588,-18.60794 21.58713,-19.04061 8.9179,-0.4717 24.61028,3.71981 24.30984,18.22473 -0.22903,11.05526 -12.26105,11.68766 -19.06103,11.83055 -1.86752,0.0338 -5.2847,-3.02819 -5.2847,-3.02819 0,0 -3.47,4.24313 -5.49984,4.25203 -5.90909,0.023 -15.87843,-2.63095 -16.0514,-12.23851 z"
         style="fill:url(#radialGradient4567-8-8-7);fill-opacity:1;stroke:url(#radialGradient4834-5);stroke-width:2.33530903px;stroke-linecap:butt;stroke-linejoin:miter;stroke-opacity:1" />
      <path
         sodipodi:nodetypes="sssaasssaasas"
         inkscape:connector-curvature="0"
         id="path4500-2"
         d="m 236.28458,154.85422 c 2.69126,0.0477 4.01903,-1.89312 6.57541,-2.92974 2.11619,-0.85814 5.50168,-0.6901 7.37059,-1.90345 3.88694,-2.52352 7.26352,-6.09014 9.50453,-10.14654 2.50689,-4.53768 4.12051,-9.86136 3.94898,-15.04265 -0.0743,-2.2422 -0.63336,-4.71632 -2.13574,-6.3824 -6.44956,-7.15235 -16.54568,-10.33319 -26.49491,-9.93558 -10.40725,0.4159 -22.27737,4.05137 -27.15726,13.3799 -1.60959,3.07698 -1.99491,6.92577 -1.32475,10.33304 0.65643,3.33738 2.99256,6.15523 5.03403,8.87576 2.84861,3.79617 5.87023,6.95273 9.92787,10.20619 1.23192,0.98779 3.7458,-0.34553 5.57164,-0.006 3.22544,0.60046 5.89928,3.49286 9.17961,3.55111 z"
         style="fill:#b43951;fill-opacity:1;stroke:none;stroke-width:0.48358998px;stroke-linecap:butt;stroke-linejoin:miter;stroke-opacity:1" />
      <path
         sodipodi:nodetypes="aaaacaa"
         inkscape:connector-curvature="0"
         id="path4559-9-6"
         d="m 211.42854,134.01462 c -0.23959,13.30876 13.40587,18.60795 21.58713,19.04061 8.91787,0.4717 24.61026,-3.7198 24.30981,-18.22472 -0.22903,-11.05526 -12.26106,-11.68766 -19.06101,-11.83056 -1.86753,-0.0338 -5.28472,3.02819 -5.28472,3.02819 0,0 -3.46998,-4.24313 -5.49981,-4.25203 -5.90911,-0.023 -15.87844,2.63095 -16.0514,12.23851 z"
         style="fill:url(#radialGradient4567-8-6);fill-opacity:1;stroke:none;stroke-width:2.33530879px;stroke-linecap:butt;stroke-linejoin:miter;stroke-opacity:1" />
      <path
         sodipodi:nodetypes="ccaaaaaaaaaaaaaaaaaaaaaaaaaaaaaaaaaaaac"
         inkscape:connector-curvature="0"
         id="path4502-3-1"
         d="m 238.49469,180.40549 -1.70396,0.27381 c 0,0 -1.06193,-8.9914 -1.84902,-13.45128 -0.20876,-1.18301 -0.65322,-2.33045 -0.76133,-3.52541 -0.30149,-3.3323 0.32843,-6.68414 0.32631,-10.02858 -7e-4,-1.073 0.27943,-2.20886 -0.10886,-3.21732 -0.68213,-1.77185 -2.09805,-3.32146 -3.69799,-4.44954 -1.76028,-1.24111 -4.19619,-1.30375 -6.12706,-2.29323 -1.21121,-0.62071 -2.44026,-1.30002 -3.37169,-2.25899 -1.14586,-1.17969 -1.44837,-2.94461 -2.57409,-4.14148 -1.1282,-1.1995 -3.01621,-1.64394 -4.06054,-2.90932 -1.08159,-1.31055 -1.9759,-2.92727 -2.06651,-4.58645 -0.0697,-1.27582 0.91291,-2.41312 1.19641,-3.66228 0.22704,-1.00045 -0.16923,-2.1749 0.39879,-3.04624 0.7396,-1.13454 2.74576,-1.109 3.51672,-2.22478 0.41575,-0.60168 -0.1806,-1.65632 0.3988,-2.12207 1.18711,-0.95424 3.55555,0.95436 4.67687,-0.0684 0.52213,-0.47624 -0.42552,-1.58957 0.10876,-2.05363 1.86871,-1.62307 5.35506,1.33538 7.61351,0.23958 0.50381,-0.24444 0.38122,-1.26365 0.94262,-1.33486 0.36507,-0.0462 0.4858,0.57077 0.83387,0.68455 1.16619,0.38128 2.4824,0.0302 3.69798,-0.17108 0.9714,-0.16084 1.84235,-0.85677 2.82787,-0.82146 1.45316,0.0521 2.61328,1.37179 4.0605,1.50599 1.62547,0.15079 3.22315,-1.13668 4.82192,-0.82145 1.42392,0.28075 2.24492,1.8605 3.62547,2.29322 1.35515,0.42475 3.17417,-0.64964 4.27805,0.20536 0.91546,0.70907 -0.0191,2.51276 0.87012,3.25157 0.30148,0.25064 0.92521,-0.14274 1.1964,0.1369 1.02032,1.05266 -0.45556,2.96906 0.14512,4.2784 0.10181,0.22211 0.4697,0.28172 0.54383,0.51341 0.56684,1.77132 -0.25746,3.79962 -1.16016,5.44212 -0.88188,1.60459 -2.98116,2.37782 -3.95175,3.93611 -0.67423,1.08247 -0.45384,2.55207 -1.19642,3.59386 -0.85776,1.2035 -2.25644,1.99397 -3.55296,2.7724 -2.33552,1.40219 -5.32138,1.74839 -7.50475,3.35428 -1.33414,0.98126 -2.68754,2.18316 -3.22668,3.69654 -1.52674,4.28577 0.45054,9.03394 0.58009,13.55397 0.16669,5.81698 0.25375,17.45573 0.25375,17.45573 z"
         style="fill:#ffd0cc;fill-opacity:1;stroke:none;stroke-width:0.51436704px;stroke-linecap:butt;stroke-linejoin:miter;stroke-opacity:1" />
      <path
         sodipodi:nodetypes="ccaaaaaaaaaaaaaaaaaaaaaaaaaaaaaaaaaaaac"
         inkscape:connector-curvature="0"
         id="path4502-8"
         d="m 238.23284,179.35459 -1.55659,0.26495 c 0,0 -0.97006,-8.70018 -1.68905,-13.01562 -0.1907,-1.1447 -0.59671,-2.25498 -0.69547,-3.41123 -0.27542,-3.22438 0.29999,-6.46765 0.29806,-9.70375 -6.2e-4,-1.03826 0.25527,-2.13735 -0.0994,-3.11315 -0.6231,-1.71445 -1.91656,-3.21388 -3.3781,-4.30542 -1.608,-1.20092 -3.8332,-1.26151 -5.59704,-2.21895 -1.10645,-0.6006 -2.22918,-1.25793 -3.08004,-2.18582 -1.04675,-1.14149 -1.32308,-2.84926 -2.35142,-4.00736 -1.03061,-1.16065 -2.7553,-1.59068 -3.7093,-2.81508 -0.98802,-1.26811 -1.80498,-2.83248 -1.88775,-4.43791 -0.0636,-1.23449 0.83395,-2.33498 1.09292,-3.54368 0.2074,-0.96803 -0.15459,-2.10444 0.3643,-2.94757 0.67562,-1.09777 2.50824,-1.07308 3.21251,-2.1527 0.37979,-0.58222 -0.16497,-1.6027 0.36431,-2.05335 1.08442,-0.92335 3.24797,0.92345 4.27229,-0.0661 0.47697,-0.4608 -0.38871,-1.5381 0.0994,-1.98712 1.70705,-1.5705 4.89183,1.29213 6.9549,0.23183 0.46023,-0.23652 0.34825,-1.22274 0.86109,-1.29162 0.33348,-0.0448 0.44377,0.55227 0.76173,0.66237 1.06531,0.36893 2.26768,0.0293 3.3781,-0.16559 0.88737,-0.15573 1.68297,-0.82901 2.58325,-0.79485 1.32747,0.0504 2.38721,1.32738 3.70927,1.45722 1.48484,0.14585 2.94434,-1.09986 4.4048,-0.79485 1.30076,0.27166 2.05071,1.80025 3.31186,2.21896 1.23791,0.41098 2.89958,-0.6286 3.90798,0.19871 0.83627,0.68609 -0.0164,2.43137 0.79485,3.14625 0.2754,0.24252 0.84519,-0.13817 1.09291,0.13251 0.93204,1.01856 -0.41617,2.8729 0.13252,4.13984 0.093,0.2149 0.42905,0.27261 0.49678,0.49678 0.51782,1.71396 -0.23519,3.67656 -1.05979,5.26585 -0.8056,1.55265 -2.72328,2.30081 -3.60992,3.80865 -0.6159,1.04738 -0.4146,2.46939 -1.09292,3.47746 -0.78358,1.16449 -2.06126,1.92938 -3.24563,2.6826 -2.13348,1.35678 -4.86106,1.69175 -6.85556,3.24563 -1.21873,0.94949 -2.45507,2.11246 -2.94755,3.57681 -1.3947,4.14699 0.41155,8.74136 0.52989,13.11499 0.15225,5.62858 0.2318,16.89038 0.2318,16.89038 z"
         style="fill:#942f32;fill-opacity:1;stroke:none;stroke-width:0.48358998px;stroke-linecap:butt;stroke-linejoin:miter;stroke-opacity:1" />
      <path
         sodipodi:nodetypes="caaaaaaaaaaaaaaaaac"
         inkscape:connector-curvature="0"
         id="path4504-7"
         d="m 248.69832,135.93607 c -0.98945,0.3433 -1.56488,1.54393 -2.58326,1.78841 -0.80157,0.19244 -1.6268,-0.30642 -2.45078,-0.33118 -2.67772,-0.0804 -5.35138,0.30718 -8.01469,0.59613 -2.17298,0.23576 -4.36532,1.43502 -6.49126,0.92732 -2.09711,-0.5008 -3.43452,-2.62648 -5.29898,-3.70929 -1.16152,-0.67458 -3.21717,-0.44827 -3.64305,-1.72217 -0.61686,-1.84521 1.81431,-3.44234 2.71573,-5.1665 1.153,-2.20537 1.35655,-5.26941 3.44433,-6.62374 2.48652,-1.61298 5.91751,-0.71173 8.8758,-0.5299 2.30815,0.14184 4.91485,-0.0487 6.82243,1.25851 0.83403,0.57154 0.74954,2.02078 1.58969,2.58326 2.75083,1.84164 8.58076,-1.48676 9.80312,1.5897 0.48266,1.21477 -2.22725,1.8155 -2.38453,3.11315 -0.0929,0.76559 1.17403,1.38895 0.92733,2.1196 -0.21817,0.64613 -1.50219,0.37463 -1.78841,0.99363 -0.42528,0.91967 1.21378,2.17745 0.59612,2.98067 -0.43152,0.56117 -1.45079,-0.0996 -2.11959,0.13233 z"
         style="fill:url(#radialGradient4516-2);fill-opacity:1;stroke:none;stroke-width:0.48358998px;stroke-linecap:butt;stroke-linejoin:miter;stroke-opacity:1" />
      <path
         inkscape:connector-curvature="0"
         id="path4526-92"
         d="m 235.9193,168.03955 0.92732,-10.79665 -0.99356,-9.53818 -1.19227,9.73689 z"
         style="fill:#7f2528;fill-opacity:1;stroke:none;stroke-width:0.48358998px;stroke-linecap:butt;stroke-linejoin:miter;stroke-opacity:1" />
      <path
         inkscape:connector-curvature="0"
         id="path4526-9-0"
         d="m 236.01562,165.87829 0.831,-8.63539 -0.89034,-7.62883 -1.06843,7.78777 z"
         style="fill:url(#radialGradient4557-2);fill-opacity:1;stroke:none;stroke-width:0.40940869px;stroke-linecap:butt;stroke-linejoin:miter;stroke-opacity:1" />
      <path
         sodipodi:nodetypes="aaaacaa"
         inkscape:connector-curvature="0"
         id="path4559-2"
         d="m 229.8207,143.42087 c -0.0633,2.16091 3.5405,3.02132 5.70118,3.09158 2.3552,0.0765 6.49957,-0.60398 6.42023,-2.9591 -0.0605,-1.79501 -3.23815,-1.89769 -5.03402,-1.92089 -0.49322,-0.006 -1.3957,0.49168 -1.3957,0.49168 0,0 -0.91642,-0.68894 -1.4525,-0.69039 -1.5606,-0.004 -4.19351,0.42718 -4.23919,1.98712 z"
         style="fill:url(#radialGradient4567-9);fill-opacity:1;stroke:none;stroke-width:0.48358998px;stroke-linecap:butt;stroke-linejoin:miter;stroke-opacity:1" />
      <ellipse
         transform="rotate(7.5729084)"
         ry="0.39742345"
         rx="1.7636086"
         cy="129.64894"
         cx="246.72505"
         id="path4614-8-37"
         style="opacity:1;fill:#c28d7d;fill-opacity:1;stroke:none;stroke-width:0.71583152;stroke-linecap:round;stroke-miterlimit:4;stroke-dasharray:none;stroke-opacity:1" />
      <ellipse
         transform="rotate(7.5729084)"
         ry="0.28033146"
         rx="1.5996796"
         cy="126.6748"
         cx="245.31995"
         id="path4614-8-4-5"
         style="opacity:1;fill:#c28d7d;fill-opacity:1;stroke:none;stroke-width:0.57257897;stroke-linecap:round;stroke-miterlimit:4;stroke-dasharray:none;stroke-opacity:1" />
      <ellipse
         transform="rotate(7.5729084)"
         ry="0.39742345"
         rx="1.7636086"
         cy="126.65139"
         cx="251.15115"
         id="path4614-8-8-9"
         style="opacity:1;fill:#c28d7d;fill-opacity:1;stroke:none;stroke-width:0.71583152;stroke-linecap:round;stroke-miterlimit:4;stroke-dasharray:none;stroke-opacity:1" />
      <ellipse
         transform="rotate(7.5729084)"
         ry="0.39742345"
         rx="1.7636086"
         cy="131.70973"
         cx="249.51186"
         id="path4614-8-1-2"
         style="opacity:1;fill:#c28d7d;fill-opacity:1;stroke:none;stroke-width:0.71583152;stroke-linecap:round;stroke-miterlimit:4;stroke-dasharray:none;stroke-opacity:1" />
      <ellipse
         transform="rotate(7.5729084)"
         ry="0.39742345"
         rx="1.7636086"
         cy="128.52481"
         cx="249.46501"
         id="path4614-8-0-2"
         style="opacity:1;fill:#c28d7d;fill-opacity:1;stroke:none;stroke-width:0.71583152;stroke-linecap:round;stroke-miterlimit:4;stroke-dasharray:none;stroke-opacity:1" />
      <ellipse
         transform="rotate(7.5729084)"
         ry="0.39742345"
         rx="1.7636086"
         cy="133.06798"
         cx="245.43704"
         id="path4614-8-3-8"
         style="opacity:1;fill:#c28d7d;fill-opacity:1;stroke:none;stroke-width:0.71583152;stroke-linecap:round;stroke-miterlimit:4;stroke-dasharray:none;stroke-opacity:1" />
      <ellipse
         transform="rotate(7.5729084)"
         ry="0.37400505"
         rx="1.4357508"
         cy="122.69363"
         cx="244.2193"
         id="path4614-8-04-9"
         style="opacity:1;fill:#c28d7d;fill-opacity:1;stroke:none;stroke-width:0.62655795;stroke-linecap:round;stroke-miterlimit:4;stroke-dasharray:none;stroke-opacity:1" />
      <ellipse
         transform="rotate(7.5729084)"
         ry="0.25691307"
         rx="1.3420771"
         cy="124.26271"
         cx="248.2941"
         id="path4614-8-44-7"
         style="opacity:1;fill:#c28d7d;fill-opacity:1;stroke:none;stroke-width:0.50207067;stroke-linecap:round;stroke-miterlimit:4;stroke-dasharray:none;stroke-opacity:1" />
      <ellipse
         transform="rotate(-6.3275664)"
         ry="0.39742345"
         rx="1.7636085"
         cy="185.6064"
         cx="221.78485"
         id="path4614-8-47-3"
         style="opacity:1;fill:#c28d7d;fill-opacity:1;stroke:none;stroke-width:0.71583158;stroke-linecap:round;stroke-miterlimit:4;stroke-dasharray:none;stroke-opacity:1" />
      <ellipse
         transform="rotate(-6.3275664)"
         ry="0.39742345"
         rx="1.7636085"
         cy="188.72806"
         cx="221.22282"
         id="path4614-8-6-6"
         style="opacity:1;fill:#c28d7d;fill-opacity:1;stroke:none;stroke-width:0.71583158;stroke-linecap:round;stroke-miterlimit:4;stroke-dasharray:none;stroke-opacity:1" />
      <ellipse
         transform="rotate(-6.3275664)"
         ry="0.28033143"
         rx="1.3186588"
         cy="182.72595"
         cx="222.13612"
         id="path4614-8-31-1"
         style="opacity:1;fill:#c28d7d;fill-opacity:1;stroke:none;stroke-width:0.51985848;stroke-linecap:round;stroke-miterlimit:4;stroke-dasharray:none;stroke-opacity:1" />
      <ellipse
         transform="rotate(-6.3275664)"
         ry="0.39742345"
         rx="1.7636085"
         cy="182.51517"
         cx="227.63943"
         id="path4614-8-7-2"
         style="opacity:1;fill:#c28d7d;fill-opacity:1;stroke:none;stroke-width:0.71583158;stroke-linecap:round;stroke-miterlimit:4;stroke-dasharray:none;stroke-opacity:1" />
      <ellipse
         transform="rotate(-6.3275664)"
         ry="0.30374986"
         rx="1.5528429"
         cy="186.07477"
         cx="228.50592"
         id="path4614-8-5-9"
         style="opacity:1;fill:#c28d7d;fill-opacity:1;stroke:none;stroke-width:0.58722532;stroke-linecap:round;stroke-miterlimit:4;stroke-dasharray:none;stroke-opacity:1" />
      <ellipse
         transform="rotate(-6.3275664)"
         ry="0.25691304"
         rx="1.4357508"
         cy="190.19641"
         cx="225.85963"
         id="path4614-8-9-3"
         style="opacity:1;fill:#c28d7d;fill-opacity:1;stroke:none;stroke-width:0.51929682;stroke-linecap:round;stroke-miterlimit:4;stroke-dasharray:none;stroke-opacity:1" />
      <ellipse
         transform="rotate(-6.3275664)"
         ry="0.39742345"
         rx="1.7636085"
         cy="184.20132"
         cx="225.43813"
         id="path4614-8-62-1"
         style="opacity:1;fill:#c28d7d;fill-opacity:1;stroke:none;stroke-width:0.71583158;stroke-linecap:round;stroke-miterlimit:4;stroke-dasharray:none;stroke-opacity:1" />
      <ellipse
         transform="rotate(-6.3275664)"
         ry="0.30374986"
         rx="1.388914"
         cy="179.04926"
         cx="228.85719"
         id="path4614-8-17-9"
         style="opacity:1;fill:#c28d7d;fill-opacity:1;stroke:none;stroke-width:0.55536526;stroke-linecap:round;stroke-miterlimit:4;stroke-dasharray:none;stroke-opacity:1" />
      <ellipse
         transform="rotate(-6.3275664)"
         ry="0.39742345"
         rx="1.7636085"
         cy="190.89897"
         cx="221.64433"
         id="path4614-8-85-4"
         style="opacity:1;fill:#c28d7d;fill-opacity:1;stroke:none;stroke-width:0.71583158;stroke-linecap:round;stroke-miterlimit:4;stroke-dasharray:none;stroke-opacity:1" />
      <ellipse
         transform="rotate(-6.3275664)"
         ry="0.39742345"
         rx="1.7636085"
         cy="188.55713"
         cx="228.57619"
         id="path4614-8-74-7"
         style="opacity:1;fill:#c28d7d;fill-opacity:1;stroke:none;stroke-width:0.71583158;stroke-linecap:round;stroke-miterlimit:4;stroke-dasharray:none;stroke-opacity:1" />
      <ellipse
         transform="rotate(-6.3275664)"
         ry="0.21007624"
         rx="1.3420773"
         cy="195.72316"
         cx="221.92535"
         id="path4614-8-18-8"
         style="opacity:1;fill:#c28d7d;fill-opacity:1;stroke:none;stroke-width:0.45400462;stroke-linecap:round;stroke-miterlimit:4;stroke-dasharray:none;stroke-opacity:1" />
      <ellipse
         transform="rotate(7.5729084)"
         ry="0.39742345"
         rx="1.7636086"
         cy="136.06557"
         cx="249.55867"
         id="path4614-8-59-4"
         style="opacity:1;fill:#c28d7d;fill-opacity:1;stroke:none;stroke-width:0.71583152;stroke-linecap:round;stroke-miterlimit:4;stroke-dasharray:none;stroke-opacity:1" />
      <ellipse
         transform="rotate(7.5729084)"
         ry="0.39742345"
         rx="1.7636086"
         cy="140.14035"
         cx="252.27522"
         id="path4614-8-75-5"
         style="opacity:1;fill:#c28d7d;fill-opacity:1;stroke:none;stroke-width:0.71583152;stroke-linecap:round;stroke-miterlimit:4;stroke-dasharray:none;stroke-opacity:1" />
      <ellipse
         transform="rotate(7.5729084)"
         ry="0.25691307"
         rx="1.2718219"
         cy="138.03268"
         cx="251.87712"
         id="path4614-8-38-0"
         style="opacity:1;fill:#c28d7d;fill-opacity:1;stroke:none;stroke-width:0.48875278;stroke-linecap:round;stroke-miterlimit:4;stroke-dasharray:none;stroke-opacity:1" />
      <ellipse
         transform="rotate(7.5729084)"
         ry="0.25691307"
         rx="1.3420771"
         cy="134.6136"
         cx="250.54227"
         id="path4614-8-44-8-3"
         style="opacity:1;fill:#c28d7d;fill-opacity:1;stroke:none;stroke-width:0.50207067;stroke-linecap:round;stroke-miterlimit:4;stroke-dasharray:none;stroke-opacity:1" />
      <ellipse
         transform="rotate(-6.3275664)"
         ry="0.25691304"
         rx="1.3420773"
         cy="187.05833"
         cx="224.73555"
         id="path4614-8-44-3-6"
         style="opacity:1;fill:#c28d7d;fill-opacity:1;stroke:none;stroke-width:0.50207067;stroke-linecap:round;stroke-miterlimit:4;stroke-dasharray:none;stroke-opacity:1" />
      <ellipse
         transform="rotate(-6.3275664)"
         ry="0.21007624"
         rx="1.3420773"
         cy="191.93578"
         cx="225.97691"
         id="path4614-8-18-1-1"
         style="opacity:1;fill:#c28d7d;fill-opacity:1;stroke:none;stroke-width:0.45400462;stroke-linecap:round;stroke-miterlimit:4;stroke-dasharray:none;stroke-opacity:1" />
    </g>
  </g>
</svg>
