<?xml version="1.0" encoding="UTF-8" standalone="no"?>
<!-- Created with Inkscape (http://www.inkscape.org/) -->

<svg
   xmlns:dc="http://purl.org/dc/elements/1.1/"
   xmlns:cc="http://creativecommons.org/ns#"
   xmlns:rdf="http://www.w3.org/1999/02/22-rdf-syntax-ns#"
   xmlns:svg="http://www.w3.org/2000/svg"
   xmlns="http://www.w3.org/2000/svg"
   xmlns:sodipodi="http://sodipodi.sourceforge.net/DTD/sodipodi-0.dtd"
   xmlns:inkscape="http://www.inkscape.org/namespaces/inkscape"
   width="131.68504mm"
   height="187.78081mm"
   viewBox="0 0 131.68504 187.78081"
   version="1.1"
   id="svg4940"
   inkscape:version="0.92+devel unknown"
   sodipodi:docname="vagina.svg">
  <defs
     id="defs4934" />
  <sodipodi:namedview
     id="base"
     pagecolor="#ffffff"
     bordercolor="#666666"
     borderopacity="1.0"
     inkscape:pageopacity="0.0"
     inkscape:pageshadow="2"
     inkscape:zoom="0.54842109"
     inkscape:cx="191.49719"
     inkscape:cy="427.0845"
     inkscape:document-units="mm"
     inkscape:current-layer="layer1"
     showgrid="false"
     inkscape:window-width="1366"
     inkscape:window-height="740"
     inkscape:window-x="0"
     inkscape:window-y="0"
     inkscape:window-maximized="1"
     inkscape:document-rotation="0"
     fit-margin-top="0"
     fit-margin-left="0"
     fit-margin-right="0"
     fit-margin-bottom="0" />
  <metadata
     id="metadata4937">
    <rdf:RDF>
      <cc:Work
         rdf:about="">
        <dc:format>image/svg+xml</dc:format>
        <dc:type
           rdf:resource="http://purl.org/dc/dcmitype/StillImage" />
        <dc:title></dc:title>
      </cc:Work>
    </rdf:RDF>
  </metadata>
  <g
     inkscape:label="Capa 1"
     inkscape:groupmode="layer"
     id="layer1"
     transform="translate(-23.485956,-56.170728)">
    <g
       id="g110"
       transform="matrix(1.0871342,0,0,1.1369378,15.079014,13.204911)"
       inkscape:export-xdpi="90"
       inkscape:export-ydpi="90">
      <g
         id="g4538">
        <path
           style="fill:#f8b7b5;fill-opacity:1;stroke:none;stroke-width:0.26458332px;stroke-linecap:butt;stroke-linejoin:miter;stroke-opacity:1"
           d="m 58.692902,199.8829 c -1.699501,-0.0863 -4.203121,2.8975 -4.203121,2.8975 0,0 -3.38224,0.62783 -3.309548,-0.50114 0.163697,-2.54252 1.424109,-4.03688 1.772549,-6.13768 0.23508,-1.41729 0.359061,-2.87672 0.20501,-4.30509 -0.25418,-2.35672 -1.84504,-6.86764 -1.84504,-6.86764 0,0 -3.33035,-5.72347 -3.895079,-8.91767 -0.379262,-2.14517 -0.02479,-4.38697 0.403788,-6.52282 0.3086,-1.53779 1.25856,-2.9026 1.543751,-4.4449 0.127889,-0.69163 0.296939,-1.44456 0.0663,-2.10901 -0.617091,-1.77756 -2.603461,-2.74504 -3.63518,-4.31859 -0.671271,-1.0238 -1.370682,-2.09368 -1.63382,-3.2893 -0.264711,-1.20278 0.102499,-3.69327 0.102499,-3.69327 0,0 0.196012,-2.39495 -0.24231,-3.46749 -0.51547,-1.26132 -2.65261,-3.11023 -2.65261,-3.11023 v -4.40759 c 0,0 3.632441,-4.36212 5.945111,-5.94511 1.81786,-1.2443 3.895879,-2.19292 6.047621,-2.66506 2.887758,-0.63364 5.918928,-0.35748 8.868119,-0.15011 4.821987,0.33905 10.539014,4.13777 13.272269,8.65778 0.745914,1.23353 0.409997,4.30509 0.409997,4.30509 0,0 -1.893118,1.61143 -2.345098,2.71994 -1.052964,2.5825 0.39921,5.71892 -0.524937,8.35027 -0.627514,1.78675 -2.087128,3.16664 -3.267209,4.64773 -0.607647,0.76264 -1.703951,1.23267 -1.956941,2.1744 -0.759114,2.82578 1.596551,5.67083 1.811981,8.58886 0.14702,1.99143 0.0684,4.02975 -0.362397,5.97959 -0.47037,2.12909 -1.599041,4.05711 -2.391818,6.08831 -0.692487,1.77423 -1.589468,3.48319 -2.065678,5.32727 -0.402389,1.5582 -0.61409,3.17481 -0.65232,4.78367 -0.0294,1.2366 0.1201,2.47682 0.32616,3.69648 0.280152,1.65822 1.979091,3.38564 1.232162,4.89239 -0.28004,0.56491 -1.111901,0.68264 -1.739522,0.74292 -0.799528,0.0768 -1.635368,-0.15182 -2.35559,-0.50736 -1.149498,-0.56746 -1.64878,-2.42716 -2.92907,-2.49214 z"
           id="path5496-2"
           inkscape:connector-curvature="0"
           sodipodi:nodetypes="acsaacaaaaaacaccaasacaaaaaaaaaaaaaa" />
        <path
           style="fill:#f29697;fill-opacity:1;stroke:none;stroke-width:0.26458332px;stroke-linecap:butt;stroke-linejoin:miter;stroke-opacity:1"
           d="m 54.410221,201.90392 c -0.46532,0.16759 -1.12109,-0.24742 -1.304639,-0.70668 -0.18147,-0.45406 0.0857,-1.07241 0.453001,-1.39524 0.221549,-0.19474 0.701088,0.0789 0.869759,-0.16308 0.39234,-0.56291 -0.507989,-1.36311 -0.344281,-2.02944 0.181002,-0.73673 1.10213,-1.10495 1.377119,-1.81199 0.452922,-1.16454 0.378942,-2.48367 0.344282,-3.73271 -0.0639,-2.30117 0.446389,-5.05229 -1.01472,-6.83123 -0.51291,-0.62448 -1.780241,-0.18281 -2.283121,-0.8154 -0.84758,-1.06619 -0.294309,-2.70836 -0.47112,-4.05887 -0.0761,-0.58101 -0.0325,-1.19691 -0.25368,-1.73952 -0.259519,-0.63655 -0.939048,-1.03701 -1.21403,-1.66704 -0.251129,-0.57539 -0.56252,-1.25317 -0.3624,-1.84823 0.381821,-1.13532 1.484432,-2.42602 2.681751,-2.39184 0.990449,0.0283 1.824889,1.15058 2.101919,2.10192 0.12455,0.42772 -0.358119,0.8644 -0.28992,1.30463 0.132591,0.85585 0.546571,1.82808 1.304642,2.24688 1.798648,0.99367 4.597678,1.11643 6.160788,-0.21744 0.86142,-0.73509 0.105421,-2.34245 0.652312,-3.33407 0.561269,-1.01768 1.391748,-2.5907 2.536799,-2.39184 1.469087,0.25513 2.287444,2.5178 2.029434,3.98639 -0.17747,1.01012 -1.856484,1.15354 -2.246874,2.10192 -0.48776,1.18492 0.2961,2.56899 0.14496,3.84143 -0.18945,1.59502 -1.00516,3.06065 -1.30464,4.63871 -0.357679,1.88476 -0.38173,3.81778 -0.579839,5.72592 -0.11793,1.13582 -0.60692,2.29111 -0.3624,3.40655 0.31319,1.4287 2.176399,2.30802 2.246879,3.76895 0.0463,0.96074 -0.281959,2.45999 -1.23216,2.60928 -0.9076,0.14259 -1.332219,-1.27709 -1.884471,-2.01132 -0.354909,-0.47186 -0.420769,-1.18565 -0.905978,-1.52208 -1.089462,-0.75541 -2.608501,-0.93791 -3.91392,-0.70668 -0.73034,0.12936 -1.43596,0.56205 -1.920711,1.12344 -0.59155,0.68508 -0.16315,2.21198 -1.014741,2.51868 z"
           id="path5498-9"
           inkscape:connector-curvature="0"
           sodipodi:nodetypes="aaaaaaaaaaaaaaaaaaaaaaaaaaaaaaaaa" />
        <path
           style="fill:#f39b99;fill-opacity:1;stroke:none;stroke-width:0.26458332px;stroke-linecap:butt;stroke-linejoin:miter;stroke-opacity:1"
           d="m 58.644073,173.96541 c -1.400032,-4.47411 -2.157971,-9.64929 -4.958651,-13.42938 -1.755929,-2.27664 -5.10993,-3.18254 -6.450711,-5.72591 -1.085218,-2.0586 -0.0407,-4.75349 -0.873398,-6.92653 -1.04453,-2.7258 -4.991222,-7.19561 -4.991222,-7.19561 0,0 4.835001,-2.41665 7.459181,-2.54823 3.295259,-0.16523 6.340761,2.1989 9.639819,2.24688 3.771191,0.0549 7.344452,-2.69417 11.089403,-2.24688 2.034848,0.24304 5.56848,2.60564 5.56848,2.60564 0,0 -4.108179,5.17078 -4.988643,8.26634 -0.588287,2.06834 0.865644,4.51577 -0.0725,6.45071 -1.124304,2.3189 -4.48835,2.78052 -6.015811,4.85615 -2.900029,3.94079 -5.405948,13.64682 -5.405947,13.64682 z"
           id="path5500"
           inkscape:connector-curvature="0"
           sodipodi:nodetypes="ccaacaaacaaac" />
        <path
           style="fill:#ef8996;fill-opacity:1;stroke:none;stroke-width:0.26458332px;stroke-linecap:butt;stroke-linejoin:miter;stroke-opacity:1"
           d="m 58.475462,199.77418 c -1.20891,-0.0224 -2.95702,2.10091 -2.95702,2.10091 l 0.150651,-2.59439 2.229419,-1.87066 -0.794401,-1.66566 -0.52532,-3.47226 -0.192188,-5.04822 -0.71751,-8.61017 1.89629,-1.74253 0.102499,-1.28128 -0.717521,-2.35755 1.84504,-2.40879 -1.281279,-5.89387 c 0,0 0.780759,-6.61536 -0.871259,-9.22518 -1.520032,-2.4013 -5.457852,-2.2172 -7.328901,-4.35634 -1.405961,-1.60741 -1.18913,-4.21686 -2.5113,-5.89386 -0.81656,-1.0357 -3.177561,-2.35755 -3.177561,-2.35755 l -3.89508,1.43503 -1.845029,-1.33253 -2.92131,1.69129 c 0,0 1.194499,-2.23528 2.270048,-2.72768 1.051881,-0.48157 2.433582,0.5765 3.470061,0.0626 4.102261,-2.03386 2.171592,-1.28647 3.382571,-1.33252 1.679329,-0.0639 3.234201,0.92313 4.817589,1.48628 2.447962,0.87064 4.687742,2.36836 7.2264,2.9213 1.1195,0.24384 2.290551,0.2293 3.433811,0.15376 1.45456,-0.0961 2.899301,-0.38312 4.305091,-0.76877 3.378293,-0.92676 6.337068,-3.68217 9.840147,-3.69007 1.329664,-0.003 2.413198,1.31936 3.741309,1.38378 1.005734,0.0488 1.990808,-1.15359 2.921295,-0.76877 1.257821,0.5202 2.061388,3.52495 2.061388,3.52495 0,0 -1.729151,-2.28732 -2.983915,-2.29492 -0.597917,-0.004 -0.848924,0.95791 -1.435021,1.07626 -1.864178,0.37646 -3.780749,-2.1181 -5.535077,-1.38377 -2.543218,1.06454 -2.393848,5.04307 -4.202549,7.12389 -0.845394,0.97259 -1.941708,1.709 -3.023799,2.4088 -1.629619,1.0539 -5.176358,2.66505 -5.176358,2.66505 l -0.615011,13.22276 -0.358759,3.12631 0.256259,1.53753 0.871271,0.56376 -0.666271,3.53632 2.152549,1.28128 -0.358759,12.50524 -0.768771,4.51009 -1.178769,2.15255 2.306299,2.6138 0.209082,2.64329 c 0,0 -2.000502,-2.62259 -3.450331,-2.64951 z"
           id="path5502-3"
           inkscape:connector-curvature="0"
           sodipodi:nodetypes="accccccccccccaaaccccassaaaaaaacaaaaacccccccccccca" />
        <path
           inkscape:connector-curvature="0"
           style="opacity:1;fill:#d1616f;fill-opacity:1;stroke:none;stroke-width:0.26458332px;stroke-linecap:butt;stroke-linejoin:miter;stroke-opacity:1"
           d="m 99.473313,130.75529 c -1.177241,0.008 -2.387165,0.32332 -3.393059,0.91261 -1.732221,1.0148 -2.217548,3.6359 -4.048816,4.45864 -1.425944,0.64063 -3.630622,-1.09873 -4.689616,0.0512 -1.055834,1.14646 1.428024,3.55492 0.33331,4.66431 -0.931514,0.944 -2.917935,-1.03606 -3.971829,-0.23099 -1.116954,0.85324 0.445597,3.63443 -0.871254,4.12585 -0.662627,0.24728 -1.088044,-0.91195 -1.691361,-1.28106 -0.469277,-0.2871 -0.936134,-0.70979 -1.486211,-0.71779 -0.860244,-0.0131 -1.498681,1.10268 -2.357458,1.05058 -0.696014,-0.0422 -1.175951,-0.75243 -1.793678,-1.0759 -1.378394,-0.7218 -2.699015,-1.86796 -4.253986,-1.92236 -2.312008,-0.0808 -4.257196,1.87708 -6.508613,2.40915 -1.89843,0.44865 -3.87093,0.50885 -5.817221,0.64027 -1.35549,0.0915 -2.726299,0.26897 -4.074679,0.10284 -1.460349,-0.17992 -2.867189,-0.68571 -4.253489,-1.17874 -1.423501,-0.50625 -2.672961,-1.50971 -4.151691,-1.81953 -0.969801,-0.20319 -2.035971,-0.32377 -2.97243,0 -1.44848,0.5008 -2.09178,2.67746 -3.615801,2.83962 -0.811869,0.0864 -1.385718,-1.09382 -2.201929,-1.07332 -1.150511,0.029 -1.893591,1.88847 -3.023071,1.6676 -0.226499,-0.0443 -0.336129,-0.33021 -0.435631,-0.53847 -0.493118,-1.03255 0.193551,-2.66428 -0.717268,-3.3569 -1.02172,-0.77696 -2.9396,1.14164 -3.844211,0.231 -0.63349,-0.63771 0.156531,-1.79222 0.179831,-2.6908 0.0151,-0.58071 0.37578,-1.32281 -0.0259,-1.74253 -1.10622,-1.15608 -3.370161,0.45187 -4.79195,-0.28215 -1.430731,-0.73864 -1.728391,-2.81011 -3.02359,-3.76669 -0.968431,-0.71524 -2.15943,-1.21348 -3.357417,-1.33274 -1.762251,-0.17544 -3.635274,0.17312 -5.227586,0.94826 -1.387227,0.6753 -2.525308,1.84717 -3.4592207,3.07527 -0.9272637,1.21935 -1.6964681,2.62892 -2.0241651,4.12533 -0.2924537,1.33547 -0.1748627,2.7618 0.102317,4.10052 0.338021,1.63245 0.9332437,3.25943 1.8706881,4.63796 0.7287757,1.07168 1.7797777,1.90344 2.8189477,2.67787 0.852924,0.63563 2.117248,0.74653 2.767274,1.58854 0.245409,0.31789 0.367554,0.76448 0.315743,1.16272 -0.161975,1.24513 -1.492379,2.06886 -1.884124,3.26181 -0.204769,0.62357 -0.791816,1.63918 -0.217556,1.95699 0.782417,0.43301 1.340641,-2.13665 2.10168,-1.66708 0.504061,0.31101 -0.07403,1.222 -0.362251,1.73943 -0.324324,0.58225 -1.70438,0.76135 -1.449525,1.37717 0.369657,0.89323 2.136801,0.52221 2.899047,-0.0723 0.711772,-0.55518 0.401775,-1.76683 0.725022,-2.60966 1.378875,-3.59528 5.143866,-10.34304 5.143866,-10.34304 0,0 -3.928451,0.40008 -5.79654,-0.094 -1.118442,-0.29584 -2.384939,-0.71556 -3.043743,-1.66657 -1.070115,-1.54475 -1.46758,-3.82543 -0.797367,-5.58105 0.746077,-1.95435 2.794413,-3.45238 4.801775,-4.0411 1.396816,-0.40966 3.122264,-0.25014 4.330484,0.56172 0.93399,0.62759 0.651691,2.45078 1.66708,2.93574 0.905881,0.43265 2.140911,-1.05262 2.971911,-0.48937 1.14154,0.77371 -0.20119,3.19449 0.8878,4.04058 1.283739,0.9974 3.544779,-1.09852 4.87412,-0.16278 0.98561,0.69378 -0.0126,2.99238 1.10536,3.44268 1.3875,0.55884 2.462891,-2.28872 3.950151,-2.12907 0.798599,0.0857 1.041339,1.41453 1.829858,1.56735 1.03882,0.20133 1.96274,-1.17901 3.00809,-1.01493 1.76625,0.27723 3.174881,1.81014 4.312402,3.18947 1.302919,1.57989 1.326578,3.97811 2.645828,5.54437 1.69714,2.01493 5.192842,2.25194 6.450772,4.56664 0.56575,1.04103 0.0123,2.37381 0.14469,3.55121 0.344609,3.06435 1.367898,6.02932 1.685168,9.0966 0.0541,0.52283 0.0362,1.57613 0.0362,1.57613 0,0 -0.136919,0.6213 -0.362249,0.81546 -0.223131,0.19225 -0.68548,-0.008 -0.85163,0.23564 -0.13358,0.19552 -0.02529,0.49072 0.0724,0.70641 0.0476,0.10512 0.191749,0.14702 0.235649,0.25374 0.28511,0.69299 0.411041,1.57846 0.0723,2.24689 -0.241559,0.47672 -0.790969,0.96239 -1.322398,0.90589 -0.943171,-0.10029 -1.372571,-1.31845 -1.95698,-2.06551 -0.441852,-0.56481 -0.526931,-1.47422 -1.159621,-1.81178 -0.501031,-0.26732 -1.287471,-0.35062 -1.703261,0.0362 -0.284268,0.26445 -0.01791,0.78222 -0.109029,1.15962 -0.0611,0.25294 -0.381511,0.48095 -0.289909,0.7245 0.272018,0.72307 1.533739,0.4907 2.065509,1.0511 0.450419,0.47467 0.97963,1.16574 0.79737,1.79421 -0.103119,0.35556 -0.937779,0.24602 -0.923981,0.61598 0.01429,0.38107 1.025721,0.18152 0.99632,0.56172 -0.0279,0.36012 -0.978709,0.0209 -1.01441,0.38034 -0.0373,0.37525 0.873051,0.23099 0.960149,0.59789 0.0964,0.40618 -0.766019,0.66756 -0.652147,1.06919 0.10904,0.38462 1.014878,0.14757 1.069178,0.54364 0.0413,0.30069 -0.69084,0.31314 -0.670758,0.61598 0.02439,0.36783 0.947198,0.26769 0.90641,0.63407 -0.0441,0.39638 -1.08911,0.0558 -1.106911,0.45423 -0.0232,0.51906 1.40108,0.19799 1.383371,0.71727 -0.01461,0.42822 -1.163241,0.0845 -1.178742,0.51263 -0.01461,0.40473 0.974431,0.17185 1.07642,0.56379 0.0962,0.3698 -0.740029,0.5945 -0.627348,0.95963 0.118578,0.38426 1.057349,0.0639 1.114149,0.46199 0.0334,0.23392 -0.526129,0.20907 -0.552421,0.4439 -0.0313,0.27983 0.520542,0.37994 0.52554,0.66146 0.005,0.28082 -0.54256,0.40221 -0.49816,0.67955 0.0617,0.38478 0.945851,0.28988 0.950851,0.67954 0.005,0.40767 -1.020731,0.32834 -0.978231,0.73381 0.0434,0.41389 1.03259,0.12162 1.13274,0.52555 0.106831,0.4309 -0.823468,0.61627 -0.80667,1.05988 0.02159,0.57291 1.152642,0.71302 1.14154,1.28623 -0.008,0.40575 -0.852829,0.47332 -0.84233,0.87901 0.009,0.34813 0.727882,0.36902 0.760682,0.71572 0.032,0.33798 -0.669401,0.49235 -0.5979,0.82424 0.082,0.38084 0.911548,0.20421 1.014928,0.57981 0.0847,0.30771 -0.55709,0.52614 -0.471289,0.83354 0.18069,0.64727 1.719009,0.31662 1.757511,0.98754 0.0573,0.99752 -2.434751,1.03414 -2.427761,1.75803 0.0132,1.43722 0.217559,2.27376 0.217559,2.27376 l -0.589108,1.03301 1.162719,-0.57257 c 0,0 0.10387,-3.59706 2.995171,-3.93981 3.17754,0.69188 2.853018,2.95801 4.228158,4.74079 l 0.819592,-0.0253 -0.589111,-0.25631 -0.384471,-0.74311 c 0,0 -0.278778,-0.72201 -0.307478,-1.10226 -0.0531,-0.70361 0.77665,-1.62456 0.256318,-2.10116 -0.582938,-0.32561 -2.343899,0.91332 -2.293398,-1.48622 0.0507,-0.3568 0.227478,-0.62063 0.499708,-0.7431 0.4669,-0.21005 1.259242,0.64329 1.522391,0.20412 0.212371,-0.35445 -0.850931,-0.61207 -0.725029,-1.00563 0.10882,-0.34028 0.915728,-10e-4 1.014928,-0.34416 0.113371,-0.39191 -0.793189,-0.54401 -0.770498,-0.95136 0.01889,-0.33902 0.667739,-0.38105 0.725019,-0.71572 0.0816,-0.4766 -0.725469,-0.83002 -0.634071,-1.30483 0.0849,-0.44085 0.911931,-0.46494 0.99633,-0.90589 0.0853,-0.44572 -0.763738,-0.80075 -0.5979,-1.22318 0.113541,-0.28922 0.830321,-0.0272 0.869712,-0.33538 0.0499,-0.39072 -0.950142,-0.29455 -0.960141,-0.68833 -0.01069,-0.4319 0.99301,-0.37465 1.01441,-0.80615 0.01421,-0.28583 -0.65169,-0.31395 -0.61599,-0.5979 0.0417,-0.33152 0.820719,-0.16817 0.86972,-0.49868 0.0426,-0.28741 -0.6447,-0.34732 -0.5979,-0.63407 0.0712,-0.43602 1.150019,-0.18388 1.168921,-0.62528 0.0159,-0.37074 -0.923271,-0.23573 -0.933281,-0.60668 -0.01011,-0.38465 0.95826,-0.29558 0.933281,-0.67955 -0.0172,-0.26432 -0.663432,-0.11818 -0.697632,-0.38085 -0.0402,-0.30929 0.69574,-0.33138 0.67954,-0.64286 -0.01439,-0.27748 -0.644649,-0.23011 -0.661448,-0.50746 -0.02561,-0.42207 0.92968,-0.46563 0.905878,-0.8878 -0.0177,-0.31364 -0.7361,-0.26574 -0.743098,-0.57981 -0.008,-0.39627 0.8509,-0.37805 0.906399,-0.7705 0.0436,-0.30851 -0.584661,-0.47466 -0.516761,-0.77876 0.057,-0.25528 0.647362,-0.14725 0.670761,-0.40773 0.029,-0.32173 -0.76042,-0.32229 -0.725021,-0.64337 0.0348,-0.31576 0.784442,-0.14813 0.83354,-0.46199 0.0532,-0.33983 -0.707419,-0.40792 -0.706419,-0.75189 0.0011,-0.35459 0.57027,-0.45586 0.733801,-0.77049 0.17045,-0.32792 -0.0622,-0.84513 0.217048,-1.08728 0.329041,-0.28538 0.981922,0.21995 1.304831,-0.0723 0.580137,-0.52511 0.871057,-1.72475 0.36225,-2.31924 -0.565549,-0.66078 -1.83747,-0.40126 -2.60914,0 -1.250299,0.65014 -1.019281,3.43527 -2.42828,3.46077 -0.81044,0.0147 -1.32574,-1.14084 -1.467609,-1.9389 -0.130421,-0.73365 0.942829,-1.45152 0.652669,-2.13785 -0.1557,-0.36829 -0.99092,-0.0913 -1.06712,-0.54829 -0.25622,-1.5375 1.052491,-6.65148 1.41129,-9.99784 0.175619,-1.63792 -0.49353,-3.5208 0.362249,-4.92838 1.149511,-1.8907 4.0347,-1.97025 5.653398,-3.47886 0.576307,-0.53711 1.022264,-1.21749 1.377171,-1.92081 0.566187,-1.12208 0.525587,-2.5027 1.159614,-3.5879 0.638257,-1.09244 1.549921,-2.04608 2.572955,-2.79052 0.766297,-0.55761 1.634441,-1.16293 2.581735,-1.19063 0.935464,-0.0273 1.691511,1.1837 2.613785,1.02475 0.847307,-0.14605 1.088904,-1.64918 1.947671,-1.69137 1.150451,-0.0566 1.731008,1.62048 2.818932,1.99884 0.614007,0.21352 1.437811,0.50678 1.947161,0.10284 0.911084,-0.72254 -0.28488,-2.69739 0.614944,-3.4339 1.216524,-0.99572 3.504962,1.10537 4.715443,0.10232 1.040194,-0.86194 -0.429507,-3.20742 0.666107,-3.99769 0.981764,-0.70817 2.540585,1.17177 3.587359,0.56379 0.916377,-0.53225 0.16563,-2.52779 1.127574,-2.97243 2.864415,-1.32403 8.20997,0.10237 8.91777,3.17758 0.82302,3.57583 1.23877,8.07984 -7.710616,7.85637 -3.490749,-0.0872 1.874688,6.74151 3.170852,9.98389 0.379017,0.94814 0.472177,2.21792 1.340994,2.75435 0.8943,0.55215 2.86778,0.97548 3.15278,-0.0362 0.16632,-0.59037 -1.18468,-0.49253 -1.55856,-0.97875 -0.44718,-0.58156 -1.27215,-1.70953 -0.65216,-2.10168 0.69363,-0.43873 1.05233,1.97701 1.81229,1.66708 0.63846,-0.26038 0.29885,-1.4033 0.10852,-2.06603 -0.23219,-0.80851 -1.15715,-1.27676 -1.44952,-2.0655 -0.25734,-0.69427 -0.52193,-1.53574 -0.21756,-2.21072 0.88206,-1.95607 3.82174,-2.14012 5.2188,-3.76876 0.95907,-1.11804 1.57276,-2.52856 2.01177,-3.93465 0.34672,-1.11048 0.46647,-2.29588 0.46147,-3.45922 -0.006,-1.32878 -0.0178,-2.7351 -0.56379,-3.94653 -0.74202,-1.64625 -2.03588,-3.0842 -3.5109,-4.12585 -1.56797,-1.10729 -3.46608,-1.91799 -5.381067,-2.05001 -0.16614,-0.0114 -0.33411,-0.0167 -0.50229,-0.0155 z m -54.278151,10.4128 c 1.306539,0.0288 2.491758,0.97603 3.734649,1.44177 2.19836,0.82376 4.271402,2.03869 6.55981,2.56264 1.28615,0.29448 2.628881,0.37597 3.94653,0.30747 1.699911,-0.0884 3.402462,-0.39974 5.022432,-0.92242 2.069049,-0.66758 3.870387,-1.99758 5.893678,-2.79311 0.500307,-0.19671 1.001694,-0.52605 1.537881,-0.48731 0.899244,0.065 2.434465,1.17926 2.434465,1.17926 0,0 -2.662325,0.37794 -3.664869,1.17873 -0.721117,0.576 -1.063324,1.52715 -1.409211,2.3828 -0.28963,0.71646 -0.25838,1.53472 -0.537947,2.25516 -0.29324,0.75567 -0.638577,1.52265 -1.178734,2.127 -0.628627,0.70335 -1.480524,1.18422 -2.306315,1.64021 -1.334469,0.7369 -2.965739,0.88809 -4.228169,1.74253 -0.36518,0.24717 -0.69369,0.57107 -0.922941,0.94775 -0.39321,0.64608 -0.612608,1.40379 -0.717269,2.15284 -0.16092,1.15163 0.204409,2.32333 0.154001,3.48506 -0.0852,1.96248 -0.768951,5.84254 -0.768951,5.84254 0,0 -0.848051,-3.59731 -0.973579,-5.43275 -0.0857,-1.25377 0.250459,-2.51374 0.153479,-3.76669 -0.0611,-0.79 0.01439,-1.69859 -0.46147,-2.33216 -1.30547,-1.73815 -4.010409,-1.75183 -5.79138,-2.99827 -1.06485,-0.74525 -2.141281,-1.5626 -2.869589,-2.63911 -0.931632,-1.37705 -0.715981,-3.37668 -1.768372,-4.6638 -0.760539,-0.93017 -1.86835,-1.70118 -3.049429,-1.92184 -0.74431,-0.13906 -2.229321,0.43563 -2.229321,0.43563 0,0 1.977091,-1.62656 3.177591,-1.71721 0.0882,-0.007 0.175929,-0.009 0.26303,-0.007 z m 13.54904,31.52624 c 0.42908,0.011 0.84936,0.4536 0.948269,0.87127 0.0611,0.25781 -0.214958,0.48683 -0.282159,0.7431 -0.14463,0.55155 -0.22456,1.12206 -0.25631,1.69137 -0.0367,0.6572 -0.272071,1.41497 0.077,1.97301 0.287782,0.46007 1.43574,0.22629 1.43505,0.76894 -0.0011,0.74517 -1.227918,1.06073 -1.973009,1.05059 -0.795599,-0.0108 -2.094341,-0.38328 -2.075841,-1.17874 0.014,-0.60341 1.281041,-0.31693 1.614371,-0.82011 0.340471,-0.51395 0.17313,-1.23 0.128159,-1.84485 -0.0408,-0.55812 -0.25019,-1.09121 -0.35863,-1.64021 -0.0571,-0.28932 -0.255699,-0.59444 -0.153998,-0.87126 0.133898,-0.36443 0.508968,-0.75306 0.897098,-0.74311 z m -0.11213,7.91631 a 2.1916952,0.70887905 0 0 1 2.191591,0.709 2.1916952,0.70887905 0 0 1 -2.191591,0.70901 2.1916952,0.70887905 0 0 1 -2.1916,-0.70901 2.1916952,0.70887905 0 0 1 2.1916,-0.709 z m 0.0362,2.93574 a 1.5031364,0.79947889 0 0 1 1.50327,0.79944 1.5031364,0.79947889 0 0 1 -1.50327,0.79943 1.5031364,0.79947889 0 0 1 -1.502749,-0.79943 1.5031364,0.79947889 0 0 1 1.502749,-0.79944 z m 0.0909,2.71767 a 1.5031365,0.70887905 0 0 1 1.502749,0.709 1.5031365,0.70887905 0 0 1 -1.502749,0.709 1.5031365,0.70887905 0 0 1 -1.50327,-0.709 1.5031365,0.70887905 0 0 1 1.50327,-0.709 z m 0,2.33784 a 1.5031364,0.79947889 0 0 1 1.502749,0.79943 1.5031364,0.79947889 0 0 1 -1.502749,0.79944 1.5031364,0.79947889 0 0 1 -1.50327,-0.79944 1.5031364,0.79947889 0 0 1 1.50327,-0.79943 z m -0.0909,2.40089 a 1.4668964,0.89007873 0 0 1 1.467091,0.88986 1.4668964,0.89007873 0 0 1 -1.467091,0.88987 1.4668964,0.89007873 0 0 1 -1.46658,-0.88987 1.4668964,0.89007873 0 0 1 1.46658,-0.88986 z m 0.108,2.29391 a 1.4668965,1.1890581 0 0 1 1.467099,1.18908 1.4668965,1.1890581 0 0 1 -1.467099,1.18907 1.4668965,1.1890581 0 0 1 -1.466569,-1.18907 1.4668965,1.1890581 0 0 1 1.466569,-1.18908 z"
           id="path5504-9" />
        <path
           style="fill:#f09696;fill-opacity:1;stroke:none;stroke-width:0.26458332px;stroke-linecap:butt;stroke-linejoin:miter;stroke-opacity:1"
           d="m 44.265011,151.67329 0.0837,-2.44337 c 0,0 -3.006849,0.81959 -3.927099,1.95621 -1.119291,1.38246 -1.18841,3.24123 -4.42128,3.91391 -1.619332,0.33694 -0.7723,-1.78849 -1.377122,-2.53679 -0.42005,-0.5197 -1.074839,-0.80814 -1.522069,-1.30464 -0.825291,-0.91621 -1.02979,-2.43499 -2.10192,-3.04416 -1.09199,-0.62045 -2.525171,-0.0194 -3.7594,-0.25188 -1.56507,-0.29483 -2.99206,-1.73484 -4.55656,-1.43702 -2.339721,0.44539 -4.3471,2.44569 -5.548168,4.50241 -0.780772,1.337 -1.303437,3.12346 -0.776805,4.57942 0.457645,1.26524 2.165965,1.62553 3.064627,2.62687 0.678905,0.75646 0.824486,2.04119 1.723446,2.51556 1.109809,0.58563 2.509779,-0.0106 3.764549,0.004 1.11155,0.0126 2.23878,0.26229 3.334081,0.0725 0.98045,-0.16988 1.8598,-0.70832 2.788649,-1.06522 0.773451,-0.29719 1.672,-0.37801 2.318601,-0.89614 0.31184,-0.24988 0.32257,-0.79201 0.665509,-0.99712 1.34048,-0.80173 3.36436,0.41778 4.66434,-0.44807 1.61929,-1.07852 1.270842,-3.88716 2.754231,-5.14607 1.43696,-1.21951 2.828689,-0.60004 2.828689,-0.60004 z"
           id="path5596"
           inkscape:connector-curvature="0"
           sodipodi:nodetypes="ccssaaaaaaaaaaaaaaasc" />
        <path
           style="fill:#f09696;fill-opacity:1;stroke:none;stroke-width:0.26458332px;stroke-linecap:butt;stroke-linejoin:miter;stroke-opacity:1"
           d="m 73.227123,151.67329 -0.0837,-2.44337 c 0,0 3.006835,0.81959 3.927079,1.95621 1.119284,1.38246 1.188404,3.24123 4.421253,3.91391 1.619321,0.33694 0.772297,-1.78849 1.377114,-2.53679 0.420047,-0.5197 1.074834,-0.80814 1.522061,-1.30464 0.825284,-0.91621 1.029784,-2.43499 2.101908,-3.04416 1.091984,-0.62045 2.525155,-0.0194 3.759379,-0.25188 1.565061,-0.29483 2.992042,-1.73484 4.556533,-1.43702 2.339708,0.44539 4.347066,2.44569 5.54813,4.50241 0.78078,1.337 1.30344,3.12346 0.77681,4.57942 -0.45765,1.26524 -2.165964,1.62553 -3.064618,2.62687 -0.678897,0.75646 -0.824474,2.04119 -1.723431,2.51556 -1.109811,0.58563 -2.509765,-0.0106 -3.764536,0.004 -1.111534,0.0126 -2.238758,0.26229 -3.334052,0.0725 -0.980444,-0.16988 -1.859791,-0.70832 -2.788635,-1.06522 -0.773444,-0.29719 -1.671991,-0.37801 -2.318588,-0.89614 -0.311837,-0.24988 -0.322567,-0.79201 -0.665504,-0.99712 -1.340474,-0.80173 -3.364342,0.41778 -4.664313,-0.44807 -1.619281,-1.07852 -1.270844,-3.88716 -2.754215,-5.14607 -1.436954,-1.21951 -2.828675,-0.60004 -2.828675,-0.60004 z"
           id="path5596-1"
           inkscape:connector-curvature="0"
           sodipodi:nodetypes="ccssaaaaaaaaaaaaaaasc" />
        <path
           style="fill:#f7b6b4;fill-opacity:1;stroke:none;stroke-width:0.26458332px;stroke-linecap:butt;stroke-linejoin:miter;stroke-opacity:1"
           d="m 20.918621,157.59074 c -0.61357,-1.03328 -2.584869,-0.5514 -3.255693,-1.54846 -0.702465,-1.04409 -0.555726,-2.55687 -0.21744,-3.76895 0.397253,-1.42337 1.299695,-2.80671 2.510413,-3.65402 1.192851,-0.83481 2.824411,-1.56297 4.22946,-1.09084 2.60476,0.87525 3.582291,2.21685 3.582291,2.21685 0,0 0.402079,-1.15884 0.91222,-1.31343 0.82008,-0.24851 1.79188,0.33039 2.39183,0.94224 0.63155,0.64407 0.78268,1.64898 0.942239,2.5368 0.166671,0.92738 0,2.82671 0,2.82671 0,0 0.304051,-3.17279 1.37712,-2.97167 1.49904,0.28095 0.65024,3.08426 0.289921,4.56623 -0.19969,0.82133 -0.64358,1.64766 -1.30464,2.1744 -0.914221,0.72846 -2.19392,0.82929 -3.334071,1.08719 -0.54658,0.12364 -1.25699,0.59939 -1.667039,0.21744 -0.301061,-0.28043 0.0725,-1.23216 0.0725,-1.23216 0,0 -0.892711,1.14173 -1.522081,1.4496 -0.87781,0.4294 -1.952999,0.6791 -2.899199,0.43488 -0.88431,-0.22825 -1.793011,-0.83718 -2.17439,-1.66704 -0.168091,-0.36576 0.27208,-0.85966 0.0666,-1.20577 z"
           id="path5613"
           inkscape:connector-curvature="0"
           sodipodi:nodetypes="aaaascaaacaaaaacaaaa" />
        <path
           style="fill:#f7b6b4;fill-opacity:1;stroke:none;stroke-width:0.26458332px;stroke-linecap:butt;stroke-linejoin:miter;stroke-opacity:1"
           d="m 96.946748,157.68572 c 0.613567,-1.03328 2.584855,-0.5514 3.255682,-1.54846 0.70246,-1.04409 0.55572,-2.55687 0.21744,-3.76895 -0.39726,-1.42337 -1.299694,-2.80671 -2.510408,-3.65402 -1.192841,-0.83481 -2.824392,-1.56297 -4.229436,-1.09084 -2.604745,0.87525 -3.582269,2.21685 -3.582269,2.21685 0,0 -0.402077,-1.15884 -0.912214,-1.31343 -0.820077,-0.24851 -1.791871,0.33039 -2.391818,0.94224 -0.631544,0.64407 -0.782674,1.64898 -0.942234,2.5368 -0.166667,0.92738 0,2.82671 0,2.82671 0,0 -0.304047,-3.17279 -1.377111,-2.97167 -1.499031,0.28095 -0.650237,3.08426 -0.28992,4.56623 0.19969,0.82133 0.643577,1.64766 1.304634,2.1744 0.914214,0.72846 2.193908,0.82929 3.334052,1.08719 0.546577,0.12364 1.256981,0.59939 1.667028,0.21744 0.30106,-0.28043 -0.0725,-1.23216 -0.0725,-1.23216 0,0 0.892707,1.14173 1.522074,1.4496 0.877804,0.4294 1.952988,0.6791 2.899182,0.43488 0.884307,-0.22825 1.793001,-0.83718 2.174378,-1.66704 0.16809,-0.36576 -0.272077,-0.85966 -0.0666,-1.20577 z"
           id="path5613-5"
           inkscape:connector-curvature="0"
           sodipodi:nodetypes="aaaascaaacaaaaacaaaa" />
      </g>
      <g
         id="g89">
        <g
           id="g79"
           transform="translate(-68.211241,-41.389206)">
          <ellipse
             ry="34.012413"
             rx="43.420105"
             cy="113.42944"
             cx="153.41769"
             id="path4540"
             style="opacity:1;fill:#ffffff;fill-opacity:1;stroke:#000000;stroke-width:0.47399998;stroke-linecap:round;stroke-miterlimit:4;stroke-dasharray:none;stroke-opacity:1" />
          <g
             transform="matrix(1.5776425,0,0,1.5776425,-65.725374,-170.60187)"
             id="g4503">
            <path
               style="fill:#f8b7b5;fill-opacity:1;stroke:none;stroke-width:0.26458332px;stroke-linecap:butt;stroke-linejoin:miter;stroke-opacity:1"
               d="m 139.09524,192.9092 c -1.6995,-0.0863 -4.20312,2.8975 -4.20312,2.8975 0,0 -3.38224,0.62783 -3.30955,-0.50114 0.1637,-2.54252 1.42411,-4.03688 1.77255,-6.13768 0.23508,-1.41729 0.35906,-2.87672 0.20501,-4.30509 -0.25418,-2.35672 -1.84504,-6.86764 -1.84504,-6.86764 0,0 -3.4149,-5.70967 -3.89508,-8.91767 -0.24774,-1.65511 0.57436,-4.98769 0.57436,-4.98769 l 21.63899,0.30828 c 0,0 0.0684,4.02975 -0.3624,5.97959 -0.47037,2.12909 -1.59905,4.05711 -2.39183,6.08831 -0.69249,1.77423 -1.58947,3.48319 -2.06568,5.32727 -0.40239,1.5582 -0.61409,3.17481 -0.65232,4.78367 -0.0294,1.2366 0.1201,2.47682 0.32616,3.69648 0.28015,1.65822 1.97909,3.38564 1.23216,4.89239 -0.28004,0.56491 -1.1119,0.68264 -1.73952,0.74292 -0.79953,0.0768 -1.63537,-0.15182 -2.35559,-0.50736 -1.1495,-0.56746 -1.64878,-2.42716 -2.92907,-2.49214 z"
               id="path5496"
               inkscape:connector-curvature="0"
               sodipodi:nodetypes="ccsaacaccaaaaaaaaac" />
            <path
               style="fill:#f29697;fill-opacity:1;stroke:none;stroke-width:0.26458332px;stroke-linecap:butt;stroke-linejoin:miter;stroke-opacity:1"
               d="m 134.81256,194.93022 c -0.46532,0.16759 -1.12109,-0.24742 -1.30464,-0.70668 -0.18147,-0.45406 0.0857,-1.07241 0.453,-1.39524 0.22155,-0.19474 0.70109,0.0789 0.86976,-0.16308 0.39234,-0.56291 -0.50799,-1.36311 -0.34428,-2.02944 0.181,-0.73673 1.10213,-1.10495 1.37712,-1.81199 0.45292,-1.16454 0.37894,-2.48367 0.34428,-3.73271 -0.0639,-2.30117 0.44639,-5.05229 -1.01472,-6.83123 -0.51291,-0.62448 -1.78024,-0.18281 -2.28312,-0.8154 -0.84758,-1.06619 -0.29431,-2.70836 -0.47112,-4.05887 -0.0761,-0.58101 -0.0325,-1.19691 -0.25368,-1.73952 -0.25952,-0.63655 -0.93905,-1.03701 -1.21403,-1.66704 -0.25113,-0.57539 -0.56252,-1.25317 -0.3624,-1.84823 0.38182,-1.13532 1.48443,-2.42602 2.68175,-2.39184 0.99045,0.0283 1.82489,1.15058 2.10192,2.10192 0.12455,0.42772 -0.35812,0.8644 -0.28992,1.30463 0.13259,0.85585 0.54657,1.82808 1.30464,2.24688 1.79865,0.99367 4.59768,1.11643 6.16079,-0.21744 0.86142,-0.73509 0.10542,-2.34245 0.65231,-3.33407 0.56127,-1.01768 1.39175,-2.5907 2.5368,-2.39184 1.46909,0.25513 2.28745,2.5178 2.02944,3.98639 -0.17747,1.01012 -1.85649,1.15354 -2.24688,2.10192 -0.48776,1.18492 0.2961,2.56899 0.14496,3.84143 -0.18945,1.59502 -1.00516,3.06065 -1.30464,4.63871 -0.35768,1.88476 -0.38173,3.81778 -0.57984,5.72592 -0.11793,1.13582 -0.60692,2.29111 -0.3624,3.40655 0.31319,1.4287 2.1764,2.30802 2.24688,3.76895 0.0463,0.96074 -0.28196,2.45999 -1.23216,2.60928 -0.9076,0.14259 -1.33222,-1.27709 -1.88447,-2.01132 -0.35491,-0.47186 -0.42077,-1.18565 -0.90598,-1.52208 -1.08946,-0.75541 -2.6085,-0.93791 -3.91392,-0.70668 -0.73034,0.12936 -1.43596,0.56205 -1.92071,1.12344 -0.59155,0.68508 -0.16315,2.21198 -1.01474,2.51868 z"
               id="path5498"
               inkscape:connector-curvature="0"
               sodipodi:nodetypes="aaaaaaaaaaaaaaaaaaaaaaaaaaaaaaaaa" />
            <path
               style="fill:#ef8996;fill-opacity:1;stroke:none;stroke-width:0.26458332px;stroke-linecap:butt;stroke-linejoin:miter;stroke-opacity:1"
               d="m 138.8778,192.80048 c -1.20891,-0.0224 -2.95702,2.10091 -2.95702,2.10091 l 0.15065,-2.59439 2.22942,-1.87066 -0.7944,-1.66566 -0.52532,-3.47226 -0.19219,-5.04822 -0.71751,-8.61017 1.89629,-1.74253 0.1025,-1.28128 -0.71752,-2.35755 c 1.78412,-1.79519 1.57624,-1.1735 2.84602,-1.18793 l 0.87127,0.56376 -0.66627,3.53632 2.15255,1.28128 -0.79598,13.07814 -0.76877,4.51009 -1.17877,2.15255 2.3063,2.6138 0.20908,2.64329 c 0,0 -2.0005,-2.62259 -3.45033,-2.64951 z"
               id="path5502"
               inkscape:connector-curvature="0"
               sodipodi:nodetypes="ccccccccccccccccccccac" />
            <path
               sodipodi:nodetypes="cccccccccccsccccccccccccccccccccccccccccccccccccccccccccccccccccccccccccccccccccccccccccscccscccccccccccscccccccccccccccccccccccccccccc"
               inkscape:connector-curvature="0"
               style="opacity:1;fill:#d1616f;fill-opacity:1;stroke:none;stroke-width:0.26458332px;stroke-linecap:butt;stroke-linejoin:miter;stroke-opacity:1"
               d="m 137.83858,165.59416 c 0,0 -0.68548,-0.008 -0.85163,0.23564 -0.13358,0.19552 -0.0253,0.49072 0.0724,0.70641 0.0476,0.10512 0.19175,0.14702 0.23565,0.25374 0.28511,0.69299 0.41104,1.57846 0.0723,2.24689 -0.24156,0.47672 -0.79097,0.96239 -1.3224,0.90589 -0.94317,-0.10029 -1.37257,-1.31845 -1.95698,-2.06551 -0.44185,-0.56481 -0.52693,-1.47422 -1.15962,-1.81178 -0.50103,-0.26732 -1.28747,-0.35062 -1.70326,0.0362 -0.28427,0.26445 -0.0179,0.78222 -0.10903,1.15962 -0.0611,0.25294 -0.38151,0.48095 -0.28991,0.7245 0.27202,0.72307 1.53374,0.4907 2.06551,1.0511 0.45042,0.47467 0.97963,1.16574 0.79737,1.79421 -0.10312,0.35556 -0.93778,0.24602 -0.92398,0.61598 0.0143,0.38107 1.02572,0.18152 0.99632,0.56172 -0.0279,0.36012 -0.97871,0.0209 -1.01441,0.38034 -0.0373,0.37525 0.87305,0.23099 0.96015,0.59789 0.0964,0.40618 -0.76602,0.66756 -0.65215,1.06919 0.10904,0.38462 1.01488,0.14757 1.06918,0.54364 0.0413,0.30069 -0.69084,0.31314 -0.67076,0.61598 0.0244,0.36783 0.9472,0.26769 0.90641,0.63407 -0.0441,0.39638 -1.08911,0.0558 -1.10691,0.45423 -0.0232,0.51906 1.40108,0.19799 1.38337,0.71727 -0.0146,0.42822 -1.16324,0.0845 -1.17874,0.51263 -0.0146,0.40473 0.97443,0.17185 1.07642,0.56379 0.0962,0.3698 -0.74003,0.5945 -0.62735,0.95963 0.11858,0.38426 1.05735,0.0639 1.11415,0.46199 0.0334,0.23392 -0.52613,0.20907 -0.55242,0.4439 -0.0313,0.27983 0.52054,0.37994 0.52554,0.66146 0.005,0.28082 -0.54256,0.40221 -0.49816,0.67955 0.0617,0.38478 0.94585,0.28988 0.95085,0.67954 0.005,0.40767 -1.02073,0.32834 -0.97823,0.73381 0.0434,0.41389 1.03259,0.12162 1.13274,0.52555 0.10683,0.4309 -0.82347,0.61627 -0.80667,1.05988 0.0216,0.57291 1.15264,0.71302 1.14154,1.28623 -0.008,0.40575 -0.85283,0.47332 -0.84233,0.87901 0.009,0.34813 0.72788,0.36902 0.76068,0.71572 0.032,0.33798 -0.6694,0.49235 -0.5979,0.82424 0.082,0.38084 0.91155,0.20421 1.01493,0.57981 0.0847,0.30771 -0.55709,0.52614 -0.47129,0.83354 0.18069,0.64727 1.71901,0.31662 1.75751,0.98754 0.0573,0.99752 -2.43475,1.03414 -2.42776,1.75803 0.0132,1.43722 0.21756,2.27376 0.21756,2.27376 l -0.58911,1.03301 1.16272,-0.57257 c 0,0 0.10387,-3.59706 2.99517,-3.93981 3.17754,0.69188 2.85302,2.95801 4.22816,4.74079 l 0.81959,-0.0253 -0.58911,-0.25631 -0.38447,-0.74311 c 0,0 -0.27878,-0.72201 -0.30748,-1.10226 -0.0531,-0.70361 0.77665,-1.62456 0.25632,-2.10116 -0.58294,-0.32561 -2.3439,0.91332 -2.2934,-1.48622 0.0507,-0.3568 0.22748,-0.62063 0.49971,-0.7431 0.4669,-0.21005 1.25924,0.64329 1.52239,0.20412 0.21237,-0.35445 -0.85093,-0.61207 -0.72503,-1.00563 0.10882,-0.34028 0.91573,-0.001 1.01493,-0.34416 0.11337,-0.39191 -0.79319,-0.54401 -0.7705,-0.95136 0.0189,-0.33902 0.66774,-0.38105 0.72502,-0.71572 0.0816,-0.4766 -0.72547,-0.83002 -0.63407,-1.30483 0.0849,-0.44085 0.91193,-0.46494 0.99633,-0.90589 0.0853,-0.44572 -0.76374,-0.80075 -0.5979,-1.22318 0.11354,-0.28922 0.83032,-0.0272 0.86971,-0.33538 0.0499,-0.39072 -0.95014,-0.29455 -0.96014,-0.68833 -0.0107,-0.4319 0.99301,-0.37465 1.01441,-0.80615 0.0142,-0.28583 -0.65169,-0.31395 -0.61599,-0.5979 0.0417,-0.33152 0.82072,-0.16817 0.86972,-0.49868 0.0426,-0.28741 -0.6447,-0.34732 -0.5979,-0.63407 0.0712,-0.43602 1.15002,-0.18388 1.16892,-0.62528 0.0159,-0.37074 -0.92327,-0.23573 -0.93328,-0.60668 -0.0101,-0.38465 0.95826,-0.29558 0.93328,-0.67955 -0.0172,-0.26432 -0.66343,-0.11818 -0.69763,-0.38085 -0.0402,-0.30929 0.69574,-0.33138 0.67954,-0.64286 -0.0144,-0.27748 -0.64465,-0.23011 -0.66145,-0.50746 -0.0256,-0.42207 0.92968,-0.46563 0.90588,-0.8878 -0.0177,-0.31364 -0.7361,-0.26574 -0.7431,-0.57981 -0.008,-0.39627 0.8509,-0.37805 0.9064,-0.7705 0.0436,-0.30851 -0.58466,-0.47466 -0.51676,-0.77876 0.057,-0.25528 0.64736,-0.14725 0.67076,-0.40773 0.029,-0.32173 -0.76042,-0.32229 -0.72502,-0.64337 0.0348,-0.31576 0.78444,-0.14813 0.83354,-0.46199 0.0532,-0.33983 -0.70742,-0.40792 -0.70642,-0.75189 10e-4,-0.35459 0.57027,-0.45586 0.7338,-0.77049 0.17045,-0.32792 -0.0622,-0.84513 0.21705,-1.08728 0.32904,-0.28538 0.98192,0.21995 1.30483,-0.0723 0.58014,-0.52511 0.87106,-1.72475 0.36225,-2.31924 -0.56555,-0.66078 -1.83747,-0.40126 -2.60914,0 -1.2503,0.65014 -1.01928,3.43527 -2.42828,3.46077 -0.81044,0.0147 -1.32574,-1.14084 -1.46761,-1.9389 -0.13042,-0.73365 0.94283,-1.45152 0.65267,-2.13785 -0.1557,-0.36829 -1.06712,-0.54829 -1.06712,-0.54829 -2.64653,-0.80036 -2.23088,0.29448 -2.23088,0.29448 z m 1.30796,0.12647 c 0.42908,0.011 0.84936,0.4536 0.94827,0.87127 0.0611,0.25781 -0.21496,0.48683 -0.28216,0.7431 -0.14463,0.55155 -0.22456,1.12206 -0.25631,1.69137 -0.0367,0.6572 -0.27207,1.41497 0.077,1.97301 0.28778,0.46007 1.43574,0.22629 1.43505,0.76894 -0.001,0.74517 -1.22792,1.06073 -1.97301,1.05059 -0.7956,-0.0108 -2.09434,-0.38328 -2.07584,-1.17874 0.014,-0.60341 1.28104,-0.31693 1.61437,-0.82011 0.34047,-0.51395 0.17313,-1.23 0.12816,-1.84485 -0.0408,-0.55812 -0.25019,-1.09121 -0.35863,-1.64021 -0.0571,-0.28932 -0.2557,-0.59444 -0.154,-0.87126 0.1339,-0.36443 0.50897,-0.75306 0.8971,-0.74311 z m -0.11213,7.91631 c 1.21054,2e-5 2.1918,0.31746 2.19159,0.709 2.2e-4,0.39154 -0.98103,0.70899 -2.19159,0.70901 -1.21056,-2e-5 -2.19182,-0.31747 -2.1916,-0.70901 -2.1e-4,-0.39154 0.98105,-0.70898 2.1916,-0.709 z m 0.0362,2.93574 c 0.83018,-4e-5 1.50323,0.35789 1.50327,0.79944 -5e-5,0.44155 -0.67309,0.79947 -1.50327,0.79943 -0.82997,-1.1e-4 -1.5027,-0.35799 -1.50275,-0.79943 4e-5,-0.44144 0.67277,-0.79933 1.50275,-0.79944 z m 0.0909,2.71767 c 0.83011,1e-4 1.50289,0.31752 1.50275,0.709 1.4e-4,0.39148 -0.67264,0.7089 -1.50275,0.709 -0.83031,3e-5 -1.50341,-0.31743 -1.50327,-0.709 -1.4e-4,-0.39157 0.67296,-0.70903 1.50327,-0.709 z m 0,2.33784 c 0.82997,1.1e-4 1.5027,0.35799 1.50275,0.79943 -4e-5,0.44144 -0.67277,0.79933 -1.50275,0.79944 -0.83018,4e-5 -1.50323,-0.35789 -1.50327,-0.79944 5e-5,-0.44155 0.67309,-0.79947 1.50327,-0.79943 z m -0.0909,2.40089 c 0.81008,-6e-5 1.46689,0.39832 1.46709,0.88986 -1.9e-4,0.49154 -0.657,0.88993 -1.46709,0.88987 -0.80989,-1.1e-4 -1.46639,-0.39845 -1.46658,-0.88987 2e-4,-0.49142 0.6567,-0.88975 1.46658,-0.88986 z m 0.108,2.29391 c 0.81023,-9e-5 1.46711,0.53231 1.4671,1.18908 1e-5,0.65677 -0.65687,1.18916 -1.4671,1.18907 -0.81002,-1.5e-4 -1.46658,-0.53247 -1.46657,-1.18907 -1e-5,-0.6566 0.65654,-1.18893 1.46657,-1.18908 z"
               id="path5504" />
          </g>
        </g>
        <path
           style="fill:none;stroke:#000000;stroke-width:0.76255751;stroke-linecap:butt;stroke-linejoin:miter;stroke-miterlimit:4;stroke-dasharray:none;stroke-opacity:1"
           d="m 62.285302,100.93879 -3.622888,82.60845 29.306177,-77.28586"
           id="path4576"
           inkscape:connector-curvature="0" />
      </g>
    </g>
  </g>
</svg>
