<?xml version="1.0" encoding="UTF-8" standalone="no"?>
<!-- Created with Inkscape (http://www.inkscape.org/) -->

<svg
   xmlns:dc="http://purl.org/dc/elements/1.1/"
   xmlns:cc="http://creativecommons.org/ns#"
   xmlns:rdf="http://www.w3.org/1999/02/22-rdf-syntax-ns#"
   xmlns:svg="http://www.w3.org/2000/svg"
   xmlns="http://www.w3.org/2000/svg"
   xmlns:sodipodi="http://sodipodi.sourceforge.net/DTD/sodipodi-0.dtd"
   xmlns:inkscape="http://www.inkscape.org/namespaces/inkscape"
   width="137.05417mm"
   height="195.79167mm"
   viewBox="0 0 137.05417 195.79167"
   version="1.1"
   id="svg4940"
   inkscape:version="0.92+devel unknown"
   sodipodi:docname="vagina.svg"
   inkscape:export-filename="/home/fundacion/Documentos/fundecyt_02/conozco_mi_cuerpo/conozco-mi-cuerpo/img/femenino/vagina.png"
   inkscape:export-xdpi="90"
   inkscape:export-ydpi="90">
  <defs
     id="defs4934" />
  <sodipodi:namedview
     id="base"
     pagecolor="#ffffff"
     bordercolor="#666666"
     borderopacity="1.0"
     inkscape:pageopacity="0.0"
     inkscape:pageshadow="2"
     inkscape:zoom="0.77558454"
     inkscape:cx="579.69168"
     inkscape:cy="386.35097"
     inkscape:document-units="mm"
     inkscape:current-layer="layer1"
     showgrid="false"
     inkscape:window-width="1920"
     inkscape:window-height="1012"
     inkscape:window-x="0"
     inkscape:window-y="32"
     inkscape:window-maximized="1"
     inkscape:document-rotation="0"
     fit-margin-top="0"
     fit-margin-left="0"
     fit-margin-right="0"
     fit-margin-bottom="0" />
  <metadata
     id="metadata4937">
    <rdf:RDF>
      <cc:Work
         rdf:about="">
        <dc:format>image/svg+xml</dc:format>
        <dc:type
           rdf:resource="http://purl.org/dc/dcmitype/StillImage" />
        <dc:title></dc:title>
      </cc:Work>
    </rdf:RDF>
  </metadata>
  <g
     inkscape:label="Capa 1"
     inkscape:groupmode="layer"
     id="layer1"
     transform="translate(-38.632797,-49.632053)">
    <g
       id="g4608"
       transform="matrix(1.1796348,0,0,1.1796348,-19.898426,-16.946741)">
      <path
         sodipodi:nodetypes="acsaacaaaaaacaccaasacaaaaaaaaaaaaaa"
         inkscape:connector-curvature="0"
         id="path5496-2"
         d="m 107.82046,219.20438 c -1.69951,-0.0902 -4.20315,3.03025 -4.20315,3.03025 0,0 -3.38226,0.6566 -3.30957,-0.5241 0.1637,-2.65902 1.42412,-4.22184 1.77256,-6.4189 0.23508,-1.48222 0.35907,-3.00852 0.20501,-4.50234 -0.25418,-2.46471 -1.84505,-7.1823 -1.84505,-7.1823 0,0 -3.330368,-5.98571 -3.895101,-9.32627 -0.379264,-2.24345 -0.02479,-4.58797 0.403791,-6.82168 0.308602,-1.60825 1.258567,-3.03559 1.54376,-4.64856 0.127891,-0.72332 0.296942,-1.51075 0.0663,-2.20564 -0.617094,-1.859 -2.603476,-2.87082 -3.635202,-4.51646 -0.671275,-1.07071 -1.370691,-2.18961 -1.63383,-3.44001 -0.264712,-1.25789 0.1025,-3.86249 0.1025,-3.86249 0,0 0.196013,-2.50468 -0.242312,-3.62636 -0.515473,-1.31912 -2.652626,-3.25274 -2.652626,-3.25274 v -4.60954 c 0,0 3.632464,-4.56199 5.945147,-6.21751 1.817872,-1.30131 3.895903,-2.29339 6.047663,-2.78716 2.88777,-0.66267 5.91896,-0.37386 8.86817,-0.15699 4.82202,0.35459 10.53908,4.32736 13.27235,9.05447 0.74592,1.29004 0.41,4.50234 0.41,4.50234 0,0 -1.89313,1.68526 -2.34511,2.84456 -1.05297,2.70082 0.39921,5.98096 -0.52494,8.73287 -0.62752,1.86861 -2.08714,3.31173 -3.26723,4.86068 -0.60765,0.79758 -1.70396,1.28915 -1.95695,2.27402 -0.75912,2.95526 1.59656,5.93067 1.81199,8.98239 0.14702,2.08268 0.0684,4.21439 -0.3624,6.25357 -0.47037,2.22664 -1.59905,4.243 -2.39183,6.36726 -0.69249,1.85552 -1.58948,3.64279 -2.06569,5.57136 -0.40239,1.62959 -0.6141,3.32027 -0.65233,5.00285 -0.0294,1.29325 0.1201,2.5903 0.32617,3.86584 0.28015,1.7342 1.9791,3.54077 1.23217,5.11656 -0.28005,0.59078 -1.11191,0.71391 -1.73954,0.77695 -0.79953,0.0803 -1.63538,-0.15877 -2.3556,-0.53061 -1.14951,-0.59345 -1.64879,-2.53837 -2.92909,-2.60631 z"
         style="fill:#f8b7b5;fill-opacity:1;stroke:none;stroke-width:0.27057767px;stroke-linecap:butt;stroke-linejoin:miter;stroke-opacity:1" />
      <path
         sodipodi:nodetypes="aaaaaaaaaaaaaaaaaaaaaaaaaaaaaaaaa"
         inkscape:connector-curvature="0"
         id="path5498-9"
         d="m 103.53775,221.31799 c -0.46532,0.17527 -1.1211,-0.25875 -1.30465,-0.73906 -0.18147,-0.47486 0.0857,-1.12155 0.45301,-1.45916 0.22155,-0.20367 0.70109,0.0825 0.86976,-0.17055 0.39234,-0.58871 -0.50799,-1.42558 -0.34428,-2.12243 0.181,-0.77049 1.10214,-1.15558 1.37713,-1.89501 0.45292,-1.2179 0.37894,-2.59747 0.34428,-3.90374 -0.0639,-2.40661 0.44639,-5.28378 -1.01473,-7.14422 -0.51291,-0.6531 -1.78025,-0.19119 -2.28313,-0.85276 -0.84759,-1.11504 -0.29431,-2.83246 -0.47112,-4.24485 -0.0761,-0.60763 -0.0325,-1.25175 -0.25369,-1.81922 -0.25952,-0.66572 -0.93905,-1.08453 -1.214033,-1.74342 -0.251131,-0.60176 -0.562524,-1.31059 -0.362402,-1.93292 0.381823,-1.18733 1.484445,-2.53717 2.681765,-2.50142 0.99046,0.0296 1.8249,1.2033 2.10193,2.19822 0.12456,0.44732 -0.35812,0.90401 -0.28992,1.36441 0.13259,0.89507 0.54658,1.91184 1.30465,2.34983 1.79866,1.0392 4.59771,1.16758 6.16083,-0.22741 0.86142,-0.76877 0.10542,-2.44978 0.65231,-3.48683 0.56128,-1.06431 1.39176,-2.7094 2.53682,-2.50143 1.4691,0.26683 2.28746,2.63316 2.02945,4.16905 -0.17748,1.05639 -1.8565,1.20639 -2.24689,2.19822 -0.48777,1.23921 0.2961,2.68669 0.14496,4.01744 -0.18945,1.6681 -1.00517,3.20088 -1.30465,4.85124 -0.35768,1.97112 -0.38173,3.99271 -0.57984,5.98828 -0.11793,1.18785 -0.60693,2.39608 -0.3624,3.56263 0.31319,1.49416 2.17641,2.41377 2.24689,3.94163 0.0463,1.00477 -0.28196,2.57271 -1.23217,2.72884 -0.9076,0.14912 -1.33223,-1.33561 -1.88448,-2.10347 -0.35491,-0.49349 -0.42077,-1.23998 -0.90598,-1.59182 -1.08947,-0.79003 -2.60852,-0.98089 -3.91395,-0.73906 -0.73034,0.13528 -1.43597,0.5878 -1.92072,1.17491 -0.59156,0.71647 -0.16315,2.31333 -1.01475,2.63408 z"
         style="fill:#f29697;fill-opacity:1;stroke:none;stroke-width:0.27057767px;stroke-linecap:butt;stroke-linejoin:miter;stroke-opacity:1" />
      <path
         sodipodi:nodetypes="ccaacaaacaaac"
         inkscape:connector-curvature="0"
         id="path5500"
         d="m 107.77163,192.09939 c -1.40004,-4.67911 -2.15799,-10.09141 -4.95868,-14.0447 -1.75594,-2.38095 -5.109964,-3.32835 -6.450753,-5.98825 -1.085225,-2.15293 -0.0407,-4.97129 -0.873404,-7.2439 -1.044536,-2.85069 -4.991253,-7.5253 -4.991253,-7.5253 0,0 4.835031,-2.52738 7.459228,-2.66499 3.295282,-0.17279 6.340802,2.29966 9.639882,2.34984 3.77121,0.0574 7.34449,-2.81762 11.08947,-2.34984 2.03486,0.25419 5.56851,2.72504 5.56851,2.72504 0,0 -4.1082,5.40769 -4.98867,8.64508 -0.58829,2.16311 0.86565,4.72268 -0.0725,6.74628 -1.12431,2.42514 -4.48837,2.90791 -6.01584,5.07865 -2.90005,4.12134 -5.40599,14.27209 -5.40598,14.27209 z"
         style="fill:#f39b99;fill-opacity:1;stroke:none;stroke-width:0.27057767px;stroke-linecap:butt;stroke-linejoin:miter;stroke-opacity:1" />
      <path
         sodipodi:nodetypes="accccccccccccaaaccccassaaaaaaacaaaaacccccccccccca"
         inkscape:connector-curvature="0"
         id="path5502-3"
         d="m 107.60302,219.09067 c -1.20892,-0.0234 -2.95704,2.19717 -2.95704,2.19717 l 0.15065,-2.71326 2.22943,-1.95637 -0.7944,-1.74197 -0.52533,-3.63136 -0.19218,-5.27952 -0.71752,-9.00468 1.8963,-1.82237 0.1025,-1.33998 -0.71752,-2.46557 1.84505,-2.51915 -1.28129,-6.16393 c 0,0 0.78076,-6.91846 -0.87126,-9.64785 -1.52004,-2.51133 -5.45789,-2.31879 -7.328949,-4.55594 -1.405971,-1.68107 -1.189138,-4.41008 -2.511316,-6.16391 -0.816566,-1.08316 -3.177581,-2.46557 -3.177581,-2.46557 l -3.895104,1.50078 -1.845041,-1.39358 -2.921328,1.76878 c 0,0 1.194507,-2.3377 2.270062,-2.85266 1.051888,-0.50363 2.433597,0.60292 3.470083,0.0655 4.102286,-2.12706 2.171605,-1.34542 3.382592,-1.39358 1.679339,-0.0668 3.234221,0.96543 4.817619,1.55438 2.447973,0.91054 4.687773,2.47688 7.226443,3.05515 1.11951,0.25501 2.29057,0.23981 3.43383,0.1608 1.45457,-0.1005 2.89932,-0.40067 4.30512,-0.80399 3.37831,-0.96922 6.33711,-3.85088 9.84021,-3.85914 1.32967,-0.003 2.41321,1.37981 3.74133,1.44718 1.00574,0.0511 1.99082,-1.20645 2.92132,-0.80399 1.25782,0.54403 2.06139,3.68646 2.06139,3.68646 0,0 -1.72916,-2.39212 -2.98393,-2.40007 -0.59792,-0.005 -0.84893,1.0018 -1.43503,1.12557 -1.86419,0.39371 -3.78077,-2.21515 -5.53511,-1.44717 -2.54323,1.11331 -2.39386,5.27413 -4.20257,7.45029 -0.8454,1.01715 -1.94172,1.7873 -3.02382,2.51917 -1.62963,1.10218 -5.17639,2.78716 -5.17639,2.78716 l -0.61502,13.8286 -0.35876,3.26955 0.25626,1.60798 0.87128,0.58959 -0.66628,3.69835 2.15257,1.33998 -0.35877,13.07821 -0.76877,4.71673 -1.17878,2.25118 2.30632,2.73357 0.20908,2.76439 c 0,0 -2.00052,-2.74275 -3.45035,-2.77091 z"
         style="fill:#ef8996;fill-opacity:1;stroke:none;stroke-width:0.27057767px;stroke-linecap:butt;stroke-linejoin:miter;stroke-opacity:1" />
      <path
         id="path5504-9"
         d="m 148.60112,146.90945 c -1.17724,0.008 -2.38718,0.33814 -3.39308,0.95442 -1.73223,1.06131 -2.21756,3.8025 -4.04884,4.66293 -1.42595,0.66999 -3.63065,-1.14907 -4.68964,0.0535 -1.05585,1.19899 1.42803,3.7178 0.33331,4.87802 -0.93152,0.98725 -2.91796,-1.08352 -3.97185,-0.24157 -1.11697,0.89233 0.44559,3.80095 -0.87126,4.31489 -0.66264,0.25861 -1.08805,-0.95374 -1.69138,-1.33976 -0.46928,-0.30026 -0.93614,-0.74231 -1.48622,-0.75067 -0.86025,-0.0137 -1.49869,1.1532 -2.35747,1.09871 -0.69602,-0.0442 -1.17596,-0.78691 -1.79369,-1.1252 -1.3784,-0.75487 -2.69903,-1.95354 -4.25401,-2.01043 -2.31202,-0.0845 -4.25722,1.96308 -6.50865,2.51953 -1.89845,0.46921 -3.87096,0.53216 -5.81726,0.66961 -1.3555,0.0957 -2.72632,0.28129 -4.07471,0.10755 -1.46035,-0.18817 -2.8672,-0.71713 -4.253511,-1.23275 -1.42351,-0.52945 -2.672978,-1.57888 -4.151717,-1.9029 -0.969807,-0.2125 -2.035983,-0.3386 -2.972448,0 -1.448489,0.52374 -2.091793,2.80014 -3.615823,2.96972 -0.811874,0.0903 -1.385726,-1.14393 -2.201943,-1.12249 -1.150518,0.0304 -1.893603,1.975 -3.023089,1.744 -0.226501,-0.0464 -0.336131,-0.34533 -0.435634,-0.56313 -0.493121,-1.07987 0.193552,-2.78636 -0.717272,-3.51071 -1.021727,-0.81256 -2.939619,1.19394 -3.844235,0.24158 -0.633494,-0.66692 0.156532,-1.87434 0.179832,-2.81409 0.0151,-0.60731 0.375782,-1.38341 -0.0259,-1.82237 -1.106227,-1.20905 -3.370182,0.47258 -4.791979,-0.29507 -1.43074,-0.77249 -1.728402,-2.93886 -3.023609,-3.93928 -0.968437,-0.74801 -2.159444,-1.26908 -3.357438,-1.3938 -1.762262,-0.18348 -3.635296,0.18105 -5.227618,0.9917 -1.387236,0.70625 -2.525324,1.93181 -3.459242,3.21618 -0.92727,1.27522 -1.696478,2.74937 -2.024178,4.31435 -0.292455,1.39665 -0.174863,2.88833 0.102318,4.28839 0.338023,1.70725 0.933249,3.40877 1.870699,4.85047 0.728781,1.12078 1.779789,1.99065 2.818966,2.80056 0.852929,0.66476 2.11726,0.78074 2.767291,1.66133 0.24541,0.33245 0.367556,0.7995 0.315745,1.21599 -0.161977,1.30218 -1.492388,2.16365 -1.884136,3.41126 -0.20477,0.65214 -0.791821,1.71429 -0.217557,2.04666 0.782421,0.45285 1.340649,-2.23455 2.101693,-1.74347 0.504064,0.32526 -0.07403,1.27799 -0.362254,1.81913 -0.324325,0.60893 -1.70439,0.79624 -1.449534,1.44027 0.36966,0.93416 2.136815,0.54613 2.899065,-0.0756 0.711777,-0.58062 0.401778,-1.84778 0.725027,-2.72923 1.378883,-3.76001 5.143897,-10.81694 5.143897,-10.81694 0,0 -3.928475,0.41841 -5.796576,-0.0983 -1.118448,-0.30939 -2.384953,-0.74834 -3.043761,-1.74293 -1.070121,-1.61552 -1.467589,-4.00071 -0.797372,-5.83677 0.746082,-2.04389 2.79443,-3.61056 4.801805,-4.22625 1.396825,-0.42843 3.122283,-0.2616 4.33051,0.58746 0.933996,0.65635 0.651695,2.56307 1.667091,3.07025 0.905886,0.45248 2.140924,-1.10085 2.971929,-0.51179 1.141547,0.80916 -0.201191,3.34085 0.887806,4.22571 1.283747,1.0431 3.5448,-1.14885 4.87415,-0.17024 0.985616,0.72557 -0.0126,3.12948 1.105366,3.60042 1.387509,0.58444 2.462906,-2.39359 3.950175,-2.22662 0.798605,0.0896 1.041346,1.47934 1.82987,1.63917 1.038826,0.21055 1.962752,-1.23304 3.008108,-1.06144 1.766262,0.28993 3.174901,1.89308 4.312429,3.3356 1.302928,1.65228 1.326586,4.16039 2.645845,5.79841 1.697149,2.10725 5.192869,2.35512 6.450809,4.77587 0.56575,1.08873 0.0123,2.48258 0.14469,3.71393 0.34461,3.20475 1.36791,6.30557 1.68518,9.51339 0.0541,0.54678 0.0362,1.64834 0.0362,1.64834 0,0 -0.13691,0.64977 -0.36225,0.85282 -0.22313,0.20106 -0.68548,-0.008 -0.85163,0.24644 -0.13358,0.20448 -0.0253,0.5132 0.0724,0.73878 0.0476,0.10993 0.19175,0.15375 0.23565,0.26536 0.28511,0.72475 0.41104,1.65078 0.0723,2.34984 -0.24156,0.49857 -0.79097,1.00648 -1.3224,0.9474 -0.94318,-0.10489 -1.37258,-1.37886 -1.957,-2.16015 -0.44185,-0.59069 -0.52693,-1.54177 -1.15962,-1.89479 -0.50104,-0.27957 -1.28748,-0.36668 -1.703273,0.0379 -0.284269,0.27656 -0.01791,0.81805 -0.109029,1.21274 -0.0611,0.26453 -0.381513,0.50299 -0.289911,0.7577 0.27202,0.7562 1.533743,0.51318 2.065523,1.09926 0.45042,0.49642 0.97963,1.21915 0.79737,1.87642 -0.10312,0.37184 -0.93778,0.25728 -0.92399,0.6442 0.0143,0.39853 1.02573,0.18983 0.99633,0.58746 -0.0279,0.37662 -0.97871,0.0219 -1.01442,0.39776 -0.0373,0.39245 0.87306,0.24158 0.96016,0.62528 0.0964,0.42479 -0.76602,0.69816 -0.65215,1.11819 0.10904,0.40223 1.01488,0.15432 1.06918,0.56854 0.0413,0.31448 -0.69084,0.32749 -0.67076,0.64421 0.0244,0.38468 0.9472,0.27995 0.90642,0.66312 -0.0441,0.41454 -1.08912,0.0583 -1.10692,0.47504 -0.0232,0.54284 1.40109,0.20706 1.38338,0.75013 -0.0146,0.44784 -1.16325,0.0884 -1.17875,0.53612 -0.0146,0.42327 0.97444,0.17972 1.07643,0.58963 0.0962,0.38674 -0.74004,0.62173 -0.62736,1.00359 0.11858,0.40187 1.05736,0.0668 1.11416,0.48316 0.0334,0.24464 -0.52613,0.21865 -0.55242,0.46425 -0.0313,0.29264 0.52054,0.39734 0.52554,0.69175 0.005,0.2937 -0.54257,0.42064 -0.49816,0.71069 0.0617,0.40241 0.94585,0.30317 0.95085,0.71067 0.005,0.42636 -1.02074,0.3434 -0.97823,0.76744 0.0434,0.43286 1.03259,0.1272 1.13274,0.54963 0.10683,0.45065 -0.82347,0.64451 -0.80667,1.10845 0.0216,0.59915 1.15265,0.74569 1.14154,1.34516 -0.008,0.42433 -0.85283,0.49501 -0.84233,0.91928 0.009,0.36408 0.72788,0.38593 0.76068,0.74851 0.032,0.35347 -0.6694,0.51491 -0.5979,0.86201 0.082,0.39829 0.91156,0.21356 1.01494,0.60638 0.0847,0.3218 -0.5571,0.55024 -0.4713,0.87173 0.1807,0.67693 1.71902,0.33113 1.75753,1.03278 0.0573,1.04323 -2.43477,1.08152 -2.42778,1.83858 0.0132,1.50307 0.21756,2.37795 0.21756,2.37795 l -0.58911,1.08033 1.16273,-0.5988 c 0,0 0.10387,-3.76188 2.99518,-4.12032 3.17756,0.72357 2.85304,3.09353 4.22819,4.958 l 0.8196,-0.0265 -0.58912,-0.26806 -0.38447,-0.77715 c 0,0 -0.27878,-0.75509 -0.30748,-1.15276 -0.0531,-0.73585 0.77666,-1.699 0.25632,-2.19743 -0.58294,-0.34053 -2.34391,0.95516 -2.29341,-1.55432 0.0507,-0.37315 0.22748,-0.64907 0.49971,-0.77715 0.4669,-0.21967 1.25925,0.67276 1.5224,0.21347 0.21237,-0.37068 -0.85094,-0.64011 -0.72503,-1.05171 0.10882,-0.35586 0.91573,-9.2e-4 1.01493,-0.35992 0.11337,-0.40987 -0.79319,-0.56894 -0.7705,-0.99495 0.0189,-0.35456 0.66774,-0.39851 0.72502,-0.74851 0.0816,-0.49845 -0.72547,-0.86805 -0.63407,-1.36462 0.0849,-0.46105 0.91193,-0.48624 0.99633,-0.94739 0.0853,-0.46615 -0.76374,-0.83744 -0.5979,-1.27923 0.11354,-0.30247 0.83033,-0.0284 0.86972,-0.35075 0.0499,-0.40862 -0.95015,-0.30804 -0.96015,-0.71987 -0.0107,-0.45168 0.99302,-0.39181 1.01442,-0.84308 0.0142,-0.29893 -0.6517,-0.32834 -0.616,-0.62529 0.0417,-0.34671 0.82073,-0.17588 0.86973,-0.52153 0.0426,-0.30058 -0.64471,-0.36323 -0.59791,-0.66313 0.0712,-0.456 1.15003,-0.1923 1.16893,-0.65392 0.0159,-0.38773 -0.92327,-0.24653 -0.93329,-0.63448 -0.0101,-0.40227 0.95827,-0.30913 0.93329,-0.71069 -0.0172,-0.27643 -0.66343,-0.12359 -0.69763,-0.3983 -0.0402,-0.32346 0.69574,-0.34656 0.67954,-0.67231 -0.0144,-0.2902 -0.64465,-0.24065 -0.66145,-0.53071 -0.0256,-0.44141 0.92968,-0.48697 0.90588,-0.92848 -0.0177,-0.32802 -0.7361,-0.27792 -0.7431,-0.60637 -0.008,-0.41443 0.8509,-0.39538 0.9064,-0.80581 0.0436,-0.32264 -0.58466,-0.4964 -0.51676,-0.81444 0.057,-0.26697 0.64737,-0.154 0.67076,-0.42641 0.029,-0.33648 -0.76042,-0.33706 -0.72502,-0.67285 0.0348,-0.33023 0.78445,-0.15492 0.83354,-0.48316 0.0532,-0.3554 -0.70742,-0.42661 -0.70642,-0.78634 10e-4,-0.37083 0.57027,-0.47674 0.73381,-0.80579 0.17045,-0.34294 -0.0622,-0.88386 0.21705,-1.1371 0.32904,-0.29846 0.98192,0.23003 1.30483,-0.0756 0.58015,-0.54917 0.87107,-1.80378 0.36226,-2.42551 -0.56556,-0.69105 -1.83748,-0.41964 -2.60916,0 -1.25031,0.67993 -1.01929,3.59267 -2.42829,3.61934 -0.81045,0.0154 -1.32575,-1.19311 -1.46762,-2.02774 -0.13042,-0.76726 0.94283,-1.51803 0.65267,-2.2358 -0.1557,-0.38516 -0.99093,-0.0955 -1.06713,-0.57341 -0.25622,-1.60794 1.0525,-6.95624 1.4113,-10.45592 0.17562,-1.71297 -0.49353,-3.68212 0.36225,-5.1542 1.14952,-1.97732 4.03473,-2.06052 5.65344,-3.63825 0.57631,-0.56171 1.02227,-1.27327 1.37718,-2.00881 0.56619,-1.1735 0.52559,-2.61738 1.15962,-3.7523 0.63826,-1.14249 1.54993,-2.13983 2.57297,-2.91837 0.7663,-0.58316 1.63445,-1.21622 2.58175,-1.24518 0.93547,-0.0285 1.69152,1.23793 2.6138,1.07169 0.84732,-0.15274 1.08892,-1.72474 1.94768,-1.76886 1.15047,-0.0592 1.73102,1.69473 2.81895,2.09042 0.61402,0.22331 1.43782,0.53001 1.94717,0.10755 0.91109,-0.75564 -0.28488,-2.82097 0.61495,-3.59123 1.21653,-1.04134 3.50498,1.15602 4.71548,0.10701 1.0402,-0.90143 -0.42951,-3.35439 0.66611,-4.18086 0.98177,-0.74062 2.54059,1.22546 3.58738,0.58962 0.91638,-0.55663 0.16563,-2.64361 1.12758,-3.10862 2.86444,-1.3847 8.21002,0.10706 8.91782,3.32317 0.82303,3.73967 1.23878,8.45005 -7.71066,8.21634 -3.49077,-0.0912 1.8747,7.0504 3.17087,10.44133 0.37902,0.99159 0.47218,2.31955 1.341,2.88055 0.89431,0.57745 2.8678,1.02017 3.15281,-0.0378 0.16632,-0.61742 -1.18469,-0.5151 -1.55858,-1.0236 -0.44718,-0.6082 -1.27215,-1.78785 -0.65216,-2.19797 0.69364,-0.45883 1.05233,2.06759 1.8123,1.74346 0.63846,-0.27231 0.29885,-1.4676 0.10853,-2.16069 -0.2322,-0.84556 -1.15716,-1.33526 -1.44954,-2.16014 -0.25734,-0.72608 -0.52193,-1.60611 -0.21756,-2.31201 0.88206,-2.0457 3.82176,-2.23818 5.21883,-3.94143 0.95908,-1.16928 1.57277,-2.64442 2.01179,-4.11494 0.34672,-1.16135 0.46647,-2.40107 0.46147,-3.61771 -0.006,-1.38966 -0.0178,-2.86042 -0.5638,-4.12735 -0.74202,-1.72169 -2.03588,-3.22552 -3.51092,-4.3149 -1.56797,-1.15802 -3.4661,-2.00586 -5.3811,-2.14393 -0.16614,-0.012 -0.33411,-0.0175 -0.50229,-0.0162 z m -54.278485,10.8899 c 1.306547,0.0301 2.491774,1.02075 3.734672,1.50783 2.198373,0.86151 4.271433,2.1321 6.559853,2.68005 1.28615,0.30798 2.62889,0.3932 3.94655,0.32156 1.69992,-0.0924 3.40248,-0.41805 5.02246,-0.96468 2.06907,-0.69817 3.87042,-2.08911 5.89372,-2.92109 0.50031,-0.20572 1.0017,-0.55014 1.53789,-0.50963 0.89925,0.068 2.43448,1.23329 2.43448,1.23329 0,0 -2.66234,0.39525 -3.66489,1.23274 -0.72112,0.60238 -1.06333,1.59711 -1.40922,2.49197 -0.28963,0.74928 -0.25838,1.60503 -0.53795,2.35849 -0.29324,0.79029 -0.63858,1.59241 -1.17874,2.22446 -0.62863,0.73557 -1.48054,1.23847 -2.30633,1.71535 -1.33448,0.77067 -2.96576,0.92879 -4.2282,1.82237 -0.36518,0.2585 -0.69369,0.59724 -0.92294,0.99117 -0.39322,0.67569 -0.61262,1.46812 -0.71728,2.25149 -0.16092,1.20439 0.20441,2.42978 0.154,3.64474 -0.0852,2.05239 -0.76895,6.11023 -0.76895,6.11023 0,0 -0.84806,-3.76213 -0.97359,-5.68167 -0.0857,-1.31121 0.25046,-2.62891 0.15348,-3.93927 -0.0611,-0.82619 0.0144,-1.77641 -0.46147,-2.43901 -1.30548,-1.81779 -4.01043,-1.8321 -5.79142,-3.13565 -1.064852,-0.7794 -2.14129,-1.6342 -2.869602,-2.76003 -0.931638,-1.44014 -0.715986,-3.5314 -1.768383,-4.87749 -0.760544,-0.97279 -1.868361,-1.77912 -3.049447,-2.00989 -0.744315,-0.14544 -2.229335,0.45559 -2.229335,0.45559 0,0 1.977103,-1.70109 3.17761,-1.79589 0.08821,-0.007 0.17593,-0.009 0.263032,-0.007 z m 13.549125,32.97072 c 0.42908,0.0115 0.84936,0.47438 0.94827,0.91119 0.0611,0.26962 -0.21496,0.50914 -0.28216,0.77714 -0.14463,0.57683 -0.22456,1.17347 -0.25631,1.76887 -0.0367,0.68731 -0.27207,1.47981 0.077,2.06341 0.28779,0.48115 1.43575,0.23666 1.43506,0.80417 -0.001,0.77931 -1.22792,1.10933 -1.97302,1.09873 -0.7956,-0.0113 -2.09435,-0.40084 -2.07585,-1.23275 0.014,-0.63106 1.28104,-0.33145 1.61438,-0.85768 0.34047,-0.5375 0.17313,-1.28637 0.12816,-1.92938 -0.0408,-0.5837 -0.2502,-1.14121 -0.35863,-1.71537 -0.0571,-0.30257 -0.25571,-0.62167 -0.154,-0.91118 0.13389,-0.38112 0.50897,-0.78756 0.8971,-0.77715 z m -0.11213,8.27902 a 2.1917087,0.74135867 0 0 1 2.1916,0.74148 2.1917087,0.74135867 0 0 1 -2.1916,0.7415 2.1917087,0.74135867 0 0 1 -2.19162,-0.7415 2.1917087,0.74135867 0 0 1 2.19162,-0.74148 z m 0.0362,3.07025 a 1.5031457,0.83610963 0 0 1 1.50328,0.83607 1.5031457,0.83610963 0 0 1 -1.50328,0.83605 1.5031457,0.83610963 0 0 1 -1.50275,-0.83605 1.5031457,0.83610963 0 0 1 1.50275,-0.83607 z m 0.0909,2.84219 a 1.5031458,0.74135867 0 0 1 1.50276,0.74148 1.5031458,0.74135867 0 0 1 -1.50276,0.74149 1.5031458,0.74135867 0 0 1 -1.50327,-0.74149 1.5031458,0.74135867 0 0 1 1.50327,-0.74148 z m 0,2.44496 a 1.5031457,0.83610963 0 0 1 1.50276,0.83605 1.5031457,0.83610963 0 0 1 -1.50276,0.83607 1.5031457,0.83610963 0 0 1 -1.50327,-0.83607 1.5031457,0.83610963 0 0 1 1.50327,-0.83605 z m -0.0909,2.51089 a 1.4669054,0.93086064 0 0 1 1.4671,0.93063 1.4669054,0.93086064 0 0 1 -1.4671,0.93064 1.4669054,0.93086064 0 0 1 -1.46658,-0.93064 1.4669054,0.93086064 0 0 1 1.46658,-0.93063 z m 0.108,2.39901 a 1.4669056,1.2435387 0 0 1 1.46711,1.24356 1.4669056,1.2435387 0 0 1 -1.46711,1.24355 1.4669056,1.2435387 0 0 1 -1.46657,-1.24355 1.4669056,1.2435387 0 0 1 1.46657,-1.24356 z"
         style="opacity:1;fill:#d1616f;fill-opacity:1;stroke:none;stroke-width:0.27057767px;stroke-linecap:butt;stroke-linejoin:miter;stroke-opacity:1"
         inkscape:connector-curvature="0" />
      <path
         sodipodi:nodetypes="ccssaaaaaaaaaaaaaaasc"
         inkscape:connector-curvature="0"
         id="path5596"
         d="m 93.392478,168.78588 0.0837,-2.55532 c 0,0 -3.006867,0.85714 -3.927122,2.04584 -1.119299,1.4458 -1.188417,3.38973 -4.421308,4.09324 -1.619342,0.35238 -0.772305,-1.87044 -1.37713,-2.65302 -0.420053,-0.54352 -1.074846,-0.84517 -1.522079,-1.36442 -0.825296,-0.95819 -1.029795,-2.54656 -2.101933,-3.18364 -1.091996,-0.64887 -2.525186,-0.0203 -3.759423,-0.26342 -1.565079,-0.30833 -2.992078,-1.81433 -4.556588,-1.50286 -2.339735,0.4658 -4.347126,2.55774 -5.548202,4.7087 -0.780777,1.39826 -1.303445,3.26658 -0.77681,4.78924 0.457648,1.32321 2.165979,1.70001 3.064646,2.74723 0.678909,0.79112 0.824491,2.13472 1.723457,2.63082 1.109816,0.61246 2.509794,-0.0111 3.764572,0.005 1.111557,0.0132 2.238794,0.27431 3.334102,0.0758 0.980455,-0.17766 1.859811,-0.74077 2.788665,-1.11403 0.773456,-0.3108 1.672011,-0.39532 2.318616,-0.93719 0.311842,-0.26133 0.322572,-0.82831 0.665513,-1.04282 1.340488,-0.83845 3.364381,0.43693 4.664369,-0.46859 1.6193,-1.12793 1.27085,-4.06526 2.754248,-5.38185 1.436969,-1.27539 2.828706,-0.62754 2.828706,-0.62754 z"
         style="fill:#f09696;fill-opacity:1;stroke:none;stroke-width:0.27057767px;stroke-linecap:butt;stroke-linejoin:miter;stroke-opacity:1" />
      <path
         sodipodi:nodetypes="ccssaaaaaaaaaaaaaaasc"
         inkscape:connector-curvature="0"
         id="path5596-1"
         d="m 122.35477,168.78588 -0.0837,-2.55532 c 0,0 3.00685,0.85714 3.9271,2.04584 1.11929,1.4458 1.18842,3.38973 4.42128,4.09324 1.61934,0.35238 0.7723,-1.87044 1.37713,-2.65302 0.42004,-0.54352 1.07483,-0.84517 1.52206,-1.36442 0.82529,-0.95819 1.02979,-2.54656 2.10193,-3.18364 1.09199,-0.64887 2.52517,-0.0203 3.7594,-0.26342 1.56507,-0.30833 2.99206,-1.81433 4.55656,-1.50286 2.33973,0.4658 4.34709,2.55774 5.54816,4.7087 0.78078,1.39826 1.30345,3.26658 0.77682,4.78924 -0.45766,1.32321 -2.16598,1.70001 -3.06464,2.74723 -0.6789,0.79112 -0.82448,2.13472 -1.72344,2.63082 -1.10982,0.61246 -2.50978,-0.0111 -3.76456,0.005 -1.11154,0.0132 -2.23877,0.27431 -3.33407,0.0758 -0.98046,-0.17766 -1.8598,-0.74077 -2.78865,-1.11403 -0.77345,-0.3108 -1.672,-0.39532 -2.31861,-0.93719 -0.31184,-0.26133 -0.32256,-0.82831 -0.6655,-1.04282 -1.34049,-0.83845 -3.36437,0.43693 -4.66435,-0.46859 -1.61928,-1.12793 -1.27085,-4.06526 -2.75423,-5.38185 -1.43696,-1.27539 -2.82869,-0.62754 -2.82869,-0.62754 z"
         style="fill:#f09696;fill-opacity:1;stroke:none;stroke-width:0.27057767px;stroke-linecap:butt;stroke-linejoin:miter;stroke-opacity:1" />
      <path
         sodipodi:nodetypes="aaaascaaacaaaaacaaaa"
         inkscape:connector-curvature="0"
         id="path5613"
         d="m 70.045944,174.97446 c -0.613574,-1.08062 -2.584885,-0.57667 -3.255713,-1.61941 -0.70247,-1.09193 -0.55573,-2.67402 -0.217441,-3.94163 0.397255,-1.4886 1.299703,-2.93532 2.510428,-3.82145 1.192859,-0.87305 2.824428,-1.63458 4.229486,-1.14081 2.604777,0.91534 3.582313,2.31842 3.582313,2.31842 0,0 0.402082,-1.21194 0.912226,-1.37361 0.820085,-0.2599 1.791891,0.34552 2.391845,0.98541 0.631554,0.67357 0.782684,1.72453 0.942244,2.65303 0.166673,0.96987 0,2.95622 0,2.95622 0,0 0.304053,-3.31816 1.377129,-3.10782 1.499049,0.29382 0.650244,3.22557 0.289922,4.77544 -0.19969,0.85897 -0.643583,1.72316 -1.304647,2.27403 -0.914227,0.76184 -2.193934,0.86729 -3.334092,1.137 -0.546583,0.1293 -1.256998,0.62685 -1.667049,0.22741 -0.301063,-0.29328 0.0725,-1.28862 0.0725,-1.28862 0,0 -0.892716,1.19405 -1.52209,1.51602 -0.877815,0.44908 -1.953011,0.71021 -2.899218,0.45481 -0.884314,-0.23871 -1.793021,-0.87555 -2.174402,-1.74342 -0.168093,-0.38252 0.272081,-0.89905 0.0666,-1.26102 z"
         style="fill:#f7b6b4;fill-opacity:1;stroke:none;stroke-width:0.27057767px;stroke-linecap:butt;stroke-linejoin:miter;stroke-opacity:1" />
      <path
         sodipodi:nodetypes="aaaascaaacaaaaacaaaa"
         inkscape:connector-curvature="0"
         id="path5613-5"
         d="m 146.07454,175.07379 c 0.61357,-1.08063 2.58487,-0.57666 3.2557,-1.61941 0.70247,-1.09193 0.55572,-2.67402 0.21744,-3.94164 -0.39726,-1.48858 -1.2997,-2.9353 -2.51042,-3.82144 -1.19285,-0.87306 -2.82441,-1.63458 -4.22947,-1.14082 -2.60475,0.91536 -3.58228,2.31842 -3.58228,2.31842 0,0 -0.40208,-1.21193 -0.91222,-1.37361 -0.82009,-0.25989 -1.79189,0.34554 -2.39184,0.98542 -0.63154,0.67358 -0.78267,1.72453 -0.94223,2.65303 -0.16667,0.96987 0,2.95623 0,2.95623 0,0 -0.30405,-3.31817 -1.37713,-3.10783 -1.49904,0.29382 -0.65023,3.22558 -0.28992,4.77544 0.1997,0.85897 0.64358,1.72316 1.30464,2.27403 0.91423,0.76184 2.19392,0.86729 3.33407,1.13701 0.54659,0.1293 1.257,0.62685 1.66705,0.2274 0.30106,-0.29328 -0.0725,-1.28861 -0.0725,-1.28861 0,0 0.89271,1.19403 1.52209,1.51601 0.87781,0.44907 1.953,0.71022 2.8992,0.4548 0.88431,-0.2387 1.79301,-0.87553 2.17439,-1.74342 0.16809,-0.38251 -0.27208,-0.89904 -0.0666,-1.26101 z"
         style="fill:#f7b6b4;fill-opacity:1;stroke:none;stroke-width:0.27057767px;stroke-linecap:butt;stroke-linejoin:miter;stroke-opacity:1" />
      <path
         sodipodi:nodetypes="ccc"
         inkscape:connector-curvature="0"
         id="path4576"
         d="m 63.453338,108.46428 44.433382,96.49725 44.83175,-98.56079"
         style="fill:#ffba95;fill-opacity:1;stroke:none;stroke-width:0.84777874;stroke-linecap:butt;stroke-linejoin:miter;stroke-miterlimit:4;stroke-dasharray:none;stroke-opacity:1" />
      <ellipse
         ry="38.669998"
         rx="47.20348"
         cy="95.110176"
         cx="107.70986"
         id="path4540"
         style="opacity:1;fill:#ffccaa;fill-opacity:1;stroke:none;stroke-width:0.52697289;stroke-linecap:round;stroke-miterlimit:4;stroke-dasharray:none;stroke-opacity:1" />
      <path
         sodipodi:nodetypes="ccsaacaccaaaaaaaaac"
         inkscape:connector-curvature="0"
         id="path5496"
         d="m 108.03545,118.20188 c -2.91483,-0.15479 -7.20881,5.1972 -7.20881,5.1972 0,0 -5.800907,1.12612 -5.676236,-0.89889 0.280764,-4.56047 2.442504,-7.24088 3.040117,-11.00904 0.403188,-2.54217 0.615827,-5.15992 0.351614,-7.72196 -0.435946,-4.227212 -3.164445,-12.318365 -3.164445,-12.318365 0,0 -5.856926,-10.241329 -6.680487,-15.995459 -0.424901,-2.96874 0.98509,-8.946327 0.98509,-8.946327 l 37.113227,0.552956 c 0,0 0.11731,7.228088 -0.62155,10.72548 -0.80674,3.818909 -2.74255,7.277162 -4.10225,10.920488 -1.1877,3.182403 -2.72612,6.247733 -3.54287,9.555425 -0.69014,2.794922 -1.05323,5.694602 -1.1188,8.580382 -0.0504,2.21807 0.20598,4.44263 0.5594,6.63031 0.48049,2.97432 3.39435,6.07276 2.11329,8.77539 -0.4803,1.01327 -1.90703,1.22444 -2.98347,1.33256 -1.37128,0.13776 -2.80484,-0.27232 -4.04009,-0.91004 -1.97152,-1.01784 -2.82784,-4.35355 -5.02368,-4.47011 z"
         style="fill:#f8b7b5;fill-opacity:1;stroke:none;stroke-width:0.46406731px;stroke-linecap:butt;stroke-linejoin:miter;stroke-opacity:1" />
      <path
         sodipodi:nodetypes="aaaaaaaaaaaaaaaaaaaaaaaaaaaaaaaaa"
         inkscape:connector-curvature="0"
         id="path5498"
         d="m 100.69019,121.82695 c -0.798075,0.3006 -1.922792,-0.44379 -2.2376,-1.26756 -0.311241,-0.81444 0.146984,-1.92356 0.776944,-2.50261 0.379982,-0.34931 1.202446,0.14152 1.491736,-0.29252 0.6729,-1.00968 -0.871261,-2.44498 -0.59048,-3.64017 0.31043,-1.32146 1.89027,-1.98193 2.36191,-3.25013 0.77681,-2.08881 0.64992,-4.45491 0.59048,-6.69529 -0.1096,-4.12757 0.7656,-9.062206 -1.74036,-12.253058 -0.87969,-1.120118 -3.053303,-0.327903 -3.915797,-1.462568 -1.453692,-1.912405 -0.504774,-4.857934 -0.808022,-7.280319 -0.13052,-1.042147 -0.05574,-2.146875 -0.435089,-3.120145 -0.445105,-1.141768 -1.610573,-1.860065 -2.082194,-2.990138 -0.430715,-1.032067 -0.964783,-2.247788 -0.621556,-3.315136 0.654863,-2.036403 2.54596,-4.351507 4.599494,-4.290199 1.69873,0.05076 3.129884,2.063774 3.605024,3.770175 0.21361,0.767193 -0.61422,1.550458 -0.49725,2.34009 0.22741,1.535122 0.93743,3.278993 2.2376,4.030187 3.08488,1.782328 7.88553,2.00252 10.56643,-0.390018 1.47743,-1.318517 0.18081,-4.201609 1.11878,-5.980259 0.96264,-1.825394 2.38701,-4.646891 4.35089,-4.290199 2.51965,0.457622 3.92323,4.516131 3.48071,7.150313 -0.30438,1.811834 -3.18408,2.069084 -3.85364,3.770175 -0.83656,2.125369 0.50784,4.60795 0.24862,6.890302 -0.32493,2.860957 -1.72396,5.489831 -2.2376,8.320368 -0.61346,3.380659 -0.65471,6.847889 -0.99449,10.270479 -0.20226,2.0373 -1.04093,4.10952 -0.62155,6.11027 0.53715,2.56263 3.73276,4.13985 3.85364,6.76029 0.0794,1.72326 -0.48359,4.41244 -2.11329,4.68022 -1.55663,0.25576 -2.2849,-2.29069 -3.23207,-3.60767 -0.60871,-0.84636 -0.72167,-2.12668 -1.55385,-2.73012 -1.86855,-1.35497 -4.47387,-1.68232 -6.7128,-1.26756 -1.25262,0.23203 -2.46283,1.00814 -3.29423,2.01509 -1.01457,1.22882 -0.27982,3.96759 -1.74039,4.51771 z"
         style="fill:#f29697;fill-opacity:1;stroke:none;stroke-width:0.46406731px;stroke-linecap:butt;stroke-linejoin:miter;stroke-opacity:1" />
      <path
         sodipodi:nodetypes="ccccccccccccccccccccac"
         inkscape:connector-curvature="0"
         id="path5502"
         d="m 107.66252,118.00687 c -2.07341,-0.0402 -5.07161,3.76837 -5.07161,3.76837 l 0.25838,-4.65351 3.8237,-3.35537 -1.36249,-2.98766 -0.90098,-6.22813 -0.32962,-9.054904 -1.23061,-15.443902 3.25234,-3.125543 0.1758,-2.298208 -1.23062,-4.228694 c 3.05996,-3.219999 2.70342,-2.104885 4.88123,-2.130768 l 1.49432,1.011206 -1.14272,6.343031 3.69186,2.298208 -1.3652,23.458024 -1.31852,8.08966 -2.02172,3.86099 3.95556,4.68833 0.35859,4.74122 c 0,0 -3.43107,-4.7041 -5.91769,-4.75238 z"
         style="fill:#ef8996;fill-opacity:1;stroke:none;stroke-width:0.46406731px;stroke-linecap:butt;stroke-linejoin:miter;stroke-opacity:1" />
      <path
         id="path5504"
         d="m 105.88014,69.2074 c 0,0 -1.17567,-0.01435 -1.46064,0.422663 -0.2291,0.3507 -0.0434,0.880195 0.12418,1.267074 0.0816,0.188552 0.32887,0.263707 0.40416,0.455129 0.489,1.243003 0.70498,2.831254 0.12401,4.030205 -0.41431,0.855084 -1.3566,1.726221 -2.26806,1.624878 -1.61764,-0.179888 -2.35411,-2.364879 -3.356437,-3.704867 -0.757821,-1.013089 -0.903743,-2.644281 -1.988875,-3.249756 -0.859321,-0.479487 -2.208152,-0.628901 -2.921277,0.06493 -0.487554,0.474339 -0.0307,1.403054 -0.186998,2.079989 -0.104793,0.453694 -0.654331,0.862671 -0.497227,1.299522 0.466544,1.296957 2.630531,0.88016 3.542575,1.885339 0.772519,0.851406 1.680172,2.090966 1.367576,3.218241 -0.176862,0.637761 -1.608395,0.441281 -1.584726,1.104872 0.02453,0.683518 1.759221,0.325589 1.708797,1.007546 -0.04785,0.645941 -1.678594,0.03749 -1.739824,0.682209 -0.06397,0.673079 1.497376,0.414323 1.646762,1.072424 0.165337,0.728558 -1.313808,1.19739 -1.118508,1.917787 0.187015,0.689885 1.74063,0.264693 1.83376,0.975117 0.07083,0.539342 -1.184866,0.561673 -1.150426,1.104871 0.04185,0.65977 1.624551,0.480151 1.554592,1.13732 -0.07564,0.710979 -1.867943,0.100087 -1.898472,0.814744 -0.03979,0.931028 2.403008,0.355131 2.372628,1.286554 -0.025,0.76809 -1.995081,0.151566 -2.021665,0.919495 -0.02504,0.725956 1.671255,0.308244 1.846175,1.011259 0.165,0.663304 -1.269229,1.066344 -1.075971,1.721271 0.203378,0.68924 1.813471,0.114616 1.910891,0.828663 0.0573,0.419578 -0.90237,0.375005 -0.94746,0.796215 -0.0537,0.501926 0.89278,0.681491 0.90135,1.186448 0.009,0.503702 -0.93054,0.721437 -0.85439,1.218896 0.10582,0.690173 1.62223,0.519953 1.63081,1.218879 0.009,0.73123 -1.75067,0.588937 -1.67777,1.316221 0.0744,0.742392 1.771,0.218152 1.94277,0.942672 0.18322,0.7729 -1.41234,1.1054 -1.38353,1.90109 0.0371,1.02762 1.97691,1.27893 1.95787,2.30709 -0.0137,0.72778 -1.4627,0.84898 -1.44469,1.57666 0.0154,0.62444 1.24839,0.66191 1.30465,1.28377 0.0549,0.60623 -1.1481,0.88312 -1.02546,1.47843 0.14063,0.6831 1.5634,0.36629 1.74071,1.03999 0.14527,0.55194 -0.95547,0.94373 -0.80831,1.49511 0.3099,1.16099 2.94829,0.56791 3.01432,1.77133 0.0983,1.78923 -4.17586,1.85492 -4.16387,3.15335 0.0226,2.57791 0.37313,4.0784 0.37313,4.0784 l -1.01038,1.85289 1.99419,-1.02701 c 0,0 0.17815,-6.45198 5.13704,-7.06676 5.44983,1.24101 4.89324,5.30572 7.25176,8.50346 l 1.40568,-0.0454 -1.01038,-0.45974 -0.65941,-1.3329 c 0,0 -0.47814,-1.29505 -0.52736,-1.9771 -0.0911,-1.26205 1.33204,-2.91394 0.43961,-3.76881 -0.9998,-0.58404 -4.02004,1.6382 -3.93343,-2.66581 0.087,-0.63998 0.39015,-1.11321 0.85706,-1.33288 0.80078,-0.37677 2.15973,1.15385 2.61106,0.36612 0.36424,-0.63577 -1.45943,-1.09786 -1.2435,-1.80378 0.18664,-0.61035 1.57057,-0.002 1.74071,-0.61731 0.19445,-0.70296 -1.3604,-0.97578 -1.32149,-1.70644 0.0324,-0.60809 1.14525,-0.68348 1.24349,-1.28377 0.13995,-0.85487 -1.24426,-1.48879 -1.0875,-2.34045 0.14561,-0.79074 1.56406,-0.83395 1.70882,-1.62488 0.14629,-0.79948 -1.3099,-1.43629 -1.02547,-2.19399 0.19474,-0.518778 1.42409,-0.0488 1.49165,-0.601574 0.0856,-0.700827 -1.62959,-0.528329 -1.64675,-1.234645 -0.0183,-0.774691 1.70313,-0.672002 1.73983,-1.445976 0.0243,-0.512688 -1.11772,-0.563126 -1.05649,-1.072442 0.0715,-0.594641 1.40762,-0.301643 1.49166,-0.894473 0.0731,-0.515522 -1.10573,-0.622981 -1.02546,-1.13732 0.12212,-0.782081 1.97241,-0.329822 2.00482,-1.121553 0.0273,-0.664989 -1.5835,-0.422824 -1.60067,-1.08819 -0.0173,-0.68994 1.64352,-0.530177 1.60067,-1.218897 -0.0295,-0.474105 -1.13785,-0.211977 -1.19651,-0.683123 -0.0689,-0.554768 1.19327,-0.59439 1.16549,-1.153086 -0.0247,-0.497711 -1.10565,-0.412744 -1.13446,-0.910222 -0.0439,-0.757059 1.5945,-0.835192 1.55368,-1.59243 -0.0303,-0.56257 -1.26249,-0.476653 -1.27449,-1.039994 -0.0137,-0.710783 1.45938,-0.678102 1.55457,-1.382032 0.0748,-0.553369 -1.00276,-0.851389 -0.8863,-1.396847 0.0978,-0.457891 1.11029,-0.26412 1.15043,-0.731338 0.0497,-0.577081 -1.30421,-0.578086 -1.24349,-1.154001 0.0597,-0.566373 1.3454,-0.265698 1.42961,-0.828663 0.0912,-0.609546 -1.2133,-0.731678 -1.21159,-1.348651 0.002,-0.636021 0.97808,-0.817667 1.25855,-1.382013 0.29234,-0.588184 -0.10668,-1.515894 0.37226,-1.950234 0.56434,-0.511881 1.6841,0.39452 2.23793,-0.129683 0.995,-0.941881 1.49396,-3.093652 0.6213,-4.159978 -0.96998,-1.185229 -3.15146,-0.719733 -4.47496,0 -2.1444,1.166144 -1.74818,6.16178 -4.16477,6.207519 -1.38999,0.02637 -2.27379,-2.046304 -2.51711,-3.477769 -0.22368,-1.315935 1.61706,-2.603565 1.1194,-3.834622 -0.26704,-0.660595 -1.83022,-0.983458 -1.83022,-0.983458 -4.53909,-1.43559 -3.82621,0.528204 -3.82621,0.528204 z m 2.2433,0.226847 c 0.73592,0.01973 1.45674,0.813614 1.62638,1.56278 0.1048,0.462429 -0.36868,0.873218 -0.48393,1.332885 -0.24806,0.989305 -0.38515,2.012618 -0.4396,3.033779 -0.063,1.178807 -0.46663,2.538005 0.13206,3.538951 0.49358,0.825219 2.46245,0.405892 2.46127,1.379234 -0.002,1.336597 -2.10602,1.902611 -3.38393,1.884423 -1.36454,-0.01937 -3.59202,-0.687482 -3.56029,-2.114284 0.024,-1.082325 2.19712,-0.568471 2.76882,-1.471016 0.58394,-0.921862 0.29694,-2.206228 0.21981,-3.309073 -0.07,-1.001089 -0.4291,-1.957283 -0.61509,-2.942014 -0.0979,-0.518948 -0.43855,-1.066236 -0.26413,-1.562763 0.22966,-0.653671 0.87294,-1.35075 1.53863,-1.332902 z m -0.19232,14.199338 c 2.07621,3.6e-5 3.75918,0.569422 3.75882,1.27172 3.8e-4,0.702298 -1.68258,1.271702 -3.75882,1.271738 -2.07624,-3.6e-5 -3.75921,-0.56944 -3.75883,-1.271738 -3.6e-4,-0.702298 1.68261,-1.271684 3.75883,-1.27172 z m 0.0621,5.265782 c 1.42385,-7.2e-5 2.5782,0.641941 2.57827,1.433941 -8e-5,0.792 -1.15442,1.433994 -2.57827,1.433922 -1.42349,-1.97e-4 -2.5773,-0.64212 -2.57738,-1.433922 7e-5,-0.791803 1.15387,-1.433744 2.57738,-1.433941 z m 0.1559,4.874634 c 1.42373,1.79e-4 2.57762,0.56953 2.57738,1.27172 2.4e-4,0.702191 -1.15365,1.271541 -2.57738,1.27172 -1.42407,5.4e-5 -2.57851,-0.569368 -2.57827,-1.27172 -2.4e-4,-0.702352 1.1542,-1.271774 2.57827,-1.27172 z m 0,4.19334 c 1.42349,1.97e-4 2.5773,0.64212 2.57738,1.433923 -7e-5,0.791806 -1.15387,1.433746 -2.57738,1.433946 -1.42385,7e-5 -2.5782,-0.64194 -2.57827,-1.433946 9e-5,-0.792 1.15442,-1.433995 2.57827,-1.433923 z m -0.1559,4.306439 c 1.38937,-1.1e-4 2.51588,0.71446 2.51622,1.59612 -3.3e-4,0.88167 -1.12683,1.59625 -2.51622,1.59615 -1.38905,-2e-4 -2.51502,-0.7147 -2.51535,-1.59615 3.5e-4,-0.88145 1.12632,-1.59592 2.51535,-1.59612 z m 0.18523,4.11454 c 1.38963,-1.6e-4 2.51625,0.9548 2.51624,2.13283 1e-5,1.17804 -1.12661,2.13298 -2.51624,2.13281 -1.38927,-2.6e-4 -2.51534,-0.95508 -2.51533,-2.13281 -1e-5,-1.17773 1.12604,-2.13256 2.51533,-2.13283 z"
         style="opacity:1;fill:#d1616f;fill-opacity:1;stroke:none;stroke-width:0.46406731px;stroke-linecap:butt;stroke-linejoin:miter;stroke-opacity:1"
         inkscape:connector-curvature="0"
         sodipodi:nodetypes="cccccccccccsccccccccccccccccccccccccccccccccccccccccccccccccccccccccccccccccccccccccccccscccscccccccccccscccccccccccccccccccccccccccccc" />
    </g>
  </g>
</svg>
