<?xml version="1.0" encoding="UTF-8" standalone="no"?>
<!-- Created with Inkscape (http://www.inkscape.org/) -->

<svg
   xmlns:dc="http://purl.org/dc/elements/1.1/"
   xmlns:cc="http://creativecommons.org/ns#"
   xmlns:rdf="http://www.w3.org/1999/02/22-rdf-syntax-ns#"
   xmlns:svg="http://www.w3.org/2000/svg"
   xmlns="http://www.w3.org/2000/svg"
   xmlns:sodipodi="http://sodipodi.sourceforge.net/DTD/sodipodi-0.dtd"
   xmlns:inkscape="http://www.inkscape.org/namespaces/inkscape"
   width="137.05417mm"
   height="195.79167mm"
   viewBox="0 0 137.05417 195.79168"
   version="1.1"
   id="svg5952"
   inkscape:version="0.92+devel unknown"
   sodipodi:docname="conducto-deferente.spng.svg"
   inkscape:export-filename="/home/fundacion/Documentos/fundecyt_02/conozco_mi_cuerpo/conozco-mi-cuerpo/img/masculino/conducto-deferente.png"
   inkscape:export-xdpi="96"
   inkscape:export-ydpi="96">
  <defs
     id="defs5946" />
  <sodipodi:namedview
     id="base"
     pagecolor="#ffffff"
     bordercolor="#666666"
     borderopacity="1.0"
     inkscape:pageopacity="0.0"
     inkscape:pageshadow="2"
     inkscape:zoom="0.64531252"
     inkscape:cx="281.91102"
     inkscape:cy="341.76264"
     inkscape:document-units="mm"
     inkscape:current-layer="layer1"
     showgrid="false"
     inkscape:window-width="1920"
     inkscape:window-height="1012"
     inkscape:window-x="0"
     inkscape:window-y="32"
     inkscape:window-maximized="1"
     inkscape:document-rotation="0"
     fit-margin-top="0"
     fit-margin-left="0"
     fit-margin-right="0"
     fit-margin-bottom="0" />
  <metadata
     id="metadata5949">
    <rdf:RDF>
      <cc:Work
         rdf:about="">
        <dc:format>image/svg+xml</dc:format>
        <dc:type
           rdf:resource="http://purl.org/dc/dcmitype/StillImage" />
        <dc:title></dc:title>
      </cc:Work>
    </rdf:RDF>
  </metadata>
  <g
     inkscape:label="Capa 1"
     inkscape:groupmode="layer"
     id="layer1"
     transform="translate(-232.02934,-309.76947)">
    <g
       id="g4413"
       transform="translate(343.32989,189.04581)">
      <path
         sodipodi:nodetypes="asacasa"
         inkscape:connector-curvature="0"
         id="path38"
         d="m -79.186669,169.93084 c 7.78458,0.0311 19.219747,6.92444 18.450114,14.31777 -0.332246,3.19174 -2.076158,6.49147 -4.349866,8.87612 -3.702493,3.88318 -14.100248,7.76343 -14.100248,7.76343 0,0 -10.200422,-3.98195 -13.940991,-7.76343 -2.367396,-2.39328 -4.747174,-5.39587 -4.81721,-8.87612 -0.160263,-7.9646 10.892249,-14.34924 18.758201,-14.31777 z"
         style="fill:#fbccbc;fill-opacity:1;stroke:none;stroke-width:0.33338648px;stroke-linecap:butt;stroke-linejoin:miter;stroke-opacity:1" />
      <ellipse
         ry="9.2871952"
         rx="6.3700624"
         cy="248.15759"
         cx="-63.850182"
         id="path845-3"
         style="fill:#f5a294;fill-opacity:1;stroke:none;stroke-width:0.75093824" />
      <path
         id="path889"
         d="m -101.38112,170.50446 c -1.04521,-0.0205 -2.11533,0.11201 -3.14047,0.38352 -2.05028,0.54301 -3.96379,1.65363 -5.05484,3.41591 -2.64281,4.26877 -1.68498,9.15048 0.008,13.90521 1.69215,4.75473 4.1337,9.55777 4.91745,13.86745 0.91318,5.02142 2.25405,9.90149 2.63323,14.8129 0.20548,2.6613 -0.67389,5.63375 -0.17972,8.7833 0.24992,1.59276 0.94806,2.97545 1.55754,4.27282 0.6095,1.29736 1.127543,2.5036 1.215696,3.70372 0.08996,1.22491 -0.373287,2.57621 -0.880996,4.05336 -0.50771,1.47716 -1.06221,3.09586 -0.77292,4.86539 0.1338,0.81829 0.56733,1.48445 0.94547,2.06477 0.378148,0.5803 0.735787,1.02621 0.735787,1.02621 a 0.94503257,0.94503257 0 0 0 1.326383,0.1478 0.94503257,0.94503257 0 0 0 0.14782,-1.32898 c 0,0 -0.304307,-0.38017 -0.627704,-0.87645 -0.323389,-0.4963 -0.632467,-1.15683 -0.662222,-1.33875 -0.19427,-1.18828 0.194312,-2.49311 0.694123,-3.94725 0.4998,-1.45413 1.10891,-3.04005 0.979323,-4.80415 -0.119831,-1.63196 -0.77044,-3.05127 -1.390195,-4.37049 -0.619755,-1.3192 -1.210365,-2.54773 -1.400615,-3.76035 -0.40629,-2.58936 0.436404,-5.50551 0.19469,-8.63616 -0.39784,-5.15316 -1.76502,-10.09672 -2.65798,-15.00693 -0.86073,-4.73303 -3.36218,-9.57693 -4.99364,-14.16112 -1.63146,-4.58421 -2.3769,-8.7322 -0.18166,-12.278 0.74609,-1.20511 2.22674,-2.13202 3.93227,-2.58374 1.70553,-0.45172 3.60035,-0.41468 5.006004,0.10093 4.930249,1.80843 9.822441,8.85899 13.267087,15.52656 3.444682,6.66755 5.545157,12.85099 5.545157,12.85099 a 0.94503257,0.94503257 0 0 0 0.0066,0.015 0.94503257,0.94503257 0 0 0 0.01952,0.0501 0.94503257,0.94503257 0 0 0 0.02018,0.045 0.94503257,0.94503257 0 0 0 0.01952,0.0371 0.94503257,0.94503257 0 0 0 0.02407,0.0417 0.94503257,0.94503257 0 0 0 0.02549,0.0397 0.94503257,0.94503257 0 0 0 0.03059,0.0423 0.94503257,0.94503257 0 0 0 0.02469,0.0306 0.94503257,0.94503257 0 0 0 0.03518,0.0397 0.94503257,0.94503257 0 0 0 0.03252,0.0333 0.94503257,0.94503257 0 0 0 0.03325,0.0306 0.94503257,0.94503257 0 0 0 0.03708,0.0306 0.94503257,0.94503257 0 0 0 0.03715,0.0286 0.94503257,0.94503257 0 0 0 0.03846,0.0255 0.94503257,0.94503257 0 0 0 0.04499,0.0274 0.94503257,0.94503257 0 0 0 0.03905,0.0208 0.94503257,0.94503257 0 0 0 0.0378,0.0183 0.94503257,0.94503257 0 0 0 0.06965,0.0294 0.94503257,0.94503257 0 0 0 0.0022,8.8e-4 0.94503257,0.94503257 0 0 0 7.53e-4,0 0.94503257,0.94503257 0 0 0 0.013,0.005 0.94503257,0.94503257 0 0 0 0.05013,0.0144 0.94503257,0.94503257 0 0 0 0.0339,0.009 0.94503257,0.94503257 0 0 0 0.04294,0.009 0.94503257,0.94503257 0 0 0 0.04954,0.009 0.94503257,0.94503257 0 0 0 0.05277,0.005 0.94503257,0.94503257 0 0 0 0.0397,0.004 0.94503257,0.94503257 0 0 0 0.06378,-8.9e-4 0.94503257,0.94503257 0 0 0 0.02866,-8.9e-4 0.94503257,0.94503257 0 0 0 0.05277,-0.005 0.94503257,0.94503257 0 0 0 0.0469,-0.007 0.94503257,0.94503257 0 0 0 0.03186,-0.007 0.94503257,0.94503257 0 0 0 0.06246,-0.0144 0.94503257,0.94503257 0 0 0 0.0022,-8.8e-4 0.94503257,0.94503257 0 0 0 0.0051,-0.002 0.94503257,0.94503257 0 0 0 0.04426,-0.013 0.94503257,0.94503257 0 0 0 0.0228,-0.009 0.94503257,0.94503257 0 0 0 0.03905,-0.0156 0.94503257,0.94503257 0 0 0 0.04815,-0.0215 0.94503257,0.94503257 0 0 0 0.03715,-0.0195 0.94503257,0.94503257 0 0 0 0.04169,-0.0241 0.94503257,0.94503257 0 0 0 0.03971,-0.0255 0.94503257,0.94503257 0 0 0 0.04235,-0.0306 0.94503257,0.94503257 0 0 0 0.03059,-0.0247 0.94503257,0.94503257 0 0 0 0.03971,-0.0351 0.94503257,0.94503257 0 0 0 0.03325,-0.0326 0.94503257,0.94503257 0 0 0 0.03187,-0.0351 0.94503257,0.94503257 0 0 0 0.02604,-0.0307 0.94503257,0.94503257 0 0 0 0.03452,-0.0457 0.94503257,0.94503257 0 0 0 0.0228,-0.0339 0.94503257,0.94503257 0 0 0 0.02549,-0.0423 0.94503257,0.94503257 0 0 0 0.0228,-0.0417 0.94503257,0.94503257 0 0 0 0.01952,-0.0411 0.94503257,0.94503257 0 0 0 0.02079,-0.0495 0.94503257,0.94503257 0 0 0 0.01129,-0.03 0.94503257,0.94503257 0 0 0 0.0015,-0.004 c 0,0 2.103099,-6.18345 5.547764,-12.85101 3.44466,-6.66757 8.334231,-13.71812 13.264482,-15.52656 1.405665,-0.51559 3.303074,-0.55264 5.008607,-0.10093 1.705534,0.45173 3.186183,1.37865 3.932272,2.58375 2.195246,3.5458 1.449809,7.69378 -0.181661,12.278 -1.631463,4.5842 -4.135514,9.42809 -4.996249,14.16111 -0.892958,4.91022 -2.260135,9.85378 -2.657977,15.00694 -0.241716,3.13064 0.603586,6.04681 0.197299,8.63615 -0.190253,1.21263 -0.78086,2.44115 -1.400614,3.76036 -0.619755,1.31922 -1.270318,2.73853 -1.390196,4.3705 -0.12959,1.76411 0.479524,3.35002 0.979324,4.80414 0.499807,1.45414 0.888389,2.75896 0.69412,3.94724 -0.02972,0.18195 -0.341408,0.84247 -0.664813,1.33876 -0.323393,0.4963 -0.627722,0.87644 -0.627722,0.87644 a 0.94503257,0.94503257 0 0 0 0.147817,1.32899 0.94503257,0.94503257 0 0 0 1.328998,-0.14781 c 0,0 0.357638,-0.44591 0.735787,-1.0262 0.378137,-0.58032 0.809074,-1.2465 0.942867,-2.06479 0.289304,-1.76951 -0.262611,-3.38821 -0.770317,-4.86535 -0.507706,-1.47716 -0.970991,-2.82846 -0.880993,-4.05339 0.0882,-1.20011 0.606194,-2.40635 1.215686,-3.70371 0.609486,-1.29737 1.307626,-2.68004 1.557542,-4.27282 0.494174,-3.14954 -0.385199,-6.12203 -0.179721,-8.78331 0.379183,-4.9114 1.720056,-9.79146 2.633241,-14.8129 0.783747,-4.30968 3.22529,-9.11272 4.91744,-13.86744 1.692139,-4.75472 2.64998,-9.63643 0.0075,-13.90521 -1.091051,-1.76229 -3.00716,-2.8729 -5.057448,-3.41592 -1.025146,-0.27151 -2.092651,-0.40403 -3.137866,-0.38351 -1.0452,0.0205 -2.06697,0.1934 -3.00243,0.53653 -5.97453,2.19161 -10.773461,9.62186 -14.292956,16.43427 -2.17729,4.21415 -3.822245,8.22274 -4.763109,10.67394 -0.940533,-2.45115 -2.584301,-6.45986 -4.761553,-10.67419 -3.519487,-6.81241 -8.318406,-14.24265 -14.293288,-16.43426 -0.935457,-0.34314 -1.957224,-0.51604 -3.002434,-0.53654 z"
         style="color:#000000;font-style:normal;font-variant:normal;font-weight:normal;font-stretch:normal;font-size:medium;line-height:normal;font-family:sans-serif;font-variant-ligatures:normal;font-variant-position:normal;font-variant-caps:normal;font-variant-numeric:normal;font-variant-alternates:normal;font-feature-settings:normal;text-indent:0;text-align:start;text-decoration:none;text-decoration-line:none;text-decoration-style:solid;text-decoration-color:#000000;letter-spacing:normal;word-spacing:normal;text-transform:none;writing-mode:lr-tb;direction:ltr;text-orientation:mixed;dominant-baseline:auto;baseline-shift:baseline;text-anchor:start;white-space:normal;shape-padding:0;clip-rule:nonzero;display:inline;overflow:visible;visibility:visible;opacity:1;isolation:auto;mix-blend-mode:normal;color-interpolation:sRGB;color-interpolation-filters:linearRGB;solid-color:#000000;solid-opacity:1;vector-effect:none;fill:#f47d75;fill-opacity:1;fill-rule:nonzero;stroke:none;stroke-width:1.89006519;stroke-linecap:round;stroke-linejoin:bevel;stroke-miterlimit:4;stroke-dasharray:none;stroke-dashoffset:0;stroke-opacity:1;color-rendering:auto;image-rendering:auto;shape-rendering:auto;text-rendering:auto;enable-background:accumulate"
         inkscape:connector-curvature="0" />
      <ellipse
         ry="9.2871952"
         rx="6.3700624"
         cy="248.15759"
         cx="-94.86705"
         id="path845"
         style="fill:#f5a294;fill-opacity:1;stroke:none;stroke-width:0.75093824;stroke-opacity:1" />
      <path
         sodipodi:nodetypes="aaaaaaaaaaaaaaaa"
         inkscape:connector-curvature="0"
         id="path892-7"
         d="m -59.428307,250.77706 c -0.236635,-0.39781 -0.225317,-0.90317 -0.416727,-1.32462 -0.141794,-0.31219 -0.390017,-0.56776 -0.535797,-0.8781 -0.653247,-1.39059 -0.480558,-3.2064 -1.495569,-4.35976 -0.349009,-0.39657 -1.013446,-0.36515 -1.421572,-0.70057 -0.656207,-0.5393 -0.837439,-1.55858 -1.547866,-2.02414 -0.57025,-0.37371 -1.442824,-0.0781 -1.985635,-0.49071 -0.459844,-0.34947 -0.970219,-0.94426 -0.85092,-1.50938 0.2498,-1.18314 1.701105,-2.07929 2.906918,-2.17024 1.298587,-0.0979 2.481644,0.96581 3.445713,1.84131 0.936403,0.85036 1.398185,2.10831 2.101729,3.15949 0.47952,0.71647 1.165202,1.32974 1.444627,2.14531 0.583513,1.70314 0.269235,3.59085 0.364343,5.38865 0.04119,0.77837 0.373775,1.61099 0.08934,2.33668 -0.06401,0.16331 -0.19668,0.37357 -0.372074,0.37209 -0.827989,-0.008 -1.303154,-1.07438 -1.726462,-1.78601 z"
         style="fill:#d9806e;fill-opacity:1;stroke:none;stroke-width:0.33338648px;stroke-linecap:butt;stroke-linejoin:miter;stroke-opacity:1" />
      <path
         sodipodi:nodetypes="aaaaaaaaaaaaaaaa"
         inkscape:connector-curvature="0"
         id="path892"
         d="m -99.272528,250.77706 c 0.236639,-0.39781 0.225321,-0.90317 0.416735,-1.32462 0.141797,-0.31219 0.390013,-0.56776 0.535797,-0.8781 0.653247,-1.39059 0.480554,-3.2064 1.495569,-4.35976 0.349008,-0.39657 1.013439,-0.36515 1.421573,-0.70057 0.656204,-0.5393 0.837437,-1.55858 1.54786,-2.02414 0.570255,-0.37371 1.442828,-0.0781 1.98564,-0.49071 0.459836,-0.34947 0.970221,-0.94426 0.85092,-1.50938 -0.249801,-1.18314 -1.701106,-2.07929 -2.906919,-2.17024 -1.298587,-0.0979 -2.481646,0.96581 -3.445716,1.84131 -0.9364,0.85036 -1.398181,2.10831 -2.101726,3.15949 -0.47952,0.71647 -1.165205,1.32974 -1.444625,2.14531 -0.58352,1.70314 -0.26924,3.59085 -0.36434,5.38865 -0.0412,0.77837 -0.37378,1.61099 -0.0893,2.33668 0.064,0.16331 0.19669,0.37357 0.37209,0.37209 0.82798,-0.008 1.303148,-1.07438 1.726456,-1.78601 z"
         style="fill:#d9806e;fill-opacity:1;stroke:none;stroke-width:0.33338648px;stroke-linecap:butt;stroke-linejoin:miter;stroke-opacity:1" />
      <path
         sodipodi:nodetypes="cccc"
         inkscape:connector-curvature="0"
         id="path953"
         d="m -79.323104,224.30255 c 0,0 -3.258019,-6.32208 -2.652075,-8.9981 1.595199,0.46014 2.620497,1.25236 2.620497,1.25236 z"
         style="fill:#d06560;fill-opacity:1;stroke:none;stroke-width:0.33338648px;stroke-linecap:butt;stroke-linejoin:miter;stroke-opacity:1" />
      <path
         sodipodi:nodetypes="cccc"
         inkscape:connector-curvature="0"
         id="path953-3"
         d="m -79.323104,224.30255 c 0,0 3.25802,-6.32208 2.652078,-8.9981 -1.595203,0.46014 -2.620502,1.25236 -2.620502,1.25236 z"
         style="fill:#d06560;fill-opacity:1;stroke:none;stroke-width:0.33338648px;stroke-linecap:butt;stroke-linejoin:miter;stroke-opacity:1" />
      <circle
         r="0.98913419"
         cy="215.07527"
         cx="-76.081741"
         id="path978"
         style="fill:#e99c8a;fill-opacity:1;stroke:none;stroke-width:0.33747664;stroke-linecap:round;stroke-linejoin:bevel;stroke-miterlimit:4;stroke-dasharray:none;stroke-opacity:1" />
      <circle
         r="0.98913419"
         cy="215.07527"
         cx="-82.564476"
         id="path978-5"
         style="fill:#e99c8a;fill-opacity:1;stroke:none;stroke-width:0.33747664;stroke-linecap:round;stroke-linejoin:bevel;stroke-miterlimit:4;stroke-dasharray:none;stroke-opacity:1" />
      <path
         inkscape:connector-curvature="0"
         id="path1108"
         d="m -88.175825,216.82304 c -0.04433,0.004 -0.08883,0.0101 -0.133489,0.0202 -0.419827,1.2494 -0.0193,2.72352 0.27348,4.04166 0.469113,2.11177 1.857399,3.94347 2.344775,6.05109 2.68873,11.62728 -1.504101,24.63486 3.031086,35.67366 0.660176,1.60688 3.337105,4.00324 3.337105,4.00324 0,0 2.676954,-2.39636 3.337127,-4.00324 4.535189,-11.0388 0.3417,-24.04638 3.030432,-35.67366 0.487368,-2.10762 1.876318,-3.93932 2.345426,-6.05109 0.292818,-1.31814 0.692645,-2.79226 0.27283,-4.04166 -1.430137,-0.32329 -2.682457,2.98023 -3.80986,4.63095 -1.99341,2.91868 -5.175955,9.25407 -5.175955,9.25407 0,0 -3.182537,-6.33539 -5.17595,-9.25407 -1.092171,-1.59912 -2.302277,-4.74972 -3.677007,-4.65114 z"
         style="fill:#b56b6a;fill-opacity:1;stroke:none;stroke-width:0.33338648;stroke-linecap:round;stroke-linejoin:bevel;stroke-miterlimit:4;stroke-dasharray:none;stroke-opacity:1" />
      <path
         inkscape:connector-curvature="0"
         id="path1130"
         d="m -80.295921,216.50984 c -0.929619,-0.004 -2.255784,0.10874 -2.718534,0.7397 -1.410136,1.92267 0.657716,4.72575 0.85365,7.10204 0.357283,4.33318 0.589265,8.68282 0.585383,13.03073 -0.0051,5.10556 -0.629444,10.19511 -0.714958,15.29996 -0.03971,2.36609 0.929701,5.09477 0.520915,7.60147 -0.08568,0.52582 -0.110191,1.29347 -0.610124,1.47745 -0.816254,0.30038 -1.610129,-1.69164 -2.321337,-1.19094 -1.170097,0.82374 0.04323,5.29091 1.250203,7.53114 0.432929,0.80356 1.096128,1.8741 2.008788,1.86033 0.990368,-0.015 2.118819,-2.08368 2.118819,-2.08368 0,0 1.127811,2.06868 2.118182,2.08368 0.912661,0.0138 1.576508,-1.05677 2.009429,-1.86033 1.206988,-2.24023 2.420303,-6.7074 1.250203,-7.53114 -0.711199,-0.5007 -1.505731,1.49132 -2.321983,1.19094 -0.499934,-0.18398 -0.524443,-0.95163 -0.610126,-1.47745 -0.408781,-2.5067 0.560607,-5.23538 0.520914,-7.60147 -0.08551,-5.10485 -0.709262,-10.1944 -0.714305,-15.29996 -0.0038,-4.34791 0.227447,-8.69755 0.584733,-13.03073 0.195933,-2.37629 2.264431,-5.17937 0.8543,-7.10204 -0.74042,-1.00954 -3.691347,-0.69282 -3.691347,-0.69282 0,0 -0.415034,-0.0445 -0.972805,-0.0469 z"
         style="fill:#df7f80;fill-opacity:1;stroke:none;stroke-width:0.33338648px;stroke-linecap:butt;stroke-linejoin:miter;stroke-opacity:1" />
      <path
         sodipodi:nodetypes="ccccccaacccccccccccccaaccccccc"
         inkscape:connector-curvature="0"
         id="path934"
         d="m -79.91235,200.29576 v 61.7377 c -0.465965,0.18682 -0.795906,0.57795 -0.813936,1.04118 h -0.0022 v 0.0397 6.01983 c 0,0 -0.0075,0.19379 -0.06364,0.26475 -0.120967,0.15178 -0.330712,0.22403 -0.521693,0.25871 -0.3653,0.0663 -1.108137,-0.11238 -1.108137,-0.11238 0,0 0.806684,0.62505 1.137343,0.6301 0.183348,0.002 0.37912,-0.13218 0.556067,-0.3041 v 0.004 c 0.0038,-0.004 0.0075,-0.009 0.01005,-0.013 0.07573,-0.0746 0.144095,-0.15194 0.209669,-0.23246 0.330207,-0.31206 0.75723,-0.49427 1.200057,-0.49553 0.441675,8.8e-4 0.867868,0.18145 1.198115,0.49163 0.06892,0.0848 0.140554,0.16612 0.220728,0.24418 l 0.0022,0.002 v -0.002 c 0.176946,0.17192 0.373371,0.30717 0.556733,0.30409 0.33065,-0.005 1.220861,-0.73533 1.220861,-0.73533 0,0 -0.77594,0.26708 -1.169329,0.21774 -0.187054,-0.0234 -0.387623,-0.097 -0.513201,-0.23767 -0.06687,-0.0749 -0.09501,-0.28592 -0.09501,-0.28592 v -6.01984 -0.0397 h -0.0015 c -0.01803,-0.46333 -0.347912,-0.8544 -0.813933,-1.04117 v -61.73661 z"
         style="color:#000000;font-style:normal;font-variant:normal;font-weight:normal;font-stretch:normal;font-size:medium;line-height:normal;font-family:sans-serif;font-variant-ligatures:normal;font-variant-position:normal;font-variant-caps:normal;font-variant-numeric:normal;font-variant-alternates:normal;font-feature-settings:normal;text-indent:0;text-align:start;text-decoration:none;text-decoration-line:none;text-decoration-style:solid;text-decoration-color:#000000;letter-spacing:normal;word-spacing:normal;text-transform:none;writing-mode:lr-tb;direction:ltr;text-orientation:mixed;dominant-baseline:auto;baseline-shift:baseline;text-anchor:start;white-space:normal;shape-padding:0;clip-rule:nonzero;display:inline;overflow:visible;visibility:visible;opacity:1;isolation:auto;mix-blend-mode:normal;color-interpolation:sRGB;color-interpolation-filters:linearRGB;solid-color:#000000;solid-opacity:1;vector-effect:none;fill:#d06764;fill-opacity:1;fill-rule:nonzero;stroke:none;stroke-width:1.16106904;stroke-linecap:butt;stroke-linejoin:miter;stroke-miterlimit:4;stroke-dasharray:none;stroke-dashoffset:0;stroke-opacity:1;color-rendering:auto;image-rendering:auto;shape-rendering:auto;text-rendering:auto;enable-background:accumulate" />
      <path
         sodipodi:nodetypes="aaaaacaaazsa"
         inkscape:connector-curvature="0"
         id="path936"
         d="m -89.618844,189.06002 c 0.822662,0.47685 1.118646,1.55319 1.814814,2.20089 0.87614,0.81514 2.119891,1.19513 2.927199,2.07848 0.472189,0.51669 0.627829,1.26151 1.057072,1.81438 0.331786,0.42736 0.805267,0.72735 1.156152,1.13917 1.245397,1.46159 3.340491,4.69324 3.340491,4.69324 0,0 -4.540527,-2.04923 -6.73891,-3.21651 -0.714775,-0.37953 -1.467541,-0.7165 -2.093652,-1.22927 -0.399722,-0.32735 -0.644945,-0.81445 -1.032858,-1.15571 -0.687706,-0.60501 -1.240691,-0.44722 -2.265549,-1.55501 -1.024865,-1.10779 -3.832573,-4.28228 -2.609975,-5.52996 1.011588,-1.03234 3.144654,0.007 4.445216,0.7603 z"
         style="fill:#d56758;fill-opacity:1;stroke:none;stroke-width:0.33391145;stroke-linecap:butt;stroke-linejoin:miter;stroke-miterlimit:4;stroke-dasharray:none;stroke-opacity:1" />
      <path
         sodipodi:nodetypes="aaaaacaaazsa"
         inkscape:connector-curvature="0"
         id="path936-5"
         d="m -69.027392,189.06002 c -0.822654,0.47685 -1.118637,1.55319 -1.814815,2.20089 -0.876145,0.81514 -2.119897,1.19513 -2.927191,2.07848 -0.472189,0.51669 -0.627843,1.26151 -1.057087,1.81438 -0.331787,0.42736 -0.805259,0.72735 -1.156143,1.13917 -1.245389,1.46159 -3.340488,4.69324 -3.340488,4.69324 0,0 4.540517,-2.04923 6.738898,-3.21651 0.714775,-0.37953 1.467551,-0.7165 2.093667,-1.22927 0.399725,-0.32735 0.644922,-0.81445 1.032863,-1.15571 0.687688,-0.60501 1.240681,-0.44722 2.265539,-1.55501 1.024873,-1.10779 3.832572,-4.28228 2.609978,-5.52996 -1.011584,-1.03234 -3.144653,0.007 -4.445221,0.7603 z"
         style="fill:#d56758;fill-opacity:1;stroke:none;stroke-width:0.33391145;stroke-linecap:butt;stroke-linejoin:miter;stroke-miterlimit:4;stroke-dasharray:none;stroke-opacity:1" />
      <path
         sodipodi:nodetypes="aaaaaaa"
         inkscape:connector-curvature="0"
         id="path1148"
         d="m -79.383785,200.26748 c 2.943295,-0.009 6.9927,0.26699 8.347004,2.88022 1.086215,2.09594 -0.541861,4.92402 -1.972445,6.80185 -1.511334,1.98381 -3.88065,3.91248 -6.374559,3.91687 -2.508297,0.005 -4.929227,-1.90345 -6.4251,-3.91687 -1.397204,-1.88059 -2.871057,-4.73372 -1.770314,-6.80185 1.360469,-2.5561 5.299819,-2.87198 8.195414,-2.88022 z"
         style="fill:#a15258;fill-opacity:1;stroke:none;stroke-width:0.33338648px;stroke-linecap:butt;stroke-linejoin:miter;stroke-opacity:1" />
      <path
         id="path1163"
         d="m -61.826947,160.92712 c 0,0 -0.775994,1.46794 -1.02625,2.58899 -0.557148,2.4958 -0.320898,5.01779 -0.189498,7.41013 0.131415,2.39234 0.159237,4.63937 -0.60541,6.63 -0.242065,0.63018 -1.089504,1.75203 -1.867913,2.61361 -0.778412,0.86157 -1.471694,1.5086 -1.471694,1.5086 l 1.247739,1.34126 c 0,0 0.748172,-0.6957 1.58489,-1.62181 0.836726,-0.92611 1.775991,-2.0355 2.217398,-3.18458 0.93183,-2.42588 0.859671,-4.95436 0.725991,-7.38798 -0.13368,-2.43361 -0.325971,-4.78885 0.14766,-6.91054 0.122234,-0.54773 0.878582,-2.17309 0.878582,-2.17309 z"
         style="color:#000000;font-style:normal;font-variant:normal;font-weight:normal;font-stretch:normal;font-size:medium;line-height:normal;font-family:sans-serif;font-variant-ligatures:normal;font-variant-position:normal;font-variant-caps:normal;font-variant-numeric:normal;font-variant-alternates:normal;font-feature-settings:normal;text-indent:0;text-align:start;text-decoration:none;text-decoration-line:none;text-decoration-style:solid;text-decoration-color:#000000;letter-spacing:normal;word-spacing:normal;text-transform:none;writing-mode:lr-tb;direction:ltr;text-orientation:mixed;dominant-baseline:auto;baseline-shift:baseline;text-anchor:start;white-space:normal;shape-padding:0;clip-rule:nonzero;display:inline;overflow:visible;visibility:visible;opacity:1;isolation:auto;mix-blend-mode:normal;color-interpolation:sRGB;color-interpolation-filters:linearRGB;solid-color:#000000;solid-opacity:1;vector-effect:none;fill:#c28d65;fill-opacity:1;fill-rule:nonzero;stroke:none;stroke-width:1.83362556;stroke-linecap:butt;stroke-linejoin:miter;stroke-miterlimit:4;stroke-dasharray:none;stroke-dashoffset:0;stroke-opacity:1;color-rendering:auto;image-rendering:auto;shape-rendering:auto;text-rendering:auto;enable-background:accumulate"
         inkscape:connector-curvature="0" />
      <path
         id="path1163-7"
         d="m -96.819281,160.92712 c 0,0 0.775982,1.46794 1.026239,2.58899 0.557138,2.49578 0.320908,5.01778 0.189497,7.41012 -0.131411,2.39235 -0.159243,4.63937 0.605413,6.62999 0.242065,0.63018 1.089499,1.75204 1.867918,2.61361 0.77841,0.86157 1.471688,1.5086 1.471688,1.5086 l -1.24773,1.34127 c 0,0 -0.748179,-0.69571 -1.584897,-1.62182 -0.836732,-0.9261 -1.775995,-2.03549 -2.217383,-3.18456 -0.931859,-2.42589 -0.859679,-4.95437 -0.725999,-7.38799 0.133676,-2.43361 0.325957,-4.78886 -0.147671,-6.91054 -0.12222,-0.54772 -0.878574,-2.17308 -0.878574,-2.17308 z"
         style="color:#000000;font-style:normal;font-variant:normal;font-weight:normal;font-stretch:normal;font-size:medium;line-height:normal;font-family:sans-serif;font-variant-ligatures:normal;font-variant-position:normal;font-variant-caps:normal;font-variant-numeric:normal;font-variant-alternates:normal;font-feature-settings:normal;text-indent:0;text-align:start;text-decoration:none;text-decoration-line:none;text-decoration-style:solid;text-decoration-color:#000000;letter-spacing:normal;word-spacing:normal;text-transform:none;writing-mode:lr-tb;direction:ltr;text-orientation:mixed;dominant-baseline:auto;baseline-shift:baseline;text-anchor:start;white-space:normal;shape-padding:0;clip-rule:nonzero;display:inline;overflow:visible;visibility:visible;opacity:1;isolation:auto;mix-blend-mode:normal;color-interpolation:sRGB;color-interpolation-filters:linearRGB;solid-color:#000000;solid-opacity:1;vector-effect:none;fill:#c28d65;fill-opacity:1;fill-rule:nonzero;stroke:none;stroke-width:1.83362556;stroke-linecap:butt;stroke-linejoin:miter;stroke-miterlimit:4;stroke-dasharray:none;stroke-dashoffset:0;stroke-opacity:1;color-rendering:auto;image-rendering:auto;shape-rendering:auto;text-rendering:auto;enable-background:accumulate"
         inkscape:connector-curvature="0" />
      <path
         sodipodi:nodetypes="cccc"
         inkscape:connector-curvature="0"
         id="path5812"
         d="m -20.279662,160.88057 -28.078335,19.80961 4.863683,45.68277 z"
         style="fill:#ffba95;fill-opacity:1;stroke:none;stroke-width:0.57671094;stroke-linecap:butt;stroke-linejoin:miter;stroke-miterlimit:4;stroke-dasharray:none;stroke-opacity:1" />
      <ellipse
         ry="61.115925"
         rx="34.772491"
         cy="218.61949"
         cx="-9.1013622"
         id="path5766"
         style="opacity:1;fill:#ffccaa;fill-opacity:1;stroke:none;stroke-width:0.32989627;stroke-linecap:round;stroke-miterlimit:4;stroke-dasharray:none;stroke-opacity:1" />
      <path
         sodipodi:nodetypes="ccccccccc"
         id="path889-7"
         d="m -0.59541806,168.04428 c 0,0 -17.37511094,4.93558 -22.15767494,10.19547 -11.584657,12.74103 -7.386036,27.31149 0.03323,41.50294 7.417458,14.19145 21.5554151,41.39022 21.5554151,41.39022 l 8.1432157,-1.01255 c 0,0 -14.7379803,-28.58428 -21.8893998,-42.26672 -7.151442,-13.68251 -10.419078,-26.06302 -0.796308,-36.6462 3.270451,-3.59688 17.2369368,-7.71169 17.2369368,-7.71169 z"
         style="color:#000000;font-style:normal;font-variant:normal;font-weight:normal;font-stretch:normal;font-size:medium;line-height:normal;font-family:sans-serif;font-variant-ligatures:normal;font-variant-position:normal;font-variant-caps:normal;font-variant-numeric:normal;font-variant-alternates:normal;font-feature-settings:normal;text-indent:0;text-align:start;text-decoration:none;text-decoration-line:none;text-decoration-style:solid;text-decoration-color:#000000;letter-spacing:normal;word-spacing:normal;text-transform:none;writing-mode:lr-tb;direction:ltr;text-orientation:mixed;dominant-baseline:auto;baseline-shift:baseline;text-anchor:start;white-space:normal;shape-padding:0;clip-rule:nonzero;display:inline;overflow:visible;visibility:visible;opacity:1;isolation:auto;mix-blend-mode:normal;color-interpolation:sRGB;color-interpolation-filters:linearRGB;solid-color:#000000;solid-opacity:1;vector-effect:none;fill:#f47d75;fill-opacity:1;fill-rule:nonzero;stroke:none;stroke-width:6.83653021;stroke-linecap:round;stroke-linejoin:bevel;stroke-miterlimit:4;stroke-dasharray:none;stroke-dashoffset:0;stroke-opacity:1;color-rendering:auto;image-rendering:auto;shape-rendering:auto;text-rendering:auto;enable-background:accumulate"
         inkscape:connector-curvature="0" />
      <path
         sodipodi:nodetypes="csccccccscc"
         id="path889-7-9"
         d="m -0.30975569,168.7862 c 0,0 -8.34880291,2.51469 -14.93698531,5.9859 -4.131303,2.17672 -7.244083,5.22123 -8.164317,6.7076 -5.783705,9.34206 -4.545256,20.55649 -0.84116,30.96205 3.70321,10.40554 25.02954466,48.43566 25.02954466,48.43566 l 4.15941014,-0.50416 c 0,0 -21.8100198,-39.40703 -25.3804108,-49.43935 -3.570399,-10.03239 -4.253786,-19.51834 0.550431,-27.27821 0.623513,-1.00711 3.251792,-3.64887 6.919243,-5.52009 5.9365217,-3.02895 14.1695528,-5.5003 14.1695528,-5.5003 z"
         style="color:#000000;font-style:normal;font-variant:normal;font-weight:normal;font-stretch:normal;font-size:medium;line-height:normal;font-family:sans-serif;font-variant-ligatures:normal;font-variant-position:normal;font-variant-caps:normal;font-variant-numeric:normal;font-variant-alternates:normal;font-feature-settings:normal;text-indent:0;text-align:start;text-decoration:none;text-decoration-line:none;text-decoration-style:solid;text-decoration-color:#000000;letter-spacing:normal;word-spacing:normal;text-transform:none;writing-mode:lr-tb;direction:ltr;text-orientation:mixed;dominant-baseline:auto;baseline-shift:baseline;text-anchor:start;white-space:normal;shape-padding:0;clip-rule:nonzero;display:inline;overflow:visible;visibility:visible;opacity:1;isolation:auto;mix-blend-mode:normal;color-interpolation:sRGB;color-interpolation-filters:linearRGB;solid-color:#000000;solid-opacity:1;vector-effect:none;fill:#a15258;fill-opacity:1;fill-rule:nonzero;stroke:none;stroke-width:4.13634062;stroke-linecap:round;stroke-linejoin:bevel;stroke-miterlimit:4;stroke-dasharray:none;stroke-dashoffset:0;stroke-opacity:1;color-rendering:auto;image-rendering:auto;shape-rendering:auto;text-rendering:auto;enable-background:accumulate"
         inkscape:connector-curvature="0" />
    </g>
  </g>
</svg>
