<?xml version="1.0" encoding="UTF-8" standalone="no"?>
<!-- Created with Inkscape (http://www.inkscape.org/) -->

<svg
   xmlns:dc="http://purl.org/dc/elements/1.1/"
   xmlns:cc="http://creativecommons.org/ns#"
   xmlns:rdf="http://www.w3.org/1999/02/22-rdf-syntax-ns#"
   xmlns:svg="http://www.w3.org/2000/svg"
   xmlns="http://www.w3.org/2000/svg"
   xmlns:sodipodi="http://sodipodi.sourceforge.net/DTD/sodipodi-0.dtd"
   xmlns:inkscape="http://www.inkscape.org/namespaces/inkscape"
   width="210mm"
   height="297mm"
   viewBox="0 0 210 297"
   version="1.1"
   id="svg5952"
   inkscape:version="0.92.1 r"
   sodipodi:docname="conducto-deferente.spng.svg">
  <defs
     id="defs5946" />
  <sodipodi:namedview
     id="base"
     pagecolor="#ffffff"
     bordercolor="#666666"
     borderopacity="1.0"
     inkscape:pageopacity="0.0"
     inkscape:pageshadow="2"
     inkscape:zoom="0.16132813"
     inkscape:cx="467.5229"
     inkscape:cy="331.3773"
     inkscape:document-units="mm"
     inkscape:current-layer="layer1"
     showgrid="false"
     inkscape:window-width="1366"
     inkscape:window-height="708"
     inkscape:window-x="0"
     inkscape:window-y="32"
     inkscape:window-maximized="1" />
  <metadata
     id="metadata5949">
    <rdf:RDF>
      <cc:Work
         rdf:about="">
        <dc:format>image/svg+xml</dc:format>
        <dc:type
           rdf:resource="http://purl.org/dc/dcmitype/StillImage" />
        <dc:title></dc:title>
      </cc:Work>
    </rdf:RDF>
  </metadata>
  <g
     inkscape:label="Capa 1"
     inkscape:groupmode="layer"
     id="layer1">
    <g
       id="g6635">
      <ellipse
         ry="137.97716"
         rx="78.503426"
         cy="141.55081"
         cx="119.32372"
         id="path5766"
         style="opacity:1;fill:#ffccaa;fill-opacity:1;stroke:#552200;stroke-width:0.74478382;stroke-linecap:round;stroke-miterlimit:4;stroke-dasharray:none;stroke-opacity:1" />
      <path
         sodipodi:nodetypes="asacasa"
         inkscape:connector-curvature="0"
         id="path38"
         d="m -52.669914,28.517651 c 21.376755,0.08546 52.77816528,19.01476 50.6647253,39.317136 -0.91236,8.764637 -5.70121,17.82582 -11.9449003,24.374165 -10.16719,10.663358 -38.719825,21.318678 -38.719825,21.318678 0,0 -28.010755,-10.93459 -38.282501,-21.318678 -6.500961,-6.572028 -13.035925,-14.817265 -13.228245,-24.374165 -0.44009,-21.871102 29.910536,-39.40356 51.510746,-39.317136 z"
         style="fill:#fbccbc;fill-opacity:1;stroke:none;stroke-width:0.91549218px;stroke-linecap:butt;stroke-linejoin:miter;stroke-opacity:1" />
      <ellipse
         ry="25.502996"
         rx="17.492437"
         cy="243.33131"
         cx="-10.555326"
         id="path845-3"
         style="fill:#f5a294;fill-opacity:1;stroke:none;stroke-width:2.06210542" />
      <ellipse
         ry="25.502996"
         rx="17.492437"
         cy="243.33131"
         cx="-95.728851"
         id="path845"
         style="fill:#f5a294;fill-opacity:1;stroke:none;stroke-width:2.06210542;stroke-opacity:1" />
      <path
         id="path889"
         d="m -113.61673,30.092808 c -2.87019,-0.05643 -5.80877,0.307607 -8.62385,1.053171 -5.63015,1.491125 -10.88473,4.540922 -13.88079,9.38022 -7.25727,11.722222 -4.62702,25.127588 0.0208,38.184246 4.64671,13.056663 11.3513,26.246015 13.5035,38.080555 2.50762,13.78902 6.1897,27.18987 7.23096,40.67681 0.56425,7.308 -1.85053,15.47047 -0.49352,24.11926 0.68629,4.37378 2.60342,8.17072 4.27707,11.73333 1.67369,3.56262 3.09627,6.875 3.33834,10.17056 0.24704,3.36365 -1.02506,7.07439 -2.41926,11.1307 -1.39418,4.05632 -2.91685,8.50133 -2.12245,13.36052 0.36741,2.24706 1.5579,4.07639 2.59628,5.66996 1.03842,1.59352 2.02051,2.81799 2.02051,2.81799 a 2.5950959,2.5950959 0 0 0 3.6423,0.40587 2.5950959,2.5950959 0 0 0 0.40592,-3.64943 c 0,0 -0.83564,-1.04395 -1.7237,-2.40676 -0.88804,-1.36284 -1.73678,-3.17668 -1.81849,-3.67625 -0.53347,-3.26306 0.53359,-6.84617 1.90609,-10.8393 1.37247,-3.99309 3.04511,-8.34809 2.68926,-13.1924 -0.32906,-4.48141 -2.11566,-8.3789 -3.81753,-12.00151 -1.70187,-3.62258 -3.32371,-6.99618 -3.84615,-10.32608 -1.11568,-7.11048 1.19839,-15.11834 0.53464,-23.71521 -1.0925,-14.15079 -4.84682,-27.72601 -7.29891,-41.20964 -2.36361,-12.99708 -9.23268,-26.298608 -13.71273,-38.886962 -4.48006,-12.588433 -6.52708,-23.978958 -0.49885,-33.715868 2.04879,-3.30927 6.11471,-5.854599 10.79817,-7.095056 4.68345,-1.240435 9.8867,-1.138729 13.74667,0.277157 13.538653,4.966014 26.972803,24.327122 36.431933,42.636527 9.45923,18.309357 15.227215,35.289342 15.227215,35.289342 a 2.5950959,2.5950959 0 0 0 0.0181,0.0412 2.5950959,2.5950959 0 0 0 0.0536,0.13767 2.5950959,2.5950959 0 0 0 0.0554,0.12355 2.5950959,2.5950959 0 0 0 0.0536,0.10183 2.5950959,2.5950959 0 0 0 0.0661,0.11449 2.5950959,2.5950959 0 0 0 0.07,0.10908 2.5950959,2.5950959 0 0 0 0.084,0.11629 2.5950959,2.5950959 0 0 0 0.0678,0.0841 2.5950959,2.5950959 0 0 0 0.0966,0.10908 2.5950959,2.5950959 0 0 0 0.0893,0.0914 2.5950959,2.5950959 0 0 0 0.0913,0.084 2.5950959,2.5950959 0 0 0 0.101809,0.0841 2.5950959,2.5950959 0 0 0 0.102021,0.0786 2.5950959,2.5950959 0 0 0 0.105608,0.07 2.5950959,2.5950959 0 0 0 0.123553,0.0752 2.5950959,2.5950959 0 0 0 0.107219,0.0571 2.5950959,2.5950959 0 0 0 0.103799,0.0502 2.5950959,2.5950959 0 0 0 0.19127,0.0807 2.5950959,2.5950959 0 0 0 0.006,0.002 2.5950959,2.5950959 0 0 0 0.0021,0 2.5950959,2.5950959 0 0 0 0.0357,0.0142 2.5950959,2.5950959 0 0 0 0.137649,0.0395 2.5950959,2.5950959 0 0 0 0.0931,0.0242 2.5950959,2.5950959 0 0 0 0.117912,0.0242 2.5950959,2.5950959 0 0 0 0.136049,0.0242 2.5950959,2.5950959 0 0 0 0.14492,0.0142 2.5950959,2.5950959 0 0 0 0.109029,0.0104 2.5950959,2.5950959 0 0 0 0.175152,-0.002 2.5950959,2.5950959 0 0 0 0.0787,-0.002 2.5950959,2.5950959 0 0 0 0.144918,-0.0142 2.5950959,2.5950959 0 0 0 0.12878,-0.0182 2.5950959,2.5950959 0 0 0 0.0875,-0.0181 2.5950959,2.5950959 0 0 0 0.171521,-0.0395 2.5950959,2.5950959 0 0 0 0.006,-0.002 2.5950959,2.5950959 0 0 0 0.0141,-0.006 2.5950959,2.5950959 0 0 0 0.121531,-0.0357 2.5950959,2.5950959 0 0 0 0.0626,-0.0242 2.5950959,2.5950959 0 0 0 0.10723,-0.0429 2.5950959,2.5950959 0 0 0 0.13221,-0.059 2.5950959,2.5950959 0 0 0 0.10201,-0.0536 2.5950959,2.5950959 0 0 0 0.114491,-0.0661 2.5950959,2.5950959 0 0 0 0.10904,-0.07 2.5950959,2.5950959 0 0 0 0.1163,-0.0841 2.5950959,2.5950959 0 0 0 0.084,-0.0678 2.5950959,2.5950959 0 0 0 0.109048,-0.0965 2.5950959,2.5950959 0 0 0 0.0913,-0.0896 2.5950959,2.5950959 0 0 0 0.0875,-0.0965 2.5950959,2.5950959 0 0 0 0.0715,-0.0841 2.5950959,2.5950959 0 0 0 0.0948,-0.12536 2.5950959,2.5950959 0 0 0 0.0626,-0.0931 2.5950959,2.5950959 0 0 0 0.07,-0.11631 2.5950959,2.5950959 0 0 0 0.0626,-0.11449 2.5950959,2.5950959 0 0 0 0.0536,-0.11287 2.5950959,2.5950959 0 0 0 0.0571,-0.13605 2.5950959,2.5950959 0 0 0 0.031,-0.0824 2.5950959,2.5950959 0 0 0 0.004,-0.0104 c 0,0 5.77519,-16.980006 15.234374,-35.289368 9.45917,-18.309405 22.88612,-37.670492 36.4247803,-42.636528 3.86001,-1.415846 9.0703697,-1.517568 13.7538297,-0.277153 4.68346,1.240456 8.74938,3.785804 10.79817,7.095056 6.02823,9.736907 3.98123,21.127431 -0.49885,33.715867 -4.48006,12.588394 -11.35628,25.889916 -13.71989,38.886956 -2.4520997,13.48367 -6.2064197,27.05887 -7.2989097,41.20964 -0.66376,8.59686 1.65747,16.60477 0.54179,23.71521 -0.52244,3.32991 -2.14427,6.7035 -3.84614002,10.32608 -1.70187,3.62263 -3.48833998,7.52011 -3.81752998,12.00155 -0.35586,4.84432 1.31679,9.19929 2.68925998,13.19237 1.37249002,3.99312 2.43955002,7.57622 1.90608002,10.83929 -0.0816,0.49962 -0.93752002,2.31345 -1.82560002,3.67627 -0.88804998,1.36286 -1.72374998,2.40675 -1.72374998,2.40675 a 2.5950959,2.5950959 0 0 0 0.40591,3.64946 2.5950959,2.5950959 0 0 0 3.64948,-0.40591 c 0,0 0.98209,-1.22447 2.0205,-2.81798 1.03838,-1.59358 2.22175,-3.42293 2.58915,-5.66999 0.79444,-4.85915 -0.72114,-9.30416 -2.11532,-13.36045 -1.39418,-4.05633 -2.66638,-7.76707 -2.41924,-11.13075 0.24219,-3.29556 1.66463,-6.60794 3.33832,-10.17053 1.67367,-3.56264 3.59079,-7.35951 4.27707,-11.73333 1.3570197,-8.64878 -1.05777,-16.81133 -0.49352,-24.1193 1.0412497,-13.48691 4.7233397,-26.88774 7.2309797,-40.67681 2.1522,-11.83454 8.85677,-25.023878 13.50348,-38.080539 4.64668,-13.05664 7.27695,-26.462005 0.0207,-38.184227 -2.99607,-4.839319 -8.25778,-7.889095 -13.88795,-9.380241 -2.81509,-0.745583 -5.7465,-1.109486 -8.6166997,-1.053153 -2.87016,0.05643 -5.67598,0.531093 -8.24479002,1.473351 C -17.119239,37.582797 -30.297289,57.986538 -39.961959,76.693685 -45.94088,88.265898 -50.457989,99.273655 -53.04164,106.00473 -55.624378,99.273782 -60.138228,88.265721 -66.117047,76.693013 -75.781696,57.985865 -88.959711,37.582127 -105.36697,31.563886 c -2.5688,-0.942258 -5.37462,-1.417056 -8.24479,-1.473351 z"
         style="color:#000000;font-style:normal;font-variant:normal;font-weight:normal;font-stretch:normal;font-size:medium;line-height:normal;font-family:sans-serif;font-variant-ligatures:normal;font-variant-position:normal;font-variant-caps:normal;font-variant-numeric:normal;font-variant-alternates:normal;font-feature-settings:normal;text-indent:0;text-align:start;text-decoration:none;text-decoration-line:none;text-decoration-style:solid;text-decoration-color:#000000;letter-spacing:normal;word-spacing:normal;text-transform:none;writing-mode:lr-tb;direction:ltr;text-orientation:mixed;dominant-baseline:auto;baseline-shift:baseline;text-anchor:start;white-space:normal;shape-padding:0;clip-rule:nonzero;display:inline;overflow:visible;visibility:visible;opacity:1;isolation:auto;mix-blend-mode:normal;color-interpolation:sRGB;color-interpolation-filters:linearRGB;solid-color:#000000;solid-opacity:1;vector-effect:none;fill:#f47d75;fill-opacity:1;fill-rule:nonzero;stroke:none;stroke-width:5.19019222;stroke-linecap:round;stroke-linejoin:bevel;stroke-miterlimit:4;stroke-dasharray:none;stroke-dashoffset:0;stroke-opacity:1;color-rendering:auto;image-rendering:auto;shape-rendering:auto;text-rendering:auto;enable-background:accumulate"
         inkscape:connector-curvature="0" />
      <path
         sodipodi:nodetypes="aaaaaaaaaaaaaaaa"
         inkscape:connector-curvature="0"
         id="path892-7"
         d="m 1.5873113,250.52448 c -0.64981002,-1.09239 -0.61873002,-2.48014 -1.14435002,-3.63746 -0.38937,-0.85728 -1.071,-1.55908 -1.47131998,-2.4113 -1.79384,-3.81862 -1.31963,-8.8049 -4.10689,-11.97206 -0.95839,-1.08901 -2.78296,-1.00272 -3.90369,-1.9238 -1.8019703,-1.48094 -2.2996403,-4.27991 -4.2505003,-5.55836 -1.56593,-1.02621 -3.96205,-0.21454 -5.45263,-1.3475 -1.26275,-0.95967 -2.66426,-2.593 -2.33666,-4.14483 0.68596,-3.24894 4.6713,-5.70982 7.98251,-5.95955 3.5659703,-0.26885 6.8146903,2.65215 9.4620603,5.05629 2.5714,2.33514 3.83946998,5.78952 5.77143,8.6761 1.31678,1.96743 3.19969,3.65151 3.967,5.8911 1.60235,4.67688 0.73933,9.8606 1.0005,14.79745 0.11311,2.13742 1.0264,4.42382 0.24532,6.41661 -0.17576,0.44845 -0.54009,1.02584 -1.02173,1.02176 -2.27369,-0.0207 -3.57851,-2.95027 -4.74093,-4.90445 z"
         style="fill:#d9806e;fill-opacity:1;stroke:none;stroke-width:0.91549218px;stroke-linecap:butt;stroke-linejoin:miter;stroke-opacity:1" />
      <path
         sodipodi:nodetypes="aaaaaaaaaaaaaaaa"
         inkscape:connector-curvature="0"
         id="path892"
         d="m -107.82646,250.52448 c 0.64982,-1.09239 0.61874,-2.48014 1.14437,-3.63746 0.38938,-0.85728 1.07099,-1.55908 1.47132,-2.4113 1.79384,-3.81862 1.31962,-8.8049 4.10689,-11.97206 0.95839,-1.08901 2.782943,-1.00272 3.903694,-1.9238 1.801961,-1.48094 2.299634,-4.27991 4.250484,-5.55836 1.565942,-1.02621 3.962061,-0.21454 5.452644,-1.3475 1.262727,-0.95967 2.664265,-2.593 2.33666,-4.14483 -0.685964,-3.24894 -4.671303,-5.70982 -7.982513,-5.95955 -3.56597,-0.26885 -6.814696,2.65215 -9.462069,5.05629 -2.57139,2.33514 -3.83946,5.78952 -5.77142,8.6761 -1.31678,1.96743 -3.19969,3.65151 -3.967,5.8911 -1.60236,4.67688 -0.73933,9.8606 -1.0005,14.79745 -0.11308,2.13742 -1.02641,4.42382 -0.24534,6.41661 0.17576,0.44845 0.54011,1.02584 1.02176,1.02176 2.27367,-0.0207 3.5785,-2.95027 4.74092,-4.90445 z"
         style="fill:#d9806e;fill-opacity:1;stroke:none;stroke-width:0.91549218px;stroke-linecap:butt;stroke-linejoin:miter;stroke-opacity:1" />
      <path
         sodipodi:nodetypes="cccc"
         inkscape:connector-curvature="0"
         id="path953"
         d="m -53.044572,177.82445 c 0,0 -8.946644,-17.36067 -7.282701,-24.70912 4.380479,1.26357 7.195989,3.43902 7.195989,3.43902 z"
         style="fill:#d06560;fill-opacity:1;stroke:none;stroke-width:0.91549218px;stroke-linecap:butt;stroke-linejoin:miter;stroke-opacity:1" />
      <path
         sodipodi:nodetypes="cccc"
         inkscape:connector-curvature="0"
         id="path953-3"
         d="m -53.044572,177.82445 c 0,0 8.94665,-17.36067 7.28271,-24.70912 -4.38049,1.26357 -7.196,3.43902 -7.196,3.43902 z"
         style="fill:#d06560;fill-opacity:1;stroke:none;stroke-width:0.91549218px;stroke-linecap:butt;stroke-linejoin:miter;stroke-opacity:1" />
      <circle
         r="2.7162006"
         cy="152.48601"
         cx="-44.143669"
         id="path978"
         style="fill:#e99c8a;fill-opacity:1;stroke:none;stroke-width:0.92672384;stroke-linecap:round;stroke-linejoin:bevel;stroke-miterlimit:4;stroke-dasharray:none;stroke-opacity:1" />
      <circle
         r="2.7162006"
         cy="152.48601"
         cx="-61.945503"
         id="path978-5"
         style="fill:#e99c8a;fill-opacity:1;stroke:none;stroke-width:0.92672384;stroke-linecap:round;stroke-linejoin:bevel;stroke-miterlimit:4;stroke-dasharray:none;stroke-opacity:1" />
      <path
         inkscape:connector-curvature="0"
         id="path1108"
         d="m -77.354486,157.28542 c -0.121737,0.0104 -0.24394,0.0276 -0.366564,0.0554 -1.152861,3.43091 -0.05301,7.47889 0.750985,11.09856 1.288204,5.79901 5.10049,10.82892 6.438842,16.61653 7.383357,31.92895 -4.130318,67.64828 8.32348,97.96125 1.812869,4.41256 9.16382,10.99304 9.16382,10.99304 0,0 7.351019,-6.58048 9.16388,-10.99304 12.453804,-30.31297 0.938321,-66.0323 8.321684,-97.96125 1.33833,-5.78761 5.15244,-10.81752 6.44063,-16.61653 0.80409,-3.61967 1.90203,-7.66765 0.7492,-11.09856 -3.92721,-0.88777 -7.36613,8.18385 -10.46202,12.71677 -5.473983,8.01481 -14.213374,25.41203 -14.213374,25.41203 0,0 -8.73937,-17.39722 -14.213359,-25.41203 -2.999145,-4.39125 -6.322142,-13.04292 -10.097204,-12.77221 z"
         style="fill:#b56b6a;fill-opacity:1;stroke:none;stroke-width:0.91549218;stroke-linecap:round;stroke-linejoin:bevel;stroke-miterlimit:4;stroke-dasharray:none;stroke-opacity:1" />
      <path
         inkscape:connector-curvature="0"
         id="path1130"
         d="m -55.715964,156.42536 c -2.552769,-0.0121 -6.19447,0.29861 -7.4652,2.03124 -3.872288,5.27974 1.806115,12.97711 2.344155,19.5025 0.981115,11.89908 1.618147,23.84336 1.607487,35.78287 -0.0141,14.02008 -1.72848,27.99617 -1.963303,42.0143 -0.109046,6.49738 2.552993,13.99042 1.430451,20.87393 -0.235278,1.44391 -0.302588,3.5519 -1.675424,4.05712 -2.241463,0.82486 -4.421476,-4.64529 -6.374479,-3.27036 -3.213132,2.26203 0.118713,14.52904 3.433106,20.68081 1.188839,2.2066 3.010009,5.14633 5.516208,5.10853 2.719589,-0.0412 5.81836,-5.72186 5.81836,-5.72186 0,0 3.097011,5.68066 5.81661,5.72186 2.5062,0.038 4.32915,-2.90193 5.51797,-5.10853 3.314434,-6.15177 6.646244,-18.41878 3.433104,-20.68081 -1.95298,-1.37493 -4.134795,4.09522 -6.376255,3.27036 -1.372838,-0.50522 -1.44014,-2.61321 -1.675429,-4.05712 -1.122529,-6.88351 1.539449,-14.37655 1.430449,-20.87393 -0.234818,-14.01813 -1.947659,-27.99422 -1.96151,-42.0143 -0.0105,-11.93951 0.624581,-23.88379 1.605701,-35.78287 0.538041,-6.52539 6.218214,-14.22276 2.345941,-19.5025 -2.033222,-2.77221 -10.136581,-1.90249 -10.136581,-1.90249 0,0 -1.139701,-0.12215 -2.671361,-0.1288 z"
         style="fill:#df7f80;fill-opacity:1;stroke:none;stroke-width:0.91549218px;stroke-linecap:butt;stroke-linejoin:miter;stroke-opacity:1" />
      <path
         sodipodi:nodetypes="ccccccaacccccccccccccaaccccccc"
         inkscape:connector-curvature="0"
         id="path934"
         d="M -54.662663,111.90088 V 281.435 c -1.279559,0.513 -2.18559,1.58705 -2.235099,2.85912 h -0.006 v 0.10908 16.5307 c 0,0 -0.02069,0.53215 -0.17475,0.72702 -0.332181,0.41677 -0.90815,0.61518 -1.432591,0.71043 -1.003128,0.18201 -3.042986,-0.30861 -3.042986,-0.30861 0,0 2.215186,1.7164 3.123186,1.73027 0.503481,0.006 1.04108,-0.36296 1.526982,-0.83505 v 0.0103 c 0.0105,-0.0103 0.02069,-0.0241 0.0276,-0.0357 0.207949,-0.20484 0.395689,-0.41724 0.575759,-0.63836 0.906762,-0.85693 2.079382,-1.35728 3.295402,-1.36075 1.212858,0.003 2.3832,0.49827 3.29007,1.35004 0.189259,0.23286 0.385969,0.45617 0.606128,0.67053 l 0.006,0.006 v -0.005 c 0.4859,0.4721 1.02529,0.84349 1.528811,0.83505 0.907978,-0.0143 3.35253,-2.01927 3.35253,-2.01925 0,0 -2.130761,0.7334 -3.211021,0.59791 -0.513659,-0.0643 -1.064429,-0.26641 -1.409271,-0.65265 -0.183618,-0.20553 -0.260898,-0.78515 -0.260898,-0.78515 v -16.53069 -0.10909 h -0.004 c -0.0495,-1.27233 -0.955381,-2.34622 -2.235092,-2.85911 V 111.90051 Z"
         style="color:#000000;font-style:normal;font-variant:normal;font-weight:normal;font-stretch:normal;font-size:medium;line-height:normal;font-family:sans-serif;font-variant-ligatures:normal;font-variant-position:normal;font-variant-caps:normal;font-variant-numeric:normal;font-variant-alternates:normal;font-feature-settings:normal;text-indent:0;text-align:start;text-decoration:none;text-decoration-line:none;text-decoration-style:solid;text-decoration-color:#000000;letter-spacing:normal;word-spacing:normal;text-transform:none;writing-mode:lr-tb;direction:ltr;text-orientation:mixed;dominant-baseline:auto;baseline-shift:baseline;text-anchor:start;white-space:normal;shape-padding:0;clip-rule:nonzero;display:inline;overflow:visible;visibility:visible;opacity:1;isolation:auto;mix-blend-mode:normal;color-interpolation:sRGB;color-interpolation-filters:linearRGB;solid-color:#000000;solid-opacity:1;vector-effect:none;fill:#d06764;fill-opacity:1;fill-rule:nonzero;stroke:none;stroke-width:3.18834066;stroke-linecap:butt;stroke-linejoin:miter;stroke-miterlimit:4;stroke-dasharray:none;stroke-dashoffset:0;stroke-opacity:1;color-rendering:auto;image-rendering:auto;shape-rendering:auto;text-rendering:auto;enable-background:accumulate" />
      <path
         sodipodi:nodetypes="aaaaacaaazsa"
         inkscape:connector-curvature="0"
         id="path936"
         d="m -81.317071,81.047107 c 2.259063,1.309447 3.071844,4.265115 4.983549,6.043737 2.405914,2.238383 5.821304,3.281863 8.038203,5.707589 1.296649,1.418849 1.724041,3.464142 2.90276,4.982358 0.911098,1.173541 2.211295,1.997329 3.174838,3.128179 3.419909,4.0136 9.173118,12.88782 9.173118,12.88782 0,0 -12.468464,-5.62726 -18.505308,-8.83266 -1.962801,-1.04219 -4.029924,-1.96753 -5.74925,-3.3756 -1.097653,-0.89893 -1.771042,-2.236516 -2.836267,-3.17363 -1.888467,-1.661383 -3.406987,-1.228101 -6.221286,-4.270135 -2.814317,-3.042036 -10.524392,-11.759308 -7.167092,-15.185461 2.777861,-2.834857 8.635342,0.01815 12.206735,2.087803 z"
         style="fill:#d56758;fill-opacity:1;stroke:none;stroke-width:0.91693377;stroke-linecap:butt;stroke-linejoin:miter;stroke-miterlimit:4;stroke-dasharray:none;stroke-opacity:1" />
      <path
         sodipodi:nodetypes="aaaaacaaazsa"
         inkscape:connector-curvature="0"
         id="path936-5"
         d="m -24.772149,81.047107 c -2.25904,1.309447 -3.07182,4.265115 -4.98355,6.043737 -2.40593,2.238383 -5.82132,3.281863 -8.03818,5.707589 -1.29665,1.418849 -1.72408,3.464142 -2.902803,4.982358 -0.9111,1.173541 -2.211271,1.997329 -3.174812,3.128179 -3.419888,4.0136 -9.173109,12.88782 -9.173109,12.88782 0,0 12.468434,-5.62726 18.505274,-8.83266 1.9628,-1.04219 4.02995,-1.96753 5.74929,-3.3756 1.09766,-0.89893 1.77098,-2.236516 2.83628,-3.17363 1.88842,-1.661383 3.40696,-1.228101 6.22126,-4.270135 2.81434,-3.042036 10.5243903,-11.759308 7.1671,-15.185461 -2.77785,-2.834857 -8.63534,0.01815 -12.20675,2.087803 z"
         style="fill:#d56758;fill-opacity:1;stroke:none;stroke-width:0.91693377;stroke-linecap:butt;stroke-linejoin:miter;stroke-miterlimit:4;stroke-dasharray:none;stroke-opacity:1" />
      <path
         sodipodi:nodetypes="aaaaaaa"
         inkscape:connector-curvature="0"
         id="path1148"
         d="m -53.211204,111.82321 c 8.082402,-0.0242 19.202225,0.73317 22.921195,7.9092 2.98279,5.75554 -1.48797,13.52155 -5.41641,18.67816 -4.15018,5.44761 -10.656413,10.74382 -17.504785,10.75587 -6.887879,0.0142 -13.535847,-5.22694 -17.643572,-10.75587 -3.836776,-5.16418 -7.884033,-12.99899 -4.861349,-18.67816 3.735898,-7.01915 14.553507,-7.88657 22.504921,-7.9092 z"
         style="fill:#a15258;fill-opacity:1;stroke:none;stroke-width:0.91549218px;stroke-linecap:butt;stroke-linejoin:miter;stroke-opacity:1" />
      <path
         id="path1163"
         d="m -4.9994487,3.7930632 c 0,0 -2.13091,4.0310341 -2.81812,7.1094758 -1.52995,6.853552 -0.8812,13.779041 -0.52037,20.348509 0.36087,6.569466 0.43727,12.73988 -1.6624803,18.20623 -0.66472,1.730491 -2.99182,4.811141 -5.12936,7.177069 -2.13755,2.365904 -4.04133,4.142671 -4.04133,4.142671 l 3.42634,3.683172 c 0,0 2.05451,-1.910437 4.35217,-4.453567 2.2976803,-2.54313 4.8769403,-5.589558 6.0890603,-8.744966 2.55884,-6.661576 2.36069,-13.604862 1.9936,-20.287684 -0.36709,-6.6828 -0.89513,-13.150382 0.40548,-18.976616 0.33566,-1.504082 2.41261998,-5.9673768 2.41261998,-5.9673768 z"
         style="color:#000000;font-style:normal;font-variant:normal;font-weight:normal;font-stretch:normal;font-size:medium;line-height:normal;font-family:sans-serif;font-variant-ligatures:normal;font-variant-position:normal;font-variant-caps:normal;font-variant-numeric:normal;font-variant-alternates:normal;font-feature-settings:normal;text-indent:0;text-align:start;text-decoration:none;text-decoration-line:none;text-decoration-style:solid;text-decoration-color:#000000;letter-spacing:normal;word-spacing:normal;text-transform:none;writing-mode:lr-tb;direction:ltr;text-orientation:mixed;dominant-baseline:auto;baseline-shift:baseline;text-anchor:start;white-space:normal;shape-padding:0;clip-rule:nonzero;display:inline;overflow:visible;visibility:visible;opacity:1;isolation:auto;mix-blend-mode:normal;color-interpolation:sRGB;color-interpolation-filters:linearRGB;solid-color:#000000;solid-opacity:1;vector-effect:none;fill:#c28d65;fill-opacity:1;fill-rule:nonzero;stroke:none;stroke-width:5.03520632;stroke-linecap:butt;stroke-linejoin:miter;stroke-miterlimit:4;stroke-dasharray:none;stroke-dashoffset:0;stroke-opacity:1;color-rendering:auto;image-rendering:auto;shape-rendering:auto;text-rendering:auto;enable-background:accumulate"
         inkscape:connector-curvature="0" />
      <path
         id="path1163-7"
         d="m -101.08975,3.7930632 c 0,0 2.130876,4.0310341 2.818092,7.1094758 1.529924,6.853511 0.881226,13.779022 0.520366,20.348487 -0.360859,6.56947 -0.437287,12.739884 1.662489,18.206212 0.66472,1.730492 2.991807,4.811144 5.129374,7.177069 2.137544,2.365905 4.041312,4.142672 4.041312,4.142672 l -3.426315,3.683174 c 0,0 -2.054527,-1.910437 -4.352187,-4.45357 -2.2977,-2.54313 -4.876951,-5.589558 -6.089021,-8.744944 -2.55892,-6.661576 -2.36071,-13.604886 -1.99362,-20.287705 0.36708,-6.682781 0.89509,-13.150383 -0.40551,-18.976612 -0.33562,-1.504047 -2.4126,-5.9673418 -2.4126,-5.9673418 z"
         style="color:#000000;font-style:normal;font-variant:normal;font-weight:normal;font-stretch:normal;font-size:medium;line-height:normal;font-family:sans-serif;font-variant-ligatures:normal;font-variant-position:normal;font-variant-caps:normal;font-variant-numeric:normal;font-variant-alternates:normal;font-feature-settings:normal;text-indent:0;text-align:start;text-decoration:none;text-decoration-line:none;text-decoration-style:solid;text-decoration-color:#000000;letter-spacing:normal;word-spacing:normal;text-transform:none;writing-mode:lr-tb;direction:ltr;text-orientation:mixed;dominant-baseline:auto;baseline-shift:baseline;text-anchor:start;white-space:normal;shape-padding:0;clip-rule:nonzero;display:inline;overflow:visible;visibility:visible;opacity:1;isolation:auto;mix-blend-mode:normal;color-interpolation:sRGB;color-interpolation-filters:linearRGB;solid-color:#000000;solid-opacity:1;vector-effect:none;fill:#c28d65;fill-opacity:1;fill-rule:nonzero;stroke:none;stroke-width:5.03520632;stroke-linecap:butt;stroke-linejoin:miter;stroke-miterlimit:4;stroke-dasharray:none;stroke-dashoffset:0;stroke-opacity:1;color-rendering:auto;image-rendering:auto;shape-rendering:auto;text-rendering:auto;enable-background:accumulate"
         inkscape:connector-curvature="0" />
      <path
         sodipodi:nodetypes="ccc"
         inkscape:connector-curvature="0"
         id="path5812"
         d="M 69.508941,34.208914 31.211767,51.874731 44.924537,91.224292"
         style="fill:#000000;fill-opacity:0;stroke:#000000;stroke-width:1.302;stroke-linecap:butt;stroke-linejoin:miter;stroke-miterlimit:4;stroke-dasharray:none;stroke-opacity:1" />
      <g
         transform="matrix(1.7992258,0,0,1.7992258,-424.84014,-340.07005)"
         id="g6610">
        <path
           inkscape:connector-curvature="0"
           style="color:#000000;font-style:normal;font-variant:normal;font-weight:normal;font-stretch:normal;font-size:medium;line-height:normal;font-family:sans-serif;font-variant-ligatures:normal;font-variant-position:normal;font-variant-caps:normal;font-variant-numeric:normal;font-variant-alternates:normal;font-feature-settings:normal;text-indent:0;text-align:start;text-decoration:none;text-decoration-line:none;text-decoration-style:solid;text-decoration-color:#000000;letter-spacing:normal;word-spacing:normal;text-transform:none;writing-mode:lr-tb;direction:ltr;text-orientation:mixed;dominant-baseline:auto;baseline-shift:baseline;text-anchor:start;white-space:normal;shape-padding:0;clip-rule:nonzero;display:inline;overflow:visible;visibility:visible;opacity:1;isolation:auto;mix-blend-mode:normal;color-interpolation:sRGB;color-interpolation-filters:linearRGB;solid-color:#000000;solid-opacity:1;vector-effect:none;fill:#f47d75;fill-opacity:1;fill-rule:nonzero;stroke:none;stroke-width:8.5783329;stroke-linecap:round;stroke-linejoin:bevel;stroke-miterlimit:4;stroke-dasharray:none;stroke-dashoffset:0;stroke-opacity:1;color-rendering:auto;image-rendering:auto;shape-rendering:auto;text-rendering:auto;enable-background:accumulate"
           d="m 313.11642,204.22158 c 0,0 -21.80192,6.19306 -27.80298,12.79306 -14.53618,15.98717 -9.26784,34.26988 0.0417,52.077 9.30727,17.80713 27.04728,51.93557 27.04728,51.93557 l 10.21793,-1.27052 c 0,0 -18.4929,-35.86695 -27.46635,-53.03538 -8.97348,-17.16853 -13.07364,-32.70333 -0.99919,-45.98287 4.10369,-4.51329 21.62854,-9.67647 21.62854,-9.67647 z"
           id="path889-7"
           sodipodi:nodetypes="ccccccccc" />
        <path
           inkscape:connector-curvature="0"
           style="color:#000000;font-style:normal;font-variant:normal;font-weight:normal;font-stretch:normal;font-size:medium;line-height:normal;font-family:sans-serif;font-variant-ligatures:normal;font-variant-position:normal;font-variant-caps:normal;font-variant-numeric:normal;font-variant-alternates:normal;font-feature-settings:normal;text-indent:0;text-align:start;text-decoration:none;text-decoration-line:none;text-decoration-style:solid;text-decoration-color:#000000;letter-spacing:normal;word-spacing:normal;text-transform:none;writing-mode:lr-tb;direction:ltr;text-orientation:mixed;dominant-baseline:auto;baseline-shift:baseline;text-anchor:start;white-space:normal;shape-padding:0;clip-rule:nonzero;display:inline;overflow:visible;visibility:visible;opacity:1;isolation:auto;mix-blend-mode:normal;color-interpolation:sRGB;color-interpolation-filters:linearRGB;solid-color:#000000;solid-opacity:1;vector-effect:none;fill:#a15258;fill-opacity:1;fill-rule:nonzero;stroke:none;stroke-width:5.19019222;stroke-linecap:round;stroke-linejoin:bevel;stroke-miterlimit:4;stroke-dasharray:none;stroke-dashoffset:0;stroke-opacity:1;color-rendering:auto;image-rendering:auto;shape-rendering:auto;text-rendering:auto;enable-background:accumulate"
           d="m 313.47486,205.15252 c 0,0 -10.4759,3.15539 -18.74261,7.51099 -5.18387,2.7313 -9.08972,6.55148 -10.24441,8.41655 -7.25727,11.72222 -5.70329,25.79385 -1.05547,38.85052 4.64671,13.05665 31.40654,60.77604 31.40654,60.77604 l 5.21914,-0.63261 c 0,0 -27.36675,-49.4471 -31.8468,-62.03544 -4.48006,-12.58843 -5.33756,-24.49121 0.69067,-34.22812 0.78237,-1.2637 4.08028,-4.57853 8.68212,-6.9265 7.44902,-3.80066 17.77965,-6.90165 17.77965,-6.90165 z"
           id="path889-7-9"
           sodipodi:nodetypes="csccccccscc" />
      </g>
    </g>
  </g>
</svg>
