<?xml version="1.0" encoding="UTF-8" standalone="no"?>
<!-- Created with Inkscape (http://www.inkscape.org/) -->

<svg
   xmlns:dc="http://purl.org/dc/elements/1.1/"
   xmlns:cc="http://creativecommons.org/ns#"
   xmlns:rdf="http://www.w3.org/1999/02/22-rdf-syntax-ns#"
   xmlns:svg="http://www.w3.org/2000/svg"
   xmlns="http://www.w3.org/2000/svg"
   xmlns:sodipodi="http://sodipodi.sourceforge.net/DTD/sodipodi-0.dtd"
   xmlns:inkscape="http://www.inkscape.org/namespaces/inkscape"
   width="137.05417mm"
   height="195.79167mm"
   viewBox="0 0 137.05417 195.79167"
   version="1.1"
   id="svg8"
   inkscape:version="0.92+devel unknown"
   sodipodi:docname="prostata.svg"
   inkscape:export-filename="/home/fundacion/Documentos/fundecyt_02/conozco_mi_cuerpo/conozco-mi-cuerpo/img/masculino/prostata.png"
   inkscape:export-xdpi="96"
   inkscape:export-ydpi="96">
  <defs
     id="defs2" />
  <sodipodi:namedview
     id="base"
     pagecolor="#ffffff"
     bordercolor="#666666"
     borderopacity="1.0"
     inkscape:pageopacity="0.0"
     inkscape:pageshadow="2"
     inkscape:zoom="0.5647215"
     inkscape:cx="194.54161"
     inkscape:cy="434.4731"
     inkscape:document-units="mm"
     inkscape:current-layer="layer1"
     inkscape:document-rotation="0"
     showgrid="false"
     inkscape:window-width="1920"
     inkscape:window-height="1012"
     inkscape:window-x="0"
     inkscape:window-y="32"
     inkscape:window-maximized="1"
     fit-margin-top="0"
     fit-margin-left="0"
     fit-margin-right="0"
     fit-margin-bottom="0" />
  <metadata
     id="metadata5">
    <rdf:RDF>
      <cc:Work
         rdf:about="">
        <dc:format>image/svg+xml</dc:format>
        <dc:type
           rdf:resource="http://purl.org/dc/dcmitype/StillImage" />
        <dc:title></dc:title>
      </cc:Work>
    </rdf:RDF>
  </metadata>
  <g
     inkscape:label="Capa 1"
     inkscape:groupmode="layer"
     id="layer1"
     transform="translate(-193.08885,-160.18875)">
    <g
       id="g4718"
       transform="matrix(0.96534129,0,0,0.96534129,178.47636,11.834685)">
      <path
         sodipodi:nodetypes="asacasa"
         inkscape:connector-curvature="0"
         id="path38"
         d="m 47.168943,209.47003 c 7.784673,0.0311 19.21998,6.92452 18.450338,14.31794 -0.33225,3.19178 -2.076184,6.49155 -4.349919,8.87624 -3.702539,3.88323 -14.100419,7.76352 -14.100419,7.76352 0,0 -10.200548,-3.982 -13.941164,-7.76352 -2.367424,-2.39331 -4.74723,-5.39595 -4.817268,-8.87624 -0.160265,-7.96469 10.892382,-14.34941 18.758432,-14.31794 z"
         style="fill:#fbccbc;fill-opacity:1;stroke:none;stroke-width:0.33339056px;stroke-linecap:butt;stroke-linejoin:miter;stroke-opacity:1" />
      <ellipse
         ry="9.2873087"
         rx="6.3701406"
         cy="287.69772"
         cx="62.505615"
         id="path845-3"
         style="fill:#f5a294;fill-opacity:1;stroke:none;stroke-width:0.75094748" />
      <ellipse
         ry="9.2873087"
         rx="6.3701406"
         cy="287.69772"
         cx="31.488369"
         id="path845"
         style="fill:#f5a294;fill-opacity:1;stroke:none;stroke-width:0.75094748;stroke-opacity:1" />
      <path
         id="path889"
         d="m 24.974221,210.04365 c -1.045224,-0.0205 -2.115352,0.11197 -3.140509,0.38354 -2.050306,0.543 -3.963841,1.65364 -5.054903,3.41594 -2.642844,4.26883 -1.685001,9.1506 0.0075,13.90539 1.692174,4.75478 4.133753,9.55788 4.917509,13.86761 0.913188,5.02149 2.254076,9.90161 2.633267,14.81309 0.205479,2.66132 -0.673901,5.63382 -0.179724,8.7834 0.249923,1.59278 0.948074,2.97549 1.55756,4.27287 0.609502,1.29739 1.127556,2.50364 1.215707,3.70378 0.08996,1.22491 -0.37329,2.57624 -0.88101,4.05341 -0.507711,1.47716 -1.062215,3.09588 -0.772922,4.86543 0.133798,0.8183 0.567334,1.48448 0.945475,2.06481 0.378157,0.5803 0.735797,1.02621 0.735797,1.02621 a 0.94504414,0.94504414 0 0 0 1.3264,0.14781 0.94504414,0.94504414 0 0 0 0.147825,-1.32899 c 0,0 -0.304311,-0.38018 -0.627712,-0.87647 -0.323393,-0.4963 -0.632475,-1.15683 -0.66223,-1.33876 -0.194272,-1.18829 0.194315,-2.49314 0.694129,-3.9473 0.499807,-1.45415 1.108927,-3.04009 0.979334,-4.80422 -0.11983,-1.63197 -0.770449,-3.0513 -1.390211,-4.37053 -0.619763,-1.31922 -1.210378,-2.54776 -1.400634,-3.7604 -0.40629,-2.58939 0.436413,-5.50558 0.194697,-8.63626 -0.39785,-5.15322 -1.765043,-10.09685 -2.658009,-15.00712 -0.860744,-4.73309 -3.362224,-9.57705 -4.993704,-14.16128 -1.63148,-4.58428 -2.376937,-8.73232 -0.181661,-12.27816 0.746095,-1.20513 2.226763,-2.13204 3.932317,-2.58378 1.705553,-0.45172 3.600394,-0.41468 5.006063,0.10096 4.930309,1.80845 9.822562,8.85909 13.267249,15.52675 3.444725,6.66763 5.545225,12.85116 5.545225,12.85116 a 0.94504414,0.94504414 0 0 0 0.0066,0.0149 0.94504414,0.94504414 0 0 0 0.01952,0.0502 0.94504414,0.94504414 0 0 0 0.02017,0.045 0.94504414,0.94504414 0 0 0 0.01952,0.0371 0.94504414,0.94504414 0 0 0 0.02407,0.0417 0.94504414,0.94504414 0 0 0 0.02549,0.0398 0.94504414,0.94504414 0 0 0 0.03059,0.0423 0.94504414,0.94504414 0 0 0 0.02469,0.0306 0.94504414,0.94504414 0 0 0 0.03518,0.0398 0.94504414,0.94504414 0 0 0 0.03252,0.0333 0.94504414,0.94504414 0 0 0 0.03324,0.0306 0.94504414,0.94504414 0 0 0 0.03708,0.0306 0.94504414,0.94504414 0 0 0 0.03715,0.0286 0.94504414,0.94504414 0 0 0 0.03846,0.0255 0.94504414,0.94504414 0 0 0 0.04499,0.0274 0.94504414,0.94504414 0 0 0 0.03905,0.0207 0.94504414,0.94504414 0 0 0 0.0378,0.0183 0.94504414,0.94504414 0 0 0 0.06965,0.0294 0.94504414,0.94504414 0 0 0 0.0022,7.2e-4 0.94504414,0.94504414 0 0 0 7.28e-4,0 0.94504414,0.94504414 0 0 0 0.013,0.005 0.94504414,0.94504414 0 0 0 0.05013,0.0144 0.94504414,0.94504414 0 0 0 0.03391,0.009 0.94504414,0.94504414 0 0 0 0.04293,0.009 0.94504414,0.94504414 0 0 0 0.04954,0.009 0.94504414,0.94504414 0 0 0 0.05278,0.005 0.94504414,0.94504414 0 0 0 0.0397,0.003 0.94504414,0.94504414 0 0 0 0.06379,-7.3e-4 0.94504414,0.94504414 0 0 0 0.02867,-7.2e-4 0.94504414,0.94504414 0 0 0 0.05277,-0.005 0.94504414,0.94504414 0 0 0 0.0469,-0.007 0.94504414,0.94504414 0 0 0 0.03186,-0.007 0.94504414,0.94504414 0 0 0 0.06247,-0.0144 0.94504414,0.94504414 0 0 0 0.0022,-7.3e-4 0.94504414,0.94504414 0 0 0 0.0051,-0.002 0.94504414,0.94504414 0 0 0 0.04426,-0.013 0.94504414,0.94504414 0 0 0 0.0228,-0.009 0.94504414,0.94504414 0 0 0 0.03905,-0.0156 0.94504414,0.94504414 0 0 0 0.04815,-0.0214 0.94504414,0.94504414 0 0 0 0.03715,-0.0195 0.94504414,0.94504414 0 0 0 0.04169,-0.0241 0.94504414,0.94504414 0 0 0 0.03971,-0.0255 0.94504414,0.94504414 0 0 0 0.04236,-0.0306 0.94504414,0.94504414 0 0 0 0.03059,-0.0247 0.94504414,0.94504414 0 0 0 0.03971,-0.0351 0.94504414,0.94504414 0 0 0 0.03324,-0.0327 0.94504414,0.94504414 0 0 0 0.03186,-0.0351 0.94504414,0.94504414 0 0 0 0.02603,-0.0306 0.94504414,0.94504414 0 0 0 0.03452,-0.0457 0.94504414,0.94504414 0 0 0 0.0228,-0.034 0.94504414,0.94504414 0 0 0 0.02549,-0.0423 0.94504414,0.94504414 0 0 0 0.0228,-0.0417 0.94504414,0.94504414 0 0 0 0.01952,-0.0412 0.94504414,0.94504414 0 0 0 0.02079,-0.0495 0.94504414,0.94504414 0 0 0 0.01124,-0.03 0.94504414,0.94504414 0 0 0 0.0015,-0.003 c 0,0 2.103125,-6.18354 5.54783,-12.85117 3.444703,-6.66766 8.334334,-13.71829 13.264645,-15.52675 1.405682,-0.5156 3.303115,-0.55265 5.008669,-0.10096 1.705554,0.45174 3.186222,1.37866 3.93232,2.58378 2.195273,3.54584 1.449827,7.69388 -0.181663,12.27816 -1.631483,4.58425 -4.135565,9.4282 -4.996309,14.16128 -0.892971,4.91028 -2.260164,9.8539 -2.658012,15.00712 -0.241717,3.13068 0.603594,6.04689 0.197301,8.63626 -0.190254,1.21264 -0.780868,2.44118 -1.400631,3.7604 -0.619761,1.31924 -1.270332,2.73856 -1.390212,4.37056 -0.129592,1.76413 0.47953,3.35006 0.979336,4.8042 0.499813,1.45415 0.888399,2.759 0.694128,3.9473 -0.02972,0.18193 -0.341412,0.84247 -0.66482,1.33876 -0.323398,0.49631 -0.627731,0.87646 -0.627731,0.87646 a 0.94504414,0.94504414 0 0 0 0.147819,1.329 0.94504414,0.94504414 0 0 0 1.329015,-0.14781 c 0,0 0.357643,-0.44592 0.735795,-1.02622 0.378142,-0.58032 0.809085,-1.24651 0.94288,-2.06481 0.289307,-1.76953 -0.262615,-3.38825 -0.770327,-4.86541 -0.507712,-1.47718 -0.971003,-2.82851 -0.881003,-4.05343 0.0882,-1.20014 0.606201,-2.40639 1.2157,-3.70376 0.609493,-1.29739 1.307642,-2.68008 1.557561,-4.27287 0.49418,-3.14959 -0.385203,-6.12211 -0.179723,-8.78341 0.379188,-4.91148 1.720077,-9.7916 2.633273,-14.81309 0.783757,-4.30974 3.225329,-9.11284 4.917501,-13.86762 1.692159,-4.75478 2.650013,-9.63655 0.0075,-13.90537 -1.091065,-1.76232 -3.007198,-2.87294 -5.057511,-3.41596 -1.025159,-0.27152 -2.092676,-0.40404 -3.137904,-0.38352 -1.045213,0.0205 -2.066995,0.1934 -3.002468,0.53654 -5.974588,2.19163 -10.773577,9.62196 -14.293117,16.43446 -2.177319,4.21428 -3.822294,8.22292 -4.76317,10.67416 -0.940545,-2.45119 -2.584332,-6.45994 -4.761611,-10.67432 -3.519531,-6.8125 -8.318509,-14.24283 -14.293462,-16.43447 -0.93547,-0.34314 -1.957251,-0.51604 -3.002468,-0.53655 z"
         style="color:#000000;font-style:normal;font-variant:normal;font-weight:normal;font-stretch:normal;font-size:medium;line-height:normal;font-family:sans-serif;font-variant-ligatures:normal;font-variant-position:normal;font-variant-caps:normal;font-variant-numeric:normal;font-variant-alternates:normal;font-feature-settings:normal;text-indent:0;text-align:start;text-decoration:none;text-decoration-line:none;text-decoration-style:solid;text-decoration-color:#000000;letter-spacing:normal;word-spacing:normal;text-transform:none;writing-mode:lr-tb;direction:ltr;text-orientation:mixed;dominant-baseline:auto;baseline-shift:baseline;text-anchor:start;white-space:normal;shape-padding:0;clip-rule:nonzero;display:inline;overflow:visible;visibility:visible;opacity:1;isolation:auto;mix-blend-mode:normal;color-interpolation:sRGB;color-interpolation-filters:linearRGB;solid-color:#000000;solid-opacity:1;vector-effect:none;fill:#f47d75;fill-opacity:1;fill-rule:nonzero;stroke:none;stroke-width:1.89008844;stroke-linecap:round;stroke-linejoin:bevel;stroke-miterlimit:4;stroke-dasharray:none;stroke-dashoffset:0;stroke-opacity:1;color-rendering:auto;image-rendering:auto;shape-rendering:auto;text-rendering:auto;enable-background:accumulate"
         inkscape:connector-curvature="0" />
      <path
         sodipodi:nodetypes="aaaaaaaaaaaaaaaa"
         inkscape:connector-curvature="0"
         id="path892-7"
         d="m 66.927545,290.31724 c -0.236639,-0.39781 -0.22532,-0.90317 -0.416732,-1.32464 -0.141796,-0.31219 -0.390022,-0.56776 -0.535804,-0.87811 -0.653255,-1.3906 -0.480564,-3.20643 -1.495588,-4.35981 -0.349013,-0.39658 -1.013458,-0.36516 -1.421589,-0.70058 -0.656215,-0.53931 -0.837449,-1.55859 -1.547885,-2.02416 -0.570257,-0.37372 -1.442842,-0.0781 -1.985659,-0.49072 -0.45985,-0.34948 -0.970231,-0.94428 -0.850931,-1.5094 0.249803,-1.18315 1.701126,-2.07931 2.906954,-2.17026 1.298603,-0.0979 2.481675,0.96583 3.445755,1.84132 0.936415,0.85039 1.398202,2.10835 2.101755,3.15955 0.479526,0.71646 1.165217,1.32974 1.444645,2.14532 0.583519,1.70317 0.269238,3.5909 0.364347,5.38873 0.0412,0.77837 0.373779,1.611 0.08933,2.33671 -0.06401,0.16331 -0.196682,0.37356 -0.372078,0.37208 -0.827999,-0.007 -1.30317,-1.07438 -1.726483,-1.78603 z"
         style="fill:#d9806e;fill-opacity:1;stroke:none;stroke-width:0.33339056px;stroke-linecap:butt;stroke-linejoin:miter;stroke-opacity:1" />
      <path
         sodipodi:nodetypes="aaaaaaaaaaaaaaaa"
         inkscape:connector-curvature="0"
         id="path892"
         d="m 27.082835,290.31724 c 0.236645,-0.39781 0.225327,-0.90317 0.416743,-1.32464 0.141798,-0.31219 0.390017,-0.56776 0.535802,-0.87811 0.653253,-1.3906 0.480561,-3.20643 1.495589,-4.35981 0.34901,-0.39658 1.01345,-0.36516 1.421589,-0.70058 0.656212,-0.53931 0.837447,-1.55859 1.54788,-2.02416 0.570261,-0.37372 1.442845,-0.0781 1.985663,-0.49072 0.459841,-0.34948 0.970233,-0.94428 0.850931,-1.5094 -0.249804,-1.18315 -1.701127,-2.07931 -2.906955,-2.17026 -1.298603,-0.0979 -2.481676,0.96583 -3.445758,1.84132 -0.93641,0.85039 -1.398198,2.10835 -2.101751,3.15955 -0.479528,0.71646 -1.165216,1.32974 -1.444644,2.14532 -0.583526,1.70317 -0.269241,3.5909 -0.36435,5.38873 -0.04117,0.77837 -0.373782,1.611 -0.08935,2.33671 0.06401,0.16331 0.196687,0.37356 0.372087,0.37208 0.827994,-0.007 1.303168,-1.07438 1.726479,-1.78603 z"
         style="fill:#d9806e;fill-opacity:1;stroke:none;stroke-width:0.33339056px;stroke-linecap:butt;stroke-linejoin:miter;stroke-opacity:1" />
      <path
         sodipodi:nodetypes="cccc"
         inkscape:connector-curvature="0"
         id="path953"
         d="m 47.032504,263.84241 c 0,0 -3.258058,-6.32216 -2.652107,-8.99821 1.595219,0.46014 2.62053,1.25238 2.62053,1.25238 z"
         style="fill:#d06560;fill-opacity:1;stroke:none;stroke-width:0.33339056px;stroke-linecap:butt;stroke-linejoin:miter;stroke-opacity:1" />
      <path
         sodipodi:nodetypes="cccc"
         inkscape:connector-curvature="0"
         id="path953-3"
         d="m 47.032504,263.84241 c 0,0 3.258061,-6.32216 2.652112,-8.99821 -1.595223,0.46014 -2.620534,1.25238 -2.620534,1.25238 z"
         style="fill:#d06560;fill-opacity:1;stroke:none;stroke-width:0.33339056px;stroke-linecap:butt;stroke-linejoin:miter;stroke-opacity:1" />
      <circle
         r="0.98914629"
         cy="254.61504"
         cx="50.273907"
         id="path978"
         style="fill:#e99c8a;fill-opacity:1;stroke:none;stroke-width:0.33748078;stroke-linecap:round;stroke-linejoin:bevel;stroke-miterlimit:4;stroke-dasharray:none;stroke-opacity:1" />
      <circle
         r="0.98914629"
         cy="254.61504"
         cx="43.791092"
         id="path978-5"
         style="fill:#e99c8a;fill-opacity:1;stroke:none;stroke-width:0.33748078;stroke-linecap:round;stroke-linejoin:bevel;stroke-miterlimit:4;stroke-dasharray:none;stroke-opacity:1" />
      <path
         inkscape:connector-curvature="0"
         id="path1108"
         d="m 38.179675,256.36281 c -0.04434,0.003 -0.08884,0.0104 -0.133489,0.0202 -0.419832,1.24942 -0.0193,2.72357 0.273482,4.04172 0.469119,2.11179 1.857422,3.94352 2.344803,6.05116 2.688763,11.62743 -1.504118,24.63517 3.031124,35.6741 0.660184,1.6069 3.337146,4.00328 3.337146,4.00328 0,0 2.676987,-2.39638 3.337168,-4.00328 4.535243,-11.03893 0.341703,-24.04667 3.030468,-35.6741 0.487374,-2.10764 1.876341,-3.93937 2.345459,-6.05116 0.292818,-1.31815 0.69265,-2.7923 0.272829,-4.04172 -1.430155,-0.32329 -2.68249,2.98028 -3.809906,4.63101 -1.993435,2.91872 -5.176018,9.25419 -5.176018,9.25419 0,0 -3.182577,-6.33547 -5.176014,-9.25419 -1.092184,-1.59914 -2.302306,-4.74978 -3.677052,-4.6512 z"
         style="fill:#b56b6a;fill-opacity:1;stroke:none;stroke-width:0.33339056;stroke-linecap:round;stroke-linejoin:bevel;stroke-miterlimit:4;stroke-dasharray:none;stroke-opacity:1" />
      <path
         inkscape:connector-curvature="0"
         id="path1130"
         d="m 46.059676,256.0496 c -0.92963,-0.005 -2.255812,0.10872 -2.718567,0.73971 -1.410154,1.92269 0.657724,4.72581 0.85366,7.10213 0.357288,4.33323 0.589273,8.68293 0.585391,13.03089 -0.0051,5.10563 -0.629453,10.19524 -0.714967,15.30014 -0.03971,2.36613 0.929712,5.09483 0.520921,7.60157 -0.08568,0.52582 -0.110199,1.29348 -0.610131,1.47747 -0.816264,0.30038 -1.610149,-1.69166 -2.321365,-1.19096 -1.170112,0.82376 0.04324,5.29098 1.250218,7.53124 0.432934,0.80357 1.096141,1.87411 2.008812,1.86034 0.990381,-0.0149 2.118846,-2.08369 2.118846,-2.08369 0,0 1.127823,2.06869 2.118207,2.08369 0.912672,0.0138 1.576527,-1.05677 2.009455,-1.86034 1.207,-2.24026 2.420334,-6.70748 1.250216,-7.53124 -0.711208,-0.5007 -1.505747,1.49134 -2.32201,1.19096 -0.49994,-0.18399 -0.524449,-0.95165 -0.610134,-1.47747 -0.408786,-2.50674 0.560615,-5.23544 0.520921,-7.60157 -0.08551,-5.1049 -0.709271,-10.19451 -0.714314,-15.30014 -0.0038,-4.34796 0.22745,-8.69766 0.58474,-13.03089 0.195936,-2.37632 2.26446,-5.17944 0.85431,-7.10213 -0.740428,-1.00955 -3.691391,-0.69283 -3.691391,-0.69283 0,0 -0.41504,-0.0445 -0.972818,-0.0469 z"
         style="fill:#df7f80;fill-opacity:1;stroke:none;stroke-width:0.33339056px;stroke-linecap:butt;stroke-linejoin:miter;stroke-opacity:1" />
      <path
         sodipodi:nodetypes="ccccccaacccccccccccccaaccccccc"
         inkscape:connector-curvature="0"
         id="path934"
         d="m 46.443251,239.83532 v 61.73847 c -0.46597,0.18681 -0.795916,0.57795 -0.813945,1.04118 h -0.0022 v 0.0398 6.01991 c 0,0 -0.0075,0.19379 -0.06364,0.26476 -0.120968,0.15177 -0.330717,0.22403 -0.5217,0.25872 -0.365305,0.0663 -1.108151,-0.11244 -1.108151,-0.11244 0,0 0.806695,0.62506 1.137357,0.6301 0.18335,0.002 0.379125,-0.13217 0.556074,-0.30409 v 0.003 c 0.0038,-0.003 0.0075,-0.009 0.01008,-0.013 0.07573,-0.0745 0.144097,-0.15194 0.209672,-0.23246 0.33021,-0.31207 0.757238,-0.49427 1.20007,-0.49553 0.441683,7.3e-4 0.86788,0.18144 1.19813,0.49162 0.06892,0.0848 0.140557,0.16613 0.220732,0.24418 l 0.0022,0.002 v -0.002 c 0.176948,0.17193 0.373375,0.30716 0.556739,0.30409 0.330656,-0.005 1.220876,-0.73534 1.220876,-0.73533 0,0 -0.775949,0.26708 -1.169342,0.21773 -0.187057,-0.0234 -0.387629,-0.097 -0.513208,-0.23767 -0.06687,-0.0749 -0.09501,-0.28593 -0.09501,-0.28593 v -6.01991 -0.0398 h -0.0015 c -0.01802,-0.46333 -0.347915,-0.8544 -0.813942,-1.04118 v -61.73755 z"
         style="color:#000000;font-style:normal;font-variant:normal;font-weight:normal;font-stretch:normal;font-size:medium;line-height:normal;font-family:sans-serif;font-variant-ligatures:normal;font-variant-position:normal;font-variant-caps:normal;font-variant-numeric:normal;font-variant-alternates:normal;font-feature-settings:normal;text-indent:0;text-align:start;text-decoration:none;text-decoration-line:none;text-decoration-style:solid;text-decoration-color:#000000;letter-spacing:normal;word-spacing:normal;text-transform:none;writing-mode:lr-tb;direction:ltr;text-orientation:mixed;dominant-baseline:auto;baseline-shift:baseline;text-anchor:start;white-space:normal;shape-padding:0;clip-rule:nonzero;display:inline;overflow:visible;visibility:visible;opacity:1;isolation:auto;mix-blend-mode:normal;color-interpolation:sRGB;color-interpolation-filters:linearRGB;solid-color:#000000;solid-opacity:1;vector-effect:none;fill:#d06764;fill-opacity:1;fill-rule:nonzero;stroke:none;stroke-width:1.16108334;stroke-linecap:butt;stroke-linejoin:miter;stroke-miterlimit:4;stroke-dasharray:none;stroke-dashoffset:0;stroke-opacity:1;color-rendering:auto;image-rendering:auto;shape-rendering:auto;text-rendering:auto;enable-background:accumulate" />
      <path
         sodipodi:nodetypes="aaaaacaaazsa"
         inkscape:connector-curvature="0"
         id="path936"
         d="m 36.736638,228.59945 c 0.822674,0.47685 1.11866,1.5532 1.814838,2.20092 0.87615,0.81513 2.119916,1.19513 2.927234,2.0785 0.472195,0.51669 0.627837,1.26152 1.057085,1.8144 0.331791,0.42736 0.805278,0.72736 1.156166,1.13918 1.245412,1.46161 3.340533,4.6933 3.340533,4.6933 0,0 -4.540584,-2.04926 -6.738994,-3.21655 -0.714783,-0.37953 -1.467559,-0.71651 -2.093677,-1.22928 -0.399727,-0.32736 -0.644953,-0.81446 -1.032871,-1.15572 -0.687715,-0.60503 -1.240706,-0.44723 -2.265576,-1.55504 -1.024878,-1.10781 -3.83262,-4.28233 -2.610007,-5.53002 1.0116,-1.03235 3.144693,0.007 4.445269,0.76031 z"
         style="fill:#d56758;fill-opacity:1;stroke:none;stroke-width:0.33391556;stroke-linecap:butt;stroke-linejoin:miter;stroke-miterlimit:4;stroke-dasharray:none;stroke-opacity:1" />
      <path
         sodipodi:nodetypes="aaaaacaaazsa"
         inkscape:connector-curvature="0"
         id="path936-5"
         d="m 57.328342,228.59945 c -0.822665,0.47685 -1.118651,1.5532 -1.814836,2.20092 -0.876158,0.81513 -2.119924,1.19513 -2.927228,2.0785 -0.472195,0.51669 -0.627851,1.26152 -1.057099,1.8144 -0.331792,0.42736 -0.805268,0.72736 -1.156157,1.13918 -1.245405,1.46161 -3.340528,4.6933 -3.340528,4.6933 0,0 4.54057,-2.04926 6.738979,-3.21655 0.714787,-0.37953 1.467568,-0.71651 2.093692,-1.22928 0.39973,-0.32736 0.64493,-0.81446 1.032875,-1.15572 0.687698,-0.60503 1.240697,-0.44723 2.265567,-1.55504 1.024886,-1.10781 3.83262,-4.28233 2.610011,-5.53002 -1.011598,-1.03235 -3.144693,0.007 -4.445276,0.76031 z"
         style="fill:#d56758;fill-opacity:1;stroke:none;stroke-width:0.33391556;stroke-linecap:butt;stroke-linejoin:miter;stroke-miterlimit:4;stroke-dasharray:none;stroke-opacity:1" />
      <path
         sodipodi:nodetypes="aaaaaaa"
         inkscape:connector-curvature="0"
         id="path1148"
         d="m 46.971824,239.80704 c 2.94333,-0.009 6.992784,0.26699 8.347104,2.88025 1.086229,2.09597 -0.541867,4.92409 -1.97247,6.80194 -1.511351,1.98384 -3.880695,3.91253 -6.374634,3.91693 -2.508328,0.005 -4.929288,-1.90348 -6.425179,-3.91693 -1.397222,-1.88061 -2.871093,-4.73378 -1.770336,-6.80194 1.360486,-2.55612 5.299884,-2.87201 8.195515,-2.88025 z"
         style="fill:#a15258;fill-opacity:1;stroke:none;stroke-width:0.33339056px;stroke-linecap:butt;stroke-linejoin:miter;stroke-opacity:1" />
      <path
         id="path1163"
         d="m 64.528875,200.4662 c 0,0 -0.776004,1.46796 -1.026262,2.58902 -0.557154,2.49582 -0.320903,5.01786 -0.189501,7.41023 0.131417,2.39237 0.159239,4.63941 -0.605417,6.63008 -0.242068,0.63018 -1.089518,1.75205 -1.867936,2.61363 -0.778422,0.86159 -1.471713,1.50862 -1.471713,1.50862 l 1.247755,1.34128 c 0,0 0.748181,-0.69571 1.58491,-1.62183 0.836735,-0.92612 1.776012,-2.03552 2.217425,-3.18461 0.931841,-2.42592 0.859681,-4.95442 0.726,-7.38807 -0.133681,-2.43365 -0.325975,-4.78892 0.147661,-6.91064 0.122237,-0.54773 0.878593,-2.17311 0.878593,-2.17311 z"
         style="color:#000000;font-style:normal;font-variant:normal;font-weight:normal;font-stretch:normal;font-size:medium;line-height:normal;font-family:sans-serif;font-variant-ligatures:normal;font-variant-position:normal;font-variant-caps:normal;font-variant-numeric:normal;font-variant-alternates:normal;font-feature-settings:normal;text-indent:0;text-align:start;text-decoration:none;text-decoration-line:none;text-decoration-style:solid;text-decoration-color:#000000;letter-spacing:normal;word-spacing:normal;text-transform:none;writing-mode:lr-tb;direction:ltr;text-orientation:mixed;dominant-baseline:auto;baseline-shift:baseline;text-anchor:start;white-space:normal;shape-padding:0;clip-rule:nonzero;display:inline;overflow:visible;visibility:visible;opacity:1;isolation:auto;mix-blend-mode:normal;color-interpolation:sRGB;color-interpolation-filters:linearRGB;solid-color:#000000;solid-opacity:1;vector-effect:none;fill:#c28d65;fill-opacity:1;fill-rule:nonzero;stroke:none;stroke-width:1.83364797;stroke-linecap:butt;stroke-linejoin:miter;stroke-miterlimit:4;stroke-dasharray:none;stroke-dashoffset:0;stroke-opacity:1;color-rendering:auto;image-rendering:auto;shape-rendering:auto;text-rendering:auto;enable-background:accumulate"
         inkscape:connector-curvature="0" />
      <path
         id="path1163-7"
         d="m 29.536115,200.4662 c 0,0 0.77599,1.46796 1.02625,2.58902 0.557146,2.49581 0.320913,5.01785 0.1895,7.41022 -0.131413,2.39237 -0.159246,4.63942 0.60542,6.63007 0.242068,0.63018 1.089512,1.75205 1.867941,2.61364 0.77842,0.86158 1.471705,1.50862 1.471705,1.50862 l -1.247744,1.34128 c 0,0 -0.748188,-0.69572 -1.584917,-1.62184 -0.836742,-0.92611 -1.776016,-2.03552 -2.217412,-3.18461 -0.931867,-2.4259 -0.859687,-4.95442 -0.726007,-7.38808 0.133681,-2.43363 0.325963,-4.7889 -0.147671,-6.91062 -0.122222,-0.54772 -0.878587,-2.1731 -0.878587,-2.1731 z"
         style="color:#000000;font-style:normal;font-variant:normal;font-weight:normal;font-stretch:normal;font-size:medium;line-height:normal;font-family:sans-serif;font-variant-ligatures:normal;font-variant-position:normal;font-variant-caps:normal;font-variant-numeric:normal;font-variant-alternates:normal;font-feature-settings:normal;text-indent:0;text-align:start;text-decoration:none;text-decoration-line:none;text-decoration-style:solid;text-decoration-color:#000000;letter-spacing:normal;word-spacing:normal;text-transform:none;writing-mode:lr-tb;direction:ltr;text-orientation:mixed;dominant-baseline:auto;baseline-shift:baseline;text-anchor:start;white-space:normal;shape-padding:0;clip-rule:nonzero;display:inline;overflow:visible;visibility:visible;opacity:1;isolation:auto;mix-blend-mode:normal;color-interpolation:sRGB;color-interpolation-filters:linearRGB;solid-color:#000000;solid-opacity:1;vector-effect:none;fill:#c28d65;fill-opacity:1;fill-rule:nonzero;stroke:none;stroke-width:1.83364797;stroke-linecap:butt;stroke-linejoin:miter;stroke-miterlimit:4;stroke-dasharray:none;stroke-dashoffset:0;stroke-opacity:1;color-rendering:auto;image-rendering:auto;shape-rendering:auto;text-rendering:auto;enable-background:accumulate"
         inkscape:connector-curvature="0" />
      <path
         sodipodi:nodetypes="cccc"
         inkscape:connector-curvature="0"
         id="path5812"
         d="m 89.567019,213.73699 -42.141994,31.86967 58.167485,15.31793 z"
         style="fill:#ffba95;fill-opacity:1;stroke:none;stroke-width:0.24034013;stroke-linecap:butt;stroke-linejoin:miter;stroke-miterlimit:4;stroke-dasharray:none;stroke-opacity:1" />
      <ellipse
         ry="28.225172"
         rx="39.962372"
         cy="234.07906"
         cx="117.14958"
         id="path5766"
         style="opacity:1;fill:#ffccaa;fill-opacity:1;stroke:none;stroke-width:0.24034013;stroke-linecap:round;stroke-miterlimit:4;stroke-dasharray:none;stroke-opacity:1" />
      <path
         sodipodi:nodetypes="aaaaaaa"
         inkscape:connector-curvature="0"
         id="path1148-8"
         d="m 98.729028,223.47755 c 4.764642,-0.0143 11.319862,0.43221 13.512222,4.66253 1.75838,3.39294 -0.87717,7.97107 -3.19301,11.01093 -2.44657,3.21141 -6.28204,6.33357 -10.319212,6.34067 -4.06046,0.008 -7.979491,-3.08132 -10.401025,-6.34067 -2.261812,-3.04433 -4.647704,-7.66301 -2.865805,-11.01093 2.202343,-4.13784 8.579405,-4.64919 13.26683,-4.66253 z"
         style="fill:#a15258;fill-opacity:1;stroke:none;stroke-width:0.5396899px;stroke-linecap:butt;stroke-linejoin:miter;stroke-opacity:1" />
      <g
         transform="matrix(0.58950796,0,0,0.58950796,-125.96311,168.69847)"
         id="g5787">
        <path
           style="fill:#a15258;fill-opacity:1;stroke:none;stroke-width:0.91549224px;stroke-linecap:butt;stroke-linejoin:miter;stroke-opacity:1"
           d="m 443.31344,91.547988 c 8.0824,-0.0242 19.20221,0.73317 22.92118,7.9092 2.9828,5.755542 -1.48796,13.521552 -5.4164,18.678162 -4.15018,5.44761 -10.65641,10.74382 -17.50478,10.75587 -6.88788,0.0142 -13.53585,-5.22694 -17.64357,-10.75587 -3.83678,-5.16418 -7.88404,-12.99899 -4.86135,-18.678162 3.7359,-7.01915 14.5535,-7.88657 22.50492,-7.9092 z"
           id="path1148-8-9"
           inkscape:connector-curvature="0"
           sodipodi:nodetypes="aaaaaaa" />
        <ellipse
           style="opacity:1;fill:#ffccaa;fill-opacity:1;stroke:none;stroke-width:0.93256927;stroke-linecap:round;stroke-miterlimit:4;stroke-dasharray:none;stroke-opacity:1"
           id="path5571"
           cx="452.10822"
           cy="19.341612"
           rx="4.9117098"
           ry="1.1520679"
           transform="matrix(0.97845709,0.2064503,-0.40693979,0.91345499,0,0)" />
        <ellipse
           style="opacity:1;fill:#ffccaa;fill-opacity:1;stroke:none;stroke-width:0.93256927;stroke-linecap:round;stroke-miterlimit:4;stroke-dasharray:none;stroke-opacity:1"
           id="path5571-2"
           cx="453.92551"
           cy="23.711203"
           rx="4.9117098"
           ry="1.152068"
           transform="matrix(0.97845709,0.2064503,-0.40693979,0.91345499,0,0)" />
        <ellipse
           style="opacity:1;fill:#ffccaa;fill-opacity:1;stroke:none;stroke-width:0.93256927;stroke-linecap:round;stroke-miterlimit:4;stroke-dasharray:none;stroke-opacity:1"
           id="path5571-8"
           cx="450.29013"
           cy="15.962835"
           rx="4.9117098"
           ry="1.152068"
           transform="matrix(0.97845709,0.2064503,-0.40693979,0.91345499,0,0)" />
        <ellipse
           style="opacity:1;fill:#ffccaa;fill-opacity:1;stroke:none;stroke-width:0.93256927;stroke-linecap:round;stroke-miterlimit:4;stroke-dasharray:none;stroke-opacity:1"
           id="path5571-88"
           cx="449.37164"
           cy="8.9826651"
           rx="4.9117098"
           ry="1.152068"
           transform="matrix(0.97845709,0.2064503,-0.40693979,0.91345499,0,0)" />
        <ellipse
           style="opacity:1;fill:#ffccaa;fill-opacity:1;stroke:none;stroke-width:0.93256927;stroke-linecap:round;stroke-miterlimit:4;stroke-dasharray:none;stroke-opacity:1"
           id="path5571-6"
           cx="455.67682"
           cy="27.360723"
           rx="4.9117098"
           ry="1.152068"
           transform="matrix(0.97845709,0.2064503,-0.40693979,0.91345499,0,0)" />
        <ellipse
           style="opacity:1;fill:#ffccaa;fill-opacity:1;stroke:none;stroke-width:0.93256927;stroke-linecap:round;stroke-miterlimit:4;stroke-dasharray:none;stroke-opacity:1"
           id="path5571-833"
           cx="450.33572"
           cy="13.114721"
           rx="4.9117098"
           ry="1.152068"
           transform="matrix(0.97845709,0.2064503,-0.40693979,0.91345499,0,0)" />
        <ellipse
           style="opacity:1;fill:#ffccaa;fill-opacity:1;stroke:none;stroke-width:0.93256927;stroke-linecap:round;stroke-miterlimit:4;stroke-dasharray:none;stroke-opacity:1"
           id="path5571-3"
           cx="447.32916"
           cy="5.0216565"
           rx="4.9117098"
           ry="1.152068"
           transform="matrix(0.97845709,0.2064503,-0.40693979,0.91345499,0,0)" />
        <ellipse
           style="opacity:1;fill:#ffccaa;fill-opacity:1;stroke:none;stroke-width:0.92903185;stroke-linecap:round;stroke-miterlimit:4;stroke-dasharray:none;stroke-opacity:1"
           id="path5571-3-8"
           cx="395.00928"
           cy="178.86795"
           rx="4.9388027"
           ry="1.1370726"
           transform="matrix(0.98498238,-0.17265486,0.34621918,0.93815365,0,0)" />
        <ellipse
           style="opacity:1;fill:#ffccaa;fill-opacity:1;stroke:none;stroke-width:0.92903185;stroke-linecap:round;stroke-miterlimit:4;stroke-dasharray:none;stroke-opacity:1"
           id="path5571-3-8-0"
           cx="396.55865"
           cy="174.45999"
           rx="4.9388027"
           ry="1.1370726"
           transform="matrix(0.98498238,-0.17265486,0.34621918,0.93815365,0,0)" />
        <ellipse
           style="opacity:1;fill:#ffccaa;fill-opacity:1;stroke:none;stroke-width:0.92903185;stroke-linecap:round;stroke-miterlimit:4;stroke-dasharray:none;stroke-opacity:1"
           id="path5571-3-8-4"
           cx="390.90942"
           cy="186.57776"
           rx="4.9388027"
           ry="1.1370726"
           transform="matrix(0.98498238,-0.17265486,0.34621918,0.93815365,0,0)" />
        <ellipse
           style="opacity:1;fill:#ffccaa;fill-opacity:1;stroke:none;stroke-width:0.92903185;stroke-linecap:round;stroke-miterlimit:4;stroke-dasharray:none;stroke-opacity:1"
           id="path5571-3-8-7"
           cx="392.29282"
           cy="182.64209"
           rx="4.9388027"
           ry="1.1370726"
           transform="matrix(0.98498238,-0.17265486,0.34621918,0.93815365,0,0)" />
        <ellipse
           style="opacity:1;fill:#ffccaa;fill-opacity:1;stroke:none;stroke-width:0.92903185;stroke-linecap:round;stroke-miterlimit:4;stroke-dasharray:none;stroke-opacity:1"
           id="path5571-3-8-6"
           cx="389.58142"
           cy="190.356"
           rx="4.9388027"
           ry="1.1370726"
           transform="matrix(0.98498238,-0.17265486,0.34621918,0.93815365,0,0)" />
        <ellipse
           style="opacity:1;fill:#ffccaa;fill-opacity:1;stroke:none;stroke-width:1.78245997;stroke-linecap:round;stroke-miterlimit:4;stroke-dasharray:none;stroke-opacity:1"
           id="path5571-3-8-8"
           cx="-7.336338"
           cy="455.12817"
           rx="18.314875"
           ry="1.1287148"
           transform="matrix(0.00823934,-0.99996606,0.9742617,0.22541991,0,0)" />
        <ellipse
           style="opacity:1;fill:#ffccaa;fill-opacity:1;stroke:none;stroke-width:0.92903185;stroke-linecap:round;stroke-miterlimit:4;stroke-dasharray:none;stroke-opacity:1"
           id="path5571-3-8-9"
           cx="388.33633"
           cy="193.89812"
           rx="4.9388027"
           ry="1.1370726"
           transform="matrix(0.98498238,-0.17265486,0.34621918,0.93815365,0,0)" />
        <ellipse
           style="opacity:1;fill:#ffccaa;fill-opacity:1;stroke:none;stroke-width:0.92903185;stroke-linecap:round;stroke-miterlimit:4;stroke-dasharray:none;stroke-opacity:1"
           id="path5571-3-8-06"
           cx="388.20154"
           cy="197.4762"
           rx="4.9388027"
           ry="1.1370726"
           transform="matrix(0.98498238,-0.17265486,0.34621918,0.93815365,0,0)" />
        <ellipse
           style="opacity:1;fill:#ffccaa;fill-opacity:1;stroke:none;stroke-width:0.92903185;stroke-linecap:round;stroke-miterlimit:4;stroke-dasharray:none;stroke-opacity:1"
           id="path5571-3-8-87"
           cx="385.79446"
           cy="204.32426"
           rx="4.9388027"
           ry="1.1370726"
           transform="matrix(0.98498238,-0.17265486,0.34621918,0.93815365,0,0)" />
        <ellipse
           style="opacity:1;fill:#ffccaa;fill-opacity:1;stroke:none;stroke-width:0.92903185;stroke-linecap:round;stroke-miterlimit:4;stroke-dasharray:none;stroke-opacity:1"
           id="path5571-3-8-90"
           cx="386.87347"
           cy="201.25444"
           rx="4.9388027"
           ry="1.1370726"
           transform="matrix(0.98498238,-0.17265486,0.34621918,0.93815365,0,0)" />
        <ellipse
           style="opacity:1;fill:#ffccaa;fill-opacity:1;stroke:none;stroke-width:0.93256927;stroke-linecap:round;stroke-miterlimit:4;stroke-dasharray:none;stroke-opacity:1"
           id="path5571-6-3"
           cx="458.02521"
           cy="31.603565"
           rx="4.9117098"
           ry="1.152068"
           transform="matrix(0.97845709,0.2064503,-0.40693979,0.91345499,0,0)" />
      </g>
    </g>
  </g>
</svg>
