<?xml version="1.0" encoding="UTF-8" standalone="no"?>
<!-- Created with Inkscape (http://www.inkscape.org/) -->

<svg
   xmlns:dc="http://purl.org/dc/elements/1.1/"
   xmlns:cc="http://creativecommons.org/ns#"
   xmlns:rdf="http://www.w3.org/1999/02/22-rdf-syntax-ns#"
   xmlns:svg="http://www.w3.org/2000/svg"
   xmlns="http://www.w3.org/2000/svg"
   xmlns:sodipodi="http://sodipodi.sourceforge.net/DTD/sodipodi-0.dtd"
   xmlns:inkscape="http://www.inkscape.org/namespaces/inkscape"
   width="77.247108mm"
   height="132.29167mm"
   viewBox="0 0 77.247108 132.29167"
   version="1.1"
   id="svg33"
   inkscape:version="0.92+devel unknown"
   sodipodi:docname="sistemam.svg">
  <defs
     id="defs27" />
  <sodipodi:namedview
     id="base"
     pagecolor="#ffffff"
     bordercolor="#666666"
     borderopacity="1.0"
     inkscape:pageopacity="0.0"
     inkscape:pageshadow="2"
     inkscape:zoom="0.33224638"
     inkscape:cx="-369.00596"
     inkscape:cy="-68.865874"
     inkscape:document-units="mm"
     inkscape:current-layer="layer1"
     inkscape:document-rotation="0"
     showgrid="false"
     fit-margin-top="0"
     fit-margin-left="0"
     fit-margin-right="0"
     fit-margin-bottom="0"
     inkscape:window-width="1366"
     inkscape:window-height="708"
     inkscape:window-x="0"
     inkscape:window-y="32"
     inkscape:window-maximized="1" />
  <metadata
     id="metadata30">
    <rdf:RDF>
      <cc:Work
         rdf:about="">
        <dc:format>image/svg+xml</dc:format>
        <dc:type
           rdf:resource="http://purl.org/dc/dcmitype/StillImage" />
        <dc:title></dc:title>
      </cc:Work>
    </rdf:RDF>
  </metadata>
  <g
     inkscape:label="Capa 1"
     inkscape:groupmode="layer"
     id="layer1"
     transform="translate(-203.46616,1.679096)">
    <g
       id="g142">
      <path
         sodipodi:nodetypes="asacasa"
         inkscape:connector-curvature="0"
         id="path38"
         d="m 242.25388,9.223754 c 9.42655,0.0377 23.2737,8.38498 22.34173,17.33777 -0.40232,3.864961 -2.51407,7.860691 -5.26737,10.74833 -4.48344,4.702241 -17.07436,9.400939 -17.07436,9.400939 0,0 -12.35197,-4.821848 -16.88152,-9.400939 -2.86674,-2.898079 -5.74848,-6.533999 -5.83329,-10.74833 -0.19407,-9.64455 13.18972,-17.37588 22.71481,-17.33777 z"
         style="fill:#fbccbc;fill-opacity:1;stroke:none;stroke-width:0.40370658px;stroke-linecap:butt;stroke-linejoin:miter;stroke-opacity:1" />
      <ellipse
         ry="11.246112"
         rx="7.7136788"
         cy="103.95063"
         cx="260.82523"
         id="path845-3"
         style="fill:#f5a294;fill-opacity:1;stroke:none;stroke-width:0.9093312" />
      <ellipse
         ry="11.246112"
         rx="7.7136788"
         cy="103.95063"
         cx="223.26608"
         id="path845"
         style="fill:#f5a294;fill-opacity:1;stroke:none;stroke-width:0.9093312;stroke-opacity:1" />
      <path
         id="path889"
         d="m 215.37803,9.918354 c -1.26568,-0.0249 -2.56151,0.13565 -3.80288,0.46442 -2.48274,0.65755 -4.79986,2.00242 -6.12104,4.13642 -3.20026,5.16917 -2.04039,11.080569 0.009,16.838191 2.04907,5.75763 5.0056,11.573759 5.95466,16.792469 1.10579,6.08057 2.72949,11.98997 3.18866,17.93734 0.24882,3.22263 -0.81604,6.822051 -0.21763,10.635922 0.30263,1.92872 1.14803,3.603059 1.88607,5.174078 0.73805,1.571011 1.36537,3.03168 1.47211,4.484931 0.10894,1.48328 -0.45202,3.119609 -1.06682,4.90833 -0.6148,1.788721 -1.28625,3.748849 -0.93595,5.89162 0.16202,0.990891 0.687,1.797569 1.14489,2.500289 0.45792,0.702696 0.89099,1.242656 0.89099,1.242656 a 1.1443652,1.1443652 0 0 0 1.60615,0.17898 1.1443652,1.1443652 0 0 0 0.179,-1.609296 c 0,0 -0.36849,-0.46035 -0.7601,-1.06132 -0.3916,-0.600969 -0.76587,-1.40082 -0.8019,-1.62112 -0.23525,-1.438918 0.2353,-3.01897 0.84053,-4.77983 0.60522,-1.760839 1.34281,-3.68128 1.18588,-5.817478 -0.1451,-1.976181 -0.93294,-3.694862 -1.68342,-5.292331 -0.75048,-1.597459 -1.46566,-3.085129 -1.69604,-4.553519 -0.49199,-3.135522 0.52845,-6.666772 0.23576,-10.457752 -0.48176,-6.2401 -2.13732,-12.226398 -3.21862,-18.1723 -1.04228,-5.731349 -4.07135,-11.59696 -6.04693,-17.148069 -1.97558,-5.551152 -2.87826,-10.574061 -0.21998,-14.867761 0.90346,-1.4593 2.69642,-2.58172 4.76169,-3.12873 2.06528,-0.54699 4.35976,-0.50214 6.0619,0.12222 5.97017,2.18988 11.89426,10.72759 16.06547,18.80153 4.17126,8.073911 6.71478,15.561622 6.71478,15.561622 a 1.1443652,1.1443652 0 0 0 0.008,0.0182 1.1443652,1.1443652 0 0 0 0.0236,0.0607 1.1443652,1.1443652 0 0 0 0.0244,0.0545 1.1443652,1.1443652 0 0 0 0.0236,0.0449 1.1443652,1.1443652 0 0 0 0.0292,0.0505 1.1443652,1.1443652 0 0 0 0.0309,0.0481 1.1443652,1.1443652 0 0 0 0.037,0.0513 1.1443652,1.1443652 0 0 0 0.0299,0.0371 1.1443652,1.1443652 0 0 0 0.0426,0.0481 1.1443652,1.1443652 0 0 0 0.0394,0.0403 1.1443652,1.1443652 0 0 0 0.0403,0.037 1.1443652,1.1443652 0 0 0 0.0449,0.0371 1.1443652,1.1443652 0 0 0 0.045,0.0347 1.1443652,1.1443652 0 0 0 0.0466,0.0309 1.1443652,1.1443652 0 0 0 0.0545,0.0332 1.1443652,1.1443652 0 0 0 0.0473,0.02519 1.1443652,1.1443652 0 0 0 0.0458,0.02209 1.1443652,1.1443652 0 0 0 0.0843,0.0356 1.1443652,1.1443652 0 0 0 0.003,7.94e-4 1.1443652,1.1443652 0 0 0 7.9e-4,0 1.1443652,1.1443652 0 0 0 0.0157,0.006 1.1443652,1.1443652 0 0 0 0.0607,0.01741 1.1443652,1.1443652 0 0 0 0.0411,0.01069 1.1443652,1.1443652 0 0 0 0.052,0.01069 1.1443652,1.1443652 0 0 0 0.06,0.01069 1.1443652,1.1443652 0 0 0 0.0639,0.006 1.1443652,1.1443652 0 0 0 0.0481,0.005 1.1443652,1.1443652 0 0 0 0.0772,-7.94e-4 1.1443652,1.1443652 0 0 0 0.0347,-7.94e-4 1.1443652,1.1443652 0 0 0 0.0639,-0.006 1.1443652,1.1443652 0 0 0 0.0568,-0.008 1.1443652,1.1443652 0 0 0 0.0386,-0.008 1.1443652,1.1443652 0 0 0 0.0756,-0.01741 1.1443652,1.1443652 0 0 0 0.003,-7.94e-4 1.1443652,1.1443652 0 0 0 0.006,-0.003 1.1443652,1.1443652 0 0 0 0.0536,-0.01569 1.1443652,1.1443652 0 0 0 0.0276,-0.01069 1.1443652,1.1443652 0 0 0 0.0473,-0.01889 1.1443652,1.1443652 0 0 0 0.0583,-0.02601 1.1443652,1.1443652 0 0 0 0.045,-0.0236 1.1443652,1.1443652 0 0 0 0.0505,-0.0291 1.1443652,1.1443652 0 0 0 0.0481,-0.0309 1.1443652,1.1443652 0 0 0 0.0513,-0.0371 1.1443652,1.1443652 0 0 0 0.037,-0.0299 1.1443652,1.1443652 0 0 0 0.0481,-0.0426 1.1443652,1.1443652 0 0 0 0.0403,-0.0395 1.1443652,1.1443652 0 0 0 0.0386,-0.0426 1.1443652,1.1443652 0 0 0 0.0315,-0.0371 1.1443652,1.1443652 0 0 0 0.0418,-0.0553 1.1443652,1.1443652 0 0 0 0.0276,-0.0411 1.1443652,1.1443652 0 0 0 0.0309,-0.0513 1.1443652,1.1443652 0 0 0 0.0276,-0.0505 1.1443652,1.1443652 0 0 0 0.0236,-0.0498 1.1443652,1.1443652 0 0 0 0.0252,-0.06 1.1443652,1.1443652 0 0 0 0.0137,-0.0363 1.1443652,1.1443652 0 0 0 0.002,-0.005 c 0,0 2.5467,-7.487711 6.71794,-15.56163 4.17123,-8.07394 10.09214,-16.61164 16.06232,-18.80152 1.70215,-0.62435 3.99978,-0.66921 6.06505,-0.12222 2.06528,0.54701 3.85824,1.66943 4.7617,3.12872 2.65828,4.29371 1.75561,9.316609 -0.21998,14.867761 -1.97559,5.55113 -5.00781,11.416739 -6.0501,17.148069 -1.0813,5.945931 -2.73685,11.932211 -3.21861,18.172311 -0.2927,3.790969 0.7309,7.322241 0.23891,10.457749 -0.23038,1.46839 -0.94556,2.956049 -1.69604,4.553511 -0.75047,1.59748 -1.53826,3.31616 -1.68342,5.292349 -0.15693,2.136212 0.58067,4.056631 1.18589,5.817471 0.60523,1.760849 1.07577,3.340899 0.84053,4.77983 -0.036,0.22031 -0.41343,1.020159 -0.80504,1.621125 -0.39161,0.60098 -0.76013,1.06131 -0.76013,1.06131 a 1.1443652,1.1443652 0 0 0 0.179,1.609306 1.1443652,1.1443652 0 0 0 1.60932,-0.179 c 0,0 0.43307,-0.53995 0.89098,-1.242646 0.4579,-0.70272 0.97973,-1.509407 1.14174,-2.500306 0.35033,-2.142749 -0.318,-4.10287 -0.9328,-5.89158 -0.61479,-1.788729 -1.17579,-3.42506 -1.06681,-4.908349 0.1068,-1.45325 0.73405,-2.91392 1.4721,-4.48492 0.73804,-1.57103 1.58344,-3.24534 1.88607,-5.174081 0.59841,-3.81387 -0.46645,-7.413331 -0.21763,-10.63594 0.45917,-5.947349 2.08286,-11.856739 3.18866,-17.93734 0.94906,-5.2187 3.9056,-11.034839 5.95466,-16.792461 2.04906,-5.757619 3.20894,-11.669009 0.009,-16.838189 -1.32118,-2.134 -3.64145,-3.47887 -6.1242,-4.13642 -1.24137,-0.32878 -2.53404,-0.48925 -3.79972,-0.46441 -1.26566,0.0249 -2.50295,0.23419 -3.63572,0.6497 -7.23471,2.65388 -13.04586,11.65136 -17.30771,19.900689 -2.63654,5.10312 -4.62846,9.957242 -5.76778,12.92546 -1.1389,-2.968121 -3.12938,-7.82237 -5.76587,-12.925619 -4.26186,-8.249514 -10.07299,-17.246994 -17.30814,-19.900874 -1.13277,-0.41551 -2.37005,-0.62488 -3.63572,-0.6497 z"
         style="color:#000000;font-style:normal;font-variant:normal;font-weight:normal;font-stretch:normal;font-size:medium;line-height:normal;font-family:sans-serif;font-variant-ligatures:normal;font-variant-position:normal;font-variant-caps:normal;font-variant-numeric:normal;font-variant-alternates:normal;font-variant-east-asian:normal;font-feature-settings:normal;text-indent:0;text-align:start;text-decoration:none;text-decoration-line:none;text-decoration-style:solid;text-decoration-color:#000000;letter-spacing:normal;word-spacing:normal;text-transform:none;writing-mode:lr-tb;direction:ltr;text-orientation:mixed;dominant-baseline:auto;baseline-shift:baseline;text-anchor:start;white-space:normal;shape-padding:0;clip-rule:nonzero;display:inline;overflow:visible;visibility:visible;opacity:1;isolation:auto;mix-blend-mode:normal;color-interpolation:sRGB;color-interpolation-filters:linearRGB;solid-color:#000000;solid-opacity:1;vector-effect:none;fill:#f47d75;fill-opacity:1;fill-rule:nonzero;stroke:none;stroke-width:2.28873086;stroke-linecap:round;stroke-linejoin:bevel;stroke-miterlimit:4;stroke-dasharray:none;stroke-dashoffset:0;stroke-opacity:1;color-rendering:auto;image-rendering:auto;shape-rendering:auto;text-rendering:auto;enable-background:accumulate"
         inkscape:connector-curvature="0" />
      <path
         sodipodi:nodetypes="aaaaaaaaaaaaaaaa"
         inkscape:connector-curvature="0"
         id="path892-7"
         d="m 266.17981,107.1226 c -0.28655,-0.48172 -0.27285,-1.09368 -0.50463,-1.60402 -0.1717,-0.37804 -0.47228,-0.68751 -0.64881,-1.06332 -0.79104,-1.6839 -0.58192,-3.88272 -1.81103,-5.279336 -0.42262,-0.48023 -1.2272,-0.44218 -1.72142,-0.84835 -0.79461,-0.653049 -1.01407,-1.887319 -1.87435,-2.45108 -0.69053,-0.452528 -1.74715,-0.0946 -2.40446,-0.594209 -0.55684,-0.423191 -1.17486,-1.14344 -1.0304,-1.82775 0.30249,-1.4327 2.05991,-2.517881 3.52007,-2.628 1.57249,-0.11856 3.00509,1.169519 4.1725,2.22968 1.13392,1.02973 1.6931,2.55302 2.54504,3.82592 0.58067,0.86758 1.41098,1.610219 1.74934,2.597809 0.70659,2.062376 0.32602,4.348246 0.44119,6.525266 0.0499,0.94254 0.45262,1.95078 0.10818,2.82954 -0.0775,0.19776 -0.23816,0.45237 -0.45055,0.45057 -1.00264,-0.009 -1.57803,-1.30099 -2.09062,-2.16272 z"
         style="fill:#d9806e;fill-opacity:1;stroke:none;stroke-width:0.40370658px;stroke-linecap:butt;stroke-linejoin:miter;stroke-opacity:1" />
      <path
         sodipodi:nodetypes="aaaaaaaaaaaaaaaa"
         inkscape:connector-curvature="0"
         id="path892"
         d="m 217.93137,107.1226 c 0.28656,-0.48172 0.27285,-1.09368 0.50464,-1.60402 0.17171,-0.37804 0.47228,-0.68751 0.64881,-1.06332 0.79103,-1.6839 0.58192,-3.88272 1.81103,-5.279336 0.42262,-0.48023 1.2272,-0.44218 1.72142,-0.84835 0.79461,-0.653049 1.01407,-1.887319 1.87434,-2.45108 0.69054,-0.452528 1.74716,-0.0946 2.40447,-0.594209 0.55682,-0.423191 1.17486,-1.14344 1.0304,-1.82775 -0.30249,-1.4327 -2.05992,-2.517881 -3.52007,-2.628 -1.57249,-0.11856 -3.00509,1.169519 -4.17251,2.22968 -1.13391,1.02973 -1.69309,2.55302 -2.54503,3.82592 -0.58067,0.86758 -1.41098,1.610219 -1.74934,2.597809 -0.7066,2.062376 -0.32603,4.348246 -0.4412,6.525266 -0.0499,0.94254 -0.45261,1.95078 -0.10818,2.82954 0.0775,0.19776 0.23817,0.45237 0.45056,0.45057 1.00263,-0.009 1.57803,-1.30099 2.09062,-2.16272 z"
         style="fill:#d9806e;fill-opacity:1;stroke:none;stroke-width:0.40370658px;stroke-linecap:butt;stroke-linejoin:miter;stroke-opacity:1" />
      <g
         transform="matrix(1.5258202,0,0,1.5258202,42.879187,-147.49083)"
         id="g972">
        <path
           style="fill:#d06560;fill-opacity:1;stroke:none;stroke-width:0.26458332px;stroke-linecap:butt;stroke-linejoin:miter;stroke-opacity:1"
           d="m 130.55894,145.85908 c 0,0 -2.58564,-5.01735 -2.10475,-7.1411 1.26599,0.36518 2.07969,0.9939 2.07969,0.9939 z"
           id="path953"
           inkscape:connector-curvature="0"
           sodipodi:nodetypes="cccc" />
        <path
           style="fill:#d06560;fill-opacity:1;stroke:none;stroke-width:0.26458332px;stroke-linecap:butt;stroke-linejoin:miter;stroke-opacity:1"
           d="m 130.55894,145.85908 c 0,0 2.58564,-5.01735 2.10475,-7.1411 -1.26599,0.36518 -2.07969,0.9939 -2.07969,0.9939 z"
           id="path953-3"
           inkscape:connector-curvature="0"
           sodipodi:nodetypes="cccc" />
      </g>
      <circle
         r="1.197769"
         cy="63.890369"
         cx="246.01372"
         id="path978"
         style="fill:#e99c8a;fill-opacity:1;stroke:none;stroke-width:0.40865946;stroke-linecap:round;stroke-linejoin:bevel;stroke-miterlimit:4;stroke-dasharray:none;stroke-opacity:1" />
      <circle
         r="1.197769"
         cy="63.890369"
         cx="238.1636"
         id="path978-5"
         style="fill:#e99c8a;fill-opacity:1;stroke:none;stroke-width:0.40865946;stroke-linecap:round;stroke-linejoin:bevel;stroke-miterlimit:4;stroke-dasharray:none;stroke-opacity:1" />
      <path
         inkscape:connector-curvature="0"
         id="path1108"
         d="m 231.36867,66.006766 c -0.0537,0.005 -0.10757,0.0122 -0.16165,0.02439 -0.50838,1.512938 -0.0234,3.297979 0.33117,4.89416 0.56806,2.5572 2.24917,4.77525 2.83935,7.327429 3.25585,14.079781 -1.82136,29.831015 3.67042,43.198185 0.79943,1.94582 4.04099,4.84763 4.04099,4.84763 0,0 3.2416,-2.90181 4.04102,-4.84763 5.49178,-13.36717 0.41377,-29.118404 3.66963,-43.198185 0.59016,-2.552179 2.27208,-4.770229 2.84014,-7.327429 0.35458,-1.596181 0.83874,-3.381222 0.33037,-4.89416 -1.73179,-0.39148 -3.24826,3.608848 -4.61346,5.607738 -2.41387,3.534312 -6.2677,11.206001 -6.2677,11.206001 0,0 -3.85382,-7.671689 -6.2677,-11.206001 -1.32253,-1.936419 -2.78788,-5.75156 -4.45258,-5.632188 z"
         style="fill:#b56b6a;fill-opacity:1;stroke:none;stroke-width:0.40370658;stroke-linecap:round;stroke-linejoin:bevel;stroke-miterlimit:4;stroke-dasharray:none;stroke-opacity:1" />
      <path
         inkscape:connector-curvature="0"
         id="path1130"
         d="m 240.91066,65.627504 c -1.1257,-0.005 -2.73159,0.131681 -3.29195,0.895721 -1.70757,2.328219 0.79645,5.72254 1.03371,8.600059 0.43264,5.247161 0.71356,10.514261 0.70885,15.779252 -0.006,6.182469 -0.76221,12.345524 -0.86576,18.527134 -0.0481,2.86516 1.1258,6.16938 0.63079,9.20482 -0.10375,0.63673 -0.13343,1.5663 -0.73881,1.78908 -0.98843,0.36374 -1.94975,-2.04844 -2.81097,-1.44214 -1.41691,0.9975 0.0524,6.40691 1.5139,9.11967 0.52425,0.97305 1.32733,2.26938 2.4325,2.25271 1.19926,-0.0182 2.56573,-2.52317 2.56573,-2.52317 0,0 1.3657,2.50501 2.56497,2.52317 1.10516,0.0168 1.90903,-1.27966 2.43327,-2.25271 1.46157,-2.71276 2.93081,-8.12217 1.5139,-9.11967 -0.86121,-0.6063 -1.82333,1.80588 -2.81175,1.44214 -0.60538,-0.22278 -0.63506,-1.15235 -0.73882,-1.78908 -0.495,-3.03544 0.67886,-6.33966 0.63079,-9.20482 -0.10355,-6.18161 -0.85887,-12.344665 -0.86497,-18.527134 -0.005,-5.264991 0.27542,-10.532091 0.70807,-15.779252 0.23726,-2.877519 2.74206,-6.27184 1.03449,-8.600059 -0.89659,-1.222471 -4.46995,-0.838949 -4.46995,-0.838949 0,0 -0.50257,-0.0539 -1.17799,-0.0568 z"
         style="fill:#df7f80;fill-opacity:1;stroke:none;stroke-width:0.40370658px;stroke-linecap:butt;stroke-linejoin:miter;stroke-opacity:1" />
      <path
         sodipodi:nodetypes="ccccccaacccccccccccccaaccccccc"
         inkscape:connector-curvature="0"
         id="path934"
         d="m 241.37513,45.993444 v 74.759836 c -0.56425,0.22621 -0.96378,0.69985 -0.98562,1.26079 h -0.003 v 0.0481 7.28957 c 0,0 -0.009,0.23467 -0.0771,0.32061 -0.14648,0.18377 -0.40046,0.27128 -0.63173,0.31328 -0.44235,0.0803 -1.34187,-0.1361 -1.34187,-0.1361 0,0 0.97683,0.7569 1.37724,0.763 0.22202,0.003 0.45908,-0.16004 0.67335,-0.36823 v 0.005 c 0.005,-0.005 0.009,-0.0107 0.0122,-0.0157 0.0917,-0.0903 0.17449,-0.18399 0.2539,-0.2815 0.39985,-0.37789 0.91694,-0.59852 1.45318,-0.60005 0.53483,8e-4 1.05092,0.21971 1.45082,0.59532 0.0835,0.10269 0.17021,0.20116 0.26729,0.29569 l 0.003,0.003 v -0.002 c 0.21427,0.20819 0.45213,0.37196 0.67416,0.36824 0.4004,-0.006 1.47838,-0.89045 1.47838,-0.89044 0,0 -0.93961,0.32341 -1.41597,0.26366 -0.22651,-0.0284 -0.46939,-0.11747 -0.62145,-0.28779 -0.081,-0.0906 -0.11505,-0.34625 -0.11505,-0.34625 v -7.28957 -0.0481 h -0.002 c -0.0218,-0.56106 -0.4213,-1.03462 -0.98562,-1.26079 V 45.994304 Z"
         style="color:#000000;font-style:normal;font-variant:normal;font-weight:normal;font-stretch:normal;font-size:medium;line-height:normal;font-family:sans-serif;font-variant-ligatures:normal;font-variant-position:normal;font-variant-caps:normal;font-variant-numeric:normal;font-variant-alternates:normal;font-variant-east-asian:normal;font-feature-settings:normal;text-indent:0;text-align:start;text-decoration:none;text-decoration-line:none;text-decoration-style:solid;text-decoration-color:#000000;letter-spacing:normal;word-spacing:normal;text-transform:none;writing-mode:lr-tb;direction:ltr;text-orientation:mixed;dominant-baseline:auto;baseline-shift:baseline;text-anchor:start;white-space:normal;shape-padding:0;clip-rule:nonzero;display:inline;overflow:visible;visibility:visible;opacity:1;isolation:auto;mix-blend-mode:normal;color-interpolation:sRGB;color-interpolation-filters:linearRGB;solid-color:#000000;solid-opacity:1;vector-effect:none;fill:#d06764;fill-opacity:1;fill-rule:nonzero;stroke:none;stroke-width:1.40596962;stroke-linecap:butt;stroke-linejoin:miter;stroke-miterlimit:4;stroke-dasharray:none;stroke-dashoffset:0;stroke-opacity:1;color-rendering:auto;image-rendering:auto;shape-rendering:auto;text-rendering:auto;enable-background:accumulate" />
      <path
         sodipodi:nodetypes="aaaaacaaazsa"
         inkscape:connector-curvature="0"
         id="path936"
         d="m 229.62128,32.387784 c 0.99618,0.577431 1.3546,1.880801 2.1976,2.665121 1.06095,0.98707 2.56704,1.44721 3.54463,2.516889 0.57179,0.62567 0.76025,1.52759 1.28004,2.197081 0.40177,0.517499 0.97511,0.880769 1.40001,1.37944 1.50808,1.76989 4.04509,5.68317 4.04509,5.68317 0,0 -5.49824,-2.481461 -8.16032,-3.894949 -0.86554,-0.459582 -1.77709,-0.867633 -2.53526,-1.488552 -0.48404,-0.396398 -0.78098,-0.986239 -1.25072,-1.399479 -0.83276,-0.732631 -1.50239,-0.541559 -2.74341,-1.88301 -1.24104,-1.341462 -4.64097,-5.185532 -3.16049,-6.696372 1.22496,-1.25009 3.80794,0.008 5.38283,0.920661 z"
         style="fill:#d56758;fill-opacity:1;stroke:none;stroke-width:0.40434232;stroke-linecap:butt;stroke-linejoin:miter;stroke-miterlimit:4;stroke-dasharray:none;stroke-opacity:1" />
      <path
         sodipodi:nodetypes="aaaaacaaazsa"
         inkscape:connector-curvature="0"
         id="path936-5"
         d="m 254.55602,32.387784 c -0.99618,0.577431 -1.35459,1.880801 -2.19761,2.665121 -1.06095,0.98707 -2.56704,1.44721 -3.54462,2.516889 -0.57178,0.62567 -0.76027,1.52759 -1.28005,2.197081 -0.40177,0.517499 -0.97511,0.880769 -1.4,1.37944 -1.50808,1.76989 -4.04509,5.68317 -4.04509,5.68317 0,0 5.49823,-2.481461 8.16031,-3.894949 0.86554,-0.459582 1.7771,-0.867633 2.53528,-1.488552 0.48404,-0.396398 0.78095,-0.986239 1.25072,-1.399479 0.83274,-0.732631 1.50237,-0.541559 2.7434,-1.88301 1.24105,-1.341462 4.64096,-5.185532 3.16049,-6.696372 -1.22495,-1.25009 -3.80794,0.008 -5.38283,0.920661 z"
         style="fill:#d56758;fill-opacity:1;stroke:none;stroke-width:0.40434232;stroke-linecap:butt;stroke-linejoin:miter;stroke-miterlimit:4;stroke-dasharray:none;stroke-opacity:1" />
      <path
         sodipodi:nodetypes="aaaaaaa"
         inkscape:connector-curvature="0"
         id="path1148"
         d="m 242.01518,45.959194 c 3.56412,-0.01069 8.46765,0.32331 10.10761,3.48774 1.31533,2.538032 -0.65615,5.962632 -2.38848,8.236551 -1.83012,2.402239 -4.69918,4.737719 -7.71913,4.74304 -3.03736,0.006 -5.96893,-2.304939 -7.78032,-4.74304 -1.69191,-2.277261 -3.47664,-5.732201 -2.14372,-8.236551 1.64743,-3.095249 6.41769,-3.47776 9.92404,-3.48774 z"
         style="fill:#a15258;fill-opacity:1;stroke:none;stroke-width:0.40370658px;stroke-linecap:butt;stroke-linejoin:miter;stroke-opacity:1" />
      <path
         id="path1163"
         d="m 263.27523,-1.679096 c 0,0 -0.93967,1.77757 -1.24272,3.1350799 -0.67466,3.0222301 -0.38858,6.0761703 -0.22946,8.9731301 0.15913,2.89695 0.19282,5.61793 -0.73311,8.02844 -0.29312,0.7631 -1.31931,2.12158 -2.26191,3.16489 -0.9426,1.04329 -1.78211,1.8268 -1.78211,1.8268 l 1.51092,1.624181 c 0,0 0.90598,-0.842451 1.91919,-1.963901 1.01321,-1.12145 2.15059,-2.46484 2.6851,-3.85629 1.12838,-2.93757 1.041,-5.99937 0.87913,-8.94631 -0.16188,-2.9469299 -0.39473,-5.7989499 0.1788,-8.3681599 0.14802,-0.6632501 1.0639,-2.63144009 1.0639,-2.63144009 z"
         style="color:#000000;font-style:normal;font-variant:normal;font-weight:normal;font-stretch:normal;font-size:medium;line-height:normal;font-family:sans-serif;font-variant-ligatures:normal;font-variant-position:normal;font-variant-caps:normal;font-variant-numeric:normal;font-variant-alternates:normal;font-variant-east-asian:normal;font-feature-settings:normal;text-indent:0;text-align:start;text-decoration:none;text-decoration-line:none;text-decoration-style:solid;text-decoration-color:#000000;letter-spacing:normal;word-spacing:normal;text-transform:none;writing-mode:lr-tb;direction:ltr;text-orientation:mixed;dominant-baseline:auto;baseline-shift:baseline;text-anchor:start;white-space:normal;shape-padding:0;clip-rule:nonzero;display:inline;overflow:visible;visibility:visible;opacity:1;isolation:auto;mix-blend-mode:normal;color-interpolation:sRGB;color-interpolation-filters:linearRGB;solid-color:#000000;solid-opacity:1;vector-effect:none;fill:#c28d65;fill-opacity:1;fill-rule:nonzero;stroke:none;stroke-width:2.22038627;stroke-linecap:butt;stroke-linejoin:miter;stroke-miterlimit:4;stroke-dasharray:none;stroke-dashoffset:0;stroke-opacity:1;color-rendering:auto;image-rendering:auto;shape-rendering:auto;text-rendering:auto;enable-background:accumulate"
         inkscape:connector-curvature="0" />
      <path
         id="path1163-7"
         d="m 220.90208,-1.679096 c 0,0 0.93965,1.77757 1.2427,3.1350799 0.67465,3.02221 0.38859,6.0761703 0.22946,8.9731201 -0.15912,2.89695 -0.19283,5.61793 0.73312,8.02843 0.29312,0.7631 1.3193,2.12158 2.26191,3.16489 0.94259,1.0433 1.7821,1.8268 1.7821,1.8268 l -1.51091,1.62418 c 0,0 -0.90599,-0.84245 -1.91919,-1.9639 -1.01322,-1.12145 -2.1506,-2.46484 -2.68509,-3.85628 -1.12841,-2.93757 -1.04101,-5.99938 -0.87913,-8.94631 0.16187,-2.9469199 0.39471,-5.79896 -0.17882,-8.3681599 -0.148,-0.6632401 -1.06389,-2.63143009 -1.06389,-2.63143009 z"
         style="color:#000000;font-style:normal;font-variant:normal;font-weight:normal;font-stretch:normal;font-size:medium;line-height:normal;font-family:sans-serif;font-variant-ligatures:normal;font-variant-position:normal;font-variant-caps:normal;font-variant-numeric:normal;font-variant-alternates:normal;font-variant-east-asian:normal;font-feature-settings:normal;text-indent:0;text-align:start;text-decoration:none;text-decoration-line:none;text-decoration-style:solid;text-decoration-color:#000000;letter-spacing:normal;word-spacing:normal;text-transform:none;writing-mode:lr-tb;direction:ltr;text-orientation:mixed;dominant-baseline:auto;baseline-shift:baseline;text-anchor:start;white-space:normal;shape-padding:0;clip-rule:nonzero;display:inline;overflow:visible;visibility:visible;opacity:1;isolation:auto;mix-blend-mode:normal;color-interpolation:sRGB;color-interpolation-filters:linearRGB;solid-color:#000000;solid-opacity:1;vector-effect:none;fill:#c28d65;fill-opacity:1;fill-rule:nonzero;stroke:none;stroke-width:2.22038627;stroke-linecap:butt;stroke-linejoin:miter;stroke-miterlimit:4;stroke-dasharray:none;stroke-dashoffset:0;stroke-opacity:1;color-rendering:auto;image-rendering:auto;shape-rendering:auto;text-rendering:auto;enable-background:accumulate"
         inkscape:connector-curvature="0" />
    </g>
  </g>
</svg>
