<?xml version="1.0" encoding="UTF-8" standalone="no"?>
<!-- Created with Inkscape (http://www.inkscape.org/) -->

<svg
   xmlns:dc="http://purl.org/dc/elements/1.1/"
   xmlns:cc="http://creativecommons.org/ns#"
   xmlns:rdf="http://www.w3.org/1999/02/22-rdf-syntax-ns#"
   xmlns:svg="http://www.w3.org/2000/svg"
   xmlns="http://www.w3.org/2000/svg"
   xmlns:sodipodi="http://sodipodi.sourceforge.net/DTD/sodipodi-0.dtd"
   xmlns:inkscape="http://www.inkscape.org/namespaces/inkscape"
   width="77.246468mm"
   height="132.29167mm"
   viewBox="0 0 77.246469 132.29167"
   version="1.1"
   id="svg8"
   inkscape:version="0.92+devel unknown"
   sodipodi:docname="srm.svg"
   inkscape:export-filename="/home/desarrollo/Documentos/conozco-mi-cuerpo/img/masculino/srm.png"
   inkscape:export-xdpi="96"
   inkscape:export-ydpi="96">
  <defs
     id="defs2" />
  <sodipodi:namedview
     id="base"
     pagecolor="#ffffff"
     bordercolor="#666666"
     borderopacity="1.0"
     inkscape:pageopacity="0.0"
     inkscape:pageshadow="2"
     inkscape:zoom="0.2907532"
     inkscape:cx="-17.687206"
     inkscape:cy="568.12237"
     inkscape:document-units="mm"
     inkscape:current-layer="layer1"
     inkscape:document-rotation="0"
     showgrid="false"
     inkscape:window-width="1366"
     inkscape:window-height="708"
     inkscape:window-x="0"
     inkscape:window-y="32"
     inkscape:window-maximized="1"
     fit-margin-top="0"
     fit-margin-left="0"
     fit-margin-right="0"
     fit-margin-bottom="0" />
  <metadata
     id="metadata5">
    <rdf:RDF>
      <cc:Work
         rdf:about="">
        <dc:format>image/svg+xml</dc:format>
        <dc:type
           rdf:resource="http://purl.org/dc/dcmitype/StillImage" />
        <dc:title></dc:title>
      </cc:Work>
    </rdf:RDF>
  </metadata>
  <g
     inkscape:label="Capa 1"
     inkscape:groupmode="layer"
     id="layer1"
     transform="translate(-20.177954,-167.87901)">
    <g
       id="g4520"
       inkscape:export-xdpi="96"
       inkscape:export-ydpi="96"
       transform="matrix(0.44097221,0,0,0.44097221,11.280037,167.80375)">
      <path
         sodipodi:nodetypes="asacasa"
         inkscape:connector-curvature="0"
         id="path38"
         d="m 108.13748,24.895252 c 21.37675,0.08546 52.77816,19.014759 50.66472,39.317135 -0.91236,8.764637 -5.70121,17.825819 -11.9449,24.374164 -10.16719,10.663363 -38.71982,21.318679 -38.71982,21.318679 0,0 -28.010755,-10.93459 -38.282503,-21.318679 C 63.354018,82.014524 56.819056,73.769288 56.626736,64.212387 56.186644,42.341286 86.537268,24.808827 108.13748,24.895252 Z"
         style="fill:#fbccbc;fill-opacity:1;stroke:none;stroke-width:0.91549212px;stroke-linecap:butt;stroke-linejoin:miter;stroke-opacity:1" />
      <ellipse
         ry="25.502995"
         rx="17.492437"
         cy="239.70891"
         cx="150.25206"
         id="path845-3"
         style="fill:#f5a294;fill-opacity:1;stroke:none;stroke-width:2.06210542" />
      <ellipse
         ry="25.502995"
         rx="17.492437"
         cy="239.70891"
         cx="65.078545"
         id="path845"
         style="fill:#f5a294;fill-opacity:1;stroke:none;stroke-width:2.06210542;stroke-opacity:1" />
      <path
         id="path889"
         d="m 47.190665,26.470407 c -2.87019,-0.05643 -5.808767,0.307608 -8.623852,1.053172 -5.630151,1.491127 -10.884729,4.540921 -13.88079,9.38022 -7.257265,11.722221 -4.627024,25.127587 0.02076,38.184247 4.646716,13.056662 11.351304,26.246014 13.503503,38.080554 2.507618,13.78902 6.189702,27.18987 7.230963,40.67681 0.564246,7.308 -1.850536,15.47047 -0.493522,24.11926 0.686287,4.37378 2.603415,8.17072 4.277067,11.73333 1.673694,3.56262 3.096272,6.875 3.338338,10.17056 0.247042,3.36365 -1.025057,7.07439 -2.419257,11.1307 -1.39418,4.05632 -2.91685,8.50133 -2.12245,13.36052 0.367411,2.24706 1.557901,4.07639 2.596279,5.66996 1.03842,1.59352 2.020505,2.81799 2.020505,2.81799 a 2.5950959,2.5950959 0 0 0 3.642299,0.40587 2.5950959,2.5950959 0 0 0 0.405927,-3.64943 c 0,0 -0.835638,-1.04395 -1.723699,-2.40676 -0.88804,-1.36284 -1.736779,-3.17668 -1.818488,-3.67625 -0.53347,-3.26306 0.53359,-6.84617 1.906083,-10.8393 1.372474,-3.99309 3.045117,-8.34809 2.689257,-13.1924 -0.329056,-4.48141 -2.115658,-8.3789 -3.817529,-12.00151 -1.701869,-3.62258 -3.323703,-6.99618 -3.846148,-10.32608 -1.115674,-7.11048 1.198392,-15.11834 0.534639,-23.71521 C 49.518054,139.29587 45.763733,125.72065 43.311644,112.23702 40.948036,99.239944 34.078961,85.938411 29.598909,73.350059 25.118858,60.761625 23.071829,49.3711 29.100068,39.634192 c 2.048781,-3.309273 6.114703,-5.854601 10.798161,-7.095056 4.683459,-1.240436 9.886701,-1.138732 13.746676,0.277155 13.538653,4.966016 26.972803,24.327121 36.43193,42.636526 9.459231,18.309359 15.227215,35.289343 15.227215,35.289343 a 2.5950959,2.5950959 0 0 0 0.0181,0.0412 2.5950959,2.5950959 0 0 0 0.0536,0.13767 2.5950959,2.5950959 0 0 0 0.0554,0.12355 2.5950959,2.5950959 0 0 0 0.0536,0.10183 2.5950959,2.5950959 0 0 0 0.0661,0.11449 2.5950959,2.5950959 0 0 0 0.07,0.10908 2.5950959,2.5950959 0 0 0 0.084,0.11629 2.5950959,2.5950959 0 0 0 0.0678,0.0841 2.5950959,2.5950959 0 0 0 0.0966,0.10908 2.5950959,2.5950959 0 0 0 0.0893,0.0914 2.5950959,2.5950959 0 0 0 0.0913,0.084 2.5950959,2.5950959 0 0 0 0.10181,0.0841 2.5950959,2.5950959 0 0 0 0.10202,0.0786 2.5950959,2.5950959 0 0 0 0.10561,0.07 2.5950959,2.5950959 0 0 0 0.12355,0.0752 2.5950959,2.5950959 0 0 0 0.10722,0.0571 2.5950959,2.5950959 0 0 0 0.1038,0.0502 2.5950959,2.5950959 0 0 0 0.19127,0.0807 2.5950959,2.5950959 0 0 0 0.006,0.002 2.5950959,2.5950959 0 0 0 0.002,0 2.5950959,2.5950959 0 0 0 0.0357,0.0142 2.5950959,2.5950959 0 0 0 0.13765,0.0395 2.5950959,2.5950959 0 0 0 0.0931,0.0242 2.5950959,2.5950959 0 0 0 0.11791,0.0242 2.5950959,2.5950959 0 0 0 0.13605,0.0242 2.5950959,2.5950959 0 0 0 0.14492,0.0142 2.5950959,2.5950959 0 0 0 0.10903,0.0104 2.5950959,2.5950959 0 0 0 0.17515,-0.002 2.5950959,2.5950959 0 0 0 0.0787,-0.002 2.5950959,2.5950959 0 0 0 0.14492,-0.0142 2.5950959,2.5950959 0 0 0 0.12878,-0.0182 2.5950959,2.5950959 0 0 0 0.0875,-0.0181 2.5950959,2.5950959 0 0 0 0.17152,-0.0395 2.5950959,2.5950959 0 0 0 0.006,-0.002 2.5950959,2.5950959 0 0 0 0.0141,-0.006 2.5950959,2.5950959 0 0 0 0.12153,-0.0357 2.5950959,2.5950959 0 0 0 0.0626,-0.0242 2.5950959,2.5950959 0 0 0 0.10723,-0.0429 2.5950959,2.5950959 0 0 0 0.13221,-0.059 2.5950959,2.5950959 0 0 0 0.10201,-0.0536 2.5950959,2.5950959 0 0 0 0.11449,-0.0661 2.5950959,2.5950959 0 0 0 0.10904,-0.07 2.5950959,2.5950959 0 0 0 0.1163,-0.0841 2.5950959,2.5950959 0 0 0 0.084,-0.0678 2.5950959,2.5950959 0 0 0 0.10905,-0.0965 2.5950959,2.5950959 0 0 0 0.0913,-0.0896 2.5950959,2.5950959 0 0 0 0.0875,-0.0965 2.5950959,2.5950959 0 0 0 0.0715,-0.0841 2.5950959,2.5950959 0 0 0 0.0948,-0.12536 2.5950959,2.5950959 0 0 0 0.0626,-0.0931 2.5950959,2.5950959 0 0 0 0.07,-0.11631 2.5950959,2.5950959 0 0 0 0.0626,-0.11449 2.5950959,2.5950959 0 0 0 0.0536,-0.11287 2.5950959,2.5950959 0 0 0 0.0571,-0.13605 2.5950959,2.5950959 0 0 0 0.031,-0.0824 2.5950959,2.5950959 0 0 0 0.004,-0.0104 c 0,0 5.77519,-16.980012 15.23437,-35.289375 9.45917,-18.309403 22.88612,-37.670489 36.42478,-42.636525 3.86001,-1.415847 9.07037,-1.51757 13.75383,-0.277155 4.68346,1.240456 8.74938,3.785803 10.79817,7.095057 6.02823,9.736907 3.98123,21.127432 -0.49885,33.715866 -4.48006,12.588393 -11.35628,25.889919 -13.71989,38.886962 -2.4521,13.48367 -6.20642,27.05887 -7.29891,41.20964 -0.66376,8.59686 1.65747,16.60477 0.54179,23.71521 -0.52244,3.32991 -2.14427,6.7035 -3.84614,10.32608 -1.70187,3.62263 -3.48834,7.52011 -3.81753,12.00155 -0.35586,4.84432 1.31679,9.19929 2.68926,13.19237 1.37249,3.99312 2.43955,7.57622 1.90608,10.83929 -0.0816,0.49962 -0.93752,2.31345 -1.8256,3.67627 -0.88805,1.36286 -1.72375,2.40675 -1.72375,2.40675 a 2.5950959,2.5950959 0 0 0 0.40591,3.64946 2.5950959,2.5950959 0 0 0 3.64948,-0.40591 c 0,0 0.98209,-1.22447 2.0205,-2.81798 1.03838,-1.59358 2.22175,-3.42293 2.58915,-5.66999 0.79444,-4.85915 -0.72114,-9.30416 -2.11532,-13.36045 -1.39418,-4.05633 -2.66638,-7.76707 -2.41924,-11.13075 0.24219,-3.29556 1.66463,-6.60794 3.33832,-10.17053 1.67367,-3.56264 3.59079,-7.35951 4.27707,-11.73333 1.35702,-8.64878 -1.05777,-16.81133 -0.49352,-24.1193 1.04125,-13.48691 4.72334,-26.88774 7.23098,-40.67681 2.1522,-11.83454 8.85677,-25.023883 13.50348,-38.080545 4.64668,-13.056639 7.27695,-26.462006 0.0207,-38.184227 -2.99607,-4.839319 -8.25778,-7.889093 -13.88795,-9.38024 -2.81509,-0.745583 -5.7465,-1.109487 -8.6167,-1.053153 -2.87016,0.05643 -5.67598,0.531092 -8.24479,1.47335 C 143.68805,33.960393 130.51,54.364131 120.84533,73.071279 114.8664,84.643712 110.34929,95.651469 107.76564,102.38255 105.1829,95.651595 100.66905,84.643536 94.690232,73.070828 85.025583,54.363679 71.847567,33.959942 55.440315,27.9417 52.871508,26.999442 50.065693,26.524644 47.195522,26.46835 Z"
         style="color:#000000;font-style:normal;font-variant:normal;font-weight:normal;font-stretch:normal;font-size:medium;line-height:normal;font-family:sans-serif;font-variant-ligatures:normal;font-variant-position:normal;font-variant-caps:normal;font-variant-numeric:normal;font-variant-alternates:normal;font-variant-east-asian:normal;font-feature-settings:normal;text-indent:0;text-align:start;text-decoration:none;text-decoration-line:none;text-decoration-style:solid;text-decoration-color:#000000;letter-spacing:normal;word-spacing:normal;text-transform:none;writing-mode:lr-tb;direction:ltr;text-orientation:mixed;dominant-baseline:auto;baseline-shift:baseline;text-anchor:start;white-space:normal;shape-padding:0;clip-rule:nonzero;display:inline;overflow:visible;visibility:visible;opacity:1;isolation:auto;mix-blend-mode:normal;color-interpolation:sRGB;color-interpolation-filters:linearRGB;solid-color:#000000;solid-opacity:1;vector-effect:none;fill:#f47d75;fill-opacity:1;fill-rule:nonzero;stroke:none;stroke-width:5.19019222;stroke-linecap:round;stroke-linejoin:bevel;stroke-miterlimit:4;stroke-dasharray:none;stroke-dashoffset:0;stroke-opacity:1;color-rendering:auto;image-rendering:auto;shape-rendering:auto;text-rendering:auto;enable-background:accumulate"
         inkscape:connector-curvature="0" />
      <path
         sodipodi:nodetypes="aaaaaaaaaaaaaaaa"
         inkscape:connector-curvature="0"
         id="path892-7"
         d="m 162.3947,246.90208 c -0.64981,-1.09239 -0.61873,-2.48014 -1.14435,-3.63746 -0.38937,-0.85728 -1.071,-1.55908 -1.47132,-2.4113 -1.79384,-3.81862 -1.31963,-8.8049 -4.10689,-11.97206 -0.95839,-1.08901 -2.78296,-1.00272 -3.90369,-1.9238 -1.80197,-1.48094 -2.29964,-4.27991 -4.2505,-5.55836 -1.56593,-1.02621 -3.96205,-0.21454 -5.45263,-1.3475 -1.26275,-0.95967 -2.66426,-2.593 -2.33666,-4.14483 0.68596,-3.24894 4.6713,-5.70982 7.98251,-5.95955 3.56597,-0.26885 6.81469,2.65215 9.46206,5.05629 2.5714,2.33514 3.83947,5.78952 5.77143,8.6761 1.31678,1.96743 3.19969,3.65151 3.967,5.8911 1.60235,4.67688 0.73933,9.8606 1.0005,14.79745 0.11311,2.13742 1.0264,4.42382 0.24532,6.41661 -0.17576,0.44845 -0.54009,1.02584 -1.02173,1.02176 -2.27369,-0.0207 -3.57851,-2.95027 -4.74093,-4.90445 z"
         style="fill:#d9806e;fill-opacity:1;stroke:none;stroke-width:0.91549212px;stroke-linecap:butt;stroke-linejoin:miter;stroke-opacity:1" />
      <path
         sodipodi:nodetypes="aaaaaaaaaaaaaaaa"
         inkscape:connector-curvature="0"
         id="path892"
         d="m 52.980931,246.90208 c 0.649825,-1.09239 0.618746,-2.48014 1.144375,-3.63746 0.389379,-0.85728 1.070989,-1.55908 1.471314,-2.4113 1.793839,-3.81862 1.319625,-8.8049 4.106897,-11.97206 0.958383,-1.08901 2.782939,-1.00272 3.903691,-1.9238 1.801961,-1.48094 2.299635,-4.27991 4.250484,-5.55836 1.565942,-1.02621 3.96206,-0.21454 5.452643,-1.3475 1.262727,-0.95967 2.664264,-2.593 2.33666,-4.14483 -0.685964,-3.24894 -4.671304,-5.70982 -7.982512,-5.95955 -3.56597,-0.26885 -6.814696,2.65215 -9.46207,5.05629 -2.571388,2.33514 -3.839457,5.78952 -5.771419,8.6761 -1.316784,1.96743 -3.199689,3.65151 -3.967,5.8911 -1.602363,4.67688 -0.739335,9.8606 -1.000506,14.79745 -0.113073,2.13742 -1.026407,4.42382 -0.24533,6.41661 0.175752,0.44845 0.5401,1.02584 1.02175,1.02176 2.273676,-0.0207 3.578507,-2.95027 4.740921,-4.90445 z"
         style="fill:#d9806e;fill-opacity:1;stroke:none;stroke-width:0.91549212px;stroke-linecap:butt;stroke-linejoin:miter;stroke-opacity:1" />
      <g
         transform="matrix(3.4601279,0,0,3.4601279,-343.98781,-330.48902)"
         id="g972">
        <path
           style="fill:#d06560;fill-opacity:1;stroke:none;stroke-width:0.26458332px;stroke-linecap:butt;stroke-linejoin:miter;stroke-opacity:1"
           d="m 130.55894,145.85908 c 0,0 -2.58564,-5.01735 -2.10475,-7.1411 1.26599,0.36518 2.07969,0.9939 2.07969,0.9939 z"
           id="path953"
           inkscape:connector-curvature="0"
           sodipodi:nodetypes="cccc" />
        <path
           style="fill:#d06560;fill-opacity:1;stroke:none;stroke-width:0.26458332px;stroke-linecap:butt;stroke-linejoin:miter;stroke-opacity:1"
           d="m 130.55894,145.85908 c 0,0 2.58564,-5.01735 2.10475,-7.1411 -1.26599,0.36518 -2.07969,0.9939 -2.07969,0.9939 z"
           id="path953-3"
           inkscape:connector-curvature="0"
           sodipodi:nodetypes="cccc" />
      </g>
      <circle
         r="2.7162006"
         cy="148.86362"
         cx="116.66373"
         id="path978"
         style="fill:#e99c8a;fill-opacity:1;stroke:none;stroke-width:0.92672384;stroke-linecap:round;stroke-linejoin:bevel;stroke-miterlimit:4;stroke-dasharray:none;stroke-opacity:1" />
      <circle
         r="2.7162006"
         cy="148.86362"
         cx="98.861893"
         id="path978-5"
         style="fill:#e99c8a;fill-opacity:1;stroke:none;stroke-width:0.92672384;stroke-linecap:round;stroke-linejoin:bevel;stroke-miterlimit:4;stroke-dasharray:none;stroke-opacity:1" />
      <path
         inkscape:connector-curvature="0"
         id="path1108"
         d="m 83.452907,153.66302 c -0.121737,0.0104 -0.243939,0.0276 -0.366563,0.0554 -1.152861,3.43091 -0.05301,7.47889 0.750985,11.09856 1.288203,5.79901 5.10049,10.82892 6.438841,16.61653 7.383357,31.92895 -4.130317,67.64828 8.323479,97.96124 1.812871,4.41257 9.163821,10.99305 9.163821,10.99305 0,0 7.35102,-6.58048 9.16388,-10.99305 12.4538,-30.31296 0.93832,-66.03229 8.32168,-97.96124 1.33833,-5.78761 5.15244,-10.81752 6.44064,-16.61653 0.80408,-3.61967 1.90202,-7.66765 0.74919,-11.09856 -3.92721,-0.88777 -7.36613,8.18385 -10.46202,12.71677 -5.47398,8.01481 -14.21337,25.41203 -14.21337,25.41203 0,0 -8.739371,-17.39722 -14.21336,-25.41203 -2.999143,-4.39125 -6.322142,-13.04292 -10.097203,-12.77221 z"
         style="fill:#b56b6a;fill-opacity:1;stroke:none;stroke-width:0.91549212;stroke-linecap:round;stroke-linejoin:bevel;stroke-miterlimit:4;stroke-dasharray:none;stroke-opacity:1" />
      <path
         inkscape:connector-curvature="0"
         id="path1130"
         d="m 105.09143,152.80296 c -2.55277,-0.0121 -6.194471,0.29861 -7.4652,2.03124 -3.87229,5.27974 1.806114,12.97711 2.344155,19.5025 0.981115,11.89908 1.618145,23.84336 1.607485,35.78287 -0.0141,14.02008 -1.728479,27.99617 -1.963302,42.0143 -0.109046,6.49738 2.552992,13.99041 1.430452,20.87393 -0.23528,1.44391 -0.30259,3.55191 -1.675424,4.05713 -2.241463,0.82486 -4.421477,-4.6453 -6.374481,-3.27038 -3.213132,2.26205 0.118714,14.52906 3.433106,20.68083 1.188839,2.2066 3.01001,5.14632 5.516209,5.10851 2.71959,-0.0412 5.81836,-5.72184 5.81836,-5.72184 0,0 3.09701,5.68066 5.81661,5.72184 2.5062,0.038 4.32915,-2.90191 5.51797,-5.10851 3.31443,-6.15177 6.64625,-18.41878 3.4331,-20.68083 -1.95298,-1.37492 -4.13479,4.09524 -6.37625,3.27038 -1.37284,-0.50522 -1.44014,-2.61322 -1.67543,-4.05713 -1.12253,-6.88352 1.53945,-14.37655 1.43045,-20.87393 -0.23482,-14.01813 -1.94766,-27.99422 -1.96151,-42.0143 -0.0105,-11.93951 0.62458,-23.88379 1.6057,-35.78287 0.53804,-6.52539 6.21822,-14.22276 2.34594,-19.5025 -2.03322,-2.77221 -10.13658,-1.90249 -10.13658,-1.90249 0,0 -1.1397,-0.12215 -2.67136,-0.1288 z"
         style="fill:#df7f80;fill-opacity:1;stroke:none;stroke-width:0.91549212px;stroke-linecap:butt;stroke-linejoin:miter;stroke-opacity:1" />
      <path
         sodipodi:nodetypes="ccccccaacccccccccccccaaccccccc"
         inkscape:connector-curvature="0"
         id="path934"
         d="m 106.14473,108.27848 v 169.53413 c -1.27956,0.51299 -2.18559,1.58705 -2.2351,2.85911 h -0.006 v 0.10908 16.53069 c 0,0 -0.0207,0.53216 -0.17475,0.72704 -0.33218,0.41675 -0.90815,0.61518 -1.43259,0.71043 -1.00313,0.182 -3.042986,-0.30863 -3.042986,-0.30863 0,0 2.215186,1.71642 3.123186,1.73027 0.50348,0.006 1.04108,-0.36294 1.52698,-0.83504 v 0.0104 c 0.0105,-0.0104 0.0207,-0.0242 0.0276,-0.0357 0.20795,-0.20484 0.39569,-0.41723 0.57576,-0.63836 0.90676,-0.85694 2.07938,-1.35727 3.2954,-1.36074 1.21286,0.002 2.3832,0.49825 3.29007,1.35002 0.18926,0.23286 0.38597,0.45617 0.60613,0.67053 l 0.006,0.006 v -0.005 c 0.4859,0.4721 1.02529,0.84348 1.52881,0.83504 0.90798,-0.0142 3.35253,-2.01927 3.35253,-2.01924 0,0 -2.13076,0.7334 -3.21102,0.5979 -0.51366,-0.0643 -1.06443,-0.2664 -1.40927,-0.65264 -0.18362,-0.20553 -0.2609,-0.78517 -0.2609,-0.78517 v -16.53069 -0.10908 h -0.004 c -0.0495,-1.27232 -0.95538,-2.34621 -2.23509,-2.85911 V 108.27811 Z"
         style="color:#000000;font-style:normal;font-variant:normal;font-weight:normal;font-stretch:normal;font-size:medium;line-height:normal;font-family:sans-serif;font-variant-ligatures:normal;font-variant-position:normal;font-variant-caps:normal;font-variant-numeric:normal;font-variant-alternates:normal;font-variant-east-asian:normal;font-feature-settings:normal;text-indent:0;text-align:start;text-decoration:none;text-decoration-line:none;text-decoration-style:solid;text-decoration-color:#000000;letter-spacing:normal;word-spacing:normal;text-transform:none;writing-mode:lr-tb;direction:ltr;text-orientation:mixed;dominant-baseline:auto;baseline-shift:baseline;text-anchor:start;white-space:normal;shape-padding:0;clip-rule:nonzero;display:inline;overflow:visible;visibility:visible;opacity:1;isolation:auto;mix-blend-mode:normal;color-interpolation:sRGB;color-interpolation-filters:linearRGB;solid-color:#000000;solid-opacity:1;vector-effect:none;fill:#d06764;fill-opacity:1;fill-rule:nonzero;stroke:none;stroke-width:3.18834066;stroke-linecap:butt;stroke-linejoin:miter;stroke-miterlimit:4;stroke-dasharray:none;stroke-dashoffset:0;stroke-opacity:1;color-rendering:auto;image-rendering:auto;shape-rendering:auto;text-rendering:auto;enable-background:accumulate" />
      <path
         sodipodi:nodetypes="aaaaacaaazsa"
         inkscape:connector-curvature="0"
         id="path936"
         d="m 79.490322,77.424707 c 2.259064,1.309447 3.071844,4.265116 4.98355,6.043737 2.405913,2.238383 5.821304,3.281862 8.038201,5.707588 1.296649,1.418849 1.724042,3.464144 2.902761,4.98236 0.911099,1.173541 2.211295,1.997329 3.174838,3.12818 3.419908,4.013598 9.173118,12.887818 9.173118,12.887818 0,0 -12.468464,-5.62726 -18.505308,-8.83266 -1.9628,-1.04219 -4.029924,-1.967532 -5.749249,-3.375604 -1.097655,-0.898929 -1.771043,-2.236511 -2.836268,-3.173627 -1.888467,-1.661382 -3.406986,-1.2281 -6.221285,-4.270135 -2.814319,-3.042035 -10.524393,-11.759307 -7.167091,-15.185461 2.777859,-2.834856 8.635341,0.01815 12.206733,2.087804 z"
         style="fill:#d56758;fill-opacity:1;stroke:none;stroke-width:0.91693377;stroke-linecap:butt;stroke-linejoin:miter;stroke-miterlimit:4;stroke-dasharray:none;stroke-opacity:1" />
      <path
         sodipodi:nodetypes="aaaaacaaazsa"
         inkscape:connector-curvature="0"
         id="path936-5"
         d="m 136.03524,77.424707 c -2.25904,1.309447 -3.07182,4.265116 -4.98355,6.043737 -2.40593,2.238383 -5.82132,3.281862 -8.03818,5.707588 -1.29665,1.418849 -1.72408,3.464144 -2.9028,4.98236 -0.9111,1.173541 -2.21127,1.997329 -3.17481,3.12818 -3.41989,4.013598 -9.17311,12.887818 -9.17311,12.887818 0,0 12.46843,-5.62726 18.50527,-8.83266 1.96281,-1.04219 4.02995,-1.967532 5.74929,-3.375604 1.09766,-0.898929 1.77098,-2.236511 2.83628,-3.173627 1.88842,-1.661382 3.40696,-1.2281 6.22126,-4.270135 2.81434,-3.042035 10.52439,-11.759307 7.1671,-15.185461 -2.77785,-2.834856 -8.63534,0.01815 -12.20675,2.087804 z"
         style="fill:#d56758;fill-opacity:1;stroke:none;stroke-width:0.91693377;stroke-linecap:butt;stroke-linejoin:miter;stroke-miterlimit:4;stroke-dasharray:none;stroke-opacity:1" />
      <path
         sodipodi:nodetypes="aaaaaaa"
         inkscape:connector-curvature="0"
         id="path1148"
         d="m 107.59619,108.20081 c 8.0824,-0.0242 19.20222,0.73317 22.92119,7.9092 2.98279,5.75554 -1.48797,13.52155 -5.41641,18.67816 -4.15018,5.44761 -10.65641,10.74382 -17.50478,10.75587 -6.88788,0.0142 -13.535849,-5.22694 -17.643572,-10.75587 -3.836777,-5.16418 -7.884035,-12.99899 -4.861349,-18.67816 3.735898,-7.01915 14.553506,-7.88657 22.504921,-7.9092 z"
         style="fill:#a15258;fill-opacity:1;stroke:none;stroke-width:0.91549212px;stroke-linecap:butt;stroke-linejoin:miter;stroke-opacity:1" />
      <path
         id="path1163"
         d="m 155.80794,0.1706637 c 0,0 -2.13091,4.031034 -2.81812,7.109476 -1.52995,6.8535523 -0.8812,13.7790413 -0.52037,20.3485093 0.36087,6.569466 0.43727,12.73988 -1.66248,18.20623 -0.66472,1.730491 -2.99182,4.811141 -5.12936,7.177068 -2.13755,2.365905 -4.04133,4.142672 -4.04133,4.142672 l 3.42634,3.683172 c 0,0 2.05451,-1.910437 4.35217,-4.453567 2.29768,-2.54313 4.87694,-5.589558 6.08906,-8.744966 2.55884,-6.661576 2.36069,-13.604863 1.9936,-20.287684 -0.36709,-6.6828 -0.89513,-13.150382 0.40548,-18.9766163 0.33566,-1.504082 2.41262,-5.967377 2.41262,-5.967377 z"
         style="color:#000000;font-style:normal;font-variant:normal;font-weight:normal;font-stretch:normal;font-size:medium;line-height:normal;font-family:sans-serif;font-variant-ligatures:normal;font-variant-position:normal;font-variant-caps:normal;font-variant-numeric:normal;font-variant-alternates:normal;font-variant-east-asian:normal;font-feature-settings:normal;text-indent:0;text-align:start;text-decoration:none;text-decoration-line:none;text-decoration-style:solid;text-decoration-color:#000000;letter-spacing:normal;word-spacing:normal;text-transform:none;writing-mode:lr-tb;direction:ltr;text-orientation:mixed;dominant-baseline:auto;baseline-shift:baseline;text-anchor:start;white-space:normal;shape-padding:0;clip-rule:nonzero;display:inline;overflow:visible;visibility:visible;opacity:1;isolation:auto;mix-blend-mode:normal;color-interpolation:sRGB;color-interpolation-filters:linearRGB;solid-color:#000000;solid-opacity:1;vector-effect:none;fill:#c28d65;fill-opacity:1;fill-rule:nonzero;stroke:none;stroke-width:5.03520632;stroke-linecap:butt;stroke-linejoin:miter;stroke-miterlimit:4;stroke-dasharray:none;stroke-dashoffset:0;stroke-opacity:1;color-rendering:auto;image-rendering:auto;shape-rendering:auto;text-rendering:auto;enable-background:accumulate"
         inkscape:connector-curvature="0" />
      <path
         id="path1163-7"
         d="m 59.717646,0.1706637 c 0,0 2.130874,4.031034 2.818089,7.109476 1.529925,6.8535113 0.881228,13.7790223 0.520368,20.3484883 -0.36086,6.569468 -0.437289,12.739881 1.662487,18.20621 0.664721,1.730491 2.991807,4.811143 5.129373,7.177069 2.137546,2.365904 4.041312,4.142671 4.041312,4.142671 l -3.426314,3.683174 c 0,0 -2.054527,-1.910437 -4.352187,-4.453568 -2.2977,-2.543131 -4.876949,-5.589558 -6.089026,-8.744946 C 57.462836,40.977662 57.661043,34.034354 58.02813,27.351533 58.395219,20.668753 58.923226,14.201152 57.622627,8.3749227 57.287001,6.8708757 55.210021,2.4075807 55.210021,2.4075807 Z"
         style="color:#000000;font-style:normal;font-variant:normal;font-weight:normal;font-stretch:normal;font-size:medium;line-height:normal;font-family:sans-serif;font-variant-ligatures:normal;font-variant-position:normal;font-variant-caps:normal;font-variant-numeric:normal;font-variant-alternates:normal;font-variant-east-asian:normal;font-feature-settings:normal;text-indent:0;text-align:start;text-decoration:none;text-decoration-line:none;text-decoration-style:solid;text-decoration-color:#000000;letter-spacing:normal;word-spacing:normal;text-transform:none;writing-mode:lr-tb;direction:ltr;text-orientation:mixed;dominant-baseline:auto;baseline-shift:baseline;text-anchor:start;white-space:normal;shape-padding:0;clip-rule:nonzero;display:inline;overflow:visible;visibility:visible;opacity:1;isolation:auto;mix-blend-mode:normal;color-interpolation:sRGB;color-interpolation-filters:linearRGB;solid-color:#000000;solid-opacity:1;vector-effect:none;fill:#c28d65;fill-opacity:1;fill-rule:nonzero;stroke:none;stroke-width:5.03520632;stroke-linecap:butt;stroke-linejoin:miter;stroke-miterlimit:4;stroke-dasharray:none;stroke-dashoffset:0;stroke-opacity:1;color-rendering:auto;image-rendering:auto;shape-rendering:auto;text-rendering:auto;enable-background:accumulate"
         inkscape:connector-curvature="0" />
    </g>
  </g>
</svg>
