<?xml version="1.0" encoding="UTF-8" standalone="no"?>
<!-- Created with Inkscape (http://www.inkscape.org/) -->

<svg
   xmlns:dc="http://purl.org/dc/elements/1.1/"
   xmlns:cc="http://creativecommons.org/ns#"
   xmlns:rdf="http://www.w3.org/1999/02/22-rdf-syntax-ns#"
   xmlns:svg="http://www.w3.org/2000/svg"
   xmlns="http://www.w3.org/2000/svg"
   xmlns:sodipodi="http://sodipodi.sourceforge.net/DTD/sodipodi-0.dtd"
   xmlns:inkscape="http://www.inkscape.org/namespaces/inkscape"
   width="77.246468mm"
   height="132.29167mm"
   viewBox="0 0 77.246469 132.29167"
   version="1.1"
   id="svg8"
   inkscape:version="0.92+devel unknown"
   sodipodi:docname="srm.svg"
   inkscape:export-filename="/home/desarrollo/Descargas/Cmc/img/masculino/srm.png"
   inkscape:export-xdpi="96"
   inkscape:export-ydpi="96">
  <defs
     id="defs2" />
  <sodipodi:namedview
     id="base"
     pagecolor="#ffffff"
     bordercolor="#666666"
     borderopacity="1.0"
     inkscape:pageopacity="0.0"
     inkscape:pageshadow="2"
     inkscape:zoom="0.52400921"
     inkscape:cx="-83.130601"
     inkscape:cy="343.98815"
     inkscape:document-units="mm"
     inkscape:current-layer="layer1"
     inkscape:document-rotation="0"
     showgrid="false"
     inkscape:window-width="1366"
     inkscape:window-height="708"
     inkscape:window-x="0"
     inkscape:window-y="32"
     inkscape:window-maximized="1"
     fit-margin-top="0"
     fit-margin-left="0"
     fit-margin-right="0"
     fit-margin-bottom="0" />
  <metadata
     id="metadata5">
    <rdf:RDF>
      <cc:Work
         rdf:about="">
        <dc:format>image/svg+xml</dc:format>
        <dc:type
           rdf:resource="http://purl.org/dc/dcmitype/StillImage" />
        <dc:title />
      </cc:Work>
    </rdf:RDF>
  </metadata>
  <g
     inkscape:label="Capa 1"
     inkscape:groupmode="layer"
     id="layer1"
     transform="translate(-20.177954,-167.87901)">
    <g
       id="g45">
      <path
         sodipodi:nodetypes="asacasa"
         inkscape:connector-curvature="0"
         id="path38"
         d="m 58.965661,178.78186 c 9.426552,0.0377 23.273701,8.38498 22.341733,17.33777 -0.402325,3.86496 -2.514075,7.86069 -5.267369,10.74833 -4.483448,4.70224 -17.074364,9.40094 -17.074364,9.40094 0,0 -12.351965,-4.82185 -16.88152,-9.40094 -2.866743,-2.89808 -5.748479,-6.534 -5.833287,-10.74833 -0.194068,-9.64455 13.189713,-17.37588 22.714807,-17.33777 z"
         style="fill:#fbccbc;fill-opacity:1;stroke:none;stroke-width:0.40370658px;stroke-linecap:butt;stroke-linejoin:miter;stroke-opacity:1" />
      <ellipse
         ry="11.246112"
         rx="7.7136788"
         cy="273.50873"
         cx="77.537018"
         id="path845-3"
         style="fill:#f5a294;fill-opacity:1;stroke:none;stroke-width:0.9093312" />
      <ellipse
         ry="11.246112"
         rx="7.7136788"
         cy="273.50873"
         cx="39.977867"
         id="path845"
         style="fill:#f5a294;fill-opacity:1;stroke:none;stroke-width:0.9093312;stroke-opacity:1" />
      <path
         id="path889"
         d="m 32.089809,179.47646 c -1.265674,-0.0249 -2.561505,0.13565 -3.802879,0.46442 -2.48274,0.65755 -4.799863,2.00242 -6.121043,4.13642 -3.200252,5.16917 -2.040389,11.08057 0.0092,16.83819 2.049072,5.75763 5.005609,11.57376 5.954669,16.79247 1.10579,6.08057 2.729487,11.98997 3.188654,17.93734 0.248817,3.22263 -0.816035,6.82205 -0.217629,10.63592 0.302633,1.92872 1.148033,3.60306 1.886067,5.17408 0.738053,1.57101 1.36537,3.03168 1.472114,4.48493 0.108939,1.48328 -0.452021,3.11961 -1.066825,4.90833 -0.614794,1.78872 -1.286249,3.74885 -0.935941,5.89162 0.162018,0.99089 0.686991,1.79757 1.144887,2.50029 0.457914,0.7027 0.890986,1.24266 0.890986,1.24266 a 1.1443652,1.1443652 0 0 0 1.606153,0.17898 1.1443652,1.1443652 0 0 0 0.179003,-1.6093 c 0,0 -0.368494,-0.46035 -0.760104,-1.06132 -0.391601,-0.60097 -0.765871,-1.40082 -0.801903,-1.62112 -0.235245,-1.43892 0.235299,-3.01897 0.84053,-4.77983 0.605223,-1.76084 1.342812,-3.68128 1.185888,-5.81748 -0.145105,-1.97618 -0.932947,-3.69486 -1.683424,-5.29233 -0.750477,-1.59746 -1.465661,-3.08513 -1.696045,-4.55352 -0.491981,-3.13552 0.528458,-6.66677 0.235761,-10.45775 -0.48176,-6.2401 -2.137312,-12.2264 -3.218615,-18.1723 -1.042285,-5.73135 -4.071356,-11.59696 -6.046935,-17.14807 -1.975578,-5.55115 -2.878261,-10.57406 -0.219975,-14.86776 0.903456,-1.4593 2.696414,-2.58172 4.761689,-3.12873 2.065275,-0.54699 4.359761,-0.50214 6.061902,0.12222 5.97017,2.18988 11.894257,10.72759 16.065469,18.80153 4.171258,8.07391 6.714779,15.56162 6.714779,15.56162 a 1.1443652,1.1443652 0 0 0 0.008,0.0182 1.1443652,1.1443652 0 0 0 0.02364,0.0607 1.1443652,1.1443652 0 0 0 0.02443,0.0545 1.1443652,1.1443652 0 0 0 0.02364,0.0449 1.1443652,1.1443652 0 0 0 0.02915,0.0505 1.1443652,1.1443652 0 0 0 0.03087,0.0481 1.1443652,1.1443652 0 0 0 0.03704,0.0513 1.1443652,1.1443652 0 0 0 0.0299,0.0371 1.1443652,1.1443652 0 0 0 0.0426,0.0481 1.1443652,1.1443652 0 0 0 0.03938,0.0403 1.1443652,1.1443652 0 0 0 0.04026,0.037 1.1443652,1.1443652 0 0 0 0.0449,0.0371 1.1443652,1.1443652 0 0 0 0.04499,0.0347 1.1443652,1.1443652 0 0 0 0.04657,0.0309 1.1443652,1.1443652 0 0 0 0.05448,0.0332 1.1443652,1.1443652 0 0 0 0.04728,0.0252 1.1443652,1.1443652 0 0 0 0.04577,0.0221 1.1443652,1.1443652 0 0 0 0.08434,0.0356 1.1443652,1.1443652 0 0 0 0.0026,8.8e-4 1.1443652,1.1443652 0 0 0 8.82e-4,0 1.1443652,1.1443652 0 0 0 0.01574,0.006 1.1443652,1.1443652 0 0 0 0.0607,0.0174 1.1443652,1.1443652 0 0 0 0.04106,0.0107 1.1443652,1.1443652 0 0 0 0.052,0.0107 1.1443652,1.1443652 0 0 0 0.05999,0.0107 1.1443652,1.1443652 0 0 0 0.06391,0.006 1.1443652,1.1443652 0 0 0 0.04808,0.005 1.1443652,1.1443652 0 0 0 0.07724,-8.8e-4 1.1443652,1.1443652 0 0 0 0.0347,-8.8e-4 1.1443652,1.1443652 0 0 0 0.06391,-0.006 1.1443652,1.1443652 0 0 0 0.05679,-0.008 1.1443652,1.1443652 0 0 0 0.03859,-0.008 1.1443652,1.1443652 0 0 0 0.07564,-0.0174 1.1443652,1.1443652 0 0 0 0.0026,-8.8e-4 1.1443652,1.1443652 0 0 0 0.0062,-0.003 1.1443652,1.1443652 0 0 0 0.05359,-0.0157 1.1443652,1.1443652 0 0 0 0.02761,-0.0107 1.1443652,1.1443652 0 0 0 0.04729,-0.0189 1.1443652,1.1443652 0 0 0 0.0583,-0.026 1.1443652,1.1443652 0 0 0 0.04498,-0.0236 1.1443652,1.1443652 0 0 0 0.05049,-0.0291 1.1443652,1.1443652 0 0 0 0.04808,-0.0309 1.1443652,1.1443652 0 0 0 0.05129,-0.0371 1.1443652,1.1443652 0 0 0 0.03704,-0.0299 1.1443652,1.1443652 0 0 0 0.04809,-0.0426 1.1443652,1.1443652 0 0 0 0.04026,-0.0395 1.1443652,1.1443652 0 0 0 0.03858,-0.0426 1.1443652,1.1443652 0 0 0 0.03153,-0.0371 1.1443652,1.1443652 0 0 0 0.0418,-0.0553 1.1443652,1.1443652 0 0 0 0.02761,-0.0411 1.1443652,1.1443652 0 0 0 0.03087,-0.0513 1.1443652,1.1443652 0 0 0 0.02761,-0.0505 1.1443652,1.1443652 0 0 0 0.02364,-0.0498 1.1443652,1.1443652 0 0 0 0.02518,-0.06 1.1443652,1.1443652 0 0 0 0.01367,-0.0363 1.1443652,1.1443652 0 0 0 0.0018,-0.005 c 0,0 2.546699,-7.48771 6.717934,-15.56163 4.171231,-8.07394 10.092143,-16.61164 16.062316,-18.80152 1.702157,-0.62435 3.999781,-0.66921 6.065057,-0.12222 2.065276,0.54701 3.858233,1.66943 4.761693,3.12872 2.658282,4.29371 1.755611,9.31661 -0.219979,14.86776 -1.975582,5.55113 -5.007804,11.41674 -6.050091,17.14807 -1.081307,5.94593 -2.736858,11.93221 -3.218616,18.17231 -0.2927,3.79097 0.730898,7.32224 0.238914,10.45775 -0.230381,1.46839 -0.945563,2.95605 -1.696041,4.55351 -0.750477,1.59748 -1.538261,3.31616 -1.683424,5.29235 -0.156925,2.13621 0.580668,4.05663 1.185889,5.81747 0.60523,1.76085 1.075774,3.3409 0.840528,4.77983 -0.03598,0.22031 -0.41342,1.02016 -0.805039,1.62113 -0.391605,0.60098 -0.760126,1.06131 -0.760126,1.06131 a 1.1443652,1.1443652 0 0 0 0.178995,1.60931 1.1443652,1.1443652 0 0 0 1.60932,-0.179 c 0,0 0.433074,-0.53995 0.890984,-1.24265 0.457897,-0.70272 0.97973,-1.50941 1.141743,-2.50031 0.350326,-2.14275 -0.318002,-4.10287 -0.932797,-5.89158 -0.614795,-1.78873 -1.1758,-3.42506 -1.066818,-4.90835 0.106799,-1.45325 0.734056,-2.91392 1.472107,-4.48492 0.738042,-1.57103 1.583438,-3.24534 1.886069,-5.17408 0.598408,-3.81387 -0.466448,-7.41333 -0.217629,-10.63594 0.459162,-5.94735 2.082862,-11.85674 3.188661,-17.93734 0.949061,-5.2187 3.90559,-11.03484 5.95466,-16.79246 2.049056,-5.75762 3.208932,-11.66901 0.0091,-16.83819 -1.321184,-2.134 -3.641452,-3.47887 -6.1242,-4.13642 -1.241377,-0.32878 -2.534047,-0.48925 -3.799725,-0.46441 -1.265661,0.0249 -2.50295,0.23419 -3.635724,0.6497 -7.2347,2.65388 -13.045854,11.65136 -17.307705,19.90069 -2.636542,5.10312 -4.628462,9.95724 -5.76778,12.92546 -1.138916,-2.96816 -3.129399,-7.82241 -5.765891,-12.92566 -4.261842,-8.24933 -10.072981,-17.24681 -17.308123,-19.90069 -1.132772,-0.41551 -2.370059,-0.62488 -3.635724,-0.6497 z"
         style="color:#000000;font-style:normal;font-variant:normal;font-weight:normal;font-stretch:normal;font-size:medium;line-height:normal;font-family:sans-serif;font-variant-ligatures:normal;font-variant-position:normal;font-variant-caps:normal;font-variant-numeric:normal;font-variant-alternates:normal;font-variant-east-asian:normal;font-feature-settings:normal;text-indent:0;text-align:start;text-decoration:none;text-decoration-line:none;text-decoration-style:solid;text-decoration-color:#000000;letter-spacing:normal;word-spacing:normal;text-transform:none;writing-mode:lr-tb;direction:ltr;text-orientation:mixed;dominant-baseline:auto;baseline-shift:baseline;text-anchor:start;white-space:normal;shape-padding:0;clip-rule:nonzero;display:inline;overflow:visible;visibility:visible;opacity:1;isolation:auto;mix-blend-mode:normal;color-interpolation:sRGB;color-interpolation-filters:linearRGB;solid-color:#000000;solid-opacity:1;vector-effect:none;fill:#f47d75;fill-opacity:1;fill-rule:nonzero;stroke:none;stroke-width:2.28873062;stroke-linecap:round;stroke-linejoin:bevel;stroke-miterlimit:4;stroke-dasharray:none;stroke-dashoffset:0;stroke-opacity:1;color-rendering:auto;image-rendering:auto;shape-rendering:auto;text-rendering:auto;enable-background:accumulate"
         inkscape:connector-curvature="0" />
      <path
         sodipodi:nodetypes="aaaaaaaaaaaaaaaa"
         inkscape:connector-curvature="0"
         id="path892-7"
         d="m 82.891587,276.68071 c -0.286548,-0.48172 -0.272843,-1.09368 -0.504627,-1.60402 -0.171701,-0.37804 -0.472281,-0.68751 -0.648811,-1.06332 -0.791034,-1.6839 -0.58192,-3.88272 -1.811024,-5.27934 -0.422624,-0.48023 -1.227208,-0.44218 -1.721419,-0.84835 -0.794619,-0.65305 -1.014078,-1.88732 -1.874353,-2.45108 -0.690531,-0.45253 -1.747154,-0.0946 -2.404458,-0.59421 -0.556838,-0.42319 -1.174864,-1.14344 -1.030402,-1.82775 0.302489,-1.4327 2.059913,-2.51788 3.520065,-2.628 1.572494,-0.11856 3.005089,1.16952 4.172506,2.22968 1.133916,1.02973 1.693099,2.55302 2.54504,3.82592 0.580663,0.86758 1.410974,1.61022 1.749337,2.59781 0.706591,2.06238 0.326024,4.34825 0.441192,6.52527 0.04988,0.94254 0.452614,1.95078 0.10818,2.82954 -0.07751,0.19776 -0.238165,0.45237 -0.450555,0.45057 -1.002634,-0.009 -1.578023,-1.30099 -2.090618,-2.16272 z"
         style="fill:#d9806e;fill-opacity:1;stroke:none;stroke-width:0.40370658px;stroke-linecap:butt;stroke-linejoin:miter;stroke-opacity:1" />
      <path
         sodipodi:nodetypes="aaaaaaaaaaaaaaaa"
         inkscape:connector-curvature="0"
         id="path892"
         d="m 34.643155,276.68071 c 0.286555,-0.48172 0.27285,-1.09368 0.504638,-1.60402 0.171705,-0.37804 0.472276,-0.68751 0.648808,-1.06332 0.791034,-1.6839 0.581918,-3.88272 1.811028,-5.27934 0.42262,-0.48023 1.227199,-0.44218 1.721419,-0.84835 0.794615,-0.65305 1.014075,-1.88732 1.874345,-2.45108 0.690537,-0.45253 1.747159,-0.0946 2.404464,-0.59421 0.556828,-0.42319 1.174867,-1.14344 1.030403,-1.82775 -0.302491,-1.4327 -2.059916,-2.51788 -3.520066,-2.628 -1.572494,-0.11856 -3.005092,1.16952 -4.17251,2.22968 -1.133911,1.02973 -1.693094,2.55302 -2.545036,3.82592 -0.580665,0.86758 -1.410974,1.61022 -1.749336,2.59781 -0.706598,2.06238 -0.326027,4.34825 -0.441196,6.52527 -0.04986,0.94254 -0.452617,1.95078 -0.108184,2.82954 0.0775,0.19776 0.23817,0.45237 0.450564,0.45057 1.002628,-0.009 1.578022,-1.30099 2.090614,-2.16272 z"
         style="fill:#d9806e;fill-opacity:1;stroke:none;stroke-width:0.40370658px;stroke-linecap:butt;stroke-linejoin:miter;stroke-opacity:1" />
      <g
         transform="matrix(1.5258202,0,0,1.5258202,-140.40903,22.067276)"
         id="g972">
        <path
           style="fill:#d06560;fill-opacity:1;stroke:none;stroke-width:0.26458332px;stroke-linecap:butt;stroke-linejoin:miter;stroke-opacity:1"
           d="m 130.55894,145.85908 c 0,0 -2.58564,-5.01735 -2.10475,-7.1411 1.26599,0.36518 2.07969,0.9939 2.07969,0.9939 z"
           id="path953"
           inkscape:connector-curvature="0"
           sodipodi:nodetypes="cccc" />
        <path
           style="fill:#d06560;fill-opacity:1;stroke:none;stroke-width:0.26458332px;stroke-linecap:butt;stroke-linejoin:miter;stroke-opacity:1"
           d="m 130.55894,145.85908 c 0,0 2.58564,-5.01735 2.10475,-7.1411 -1.26599,0.36518 -2.07969,0.9939 -2.07969,0.9939 z"
           id="path953-3"
           inkscape:connector-curvature="0"
           sodipodi:nodetypes="cccc" />
      </g>
      <circle
         r="1.1977689"
         cy="233.44847"
         cx="62.725498"
         id="path978"
         style="fill:#e99c8a;fill-opacity:1;stroke:none;stroke-width:0.40865946;stroke-linecap:round;stroke-linejoin:bevel;stroke-miterlimit:4;stroke-dasharray:none;stroke-opacity:1" />
      <circle
         r="1.1977689"
         cy="233.44847"
         cx="54.875385"
         id="path978-5"
         style="fill:#e99c8a;fill-opacity:1;stroke:none;stroke-width:0.40865946;stroke-linecap:round;stroke-linejoin:bevel;stroke-miterlimit:4;stroke-dasharray:none;stroke-opacity:1" />
      <path
         inkscape:connector-curvature="0"
         id="path1108"
         d="m 48.08045,235.56487 c -0.05368,0.005 -0.10757,0.0122 -0.161644,0.0244 -0.50838,1.51294 -0.02338,3.29798 0.331163,4.89416 0.568062,2.5572 2.249175,4.77525 2.83935,7.32743 3.255855,14.07978 -1.821355,29.83101 3.670423,43.19818 0.799426,1.94582 4.040991,4.84763 4.040991,4.84763 0,0 3.241595,-2.90181 4.041016,-4.84763 5.49178,-13.36717 0.413773,-29.1184 3.66963,-43.19818 0.590166,-2.55218 2.272082,-4.77023 2.840143,-7.32743 0.354577,-1.59618 0.838738,-3.38122 0.330372,-4.89416 -1.731791,-0.39148 -3.248259,3.60885 -4.61346,5.60774 -2.413873,3.53431 -6.267701,11.206 -6.267701,11.206 0,0 -3.85382,-7.67169 -6.267697,-11.206 -1.322539,-1.93642 -2.787889,-5.75156 -4.452586,-5.63219 z"
         style="fill:#b56b6a;fill-opacity:1;stroke:none;stroke-width:0.40370658;stroke-linecap:round;stroke-linejoin:bevel;stroke-miterlimit:4;stroke-dasharray:none;stroke-opacity:1" />
      <path
         inkscape:connector-curvature="0"
         id="path1130"
         d="m 57.622437,235.18561 c -1.1257,-0.005 -2.731589,0.13168 -3.291946,0.89572 -1.707572,2.32822 0.796446,5.72254 1.033708,8.60006 0.432644,5.24716 0.713557,10.51426 0.708856,15.77925 -0.0062,6.18247 -0.762211,12.34553 -0.865762,18.52714 -0.04809,2.86516 1.125799,6.16938 0.63079,9.20482 -0.103752,0.63673 -0.133434,1.5663 -0.738816,1.78908 -0.988423,0.36374 -1.949748,-2.04844 -2.810969,-1.44214 -1.416902,0.9975 0.05235,6.40691 1.513905,9.11967 0.524245,0.97305 1.32733,2.26938 2.432495,2.25271 1.199263,-0.0182 2.565735,-2.52317 2.565735,-2.52317 0,0 1.365695,2.50501 2.564963,2.52317 1.105165,0.0168 1.909035,-1.27966 2.433271,-2.25271 1.461572,-2.71276 2.930812,-8.12217 1.513902,-9.11967 -0.86121,-0.6063 -1.823327,1.80588 -2.811749,1.44214 -0.605384,-0.22278 -0.635062,-1.15235 -0.738818,-1.78908 -0.495005,-3.03544 0.678855,-6.33966 0.630789,-9.20482 -0.103549,-6.18161 -0.858864,-12.34467 -0.864972,-18.52714 -0.0046,-5.26499 0.275423,-10.53209 0.708069,-15.77925 0.237261,-2.87752 2.742063,-6.27184 1.034495,-8.60006 -0.896594,-1.22247 -4.46995,-0.83895 -4.46995,-0.83895 0,0 -0.502576,-0.0539 -1.177996,-0.0568 z"
         style="fill:#df7f80;fill-opacity:1;stroke:none;stroke-width:0.40370658px;stroke-linecap:butt;stroke-linejoin:miter;stroke-opacity:1" />
      <path
         sodipodi:nodetypes="ccccccaacccccccccccccaaccccccc"
         inkscape:connector-curvature="0"
         id="path934"
         d="m 58.086913,215.55155 v 74.75984 c -0.56425,0.22621 -0.963784,0.69985 -0.985617,1.26079 h -0.0026 v 0.0481 7.28957 c 0,0 -0.0091,0.23467 -0.07706,0.32061 -0.146482,0.18377 -0.400468,0.27128 -0.631732,0.31328 -0.442352,0.0803 -1.341872,-0.1361 -1.341872,-0.1361 0,0 0.976835,0.7569 1.377238,0.763 0.222021,0.003 0.459087,-0.16004 0.673356,-0.36823 v 0.005 c 0.0046,-0.005 0.0091,-0.0107 0.01217,-0.0157 0.0917,-0.0903 0.174488,-0.18399 0.253894,-0.2815 0.399856,-0.37789 0.916949,-0.59852 1.45318,-0.60005 0.534837,8.8e-4 1.050925,0.21971 1.450829,0.59532 0.08346,0.10269 0.170202,0.20116 0.267287,0.29569 l 0.0026,0.003 v -0.002 c 0.214269,0.20818 0.452125,0.37195 0.674163,0.36823 0.400394,-0.006 1.478373,-0.89045 1.478373,-0.89043 0,0 -0.939606,0.32341 -1.415971,0.26365 -0.22651,-0.0284 -0.469384,-0.11747 -0.621449,-0.28779 -0.08097,-0.0906 -0.115049,-0.34624 -0.115049,-0.34624 v -7.28957 -0.0481 h -0.0018 c -0.02183,-0.56105 -0.421296,-1.03461 -0.985613,-1.26078 v -74.75873 z"
         style="color:#000000;font-style:normal;font-variant:normal;font-weight:normal;font-stretch:normal;font-size:medium;line-height:normal;font-family:sans-serif;font-variant-ligatures:normal;font-variant-position:normal;font-variant-caps:normal;font-variant-numeric:normal;font-variant-alternates:normal;font-variant-east-asian:normal;font-feature-settings:normal;text-indent:0;text-align:start;text-decoration:none;text-decoration-line:none;text-decoration-style:solid;text-decoration-color:#000000;letter-spacing:normal;word-spacing:normal;text-transform:none;writing-mode:lr-tb;direction:ltr;text-orientation:mixed;dominant-baseline:auto;baseline-shift:baseline;text-anchor:start;white-space:normal;shape-padding:0;clip-rule:nonzero;display:inline;overflow:visible;visibility:visible;opacity:1;isolation:auto;mix-blend-mode:normal;color-interpolation:sRGB;color-interpolation-filters:linearRGB;solid-color:#000000;solid-opacity:1;vector-effect:none;fill:#d06764;fill-opacity:1;fill-rule:nonzero;stroke:none;stroke-width:1.40596962;stroke-linecap:butt;stroke-linejoin:miter;stroke-miterlimit:4;stroke-dasharray:none;stroke-dashoffset:0;stroke-opacity:1;color-rendering:auto;image-rendering:auto;shape-rendering:auto;text-rendering:auto;enable-background:accumulate" />
      <path
         sodipodi:nodetypes="aaaaacaaazsa"
         inkscape:connector-curvature="0"
         id="path936"
         d="m 46.33306,201.94589 c 0.996184,0.57743 1.354598,1.8808 2.197607,2.66512 1.060941,0.98707 2.567033,1.44721 3.544623,2.51689 0.571786,0.62567 0.760255,1.52759 1.280037,2.19708 0.40177,0.5175 0.97512,0.88077 1.400016,1.37944 1.508084,1.76989 4.04509,5.68317 4.04509,5.68317 0,0 -5.498246,-2.48146 -8.160327,-3.89495 -0.86554,-0.45958 -1.777084,-0.86763 -2.535259,-1.48855 -0.484035,-0.3964 -0.780981,-0.98624 -1.250715,-1.39948 -0.832762,-0.73263 -1.502386,-0.54156 -2.743414,-1.88301 -1.241037,-1.34146 -4.640965,-5.18553 -3.160488,-6.69637 1.224959,-1.25009 3.807945,0.008 5.38283,0.92066 z"
         style="fill:#d56758;fill-opacity:1;stroke:none;stroke-width:0.40434232;stroke-linecap:butt;stroke-linejoin:miter;stroke-miterlimit:4;stroke-dasharray:none;stroke-opacity:1" />
      <path
         sodipodi:nodetypes="aaaaacaaazsa"
         inkscape:connector-curvature="0"
         id="path936-5"
         d="m 71.267797,201.94589 c -0.996173,0.57743 -1.354587,1.8808 -2.197607,2.66512 -1.060948,0.98707 -2.56704,1.44721 -3.544614,2.51689 -0.571786,0.62567 -0.760271,1.52759 -1.280054,2.19708 -0.40177,0.5175 -0.975108,0.88077 -1.400003,1.37944 -1.508076,1.76989 -4.045086,5.68317 -4.045086,5.68317 0,0 5.498231,-2.48146 8.160309,-3.89495 0.865545,-0.45958 1.777096,-0.86763 2.535278,-1.48855 0.484037,-0.3964 0.780953,-0.98624 1.25072,-1.39948 0.832741,-0.73263 1.502375,-0.54156 2.743403,-1.88301 1.241046,-1.34146 4.640964,-5.18553 3.160492,-6.69637 -1.224955,-1.25009 -3.807945,0.008 -5.382838,0.92066 z"
         style="fill:#d56758;fill-opacity:1;stroke:none;stroke-width:0.40434232;stroke-linecap:butt;stroke-linejoin:miter;stroke-miterlimit:4;stroke-dasharray:none;stroke-opacity:1" />
      <path
         sodipodi:nodetypes="aaaaaaa"
         inkscape:connector-curvature="0"
         id="path1148"
         d="m 58.726967,215.5173 c 3.564113,-0.0107 8.467645,0.32331 10.107608,3.48774 1.315327,2.53803 -0.656154,5.96263 -2.388487,8.23655 -1.830114,2.40224 -4.69918,4.73772 -7.719121,4.74304 -3.037364,0.006 -5.968934,-2.30494 -7.780325,-4.74304 -1.691912,-2.27726 -3.476641,-5.7322 -2.14372,-8.23655 1.647427,-3.09525 6.417692,-3.47776 9.924045,-3.48774 z"
         style="fill:#a15258;fill-opacity:1;stroke:none;stroke-width:0.40370658px;stroke-linecap:butt;stroke-linejoin:miter;stroke-opacity:1" />
      <path
         id="path1163"
         d="m 79.987009,167.87901 c 0,0 -0.939672,1.77757 -1.242713,3.13508 -0.674665,3.02223 -0.388585,6.07617 -0.229469,8.97313 0.159134,2.89695 0.192824,5.61793 -0.733107,8.02844 -0.293123,0.7631 -1.31931,2.12158 -2.261905,3.16489 -0.942601,1.04329 -1.782115,1.8268 -1.782115,1.8268 l 1.510921,1.62418 c 0,0 0.905982,-0.84245 1.919186,-1.9639 1.013213,-1.12145 2.150595,-2.46484 2.685106,-3.85629 1.128378,-2.93757 1.040999,-5.99937 0.879123,-8.94631 -0.161877,-2.94693 -0.394728,-5.79895 0.178805,-8.36816 0.148017,-0.66325 1.063898,-2.63144 1.063898,-2.63144 z"
         style="color:#000000;font-style:normal;font-variant:normal;font-weight:normal;font-stretch:normal;font-size:medium;line-height:normal;font-family:sans-serif;font-variant-ligatures:normal;font-variant-position:normal;font-variant-caps:normal;font-variant-numeric:normal;font-variant-alternates:normal;font-variant-east-asian:normal;font-feature-settings:normal;text-indent:0;text-align:start;text-decoration:none;text-decoration-line:none;text-decoration-style:solid;text-decoration-color:#000000;letter-spacing:normal;word-spacing:normal;text-transform:none;writing-mode:lr-tb;direction:ltr;text-orientation:mixed;dominant-baseline:auto;baseline-shift:baseline;text-anchor:start;white-space:normal;shape-padding:0;clip-rule:nonzero;display:inline;overflow:visible;visibility:visible;opacity:1;isolation:auto;mix-blend-mode:normal;color-interpolation:sRGB;color-interpolation-filters:linearRGB;solid-color:#000000;solid-opacity:1;vector-effect:none;fill:#c28d65;fill-opacity:1;fill-rule:nonzero;stroke:none;stroke-width:2.22038603;stroke-linecap:butt;stroke-linejoin:miter;stroke-miterlimit:4;stroke-dasharray:none;stroke-dashoffset:0;stroke-opacity:1;color-rendering:auto;image-rendering:auto;shape-rendering:auto;text-rendering:auto;enable-background:accumulate"
         inkscape:connector-curvature="0" />
      <path
         id="path1163-7"
         d="m 37.613859,167.87901 c 0,0 0.939657,1.77757 1.242699,3.13508 0.674655,3.02221 0.388597,6.07617 0.229468,8.97312 -0.159129,2.89695 -0.192832,5.61793 0.733111,8.02843 0.293123,0.7631 1.319303,2.12158 2.261911,3.16489 0.942598,1.0433 1.782106,1.8268 1.782106,1.8268 l -1.510909,1.62418 c 0,0 -0.90599,-0.84245 -1.919194,-1.9639 -1.013222,-1.12145 -2.150599,-2.46484 -2.685091,-3.85628 -1.128409,-2.93757 -1.041005,-5.99938 -0.87913,-8.94631 0.161876,-2.94692 0.394712,-5.79896 -0.178816,-8.36816 -0.148002,-0.66324 -1.063892,-2.63143 -1.063892,-2.63143 z"
         style="color:#000000;font-style:normal;font-variant:normal;font-weight:normal;font-stretch:normal;font-size:medium;line-height:normal;font-family:sans-serif;font-variant-ligatures:normal;font-variant-position:normal;font-variant-caps:normal;font-variant-numeric:normal;font-variant-alternates:normal;font-variant-east-asian:normal;font-feature-settings:normal;text-indent:0;text-align:start;text-decoration:none;text-decoration-line:none;text-decoration-style:solid;text-decoration-color:#000000;letter-spacing:normal;word-spacing:normal;text-transform:none;writing-mode:lr-tb;direction:ltr;text-orientation:mixed;dominant-baseline:auto;baseline-shift:baseline;text-anchor:start;white-space:normal;shape-padding:0;clip-rule:nonzero;display:inline;overflow:visible;visibility:visible;opacity:1;isolation:auto;mix-blend-mode:normal;color-interpolation:sRGB;color-interpolation-filters:linearRGB;solid-color:#000000;solid-opacity:1;vector-effect:none;fill:#c28d65;fill-opacity:1;fill-rule:nonzero;stroke:none;stroke-width:2.22038603;stroke-linecap:butt;stroke-linejoin:miter;stroke-miterlimit:4;stroke-dasharray:none;stroke-dashoffset:0;stroke-opacity:1;color-rendering:auto;image-rendering:auto;shape-rendering:auto;text-rendering:auto;enable-background:accumulate"
         inkscape:connector-curvature="0" />
    </g>
  </g>
</svg>
