<?xml version="1.0" encoding="UTF-8" standalone="no"?>
<!-- Created with Inkscape (http://www.inkscape.org/) -->

<svg
   xmlns:dc="http://purl.org/dc/elements/1.1/"
   xmlns:cc="http://creativecommons.org/ns#"
   xmlns:rdf="http://www.w3.org/1999/02/22-rdf-syntax-ns#"
   xmlns:svg="http://www.w3.org/2000/svg"
   xmlns="http://www.w3.org/2000/svg"
   xmlns:sodipodi="http://sodipodi.sourceforge.net/DTD/sodipodi-0.dtd"
   xmlns:inkscape="http://www.inkscape.org/namespaces/inkscape"
   width="203.72917mm"
   height="144.63411mm"
   viewBox="0 0 203.72917 144.63411"
   version="1.1"
   id="svg8"
   inkscape:version="0.92+devel unknown"
   sodipodi:docname="srm_juego.svg"
   inkscape:export-filename="/home/fundacion/Documentos/fundecyt_02/conozco_mi_cuerpo/conozco-mi-cuerpo/img/masculino/srm_juego.png"
   inkscape:export-xdpi="96"
   inkscape:export-ydpi="96">
  <defs
     id="defs2" />
  <sodipodi:namedview
     id="base"
     pagecolor="#ffffff"
     bordercolor="#666666"
     borderopacity="1.0"
     inkscape:pageopacity="0.0"
     inkscape:pageshadow="2"
     inkscape:zoom="0.35"
     inkscape:cx="224.93371"
     inkscape:cy="68.008778"
     inkscape:document-units="mm"
     inkscape:current-layer="layer1"
     inkscape:document-rotation="0"
     showgrid="false"
     fit-margin-top="0"
     fit-margin-left="0"
     fit-margin-right="0"
     fit-margin-bottom="0"
     inkscape:window-width="1920"
     inkscape:window-height="1012"
     inkscape:window-x="0"
     inkscape:window-y="32"
     inkscape:window-maximized="1" />
  <metadata
     id="metadata5">
    <rdf:RDF>
      <cc:Work
         rdf:about="">
        <dc:format>image/svg+xml</dc:format>
        <dc:type
           rdf:resource="http://purl.org/dc/dcmitype/StillImage" />
        <dc:title></dc:title>
      </cc:Work>
    </rdf:RDF>
  </metadata>
  <g
     inkscape:label="Capa 1"
     inkscape:groupmode="layer"
     id="layer1"
     transform="translate(-3.0370386,-28.767728)">
    <g
       id="g4481">
      <path
         style="fill:#fbccbc;fill-opacity:1;stroke:none;stroke-width:0.28926796px;stroke-linecap:butt;stroke-linejoin:miter;stroke-opacity:1"
         d="m 74.536548,136.07993 c -1.103764,2.26677 -1.649491,4.81905 -1.859541,7.33151 -0.321086,3.84056 -1.317012,8.40107 0.942158,11.52342 2.289629,3.16446 9.94008,4.63277 13.768187,3.85701 3.776056,-0.76521 5.356557,-3.92618 6.710703,-6.81152 1.957725,-4.17143 0.428246,-9.41605 1.375447,-13.75534 0.419325,-1.921 2.847633,-0.52979 4.340606,-1.80929 4.363572,-3.73965 6.469252,-1.79134 12.185832,-1.20279 3.42601,0.35273 2.7564,1.1008 3.00336,3.47963 0.48719,4.69296 -0.71194,9.63579 0.70196,14.13713 0.62649,1.99451 1.70038,4.00307 3.3266,5.31683 1.45754,1.1775 3.41577,1.79203 5.28559,1.91338 2.89348,0.18777 6.31358,0.0331 8.49335,-1.87892 2.52627,-2.21604 3.22874,-6.12212 3.44144,-9.47586 0.28402,-4.47832 -0.94855,-9.12129 -2.96007,-13.13249 -1.63832,-3.267 -3.6384,-7.24941 -7.12992,-8.3295 -4.45687,-1.37871 -14.56677,-2.44026 -19.19459,-1.85053 -7.36775,0.93888 -9.316885,6.72753 -16.601575,5.2789 -3.131255,-0.62267 -5.801536,-4.41725 -8.882807,-3.58164 -3.655066,0.99123 -5.288782,5.58518 -6.94673,8.99007 z"
         id="path29"
         inkscape:connector-curvature="0"
         sodipodi:nodetypes="ssssasssssssssssssss" />
      <path
         sodipodi:nodetypes="asacasa"
         inkscape:connector-curvature="0"
         id="path38"
         d="m 105.08082,40.687826 c 10.30602,0.04122 25.44505,9.167268 24.42614,18.95532 -0.43987,4.225546 -2.74863,8.594063 -5.7588,11.751109 -4.90174,5.140942 -18.66734,10.278013 -18.66734,10.278013 0,0 -13.504357,-5.271711 -18.456502,-10.278013 -3.1342,-3.16846 -6.284791,-7.143598 -6.377511,-11.751109 -0.212174,-10.544351 14.420264,-18.996985 24.834013,-18.95532 z"
         style="fill:#fbccbc;fill-opacity:1;stroke:none;stroke-width:0.4413709px;stroke-linecap:butt;stroke-linejoin:miter;stroke-opacity:1" />
      <ellipse
         ry="12.295333"
         rx="8.4333363"
         cy="144.25237"
         cx="125.38482"
         id="path845-3"
         style="fill:#f5a294;fill-opacity:1;stroke:none;stroke-width:0.99416846" />
      <ellipse
         ry="12.295333"
         rx="8.4333363"
         cy="144.25237"
         cx="84.321533"
         id="path845"
         style="fill:#f5a294;fill-opacity:1;stroke:none;stroke-width:0.99416846;stroke-opacity:1" />
      <path
         id="path889"
         d="m 75.697551,41.44723 c -1.383756,-0.02722 -2.800483,0.148305 -4.157673,0.507748 -2.714371,0.718897 -5.247673,2.189239 -6.692114,4.522333 -3.498823,5.651434 -2.23075,12.114346 0.01006,18.409131 2.240242,6.294795 5.472613,12.653549 6.510217,18.359145 1.208956,6.647865 2.984138,13.10859 3.486144,19.610823 0.27203,3.52329 -0.892168,7.45853 -0.237933,11.62822 0.330867,2.10866 1.25514,3.93921 2.06203,5.6568 0.80691,1.71758 1.492754,3.31452 1.609457,4.90336 0.119102,1.62166 -0.494193,3.41065 -1.166356,5.36626 -0.672152,1.9556 -1.406251,4.0986 -1.023261,6.44128 0.177134,1.08334 0.751085,1.96528 1.251701,2.73356 0.500635,0.76826 0.974111,1.3586 0.974111,1.3586 a 1.2511302,1.2511302 0 0 0 1.756002,0.19567 1.2511302,1.2511302 0 0 0 0.195703,-1.75944 c 0,0 -0.402873,-0.5033 -0.831019,-1.16034 -0.428136,-0.65703 -0.837324,-1.53151 -0.876718,-1.77236 -0.257192,-1.57317 0.257252,-3.30063 0.918949,-5.22577 0.661688,-1.92512 1.468091,-4.02473 1.296527,-6.36023 -0.158643,-2.16055 -1.019988,-4.03958 -1.840482,-5.78608 -0.820493,-1.7465 -1.602401,-3.37297 -1.854279,-4.97835 -0.537881,-3.42805 0.577761,-7.28876 0.257756,-11.43342 C 76.819666,95.841891 75.009657,89.297091 73.827472,82.796461 72.687946,76.530397 69.376274,70.117548 67.216381,64.04854 65.056489,57.979488 64.069589,52.487959 66.975883,47.793673 c 0.987745,-1.595448 2.947979,-2.822585 5.205937,-3.420629 2.257957,-0.598023 4.766511,-0.548988 6.627455,0.133622 6.527165,2.394188 13.003947,11.728435 17.564318,20.555643 4.560417,8.827176 7.341247,17.013462 7.341247,17.013462 a 1.2511302,1.2511302 0 0 0 0.009,0.0199 1.2511302,1.2511302 0 0 0 0.0259,0.06636 1.2511302,1.2511302 0 0 0 0.0267,0.05958 1.2511302,1.2511302 0 0 0 0.0258,0.04909 1.2511302,1.2511302 0 0 0 0.0319,0.05521 1.2511302,1.2511302 0 0 0 0.0337,0.05259 1.2511302,1.2511302 0 0 0 0.0405,0.05609 1.2511302,1.2511302 0 0 0 0.0327,0.04056 1.2511302,1.2511302 0 0 0 0.0466,0.05259 1.2511302,1.2511302 0 0 0 0.0431,0.04406 1.2511302,1.2511302 0 0 0 0.044,0.04045 1.2511302,1.2511302 0 0 0 0.0491,0.04056 1.2511302,1.2511302 0 0 0 0.0492,0.03794 1.2511302,1.2511302 0 0 0 0.0509,0.03378 1.2511302,1.2511302 0 0 0 0.0596,0.0363 1.2511302,1.2511302 0 0 0 0.0517,0.02755 1.2511302,1.2511302 0 0 0 0.05,0.02416 1.2511302,1.2511302 0 0 0 0.0922,0.03892 1.2511302,1.2511302 0 0 0 0.003,9.62e-4 1.2511302,1.2511302 0 0 0 9.6e-4,0 1.2511302,1.2511302 0 0 0 0.0172,0.0066 1.2511302,1.2511302 0 0 0 0.0664,0.01902 1.2511302,1.2511302 0 0 0 0.0449,0.0117 1.2511302,1.2511302 0 0 0 0.0569,0.0117 1.2511302,1.2511302 0 0 0 0.0656,0.0117 1.2511302,1.2511302 0 0 0 0.0699,0.0066 1.2511302,1.2511302 0 0 0 0.0526,0.0055 1.2511302,1.2511302 0 0 0 0.0845,-9.62e-4 1.2511302,1.2511302 0 0 0 0.0379,-9.62e-4 1.2511302,1.2511302 0 0 0 0.0699,-0.0066 1.2511302,1.2511302 0 0 0 0.0621,-0.0087 1.2511302,1.2511302 0 0 0 0.0422,-0.0087 1.2511302,1.2511302 0 0 0 0.0827,-0.01902 1.2511302,1.2511302 0 0 0 0.003,-9.62e-4 1.2511302,1.2511302 0 0 0 0.007,-0.0033 1.2511302,1.2511302 0 0 0 0.0586,-0.01717 1.2511302,1.2511302 0 0 0 0.0302,-0.0117 1.2511302,1.2511302 0 0 0 0.0517,-0.02066 1.2511302,1.2511302 0 0 0 0.0637,-0.02843 1.2511302,1.2511302 0 0 0 0.0492,-0.0258 1.2511302,1.2511302 0 0 0 0.0552,-0.03182 1.2511302,1.2511302 0 0 0 0.0526,-0.03378 1.2511302,1.2511302 0 0 0 0.0561,-0.04056 1.2511302,1.2511302 0 0 0 0.0405,-0.03269 1.2511302,1.2511302 0 0 0 0.0526,-0.04657 1.2511302,1.2511302 0 0 0 0.044,-0.04319 1.2511302,1.2511302 0 0 0 0.0422,-0.04657 1.2511302,1.2511302 0 0 0 0.0345,-0.04056 1.2511302,1.2511302 0 0 0 0.0457,-0.06046 1.2511302,1.2511302 0 0 0 0.0302,-0.04493 1.2511302,1.2511302 0 0 0 0.0337,-0.05609 1.2511302,1.2511302 0 0 0 0.0302,-0.05521 1.2511302,1.2511302 0 0 0 0.0259,-0.05445 1.2511302,1.2511302 0 0 0 0.0275,-0.0656 1.2511302,1.2511302 0 0 0 0.0149,-0.03969 1.2511302,1.2511302 0 0 0 0.002,-0.0055 c 0,0 2.78429,-8.186286 7.34469,-17.013473 4.56039,-8.827208 11.0337,-18.161444 17.56087,-20.555632 1.86096,-0.682599 4.37295,-0.731645 6.63091,-0.133623 2.25795,0.598044 4.21819,1.825182 5.20594,3.420618 2.90629,4.694298 1.9194,10.185816 -0.24051,16.254867 -2.15989,6.06903 -5.47501,12.48188 -6.61454,18.747922 -1.18219,6.500663 -2.99219,13.045441 -3.5189,19.867714 -0.32001,4.14465 0.79909,8.00538 0.26121,11.43342 -0.25188,1.60539 -1.03379,3.23184 -1.85428,4.97834 -0.82049,1.74652 -1.68178,3.62554 -1.84048,5.7861 -0.17157,2.33551 0.63484,4.4351 1.29653,6.36022 0.66169,1.92513 1.17614,3.65259 0.91894,5.22577 -0.0393,0.24087 -0.45199,1.11534 -0.88014,1.77238 -0.42814,0.65705 -0.83105,1.16032 -0.83105,1.16032 a 1.2511302,1.2511302 0 0 0 0.1957,1.75946 1.2511302,1.2511302 0 0 0 1.75946,-0.1957 c 0,0 0.47348,-0.59033 0.97411,-1.35859 0.50062,-0.76828 1.07114,-1.65023 1.24826,-2.73358 0.38301,-2.34266 -0.34767,-4.48565 -1.01982,-6.44124 -0.67215,-1.95561 -1.2855,-3.74461 -1.16635,-5.36628 0.11677,-1.58883 0.80254,-3.18578 1.60945,-4.90335 0.8069,-1.7176 1.73117,-3.54812 2.06203,-5.6568 0.65424,-4.16969 -0.50996,-8.10497 -0.23793,-11.62823 0.502,-6.502216 2.27719,-12.962931 3.48615,-19.610828 1.03761,-5.705585 4.26997,-12.06435 6.51021,-18.359134 2.24023,-6.294785 3.50831,-12.757686 0.01,-18.409131 -1.44445,-2.333095 -3.98119,-3.803436 -6.69557,-4.522333 -1.35719,-0.359454 -2.77046,-0.534895 -4.15422,-0.507738 -1.38374,0.02722 -2.73647,0.256039 -3.97492,0.710315 -7.90968,2.901477 -14.26299,12.738389 -18.92245,21.757351 -2.88253,5.579222 -5.06028,10.886213 -6.3059,14.131357 -1.24641,-3.245182 -3.4226,-8.552316 -6.305064,-14.13168 C 93.93828,54.894457 87.584983,45.057545 79.674829,42.156068 78.436373,41.701793 77.083652,41.472889 75.699905,41.445754 Z"
         style="color:#000000;font-style:normal;font-variant:normal;font-weight:normal;font-stretch:normal;font-size:medium;line-height:normal;font-family:sans-serif;font-variant-ligatures:normal;font-variant-position:normal;font-variant-caps:normal;font-variant-numeric:normal;font-variant-alternates:normal;font-variant-east-asian:normal;font-feature-settings:normal;text-indent:0;text-align:start;text-decoration:none;text-decoration-line:none;text-decoration-style:solid;text-decoration-color:#000000;letter-spacing:normal;word-spacing:normal;text-transform:none;writing-mode:lr-tb;direction:ltr;text-orientation:mixed;dominant-baseline:auto;baseline-shift:baseline;text-anchor:start;white-space:normal;shape-padding:0;clip-rule:nonzero;display:inline;overflow:visible;visibility:visible;opacity:1;isolation:auto;mix-blend-mode:normal;color-interpolation:sRGB;color-interpolation-filters:linearRGB;solid-color:#000000;solid-opacity:1;vector-effect:none;fill:#f47d75;fill-opacity:1;fill-rule:nonzero;stroke:none;stroke-width:2.50226068;stroke-linecap:round;stroke-linejoin:bevel;stroke-miterlimit:4;stroke-dasharray:none;stroke-dashoffset:0;stroke-opacity:1;color-rendering:auto;image-rendering:auto;shape-rendering:auto;text-rendering:auto;enable-background:accumulate"
         inkscape:connector-curvature="0" />
      <path
         sodipodi:nodetypes="caaaaaaaaaaaaaaac"
         inkscape:connector-curvature="0"
         id="path892-7"
         d="m 131.23895,147.72028 c -0.31328,-0.52667 -0.2983,-1.19572 -0.55171,-1.75367 -0.18772,-0.41331 -0.51634,-0.75165 -0.70934,-1.16253 -0.86484,-1.841 -0.63621,-4.24496 -1.97999,-5.77188 -0.46205,-0.52503 -1.3417,-0.48343 -1.88202,-0.9275 -0.86875,-0.71397 -1.10869,-2.0634 -2.04922,-2.67975 -0.75496,-0.49475 -1.91016,-0.10343 -2.62879,-0.64965 -0.60879,-0.46267 -1.28447,-1.25012 -1.12653,-1.99827 0.33071,-1.56637 2.25209,-2.75279 3.84847,-2.87319 1.7192,-0.12962 3.22875,1.34432 4.56179,2.4377 1.22754,1.00686 2.15883,2.34875 3.0232,3.68048 0.67826,1.04496 1.34477,2.14049 1.67182,3.34256 0.62573,2.29985 0.35644,4.75393 0.48236,7.13406 0.0545,1.03047 0.49484,2.13278 0.11827,3.09352 -0.0847,0.21621 -0.26038,0.49458 -0.49259,0.49261 -1.09618,-0.01 -1.72525,-1.42237 -2.28566,-2.36449 z"
         style="fill:#d9806e;fill-opacity:1;stroke:none;stroke-width:0.4413709px;stroke-linecap:butt;stroke-linejoin:miter;stroke-opacity:1" />
      <path
         sodipodi:nodetypes="aaaaaaaaaaaaaaaa"
         inkscape:connector-curvature="0"
         id="path892"
         d="m 78.489115,147.72028 c 0.31329,-0.52667 0.298306,-1.19572 0.551719,-1.75367 0.187724,-0.41331 0.516338,-0.75165 0.709339,-1.16253 0.864835,-1.841 0.636209,-4.24496 1.979991,-5.77188 0.462049,-0.52503 1.341692,-0.48343 1.882021,-0.9275 0.868749,-0.71397 1.108684,-2.0634 2.049214,-2.67975 0.754962,-0.49475 1.910163,-0.10343 2.628792,-0.64965 0.608778,-0.46267 1.284477,-1.25012 1.126535,-1.99827 -0.330712,-1.56637 -2.252098,-2.75279 -3.848475,-2.87319 -1.719202,-0.12962 -3.285456,1.27864 -4.561789,2.4377 -1.239701,1.1258 -1.851054,2.79121 -2.782479,4.18287 -0.634839,0.94852 -1.542612,1.76045 -1.912542,2.84017 -0.772521,2.2548 -0.356445,4.75393 -0.482358,7.13406 -0.05451,1.03047 -0.494845,2.13278 -0.118278,3.09352 0.08473,0.21621 0.260391,0.49458 0.4926,0.49261 1.09617,-0.01 1.725246,-1.42237 2.285661,-2.36449 z"
         style="fill:#d9806e;fill-opacity:1;stroke:none;stroke-width:0.4413709px;stroke-linecap:butt;stroke-linejoin:miter;stroke-opacity:1" />
      <path
         sodipodi:nodetypes="cccc"
         inkscape:connector-curvature="0"
         id="path953"
         d="m 104.90019,112.67062 c 0,0 -4.3133,-8.36981 -3.51109,-11.9126 2.11189,0.60919 3.46928,1.658 3.46928,1.658 z"
         style="fill:#d06560;fill-opacity:1;stroke:none;stroke-width:0.4413709px;stroke-linecap:butt;stroke-linejoin:miter;stroke-opacity:1" />
      <path
         sodipodi:nodetypes="cccc"
         inkscape:connector-curvature="0"
         id="path953-3"
         d="m 104.90019,112.67062 c 0,0 4.31329,-8.36981 3.51109,-11.9126 -2.1119,0.60919 -3.46929,1.658 -3.46929,1.658 z"
         style="fill:#d06560;fill-opacity:1;stroke:none;stroke-width:0.4413709px;stroke-linecap:butt;stroke-linejoin:miter;stroke-opacity:1" />
      <circle
         r="1.3095163"
         cy="100.45463"
         cx="109.19144"
         id="path978"
         style="fill:#e99c8a;fill-opacity:1;stroke:none;stroke-width:0.44678587;stroke-linecap:round;stroke-linejoin:bevel;stroke-miterlimit:4;stroke-dasharray:none;stroke-opacity:1" />
      <circle
         r="1.3095163"
         cy="100.45463"
         cx="100.60894"
         id="path978-5"
         style="fill:#e99c8a;fill-opacity:1;stroke:none;stroke-width:0.44678587;stroke-linecap:round;stroke-linejoin:bevel;stroke-miterlimit:4;stroke-dasharray:none;stroke-opacity:1" />
      <path
         inkscape:connector-curvature="0"
         id="path1108"
         d="m 93.18006,102.76848 c -0.05869,0.005 -0.117606,0.0133 -0.176725,0.0267 -0.55581,1.65409 -0.02556,3.60567 0.36206,5.35076 0.62106,2.79578 2.459014,5.22077 3.10425,8.01106 3.559615,15.39337 -1.99128,32.61413 4.012865,47.22841 0.874,2.12735 4.418,5.29989 4.418,5.29989 0,0 3.54402,-3.17254 4.41802,-5.29989 6.00415,-14.61428 0.45238,-31.83504 4.012,-47.22841 0.64522,-2.79029 2.48406,-5.21528 3.10511,-8.01106 0.38766,-1.74509 0.91699,-3.69667 0.3612,-5.35076 -1.89336,-0.42801 -3.55131,3.94554 -5.04388,6.13092 -2.63908,3.86405 -6.85245,12.25148 -6.85245,12.25148 0,0 -4.21337,-8.38743 -6.852454,-12.25148 -1.445927,-2.11708 -3.047989,-6.28816 -4.867996,-6.15765 z"
         style="fill:#b56b6a;fill-opacity:1;stroke:none;stroke-width:0.4413709;stroke-linecap:round;stroke-linejoin:bevel;stroke-miterlimit:4;stroke-dasharray:none;stroke-opacity:1" />
      <path
         inkscape:connector-curvature="0"
         id="path1130"
         d="m 103.61228,102.35384 c -1.23072,-0.005 -2.98644,0.14396 -3.59907,0.97928 -1.866885,2.54544 0.87075,6.25644 1.13015,9.40242 0.473,5.7367 0.78013,11.4952 0.77499,17.25139 -0.007,6.75928 -0.83333,13.49733 -0.94654,20.25566 -0.0526,3.13247 1.23083,6.74496 0.68964,10.06359 -0.11343,0.69614 -0.14588,1.71243 -0.80774,1.956 -1.080642,0.39767 -2.131656,-2.23955 -3.073225,-1.57669 -1.549094,1.09056 0.05723,7.00465 1.655146,9.9705 0.573159,1.06383 1.451169,2.48111 2.659439,2.46288 1.31115,-0.0199 2.80511,-2.75857 2.80511,-2.75857 0,0 1.49311,2.73872 2.80426,2.75857 1.20828,0.0184 2.08714,-1.39905 2.66029,-2.46288 1.59793,-2.96585 3.20424,-8.87994 1.65514,-9.9705 -0.94156,-0.66286 -1.99343,1.97436 -3.07407,1.57669 -0.66187,-0.24357 -0.69431,-1.25986 -0.80775,-1.956 -0.54119,-3.31863 0.74219,-6.93112 0.68964,-10.06359 -0.11321,-6.75833 -0.93899,-13.49638 -0.94567,-20.25566 -0.005,-5.75619 0.30112,-11.51469 0.77413,-17.25139 0.25939,-3.14598 2.99789,-6.85698 1.13101,-9.40242 -0.98025,-1.33652 -4.88698,-0.91722 -4.88698,-0.91722 0,0 -0.54947,-0.0589 -1.2879,-0.0621 z"
         style="fill:#df7f80;fill-opacity:1;stroke:none;stroke-width:0.4413709px;stroke-linecap:butt;stroke-linejoin:miter;stroke-opacity:1" />
      <path
         sodipodi:nodetypes="ccccccaacccccccccccccaaccccccc"
         inkscape:connector-curvature="0"
         id="path934"
         d="m 104.12009,80.887992 v 81.734658 c -0.61689,0.24731 -1.0537,0.76514 -1.07757,1.37842 h -0.003 v 0.0526 7.96966 c 0,0 -0.01,0.25657 -0.0842,0.35052 -0.16015,0.20092 -0.43783,0.29659 -0.69067,0.34251 -0.48363,0.0878 -1.46707,-0.14879 -1.46707,-0.14879 0,0 1.06797,0.82751 1.50573,0.83418 0.24274,0.003 0.50192,-0.17497 0.73618,-0.40258 v 0.005 c 0.005,-0.005 0.01,-0.0117 0.0133,-0.0172 0.10026,-0.0987 0.19077,-0.20116 0.27759,-0.30777 0.43716,-0.41314 1.00249,-0.65436 1.58875,-0.65603 0.58474,9.6e-4 1.14897,0.24021 1.58619,0.65086 0.0912,0.11227 0.18608,0.21993 0.29222,0.32328 l 0.003,0.003 v -0.002 c 0.23426,0.22761 0.49431,0.40665 0.73706,0.40259 0.43775,-0.007 1.6163,-0.97353 1.6163,-0.97351 0,0 -1.02726,0.35359 -1.54807,0.28825 -0.24764,-0.031 -0.51318,-0.12843 -0.67943,-0.31464 -0.0885,-0.0991 -0.12578,-0.37854 -0.12578,-0.37854 v -7.96966 -0.0526 h -0.002 c -0.0239,-0.61339 -0.4606,-1.13113 -1.07757,-1.3784 V 80.888932 Z"
         style="color:#000000;font-style:normal;font-variant:normal;font-weight:normal;font-stretch:normal;font-size:medium;line-height:normal;font-family:sans-serif;font-variant-ligatures:normal;font-variant-position:normal;font-variant-caps:normal;font-variant-numeric:normal;font-variant-alternates:normal;font-variant-east-asian:normal;font-feature-settings:normal;text-indent:0;text-align:start;text-decoration:none;text-decoration-line:none;text-decoration-style:solid;text-decoration-color:#000000;letter-spacing:normal;word-spacing:normal;text-transform:none;writing-mode:lr-tb;direction:ltr;text-orientation:mixed;dominant-baseline:auto;baseline-shift:baseline;text-anchor:start;white-space:normal;shape-padding:0;clip-rule:nonzero;display:inline;overflow:visible;visibility:visible;opacity:1;isolation:auto;mix-blend-mode:normal;color-interpolation:sRGB;color-interpolation-filters:linearRGB;solid-color:#000000;solid-opacity:1;vector-effect:none;fill:#d06764;fill-opacity:1;fill-rule:nonzero;stroke:none;stroke-width:1.53714144;stroke-linecap:butt;stroke-linejoin:miter;stroke-miterlimit:4;stroke-dasharray:none;stroke-dashoffset:0;stroke-opacity:1;color-rendering:auto;image-rendering:auto;shape-rendering:auto;text-rendering:auto;enable-background:accumulate" />
      <path
         sodipodi:nodetypes="aaaaacaaazsa"
         inkscape:connector-curvature="0"
         id="path936"
         d="m 91.269645,66.012974 c 1.089124,0.631302 1.480977,2.056272 2.402636,2.913766 1.159923,1.07916 2.806527,1.58223 3.875323,2.751707 0.625131,0.684042 0.831184,1.670108 1.39946,2.402059 0.439253,0.565781 1.066096,0.962943 1.530636,1.508137 1.64878,1.935014 4.42248,6.213389 4.42248,6.213389 0,0 -6.011214,-2.712972 -8.921657,-4.258335 -0.946292,-0.502457 -1.94288,-0.948577 -2.77179,-1.627426 -0.529193,-0.433383 -0.853843,-1.078253 -1.367402,-1.530046 -0.910455,-0.800982 -1.642553,-0.592086 -2.999364,-2.058688 -1.356821,-1.466614 -5.07395,-5.669321 -3.45535,-7.321117 1.339243,-1.366719 4.163212,0.0087 5.885028,1.006554 z"
         style="fill:#d56758;fill-opacity:1;stroke:none;stroke-width:0.44206595;stroke-linecap:butt;stroke-linejoin:miter;stroke-miterlimit:4;stroke-dasharray:none;stroke-opacity:1" />
      <path
         sodipodi:nodetypes="aaaaacaaazsa"
         inkscape:connector-curvature="0"
         id="path936-5"
         d="m 118.5307,66.012974 c -1.08911,0.631302 -1.48096,2.056272 -2.40263,2.913766 -1.15994,1.07916 -2.80654,1.58223 -3.87532,2.751707 -0.62513,0.684042 -0.8312,1.670108 -1.39948,2.402059 -0.43925,0.565781 -1.06608,0.962943 -1.53061,1.508137 -1.64878,1.935014 -4.42248,6.213389 -4.42248,6.213389 0,0 6.01119,-2.712972 8.92163,-4.258335 0.9463,-0.502457 1.9429,-0.948577 2.77181,-1.627426 0.5292,-0.433383 0.85382,-1.078253 1.36741,-1.530046 0.91043,-0.800982 1.64254,-0.592086 2.99935,-2.058688 1.35683,-1.466614 5.07395,-5.669321 3.45536,-7.321117 -1.33924,-1.366719 -4.16321,0.0087 -5.88504,1.006554 z"
         style="fill:#d56758;fill-opacity:1;stroke:none;stroke-width:0.44206595;stroke-linecap:butt;stroke-linejoin:miter;stroke-miterlimit:4;stroke-dasharray:none;stroke-opacity:1" />
      <path
         sodipodi:nodetypes="aaaaaaa"
         inkscape:connector-curvature="0"
         id="path1148"
         d="m 104.81986,80.850547 c 3.89663,-0.0117 9.25764,0.353473 11.05061,3.813133 1.43804,2.774819 -0.71737,6.518921 -2.61133,9.00499 -2.00085,2.62636 -5.13759,5.179731 -8.43928,5.185548 -3.32074,0.0066 -6.525816,-2.519983 -8.506203,-5.185548 -1.849761,-2.48972 -3.800999,-6.266993 -2.343721,-9.00499 1.801126,-3.384025 7.016434,-3.802222 10.849924,-3.813133 z"
         style="fill:#a15258;fill-opacity:1;stroke:none;stroke-width:0.4413709px;stroke-linecap:butt;stroke-linejoin:miter;stroke-opacity:1" />
      <path
         id="path1163"
         d="m 128.06338,28.76778 c 0,0 -1.02734,1.943411 -1.35865,3.427572 -0.73761,3.304193 -0.42484,6.643054 -0.25088,9.81029 0.17398,3.167224 0.21082,6.142062 -0.8015,8.777463 -0.32047,0.834295 -1.4424,2.319516 -2.47293,3.460163 -1.03055,1.140625 -1.94838,1.997234 -1.94838,1.997234 l 1.65188,1.77571 c 0,0 0.99051,-0.921048 2.09824,-2.147125 1.10774,-1.226077 2.35124,-2.6948 2.93562,-4.216068 1.23365,-3.211634 1.13812,-6.559089 0.96114,-9.780967 -0.17698,-3.221868 -0.43156,-6.339971 0.19549,-9.148879 0.16182,-0.725128 1.16315,-2.876943 1.16315,-2.876943 z"
         style="color:#000000;font-style:normal;font-variant:normal;font-weight:normal;font-stretch:normal;font-size:medium;line-height:normal;font-family:sans-serif;font-variant-ligatures:normal;font-variant-position:normal;font-variant-caps:normal;font-variant-numeric:normal;font-variant-alternates:normal;font-variant-east-asian:normal;font-feature-settings:normal;text-indent:0;text-align:start;text-decoration:none;text-decoration-line:none;text-decoration-style:solid;text-decoration-color:#000000;letter-spacing:normal;word-spacing:normal;text-transform:none;writing-mode:lr-tb;direction:ltr;text-orientation:mixed;dominant-baseline:auto;baseline-shift:baseline;text-anchor:start;white-space:normal;shape-padding:0;clip-rule:nonzero;display:inline;overflow:visible;visibility:visible;opacity:1;isolation:auto;mix-blend-mode:normal;color-interpolation:sRGB;color-interpolation-filters:linearRGB;solid-color:#000000;solid-opacity:1;vector-effect:none;fill:#c28d65;fill-opacity:1;fill-rule:nonzero;stroke:none;stroke-width:2.42753983;stroke-linecap:butt;stroke-linejoin:miter;stroke-miterlimit:4;stroke-dasharray:none;stroke-dashoffset:0;stroke-opacity:1;color-rendering:auto;image-rendering:auto;shape-rendering:auto;text-rendering:auto;enable-background:accumulate"
         inkscape:connector-curvature="0" />
      <path
         id="path1163-7"
         d="m 81.736975,28.76778 c 0,0 1.027323,1.943411 1.358638,3.427572 0.737598,3.304171 0.424852,6.643054 0.250877,9.810279 -0.173976,3.167224 -0.210823,6.142062 0.801507,8.777453 0.32047,0.834294 1.442389,2.319515 2.472939,3.460162 1.030539,1.140636 1.94837,1.997234 1.94837,1.997234 l -1.651871,1.77571 c 0,0 -0.990516,-0.921048 -2.098248,-2.147125 -1.107752,-1.226077 -2.351242,-2.6948 -2.9356,-4.216057 -1.233685,-3.211634 -1.138127,-6.559099 -0.96115,-9.780967 0.176979,-3.221857 0.431538,-6.339982 -0.195498,-9.148879 -0.16181,-0.725117 -1.16315,-2.876932 -1.16315,-2.876932 z"
         style="color:#000000;font-style:normal;font-variant:normal;font-weight:normal;font-stretch:normal;font-size:medium;line-height:normal;font-family:sans-serif;font-variant-ligatures:normal;font-variant-position:normal;font-variant-caps:normal;font-variant-numeric:normal;font-variant-alternates:normal;font-variant-east-asian:normal;font-feature-settings:normal;text-indent:0;text-align:start;text-decoration:none;text-decoration-line:none;text-decoration-style:solid;text-decoration-color:#000000;letter-spacing:normal;word-spacing:normal;text-transform:none;writing-mode:lr-tb;direction:ltr;text-orientation:mixed;dominant-baseline:auto;baseline-shift:baseline;text-anchor:start;white-space:normal;shape-padding:0;clip-rule:nonzero;display:inline;overflow:visible;visibility:visible;opacity:1;isolation:auto;mix-blend-mode:normal;color-interpolation:sRGB;color-interpolation-filters:linearRGB;solid-color:#000000;solid-opacity:1;vector-effect:none;fill:#c28d65;fill-opacity:1;fill-rule:nonzero;stroke:none;stroke-width:2.42753983;stroke-linecap:butt;stroke-linejoin:miter;stroke-miterlimit:4;stroke-dasharray:none;stroke-dashoffset:0;stroke-opacity:1;color-rendering:auto;image-rendering:auto;shape-rendering:auto;text-rendering:auto;enable-background:accumulate"
         inkscape:connector-curvature="0" />
    </g>
  </g>
</svg>
