<?xml version="1.0" encoding="UTF-8" standalone="no"?>
<!-- Created with Inkscape (http://www.inkscape.org/) -->

<svg
   xmlns:dc="http://purl.org/dc/elements/1.1/"
   xmlns:cc="http://creativecommons.org/ns#"
   xmlns:rdf="http://www.w3.org/1999/02/22-rdf-syntax-ns#"
   xmlns:svg="http://www.w3.org/2000/svg"
   xmlns="http://www.w3.org/2000/svg"
   xmlns:xlink="http://www.w3.org/1999/xlink"
   xmlns:sodipodi="http://sodipodi.sourceforge.net/DTD/sodipodi-0.dtd"
   xmlns:inkscape="http://www.inkscape.org/namespaces/inkscape"
   width="137.05417mm"
   height="195.79167mm"
   viewBox="0 0 137.05417 195.79168"
   version="1.1"
   id="svg8"
   inkscape:version="0.92+devel unknown"
   sodipodi:docname="testiculo.svg"
   inkscape:export-filename="/home/fundacion/Documentos/fundecyt_02/conozco_mi_cuerpo/conozco-mi-cuerpo/img/masculino/testiculo.png"
   inkscape:export-xdpi="96"
   inkscape:export-ydpi="96">
  <defs
     id="defs2">
    <linearGradient
       inkscape:collect="always"
       id="linearGradient6938">
      <stop
         style="stop-color:#ffffff;stop-opacity:1;"
         offset="0"
         id="stop6934" />
      <stop
         style="stop-color:#ffffff;stop-opacity:0;"
         offset="1"
         id="stop6936" />
    </linearGradient>
    <radialGradient
       inkscape:collect="always"
       xlink:href="#linearGradient6938"
       id="radialGradient6942"
       cx="263.12064"
       cy="161.63829"
       fx="263.12064"
       fy="161.63829"
       r="3.9311118"
       gradientTransform="matrix(0.37876976,0,0,1.0757061,11.105729,74.299981)"
       gradientUnits="userSpaceOnUse" />
    <radialGradient
       inkscape:collect="always"
       xlink:href="#linearGradient6938"
       id="radialGradient6942-9"
       cx="263.12064"
       cy="161.63829"
       fx="263.12064"
       fy="161.63829"
       r="3.9311118"
       gradientTransform="matrix(0.37876976,0,0,1.0757061,25.221327,76.98016)"
       gradientUnits="userSpaceOnUse" />
  </defs>
  <sodipodi:namedview
     id="base"
     pagecolor="#ffffff"
     bordercolor="#666666"
     borderopacity="1.0"
     inkscape:pageopacity="0.0"
     inkscape:pageshadow="2"
     inkscape:zoom="0.56472152"
     inkscape:cx="204.68538"
     inkscape:cy="338.82279"
     inkscape:document-units="mm"
     inkscape:current-layer="layer1"
     inkscape:document-rotation="0"
     showgrid="false"
     inkscape:window-width="1920"
     inkscape:window-height="1012"
     inkscape:window-x="0"
     inkscape:window-y="32"
     inkscape:window-maximized="1"
     fit-margin-top="0"
     fit-margin-left="0"
     fit-margin-right="0"
     fit-margin-bottom="0" />
  <metadata
     id="metadata5">
    <rdf:RDF>
      <cc:Work
         rdf:about="">
        <dc:format>image/svg+xml</dc:format>
        <dc:type
           rdf:resource="http://purl.org/dc/dcmitype/StillImage" />
        <dc:title></dc:title>
      </cc:Work>
    </rdf:RDF>
  </metadata>
  <g
     inkscape:label="Capa 1"
     inkscape:groupmode="layer"
     id="layer1"
     transform="translate(-296.27036,-146.99776)">
    <g
       id="g4554"
       transform="translate(276.16484,1.5383972)">
      <g
         id="g4521">
        <path
           style="fill:#fbccbc;fill-opacity:1;stroke:none;stroke-width:0.34000713px;stroke-linecap:butt;stroke-linejoin:miter;stroke-opacity:1"
           d="m 52.209247,195.90467 c 7.784546,0.0324 19.219666,7.20221 18.450037,14.89214 -0.332245,3.31978 -2.07615,6.75188 -4.349849,9.2322 -3.702478,4.03896 -14.100188,8.07487 -14.100188,8.07487 0,0 -10.200381,-4.14169 -13.940935,-8.07487 -2.367386,-2.48929 -4.747154,-5.61233 -4.817189,-9.2322 -0.160263,-8.28411 10.892203,-14.92488 18.758124,-14.89214 z"
           id="path38"
           inkscape:connector-curvature="0"
           sodipodi:nodetypes="asacasa" />
        <ellipse
           style="fill:#f5a294;fill-opacity:1;stroke:none;stroke-width:0.76585108"
           id="path845-3"
           cx="67.54567"
           cy="277.26959"
           rx="6.3700366"
           ry="9.6597633" />
        <ellipse
           style="fill:#f5a294;fill-opacity:1;stroke:none;stroke-width:0.76585108;stroke-opacity:1"
           id="path845"
           cx="36.528931"
           cy="277.26959"
           rx="6.3700366"
           ry="9.6597633" />
        <path
           inkscape:connector-curvature="0"
           style="color:#000000;font-style:normal;font-variant:normal;font-weight:normal;font-stretch:normal;font-size:medium;line-height:normal;font-family:sans-serif;font-variant-ligatures:normal;font-variant-position:normal;font-variant-caps:normal;font-variant-numeric:normal;font-variant-alternates:normal;font-feature-settings:normal;text-indent:0;text-align:start;text-decoration:none;text-decoration-line:none;text-decoration-style:solid;text-decoration-color:#000000;letter-spacing:normal;word-spacing:normal;text-transform:none;writing-mode:lr-tb;direction:ltr;text-orientation:mixed;dominant-baseline:auto;baseline-shift:baseline;text-anchor:start;white-space:normal;shape-padding:0;clip-rule:nonzero;display:inline;overflow:visible;visibility:visible;opacity:1;isolation:auto;mix-blend-mode:normal;color-interpolation:sRGB;color-interpolation-filters:linearRGB;solid-color:#000000;solid-opacity:1;vector-effect:none;fill:#f47d75;fill-opacity:1;fill-rule:nonzero;stroke:none;stroke-width:1.92759991;stroke-linecap:round;stroke-linejoin:bevel;stroke-miterlimit:4;stroke-dasharray:none;stroke-dashoffset:0;stroke-opacity:1;color-rendering:auto;image-rendering:auto;shape-rendering:auto;text-rendering:auto;enable-background:accumulate"
           d="m 30.014889,196.50129 c -1.045207,-0.0214 -2.115317,0.11651 -3.140457,0.39891 -2.050273,0.56479 -3.963778,1.71996 -5.054821,3.55294 -2.642802,4.44003 -1.684975,9.51757 0.0076,14.46304 1.692146,4.94547 4.133685,9.9412 4.917429,14.42376 0.913173,5.22287 2.254038,10.2987 2.633223,15.40715 0.205475,2.76805 -0.67389,5.85975 -0.17972,9.13565 0.249918,1.65665 0.948058,3.09482 1.557533,4.44423 0.609492,1.34941 1.127538,2.60404 1.215688,3.8523 0.08996,1.27405 -0.373285,2.67956 -0.880996,4.21597 -0.507703,1.53641 -1.062198,3.22005 -0.772909,5.06056 0.133796,0.85112 0.567323,1.54401 0.945459,2.14761 0.378151,0.60358 0.735786,1.06737 0.735786,1.06737 a 0.94502869,0.98294385 0 0 0 1.326378,0.15373 0.94502869,0.98294385 0 0 0 0.147821,-1.38229 c 0,0 -0.304305,-0.39542 -0.627701,-0.91161 -0.323387,-0.5162 -0.632464,-1.20323 -0.662219,-1.39245 -0.194268,-1.23595 0.194312,-2.59313 0.694118,-4.1056 0.499799,-1.51246 1.108908,-3.16201 0.979318,-4.99689 -0.119829,-1.69742 -0.770436,-3.17367 -1.390189,-4.5458 -0.619751,-1.37213 -1.210358,-2.64995 -1.400611,-3.91121 -0.406283,-2.69324 0.436405,-5.72637 0.194694,-8.98261 -0.397843,-5.35989 -1.765015,-10.50177 -2.657966,-15.60896 -0.86073,-4.9229 -3.362168,-9.96112 -4.993621,-14.72921 -1.631454,-4.76811 -2.376899,-9.0825 -0.181658,-12.77055 0.746082,-1.25345 2.226726,-2.21754 3.932252,-2.68739 1.705525,-0.46984 3.600335,-0.43132 5.005982,0.10498 4.930228,1.88098 9.822401,9.21438 13.267031,16.14943 3.444669,6.93503 5.545135,13.36653 5.545135,13.36653 a 0.94502869,0.98294385 0 0 0 0.0066,0.0156 0.94502869,0.98294385 0 0 0 0.01952,0.0521 0.94502869,0.98294385 0 0 0 0.02017,0.0468 0.94502869,0.98294385 0 0 0 0.01952,0.0386 0.94502869,0.98294385 0 0 0 0.02407,0.0434 0.94502869,0.98294385 0 0 0 0.02549,0.0413 0.94502869,0.98294385 0 0 0 0.03059,0.044 0.94502869,0.98294385 0 0 0 0.02469,0.0318 0.94502869,0.98294385 0 0 0 0.03518,0.0413 0.94502869,0.98294385 0 0 0 0.03252,0.0346 0.94502869,0.98294385 0 0 0 0.03325,0.0318 0.94502869,0.98294385 0 0 0 0.03707,0.0319 0.94502869,0.98294385 0 0 0 0.03715,0.0298 0.94502869,0.98294385 0 0 0 0.03846,0.0265 0.94502869,0.98294385 0 0 0 0.045,0.0285 0.94502869,0.98294385 0 0 0 0.03904,0.0216 0.94502869,0.98294385 0 0 0 0.0378,0.019 0.94502869,0.98294385 0 0 0 0.06965,0.0306 0.94502869,0.98294385 0 0 0 0.0022,7.5e-4 0.94502869,0.98294385 0 0 0 7.28e-4,0 0.94502869,0.98294385 0 0 0 0.013,0.005 0.94502869,0.98294385 0 0 0 0.05013,0.015 0.94502869,0.98294385 0 0 0 0.0339,0.009 0.94502869,0.98294385 0 0 0 0.04294,0.009 0.94502869,0.98294385 0 0 0 0.04954,0.009 0.94502869,0.98294385 0 0 0 0.05277,0.005 0.94502869,0.98294385 0 0 0 0.03971,0.004 0.94502869,0.98294385 0 0 0 0.06378,-7.6e-4 0.94502869,0.98294385 0 0 0 0.02866,-7.5e-4 0.94502869,0.98294385 0 0 0 0.05277,-0.005 0.94502869,0.98294385 0 0 0 0.0469,-0.007 0.94502869,0.98294385 0 0 0 0.03186,-0.007 0.94502869,0.98294385 0 0 0 0.06246,-0.015 0.94502869,0.98294385 0 0 0 0.0022,-7.6e-4 0.94502869,0.98294385 0 0 0 0.0051,-0.002 0.94502869,0.98294385 0 0 0 0.04425,-0.0135 0.94502869,0.98294385 0 0 0 0.0228,-0.009 0.94502869,0.98294385 0 0 0 0.03905,-0.0162 0.94502869,0.98294385 0 0 0 0.04815,-0.0224 0.94502869,0.98294385 0 0 0 0.03715,-0.0203 0.94502869,0.98294385 0 0 0 0.0417,-0.025 0.94502869,0.98294385 0 0 0 0.03971,-0.0265 0.94502869,0.98294385 0 0 0 0.04235,-0.0319 0.94502869,0.98294385 0 0 0 0.03059,-0.0257 0.94502869,0.98294385 0 0 0 0.03971,-0.0366 0.94502869,0.98294385 0 0 0 0.03325,-0.0339 0.94502869,0.98294385 0 0 0 0.03186,-0.0365 0.94502869,0.98294385 0 0 0 0.02604,-0.0319 0.94502869,0.98294385 0 0 0 0.03453,-0.0475 0.94502869,0.98294385 0 0 0 0.02279,-0.0353 0.94502869,0.98294385 0 0 0 0.02549,-0.0441 0.94502869,0.98294385 0 0 0 0.0228,-0.0434 0.94502869,0.98294385 0 0 0 0.01952,-0.0428 0.94502869,0.98294385 0 0 0 0.0208,-0.0515 0.94502869,0.98294385 0 0 0 0.01129,-0.0312 0.94502869,0.98294385 0 0 0 0.0014,-0.004 c 0,0 2.103091,-6.43152 5.54774,-13.36655 3.444646,-6.93505 8.334197,-14.26844 13.264428,-16.14943 1.405659,-0.53628 3.303061,-0.5748 5.008587,-0.10497 1.705526,0.46984 3.18617,1.43394 3.932255,2.68739 2.195237,3.68805 1.449803,8.00243 -0.18166,12.77055 -1.631456,4.7681 -4.135498,9.80632 -4.996228,14.72921 -0.892956,5.1072 -2.260127,10.24908 -2.657967,15.60896 -0.241714,3.25623 0.603584,6.28939 0.197298,8.98261 -0.190252,1.26126 -0.780856,2.53908 -1.400609,3.9112 -0.619752,1.37214 -1.270311,2.84839 -1.390189,4.54583 -0.12959,1.83488 0.479522,3.48441 0.97932,4.99687 0.499804,1.51247 0.888384,2.86964 0.694116,4.10559 -0.02972,0.18924 -0.341406,0.87627 -0.664809,1.39246 -0.323391,0.51621 -0.62772,0.91161 -0.62772,0.91161 a 0.94502869,0.98294385 0 0 0 0.147816,1.3823 0.94502869,0.98294385 0 0 0 1.328993,-0.15374 c 0,0 0.357637,-0.4638 0.735784,-1.06737 0.378136,-0.6036 0.809071,-1.2965 0.942864,-2.14762 0.289303,-1.8405 -0.26261,-3.52414 -0.770314,-5.06054 -0.507705,-1.53641 -0.970988,-2.94193 -0.880989,-4.21599 0.08819,-1.24826 0.60619,-2.50288 1.21568,-3.85229 0.609483,-1.34942 1.30762,-2.78756 1.557536,-4.44423 0.494171,-3.27589 -0.385197,-6.36762 -0.17972,-9.13566 0.379181,-5.10843 1.720049,-10.18426 2.633229,-15.40714 0.783744,-4.48257 3.225277,-9.47829 4.91742,-14.42376 1.692133,-4.94546 2.649971,-10.02301 0.0075,-14.46303 -1.091047,-1.83299 -3.007149,-2.98815 -5.057428,-3.55295 -1.025142,-0.28241 -2.092642,-0.42024 -3.137853,-0.39891 -1.045196,0.0214 -2.066962,0.20116 -3.002418,0.55806 -5.974491,2.27953 -10.773403,10.00785 -14.292883,17.09355 -2.177284,4.38329 -3.822233,8.55269 -4.763093,11.10222 -0.940529,-2.54948 -2.58429,-6.719 -4.761534,-11.10239 -3.519472,-7.0857 -8.318371,-14.81402 -14.293227,-17.09355 -0.935456,-0.3569 -1.957219,-0.53674 -3.002419,-0.55806 z"
           id="path889" />
        <path
           style="fill:#d9806e;fill-opacity:1;stroke:none;stroke-width:0.34000713px;stroke-linecap:butt;stroke-linejoin:miter;stroke-opacity:1"
           d="m 71.967527,279.99414 c -0.236635,-0.41376 -0.225317,-0.9394 -0.416727,-1.37776 -0.141792,-0.32471 -0.390014,-0.59053 -0.535794,-0.91333 -0.653245,-1.44637 -0.480556,-3.33503 -1.495563,-4.53465 -0.349007,-0.41248 -1.013441,-0.3798 -1.421566,-0.72868 -0.656204,-0.56093 -0.837436,-1.6211 -1.547859,-2.10534 -0.570248,-0.38869 -1.442818,-0.0813 -1.985627,-0.51039 -0.459842,-0.36349 -0.970216,-0.98215 -0.850917,-1.56993 0.249799,-1.2306 1.701098,-2.16271 2.906906,-2.2573 1.298582,-0.10183 2.481634,1.00455 3.445699,1.91517 0.936399,0.88448 1.398179,2.19289 2.101721,3.28624 0.479517,0.74521 1.165197,1.38308 1.44462,2.23137 0.583511,1.77146 0.269234,3.7349 0.364342,5.60483 0.04119,0.80959 0.373773,1.67561 0.08934,2.43042 -0.064,0.16986 -0.196678,0.38855 -0.372072,0.38701 -0.827986,-0.008 -1.303148,-1.11747 -1.726455,-1.85766 z"
           id="path892-7"
           inkscape:connector-curvature="0"
           sodipodi:nodetypes="aaaaaaaaaaaaaaaa" />
        <path
           style="fill:#d9806e;fill-opacity:1;stroke:none;stroke-width:0.34000713px;stroke-linecap:butt;stroke-linejoin:miter;stroke-opacity:1"
           d="m 32.123469,279.99414 c 0.23664,-0.41376 0.225322,-0.9394 0.416735,-1.37776 0.141796,-0.32471 0.39001,-0.59053 0.535792,-0.91333 0.653244,-1.44637 0.480554,-3.33503 1.495566,-4.53465 0.349004,-0.41248 1.013434,-0.3798 1.421566,-0.72868 0.656201,-0.56093 0.837434,-1.6211 1.547854,-2.10534 0.570252,-0.38869 1.442821,-0.0813 1.985631,-0.51039 0.459835,-0.36349 0.970218,-0.98215 0.850917,-1.56993 -0.2498,-1.2306 -1.7011,-2.16271 -2.906907,-2.2573 -1.298582,-0.10183 -2.481636,1.00455 -3.445702,1.91517 -0.936395,0.88448 -1.398174,2.19289 -2.101717,3.28624 -0.479519,0.74521 -1.165196,1.38308 -1.444621,2.23137 -0.583515,1.77146 -0.269235,3.7349 -0.364343,5.60483 -0.04118,0.80959 -0.373776,1.67561 -0.08934,2.43042 0.064,0.16986 0.196683,0.38855 0.37208,0.38701 0.827981,-0.008 1.303148,-1.11747 1.726452,-1.85766 z"
           id="path892"
           inkscape:connector-curvature="0"
           sodipodi:nodetypes="aaaaaaaaaaaaaaaa" />
        <path
           style="fill:#d06560;fill-opacity:1;stroke:none;stroke-width:0.34000713px;stroke-linecap:butt;stroke-linejoin:miter;stroke-opacity:1"
           d="m 52.072811,252.45757 c 0,0 -3.258005,-6.5757 -2.652064,-9.35907 1.595193,0.4786 2.620488,1.3026 2.620488,1.3026 z"
           id="path953"
           inkscape:connector-curvature="0"
           sodipodi:nodetypes="cccc" />
        <path
           style="fill:#d06560;fill-opacity:1;stroke:none;stroke-width:0.34000713px;stroke-linecap:butt;stroke-linejoin:miter;stroke-opacity:1"
           d="m 52.072811,252.45757 c 0,0 3.258007,-6.5757 2.652068,-9.35907 -1.595197,0.4786 -2.620491,1.3026 -2.620491,1.3026 z"
           id="path953-3"
           inkscape:connector-curvature="0"
           sodipodi:nodetypes="cccc" />
        <ellipse
           style="fill:#e99c8a;fill-opacity:1;stroke:none;stroke-width:0.34417853;stroke-linecap:round;stroke-linejoin:bevel;stroke-miterlimit:4;stroke-dasharray:none;stroke-opacity:1"
           id="path978"
           cx="55.314159"
           cy="242.86014"
           rx="0.98913014"
           ry="1.0288147" />
        <ellipse
           style="fill:#e99c8a;fill-opacity:1;stroke:none;stroke-width:0.34417853;stroke-linecap:round;stroke-linejoin:bevel;stroke-miterlimit:4;stroke-dasharray:none;stroke-opacity:1"
           id="path978-5"
           cx="48.831455"
           cy="242.86014"
           rx="0.98913014"
           ry="1.0288147" />
        <path
           style="fill:#b56b6a;fill-opacity:1;stroke:none;stroke-width:0.34000713;stroke-linecap:round;stroke-linejoin:bevel;stroke-miterlimit:4;stroke-dasharray:none;stroke-opacity:1"
           d="m 43.220127,244.67801 c -0.04433,0.004 -0.08884,0.0104 -0.133487,0.021 -0.419826,1.29952 -0.01931,2.83278 0.273478,4.2038 0.469111,2.19649 1.857391,4.10167 2.344764,6.29384 2.68872,12.09372 -1.504094,25.62312 3.031074,37.10475 0.660174,1.67135 3.337092,4.16384 3.337092,4.16384 0,0 2.676944,-2.49249 3.337113,-4.16384 4.535169,-11.48163 0.341699,-25.01103 3.030419,-37.10475 0.487365,-2.19217 1.876309,-4.09735 2.34542,-6.29384 0.292813,-1.37102 0.692638,-2.90428 0.272824,-4.2038 -1.43013,-0.33626 -2.682445,3.09979 -3.809843,4.81673 -1.993402,3.03576 -5.175933,9.62531 -5.175933,9.62531 0,0 -3.182525,-6.58955 -5.175929,-9.62531 -1.092167,-1.66328 -2.302268,-4.94027 -3.676992,-4.83773 z"
           id="path1108"
           inkscape:connector-curvature="0" />
        <path
           style="fill:#df7f80;fill-opacity:1;stroke:none;stroke-width:0.34000713px;stroke-linecap:butt;stroke-linejoin:miter;stroke-opacity:1"
           d="m 51.1,244.35224 c -0.929616,-0.005 -2.255776,0.1131 -2.718523,0.76937 -1.410132,1.99981 0.657713,4.91534 0.853646,7.38696 0.357281,4.50701 0.589262,9.03114 0.58538,13.55347 -0.0051,5.31038 -0.629442,10.6041 -0.714955,15.91375 -0.03971,2.46101 0.929696,5.29914 0.520913,7.90641 -0.08568,0.54691 -0.110191,1.34535 -0.610122,1.53672 -0.816249,0.31243 -1.610122,-1.7595 -2.321327,-1.23872 -1.170093,0.85679 0.04324,5.50316 1.250198,7.83327 0.432927,0.83579 1.096124,1.94927 2.008779,1.93495 0.990365,-0.0156 2.118811,-2.16726 2.118811,-2.16726 0,0 1.127806,2.15166 2.118174,2.16726 0.912656,0.0144 1.576501,-1.09916 2.009421,-1.93495 1.206981,-2.33011 2.420295,-6.97648 1.250196,-7.83327 -0.711197,-0.52078 -1.505724,1.55115 -2.321972,1.23872 -0.499933,-0.19137 -0.52444,-0.98981 -0.610124,-1.53672 -0.40878,-2.60727 0.560606,-5.4454 0.520912,-7.90641 -0.08551,-5.30965 -0.709259,-10.60337 -0.714303,-15.91375 -0.0038,-4.52233 0.227447,-9.04646 0.584732,-13.55347 0.195932,-2.47162 2.264423,-5.38715 0.854296,-7.38696 -0.740416,-1.05003 -3.691332,-0.7206 -3.691332,-0.7206 0,0 -0.415032,-0.0463 -0.9728,-0.0488 z"
           id="path1130"
           inkscape:connector-curvature="0" />
        <path
           style="color:#000000;font-style:normal;font-variant:normal;font-weight:normal;font-stretch:normal;font-size:medium;line-height:normal;font-family:sans-serif;font-variant-ligatures:normal;font-variant-position:normal;font-variant-caps:normal;font-variant-numeric:normal;font-variant-alternates:normal;font-feature-settings:normal;text-indent:0;text-align:start;text-decoration:none;text-decoration-line:none;text-decoration-style:solid;text-decoration-color:#000000;letter-spacing:normal;word-spacing:normal;text-transform:none;writing-mode:lr-tb;direction:ltr;text-orientation:mixed;dominant-baseline:auto;baseline-shift:baseline;text-anchor:start;white-space:normal;shape-padding:0;clip-rule:nonzero;display:inline;overflow:visible;visibility:visible;opacity:1;isolation:auto;mix-blend-mode:normal;color-interpolation:sRGB;color-interpolation-filters:linearRGB;solid-color:#000000;solid-opacity:1;vector-effect:none;fill:#d06764;fill-opacity:1;fill-rule:nonzero;stroke:none;stroke-width:1.18412673;stroke-linecap:butt;stroke-linejoin:miter;stroke-miterlimit:4;stroke-dasharray:none;stroke-dashoffset:0;stroke-opacity:1;color-rendering:auto;image-rendering:auto;shape-rendering:auto;text-rendering:auto;enable-background:accumulate"
           d="m 51.483569,227.48771 v 64.21441 c -0.465965,0.1943 -0.795903,0.60112 -0.813933,1.08294 h -0.0022 v 0.0413 6.26132 c 0,0 -0.0075,0.20157 -0.06364,0.27538 -0.120967,0.15785 -0.330712,0.23301 -0.521691,0.26909 -0.365299,0.0689 -1.108132,-0.1169 -1.108132,-0.1169 0,0 0.806681,0.65013 1.137338,0.65538 0.183347,0.002 0.379118,-0.13747 0.556063,-0.31629 v 0.004 c 0.0038,-0.004 0.0075,-0.009 0.01005,-0.0135 0.07573,-0.0776 0.144095,-0.15804 0.209669,-0.2418 0.330205,-0.32458 0.757226,-0.51409 1.200051,-0.5154 0.441674,7.5e-4 0.867865,0.18872 1.19811,0.51134 0.06893,0.0882 0.140555,0.17279 0.220729,0.25398 l 0.0022,0.002 v -0.002 c 0.176945,0.17882 0.373369,0.31948 0.55673,0.31629 0.33065,-0.005 1.220856,-0.76484 1.220856,-0.76483 0,0 -0.775936,0.27779 -1.169323,0.22647 -0.187054,-0.0244 -0.387622,-0.10091 -0.513199,-0.2472 -0.06687,-0.0779 -0.09501,-0.2974 -0.09501,-0.2974 v -6.26133 -0.0413 h -0.0014 c -0.01803,-0.48192 -0.34791,-0.88868 -0.813929,-1.08295 v -64.21345 z"
           id="path934"
           inkscape:connector-curvature="0"
           sodipodi:nodetypes="ccccccaacccccccccccccaaccccccc" />
        <path
           style="fill:#d56758;fill-opacity:1;stroke:none;stroke-width:0.34054258;stroke-linecap:butt;stroke-linejoin:miter;stroke-miterlimit:4;stroke-dasharray:none;stroke-opacity:1"
           d="m 41.777114,215.80124 c 0.822659,0.49598 1.118641,1.61549 1.814807,2.28918 0.876135,0.84783 2.119883,1.24307 2.927187,2.16186 0.472187,0.53742 0.627826,1.31212 1.057068,1.88717 0.331785,0.4445 0.805263,0.75653 1.156146,1.18486 1.245392,1.52023 3.340478,4.88152 3.340478,4.88152 0,0 -4.540509,-2.13144 -6.738882,-3.34555 -0.714772,-0.39475 -1.467535,-0.74524 -2.093644,-1.27857 -0.399721,-0.34049 -0.644942,-0.84713 -1.032853,-1.20208 -0.687703,-0.62928 -1.240686,-0.46517 -2.26554,-1.6174 -1.024861,-1.15223 -3.832558,-4.45407 -2.609964,-5.75179 1.011584,-1.07376 3.144641,0.007 4.445197,0.7908 z"
           id="path936"
           inkscape:connector-curvature="0"
           sodipodi:nodetypes="aaaaacaaazsa" />
        <path
           style="fill:#d56758;fill-opacity:1;stroke:none;stroke-width:0.34054258;stroke-linecap:butt;stroke-linejoin:miter;stroke-miterlimit:4;stroke-dasharray:none;stroke-opacity:1"
           d="m 62.36848,215.80124 c -0.822651,0.49598 -1.118632,1.61549 -1.814807,2.28918 -0.876141,0.84783 -2.119889,1.24307 -2.927179,2.16186 -0.472187,0.53742 -0.62784,1.31212 -1.057082,1.88717 -0.331785,0.4445 -0.805254,0.75653 -1.156137,1.18486 -1.245385,1.52023 -3.340475,4.88152 -3.340475,4.88152 0,0 4.540497,-2.13144 6.738869,-3.34555 0.714776,-0.39475 1.467545,-0.74524 2.093659,-1.27857 0.399722,-0.34049 0.644919,-0.84713 1.032858,-1.20208 0.687685,-0.62928 1.240676,-0.46517 2.26553,-1.6174 1.024869,-1.15223 3.832556,-4.45407 2.609967,-5.75179 -1.01158,-1.07376 -3.14464,0.007 -4.445203,0.7908 z"
           id="path936-5"
           inkscape:connector-curvature="0"
           sodipodi:nodetypes="aaaaacaaazsa" />
        <path
           style="fill:#a15258;fill-opacity:1;stroke:none;stroke-width:0.34000713px;stroke-linecap:butt;stroke-linejoin:miter;stroke-opacity:1"
           d="m 52.012131,227.45829 c 2.943283,-0.009 6.99267,0.27771 8.346969,2.99577 1.08621,2.18003 -0.541859,5.12155 -1.972438,7.07472 -1.511327,2.06339 -3.880632,4.06944 -6.374531,4.074 -2.508287,0.005 -4.929207,-1.97981 -6.425073,-4.074 -1.397199,-1.95603 -2.871046,-4.92362 -1.770306,-7.07472 1.360463,-2.65864 5.299797,-2.98719 8.195379,-2.99577 z"
           id="path1148"
           inkscape:connector-curvature="0"
           sodipodi:nodetypes="aaaaaaa" />
        <path
           inkscape:connector-curvature="0"
           style="color:#000000;font-style:normal;font-variant:normal;font-weight:normal;font-stretch:normal;font-size:medium;line-height:normal;font-family:sans-serif;font-variant-ligatures:normal;font-variant-position:normal;font-variant-caps:normal;font-variant-numeric:normal;font-variant-alternates:normal;font-feature-settings:normal;text-indent:0;text-align:start;text-decoration:none;text-decoration-line:none;text-decoration-style:solid;text-decoration-color:#000000;letter-spacing:normal;word-spacing:normal;text-transform:none;writing-mode:lr-tb;direction:ltr;text-orientation:mixed;dominant-baseline:auto;baseline-shift:baseline;text-anchor:start;white-space:normal;shape-padding:0;clip-rule:nonzero;display:inline;overflow:visible;visibility:visible;opacity:1;isolation:auto;mix-blend-mode:normal;color-interpolation:sRGB;color-interpolation-filters:linearRGB;solid-color:#000000;solid-opacity:1;vector-effect:none;fill:#c28d65;fill-opacity:1;fill-rule:nonzero;stroke:none;stroke-width:1.87003922;stroke-linecap:butt;stroke-linejoin:miter;stroke-miterlimit:4;stroke-dasharray:none;stroke-dashoffset:0;stroke-opacity:1;color-rendering:auto;image-rendering:auto;shape-rendering:auto;text-rendering:auto;enable-background:accumulate"
           d="m 69.568896,186.53974 c 0,0 -0.775991,1.52684 -1.026246,2.69286 -0.557145,2.59592 -0.320897,5.21908 -0.189497,7.7074 0.131415,2.48831 0.159236,4.82548 -0.605408,6.89597 -0.242064,0.65545 -1.089499,1.82231 -1.867905,2.71845 -0.778409,0.89614 -1.471688,1.56912 -1.471688,1.56912 l 1.247734,1.39508 c 0,0 0.748169,-0.72362 1.584884,-1.68688 0.836722,-0.96326 1.775984,-2.11716 2.217388,-3.31233 0.931826,-2.5232 0.859668,-5.15311 0.725988,-7.68436 -0.133678,-2.53124 -0.32597,-4.98097 0.14766,-7.18777 0.122234,-0.5697 0.878578,-2.26026 0.878578,-2.26026 z"
           id="path1163" />
        <path
           inkscape:connector-curvature="0"
           style="color:#000000;font-style:normal;font-variant:normal;font-weight:normal;font-stretch:normal;font-size:medium;line-height:normal;font-family:sans-serif;font-variant-ligatures:normal;font-variant-position:normal;font-variant-caps:normal;font-variant-numeric:normal;font-variant-alternates:normal;font-feature-settings:normal;text-indent:0;text-align:start;text-decoration:none;text-decoration-line:none;text-decoration-style:solid;text-decoration-color:#000000;letter-spacing:normal;word-spacing:normal;text-transform:none;writing-mode:lr-tb;direction:ltr;text-orientation:mixed;dominant-baseline:auto;baseline-shift:baseline;text-anchor:start;white-space:normal;shape-padding:0;clip-rule:nonzero;display:inline;overflow:visible;visibility:visible;opacity:1;isolation:auto;mix-blend-mode:normal;color-interpolation:sRGB;color-interpolation-filters:linearRGB;solid-color:#000000;solid-opacity:1;vector-effect:none;fill:#c28d65;fill-opacity:1;fill-rule:nonzero;stroke:none;stroke-width:1.87003922;stroke-linecap:butt;stroke-linejoin:miter;stroke-miterlimit:4;stroke-dasharray:none;stroke-dashoffset:0;stroke-opacity:1;color-rendering:auto;image-rendering:auto;shape-rendering:auto;text-rendering:auto;enable-background:accumulate"
           d="m 34.576707,186.53974 c 0,0 0.775978,1.52684 1.026234,2.69286 0.557137,2.5959 0.320908,5.21907 0.189497,7.70739 -0.131411,2.48831 -0.159243,4.82548 0.60541,6.89596 0.242065,0.65546 1.089495,1.82232 1.86791,2.71846 0.778408,0.89613 1.471682,1.56912 1.471682,1.56912 l -1.247725,1.39507 c 0,0 -0.748175,-0.72362 -1.58489,-1.68688 -0.836729,-0.96326 -1.775987,-2.11715 -2.217376,-3.31232 -0.931852,-2.5232 -0.859674,-5.15312 -0.725995,-7.68437 0.133679,-2.53123 0.325958,-4.98096 -0.147667,-7.18776 -0.122222,-0.56969 -0.878574,-2.26025 -0.878574,-2.26025 z"
           id="path1163-7" />
        <path
           style="fill:#ffba95;fill-opacity:1;stroke:none;stroke-width:0.28975886;stroke-linecap:butt;stroke-linejoin:miter;stroke-miterlimit:4;stroke-dasharray:none;stroke-opacity:1"
           d="m 95.958637,206.18918 -28.718349,71.37875 51.420592,5.80744 z"
           id="path5812"
           inkscape:connector-curvature="0"
           sodipodi:nodetypes="cccc" />
        <ellipse
           style="opacity:1;fill:#ffccaa;fill-opacity:1;stroke:none;stroke-width:0.28975886;stroke-linecap:round;stroke-miterlimit:4;stroke-dasharray:none;stroke-opacity:1"
           id="path5766"
           cx="235.52171"
           cy="-123.05841"
           rx="48.179436"
           ry="34.028831"
           transform="rotate(90)" />
        <ellipse
           style="fill:#f5a294;fill-opacity:1;stroke:none;stroke-width:0.93992311"
           id="path845-3-5"
           cx="115.72309"
           cy="251.10049"
           rx="7.9731841"
           ry="11.624457" />
        <path
           style="fill:#d9806e;fill-opacity:1;stroke:none;stroke-width:0.41728821px;stroke-linecap:butt;stroke-linejoin:miter;stroke-opacity:1"
           d="m 121.2578,254.3792 c -0.29619,-0.49792 -0.28202,-1.13047 -0.52161,-1.65799 -0.17747,-0.39075 -0.48817,-0.71064 -0.67063,-1.09909 -0.81765,-1.74055 -0.6015,-4.01333 -1.87196,-5.45695 -0.43684,-0.49638 -1.26849,-0.45705 -1.77933,-0.87688 -0.82135,-0.67503 -1.04819,-1.95082 -1.93741,-2.53354 -0.71376,-0.46776 -1.80593,-0.0978 -2.48535,-0.61421 -0.57557,-0.43742 -1.21439,-1.1819 -1.06506,-1.88924 0.31266,-1.48089 2.12921,-2.60258 3.63848,-2.71641 1.6254,-0.12254 3.10619,1.20887 4.31288,2.3047 1.17207,1.06437 1.75006,2.6389 2.63066,3.95463 0.6002,0.89677 1.45845,1.66438 1.80819,2.68521 0.73036,2.13175 0.33699,4.49453 0.45604,6.74479 0.0516,0.97425 0.46784,2.01641 0.11182,2.92473 -0.0801,0.20441 -0.24618,0.46759 -0.46572,0.46573 -1.03636,-0.009 -1.63111,-1.34476 -2.16095,-2.23548 z"
           id="path892-7-3"
           inkscape:connector-curvature="0"
           sodipodi:nodetypes="aaaaaaaaaaaaaaaa" />
        <path
           inkscape:connector-curvature="0"
           style="color:#000000;font-style:normal;font-variant:normal;font-weight:normal;font-stretch:normal;font-size:medium;line-height:normal;font-family:sans-serif;font-variant-ligatures:normal;font-variant-position:normal;font-variant-caps:normal;font-variant-numeric:normal;font-variant-alternates:normal;font-feature-settings:normal;text-indent:0;text-align:start;text-decoration:none;text-decoration-line:none;text-decoration-style:solid;text-decoration-color:#000000;letter-spacing:normal;word-spacing:normal;text-transform:none;writing-mode:lr-tb;direction:ltr;text-orientation:mixed;dominant-baseline:auto;baseline-shift:baseline;text-anchor:start;white-space:normal;shape-padding:0;clip-rule:nonzero;display:inline;overflow:visible;visibility:visible;opacity:1;isolation:auto;mix-blend-mode:normal;color-interpolation:sRGB;color-interpolation-filters:linearRGB;solid-color:#000000;solid-opacity:1;vector-effect:none;fill:#f47d75;fill-opacity:1;fill-rule:nonzero;stroke:none;stroke-width:2.36572862;stroke-linecap:round;stroke-linejoin:bevel;stroke-miterlimit:4;stroke-dasharray:none;stroke-dashoffset:0;stroke-opacity:1;color-rendering:auto;image-rendering:auto;shape-rendering:auto;text-rendering:auto;enable-background:accumulate"
           d="m 122.51339,205.62008 c 0,0 0.75548,7.56858 0.24695,10.80957 -0.23813,1.5178 -0.97738,3.05551 -1.7531,4.70671 -0.77573,1.65122 -1.59001,3.42772 -1.74006,5.47039 -0.1622,2.20808 0.6002,4.19311 1.22579,6.0132 0.62559,1.8201 1.11196,3.4533 0.8688,4.94064 -0.0372,0.22773 -0.42733,1.05448 -0.83212,1.67567 -0.40478,0.6212 -0.7857,1.09701 -0.7857,1.09701 -0.40862,0.51034 -0.32575,1.25538 0.18502,1.66345 0.51033,0.40863 1.25538,0.32576 1.66346,-0.18501 0,0 0.44764,-0.55813 0.92096,-1.28446 0.4733,-0.72637 1.01269,-1.5602 1.18015,-2.58442 0.36211,-2.21484 -0.3287,-4.24091 -0.96418,-6.08981 -0.63548,-1.84892 -1.21535,-3.5403 -1.10271,-5.07349 0.11039,-1.50214 0.75876,-3.01195 1.52164,-4.6358 0.76287,-1.62388 1.63671,-3.35452 1.94952,-5.34814 0.61854,-3.94218 -0.22495,-10.99376 -0.22495,-10.99376 z"
           id="path889-3"
           sodipodi:nodetypes="ccccsccccccccccccc" />
        <ellipse
           style="fill:#f5a294;fill-opacity:1;stroke:none;stroke-width:0.93992311"
           id="path845-3-5-8"
           cx="129.08009"
           cy="253.79889"
           rx="7.9731841"
           ry="11.624458" />
        <path
           style="fill:#d9806e;fill-opacity:1;stroke:none;stroke-width:0.41728824px;stroke-linecap:butt;stroke-linejoin:miter;stroke-opacity:1"
           d="m 134.6148,257.07758 c -0.29618,-0.49792 -0.28201,-1.13046 -0.5216,-1.65798 -0.17747,-0.39075 -0.48817,-0.71064 -0.67063,-1.09909 -0.81765,-1.74055 -0.6015,-4.01334 -1.87196,-5.45695 -0.43684,-0.49638 -1.26849,-0.45705 -1.77933,-0.87689 -0.82135,-0.67502 -1.04819,-1.95081 -1.93741,-2.53354 -0.71376,-0.46775 -1.80593,-0.0978 -2.48535,-0.6142 -0.57557,-0.43742 -1.21439,-1.18191 -1.06506,-1.88924 0.31266,-1.4809 2.12921,-2.60258 3.63848,-2.71641 1.6254,-0.12255 3.10619,1.20887 4.31288,2.30469 1.17207,1.06438 1.75006,2.63891 2.63066,3.95464 0.6002,0.89676 1.45845,1.66438 1.80819,2.6852 0.73037,2.13176 0.33699,4.49454 0.45604,6.74479 0.0516,0.97425 0.46783,2.01641 0.11182,2.92474 -0.0801,0.20441 -0.24618,0.46759 -0.46572,0.46573 -1.03636,-0.009 -1.63111,-1.34476 -2.16095,-2.23549 z"
           id="path892-7-3-3"
           inkscape:connector-curvature="0"
           sodipodi:nodetypes="aaaaaaaaaaaaaaaa" />
        <path
           inkscape:connector-curvature="0"
           style="color:#000000;font-style:normal;font-variant:normal;font-weight:normal;font-stretch:normal;font-size:medium;line-height:normal;font-family:sans-serif;font-variant-ligatures:normal;font-variant-position:normal;font-variant-caps:normal;font-variant-numeric:normal;font-variant-alternates:normal;font-feature-settings:normal;text-indent:0;text-align:start;text-decoration:none;text-decoration-line:none;text-decoration-style:solid;text-decoration-color:#000000;letter-spacing:normal;word-spacing:normal;text-transform:none;writing-mode:lr-tb;direction:ltr;text-orientation:mixed;dominant-baseline:auto;baseline-shift:baseline;text-anchor:start;white-space:normal;shape-padding:0;clip-rule:nonzero;display:inline;overflow:visible;visibility:visible;opacity:1;isolation:auto;mix-blend-mode:normal;color-interpolation:sRGB;color-interpolation-filters:linearRGB;solid-color:#000000;solid-opacity:1;vector-effect:none;fill:#f47d75;fill-opacity:1;fill-rule:nonzero;stroke:none;stroke-width:2.36572862;stroke-linecap:round;stroke-linejoin:bevel;stroke-miterlimit:4;stroke-dasharray:none;stroke-dashoffset:0;stroke-opacity:1;color-rendering:auto;image-rendering:auto;shape-rendering:auto;text-rendering:auto;enable-background:accumulate"
           d="m 135.55584,209.36868 c 0,0 0.75548,7.56858 0.24695,10.80957 -0.23813,1.5178 -0.97738,3.05551 -1.7531,4.70671 -0.77573,1.65122 -1.59001,3.42772 -1.74006,5.47039 -0.1622,2.20808 0.6002,4.19312 1.22578,6.0132 0.6256,1.8201 1.11197,3.45331 0.86881,4.94064 -0.0372,0.22773 -0.42733,1.05449 -0.83212,1.67567 -0.40478,0.6212 -0.7857,1.09701 -0.7857,1.09701 -0.40862,0.51034 -0.32575,1.25538 0.18502,1.66346 0.51033,0.40863 1.25538,0.32576 1.66346,-0.18502 0,0 0.44764,-0.55812 0.92096,-1.28445 0.4733,-0.72637 1.01269,-1.5602 1.18015,-2.58443 0.36211,-2.21484 -0.3287,-4.24091 -0.96418,-6.0898 -0.63548,-1.84892 -1.21535,-3.54031 -1.10271,-5.0735 0.11039,-1.50214 0.75875,-3.01195 1.52163,-4.6358 0.76288,-1.62388 1.63671,-3.35452 1.94953,-5.34814 0.61854,-3.94218 -0.22495,-10.99376 -0.22495,-10.99376 z"
           id="path889-3-7"
           sodipodi:nodetypes="ccccsccccccccccccc" />
        <ellipse
           style="opacity:1;fill:url(#radialGradient6942);fill-opacity:1;stroke:none;stroke-width:0.28975886;stroke-linecap:round;stroke-miterlimit:4;stroke-dasharray:none;stroke-opacity:1"
           id="path6932"
           cx="110.76787"
           cy="248.17526"
           rx="1.4889863"
           ry="4.2287207" />
        <ellipse
           style="opacity:1;fill:url(#radialGradient6942-9);fill-opacity:1;stroke:none;stroke-width:0.28975886;stroke-linecap:round;stroke-miterlimit:4;stroke-dasharray:none;stroke-opacity:1"
           id="path6932-8"
           cx="124.88347"
           cy="250.85545"
           rx="1.4889863"
           ry="4.2287207" />
      </g>
    </g>
  </g>
</svg>
