<?xml version="1.0" encoding="UTF-8" standalone="no"?>
<!-- Created with Inkscape (http://www.inkscape.org/) -->

<svg
   xmlns:dc="http://purl.org/dc/elements/1.1/"
   xmlns:cc="http://creativecommons.org/ns#"
   xmlns:rdf="http://www.w3.org/1999/02/22-rdf-syntax-ns#"
   xmlns:svg="http://www.w3.org/2000/svg"
   xmlns="http://www.w3.org/2000/svg"
   xmlns:sodipodi="http://sodipodi.sourceforge.net/DTD/sodipodi-0.dtd"
   xmlns:inkscape="http://www.inkscape.org/namespaces/inkscape"
   width="137.05417mm"
   height="195.79167mm"
   viewBox="0 0 137.05417 195.79167"
   version="1.1"
   id="svg8"
   inkscape:version="0.92+devel unknown"
   sodipodi:docname="uretra.svg"
   inkscape:export-filename="/home/fundacion/Documentos/fundecyt_02/conozco_mi_cuerpo/conozco-mi-cuerpo/img/masculino/uretra.png"
   inkscape:export-xdpi="96"
   inkscape:export-ydpi="96">
  <defs
     id="defs2" />
  <sodipodi:namedview
     id="base"
     pagecolor="#ffffff"
     bordercolor="#666666"
     borderopacity="1.0"
     inkscape:pageopacity="0.0"
     inkscape:pageshadow="2"
     inkscape:zoom="0.35983528"
     inkscape:cx="-133.11327"
     inkscape:cy="223.77252"
     inkscape:document-units="mm"
     inkscape:current-layer="layer1"
     inkscape:document-rotation="0"
     showgrid="false"
     inkscape:window-width="1920"
     inkscape:window-height="1012"
     inkscape:window-x="0"
     inkscape:window-y="32"
     inkscape:window-maximized="1"
     fit-margin-top="0"
     fit-margin-left="0"
     fit-margin-right="0"
     fit-margin-bottom="0" />
  <metadata
     id="metadata5">
    <rdf:RDF>
      <cc:Work
         rdf:about="">
        <dc:format>image/svg+xml</dc:format>
        <dc:type
           rdf:resource="http://purl.org/dc/dcmitype/StillImage" />
        <dc:title></dc:title>
      </cc:Work>
    </rdf:RDF>
  </metadata>
  <g
     inkscape:label="Capa 1"
     inkscape:groupmode="layer"
     id="layer1"
     transform="translate(-205.18654,-213.38737)">
    <g
       id="g4482"
       transform="translate(185.08102,77.849009)">
      <path
         sodipodi:nodetypes="asacasa"
         inkscape:connector-curvature="0"
         id="path38"
         d="m 52.209749,199.92496 c 7.784668,0.0311 19.219967,6.9245 18.450326,14.31793 -0.33225,3.19177 -2.076182,6.49154 -4.349917,8.87622 -3.702536,3.88323 -14.100409,7.76352 -14.100409,7.76352 0,0 -10.200541,-3.982 -13.941153,-7.76352 -2.367423,-2.39331 -4.747229,-5.39593 -4.817265,-8.87622 -0.160266,-7.9647 10.892374,-14.34941 18.758418,-14.31793 z"
         style="fill:#fbccbc;fill-opacity:1;stroke:none;stroke-width:0.33339033px;stroke-linecap:butt;stroke-linejoin:miter;stroke-opacity:1" />
      <ellipse
         ry="9.287302"
         rx="6.3701363"
         cy="278.15262"
         cx="67.54641"
         id="path845-3"
         style="fill:#f5a294;fill-opacity:1;stroke:none;stroke-width:0.75094694" />
      <ellipse
         ry="9.287302"
         rx="6.3701363"
         cy="278.15262"
         cx="36.529186"
         id="path845"
         style="fill:#f5a294;fill-opacity:1;stroke:none;stroke-width:0.75094694;stroke-opacity:1" />
      <path
         id="path889"
         d="m 30.015043,200.49857 c -1.045223,-0.0206 -2.11535,0.11202 -3.140506,0.38353 -2.050305,0.54301 -3.96384,1.65364 -5.054901,3.41595 -2.642843,4.26883 -1.685001,9.15059 0.0076,13.90537 1.692172,4.75478 4.13375,9.55789 4.917506,13.86761 0.913187,5.02149 2.254073,9.9016 2.633264,14.81308 0.205479,2.66132 -0.6739,5.63381 -0.179723,8.7834 0.249922,1.59277 0.948073,2.97549 1.557558,4.27287 0.609501,1.29738 1.127555,2.50363 1.215707,3.70376 0.08996,1.22493 -0.373291,2.57624 -0.88101,4.05341 -0.507711,1.47717 -1.062214,3.09589 -0.772921,4.86544 0.133798,0.8183 0.567332,1.48447 0.945474,2.0648 0.378156,0.58031 0.735797,1.02621 0.735797,1.02621 a 0.9450435,0.9450435 0 0 0 1.326399,0.14781 0.9450435,0.9450435 0 0 0 0.147824,-1.329 c 0,0 -0.30431,-0.38017 -0.627711,-0.87646 -0.323393,-0.49629 -0.632474,-1.15683 -0.66223,-1.33876 -0.194271,-1.18829 0.194315,-2.49314 0.694129,-3.94729 0.499807,-1.45415 1.108926,-3.04009 0.979334,-4.80422 -0.119831,-1.63197 -0.770449,-3.0513 -1.390212,-4.37053 -0.619761,-1.31922 -1.210376,-2.54777 -1.400632,-3.7604 -0.40629,-2.58939 0.436412,-5.50557 0.194697,-8.63626 -0.39785,-5.15322 -1.765043,-10.09684 -2.658008,-15.00711 -0.860743,-4.73308 -3.362221,-9.57703 -4.9937,-14.16128 -1.631478,-4.58426 -2.376935,-8.73229 -0.18166,-12.27814 0.746094,-1.20512 2.226761,-2.13204 3.932314,-2.58377 1.705552,-0.45172 3.600391,-0.41469 5.00606,0.10093 4.930305,1.80846 9.822555,8.8591 13.267239,15.52674 3.444723,6.66763 5.545222,12.85115 5.545222,12.85115 a 0.9450435,0.9450435 0 0 0 0.0066,0.015 0.9450435,0.9450435 0 0 0 0.01952,0.0501 0.9450435,0.9450435 0 0 0 0.02017,0.045 0.9450435,0.9450435 0 0 0 0.01952,0.0371 0.9450435,0.9450435 0 0 0 0.02407,0.0417 0.9450435,0.9450435 0 0 0 0.02549,0.0397 0.9450435,0.9450435 0 0 0 0.03059,0.0423 0.9450435,0.9450435 0 0 0 0.02469,0.0306 0.9450435,0.9450435 0 0 0 0.03518,0.0397 0.9450435,0.9450435 0 0 0 0.03252,0.0333 0.9450435,0.9450435 0 0 0 0.03325,0.0306 0.9450435,0.9450435 0 0 0 0.03707,0.0307 0.9450435,0.9450435 0 0 0 0.03715,0.0286 0.9450435,0.9450435 0 0 0 0.03846,0.0255 0.9450435,0.9450435 0 0 0 0.045,0.0274 0.9450435,0.9450435 0 0 0 0.03905,0.0208 0.9450435,0.9450435 0 0 0 0.0378,0.0183 0.9450435,0.9450435 0 0 0 0.06966,0.0294 0.9450435,0.9450435 0 0 0 0.0022,7.2e-4 0.9450435,0.9450435 0 0 0 7.28e-4,0 0.9450435,0.9450435 0 0 0 0.013,0.005 0.9450435,0.9450435 0 0 0 0.05013,0.0144 0.9450435,0.9450435 0 0 0 0.0339,0.009 0.9450435,0.9450435 0 0 0 0.04294,0.009 0.9450435,0.9450435 0 0 0 0.04954,0.009 0.9450435,0.9450435 0 0 0 0.05277,0.005 0.9450435,0.9450435 0 0 0 0.03971,0.004 0.9450435,0.9450435 0 0 0 0.06378,-7.3e-4 0.9450435,0.9450435 0 0 0 0.02866,-7.2e-4 0.9450435,0.9450435 0 0 0 0.05277,-0.005 0.9450435,0.9450435 0 0 0 0.0469,-0.007 0.9450435,0.9450435 0 0 0 0.03186,-0.007 0.9450435,0.9450435 0 0 0 0.06247,-0.0144 0.9450435,0.9450435 0 0 0 0.0022,-7.3e-4 0.9450435,0.9450435 0 0 0 0.0051,-0.002 0.9450435,0.9450435 0 0 0 0.04426,-0.013 0.9450435,0.9450435 0 0 0 0.0228,-0.009 0.9450435,0.9450435 0 0 0 0.03905,-0.0156 0.9450435,0.9450435 0 0 0 0.04815,-0.0215 0.9450435,0.9450435 0 0 0 0.03715,-0.0195 0.9450435,0.9450435 0 0 0 0.0417,-0.024 0.9450435,0.9450435 0 0 0 0.03971,-0.0255 0.9450435,0.9450435 0 0 0 0.04235,-0.0307 0.9450435,0.9450435 0 0 0 0.03059,-0.0247 0.9450435,0.9450435 0 0 0 0.03971,-0.0352 0.9450435,0.9450435 0 0 0 0.03325,-0.0326 0.9450435,0.9450435 0 0 0 0.03186,-0.0351 0.9450435,0.9450435 0 0 0 0.02603,-0.0307 0.9450435,0.9450435 0 0 0 0.03453,-0.0457 0.9450435,0.9450435 0 0 0 0.0228,-0.0339 0.9450435,0.9450435 0 0 0 0.02549,-0.0424 0.9450435,0.9450435 0 0 0 0.0228,-0.0417 0.9450435,0.9450435 0 0 0 0.01952,-0.0412 0.9450435,0.9450435 0 0 0 0.0208,-0.0495 0.9450435,0.9450435 0 0 0 0.01129,-0.03 0.9450435,0.9450435 0 0 0 0.0014,-0.004 c 0,0 2.103124,-6.18354 5.547827,-12.85117 3.4447,-6.66765 8.334327,-13.71827 13.264635,-15.52674 1.405682,-0.5156 3.303113,-0.55263 5.008666,-0.10092 1.705553,0.45172 3.18622,1.37865 3.932317,2.58377 2.195271,3.54585 1.449826,7.69387 -0.181663,12.27814 -1.631482,4.58425 -4.135562,9.42821 -4.996306,14.16128 -0.89297,4.91028 -2.260162,9.8539 -2.658009,15.00711 -0.241718,3.13068 0.603593,6.04689 0.197301,8.63626 -0.190255,1.21263 -0.780868,2.44118 -1.40063,3.76039 -0.619762,1.31924 -1.270332,2.73857 -1.390212,4.37056 -0.129592,1.76413 0.47953,3.35005 0.979336,4.8042 0.499812,1.45415 0.888398,2.75899 0.694127,3.94728 -0.02972,0.18195 -0.341412,0.84249 -0.66482,1.33877 -0.323396,0.49631 -0.627729,0.87646 -0.627729,0.87646 a 0.9450435,0.9450435 0 0 0 0.147818,1.329 0.9450435,0.9450435 0 0 0 1.329014,-0.14781 c 0,0 0.357643,-0.44591 0.735795,-1.02621 0.378142,-0.58033 0.809084,-1.24651 0.942878,-2.06481 0.289308,-1.76954 -0.262614,-3.38826 -0.770325,-4.86542 -0.507713,-1.47717 -0.971004,-2.8285 -0.881003,-4.05343 0.08819,-1.20013 0.6062,-2.40637 1.215699,-3.70375 0.609493,-1.29739 1.307641,-2.68008 1.55756,-4.27287 0.494179,-3.14958 -0.385203,-6.1221 -0.179722,-8.78341 0.379187,-4.91146 1.720075,-9.79158 2.63327,-14.81307 0.783756,-4.30973 3.225328,-9.11283 4.917497,-13.86761 1.692159,-4.75477 2.650012,-9.63654 0.0075,-13.90536 -1.091064,-1.76232 -3.007196,-2.87294 -5.057507,-3.41596 -1.025158,-0.27152 -2.092675,-0.40404 -3.137902,-0.38353 -1.045212,0.0206 -2.066995,0.1934 -3.002465,0.53654 -5.974585,2.19164 -10.773572,9.62197 -14.293107,16.43446 -2.177319,4.21428 -3.822293,8.22292 -4.763168,10.67414 -0.940544,-2.45118 -2.584331,-6.45993 -4.761609,-10.6743 -3.519527,-6.81249 -8.318501,-14.24282 -14.293451,-16.43446 -0.935471,-0.34314 -1.95725,-0.51604 -3.002466,-0.53654 z"
         style="color:#000000;font-style:normal;font-variant:normal;font-weight:normal;font-stretch:normal;font-size:medium;line-height:normal;font-family:sans-serif;font-variant-ligatures:normal;font-variant-position:normal;font-variant-caps:normal;font-variant-numeric:normal;font-variant-alternates:normal;font-feature-settings:normal;text-indent:0;text-align:start;text-decoration:none;text-decoration-line:none;text-decoration-style:solid;text-decoration-color:#000000;letter-spacing:normal;word-spacing:normal;text-transform:none;writing-mode:lr-tb;direction:ltr;text-orientation:mixed;dominant-baseline:auto;baseline-shift:baseline;text-anchor:start;white-space:normal;shape-padding:0;clip-rule:nonzero;display:inline;overflow:visible;visibility:visible;opacity:1;isolation:auto;mix-blend-mode:normal;color-interpolation:sRGB;color-interpolation-filters:linearRGB;solid-color:#000000;solid-opacity:1;vector-effect:none;fill:#f47d75;fill-opacity:1;fill-rule:nonzero;stroke:none;stroke-width:1.89008725;stroke-linecap:round;stroke-linejoin:bevel;stroke-miterlimit:4;stroke-dasharray:none;stroke-dashoffset:0;stroke-opacity:1;color-rendering:auto;image-rendering:auto;shape-rendering:auto;text-rendering:auto;enable-background:accumulate"
         inkscape:connector-curvature="0" />
      <path
         sodipodi:nodetypes="aaaaaaaaaaaaaaaa"
         inkscape:connector-curvature="0"
         id="path892-7"
         d="m 71.968339,280.7721 c -0.236639,-0.3978 -0.225321,-0.90317 -0.416733,-1.32463 -0.141795,-0.31219 -0.390021,-0.56776 -0.535803,-0.87812 -0.653255,-1.3906 -0.480564,-3.20643 -1.495587,-4.3598 -0.349012,-0.39657 -1.013457,-0.36515 -1.421588,-0.70058 -0.656214,-0.5393 -0.837449,-1.5586 -1.547883,-2.02416 -0.570257,-0.37371 -1.442841,-0.0782 -1.985659,-0.49071 -0.459849,-0.34948 -0.97023,-0.94428 -0.85093,-1.5094 0.249803,-1.18315 1.701125,-2.07932 2.906952,-2.17026 1.298602,-0.0979 2.481673,0.96581 3.445753,1.84132 0.936414,0.85038 1.398201,2.10834 2.101754,3.15953 0.479525,0.71648 1.165216,1.32975 1.444642,2.14533 0.583521,1.70316 0.269239,3.59089 0.364348,5.38872 0.04119,0.77838 0.373779,1.611 0.08934,2.33671 -0.064,0.16331 -0.196682,0.37357 -0.372078,0.37209 -0.827999,-0.008 -1.303169,-1.07439 -1.726482,-1.78604 z"
         style="fill:#d9806e;fill-opacity:1;stroke:none;stroke-width:0.33339033px;stroke-linecap:butt;stroke-linejoin:miter;stroke-opacity:1" />
      <path
         sodipodi:nodetypes="aaaaaaaaaaaaaaaa"
         inkscape:connector-curvature="0"
         id="path892"
         d="m 32.123657,280.7721 c 0.236643,-0.3978 0.225325,-0.90317 0.41674,-1.32463 0.141799,-0.31219 0.390017,-0.56776 0.535801,-0.87812 0.653254,-1.3906 0.480562,-3.20643 1.49559,-4.3598 0.349009,-0.39657 1.013449,-0.36515 1.421588,-0.70058 0.656211,-0.5393 0.837447,-1.5586 1.547878,-2.02416 0.570261,-0.37371 1.442844,-0.0782 1.985663,-0.49071 0.459841,-0.34948 0.970232,-0.94428 0.85093,-1.5094 -0.249804,-1.18315 -1.701127,-2.07932 -2.906953,-2.17026 -1.298602,-0.0979 -2.481675,0.96581 -3.445756,1.84132 -0.93641,0.85038 -1.398196,2.10834 -2.10175,3.15953 -0.479527,0.71648 -1.165215,1.32975 -1.444643,2.14533 -0.583525,1.70316 -0.26924,3.59089 -0.364349,5.38872 -0.04118,0.77838 -0.373782,1.611 -0.08934,2.33671 0.064,0.16331 0.196686,0.37357 0.372086,0.37209 0.827994,-0.008 1.303168,-1.07439 1.726479,-1.78604 z"
         style="fill:#d9806e;fill-opacity:1;stroke:none;stroke-width:0.33339033px;stroke-linecap:butt;stroke-linejoin:miter;stroke-opacity:1" />
      <path
         sodipodi:nodetypes="cccc"
         inkscape:connector-curvature="0"
         id="path953"
         d="m 52.073311,254.29729 c 0,0 -3.258056,-6.32215 -2.652105,-8.9982 1.595218,0.46014 2.620528,1.25237 2.620528,1.25237 z"
         style="fill:#d06560;fill-opacity:1;stroke:none;stroke-width:0.33339033px;stroke-linecap:butt;stroke-linejoin:miter;stroke-opacity:1" />
      <path
         sodipodi:nodetypes="cccc"
         inkscape:connector-curvature="0"
         id="path953-3"
         d="m 52.073311,254.29729 c 0,0 3.258058,-6.32215 2.65211,-8.9982 -1.595222,0.46014 -2.620533,1.25237 -2.620533,1.25237 z"
         style="fill:#d06560;fill-opacity:1;stroke:none;stroke-width:0.33339033px;stroke-linecap:butt;stroke-linejoin:miter;stroke-opacity:1" />
      <circle
         r="0.98914564"
         cy="245.06992"
         cx="55.314709"
         id="path978"
         style="fill:#e99c8a;fill-opacity:1;stroke:none;stroke-width:0.33748055;stroke-linecap:round;stroke-linejoin:bevel;stroke-miterlimit:4;stroke-dasharray:none;stroke-opacity:1" />
      <circle
         r="0.98914564"
         cy="245.06992"
         cx="48.831905"
         id="path978-5"
         style="fill:#e99c8a;fill-opacity:1;stroke:none;stroke-width:0.33748055;stroke-linecap:round;stroke-linejoin:bevel;stroke-miterlimit:4;stroke-dasharray:none;stroke-opacity:1" />
      <path
         inkscape:connector-curvature="0"
         id="path1108"
         d="m 43.220488,246.81769 c -0.04433,0.004 -0.08884,0.01 -0.133489,0.0202 -0.419832,1.24942 -0.01931,2.72356 0.273482,4.04171 0.469118,2.1118 1.85742,3.94352 2.344801,6.05117 2.688762,11.62741 -1.504117,24.63514 3.031121,35.67406 0.660185,1.60691 3.337145,4.00329 3.337145,4.00329 0,0 2.676985,-2.39638 3.337165,-4.00329 4.535241,-11.03892 0.341705,-24.04665 3.030467,-35.67406 0.487373,-2.10765 1.876338,-3.93937 2.345457,-6.05117 0.292817,-1.31815 0.692648,-2.79229 0.272828,-4.04171 -1.430153,-0.32329 -2.682488,2.98027 -3.809903,4.63101 -1.993433,2.91871 -5.176014,9.25418 -5.176014,9.25418 0,0 -3.182575,-6.33547 -5.17601,-9.25418 -1.092184,-1.59915 -2.302304,-4.74978 -3.67705,-4.6512 z"
         style="fill:#b56b6a;fill-opacity:1;stroke:none;stroke-width:0.33339033;stroke-linecap:round;stroke-linejoin:bevel;stroke-miterlimit:4;stroke-dasharray:none;stroke-opacity:1" />
      <path
         inkscape:connector-curvature="0"
         id="path1130"
         d="m 51.100484,246.50449 c -0.929629,-0.005 -2.255811,0.10873 -2.718565,0.7397 -1.410154,1.9227 0.657723,4.72581 0.853659,7.10213 0.357287,4.33323 0.589272,8.68292 0.585389,13.03088 -0.0051,5.10562 -0.629451,10.19523 -0.714965,15.30015 -0.03971,2.36611 0.92971,5.09481 0.520921,7.60155 -0.08568,0.52582 -0.110193,1.29348 -0.610132,1.47747 -0.816262,0.30038 -1.610148,-1.69166 -2.321364,-1.19096 -1.17011,0.82375 0.04324,5.29097 1.250218,7.53124 0.432934,0.80356 1.096141,1.87411 2.008811,1.86034 0.99038,-0.015 2.118844,-2.0837 2.118844,-2.0837 0,0 1.127824,2.0687 2.118207,2.0837 0.912671,0.0138 1.576525,-1.05678 2.009452,-1.86034 1.207,-2.24027 2.420333,-6.70749 1.250216,-7.53124 -0.711207,-0.5007 -1.505747,1.49134 -2.322008,1.19096 -0.499941,-0.18399 -0.524449,-0.95165 -0.610133,-1.47747 -0.408787,-2.50674 0.560614,-5.23544 0.520919,-7.60155 -0.08551,-5.10492 -0.70927,-10.19453 -0.714313,-15.30015 -0.0038,-4.34796 0.22745,-8.69765 0.58474,-13.03088 0.195935,-2.37632 2.264459,-5.17943 0.854309,-7.10213 -0.740427,-1.00954 -3.691389,-0.69282 -3.691389,-0.69282 0,0 -0.415039,-0.0445 -0.972816,-0.0469 z"
         style="fill:#df7f80;fill-opacity:1;stroke:none;stroke-width:0.33339033px;stroke-linecap:butt;stroke-linejoin:miter;stroke-opacity:1" />
      <path
         sodipodi:nodetypes="ccccccaacccccccccccccaaccccccc"
         inkscape:connector-curvature="0"
         id="path934"
         d="m 51.484059,230.29022 v 61.73843 c -0.465971,0.18681 -0.795915,0.57794 -0.813945,1.04118 h -0.0022 v 0.0397 6.0199 c 0,0 -0.0075,0.19379 -0.06364,0.26476 -0.120969,0.15176 -0.330717,0.22402 -0.5217,0.25871 -0.365304,0.0662 -1.108149,-0.11239 -1.108149,-0.11239 0,0 0.806694,0.62506 1.137356,0.63011 0.18335,0.002 0.379124,-0.13217 0.556072,-0.30409 v 0.004 c 0.0038,-0.004 0.0075,-0.009 0.01005,-0.013 0.07573,-0.0746 0.144097,-0.15194 0.209672,-0.23248 0.330211,-0.31206 0.757238,-0.49426 1.20007,-0.49552 0.441681,7.2e-4 0.867879,0.18144 1.198129,0.49162 0.06893,0.0848 0.140557,0.16613 0.220732,0.24419 l 0.0022,0.002 v -0.002 c 0.176948,0.17192 0.373375,0.30716 0.55674,0.30409 0.330655,-0.005 1.220874,-0.73535 1.220874,-0.73534 0,0 -0.775948,0.26708 -1.169341,0.21774 -0.187057,-0.0235 -0.387629,-0.097 -0.513207,-0.23767 -0.06687,-0.0749 -0.09501,-0.28593 -0.09501,-0.28593 v -6.01991 -0.0397 h -0.0014 c -0.01803,-0.46334 -0.347916,-0.85442 -0.813943,-1.0412 v -61.7375 z"
         style="color:#000000;font-style:normal;font-variant:normal;font-weight:normal;font-stretch:normal;font-size:medium;line-height:normal;font-family:sans-serif;font-variant-ligatures:normal;font-variant-position:normal;font-variant-caps:normal;font-variant-numeric:normal;font-variant-alternates:normal;font-feature-settings:normal;text-indent:0;text-align:start;text-decoration:none;text-decoration-line:none;text-decoration-style:solid;text-decoration-color:#000000;letter-spacing:normal;word-spacing:normal;text-transform:none;writing-mode:lr-tb;direction:ltr;text-orientation:mixed;dominant-baseline:auto;baseline-shift:baseline;text-anchor:start;white-space:normal;shape-padding:0;clip-rule:nonzero;display:inline;overflow:visible;visibility:visible;opacity:1;isolation:auto;mix-blend-mode:normal;color-interpolation:sRGB;color-interpolation-filters:linearRGB;solid-color:#000000;solid-opacity:1;vector-effect:none;fill:#d06764;fill-opacity:1;fill-rule:nonzero;stroke:none;stroke-width:1.16108263;stroke-linecap:butt;stroke-linejoin:miter;stroke-miterlimit:4;stroke-dasharray:none;stroke-dashoffset:0;stroke-opacity:1;color-rendering:auto;image-rendering:auto;shape-rendering:auto;text-rendering:auto;enable-background:accumulate" />
      <path
         sodipodi:nodetypes="aaaaacaaazsa"
         inkscape:connector-curvature="0"
         id="path936"
         d="m 41.777452,219.05435 c 0.822673,0.47686 1.118659,1.5532 1.814836,2.20092 0.876149,0.81514 2.119916,1.19514 2.927233,2.0785 0.472194,0.5167 0.627836,1.26153 1.057084,1.81441 0.331791,0.42736 0.805276,0.72736 1.156165,1.13917 1.245412,1.46161 3.34053,4.6933 3.34053,4.6933 0,0 -4.54058,-2.04926 -6.738988,-3.21655 -0.714783,-0.37953 -1.467558,-0.71651 -2.093677,-1.22927 -0.399727,-0.32737 -0.644951,-0.81447 -1.032869,-1.15573 -0.687714,-0.60502 -1.240705,-0.44724 -2.265576,-1.55504 -1.024877,-1.1078 -3.832617,-4.28233 -2.610004,-5.53001 1.011599,-1.03236 3.14469,0.007 4.445266,0.7603 z"
         style="fill:#d56758;fill-opacity:1;stroke:none;stroke-width:0.33391532;stroke-linecap:butt;stroke-linejoin:miter;stroke-miterlimit:4;stroke-dasharray:none;stroke-opacity:1" />
      <path
         sodipodi:nodetypes="aaaaacaaazsa"
         inkscape:connector-curvature="0"
         id="path936-5"
         d="m 62.369141,219.05435 c -0.822663,0.47686 -1.118649,1.5532 -1.814835,2.20092 -0.876155,0.81514 -2.119922,1.19514 -2.927225,2.0785 -0.472195,0.5167 -0.62785,1.26153 -1.057098,1.81441 -0.331791,0.42736 -0.805268,0.72736 -1.156155,1.13917 -1.245405,1.46161 -3.340528,4.6933 -3.340528,4.6933 0,0 4.540568,-2.04926 6.738975,-3.21655 0.714787,-0.37953 1.467567,-0.71651 2.093691,-1.22927 0.399729,-0.32737 0.644929,-0.81447 1.032874,-1.15573 0.687697,-0.60502 1.240696,-0.44724 2.265566,-1.55504 1.024885,-1.1078 3.832617,-4.28233 2.610008,-5.53001 -1.011596,-1.03236 -3.14469,0.007 -4.445273,0.7603 z"
         style="fill:#d56758;fill-opacity:1;stroke:none;stroke-width:0.33391532;stroke-linecap:butt;stroke-linejoin:miter;stroke-miterlimit:4;stroke-dasharray:none;stroke-opacity:1" />
      <path
         sodipodi:nodetypes="aaaaaaa"
         inkscape:connector-curvature="0"
         id="path1148"
         d="m 52.01263,230.26193 c 2.943329,-0.009 6.992779,0.267 8.347099,2.88026 1.086228,2.09597 -0.541866,4.92407 -1.972468,6.80193 -1.51135,1.98383 -3.880692,3.91253 -6.374631,3.91692 -2.508326,0.005 -4.929284,-1.90347 -6.425173,-3.91692 -1.397222,-1.88061 -2.871092,-4.73377 -1.770334,-6.80193 1.360483,-2.55613 5.29988,-2.87201 8.195507,-2.88026 z"
         style="fill:#a15258;fill-opacity:1;stroke:none;stroke-width:0.33339033px;stroke-linecap:butt;stroke-linejoin:miter;stroke-opacity:1" />
      <path
         id="path1163"
         d="m 69.56967,190.92112 c 0,0 -0.776003,1.46797 -1.026262,2.58903 -0.557153,2.49582 -0.320902,5.01784 -0.1895,7.41022 0.131417,2.39236 0.159239,4.63942 -0.605417,6.63007 -0.242068,0.63018 -1.089517,1.75205 -1.867935,2.61363 -0.778421,0.86159 -1.471711,1.50862 -1.471711,1.50862 l 1.247754,1.34129 c 0,0 0.748181,-0.69572 1.584908,-1.62184 0.836735,-0.92612 1.776012,-2.03552 2.217424,-3.18461 0.93184,-2.42591 0.859681,-4.95442 0.725999,-7.38807 -0.133681,-2.43364 -0.325975,-4.78891 0.147662,-6.91062 0.122236,-0.54773 0.878592,-2.17311 0.878592,-2.17311 z"
         style="color:#000000;font-style:normal;font-variant:normal;font-weight:normal;font-stretch:normal;font-size:medium;line-height:normal;font-family:sans-serif;font-variant-ligatures:normal;font-variant-position:normal;font-variant-caps:normal;font-variant-numeric:normal;font-variant-alternates:normal;font-feature-settings:normal;text-indent:0;text-align:start;text-decoration:none;text-decoration-line:none;text-decoration-style:solid;text-decoration-color:#000000;letter-spacing:normal;word-spacing:normal;text-transform:none;writing-mode:lr-tb;direction:ltr;text-orientation:mixed;dominant-baseline:auto;baseline-shift:baseline;text-anchor:start;white-space:normal;shape-padding:0;clip-rule:nonzero;display:inline;overflow:visible;visibility:visible;opacity:1;isolation:auto;mix-blend-mode:normal;color-interpolation:sRGB;color-interpolation-filters:linearRGB;solid-color:#000000;solid-opacity:1;vector-effect:none;fill:#c28d65;fill-opacity:1;fill-rule:nonzero;stroke:none;stroke-width:1.83364666;stroke-linecap:butt;stroke-linejoin:miter;stroke-miterlimit:4;stroke-dasharray:none;stroke-dashoffset:0;stroke-opacity:1;color-rendering:auto;image-rendering:auto;shape-rendering:auto;text-rendering:auto;enable-background:accumulate"
         inkscape:connector-curvature="0" />
      <path
         id="path1163-7"
         d="m 34.576933,190.92112 c 0,0 0.77599,1.46797 1.026249,2.58903 0.557146,2.49581 0.320913,5.01783 0.189501,7.41021 -0.131413,2.39236 -0.159246,4.63942 0.60542,6.63006 0.242068,0.63019 1.089512,1.75206 1.867938,2.61364 0.77842,0.86158 1.471705,1.50862 1.471705,1.50862 l -1.247744,1.34128 c 0,0 -0.748187,-0.69572 -1.584915,-1.62184 -0.836742,-0.92612 -1.776015,-2.03551 -2.217411,-3.1846 -0.931866,-2.42591 -0.859687,-4.95443 -0.726006,-7.38808 0.133681,-2.43363 0.325963,-4.7889 -0.14767,-6.91061 -0.122223,-0.54772 -0.878587,-2.1731 -0.878587,-2.1731 z"
         style="color:#000000;font-style:normal;font-variant:normal;font-weight:normal;font-stretch:normal;font-size:medium;line-height:normal;font-family:sans-serif;font-variant-ligatures:normal;font-variant-position:normal;font-variant-caps:normal;font-variant-numeric:normal;font-variant-alternates:normal;font-feature-settings:normal;text-indent:0;text-align:start;text-decoration:none;text-decoration-line:none;text-decoration-style:solid;text-decoration-color:#000000;letter-spacing:normal;word-spacing:normal;text-transform:none;writing-mode:lr-tb;direction:ltr;text-orientation:mixed;dominant-baseline:auto;baseline-shift:baseline;text-anchor:start;white-space:normal;shape-padding:0;clip-rule:nonzero;display:inline;overflow:visible;visibility:visible;opacity:1;isolation:auto;mix-blend-mode:normal;color-interpolation:sRGB;color-interpolation-filters:linearRGB;solid-color:#000000;solid-opacity:1;vector-effect:none;fill:#c28d65;fill-opacity:1;fill-rule:nonzero;stroke:none;stroke-width:1.83364666;stroke-linecap:butt;stroke-linejoin:miter;stroke-miterlimit:4;stroke-dasharray:none;stroke-dashoffset:0;stroke-opacity:1;color-rendering:auto;image-rendering:auto;shape-rendering:auto;text-rendering:auto;enable-background:accumulate"
         inkscape:connector-curvature="0" />
      <path
         sodipodi:nodetypes="cccc"
         inkscape:connector-curvature="0"
         id="path5812"
         d="m 99.143507,180.7794 -47.070196,73.51789 67.976829,8.50524 z"
         style="fill:#ffba95;fill-opacity:1;stroke:none;stroke-width:0.28975886;stroke-linecap:butt;stroke-linejoin:miter;stroke-miterlimit:4;stroke-dasharray:none;stroke-opacity:1" />
      <ellipse
         transform="rotate(90)"
         ry="34.028831"
         rx="48.179436"
         cy="-123.05841"
         cx="214.8772"
         id="path5766"
         style="opacity:1;fill:#ffccaa;fill-opacity:1;stroke:none;stroke-width:0.28975886;stroke-linecap:round;stroke-miterlimit:4;stroke-dasharray:none;stroke-opacity:1" />
      <path
         sodipodi:nodetypes="ccccccaacccccccccccccaaccccccc"
         inkscape:connector-curvature="0"
         id="path934-7"
         d="m 121.21589,180.7765 0.17329,47.17074 c -1.2036,0.48253 -2.05584,1.49283 -2.10241,2.68937 h -0.006 v 0.1026 15.5493 c 0,0 -0.0195,0.50057 -0.16437,0.68387 -0.31246,0.39201 -0.85424,0.57866 -1.34754,0.66825 -0.94358,0.17121 -2.86233,-0.2903 -2.86233,-0.2903 0,0 2.08367,1.61453 2.93777,1.62755 0.47359,0.006 0.97927,-0.34139 1.43632,-0.78547 v 0.01 c 0.01,-0.01 0.0195,-0.0228 0.0259,-0.0336 0.1956,-0.19268 0.3722,-0.39245 0.54158,-0.60046 0.85293,-0.80606 1.95593,-1.27669 3.09976,-1.27995 1.14085,0.002 2.24171,0.46867 3.09475,1.26988 0.17802,0.21903 0.36305,0.42907 0.57014,0.63071 l 0.006,0.006 v -0.005 c 0.45706,0.44407 0.96442,0.79341 1.43805,0.78547 0.85408,-0.0134 3.1535,-1.89939 3.1535,-1.89936 0,0 -2.00426,0.68986 -3.02039,0.5624 -0.48316,-0.0605 -1.00124,-0.25058 -1.3256,-0.61389 -0.17272,-0.19333 -0.24542,-0.73856 -0.24542,-0.73856 v -15.54928 -0.1026 h -0.004 c -0.0466,-1.19679 -0.89867,-2.20692 -2.1024,-2.68937 l -0.17324,-47.16837 z"
         style="color:#000000;font-style:normal;font-variant:normal;font-weight:normal;font-stretch:normal;font-size:medium;line-height:normal;font-family:sans-serif;font-variant-ligatures:normal;font-variant-position:normal;font-variant-caps:normal;font-variant-numeric:normal;font-variant-alternates:normal;font-feature-settings:normal;text-indent:0;text-align:start;text-decoration:none;text-decoration-line:none;text-decoration-style:solid;text-decoration-color:#000000;letter-spacing:normal;word-spacing:normal;text-transform:none;writing-mode:lr-tb;direction:ltr;text-orientation:mixed;dominant-baseline:auto;baseline-shift:baseline;text-anchor:start;white-space:normal;shape-padding:0;clip-rule:nonzero;display:inline;overflow:visible;visibility:visible;opacity:1;isolation:auto;mix-blend-mode:normal;color-interpolation:sRGB;color-interpolation-filters:linearRGB;solid-color:#000000;solid-opacity:1;vector-effect:none;fill:#d06764;fill-opacity:1;fill-rule:nonzero;stroke:none;stroke-width:2.9990561;stroke-linecap:butt;stroke-linejoin:miter;stroke-miterlimit:4;stroke-dasharray:none;stroke-dashoffset:0;stroke-opacity:1;color-rendering:auto;image-rendering:auto;shape-rendering:auto;text-rendering:auto;enable-background:accumulate" />
    </g>
  </g>
</svg>
