<?xml version="1.0" encoding="UTF-8" standalone="no"?>
<!-- Created with Inkscape (http://www.inkscape.org/) -->

<svg
   xmlns:dc="http://purl.org/dc/elements/1.1/"
   xmlns:cc="http://creativecommons.org/ns#"
   xmlns:rdf="http://www.w3.org/1999/02/22-rdf-syntax-ns#"
   xmlns:svg="http://www.w3.org/2000/svg"
   xmlns="http://www.w3.org/2000/svg"
   xmlns:sodipodi="http://sodipodi.sourceforge.net/DTD/sodipodi-0.dtd"
   xmlns:inkscape="http://www.inkscape.org/namespaces/inkscape"
   width="137.05417mm"
   height="126.49578mm"
   viewBox="0 0 137.05417 126.49578"
   version="1.1"
   id="svg4564"
   inkscape:version="0.92+devel unknown"
   sodipodi:docname="vesicula-seminal.svg"
   inkscape:export-filename="/home/desarrollo/Escritorio/Cmc/img/masculino/vesicula-seminal.png"
   inkscape:export-xdpi="96"
   inkscape:export-ydpi="96">
  <defs
     id="defs4558" />
  <sodipodi:namedview
     id="base"
     pagecolor="#ffffff"
     bordercolor="#666666"
     borderopacity="1.0"
     inkscape:pageopacity="0.0"
     inkscape:pageshadow="2"
     inkscape:zoom="0.61257928"
     inkscape:cx="159.14104"
     inkscape:cy="164.12232"
     inkscape:document-units="mm"
     inkscape:current-layer="layer1"
     showgrid="false"
     inkscape:window-width="1366"
     inkscape:window-height="708"
     inkscape:window-x="0"
     inkscape:window-y="32"
     inkscape:window-maximized="1"
     inkscape:document-rotation="0"
     fit-margin-top="0"
     fit-margin-left="0"
     fit-margin-right="0"
     fit-margin-bottom="0" />
  <metadata
     id="metadata4561">
    <rdf:RDF>
      <cc:Work
         rdf:about="">
        <dc:format>image/svg+xml</dc:format>
        <dc:type
           rdf:resource="http://purl.org/dc/dcmitype/StillImage" />
        <dc:title></dc:title>
      </cc:Work>
    </rdf:RDF>
  </metadata>
  <g
     inkscape:label="Capa 1"
     inkscape:groupmode="layer"
     id="layer1"
     transform="translate(80.628533,-169.74609)">
    <g
       id="g5520"
       inkscape:export-xdpi="96"
       inkscape:export-ydpi="96"
       transform="matrix(0.36157444,0,0,0.36157444,-51.475316,189.12838)">
      <ellipse
         ry="82.916977"
         rx="96.253273"
         cy="29.694227"
         cx="201.78397"
         id="path5391"
         style="opacity:1;fill:#f1bebf;fill-opacity:1;stroke:#000000;stroke-width:0.76499999;stroke-linecap:round;stroke-miterlimit:4;stroke-dasharray:none;stroke-opacity:1" />
      <path
         sodipodi:nodetypes="asacasa"
         inkscape:connector-curvature="0"
         id="path38"
         d="m 7.330992,20.966455 c 21.376755,0.08546 52.778165,19.014759 50.664725,39.317135 -0.91236,8.764638 -5.70121,17.82582 -11.9449,24.374165 -10.16719,10.663362 -38.719825,21.318685 -38.719825,21.318685 0,0 -28.010755,-10.934596 -38.282501,-21.318685 C -37.45247,78.085727 -43.987432,69.840491 -44.179753,60.28359 -44.619845,38.412489 -14.269218,20.88003 7.330992,20.966455 Z"
         style="fill:#fbccbc;fill-opacity:1;stroke:none;stroke-width:0.91549218px;stroke-linecap:butt;stroke-linejoin:miter;stroke-opacity:1" />
      <ellipse
         ry="25.502996"
         rx="17.492437"
         cy="235.78012"
         cx="49.44558"
         id="path845-3"
         style="fill:#f5a294;fill-opacity:1;stroke:none;stroke-width:2.06210542" />
      <ellipse
         ry="25.502996"
         rx="17.492437"
         cy="235.78012"
         cx="-35.727943"
         id="path845"
         style="fill:#f5a294;fill-opacity:1;stroke:none;stroke-width:2.06210542;stroke-opacity:1" />
      <path
         id="path889"
         d="m -53.615824,22.54161 c -2.870189,-0.05643 -5.808766,0.307608 -8.623851,1.053172 -5.630151,1.491126 -10.884729,4.540919 -13.88079,9.38022 -7.257265,11.722222 -4.627024,25.127588 0.02076,38.184246 4.646716,13.056664 11.351305,26.246018 13.503503,38.080562 2.507619,13.78902 6.189703,27.18987 7.230963,40.67681 0.564247,7.308 -1.850536,15.47047 -0.493522,24.11926 0.686288,4.37378 2.603417,8.17072 4.277068,11.73333 1.673694,3.56262 3.096274,6.875 3.338338,10.17056 0.247042,3.36365 -1.025056,7.07439 -2.419257,11.1307 -1.39418,4.05632 -2.916849,8.50133 -2.122451,13.36052 0.367411,2.24706 1.557901,4.07639 2.59628,5.66996 1.038421,1.59352 2.020506,2.81799 2.020506,2.81799 a 2.5950959,2.5950959 0 0 0 3.6423,0.40587 2.5950959,2.5950959 0 0 0 0.405926,-3.64943 c 0,0 -0.835639,-1.04395 -1.7237,-2.40676 -0.888039,-1.36284 -1.736778,-3.17668 -1.818489,-3.67625 -0.533469,-3.26306 0.533591,-6.84617 1.906085,-10.8393 1.372473,-3.99309 3.045116,-8.34809 2.689257,-13.1924 -0.329057,-4.48141 -2.115659,-8.3789 -3.81753,-12.00151 -1.701869,-3.62258 -3.323701,-6.99618 -3.846148,-10.32608 -1.115673,-7.11048 1.198394,-15.11834 0.534639,-23.71521 -1.092497,-14.15079 -4.846816,-27.72601 -7.298906,-41.20964 -2.363608,-12.997082 -9.232683,-26.298615 -13.712735,-38.886969 -4.480051,-12.588433 -6.52708,-23.978957 -0.498841,-33.715867 2.048781,-3.309271 6.114703,-5.8546 10.798161,-7.095057 4.683459,-1.240435 9.886702,-1.138729 13.746676,0.277157 13.538652,4.966015 26.972802,24.32712 36.431932,42.636527 9.45923,18.309357 15.227215,35.289349 15.227215,35.289349 a 2.5950959,2.5950959 0 0 0 0.0181,0.0412 2.5950959,2.5950959 0 0 0 0.0536,0.13767 2.5950959,2.5950959 0 0 0 0.0554,0.12355 2.5950959,2.5950959 0 0 0 0.0536,0.10183 2.5950959,2.5950959 0 0 0 0.0661,0.11449 2.5950959,2.5950959 0 0 0 0.07,0.10908 2.5950959,2.5950959 0 0 0 0.084,0.11629 2.5950959,2.5950959 0 0 0 0.0678,0.0841 2.5950959,2.5950959 0 0 0 0.0966,0.10908 2.5950959,2.5950959 0 0 0 0.0893,0.0914 2.5950959,2.5950959 0 0 0 0.0913,0.084 2.5950959,2.5950959 0 0 0 0.101809,0.0841 2.5950959,2.5950959 0 0 0 0.102021,0.0786 2.5950959,2.5950959 0 0 0 0.105608,0.07 2.5950959,2.5950959 0 0 0 0.123553,0.0752 2.5950959,2.5950959 0 0 0 0.107219,0.0571 2.5950959,2.5950959 0 0 0 0.103799,0.0502 2.5950959,2.5950959 0 0 0 0.19127,0.0807 2.5950959,2.5950959 0 0 0 0.006,0.002 2.5950959,2.5950959 0 0 0 0.0021,0 2.5950959,2.5950959 0 0 0 0.0357,0.0142 2.5950959,2.5950959 0 0 0 0.137649,0.0395 2.5950959,2.5950959 0 0 0 0.0931,0.0242 2.5950959,2.5950959 0 0 0 0.117912,0.0242 2.5950959,2.5950959 0 0 0 0.136049,0.0242 2.5950959,2.5950959 0 0 0 0.14492,0.0142 2.5950959,2.5950959 0 0 0 0.109029,0.0104 2.5950959,2.5950959 0 0 0 0.175152,-0.002 2.5950959,2.5950959 0 0 0 0.0787,-0.002 2.5950959,2.5950959 0 0 0 0.144918,-0.0142 2.5950959,2.5950959 0 0 0 0.12878,-0.0182 2.5950959,2.5950959 0 0 0 0.0875,-0.0181 2.5950959,2.5950959 0 0 0 0.171521,-0.0395 2.5950959,2.5950959 0 0 0 0.006,-0.002 2.5950959,2.5950959 0 0 0 0.0141,-0.006 2.5950959,2.5950959 0 0 0 0.121531,-0.0357 2.5950959,2.5950959 0 0 0 0.0626,-0.0242 2.5950959,2.5950959 0 0 0 0.10723,-0.0429 2.5950959,2.5950959 0 0 0 0.13221,-0.059 2.5950959,2.5950959 0 0 0 0.10201,-0.0536 2.5950959,2.5950959 0 0 0 0.114491,-0.0661 2.5950959,2.5950959 0 0 0 0.10904,-0.07 2.5950959,2.5950959 0 0 0 0.1163,-0.0841 2.5950959,2.5950959 0 0 0 0.084,-0.0678 2.5950959,2.5950959 0 0 0 0.109048,-0.0965 2.5950959,2.5950959 0 0 0 0.0913,-0.0896 2.5950959,2.5950959 0 0 0 0.0875,-0.0965 2.5950959,2.5950959 0 0 0 0.0715,-0.0841 2.5950959,2.5950959 0 0 0 0.0948,-0.12536 2.5950959,2.5950959 0 0 0 0.0626,-0.0931 2.5950959,2.5950959 0 0 0 0.07,-0.11631 2.5950959,2.5950959 0 0 0 0.0626,-0.11449 2.5950959,2.5950959 0 0 0 0.0536,-0.11287 2.5950959,2.5950959 0 0 0 0.0571,-0.13605 2.5950959,2.5950959 0 0 0 0.031,-0.0824 2.5950959,2.5950959 0 0 0 0.004,-0.0104 c 0,0 5.77519,-16.980013 15.234374,-35.289375 9.45917,-18.309405 22.88612,-37.670491 36.42478,-42.636527 3.86001,-1.415847 9.07037,-1.517568 13.75383,-0.277154 4.68346,1.240457 8.74938,3.785801 10.79817,7.095056 6.02823,9.736907 3.98123,21.127432 -0.49885,33.715867 -4.48006,12.588394 -11.35628,25.889919 -13.71989,38.886963 -2.4521,13.48367 -6.20642,27.05887 -7.29891,41.20964 -0.66376,8.59686 1.65747,16.60477 0.54179,23.71521 -0.52244,3.32991 -2.14427,6.7035 -3.84614,10.32608 -1.70187,3.62263 -3.48834,7.52011 -3.81753,12.00155 -0.35586,4.84432 1.31679,9.19929 2.68926,13.19238 1.37249,3.99311 2.43955,7.57621 1.90608,10.83928 -0.0816,0.49962 -0.93752,2.31345 -1.8256,3.67628 -0.88805,1.36285 -1.72375,2.40674 -1.72375,2.40674 a 2.5950959,2.5950959 0 0 0 0.40591,3.64946 2.5950959,2.5950959 0 0 0 3.64948,-0.40591 c 0,0 0.98209,-1.22447 2.0205,-2.81797 1.03838,-1.59359 2.22175,-3.42294 2.58915,-5.67 0.79444,-4.85915 -0.72114,-9.30416 -2.11532,-13.36045 -1.39418,-4.05633 -2.66638,-7.76707 -2.41924,-11.13075 0.24219,-3.29556 1.66463,-6.60793 3.33832,-10.17053 1.67367,-3.56264 3.59079,-7.35951 4.27707,-11.73333 1.35702,-8.64878 -1.05777,-16.81133 -0.49352,-24.1193 1.04125,-13.48691 4.72334,-26.88774 7.23098,-40.67681 2.1522,-11.834544 8.85677,-25.023885 13.50348,-38.080546 4.64668,-13.056639 7.27695,-26.462005 0.0207,-38.184227 -2.99607,-4.839319 -8.25778,-7.889094 -13.88795,-9.380241 -2.81509,-0.745583 -5.7465,-1.109487 -8.6167,-1.053153 -2.87016,0.05643 -5.67598,0.531093 -8.24479,1.473351 C 42.881667,30.0316 29.703617,50.435341 20.038947,69.142488 14.060026,80.714702 9.542917,91.722458 6.959266,98.453536 4.376528,91.722585 -0.13732195,80.714524 -6.116141,69.141816 -15.780904,50.434883 -28.958919,30.031145 -45.366173,24.012903 c -2.568806,-0.942258 -5.374622,-1.417056 -8.244793,-1.47335 z"
         style="color:#000000;font-style:normal;font-variant:normal;font-weight:normal;font-stretch:normal;font-size:medium;line-height:normal;font-family:sans-serif;font-variant-ligatures:normal;font-variant-position:normal;font-variant-caps:normal;font-variant-numeric:normal;font-variant-alternates:normal;font-feature-settings:normal;text-indent:0;text-align:start;text-decoration:none;text-decoration-line:none;text-decoration-style:solid;text-decoration-color:#000000;letter-spacing:normal;word-spacing:normal;text-transform:none;writing-mode:lr-tb;direction:ltr;text-orientation:mixed;dominant-baseline:auto;baseline-shift:baseline;text-anchor:start;white-space:normal;shape-padding:0;clip-rule:nonzero;display:inline;overflow:visible;visibility:visible;opacity:1;isolation:auto;mix-blend-mode:normal;color-interpolation:sRGB;color-interpolation-filters:linearRGB;solid-color:#000000;solid-opacity:1;vector-effect:none;fill:#f47d75;fill-opacity:1;fill-rule:nonzero;stroke:none;stroke-width:5.19019222;stroke-linecap:round;stroke-linejoin:bevel;stroke-miterlimit:4;stroke-dasharray:none;stroke-dashoffset:0;stroke-opacity:1;color-rendering:auto;image-rendering:auto;shape-rendering:auto;text-rendering:auto;enable-background:accumulate"
         inkscape:connector-curvature="0" />
      <path
         sodipodi:nodetypes="aaaaaaaaaaaaaaaa"
         inkscape:connector-curvature="0"
         id="path892-7"
         d="m 61.588217,242.97329 c -0.64981,-1.09239 -0.61873,-2.48014 -1.14435,-3.63746 -0.38937,-0.85728 -1.071,-1.55908 -1.47132,-2.4113 -1.79384,-3.81862 -1.31963,-8.8049 -4.10689,-11.97206 -0.95839,-1.08901 -2.78296,-1.00272 -3.90369,-1.9238 -1.80197,-1.48094 -2.29964,-4.27991 -4.2505,-5.55836 -1.56593,-1.02621 -3.96205,-0.21454 -5.45263,-1.3475 -1.26275,-0.95967 -2.66426,-2.593 -2.33666,-4.14483 0.68596,-3.24894 4.6713,-5.70982 7.98251,-5.95955 3.56597,-0.26885 6.81469,2.65215 9.46206,5.05629 2.5714,2.33514 3.83947,5.78952 5.77143,8.6761 1.31678,1.96743 3.19969,3.65151 3.967,5.8911 1.60235,4.67688 0.73933,9.8606 1.0005,14.79745 0.11311,2.13742 1.0264,4.42382 0.24532,6.41661 -0.17576,0.44845 -0.54009,1.02584 -1.02173,1.02176 -2.27369,-0.0207 -3.57851,-2.95027 -4.74093,-4.90445 z"
         style="fill:#d9806e;fill-opacity:1;stroke:none;stroke-width:0.91549218px;stroke-linecap:butt;stroke-linejoin:miter;stroke-opacity:1" />
      <path
         sodipodi:nodetypes="aaaaaaaaaaaaaaaa"
         inkscape:connector-curvature="0"
         id="path892"
         d="m -47.825557,242.97329 c 0.649827,-1.09239 0.618746,-2.48014 1.144375,-3.63746 0.38938,-0.85728 1.070989,-1.55908 1.471314,-2.4113 1.79384,-3.81862 1.319625,-8.8049 4.106897,-11.97206 0.958384,-1.08901 2.78294,-1.00272 3.903691,-1.9238 1.801961,-1.48094 2.299634,-4.27991 4.250484,-5.55836 1.565942,-1.02621 3.962061,-0.21454 5.452644,-1.3475 1.262727,-0.95967 2.664265,-2.593 2.33666,-4.14483 -0.685964,-3.24894 -4.671303,-5.70982 -7.982513,-5.95955 -3.56597,-0.26885 -6.814696,2.65215 -9.462069,5.05629 -2.571388,2.33514 -3.839456,5.78952 -5.77142,8.6761 -1.316784,1.96743 -3.199688,3.65151 -3.966998,5.8911 -1.602365,4.67688 -0.739336,9.8606 -1.000506,14.79745 -0.113075,2.13742 -1.026409,4.42382 -0.245333,6.41661 0.175752,0.44845 0.540102,1.02584 1.021752,1.02176 2.273676,-0.0207 3.578506,-2.95027 4.740921,-4.90445 z"
         style="fill:#d9806e;fill-opacity:1;stroke:none;stroke-width:0.91549218px;stroke-linecap:butt;stroke-linejoin:miter;stroke-opacity:1" />
      <path
         sodipodi:nodetypes="cccc"
         inkscape:connector-curvature="0"
         id="path953"
         d="m 6.956334,170.27326 c 0,0 -8.946644,-17.36067 -7.28270095,-24.70912 4.38047895,1.26357 7.19598895,3.43902 7.19598895,3.43902 z"
         style="fill:#d06560;fill-opacity:1;stroke:none;stroke-width:0.91549218px;stroke-linecap:butt;stroke-linejoin:miter;stroke-opacity:1" />
      <path
         sodipodi:nodetypes="cccc"
         inkscape:connector-curvature="0"
         id="path953-3"
         d="m 6.956334,170.27326 c 0,0 8.94665,-17.36067 7.28271,-24.70912 -4.38049,1.26357 -7.196,3.43902 -7.196,3.43902 z"
         style="fill:#d06560;fill-opacity:1;stroke:none;stroke-width:0.91549218px;stroke-linecap:butt;stroke-linejoin:miter;stroke-opacity:1" />
      <circle
         r="2.7162006"
         cy="144.93483"
         cx="15.857238"
         id="path978"
         style="fill:#e99c8a;fill-opacity:1;stroke:none;stroke-width:0.92672384;stroke-linecap:round;stroke-linejoin:bevel;stroke-miterlimit:4;stroke-dasharray:none;stroke-opacity:1" />
      <circle
         r="2.7162006"
         cy="144.93483"
         cx="-1.9445959"
         id="path978-5"
         style="fill:#e99c8a;fill-opacity:1;stroke:none;stroke-width:0.92672384;stroke-linecap:round;stroke-linejoin:bevel;stroke-miterlimit:4;stroke-dasharray:none;stroke-opacity:1" />
      <path
         inkscape:connector-curvature="0"
         id="path1108"
         d="m -17.35358,149.73423 c -0.121737,0.0104 -0.24394,0.0276 -0.366564,0.0554 -1.152861,3.43091 -0.05301,7.47889 0.750985,11.09856 1.288204,5.79901 5.10049,10.82892 6.438842,16.61653 7.383357,31.92895 -4.130318,67.64828 8.32348,97.96123 1.81286905,4.41259 9.16382,10.99307 9.16382,10.99307 0,0 7.351019,-6.58048 9.16388,-10.99307 12.453804,-30.31295 0.938321,-66.03228 8.321684,-97.96123 1.33833,-5.78761 5.15244,-10.81752 6.44063,-16.61653 0.80409,-3.61967 1.90203,-7.66765 0.7492,-11.09856 -3.92721,-0.88777 -7.36613,8.18385 -10.46202,12.71677 -5.473983,8.01481 -14.213374,25.41203 -14.213374,25.41203 0,0 -8.73937,-17.39722 -14.213359,-25.41203 -2.999145,-4.39125 -6.322142,-13.04292 -10.097204,-12.77221 z"
         style="fill:#b56b6a;fill-opacity:1;stroke:none;stroke-width:0.91549218;stroke-linecap:round;stroke-linejoin:bevel;stroke-miterlimit:4;stroke-dasharray:none;stroke-opacity:1" />
      <path
         inkscape:connector-curvature="0"
         id="path1130"
         d="m 4.284942,148.87417 c -2.552769,-0.0121 -6.19447,0.29861 -7.4652,2.03124 -3.872288,5.27974 1.806115,12.97711 2.34415505,19.5025 0.981115,11.89908 1.618147,23.84336 1.607487,35.78287 -0.0141,14.02008 -1.72848,27.99617 -1.96330305,42.0143 -0.109046,6.49738 2.552993,13.9904 1.43045105,20.87393 -0.235278,1.44391 -0.302588,3.5519 -1.67542405,4.05712 -2.241463,0.82487 -4.421476,-4.64529 -6.374479,-3.27038 -3.213132,2.26206 0.118713,14.52907 3.433106,20.68084 1.188839,2.2066 3.010009,5.14633 5.516208,5.10852 2.719589,-0.0412 5.81836,-5.72185 5.81836,-5.72185 0,0 3.097011,5.68066 5.81661,5.72185 2.5062,0.038 4.32915,-2.90192 5.51797,-5.10852 3.314434,-6.15177 6.646244,-18.41878 3.433104,-20.68084 -1.95298,-1.37491 -4.134795,4.09525 -6.376255,3.27038 -1.372838,-0.50522 -1.44014,-2.61321 -1.675429,-4.05712 -1.122529,-6.88353 1.539449,-14.37655 1.430449,-20.87393 -0.234818,-14.01813 -1.947659,-27.99422 -1.96151,-42.0143 -0.0105,-11.93951 0.624581,-23.88379 1.605701,-35.78287 0.538041,-6.52539 6.218214,-14.22276 2.345941,-19.5025 -2.033222,-2.77221 -10.136581,-1.90249 -10.136581,-1.90249 0,0 -1.139701,-0.12215 -2.671361,-0.1288 z"
         style="fill:#df7f80;fill-opacity:1;stroke:none;stroke-width:0.91549218px;stroke-linecap:butt;stroke-linejoin:miter;stroke-opacity:1" />
      <path
         sodipodi:nodetypes="ccccccaacccccccccccccaaccccccc"
         inkscape:connector-curvature="0"
         id="path934"
         d="m 5.338243,104.34969 v 169.53413 c -1.279559,0.513 -2.18559,1.58705 -2.235099,2.85911 h -0.006 v 0.10909 16.53069 c 0,0 -0.02069,0.53216 -0.17475,0.72702 -0.332181,0.41675 -0.90815,0.61519 -1.432591,0.71044 -1.00312795,0.182 -3.042986,-0.30864 -3.042986,-0.30864 0,0 2.21518605,1.71643 3.123186,1.73027 0.503481,0.006 1.04108,-0.36293 1.526982,-0.83503 v 0.0103 c 0.0105,-0.0103 0.02069,-0.0241 0.0276,-0.0357 0.207949,-0.20484 0.395689,-0.41725 0.575759,-0.63836 0.906762,-0.85696 2.079382,-1.35729 3.295402,-1.36075 1.212858,0.003 2.3832,0.49826 3.29007,1.35001 0.189259,0.23286 0.385969,0.45619 0.606128,0.67053 l 0.006,0.006 v -0.005 c 0.4859,0.4721 1.02529,0.84349 1.528811,0.83505 0.907978,-0.0143 3.35253,-2.01927 3.35253,-2.01925 0,0 -2.130761,0.7334 -3.211021,0.59791 -0.513659,-0.0643 -1.064429,-0.26641 -1.409271,-0.65265 -0.183618,-0.20553 -0.260898,-0.78518 -0.260898,-0.78518 v -16.53069 -0.10906 h -0.004 c -0.0495,-1.27233 -0.955381,-2.34622 -2.235092,-2.85911 v -169.5315 z"
         style="color:#000000;font-style:normal;font-variant:normal;font-weight:normal;font-stretch:normal;font-size:medium;line-height:normal;font-family:sans-serif;font-variant-ligatures:normal;font-variant-position:normal;font-variant-caps:normal;font-variant-numeric:normal;font-variant-alternates:normal;font-feature-settings:normal;text-indent:0;text-align:start;text-decoration:none;text-decoration-line:none;text-decoration-style:solid;text-decoration-color:#000000;letter-spacing:normal;word-spacing:normal;text-transform:none;writing-mode:lr-tb;direction:ltr;text-orientation:mixed;dominant-baseline:auto;baseline-shift:baseline;text-anchor:start;white-space:normal;shape-padding:0;clip-rule:nonzero;display:inline;overflow:visible;visibility:visible;opacity:1;isolation:auto;mix-blend-mode:normal;color-interpolation:sRGB;color-interpolation-filters:linearRGB;solid-color:#000000;solid-opacity:1;vector-effect:none;fill:#d06764;fill-opacity:1;fill-rule:nonzero;stroke:none;stroke-width:3.18834066;stroke-linecap:butt;stroke-linejoin:miter;stroke-miterlimit:4;stroke-dasharray:none;stroke-dashoffset:0;stroke-opacity:1;color-rendering:auto;image-rendering:auto;shape-rendering:auto;text-rendering:auto;enable-background:accumulate" />
      <path
         sodipodi:nodetypes="aaaaacaaazsa"
         inkscape:connector-curvature="0"
         id="path936"
         d="m -21.316165,73.49591 c 2.259063,1.309447 3.071844,4.265116 4.983549,6.043737 2.405914,2.238383 5.821304,3.281863 8.038203,5.707589 1.296649,1.418847 1.724041,3.464142 2.90276,4.982358 0.911098,1.173541 2.211295,1.997329 3.174838,3.128182 3.419909,4.0136 9.173118,12.887824 9.173118,12.887824 0,0 -12.468464,-5.62726 -18.505308,-8.832664 -1.962801,-1.04219 -4.029924,-1.967534 -5.74925,-3.375606 -1.097653,-0.89893 -1.771042,-2.236513 -2.836267,-3.173627 -1.888467,-1.661382 -3.406987,-1.228101 -6.221286,-4.270137 C -29.170125,83.551532 -36.8802,74.83426 -33.5229,71.408107 c 2.777861,-2.834857 8.635342,0.01815 12.206735,2.087803 z"
         style="fill:#d56758;fill-opacity:1;stroke:none;stroke-width:0.91693377;stroke-linecap:butt;stroke-linejoin:miter;stroke-miterlimit:4;stroke-dasharray:none;stroke-opacity:1" />
      <path
         sodipodi:nodetypes="aaaaacaaazsa"
         inkscape:connector-curvature="0"
         id="path936-5"
         d="m 35.228757,73.49591 c -2.25904,1.309447 -3.07182,4.265116 -4.98355,6.043737 -2.40593,2.238383 -5.82132,3.281863 -8.03818,5.707589 -1.29665,1.418847 -1.72408,3.464142 -2.902803,4.982358 -0.9111,1.173541 -2.211271,1.997329 -3.174812,3.128182 -3.419888,4.0136 -9.173109,12.887824 -9.173109,12.887824 0,0 12.468434,-5.62726 18.505274,-8.832664 1.9628,-1.04219 4.02995,-1.967534 5.74929,-3.375606 1.09766,-0.89893 1.77098,-2.236513 2.83628,-3.173627 1.88842,-1.661382 3.40696,-1.228101 6.22126,-4.270137 2.81434,-3.042034 10.52439,-11.759306 7.1671,-15.185459 -2.77785,-2.834857 -8.63534,0.01815 -12.20675,2.087803 z"
         style="fill:#d56758;fill-opacity:1;stroke:none;stroke-width:0.91693377;stroke-linecap:butt;stroke-linejoin:miter;stroke-miterlimit:4;stroke-dasharray:none;stroke-opacity:1" />
      <path
         sodipodi:nodetypes="aaaaaaa"
         inkscape:connector-curvature="0"
         id="path1148"
         d="m 6.789702,104.27202 c 8.082402,-0.0242 19.202225,0.73317 22.921195,7.9092 2.98279,5.75554 -1.48797,13.52155 -5.41641,18.67816 -4.15018,5.44761 -10.656413,10.74382 -17.504785,10.75587 -6.88787895,0.0142 -13.535847,-5.22694 -17.643572,-10.75587 -3.836776,-5.16418 -7.884033,-12.99899 -4.861349,-18.67816 3.735898,-7.01915 14.553507,-7.88657 22.504921,-7.9092 z"
         style="fill:#a15258;fill-opacity:1;stroke:none;stroke-width:0.91549218px;stroke-linecap:butt;stroke-linejoin:miter;stroke-opacity:1" />
      <path
         id="path1163"
         d="m 55.001457,-3.7581344 c 0,0 -2.13091,4.03103401 -2.81812,7.1094761 -1.52995,6.8535523 -0.8812,13.7790423 -0.52037,20.3485093 0.36087,6.569466 0.43727,12.73988 -1.66248,18.20623 -0.66472,1.730492 -2.99182,4.811141 -5.12936,7.177069 -2.13755,2.365904 -4.04133,4.142671 -4.04133,4.142671 l 3.42634,3.683172 c 0,0 2.05451,-1.910437 4.35217,-4.453567 2.29768,-2.54313 4.87694,-5.589558 6.08906,-8.744966 2.55884,-6.661576 2.36069,-13.604862 1.9936,-20.287684 -0.36709,-6.682799 -0.89513,-13.150382 0.40548,-18.9766162 0.33566,-1.5040822 2.41262,-5.9673772 2.41262,-5.9673772 z"
         style="color:#000000;font-style:normal;font-variant:normal;font-weight:normal;font-stretch:normal;font-size:medium;line-height:normal;font-family:sans-serif;font-variant-ligatures:normal;font-variant-position:normal;font-variant-caps:normal;font-variant-numeric:normal;font-variant-alternates:normal;font-feature-settings:normal;text-indent:0;text-align:start;text-decoration:none;text-decoration-line:none;text-decoration-style:solid;text-decoration-color:#000000;letter-spacing:normal;word-spacing:normal;text-transform:none;writing-mode:lr-tb;direction:ltr;text-orientation:mixed;dominant-baseline:auto;baseline-shift:baseline;text-anchor:start;white-space:normal;shape-padding:0;clip-rule:nonzero;display:inline;overflow:visible;visibility:visible;opacity:1;isolation:auto;mix-blend-mode:normal;color-interpolation:sRGB;color-interpolation-filters:linearRGB;solid-color:#000000;solid-opacity:1;vector-effect:none;fill:#c28d65;fill-opacity:1;fill-rule:nonzero;stroke:none;stroke-width:5.03520632;stroke-linecap:butt;stroke-linejoin:miter;stroke-miterlimit:4;stroke-dasharray:none;stroke-dashoffset:0;stroke-opacity:1;color-rendering:auto;image-rendering:auto;shape-rendering:auto;text-rendering:auto;enable-background:accumulate"
         inkscape:connector-curvature="0" />
      <path
         id="path1163-7"
         d="m -41.088842,-3.7581344 c 0,0 2.130874,4.03103401 2.81809,7.1094761 1.529924,6.8535113 0.881226,13.7790233 0.520366,20.3484883 -0.360859,6.569469 -0.437287,12.739883 1.662489,18.206212 0.66472,1.730491 2.991807,4.811141 5.129374,7.177069 2.137544,2.365904 4.041312,4.142671 4.041312,4.142671 l -3.426315,3.683172 c 0,0 -2.054527,-1.910435 -4.352187,-4.453567 -2.2977,-2.543131 -4.876951,-5.589559 -6.089025,-8.744945 -2.558913,-6.661576 -2.360705,-13.604886 -1.99362,-20.287705 0.367088,-6.682782 0.895096,-13.150382 -0.405503,-18.9766124 -0.335627,-1.504047 -2.412606,-5.967342 -2.412606,-5.967342 z"
         style="color:#000000;font-style:normal;font-variant:normal;font-weight:normal;font-stretch:normal;font-size:medium;line-height:normal;font-family:sans-serif;font-variant-ligatures:normal;font-variant-position:normal;font-variant-caps:normal;font-variant-numeric:normal;font-variant-alternates:normal;font-feature-settings:normal;text-indent:0;text-align:start;text-decoration:none;text-decoration-line:none;text-decoration-style:solid;text-decoration-color:#000000;letter-spacing:normal;word-spacing:normal;text-transform:none;writing-mode:lr-tb;direction:ltr;text-orientation:mixed;dominant-baseline:auto;baseline-shift:baseline;text-anchor:start;white-space:normal;shape-padding:0;clip-rule:nonzero;display:inline;overflow:visible;visibility:visible;opacity:1;isolation:auto;mix-blend-mode:normal;color-interpolation:sRGB;color-interpolation-filters:linearRGB;solid-color:#000000;solid-opacity:1;vector-effect:none;fill:#c28d65;fill-opacity:1;fill-rule:nonzero;stroke:none;stroke-width:5.03520632;stroke-linecap:butt;stroke-linejoin:miter;stroke-miterlimit:4;stroke-dasharray:none;stroke-dashoffset:0;stroke-opacity:1;color-rendering:auto;image-rendering:auto;shape-rendering:auto;text-rendering:auto;enable-background:accumulate"
         inkscape:connector-curvature="0" />
      <g
         transform="translate(8.3259103)"
         style="opacity:0.92000002"
         id="g5478">
        <g
           id="g5459">
          <path
             sodipodi:nodetypes="aaaaacaaazsa"
             inkscape:connector-curvature="0"
             id="path936-5-4-3"
             d="M 172.51946,0.43404931 C 167.97423,3.0686557 166.33891,9.0154708 162.4925,12.594069 c -4.84076,4.503662 -11.71255,6.603153 -16.17289,11.483722 -2.60887,2.854738 -3.46886,6.969879 -5.84046,10.024551 -1.83314,2.361172 -4.44909,4.018645 -6.38774,6.293924 -6.88085,8.075398 -18.45638,25.930424 -18.45638,25.930424 0,0 25.08659,-11.322095 37.23276,-17.771407 3.94917,-2.096895 8.10829,-3.958687 11.56762,-6.791736 2.2085,-1.808655 3.56323,-4.499897 5.70664,-6.385371 3.79952,-3.34271 6.85483,-2.470947 12.51725,-8.591558 5.66245,-6.12059 21.17514,-23.6598152 14.42025,-30.5532219 -5.58906,-5.7037262 -17.37438,0.036618 -24.56009,4.20065321 z"
             style="fill:#d56758;fill-opacity:1;stroke:none;stroke-width:1.84487855;stroke-linecap:butt;stroke-linejoin:miter;stroke-miterlimit:4;stroke-dasharray:none;stroke-opacity:1" />
          <path
             sodipodi:nodetypes="aaaaaaaaaaaaaaaaaaaaaaaaca"
             inkscape:connector-curvature="0"
             id="path5190"
             d="m 190.68786,4.8639588 c -2.23255,2.1972159 -6.98107,2.5739142 -7.4991,5.6632002 -0.43769,2.610223 5.45059,4.148647 4.42877,6.590109 -1.72198,4.114396 -9.6715,-0.314035 -13.14896,2.478955 -4.4004,3.534254 -2.78311,11.461668 -6.65282,15.570189 -1.6548,1.756906 -5.22986,1.171231 -6.47616,3.238067 -0.80309,1.331828 1.26775,3.634854 0.10221,4.66456 -2.77526,2.451833 -7.60096,-3.098453 -10.99218,-1.610754 -3.64976,1.601136 -3.19539,8.048839 -6.73613,9.878519 -2.46008,1.271247 -5.73386,-1.178755 -8.30597,-0.152913 -2.86584,1.142982 -3.81533,5.158046 -6.59717,6.49247 -2.42385,1.1627 -6.12882,-0.978299 -8.00955,0.942546 -0.12434,0.126957 -0.16418,0.393508 -0.0511,0.530506 1.65624,2.005811 5.25442,1.400559 7.76903,0.734846 2.92334,-0.773919 4.69629,-3.910077 7.42604,-5.211364 2.54796,-1.214609 5.69487,-0.917637 8.14344,-2.321878 2.89651,-1.661114 4.25632,-5.419606 7.23553,-6.927405 3.21879,-1.629063 7.87435,0.424614 10.66034,-1.867265 1.21729,-1.001397 0.76446,-3.143502 1.69852,-4.41322 1.13539,-1.543371 3.22955,-2.13961 4.50656,-3.568015 3.15816,-3.532624 3.91033,-8.996777 7.52537,-12.060261 3.83282,-3.248025 11.79474,-1.221752 13.92249,-5.772895 0.95424,-2.041016 -2.49452,-4.249197 -2.0173,-6.451143 0.4454,-2.0551098 3.05812,-2.9397135 4.20661,-4.7011967 1.51838,-2.3287892 3.44365,-7.5960464 3.44365,-7.5960464 0,0 -2.8129,4.1291968 -4.58212,5.8704091 z"
             style="color:#000000;font-style:normal;font-variant:normal;font-weight:normal;font-stretch:normal;font-size:medium;line-height:normal;font-family:sans-serif;font-variant-ligatures:normal;font-variant-position:normal;font-variant-caps:normal;font-variant-numeric:normal;font-variant-alternates:normal;font-feature-settings:normal;text-indent:0;text-align:start;text-decoration:none;text-decoration-line:none;text-decoration-style:solid;text-decoration-color:#000000;letter-spacing:normal;word-spacing:normal;text-transform:none;writing-mode:lr-tb;direction:ltr;text-orientation:mixed;dominant-baseline:auto;baseline-shift:baseline;text-anchor:start;white-space:normal;shape-padding:0;clip-rule:nonzero;display:inline;overflow:visible;visibility:visible;opacity:1;isolation:auto;mix-blend-mode:normal;color-interpolation:sRGB;color-interpolation-filters:linearRGB;solid-color:#000000;solid-opacity:1;vector-effect:none;fill:#a15258;fill-opacity:1;fill-rule:nonzero;stroke:none;stroke-width:0.53234386px;stroke-linecap:butt;stroke-linejoin:miter;stroke-miterlimit:4;stroke-dasharray:none;stroke-dashoffset:0;stroke-opacity:1;color-rendering:auto;image-rendering:auto;shape-rendering:auto;text-rendering:auto;enable-background:accumulate" />
        </g>
        <g
           id="g5438"
           transform="translate(-19.579173)">
          <path
             sodipodi:nodetypes="aaaaacaaazsa"
             inkscape:connector-curvature="0"
             id="path936-5-4"
             d="m 264.6274,4.8328814 c -4.54521,2.6346185 -6.18053,8.5814496 -10.02695,12.1600446 -4.84075,4.503659 -11.71254,6.60315 -16.17288,11.483719 -2.60887,2.854738 -3.46887,6.969879 -5.84046,10.024551 -1.83314,2.361172 -4.4491,4.018645 -6.38775,6.293925 -6.88084,8.075397 -18.45637,25.930423 -18.45637,25.930423 0,0 25.08659,-11.322095 37.23276,-17.771407 3.94917,-2.096895 8.10829,-3.958687 11.56762,-6.791736 2.2085,-1.808655 3.56323,-4.499897 5.70662,-6.38537 3.79954,-3.342711 6.85483,-2.470948 12.51725,-8.591558 5.66245,-6.120591 21.17516,-23.6598201 14.42026,-30.55326902 -5.58905,-5.70375638 -17.37439,0.036518 -24.5601,4.20067742 z"
             style="fill:#d56758;fill-opacity:1;stroke:none;stroke-width:1.84487855;stroke-linecap:butt;stroke-linejoin:miter;stroke-miterlimit:4;stroke-dasharray:none;stroke-opacity:1" />
          <path
             sodipodi:nodetypes="aaaaacaaazsa"
             inkscape:connector-curvature="0"
             id="path936-5-4-1"
             d="m 265.55546,5.9156156 c -3.87324,2.2655598 -5.25068,7.3295594 -8.43466,10.4913524 -4.97721,4.94256 -11.67346,7.972765 -16.49193,13.070209 -2.77259,2.933106 -4.33256,6.846784 -6.97534,9.897391 -2.04675,2.362622 -4.83061,4.02605 -6.817,6.439635 -4.68567,5.69336 -11.81327,18.702222 -11.81327,18.702222 0,0 22.08992,-8.906055 32.14512,-15.174145 4.1196,-2.568027 7.46199,-6.221674 11.38056,-9.087076 2.15398,-1.57506 4.50394,-2.869888 6.65653,-4.44688 2.98874,-2.189549 3.91016,-2.292905 8.67339,-6.950765 4.76326,-4.65786 19.04995,-21.3051886 13.36772,-26.5511929 -4.7015,-4.3406267 -15.3642,-0.091546 -21.69112,3.6092495 z"
             style="fill:#f0ecdd;fill-opacity:1;stroke:none;stroke-width:1.47609246;stroke-linecap:butt;stroke-linejoin:miter;stroke-miterlimit:4;stroke-dasharray:none;stroke-opacity:1" />
          <path
             sodipodi:nodetypes="aaaaaaaa"
             inkscape:connector-curvature="0"
             id="path5209-4"
             d="m 246.81358,46.65311 c -0.99343,1.899436 -3.63719,3.963093 -5.61447,3.135353 -2.53463,-1.061053 -1.63399,-5.256292 -2.18746,-7.947735 -0.14325,-0.69694 -0.75311,-1.573009 -0.2916,-2.114541 0.7096,-0.832629 2.44966,-0.783758 3.28115,-0.07284 0.96926,0.828747 -0.5017,3.015719 0.5104,3.79159 1.05035,0.805186 2.9018,-1.334424 3.93744,-0.510406 0.97462,0.775448 0.94176,2.614947 0.36454,3.718574 z"
             style="fill:#f1bebf;fill-opacity:1;stroke:none;stroke-width:0.53234386px;stroke-linecap:butt;stroke-linejoin:miter;stroke-opacity:1" />
          <path
             sodipodi:nodetypes="aaasaaa"
             inkscape:connector-curvature="0"
             id="path5226-6"
             d="m 253.32776,39.883607 c -0.57854,1.635742 -2.60115,3.022278 -4.33093,2.887292 -1.16411,-0.09074 -1.53868,-1.839338 -2.57793,-2.371695 -1.06196,-0.543987 -4.03446,0.347957 -3.50602,-0.721828 1.69658,-3.434619 5.98993,-8.361727 9.38368,-6.599509 1.03717,0.538554 -0.17625,2.35069 0,3.505985 0.17384,1.139179 1.41545,2.21333 1.0312,3.299755 z"
             style="fill:#f1bebf;fill-opacity:1;stroke:none;stroke-width:0.53234386px;stroke-linecap:butt;stroke-linejoin:miter;stroke-opacity:1" />
          <path
             sodipodi:nodetypes="aaaaaaa"
             inkscape:connector-curvature="0"
             id="path5252-9"
             d="m 260.50554,29.670692 c 3.16255,0.05392 5.69619,-3.618879 6.85399,-6.562367 0.92679,-2.356203 0.43962,-5.208024 -0.4375,-7.58317 -0.52877,-1.431866 -1.24716,-3.554112 -2.77079,-3.645739 -2.23044,-0.134201 -3.25087,3.083604 -4.66654,4.812392 -1.79392,2.190715 -5.05384,4.17864 -4.81238,6.999838 0.23746,2.774238 3.04924,5.931603 5.83322,5.979046 z"
             style="fill:#f1bebf;fill-opacity:1;stroke:none;stroke-width:0.53234386px;stroke-linecap:butt;stroke-linejoin:miter;stroke-opacity:1" />
          <path
             sodipodi:nodetypes="aaaaaaa"
             inkscape:connector-curvature="0"
             id="path5269-4"
             d="m 270.32782,23.061807 c -2.7812,-1.457499 1.74828,-6.382554 0.82496,-9.38369 -0.63931,-2.078062 -5.13766,-3.128975 -4.12469,-5.0527566 0.77136,-1.4649232 3.29418,0.3904705 4.94962,0.4124819 1.82451,0.024345 4.21041,-1.6340326 5.46526,-0.3093664 2.14055,2.2596461 0.44513,6.5404161 -1.03122,9.2805741 -1.2504,2.320751 -3.74897,6.27642 -6.08393,5.052757 z"
             style="fill:#f1bebf;fill-opacity:1;stroke:none;stroke-width:0.53234386px;stroke-linecap:butt;stroke-linejoin:miter;stroke-opacity:1" />
          <path
             sodipodi:nodetypes="aaaaaaa"
             inkscape:connector-curvature="0"
             id="path5269-4-2"
             d="m 255.54479,40.450752 c -1.69105,-0.944317 1.063,-4.135241 0.50159,-6.079666 -0.38872,-1.346376 -3.12384,-2.02726 -2.50792,-3.273659 0.46901,-0.949125 2.00295,0.25297 3.00952,0.267235 1.10934,0.0161 2.56004,-1.058679 3.32301,-0.200396 1.30153,1.464018 0.27066,4.237511 -0.627,6.012867 -0.76028,1.503594 -2.27949,4.066471 -3.6992,3.273659 z"
             style="fill:#f1bebf;fill-opacity:1;stroke:none;stroke-width:0.33412364px;stroke-linecap:butt;stroke-linejoin:miter;stroke-opacity:1" />
          <path
             sodipodi:nodetypes="aaaaaaa"
             inkscape:connector-curvature="0"
             id="path5269-4-2-2"
             d="m 242.34388,32.699388 c 1.45736,1.275734 3.53814,-2.389944 5.55817,-2.514105 1.39873,-0.08591 2.95856,2.261679 3.92576,1.262958 0.73651,-0.760499 -0.9109,-1.801673 -1.26236,-2.745003 -0.38769,-1.039525 0.13762,-2.766894 -0.92713,-3.197344 -1.81608,-0.734302 -4.08233,1.168072 -5.45315,2.609777 -1.16097,1.221068 -3.06485,3.512685 -1.84133,4.583717 z"
             style="fill:#f1bebf;fill-opacity:1;stroke:none;stroke-width:0.33412364px;stroke-linecap:butt;stroke-linejoin:miter;stroke-opacity:1" />
          <path
             sodipodi:nodetypes="aaaaaaaa"
             inkscape:connector-curvature="0"
             id="path5209-4-6"
             d="m 238.58809,44.175683 c -0.5788,-2.063938 -2.73819,-4.630094 -4.84398,-4.229503 -2.69935,0.513465 -2.68651,4.804274 -3.78505,7.322886 -0.28439,0.652213 -1.06238,1.383075 -0.72293,2.008407 0.52189,0.961458 2.23439,1.273803 3.19503,0.750359 1.1198,-0.610182 0.13339,-3.054249 1.2841,-3.60385 1.19425,-0.570364 2.56278,1.906117 3.74654,1.314305 1.11401,-0.556944 1.46259,-2.363406 1.12629,-3.562604 z"
             style="fill:#f1bebf;fill-opacity:1;stroke:none;stroke-width:0.53234386px;stroke-linecap:butt;stroke-linejoin:miter;stroke-opacity:1" />
          <path
             sodipodi:nodetypes="aaasaaa"
             inkscape:connector-curvature="0"
             id="path5226-6-4"
             d="m 238.08718,53.073872 c -0.41456,1.116564 -1.86391,2.063033 -3.10341,1.970883 -0.83416,-0.06197 -1.10256,-1.255554 -1.84724,-1.618943 -0.76098,-0.371336 -2.89098,0.237518 -2.51232,-0.492721 1.21572,-2.344513 4.29218,-5.707826 6.72404,-4.504907 0.74321,0.367614 -0.12636,1.604617 0,2.393224 0.12454,0.777621 1.01427,1.510857 0.73893,2.252464 z"
             style="fill:#f1bebf;fill-opacity:1;stroke:none;stroke-width:0.37231228px;stroke-linecap:butt;stroke-linejoin:miter;stroke-opacity:1" />
          <path
             sodipodi:nodetypes="aaaaaaa"
             inkscape:connector-curvature="0"
             id="path5269-4-2-1"
             d="m 222.72281,60.119342 c -1.14597,-0.559439 0.72036,-2.449761 0.33991,-3.601676 -0.26341,-0.797601 -2.11693,-1.200968 -1.69954,-1.939335 0.31784,-0.562276 1.35734,0.149894 2.03947,0.158345 0.75177,0.01006 1.73486,-0.627183 2.2519,-0.118709 0.88201,0.867297 0.1835,2.510343 -0.42489,3.56208 -0.51524,0.890737 -1.54474,2.409018 -2.50685,1.939355 z"
             style="fill:#f1bebf;fill-opacity:1;stroke:none;stroke-width:0.21170335px;stroke-linecap:butt;stroke-linejoin:miter;stroke-opacity:1" />
          <path
             sodipodi:nodetypes="aaaaaaa"
             inkscape:connector-curvature="0"
             id="path5269-4-2-1-2"
             d="m 228.77584,56.252402 c 1.14598,-0.559439 -0.72036,-2.449761 -0.33991,-3.601676 0.26342,-0.7976 2.11694,-1.200968 1.69955,-1.939335 -0.31784,-0.562276 -1.35734,0.149895 -2.03948,0.158345 -0.75176,0.01006 -1.73485,-0.627183 -2.2519,-0.118708 -0.882,0.867296 -0.18349,2.510343 0.4249,3.56208 0.51523,0.890736 1.54474,2.409018 2.50684,1.939355 z"
             style="fill:#f1bebf;fill-opacity:1;stroke:none;stroke-width:0.21170335px;stroke-linecap:butt;stroke-linejoin:miter;stroke-opacity:1" />
          <path
             sodipodi:nodetypes="aaaaaaa"
             inkscape:connector-curvature="0"
             id="path5269-4-8"
             d="m 281.97345,10.193918 c -1.37964,-0.7038265 0.86725,-3.0821372 0.40924,-4.5313869 -0.31715,-1.0034973 -2.54861,-1.5109822 -2.04611,-2.4399768 0.38264,-0.7074122 1.63411,0.1885654 2.45531,0.1991888 0.90508,0.01167 2.08863,-0.7890735 2.7111,-0.1493916 1.06186,1.0911826 0.22082,3.1583684 -0.51153,4.48159 -0.62028,1.1206927 -1.85972,3.0308875 -3.01801,2.4399785 z"
             style="fill:#f1bebf;fill-opacity:1;stroke:none;stroke-width:0.26054862px;stroke-linecap:butt;stroke-linejoin:miter;stroke-opacity:1" />
        </g>
      </g>
      <path
         sodipodi:nodetypes="ccc"
         inkscape:connector-curvature="0"
         id="path5480"
         d="M 106.32797,17.155215 31.601224,83.039417 120.89642,74.341833"
         style="fill:none;stroke:#000000;stroke-width:0.86500001;stroke-linecap:butt;stroke-linejoin:miter;stroke-miterlimit:4;stroke-dasharray:none;stroke-opacity:1" />
    </g>
  </g>
</svg>
