<?xml version="1.0" encoding="UTF-8" standalone="no"?>
<!-- Created with Inkscape (http://www.inkscape.org/) -->

<svg
   xmlns:dc="http://purl.org/dc/elements/1.1/"
   xmlns:cc="http://creativecommons.org/ns#"
   xmlns:rdf="http://www.w3.org/1999/02/22-rdf-syntax-ns#"
   xmlns:svg="http://www.w3.org/2000/svg"
   xmlns="http://www.w3.org/2000/svg"
   xmlns:sodipodi="http://sodipodi.sourceforge.net/DTD/sodipodi-0.dtd"
   xmlns:inkscape="http://www.inkscape.org/namespaces/inkscape"
   width="137.05417mm"
   height="195.79167mm"
   viewBox="0 0 137.05417 195.79167"
   version="1.1"
   id="svg4564"
   inkscape:version="0.92+devel unknown"
   sodipodi:docname="vesicula-seminal.svg"
   inkscape:export-filename="/home/fundacion/Documentos/fundecyt_02/conozco_mi_cuerpo/conozco-mi-cuerpo/img/masculino/vesicula-seminal.png"
   inkscape:export-xdpi="96"
   inkscape:export-ydpi="96">
  <defs
     id="defs4558" />
  <sodipodi:namedview
     id="base"
     pagecolor="#ffffff"
     bordercolor="#666666"
     borderopacity="1.0"
     inkscape:pageopacity="0.0"
     inkscape:pageshadow="2"
     inkscape:zoom="0.86631793"
     inkscape:cx="190.3571"
     inkscape:cy="348.87945"
     inkscape:document-units="mm"
     inkscape:current-layer="layer1"
     showgrid="false"
     inkscape:window-width="1920"
     inkscape:window-height="1012"
     inkscape:window-x="0"
     inkscape:window-y="32"
     inkscape:window-maximized="1"
     inkscape:document-rotation="0"
     fit-margin-top="0"
     fit-margin-left="0"
     fit-margin-right="0"
     fit-margin-bottom="0" />
  <metadata
     id="metadata4561">
    <rdf:RDF>
      <cc:Work
         rdf:about="">
        <dc:format>image/svg+xml</dc:format>
        <dc:type
           rdf:resource="http://purl.org/dc/dcmitype/StillImage" />
        <dc:title></dc:title>
      </cc:Work>
    </rdf:RDF>
  </metadata>
  <g
     inkscape:label="Capa 1"
     inkscape:groupmode="layer"
     id="layer1"
     transform="translate(-105.82542,-206.10574)">
    <g
       id="g4554"
       transform="matrix(1.0010102,0,0,1.0010102,186.53539,70.703022)">
      <path
         sodipodi:nodetypes="asacasa"
         inkscape:connector-curvature="0"
         id="path38"
         d="m -48.59718,195.99753 c 7.784562,0.0311 19.219704,6.92443 18.450073,14.31774 -0.332245,3.19173 -2.076154,6.49146 -4.349857,8.8761 -3.702485,3.88317 -14.100216,7.76341 -14.100216,7.76341 0,0 -10.2004,-3.98194 -13.940961,-7.76341 -2.367391,-2.39328 -4.747163,-5.39586 -4.817198,-8.8761 -0.160264,-7.96459 10.892223,-14.3492 18.758159,-14.31774 z"
         style="fill:#fbccbc;fill-opacity:1;stroke:none;stroke-width:0.33338574px;stroke-linecap:butt;stroke-linejoin:miter;stroke-opacity:1" />
      <ellipse
         ry="9.2871742"
         rx="6.370048"
         cy="274.22409"
         cx="-33.260727"
         id="path845-3"
         style="fill:#f5a294;fill-opacity:1;stroke:none;stroke-width:0.75093663" />
      <ellipse
         ry="9.2871742"
         rx="6.370048"
         cy="274.22409"
         cx="-64.277527"
         id="path845"
         style="fill:#f5a294;fill-opacity:1;stroke:none;stroke-width:0.75093663;stroke-opacity:1" />
      <path
         id="path889"
         d="m -70.791581,196.57114 c -1.045208,-0.0205 -2.115321,0.11202 -3.140463,0.38353 -2.050275,0.543 -3.963783,1.65362 -5.05483,3.4159 -2.642806,4.26876 -1.684977,9.15046 0.0076,13.90518 1.692149,4.75471 4.133693,9.55775 4.917437,13.86742 0.913174,5.02141 2.254043,9.90147 2.633229,14.81288 0.205476,2.66127 -0.673892,5.63372 -0.179722,8.78327 0.249919,1.59275 0.948061,2.97545 1.557538,4.27281 0.609492,1.29736 1.12754,2.5036 1.21569,3.70371 0.08996,1.22491 -0.373285,2.57621 -0.880998,4.05336 -0.507704,1.47715 -1.0622,3.09584 -0.772912,4.86536 0.133797,0.8183 0.567326,1.48447 0.945462,2.06478 0.378151,0.5803 0.735788,1.0262 0.735788,1.0262 a 0.94503047,0.94503047 0 0 0 1.326381,0.1478 0.94503047,0.94503047 0 0 0 0.147821,-1.32897 c 0,0 -0.304306,-0.38017 -0.627703,-0.87645 -0.323388,-0.49629 -0.632465,-1.15682 -0.662221,-1.33874 -0.194267,-1.18828 0.194313,-2.49311 0.694121,-3.94725 0.499799,-1.45412 1.108909,-3.04004 0.979319,-4.80414 -0.119829,-1.63195 -0.770438,-3.05127 -1.390192,-4.37047 -0.619752,-1.3192 -1.210359,-2.54773 -1.400614,-3.76035 -0.406282,-2.58935 0.436408,-5.5055 0.194695,-8.63613 -0.397844,-5.15315 -1.765018,-10.09672 -2.657971,-15.00691 -0.860731,-4.73303 -3.362175,-9.57691 -4.993631,-14.16109 -1.631456,-4.5842 -2.376902,-8.73217 -0.181658,-12.27797 0.746085,-1.20511 2.226731,-2.13202 3.93226,-2.58373 1.705529,-0.45172 3.600342,-0.41469 5.005991,0.10092 4.930237,1.80842 9.822419,8.85896 13.267057,15.52653 3.444675,6.66753 5.545145,12.85096 5.545145,12.85096 a 0.94503047,0.94503047 0 0 0 0.0065,0.015 0.94503047,0.94503047 0 0 0 0.01952,0.0502 0.94503047,0.94503047 0 0 0 0.02017,0.045 0.94503047,0.94503047 0 0 0 0.01952,0.0371 0.94503047,0.94503047 0 0 0 0.02407,0.0417 0.94503047,0.94503047 0 0 0 0.02549,0.0397 0.94503047,0.94503047 0 0 0 0.03059,0.0423 0.94503047,0.94503047 0 0 0 0.02469,0.0306 0.94503047,0.94503047 0 0 0 0.03518,0.0397 0.94503047,0.94503047 0 0 0 0.03252,0.0333 0.94503047,0.94503047 0 0 0 0.03325,0.0306 0.94503047,0.94503047 0 0 0 0.03707,0.0306 0.94503047,0.94503047 0 0 0 0.03715,0.0286 0.94503047,0.94503047 0 0 0 0.03846,0.0255 0.94503047,0.94503047 0 0 0 0.04499,0.0274 0.94503047,0.94503047 0 0 0 0.03905,0.0207 0.94503047,0.94503047 0 0 0 0.0378,0.0182 0.94503047,0.94503047 0 0 0 0.06965,0.0294 0.94503047,0.94503047 0 0 0 0.0022,7.3e-4 0.94503047,0.94503047 0 0 0 7.64e-4,0 0.94503047,0.94503047 0 0 0 0.013,0.005 0.94503047,0.94503047 0 0 0 0.05013,0.0144 0.94503047,0.94503047 0 0 0 0.0339,0.009 0.94503047,0.94503047 0 0 0 0.04293,0.009 0.94503047,0.94503047 0 0 0 0.04954,0.009 0.94503047,0.94503047 0 0 0 0.05278,0.005 0.94503047,0.94503047 0 0 0 0.0397,0.004 0.94503047,0.94503047 0 0 0 0.06378,-7.2e-4 0.94503047,0.94503047 0 0 0 0.02866,-7.3e-4 0.94503047,0.94503047 0 0 0 0.05277,-0.005 0.94503047,0.94503047 0 0 0 0.04689,-0.007 0.94503047,0.94503047 0 0 0 0.03187,-0.007 0.94503047,0.94503047 0 0 0 0.06246,-0.0144 0.94503047,0.94503047 0 0 0 0.0022,-7.4e-4 0.94503047,0.94503047 0 0 0 0.0051,-0.002 0.94503047,0.94503047 0 0 0 0.04425,-0.013 0.94503047,0.94503047 0 0 0 0.02279,-0.009 0.94503047,0.94503047 0 0 0 0.03905,-0.0156 0.94503047,0.94503047 0 0 0 0.04814,-0.0215 0.94503047,0.94503047 0 0 0 0.03714,-0.0195 0.94503047,0.94503047 0 0 0 0.0417,-0.0241 0.94503047,0.94503047 0 0 0 0.03971,-0.0255 0.94503047,0.94503047 0 0 0 0.04235,-0.0306 0.94503047,0.94503047 0 0 0 0.03059,-0.0247 0.94503047,0.94503047 0 0 0 0.03971,-0.0351 0.94503047,0.94503047 0 0 0 0.03325,-0.0326 0.94503047,0.94503047 0 0 0 0.03187,-0.0351 0.94503047,0.94503047 0 0 0 0.02603,-0.0306 0.94503047,0.94503047 0 0 0 0.03453,-0.0456 0.94503047,0.94503047 0 0 0 0.02279,-0.0339 0.94503047,0.94503047 0 0 0 0.02549,-0.0424 0.94503047,0.94503047 0 0 0 0.0228,-0.0417 0.94503047,0.94503047 0 0 0 0.01952,-0.0411 0.94503047,0.94503047 0 0 0 0.0208,-0.0496 0.94503047,0.94503047 0 0 0 0.01129,-0.03 0.94503047,0.94503047 0 0 0 0.0014,-0.004 c 0,0 2.103094,-6.18345 5.547751,-12.85099 3.444654,-6.66755 8.334214,-13.71808 13.264453,-15.52652 1.405662,-0.5156 3.303068,-0.55264 5.008597,-0.10093 1.70553,0.45173 3.186175,1.37864 3.932263,2.58373 2.19524,3.5458 1.449806,7.69377 -0.181662,12.27798 -1.631459,4.58419 -4.135503,9.42808 -4.996236,14.16108 -0.892957,4.91022 -2.260131,9.85377 -2.657973,15.00691 -0.241714,3.13064 0.603585,6.04679 0.197299,8.63614 -0.190252,1.21262 -0.780857,2.44114 -1.400611,3.76034 -0.619753,1.31923 -1.270314,2.73852 -1.390192,4.37049 -0.12959,1.76411 0.479522,3.35002 0.979321,4.80414 0.499807,1.45413 0.888387,2.75895 0.694118,3.94723 -0.02971,0.18194 -0.341407,0.84247 -0.66481,1.33875 -0.323392,0.4963 -0.627721,0.87645 -0.627721,0.87645 a 0.94503047,0.94503047 0 0 0 0.147816,1.32898 0.94503047,0.94503047 0 0 0 1.328995,-0.14782 c 0,0 0.357638,-0.4459 0.735785,-1.02618 0.378137,-0.58033 0.809073,-1.2465 0.942866,-2.06479 0.289303,-1.76952 -0.262611,-3.38821 -0.770315,-4.86535 -0.507705,-1.47715 -0.97099,-2.82845 -0.880991,-4.05337 0.0882,-1.20011 0.606191,-2.40635 1.215683,-3.70371 0.609484,-1.29737 1.307623,-2.68004 1.557538,-4.27281 0.494173,-3.14954 -0.385197,-6.12202 -0.17972,-8.78328 0.379181,-4.91139 1.720052,-9.79144 2.633234,-14.81288 0.783746,-4.30966 3.225283,-9.11269 4.91743,-13.86741 1.692135,-4.75471 2.649975,-9.63641 0.0076,-13.90518 -1.091049,-1.76228 -3.007154,-2.87288 -5.057437,-3.4159 -1.025144,-0.27152 -2.092647,-0.40404 -3.137859,-0.38352 -1.045198,0.0205 -2.066966,0.1934 -3.002424,0.53654 -5.974502,2.1916 -10.773423,9.62183 -14.292911,16.43423 -2.177284,4.21413 -3.822235,8.22272 -4.763098,10.67391 -0.94053,-2.45115 -2.584294,-6.45984 -4.761542,-10.67417 -3.519522,-6.81232 -8.318429,-14.24254 -14.293297,-16.43415 -0.935456,-0.34312 -1.957223,-0.51603 -3.002425,-0.53652 z"
         style="color:#000000;font-style:normal;font-variant:normal;font-weight:normal;font-stretch:normal;font-size:medium;line-height:normal;font-family:sans-serif;font-variant-ligatures:normal;font-variant-position:normal;font-variant-caps:normal;font-variant-numeric:normal;font-variant-alternates:normal;font-feature-settings:normal;text-indent:0;text-align:start;text-decoration:none;text-decoration-line:none;text-decoration-style:solid;text-decoration-color:#000000;letter-spacing:normal;word-spacing:normal;text-transform:none;writing-mode:lr-tb;direction:ltr;text-orientation:mixed;dominant-baseline:auto;baseline-shift:baseline;text-anchor:start;white-space:normal;shape-padding:0;clip-rule:nonzero;display:inline;overflow:visible;visibility:visible;opacity:1;isolation:auto;mix-blend-mode:normal;color-interpolation:sRGB;color-interpolation-filters:linearRGB;solid-color:#000000;solid-opacity:1;vector-effect:none;fill:#f47d75;fill-opacity:1;fill-rule:nonzero;stroke:none;stroke-width:1.89006102;stroke-linecap:round;stroke-linejoin:bevel;stroke-miterlimit:4;stroke-dasharray:none;stroke-dashoffset:0;stroke-opacity:1;color-rendering:auto;image-rendering:auto;shape-rendering:auto;text-rendering:auto;enable-background:accumulate"
         inkscape:connector-curvature="0" />
      <path
         sodipodi:nodetypes="aaaaaaaaaaaaaaaa"
         inkscape:connector-curvature="0"
         id="path892-7"
         d="m -28.838862,276.84357 c -0.236635,-0.3978 -0.225317,-0.90316 -0.416727,-1.32461 -0.141793,-0.31219 -0.390015,-0.56775 -0.535795,-0.87811 -0.653246,-1.39058 -0.480557,-3.20638 -1.495566,-4.35974 -0.349007,-0.39657 -1.013443,-0.36515 -1.421568,-0.70057 -0.656206,-0.5393 -0.837437,-1.55857 -1.547863,-2.02413 -0.57025,-0.37371 -1.44282,-0.0782 -1.98563,-0.49071 -0.459843,-0.34948 -0.970217,-0.94427 -0.850919,-1.50938 0.249799,-1.18313 1.701101,-2.0793 2.906912,-2.17023 1.298585,-0.0979 2.481639,0.96581 3.445705,1.84129 0.936401,0.85037 1.398182,2.10832 2.101725,3.1595 0.479519,0.71645 1.1652,1.32973 1.444623,2.1453 0.583512,1.70313 0.269234,3.59084 0.364343,5.38864 0.04119,0.77837 0.373774,1.61098 0.08933,2.33667 -0.06401,0.16331 -0.19668,0.37357 -0.372073,0.37209 -0.827988,-0.007 -1.303151,-1.07437 -1.726459,-1.78601 z"
         style="fill:#d9806e;fill-opacity:1;stroke:none;stroke-width:0.33338574px;stroke-linecap:butt;stroke-linejoin:miter;stroke-opacity:1" />
      <path
         sodipodi:nodetypes="aaaaaaaaaaaaaaaa"
         inkscape:connector-curvature="0"
         id="path892"
         d="m -68.682996,276.84357 c 0.236641,-0.3978 0.225323,-0.90316 0.416736,-1.32461 0.141797,-0.31219 0.390011,-0.56775 0.535793,-0.87811 0.653246,-1.39058 0.480555,-3.20638 1.495568,-4.35974 0.349006,-0.39657 1.013436,-0.36515 1.421569,-0.70057 0.656202,-0.5393 0.837435,-1.55857 1.547858,-2.02413 0.570253,-0.37371 1.442824,-0.0782 1.985634,-0.49071 0.459835,-0.34948 0.970219,-0.94427 0.850919,-1.50938 -0.2498,-1.18313 -1.701102,-2.0793 -2.906913,-2.17023 -1.298584,-0.0979 -2.481641,0.96581 -3.445708,1.84129 -0.936397,0.85037 -1.398177,2.10832 -2.101721,3.1595 -0.479521,0.71645 -1.165199,1.32973 -1.444622,2.1453 -0.583518,1.70313 -0.269237,3.59084 -0.364345,5.38864 -0.04118,0.77837 -0.373777,1.61098 -0.08934,2.33667 0.064,0.16331 0.196684,0.37357 0.372082,0.37209 0.827982,-0.007 1.303149,-1.07437 1.726454,-1.78601 z"
         style="fill:#d9806e;fill-opacity:1;stroke:none;stroke-width:0.33338574px;stroke-linecap:butt;stroke-linejoin:miter;stroke-opacity:1" />
      <path
         sodipodi:nodetypes="cccc"
         inkscape:connector-curvature="0"
         id="path953"
         d="m -48.733615,250.36912 c 0,0 -3.258011,-6.32207 -2.65207,-8.99808 1.595196,0.46015 2.620493,1.25235 2.620493,1.25235 z"
         style="fill:#d06560;fill-opacity:1;stroke:none;stroke-width:0.33338574px;stroke-linecap:butt;stroke-linejoin:miter;stroke-opacity:1" />
      <path
         sodipodi:nodetypes="cccc"
         inkscape:connector-curvature="0"
         id="path953-3"
         d="m -48.733615,250.36912 c 0,0 3.258013,-6.32207 2.652072,-8.99808 -1.5952,0.46015 -2.620496,1.25235 -2.620496,1.25235 z"
         style="fill:#d06560;fill-opacity:1;stroke:none;stroke-width:0.33338574px;stroke-linecap:butt;stroke-linejoin:miter;stroke-opacity:1" />
      <circle
         r="0.98913199"
         cy="241.14188"
         cx="-45.492264"
         id="path978"
         style="fill:#e99c8a;fill-opacity:1;stroke:none;stroke-width:0.33747587;stroke-linecap:round;stroke-linejoin:bevel;stroke-miterlimit:4;stroke-dasharray:none;stroke-opacity:1" />
      <circle
         r="0.98913199"
         cy="241.14188"
         cx="-51.974979"
         id="path978-5"
         style="fill:#e99c8a;fill-opacity:1;stroke:none;stroke-width:0.33747587;stroke-linecap:round;stroke-linejoin:bevel;stroke-miterlimit:4;stroke-dasharray:none;stroke-opacity:1" />
      <path
         inkscape:connector-curvature="0"
         id="path1108"
         d="m -57.586317,242.88962 c -0.04433,0.004 -0.08883,0.0101 -0.133488,0.0202 -0.419826,1.2494 -0.01931,2.72352 0.273479,4.04166 0.469112,2.11176 1.857395,3.94346 2.34477,6.05107 2.688724,11.62725 -1.504098,24.63481 3.031079,35.67358 0.660174,1.60689 3.337098,4.00323 3.337098,4.00323 0,0 2.676948,-2.39634 3.33712,-4.00323 4.535178,-11.03877 0.341699,-24.04633 3.030425,-35.67358 0.487366,-2.10761 1.876314,-3.93931 2.34542,-6.05107 0.292819,-1.31814 0.692644,-2.79226 0.27283,-4.04166 -1.430134,-0.32329 -2.682451,2.98023 -3.809851,4.63094 -1.993406,2.91867 -5.175944,9.25405 -5.175944,9.25405 0,0 -3.182531,-6.33538 -5.175939,-9.25405 -1.092169,-1.59911 -2.302272,-4.74972 -3.676999,-4.65113 z"
         style="fill:#b56b6a;fill-opacity:1;stroke:none;stroke-width:0.33338574;stroke-linecap:round;stroke-linejoin:bevel;stroke-miterlimit:4;stroke-dasharray:none;stroke-opacity:1" />
      <path
         inkscape:connector-curvature="0"
         id="path1130"
         d="m -49.706429,242.57642 c -0.929618,-0.004 -2.25578,0.10874 -2.718529,0.7397 -1.410133,1.92267 0.657715,4.72575 0.853648,7.10203 0.357283,4.33318 0.589264,8.6828 0.585383,13.0307 -0.0051,5.10556 -0.629444,10.19509 -0.714957,15.29993 -0.03971,2.36609 0.929698,5.09474 0.520913,7.60145 -0.08568,0.52582 -0.110191,1.29347 -0.610122,1.47744 -0.816252,0.3004 -1.610126,-1.69162 -2.321332,-1.19093 -1.170094,0.82375 0.04323,5.29091 1.2502,7.53113 0.432928,0.80356 1.096126,1.87409 2.008783,1.86032 0.990366,-0.015 2.118815,-2.08366 2.118815,-2.08366 0,0 1.127808,2.06866 2.118178,2.08366 0.912658,0.0138 1.576504,-1.05676 2.009425,-1.86032 1.206984,-2.24022 2.420297,-6.70738 1.250199,-7.53113 -0.711197,-0.50069 -1.505728,1.49133 -2.321977,1.19093 -0.499934,-0.18397 -0.524442,-0.95162 -0.610126,-1.47744 -0.408779,-2.50671 0.560607,-5.23536 0.520913,-7.60145 -0.08551,-5.10484 -0.70926,-10.19437 -0.714304,-15.29993 -0.0038,-4.3479 0.227448,-8.69752 0.584733,-13.0307 0.195933,-2.37628 2.264425,-5.17936 0.854298,-7.10203 -0.740418,-1.00952 -3.691339,-0.69281 -3.691339,-0.69281 0,0 -0.415033,-0.0445 -0.972802,-0.0469 z"
         style="fill:#df7f80;fill-opacity:1;stroke:none;stroke-width:0.33338574px;stroke-linecap:butt;stroke-linejoin:miter;stroke-opacity:1" />
      <path
         sodipodi:nodetypes="ccccccaacccccccccccccaaccccccc"
         inkscape:connector-curvature="0"
         id="path934"
         d="m -49.32286,226.36238 v 61.73758 c -0.465964,0.18681 -0.795904,0.57794 -0.813933,1.04117 h -0.0022 v 0.0397 6.01983 c 0,0 -0.0076,0.19378 -0.06363,0.26475 -0.120967,0.15176 -0.330712,0.22403 -0.521692,0.25871 -0.3653,0.0663 -1.108134,-0.1124 -1.108134,-0.1124 0,0 0.806682,0.62506 1.137339,0.6301 0.183348,0.002 0.37912,-0.13216 0.556067,-0.30408 v 0.004 c 0.0038,-0.004 0.0076,-0.009 0.01007,-0.013 0.07573,-0.0746 0.144094,-0.15194 0.209669,-0.23247 0.330207,-0.31207 0.757228,-0.49426 1.200054,-0.49552 0.441674,10e-4 0.867866,0.18143 1.198112,0.49162 0.06892,0.0848 0.140555,0.16612 0.220728,0.24417 l 0.0022,0.002 v -0.002 c 0.176945,0.17192 0.37337,0.30717 0.556732,0.3041 0.33065,-0.005 1.220858,-0.73534 1.220858,-0.73533 0,0 -0.775939,0.26707 -1.169326,0.21773 -0.187054,-0.0234 -0.387622,-0.097 -0.5132,-0.23767 -0.06686,-0.0748 -0.09501,-0.28593 -0.09501,-0.28593 v -6.01982 -0.0397 h -0.0014 c -0.01803,-0.46334 -0.347911,-0.8544 -0.813931,-1.04118 v -61.73661 z"
         style="color:#000000;font-style:normal;font-variant:normal;font-weight:normal;font-stretch:normal;font-size:medium;line-height:normal;font-family:sans-serif;font-variant-ligatures:normal;font-variant-position:normal;font-variant-caps:normal;font-variant-numeric:normal;font-variant-alternates:normal;font-feature-settings:normal;text-indent:0;text-align:start;text-decoration:none;text-decoration-line:none;text-decoration-style:solid;text-decoration-color:#000000;letter-spacing:normal;word-spacing:normal;text-transform:none;writing-mode:lr-tb;direction:ltr;text-orientation:mixed;dominant-baseline:auto;baseline-shift:baseline;text-anchor:start;white-space:normal;shape-padding:0;clip-rule:nonzero;display:inline;overflow:visible;visibility:visible;opacity:1;isolation:auto;mix-blend-mode:normal;color-interpolation:sRGB;color-interpolation-filters:linearRGB;solid-color:#000000;solid-opacity:1;vector-effect:none;fill:#d06764;fill-opacity:1;fill-rule:nonzero;stroke:none;stroke-width:1.16106653;stroke-linecap:butt;stroke-linejoin:miter;stroke-miterlimit:4;stroke-dasharray:none;stroke-dashoffset:0;stroke-opacity:1;color-rendering:auto;image-rendering:auto;shape-rendering:auto;text-rendering:auto;enable-background:accumulate" />
      <path
         sodipodi:nodetypes="aaaaacaaazsa"
         inkscape:connector-curvature="0"
         id="path936"
         d="m -59.029332,215.12667 c 0.82266,0.47685 1.118643,1.55318 1.81481,2.20088 0.876138,0.81514 2.119886,1.19513 2.927192,2.07848 0.472188,0.51669 0.627827,1.26151 1.05707,1.81437 0.331786,0.42737 0.805266,0.72736 1.156149,1.13917 1.245395,1.46159 3.340484,4.69323 3.340484,4.69323 0,0 -4.540518,-2.04922 -6.738895,-3.2165 -0.714774,-0.37953 -1.467538,-0.7165 -2.093648,-1.22927 -0.399721,-0.32735 -0.644942,-0.81444 -1.032856,-1.15571 -0.687704,-0.605 -1.240688,-0.44722 -2.265544,-1.55501 -1.024862,-1.10778 -3.832564,-4.28226 -2.609969,-5.52993 1.011587,-1.03235 3.144647,0.007 4.445207,0.76029 z"
         style="fill:#d56758;fill-opacity:1;stroke:none;stroke-width:0.3339107;stroke-linecap:butt;stroke-linejoin:miter;stroke-miterlimit:4;stroke-dasharray:none;stroke-opacity:1" />
      <path
         sodipodi:nodetypes="aaaaacaaazsa"
         inkscape:connector-curvature="0"
         id="path936-5"
         d="m -38.437926,215.12667 c -0.822652,0.47685 -1.118635,1.55318 -1.81481,2.20088 -0.876144,0.81514 -2.119893,1.19513 -2.927185,2.07848 -0.472188,0.51669 -0.627841,1.26151 -1.057085,1.81437 -0.331786,0.42737 -0.805257,0.72736 -1.15614,1.13917 -1.245387,1.46159 -3.340481,4.69323 -3.340481,4.69323 0,0 4.540506,-2.04922 6.738883,-3.2165 0.714774,-0.37953 1.467547,-0.7165 2.093663,-1.22927 0.399724,-0.32735 0.64492,-0.81444 1.032859,-1.15571 0.687688,-0.605 1.24068,-0.44722 2.265536,-1.55501 1.02487,-1.10778 3.832563,-4.28226 2.609972,-5.52993 -1.011583,-1.03235 -3.144647,0.007 -4.445212,0.76029 z"
         style="fill:#d56758;fill-opacity:1;stroke:none;stroke-width:0.3339107;stroke-linecap:butt;stroke-linejoin:miter;stroke-miterlimit:4;stroke-dasharray:none;stroke-opacity:1" />
      <path
         sodipodi:nodetypes="aaaaaaa"
         inkscape:connector-curvature="0"
         id="path1148"
         d="m -48.794296,226.3341 c 2.943289,-0.009 6.992684,0.26699 8.346985,2.88021 1.086214,2.09595 -0.541859,4.92402 -1.97244,6.80185 -1.51133,1.9838 -3.880641,3.91247 -6.374545,3.91685 -2.508291,0.005 -4.929216,-1.90343 -6.425086,-3.91685 -1.3972,-1.88059 -2.87105,-4.73372 -1.77031,-6.80185 1.360466,-2.55608 5.299808,-2.87197 8.195396,-2.88021 z"
         style="fill:#a15258;fill-opacity:1;stroke:none;stroke-width:0.33338574px;stroke-linecap:butt;stroke-linejoin:miter;stroke-opacity:1" />
      <path
         id="path1163"
         d="m -31.237497,186.99382 c 0,0 -0.775993,1.46794 -1.026247,2.58899 -0.557147,2.4958 -0.320899,5.01778 -0.189499,7.41012 0.131416,2.39234 0.159237,4.63936 -0.605408,6.62998 -0.242065,0.63018 -1.089502,1.75202 -1.867908,2.6136 -0.778411,0.86157 -1.471692,1.5086 -1.471692,1.5086 l 1.247737,1.34127 c 0,0 0.74817,-0.69571 1.584886,-1.62182 0.836724,-0.9261 1.775987,-2.03549 2.217394,-3.18456 0.931827,-2.42588 0.859669,-4.95436 0.725989,-7.38797 -0.13368,-2.43361 -0.32597,-4.78884 0.14766,-6.91053 0.122234,-0.54772 0.87858,-2.17308 0.87858,-2.17308 z"
         style="color:#000000;font-style:normal;font-variant:normal;font-weight:normal;font-stretch:normal;font-size:medium;line-height:normal;font-family:sans-serif;font-variant-ligatures:normal;font-variant-position:normal;font-variant-caps:normal;font-variant-numeric:normal;font-variant-alternates:normal;font-feature-settings:normal;text-indent:0;text-align:start;text-decoration:none;text-decoration-line:none;text-decoration-style:solid;text-decoration-color:#000000;letter-spacing:normal;word-spacing:normal;text-transform:none;writing-mode:lr-tb;direction:ltr;text-orientation:mixed;dominant-baseline:auto;baseline-shift:baseline;text-anchor:start;white-space:normal;shape-padding:0;clip-rule:nonzero;display:inline;overflow:visible;visibility:visible;opacity:1;isolation:auto;mix-blend-mode:normal;color-interpolation:sRGB;color-interpolation-filters:linearRGB;solid-color:#000000;solid-opacity:1;vector-effect:none;fill:#c28d65;fill-opacity:1;fill-rule:nonzero;stroke:none;stroke-width:1.83362138;stroke-linecap:butt;stroke-linejoin:miter;stroke-miterlimit:4;stroke-dasharray:none;stroke-dashoffset:0;stroke-opacity:1;color-rendering:auto;image-rendering:auto;shape-rendering:auto;text-rendering:auto;enable-background:accumulate"
         inkscape:connector-curvature="0" />
      <path
         id="path1163-7"
         d="m -66.229753,186.99382 c 0,0 0.77598,1.46794 1.026236,2.58899 0.557138,2.49577 0.320907,5.01777 0.189496,7.41011 -0.13141,2.39234 -0.159242,4.63936 0.605413,6.62997 0.242065,0.63018 1.089497,1.75203 1.867913,2.61361 0.778409,0.86157 1.471685,1.50859 1.471685,1.50859 l -1.247727,1.34127 c 0,0 -0.748177,-0.6957 -1.584893,-1.62181 -0.836732,-0.9261 -1.775992,-2.03549 -2.217381,-3.18456 -0.931853,-2.42588 -0.859674,-4.95436 -0.725997,-7.38798 0.13368,-2.4336 0.325959,-4.78884 -0.147667,-6.91052 -0.122223,-0.54771 -0.878575,-2.17307 -0.878575,-2.17307 z"
         style="color:#000000;font-style:normal;font-variant:normal;font-weight:normal;font-stretch:normal;font-size:medium;line-height:normal;font-family:sans-serif;font-variant-ligatures:normal;font-variant-position:normal;font-variant-caps:normal;font-variant-numeric:normal;font-variant-alternates:normal;font-feature-settings:normal;text-indent:0;text-align:start;text-decoration:none;text-decoration-line:none;text-decoration-style:solid;text-decoration-color:#000000;letter-spacing:normal;word-spacing:normal;text-transform:none;writing-mode:lr-tb;direction:ltr;text-orientation:mixed;dominant-baseline:auto;baseline-shift:baseline;text-anchor:start;white-space:normal;shape-padding:0;clip-rule:nonzero;display:inline;overflow:visible;visibility:visible;opacity:1;isolation:auto;mix-blend-mode:normal;color-interpolation:sRGB;color-interpolation-filters:linearRGB;solid-color:#000000;solid-opacity:1;vector-effect:none;fill:#c28d65;fill-opacity:1;fill-rule:nonzero;stroke:none;stroke-width:1.83362138;stroke-linecap:butt;stroke-linejoin:miter;stroke-miterlimit:4;stroke-dasharray:none;stroke-dashoffset:0;stroke-opacity:1;color-rendering:auto;image-rendering:auto;shape-rendering:auto;text-rendering:auto;enable-background:accumulate"
         inkscape:connector-curvature="0" />
      <path
         sodipodi:nodetypes="cccc"
         inkscape:connector-curvature="0"
         id="path5480"
         d="m -4.6770699,180.19448 -35.3688841,39.62654 57.971023,9.94759 z"
         style="fill:#ffba95;fill-opacity:1;stroke:none;stroke-width:0.3127619;stroke-linecap:butt;stroke-linejoin:miter;stroke-miterlimit:4;stroke-dasharray:none;stroke-opacity:1" />
      <ellipse
         ry="29.980659"
         rx="34.802723"
         cy="199.86505"
         cx="21.484608"
         id="path5391"
         style="opacity:1;fill:#ffccaa;fill-opacity:1;stroke:none;stroke-width:0.27660444;stroke-linecap:round;stroke-miterlimit:4;stroke-dasharray:none;stroke-opacity:1" />
      <g
         transform="matrix(0.36157444,0,0,0.36157444,-48.46488,188.19272)"
         id="g5459">
        <path
           style="fill:#d56758;fill-opacity:1;stroke:none;stroke-width:1.84487855;stroke-linecap:butt;stroke-linejoin:miter;stroke-miterlimit:4;stroke-dasharray:none;stroke-opacity:1"
           d="M 172.51946,0.43404931 C 167.97423,3.0686557 166.33891,9.0154708 162.4925,12.594069 c -4.84076,4.503662 -11.71255,6.603153 -16.17289,11.483722 -2.60887,2.854738 -3.46886,6.969879 -5.84046,10.024551 -1.83314,2.361172 -4.44909,4.018645 -6.38774,6.293924 -6.88085,8.075398 -18.45638,25.930424 -18.45638,25.930424 0,0 25.08659,-11.322095 37.23276,-17.771407 3.94917,-2.096895 8.10829,-3.958687 11.56762,-6.791736 2.2085,-1.808655 3.56323,-4.499897 5.70664,-6.385371 3.79952,-3.34271 6.85483,-2.470947 12.51725,-8.591558 5.66245,-6.12059 21.17514,-23.6598152 14.42025,-30.5532219 -5.58906,-5.7037262 -17.37438,0.036618 -24.56009,4.20065321 z"
           id="path936-5-4-3"
           inkscape:connector-curvature="0"
           sodipodi:nodetypes="aaaaacaaazsa" />
        <path
           style="color:#000000;font-style:normal;font-variant:normal;font-weight:normal;font-stretch:normal;font-size:medium;line-height:normal;font-family:sans-serif;font-variant-ligatures:normal;font-variant-position:normal;font-variant-caps:normal;font-variant-numeric:normal;font-variant-alternates:normal;font-feature-settings:normal;text-indent:0;text-align:start;text-decoration:none;text-decoration-line:none;text-decoration-style:solid;text-decoration-color:#000000;letter-spacing:normal;word-spacing:normal;text-transform:none;writing-mode:lr-tb;direction:ltr;text-orientation:mixed;dominant-baseline:auto;baseline-shift:baseline;text-anchor:start;white-space:normal;shape-padding:0;clip-rule:nonzero;display:inline;overflow:visible;visibility:visible;opacity:1;isolation:auto;mix-blend-mode:normal;color-interpolation:sRGB;color-interpolation-filters:linearRGB;solid-color:#000000;solid-opacity:1;vector-effect:none;fill:#a15258;fill-opacity:1;fill-rule:nonzero;stroke:none;stroke-width:0.53234386px;stroke-linecap:butt;stroke-linejoin:miter;stroke-miterlimit:4;stroke-dasharray:none;stroke-dashoffset:0;stroke-opacity:1;color-rendering:auto;image-rendering:auto;shape-rendering:auto;text-rendering:auto;enable-background:accumulate"
           d="m 190.68786,4.8639588 c -2.23255,2.1972159 -6.98107,2.5739142 -7.4991,5.6632002 -0.43769,2.610223 5.45059,4.148647 4.42877,6.590109 -1.72198,4.114396 -9.6715,-0.314035 -13.14896,2.478955 -4.4004,3.534254 -2.78311,11.461668 -6.65282,15.570189 -1.6548,1.756906 -5.22986,1.171231 -6.47616,3.238067 -0.80309,1.331828 1.26775,3.634854 0.10221,4.66456 -2.77526,2.451833 -7.60096,-3.098453 -10.99218,-1.610754 -3.64976,1.601136 -3.19539,8.048839 -6.73613,9.878519 -2.46008,1.271247 -5.73386,-1.178755 -8.30597,-0.152913 -2.86584,1.142982 -3.81533,5.158046 -6.59717,6.49247 -2.42385,1.1627 -6.12882,-0.978299 -8.00955,0.942546 -0.12434,0.126957 -0.16418,0.393508 -0.0511,0.530506 1.65624,2.005811 5.25442,1.400559 7.76903,0.734846 2.92334,-0.773919 4.69629,-3.910077 7.42604,-5.211364 2.54796,-1.214609 5.69487,-0.917637 8.14344,-2.321878 2.89651,-1.661114 4.25632,-5.419606 7.23553,-6.927405 3.21879,-1.629063 7.87435,0.424614 10.66034,-1.867265 1.21729,-1.001397 0.76446,-3.143502 1.69852,-4.41322 1.13539,-1.543371 3.22955,-2.13961 4.50656,-3.568015 3.15816,-3.532624 3.91033,-8.996777 7.52537,-12.060261 3.83282,-3.248025 11.79474,-1.221752 13.92249,-5.772895 0.95424,-2.041016 -2.49452,-4.249197 -2.0173,-6.451143 0.4454,-2.0551098 3.05812,-2.9397135 4.20661,-4.7011967 1.51838,-2.3287892 3.44365,-7.5960464 3.44365,-7.5960464 0,0 -2.8129,4.1291968 -4.58212,5.8704091 z"
           id="path5190"
           inkscape:connector-curvature="0"
           sodipodi:nodetypes="aaaaaaaaaaaaaaaaaaaaaaaaca" />
      </g>
      <g
         transform="matrix(0.36157444,0,0,0.36157444,-55.544209,188.19272)"
         id="g5438">
        <path
           style="fill:#d56758;fill-opacity:1;stroke:none;stroke-width:1.84487855;stroke-linecap:butt;stroke-linejoin:miter;stroke-miterlimit:4;stroke-dasharray:none;stroke-opacity:1"
           d="m 264.6274,4.8328814 c -4.54521,2.6346185 -6.18053,8.5814496 -10.02695,12.1600446 -4.84075,4.503659 -11.71254,6.60315 -16.17288,11.483719 -2.60887,2.854738 -3.46887,6.969879 -5.84046,10.024551 -1.83314,2.361172 -4.4491,4.018645 -6.38775,6.293925 -6.88084,8.075397 -18.45637,25.930423 -18.45637,25.930423 0,0 25.08659,-11.322095 37.23276,-17.771407 3.94917,-2.096895 8.10829,-3.958687 11.56762,-6.791736 2.2085,-1.808655 3.56323,-4.499897 5.70662,-6.38537 3.79954,-3.342711 6.85483,-2.470948 12.51725,-8.591558 5.66245,-6.120591 21.17516,-23.6598201 14.42026,-30.55326902 -5.58905,-5.70375638 -17.37439,0.036518 -24.5601,4.20067742 z"
           id="path936-5-4"
           inkscape:connector-curvature="0"
           sodipodi:nodetypes="aaaaacaaazsa" />
        <path
           style="fill:#f0ecdd;fill-opacity:1;stroke:none;stroke-width:1.47609246;stroke-linecap:butt;stroke-linejoin:miter;stroke-miterlimit:4;stroke-dasharray:none;stroke-opacity:1"
           d="m 265.55546,5.9156156 c -3.87324,2.2655598 -5.25068,7.3295594 -8.43466,10.4913524 -4.97721,4.94256 -11.67346,7.972765 -16.49193,13.070209 -2.77259,2.933106 -4.33256,6.846784 -6.97534,9.897391 -2.04675,2.362622 -4.83061,4.02605 -6.817,6.439635 -4.68567,5.69336 -11.81327,18.702222 -11.81327,18.702222 0,0 22.08992,-8.906055 32.14512,-15.174145 4.1196,-2.568027 7.46199,-6.221674 11.38056,-9.087076 2.15398,-1.57506 4.50394,-2.869888 6.65653,-4.44688 2.98874,-2.189549 3.91016,-2.292905 8.67339,-6.950765 4.76326,-4.65786 19.04995,-21.3051886 13.36772,-26.5511929 -4.7015,-4.3406267 -15.3642,-0.091546 -21.69112,3.6092495 z"
           id="path936-5-4-1"
           inkscape:connector-curvature="0"
           sodipodi:nodetypes="aaaaacaaazsa" />
        <path
           style="fill:#f1bebf;fill-opacity:1;stroke:none;stroke-width:0.53234386px;stroke-linecap:butt;stroke-linejoin:miter;stroke-opacity:1"
           d="m 246.81358,46.65311 c -0.99343,1.899436 -3.63719,3.963093 -5.61447,3.135353 -2.53463,-1.061053 -1.63399,-5.256292 -2.18746,-7.947735 -0.14325,-0.69694 -0.75311,-1.573009 -0.2916,-2.114541 0.7096,-0.832629 2.44966,-0.783758 3.28115,-0.07284 0.96926,0.828747 -0.5017,3.015719 0.5104,3.79159 1.05035,0.805186 2.9018,-1.334424 3.93744,-0.510406 0.97462,0.775448 0.94176,2.614947 0.36454,3.718574 z"
           id="path5209-4"
           inkscape:connector-curvature="0"
           sodipodi:nodetypes="aaaaaaaa" />
        <path
           style="fill:#f1bebf;fill-opacity:1;stroke:none;stroke-width:0.53234386px;stroke-linecap:butt;stroke-linejoin:miter;stroke-opacity:1"
           d="m 253.32776,39.883607 c -0.57854,1.635742 -2.60115,3.022278 -4.33093,2.887292 -1.16411,-0.09074 -1.53868,-1.839338 -2.57793,-2.371695 -1.06196,-0.543987 -4.03446,0.347957 -3.50602,-0.721828 1.69658,-3.434619 5.98993,-8.361727 9.38368,-6.599509 1.03717,0.538554 -0.17625,2.35069 0,3.505985 0.17384,1.139179 1.41545,2.21333 1.0312,3.299755 z"
           id="path5226-6"
           inkscape:connector-curvature="0"
           sodipodi:nodetypes="aaasaaa" />
        <path
           style="fill:#f1bebf;fill-opacity:1;stroke:none;stroke-width:0.53234386px;stroke-linecap:butt;stroke-linejoin:miter;stroke-opacity:1"
           d="m 260.50554,29.670692 c 3.16255,0.05392 5.69619,-3.618879 6.85399,-6.562367 0.92679,-2.356203 0.43962,-5.208024 -0.4375,-7.58317 -0.52877,-1.431866 -1.24716,-3.554112 -2.77079,-3.645739 -2.23044,-0.134201 -3.25087,3.083604 -4.66654,4.812392 -1.79392,2.190715 -5.05384,4.17864 -4.81238,6.999838 0.23746,2.774238 3.04924,5.931603 5.83322,5.979046 z"
           id="path5252-9"
           inkscape:connector-curvature="0"
           sodipodi:nodetypes="aaaaaaa" />
        <path
           style="fill:#f1bebf;fill-opacity:1;stroke:none;stroke-width:0.53234386px;stroke-linecap:butt;stroke-linejoin:miter;stroke-opacity:1"
           d="m 270.32782,23.061807 c -2.7812,-1.457499 1.74828,-6.382554 0.82496,-9.38369 -0.63931,-2.078062 -5.13766,-3.128975 -4.12469,-5.0527566 0.77136,-1.4649232 3.29418,0.3904705 4.94962,0.4124819 1.82451,0.024345 4.21041,-1.6340326 5.46526,-0.3093664 2.14055,2.2596461 0.44513,6.5404161 -1.03122,9.2805741 -1.2504,2.320751 -3.74897,6.27642 -6.08393,5.052757 z"
           id="path5269-4"
           inkscape:connector-curvature="0"
           sodipodi:nodetypes="aaaaaaa" />
        <path
           style="fill:#f1bebf;fill-opacity:1;stroke:none;stroke-width:0.33412364px;stroke-linecap:butt;stroke-linejoin:miter;stroke-opacity:1"
           d="m 255.54479,40.450752 c -1.69105,-0.944317 1.063,-4.135241 0.50159,-6.079666 -0.38872,-1.346376 -3.12384,-2.02726 -2.50792,-3.273659 0.46901,-0.949125 2.00295,0.25297 3.00952,0.267235 1.10934,0.0161 2.56004,-1.058679 3.32301,-0.200396 1.30153,1.464018 0.27066,4.237511 -0.627,6.012867 -0.76028,1.503594 -2.27949,4.066471 -3.6992,3.273659 z"
           id="path5269-4-2"
           inkscape:connector-curvature="0"
           sodipodi:nodetypes="aaaaaaa" />
        <path
           style="fill:#f1bebf;fill-opacity:1;stroke:none;stroke-width:0.33412364px;stroke-linecap:butt;stroke-linejoin:miter;stroke-opacity:1"
           d="m 242.34388,32.699388 c 1.45736,1.275734 3.53814,-2.389944 5.55817,-2.514105 1.39873,-0.08591 2.95856,2.261679 3.92576,1.262958 0.73651,-0.760499 -0.9109,-1.801673 -1.26236,-2.745003 -0.38769,-1.039525 0.13762,-2.766894 -0.92713,-3.197344 -1.81608,-0.734302 -4.08233,1.168072 -5.45315,2.609777 -1.16097,1.221068 -3.06485,3.512685 -1.84133,4.583717 z"
           id="path5269-4-2-2"
           inkscape:connector-curvature="0"
           sodipodi:nodetypes="aaaaaaa" />
        <path
           style="fill:#f1bebf;fill-opacity:1;stroke:none;stroke-width:0.53234386px;stroke-linecap:butt;stroke-linejoin:miter;stroke-opacity:1"
           d="m 238.58809,44.175683 c -0.5788,-2.063938 -2.73819,-4.630094 -4.84398,-4.229503 -2.69935,0.513465 -2.68651,4.804274 -3.78505,7.322886 -0.28439,0.652213 -1.06238,1.383075 -0.72293,2.008407 0.52189,0.961458 2.23439,1.273803 3.19503,0.750359 1.1198,-0.610182 0.13339,-3.054249 1.2841,-3.60385 1.19425,-0.570364 2.56278,1.906117 3.74654,1.314305 1.11401,-0.556944 1.46259,-2.363406 1.12629,-3.562604 z"
           id="path5209-4-6"
           inkscape:connector-curvature="0"
           sodipodi:nodetypes="aaaaaaaa" />
        <path
           style="fill:#f1bebf;fill-opacity:1;stroke:none;stroke-width:0.37231228px;stroke-linecap:butt;stroke-linejoin:miter;stroke-opacity:1"
           d="m 238.08718,53.073872 c -0.41456,1.116564 -1.86391,2.063033 -3.10341,1.970883 -0.83416,-0.06197 -1.10256,-1.255554 -1.84724,-1.618943 -0.76098,-0.371336 -2.89098,0.237518 -2.51232,-0.492721 1.21572,-2.344513 4.29218,-5.707826 6.72404,-4.504907 0.74321,0.367614 -0.12636,1.604617 0,2.393224 0.12454,0.777621 1.01427,1.510857 0.73893,2.252464 z"
           id="path5226-6-4"
           inkscape:connector-curvature="0"
           sodipodi:nodetypes="aaasaaa" />
        <path
           style="fill:#f1bebf;fill-opacity:1;stroke:none;stroke-width:0.21170335px;stroke-linecap:butt;stroke-linejoin:miter;stroke-opacity:1"
           d="m 222.72281,60.119342 c -1.14597,-0.559439 0.72036,-2.449761 0.33991,-3.601676 -0.26341,-0.797601 -2.11693,-1.200968 -1.69954,-1.939335 0.31784,-0.562276 1.35734,0.149894 2.03947,0.158345 0.75177,0.01006 1.73486,-0.627183 2.2519,-0.118709 0.88201,0.867297 0.1835,2.510343 -0.42489,3.56208 -0.51524,0.890737 -1.54474,2.409018 -2.50685,1.939355 z"
           id="path5269-4-2-1"
           inkscape:connector-curvature="0"
           sodipodi:nodetypes="aaaaaaa" />
        <path
           style="fill:#f1bebf;fill-opacity:1;stroke:none;stroke-width:0.21170335px;stroke-linecap:butt;stroke-linejoin:miter;stroke-opacity:1"
           d="m 228.77584,56.252402 c 1.14598,-0.559439 -0.72036,-2.449761 -0.33991,-3.601676 0.26342,-0.7976 2.11694,-1.200968 1.69955,-1.939335 -0.31784,-0.562276 -1.35734,0.149895 -2.03948,0.158345 -0.75176,0.01006 -1.73485,-0.627183 -2.2519,-0.118708 -0.882,0.867296 -0.18349,2.510343 0.4249,3.56208 0.51523,0.890736 1.54474,2.409018 2.50684,1.939355 z"
           id="path5269-4-2-1-2"
           inkscape:connector-curvature="0"
           sodipodi:nodetypes="aaaaaaa" />
        <path
           style="fill:#f1bebf;fill-opacity:1;stroke:none;stroke-width:0.26054862px;stroke-linecap:butt;stroke-linejoin:miter;stroke-opacity:1"
           d="m 281.97345,10.193918 c -1.37964,-0.7038265 0.86725,-3.0821372 0.40924,-4.5313869 -0.31715,-1.0034973 -2.54861,-1.5109822 -2.04611,-2.4399768 0.38264,-0.7074122 1.63411,0.1885654 2.45531,0.1991888 0.90508,0.01167 2.08863,-0.7890735 2.7111,-0.1493916 1.06186,1.0911826 0.22082,3.1583684 -0.51153,4.48159 -0.62028,1.1206927 -1.85972,3.0308875 -3.01801,2.4399785 z"
           id="path5269-4-8"
           inkscape:connector-curvature="0"
           sodipodi:nodetypes="aaaaaaa" />
      </g>
    </g>
  </g>
</svg>
