<?xml version="1.0" encoding="UTF-8" standalone="no"?>
<!-- Created with Inkscape (http://www.inkscape.org/) -->

<svg
   xmlns:dc="http://purl.org/dc/elements/1.1/"
   xmlns:cc="http://creativecommons.org/ns#"
   xmlns:rdf="http://www.w3.org/1999/02/22-rdf-syntax-ns#"
   xmlns:svg="http://www.w3.org/2000/svg"
   xmlns="http://www.w3.org/2000/svg"
   xmlns:sodipodi="http://sodipodi.sourceforge.net/DTD/sodipodi-0.dtd"
   xmlns:inkscape="http://www.inkscape.org/namespaces/inkscape"
   width="19.84375mm"
   height="19.84375mm"
   viewBox="0 0 19.84375 19.84375"
   version="1.1"
   id="svg8"
   inkscape:version="0.92+devel unknown"
   sodipodi:docname="icono-cmc.svg">
  <defs
     id="defs2">
    <inkscape:path-effect
       effect="bspline"
       id="path-effect4510"
       is_visible="true"
       weight="33.333333"
       steps="2"
       helper_size="0"
       apply_no_weight="true"
       apply_with_weight="true"
       only_selected="false" />
    <inkscape:path-effect
       effect="bspline"
       id="path-effect4506"
       is_visible="true"
       weight="33.333333"
       steps="2"
       helper_size="0"
       apply_no_weight="true"
       apply_with_weight="true"
       only_selected="false" />
    <inkscape:path-effect
       effect="bspline"
       id="path-effect4506-6"
       is_visible="true"
       weight="33.333333"
       steps="2"
       helper_size="0"
       apply_no_weight="true"
       apply_with_weight="true"
       only_selected="false" />
    <inkscape:path-effect
       effect="bspline"
       id="path-effect4510-3"
       is_visible="true"
       weight="33.333333"
       steps="2"
       helper_size="0"
       apply_no_weight="true"
       apply_with_weight="true"
       only_selected="false" />
  </defs>
  <sodipodi:namedview
     id="base"
     pagecolor="#ffffff"
     bordercolor="#666666"
     borderopacity="1.0"
     inkscape:pageopacity="0.0"
     inkscape:pageshadow="2"
     inkscape:zoom="1.189795"
     inkscape:cx="6.537886"
     inkscape:cy="-28.827504"
     inkscape:document-units="mm"
     inkscape:current-layer="layer1"
     showgrid="false"
     inkscape:window-width="1366"
     inkscape:window-height="713"
     inkscape:window-x="0"
     inkscape:window-y="26"
     inkscape:window-maximized="1"
     inkscape:document-rotation="0"
     fit-margin-top="0"
     fit-margin-left="0"
     fit-margin-right="0"
     fit-margin-bottom="0" />
  <metadata
     id="metadata5">
    <rdf:RDF>
      <cc:Work
         rdf:about="">
        <dc:format>image/svg+xml</dc:format>
        <dc:type
           rdf:resource="http://purl.org/dc/dcmitype/StillImage" />
        <dc:title></dc:title>
      </cc:Work>
    </rdf:RDF>
  </metadata>
  <g
     inkscape:label="Capa 1"
     inkscape:groupmode="layer"
     id="layer1"
     transform="translate(-448.93878,-336.36032)">
    <g
       id="g5030"
       inkscape:export-filename="/home/desarrollo/Imágenes/icono2.png"
       inkscape:export-xdpi="96"
       inkscape:export-ydpi="96"
       transform="matrix(0.08794404,0,0,0.08794404,439.93421,330.07264)">
      <circle
         r="90.256256"
         cy="187.67105"
         cx="211.85571"
         id="path4496"
         style="opacity:1;fill:#354b5e;fill-opacity:1;stroke:none;stroke-width:1.11487138;stroke-miterlimit:4;stroke-dasharray:none;stroke-opacity:1" />
      <g
         transform="translate(21.217358,-2.3974609e-5)"
         id="g4981">
        <path
           style="fill:#f8bea7;fill-opacity:1;stroke:none;stroke-width:0.30343342px;stroke-linecap:butt;stroke-linejoin:miter;stroke-opacity:1"
           d="m 187.41441,145.43144 c 0,0 -4.20335,-1.48369 -5.69389,-3.03397 -2.25027,-2.34047 -4.23924,-8.76942 -4.23924,-8.76942 0,0 -1.61851,0.0502 -2.20274,-0.41561 -0.46084,-0.36744 -0.71113,-1.0315 -0.70655,-1.62089 0.004,-0.50217 0.26229,-1.02256 0.62342,-1.37152 0.31268,-0.30213 1.20528,-0.49873 1.20528,-0.49873 0,0 -0.38268,-2.29358 -0.49874,-3.44958 -0.0735,-0.73175 0.51305,-1.83647 -0.12468,-2.20275 -2.98254,-1.713 -3.61583,-6.52511 -3.61583,-6.52511 0,0 3.61935,1.07317 5.3614,0.62342 0.72858,-0.18811 2.30404,-0.85273 1.83583,-1.31361 -1.31671,-1.29609 -1.12929,-3.25812 -1.12929,-3.25812 0,0 7.14082,3.26228 8.30843,1.80642 1.1676,-1.45585 -0.54743,-2.98527 -0.54743,-2.98527 l 7.11792,2.88286 6.27575,0.45716 3.78207,2.5768 0.2078,-1.03903 0.87279,1.45465 1.20528,0.16624 -0.95591,1.16372 0.49873,2.03649 -0.37405,0.87279 0.99747,2.95085 -0.54029,3.61582 1.66245,2.61836 -3.1171,1.28839 -1.66245,5.65234 -2.82616,3.7405 -5.15359,2.65993 0.0831,3.28333 1.66245,2.86773 8.76942,3.28333 3.40802,2.70148 1.45464,3.11709 2.24431,16.33357 0.62342,5.73545 0.54029,16.79074 -0.0831,4.42627 0.7481,1.37152 v 2.65991 l -1.01825,1.64167 -2.32743,0.14547 -1.37152,-1.05982 -0.1039,-2.36899 -1.03903,0.22859 -0.27015,-0.31171 -0.12468,-0.62342 1.9118,-1.89103 -0.4156,-16.06342 -0.54029,-1.87025 -0.22859,-3.17944 -0.85201,-5.44452 -1.30918,-5.6731 -1.3923,-3.24178 -0.26074,8.9737 -0.47021,2.70371 -1.46942,4.46702 -0.64654,4.2319 -0.2351,4.34946 0.76409,1.88085 0.41144,1.64574 v 2.64494 l -1.41064,2.11595 v 10.34466 l -0.29388,43.55335 v 1.05797 l 2.40983,2.46862 3.05638,1.29308 2.05718,0.41144 1.64573,0.29387 0.23511,1.41064 -1.9984,0.35265 -3.02699,0.044 -3.26209,-0.26449 -2.46861,-0.22041 -1.67513,0.0294 -2.96821,0.55837 -1.41063,-1.52819 0.41143,-2.02778 0.64654,-0.88165 0.32327,-0.82287 -0.52899,-20.60115 -0.0882,-0.88165 0.11755,-1.14613 -0.35266,-25.18572 -6.40663,-0.0293 -0.23511,19.455 -0.2351,5.2311 -0.0588,13.81247 -0.17633,8.81647 0.47021,1.35185 0.70532,1.82208 0.11755,1.70451 -2.40983,1.11675 -3.9968,-0.94042 -5.70131,0.76409 -2.93883,-0.2351 -1.99839,-1.11675 0.58776,-0.82288 6.28908,-1.17553 2.64494,-3.17392 -0.0588,-26.03797 -0.0588,-9.46301 -0.11755,-17.57415 0.0588,-1.7633 -1.23431,-3.40903 0.58777,-3.7617 v -4.29068 l -0.70532,-6.11274 -1.41063,-4.40824 -0.29388,-5.23111 c 0,0 -0.0323,-3.52187 0.11755,-5.64254 0.0119,-0.16811 -0.29389,-0.41143 -0.29389,-0.41143 l -2.58616,8.46381 -0.70531,3.46781 0.11755,1.41063 -0.35266,1.9984 c 0,0 -0.065,1.59516 -0.29389,2.35106 -0.0381,0.12579 -0.17632,0.35266 -0.17632,0.35266 l -0.44083,4.4964 -0.47021,8.37565 0.32327,1.96901 -0.0882,1.17553 c 0,0 -0.13777,0.98995 0.0294,1.44002 0.33187,0.89361 1.40752,1.34573 1.82207,2.20411 0.14372,0.29759 0.43849,0.73524 0.20572,0.96981 -0.34507,0.34775 -0.98833,-0.48357 -1.44002,-0.29388 -0.18289,0.0768 -0.27112,0.30822 -0.32327,0.4996 -0.18302,0.67166 0.24753,1.40891 0.0882,2.08657 -0.0743,0.31583 -0.20075,0.67154 -0.47022,0.85226 -0.42587,0.2856 -1.0161,0.20292 -1.52818,0.17632 -0.45097,-0.0234 -0.88261,-0.19169 -1.32247,-0.29387 -0.32401,-0.0752 -0.71271,-0.0241 -0.96982,-0.23512 -0.34215,-0.28087 -0.46744,-0.77168 -0.55837,-1.20491 -0.19925,-0.94933 -0.15132,-1.96245 0.0588,-2.90944 0.12065,-0.54377 0.64435,-0.97208 0.67594,-1.52818 0.31763,-5.59276 -0.50568,-11.36518 0.17632,-16.9864 0.0412,-0.33967 0.19566,-0.65932 0.23511,-0.99919 0.0858,-0.73954 0,-2.23351 0,-2.23351 l 0.23511,-2.02779 0.47021,-5.93642 0.91103,-6.23031 1.32247,-8.31687 c 0,0 0.21058,-1.34616 0.47021,-1.96901 0.2573,-0.61724 0.6382,-1.18396 1.05798,-1.70451 0.53056,-0.65792 1.13959,-1.26472 1.82207,-1.7633 0.9697,-0.70839 2.06549,-1.24246 3.17393,-1.70451 1.39005,-0.57945 2.87725,-0.8909 4.32007,-1.32247 0.8702,-0.26028 1.84404,-0.28476 2.61555,-0.76409 0.41812,-0.25978 0.74733,-0.66444 0.9992,-1.08737 0.50883,-0.85439 0.81913,-1.83832 0.96981,-2.82127 0.13363,-0.87172 -0.0711,-2.64478 -0.0711,-2.64478 z"
           id="path4523"
           inkscape:connector-curvature="0"
           sodipodi:nodetypes="cacaaacascasczcccccccccccccccccccccccccccccccccccccccccccccccccccccccccccccccccccccccccccccccccccccccccccccccccccscccccacccccaaaaaaaaaaaasaacccccaaaaaaaacc" />
        <path
           style="fill:#e87377;fill-opacity:1;stroke:none;stroke-width:0.22919229px;stroke-linecap:butt;stroke-linejoin:miter;stroke-opacity:1"
           d="m 190.64114,182.55556 c 0.33528,-0.36985 0.31077,-1.46504 0.31077,-1.46504 v -3.19649 c 0,0 -1.69773,-1.80089 -3.10769,-4.08439 -0.24014,-0.38892 0.27544,-0.96112 0.66593,-1.19868 0.43004,-0.26162 1.14687,-0.39357 1.50945,-0.0444 1.1138,1.07261 2.21978,3.19649 2.21978,3.19649 0,0 2.06712,-0.85399 3.13909,-0.75695 1.02033,0.0923 2.11167,0.4956 2.80992,1.2453 0.65404,0.70223 0.82608,1.7604 0.9767,2.70814 0.22542,1.41833 0.18779,2.90656 -0.13318,4.30636 -0.20283,0.88459 -0.54497,1.77585 -1.10989,2.48614 -1.08513,1.36437 -2.54156,2.53824 -4.17319,3.15209 -1.3332,0.50158 -2.88597,0.67903 -4.26198,0.31077 -1.01899,-0.27271 -1.88107,-1.02237 -2.61934,-1.77582 -0.45677,-0.46616 -0.53736,-1.2592 -1.06549,-1.64264 -0.37181,-0.26994 -0.93736,-0.59069 -1.33187,-0.35517 -0.27429,0.16376 -0.25772,0.61486 -0.22198,0.93231 0.0655,0.58203 0.41697,1.03017 0.77693,1.57604 0.32295,0.48978 -1.13209,1.13209 -1.13209,1.13209 0,0 -0.78188,0.12703 -1.0655,-0.0888 -0.71537,-0.54437 -0.84299,-1.63605 -0.9323,-2.53055 -0.0863,-0.86429 -0.0429,-1.82751 0.39956,-2.57493 0.49458,-0.83543 1.36921,-1.53052 2.30857,-1.77583 0.69455,-0.18137 2.13099,0.31077 2.13099,0.31077 0,0 1.3519,0.70259 2.08659,0.71033 0.63647,0.007 1.39273,-0.10551 1.82022,-0.57714 z"
           id="path4553"
           inkscape:connector-curvature="0"
           sodipodi:nodetypes="accsascaaaaaaaaaaascaaaacaa" />
        <path
           style="opacity:1;fill:#ef9e98;fill-opacity:1;stroke-width:0.03616965"
           d="m 188.02388,208.56526 -1.3e-4,1e-5 c -0.0604,-0.0336 -0.13314,-0.11499 -0.16158,-0.18076 -0.0666,-0.15403 -0.30248,-2.12236 -0.33409,-2.78784 -0.0205,-0.43274 -0.0384,-0.54699 -0.11651,-0.74649 -0.23462,-0.59915 -0.20703,-1.28325 0.0783,-1.9407 0.18675,-0.43032 0.65357,-0.94358 1.06103,-1.16657 0.37613,-0.20584 0.5904,-0.2527 1.15552,-0.2527 h 0.53577 l 0.10057,-0.12538 c 0.24695,-0.30795 0.80712,-0.64846 1.23026,-0.74782 0.26928,-0.0632 0.79042,-0.0699 1.04393,-0.0131 0.21209,0.0474 0.49181,0.15427 0.68245,0.26077 l 0.13312,0.0744 0.15911,-0.13302 c 0.37425,-0.31288 1.01074,-0.54583 1.4914,-0.54583 0.14655,0 0.14933,-0.002 0.27597,-0.25048 0.0704,-0.13774 0.23503,-0.37391 0.36592,-0.52479 0.19172,-0.221 0.23799,-0.29769 0.23799,-0.39454 0,-0.50517 0.26039,-1.17154 0.62889,-1.60944 l 0.23806,-0.28288 -0.0839,-0.18154 c -0.27734,-0.59967 -0.26147,-1.24757 0.0453,-1.84834 0.0885,-0.17331 0.0927,-0.19756 0.0458,-0.26494 -0.0971,-0.13939 -0.25788,-0.5659 -0.30611,-0.81222 -0.0891,-0.45473 -0.055,-0.9022 0.10057,-1.32417 l 0.0818,-0.22169 -0.0804,-0.25842 c -0.14872,-0.47788 -0.0924,-1.06451 0.14528,-1.51413 0.046,-0.0869 0.0836,-0.17472 0.0836,-0.19501 0,-0.0203 -0.11273,-0.0745 -0.2506,-0.12044 l -0.25061,-0.0835 -0.22468,0.0782 c -0.28282,0.0984 -0.75868,0.16404 -0.98485,0.1357 -0.51412,-0.0644 -0.99646,-0.25609 -1.31521,-0.52259 l -0.16141,-0.13493 -0.16055,0.14424 c -0.21745,0.19539 -0.43093,0.32256 -0.67902,0.4045 -0.28138,0.093 -0.85621,0.0935 -1.14068,10e-4 -0.23813,-0.0773 -0.61772,-0.30996 -0.74056,-0.45394 -0.0461,-0.054 -0.0965,-0.0983 -0.11204,-0.0983 -0.0155,0 -0.12793,0.0748 -0.24983,0.16613 -0.6841,0.51281 -1.74855,0.63712 -2.53818,0.29641 l -0.21851,-0.0943 -0.0947,0.0766 c -0.16554,0.134 -0.50877,0.30751 -0.77044,0.38948 -0.45427,0.14227 -1.16765,0.13337 -1.51762,-0.0189 -0.0478,-0.0207 -0.0542,0.0308 -0.0523,0.42252 0.002,0.35501 -0.0136,0.50648 -0.0753,0.74094 -0.0692,0.26254 -0.0722,0.30596 -0.0289,0.39788 0.22212,0.47032 0.0868,1.29109 -0.27634,1.67651 -0.13746,0.14589 -0.14365,0.18641 -0.0435,0.28384 0.0408,0.0397 0.1275,0.16268 0.19266,0.27336 0.20512,0.34839 0.28182,0.78328 0.20623,1.16928 -0.045,0.2295 -0.0438,0.23899 0.0446,0.3974 0.42368,0.75817 0.4584,1.73247 0.0905,2.54061 l -0.15228,0.33454 0.14359,0.13798 c 0.63253,0.60776 0.93477,1.12334 0.92762,1.58242 -0.006,0.35897 -0.11607,0.54052 -0.42108,0.69192 -0.55427,0.27512 -1.8172,-0.19775 -2.81713,-1.0548 -0.15226,-0.13049 -0.26099,-0.19049 -0.40891,-0.22562 -0.11078,-0.0263 -0.30801,-0.0959 -0.43819,-0.15474 -0.69504,-0.31382 -1.26466,-1.03539 -1.45264,-1.84017 -0.0834,-0.35716 -0.0901,-0.91269 -0.015,-1.23048 l 0.0531,-0.22419 -0.13411,-0.17868 c -0.29922,-0.39861 -0.39973,-0.70374 -0.38059,-1.15551 0.0155,-0.36688 0.13087,-0.68284 0.35908,-0.98373 l 0.14403,-0.18991 -0.16844,-0.22887 c -0.25261,-0.34325 -0.32335,-0.56801 -0.32323,-1.02694 7e-5,-0.30852 0.014,-0.41153 0.0753,-0.55733 l 0.0752,-0.17884 -0.0745,-0.21856 c -0.063,-0.18454 -0.0745,-0.29808 -0.0741,-0.7295 3.9e-4,-0.46807 0.009,-0.53475 0.0983,-0.79479 0.0538,-0.15613 0.15102,-0.37897 0.21609,-0.49518 l 0.11829,-0.21134 -0.10413,-0.29622 c -0.35647,-1.01365 -0.12718,-2.06459 0.6169,-2.82752 0.31458,-0.32256 0.62416,-0.51499 1.0573,-0.65718 0.44038,-0.14457 1.00366,-0.14521 1.44391,-0.001 0.16678,0.0544 0.38042,0.14308 0.47474,0.1971 l 0.17151,0.0982 0.16473,-0.13137 c 0.51428,-0.41015 1.26246,-0.62022 1.86767,-0.52441 0.3562,0.0564 0.68929,0.16657 0.91347,0.30214 l 0.16222,0.0981 0.23528,-0.11993 c 0.49869,-0.25421 0.94125,-0.33869 1.4493,-0.27665 0.54111,0.066 0.96996,0.23203 1.33533,0.51678 0.0904,0.0704 0.17707,0.12802 0.19273,0.12802 0.0156,0 0.0652,-0.0429 0.11032,-0.0953 0.36216,-0.42209 1.18832,-0.65437 1.76225,-0.49547 0.29944,0.0829 0.61055,0.25289 0.80384,0.43917 l 0.158,0.15229 0.0981,-0.0904 c 0.45706,-0.42109 1.26486,-0.66005 1.89446,-0.56038 0.1613,0.0256 0.38017,0.0828 0.48635,0.12734 l 0.19306,0.0808 0.21387,-0.081 c 0.5568,-0.21092 1.08597,-0.2033 1.68446,0.0243 0.40783,0.15507 0.91926,0.55156 1.1093,0.86002 0.0627,0.10183 0.12497,0.14654 0.26858,0.1928 0.52816,0.17011 1.00992,0.533 1.29929,0.97864 0.50086,0.77136 0.57693,1.62618 0.22076,2.48062 l -0.10322,0.2476 0.12424,0.22549 c 0.28928,0.52506 0.34061,1.15445 0.13965,1.71233 -0.0987,0.27397 -0.099,0.27697 -0.0426,0.47309 0.0903,0.31385 0.12509,0.67695 0.0922,0.96122 -0.0364,0.31446 -0.1464,0.71027 -0.2401,0.86361 -0.0916,0.14985 -0.09,0.16243 0.0526,0.42121 0.19994,0.36289 0.27,0.6749 0.24837,1.10607 -0.0296,0.58986 -0.20012,0.96515 -0.64063,1.40993 l -0.23723,0.23953 0.114,0.27014 c 0.1466,0.34741 0.19019,0.56483 0.19294,0.96238 0.005,0.66856 -0.18657,1.20044 -0.60786,1.69078 l -0.25647,0.29851 -0.0361,0.32335 c -0.10035,0.89848 -0.61466,1.65011 -1.39351,2.0366 -0.31227,0.15497 -0.48556,0.2007 -0.85817,0.22653 l -0.32772,0.0227 -0.12165,0.24602 c -0.075,0.15176 -0.23418,0.36987 -0.41545,0.56937 -0.23458,0.25817 -0.35304,0.35529 -0.58762,0.48176 -0.74024,0.39906 -1.51994,0.41554 -2.23871,0.0473 l -0.2166,-0.11102 -0.21998,0.16838 c -1.83879,0.765 -1.69321,0.73523 -1.83903,2.85341 -0.0285,0.23987 -0.19558,0.4186 -0.3911,0.4186"
           id="path4536-3"
           inkscape:connector-curvature="0"
           sodipodi:nodetypes="cccccccscccccccsccsccccccccccsccccccccccscccccccccccccccccccccccccccccccccccccccccccccccccccscccccccccccccccccccccccccccccccccccccccc" />
        <path
           style="fill:#ee8a88;fill-opacity:1;stroke-width:0.03616965"
           d="m 188.02373,208.5424 c -0.0604,-0.0336 -0.13316,-0.11499 -0.1616,-0.18076 -0.0666,-0.15403 -0.30248,-2.12236 -0.33409,-2.78784 -0.0205,-0.43274 -0.0384,-0.54698 -0.1165,-0.74649 -0.23462,-0.59915 -0.20703,-1.28325 0.0783,-1.94069 0.18674,-0.43033 0.65356,-0.94359 1.06102,-1.16658 0.37613,-0.20584 0.5904,-0.2527 1.15552,-0.2527 h 0.53577 l 0.10053,-0.12537 c 0.24695,-0.30796 0.80712,-0.64847 1.23025,-0.74783 0.26928,-0.0632 0.79043,-0.0698 1.04393,-0.0131 0.2121,0.0474 0.49181,0.15428 0.68245,0.26077 l 0.13313,0.0744 0.15911,-0.13302 c 0.37424,-0.31288 1.01073,-0.54582 1.4914,-0.54582 0.14654,0 0.14933,-0.002 0.27597,-0.25048 0.0704,-0.13775 0.23502,-0.37392 0.36591,-0.5248 0.19173,-0.221 0.238,-0.29769 0.238,-0.39454 0,-0.50517 0.26038,-1.17154 0.62888,-1.60944 l 0.23806,-0.28287 -0.084,-0.18155 c -0.27733,-0.59967 -0.26146,-1.24757 0.0453,-1.84834 0.0885,-0.17331 0.0927,-0.19755 0.0457,-0.26494 -0.0971,-0.13939 -0.25788,-0.5659 -0.30612,-0.81221 -0.0891,-0.45474 -0.0551,-0.90221 0.10059,-1.32417 l 0.0818,-0.2217 -0.0804,-0.25841 c -0.14871,-0.47789 -0.0924,-1.06452 0.14529,-1.51414 0.046,-0.0869 0.0836,-0.17472 0.0836,-0.195 0,-0.0203 -0.11278,-0.0746 -0.25061,-0.12045 l -0.2506,-0.0835 -0.22468,0.0782 c -0.28283,0.0984 -0.7587,0.16404 -0.98486,0.1357 -0.51412,-0.0644 -0.99646,-0.25608 -1.31522,-0.52259 l -0.1614,-0.13493 -0.16055,0.14425 c -0.21745,0.19538 -0.43093,0.32256 -0.67903,0.4045 -0.28138,0.093 -0.8562,0.0935 -1.14068,9.8e-4 -0.23812,-0.0773 -0.61771,-0.30996 -0.74055,-0.45394 -0.0461,-0.054 -0.0965,-0.0983 -0.112,-0.0983 -0.0155,0 -0.12793,0.0748 -0.24982,0.16613 -0.6841,0.51281 -1.74855,0.63712 -2.53818,0.29641 l -0.21852,-0.0943 -0.0947,0.0766 c -0.16553,0.134 -0.50878,0.30751 -0.77043,0.38948 -0.45427,0.14227 -1.16766,0.13337 -1.51763,-0.0189 -0.0478,-0.0207 -0.0542,0.0309 -0.0523,0.42252 0.002,0.35501 -0.0136,0.50648 -0.0754,0.74094 -0.0691,0.26254 -0.0723,0.30596 -0.0289,0.39788 0.22212,0.47032 0.0868,1.29109 -0.27634,1.67651 -0.13746,0.14589 -0.14366,0.18641 -0.0434,0.28384 0.0408,0.0397 0.1275,0.16268 0.19267,0.27336 0.20511,0.34839 0.2818,0.78328 0.20623,1.16928 -0.0449,0.22951 -0.0439,0.23899 0.0447,0.3974 0.42368,0.75817 0.4584,1.73247 0.0905,2.54061 l -0.15228,0.33454 0.14359,0.13798 c 0.63253,0.60776 0.93477,1.12335 0.92762,1.58242 -0.006,0.35897 -0.11606,0.54052 -0.42108,0.69192 -0.55427,0.27514 -1.81719,-0.19772 -2.81713,-1.05477 -0.15225,-0.13049 -0.26098,-0.19049 -0.4089,-0.22562 -0.11082,-0.0263 -0.30802,-0.0959 -0.4382,-0.15474 -0.69504,-0.31382 -1.26465,-1.0354 -1.45263,-1.84018 -0.0834,-0.35716 -0.0902,-0.91269 -0.015,-1.23048 l 0.053,-0.22419 -0.13412,-0.17868 c -0.29921,-0.3986 -0.39972,-0.70374 -0.38058,-1.1555 0.0155,-0.36689 0.13087,-0.68285 0.35907,-0.98373 l 0.14404,-0.18992 -0.16844,-0.22886 c -0.25261,-0.34326 -0.32335,-0.56802 -0.32324,-1.02695 7e-5,-0.30852 0.014,-0.41153 0.0753,-0.55732 l 0.0752,-0.17884 -0.0746,-0.21857 c -0.063,-0.18453 -0.0745,-0.29808 -0.0741,-0.7295 3.9e-4,-0.46807 0.009,-0.53474 0.0982,-0.79479 0.0538,-0.15613 0.15102,-0.37897 0.21608,-0.49518 l 0.1183,-0.21134 -0.10418,-0.29621 c -0.35647,-1.01366 -0.12718,-2.06459 0.6169,-2.82753 0.31459,-0.32255 0.62416,-0.51498 1.0573,-0.65718 0.44039,-0.14457 1.00367,-0.14521 1.44391,-0.001 0.16678,0.0544 0.38041,0.14307 0.47475,0.19709 l 0.17151,0.0982 0.16473,-0.13137 c 0.51428,-0.41014 1.26245,-0.62022 1.86766,-0.5244 0.3562,0.0564 0.6893,0.16656 0.91347,0.30213 l 0.16222,0.0981 0.23529,-0.11994 c 0.49868,-0.25421 0.94124,-0.33868 1.44929,-0.27665 0.54112,0.0661 0.96996,0.23204 1.33533,0.51679 0.0904,0.0704 0.17708,0.12802 0.19273,0.12802 0.0156,0 0.0653,-0.0429 0.11027,-0.0953 0.36215,-0.42209 1.18831,-0.65437 1.76224,-0.49546 0.29945,0.0829 0.61056,0.25289 0.80384,0.43917 l 0.15801,0.15229 0.0981,-0.0904 c 0.45706,-0.42109 1.26486,-0.66004 1.89445,-0.56037 0.16131,0.0256 0.38017,0.0828 0.48635,0.12733 l 0.19307,0.0808 0.21387,-0.081 c 0.5568,-0.21092 1.08597,-0.20329 1.68446,0.0243 0.40783,0.15506 0.91925,0.55156 1.1093,0.86001 0.0628,0.10184 0.12496,0.14654 0.26857,0.19281 0.52816,0.17011 1.00993,0.533 1.2993,0.97864 0.50085,0.77136 0.57693,1.62617 0.22075,2.48061 l -0.10321,0.2476 0.12424,0.22549 c 0.28928,0.52506 0.34061,1.15445 0.13966,1.71233 -0.0987,0.27397 -0.099,0.27697 -0.0425,0.47309 0.0902,0.31386 0.12508,0.67696 0.0922,0.96122 -0.0364,0.31447 -0.1464,0.71027 -0.24011,0.86362 -0.0916,0.14984 -0.09,0.16242 0.0526,0.42121 0.19995,0.36289 0.27001,0.6749 0.24838,1.10606 -0.0296,0.58986 -0.20012,0.96515 -0.64063,1.40993 l -0.23723,0.23953 0.11398,0.27015 c 0.1466,0.34741 0.19019,0.56483 0.19295,0.96238 0.005,0.66855 -0.18657,1.20043 -0.60785,1.69077 l -0.25647,0.29851 -0.0361,0.32335 c -0.10037,0.89848 -0.61466,1.65012 -1.39351,2.0366 -0.31227,0.15497 -0.48556,0.20071 -0.85818,0.22653 l -0.32772,0.0227 -0.12164,0.24602 c -0.075,0.15176 -0.23419,0.36988 -0.41545,0.56937 -0.23458,0.25817 -0.35304,0.35529 -0.58762,0.48176 -0.74024,0.39907 -1.51994,0.41555 -2.23872,0.0472 l -0.2166,-0.11101 -0.21997,0.16838 c -0.41605,0.31844 -0.84746,0.47003 -1.37559,0.48333 l -0.28716,0.007 -0.009,0.17032 c -0.0163,0.30985 -0.14692,2.02172 -0.16732,2.19287 -0.0286,0.23987 -0.1956,0.41861 -0.39111,0.41861 -0.113,0 -0.16806,-0.0259 -0.2679,-0.1261 -0.12111,-0.12154 -0.12553,-0.13509 -0.12181,-0.37394 0.002,-0.13631 0.0366,-0.60621 0.0766,-1.04423 0.0677,-0.74077 0.0711,-0.96524 0.0268,-1.7498 -0.0128,-0.22701 0.197,-0.45284 0.4208,-0.45284 0.0602,0 0.24332,0.0288 0.40696,0.064 0.27759,0.0598 0.31599,0.0599 0.57324,10e-4 0.36463,-0.0826 0.58807,-0.20746 0.86106,-0.48137 0.35398,-0.35514 0.42234,-0.3612 0.83739,-0.0742 0.94044,0.65034 2.22935,0.17642 2.52243,-0.92746 0.0902,-0.33971 0.26215,-0.45632 0.59911,-0.40621 0.78767,0.11711 1.54284,-0.35042 1.80493,-1.11742 0.0547,-0.16011 0.0731,-0.29957 0.0727,-0.55266 -4.5e-4,-0.41321 0.029,-0.48311 0.30368,-0.71666 0.26851,-0.22831 0.43431,-0.47584 0.52612,-0.78551 0.1504,-0.50721 0.0672,-1.02964 -0.23095,-1.45 -0.0859,-0.12112 -0.172,-0.26577 -0.19134,-0.32144 -0.0808,-0.23263 0.0435,-0.44821 0.34967,-0.60639 0.39683,-0.20504 0.68655,-0.62775 0.71725,-1.04648 0.0239,-0.32673 -0.0518,-0.55327 -0.29155,-0.87147 -0.25344,-0.33643 -0.26532,-0.47508 -0.0677,-0.78936 0.0734,-0.11663 0.1723,-0.3176 0.21989,-0.4466 0.0764,-0.20712 0.0846,-0.27471 0.0703,-0.57792 -0.0125,-0.2644 -0.0372,-0.39366 -0.10755,-0.56207 -0.12065,-0.28891 -0.11536,-0.4032 0.0321,-0.69179 0.24233,-0.47449 0.20151,-0.87427 -0.13623,-1.33395 -0.26213,-0.35678 -0.28026,-0.50023 -0.0983,-0.77767 0.0624,-0.0952 0.16116,-0.28453 0.21937,-0.42074 0.0984,-0.23026 0.10499,-0.27216 0.0939,-0.59755 -0.0103,-0.29921 -0.028,-0.387 -0.12263,-0.60572 -0.21085,-0.48741 -0.649,-0.85921 -1.14408,-0.97081 -0.26662,-0.0601 -0.36454,-0.12857 -0.48995,-0.34256 -0.3359,-0.57314 -1.00721,-0.90272 -1.63624,-0.80331 -0.1485,0.0235 -0.36457,0.0891 -0.48017,0.14595 -0.26299,0.12923 -0.37909,0.12957 -0.63896,0.002 -0.24306,-0.11943 -0.63994,-0.18935 -0.88839,-0.15653 -0.44747,0.0592 -0.72647,0.2157 -1.11491,0.62563 -0.21359,0.2254 -0.26399,0.26059 -0.3733,0.26059 -0.18113,0 -0.29451,-0.0789 -0.44663,-0.3106 -0.2676,-0.40768 -0.67013,-0.6293 -1.0616,-0.5845 -0.10864,0.0124 -0.24193,0.0432 -0.2962,0.0686 -0.17876,0.0831 -0.44208,0.32653 -0.58054,0.53652 -0.19965,0.30277 -0.3665,0.38928 -0.54875,0.28449 -0.0415,-0.0239 -0.17957,-0.15035 -0.30676,-0.28107 -0.41828,-0.42983 -0.8954,-0.61152 -1.50779,-0.5742 -0.38057,0.0232 -0.64772,0.11158 -0.94546,0.31279 -0.31144,0.21049 -0.36077,0.20954 -0.71397,-0.0136 -0.36509,-0.23071 -0.61645,-0.30881 -0.99395,-0.30881 -0.5512,0 -0.89603,0.14083 -1.30614,0.53343 -0.20638,0.19757 -0.25053,0.22353 -0.38027,0.22353 -0.10377,0 -0.19479,-0.0333 -0.31051,-0.11366 -0.25908,-0.17989 -0.4745,-0.28846 -0.67513,-0.34023 -0.24501,-0.0632 -0.71503,-0.0572 -0.92747,0.0119 -0.67309,0.21886 -1.1683,0.80347 -1.25764,1.48465 -0.05,0.38161 0.004,0.68041 0.19854,1.09957 0.19153,0.41245 0.18819,0.50785 -0.0277,0.79181 -0.0788,0.10367 -0.19037,0.29783 -0.24794,0.43155 -0.17318,0.40224 -0.16656,0.97587 0.0158,1.37335 0.0902,0.19654 0.0806,0.33871 -0.0393,0.58475 -0.2221,0.45574 -0.0852,0.82085 0.45748,1.22001 0.1887,0.13879 0.24076,0.22678 0.24076,0.40685 0,0.17509 -0.0745,0.28636 -0.30929,0.46219 -0.35401,0.26509 -0.49265,0.49047 -0.49265,0.8009 0,0.21288 0.0732,0.35236 0.34991,0.66711 0.27275,0.3102 0.28748,0.37742 0.16551,0.75506 -0.10309,0.31915 -0.12553,0.81055 -0.05,1.09499 0.0807,0.30409 0.17224,0.49315 0.3494,0.7219 0.20852,0.26923 0.5345,0.49262 0.82908,0.56812 0.13198,0.0338 0.29643,0.0766 0.36546,0.0952 0.069,0.0185 0.22456,0.12066 0.34566,0.22703 0.54971,0.48287 1.1885,0.86251 1.7065,1.01418 0.16067,0.047 0.32844,0.0534 0.32825,0.0125 -4.5e-4,-0.13469 -0.41943,-0.63397 -0.78579,-0.93673 -0.15114,-0.12489 -0.30436,-0.26966 -0.3405,-0.3217 -0.10196,-0.14683 -0.0868,-0.37256 0.0376,-0.56058 0.38295,-0.5787 0.44576,-0.7586 0.44511,-1.27504 -4.5e-4,-0.43913 -0.0676,-0.6796 -0.29527,-1.0587 -0.20457,-0.34066 -0.21979,-0.45212 -0.10092,-0.73907 0.0388,-0.0937 0.0708,-0.20436 0.0711,-0.246 0.002,-0.2719 -0.22514,-0.62184 -0.55347,-0.85253 -0.19186,-0.1348 -0.27516,-0.27279 -0.27516,-0.45579 0,-0.13335 0.13136,-0.29365 0.43209,-0.52729 0.39175,-0.30434 0.47264,-0.6491 0.26086,-1.1118 l -0.1191,-0.26023 0.0969,-0.28857 c 0.0533,-0.1587 0.11048,-0.34816 0.12705,-0.42102 0.0728,-0.32031 0.0132,-0.68789 -0.17951,-1.10596 -0.13221,-0.28684 -0.13027,-0.44955 0.008,-0.64019 0.22314,-0.30848 0.4436,-0.33841 0.79252,-0.10757 0.39676,0.26248 0.58145,0.31905 1.03575,0.31721 0.36682,-0.002 0.41884,-0.0115 0.67372,-0.12448 0.15191,-0.0675 0.37562,-0.20689 0.49712,-0.30958 0.26857,-0.22702 0.3916,-0.24098 0.68807,-0.078 0.31274,0.17183 0.57764,0.24097 0.92366,0.24108 0.60685,1.5e-4 1.07085,-0.21739 1.50072,-0.70368 0.26498,-0.29977 0.49733,-0.27478 0.72825,0.0783 0.16073,0.24576 0.33611,0.41815 0.5536,0.54414 0.12831,0.0743 0.20699,0.0903 0.44936,0.0905 0.26192,4.3e-4 0.31403,-0.0118 0.48019,-0.11261 0.10307,-0.0625 0.26529,-0.21285 0.36294,-0.33637 0.35285,-0.44632 0.34528,-0.44004 0.53017,-0.44004 0.16222,0 0.17726,0.009 0.38539,0.24426 0.41918,0.47275 0.77097,0.6442 1.31768,0.6422 0.25684,-9.8e-4 0.37356,-0.0201 0.53578,-0.0877 0.48228,-0.20145 0.45477,-0.19937 0.83327,-0.0627 0.18809,0.0679 0.41108,0.14728 0.49555,0.17634 0.12584,0.0434 0.18342,0.0973 0.31882,0.29884 0.33149,0.49354 0.33887,0.57879 0.0817,0.94465 -0.28163,0.40075 -0.33178,0.74502 -0.16838,1.1559 0.13224,0.33255 0.1409,0.50619 0.0352,0.70633 -0.1907,0.36109 -0.23867,0.74606 -0.14307,1.14794 0.0507,0.2131 0.0892,0.29129 0.35538,0.72262 0.1547,0.25063 0.13831,0.38258 -0.0876,0.70529 -0.0937,0.13391 -0.19073,0.32279 -0.21551,0.4197 -0.0943,0.36869 0.006,0.76102 0.28074,1.10333 0.18998,0.2363 0.2165,0.44187 0.0799,0.61957 -0.0518,0.0675 -0.14286,0.15015 -0.2023,0.18382 -0.22052,0.12487 -0.52546,0.49251 -0.64637,0.77931 -0.10279,0.24383 -0.11726,0.31978 -0.13427,0.70465 l -0.0191,0.43137 -0.15551,0.13635 c -0.36574,0.32064 -0.56011,0.60343 -0.67179,0.97734 -0.0367,0.12277 -0.10023,0.23555 -0.16789,0.29788 -0.10579,0.0975 -0.11778,0.0995 -0.42387,0.075 -0.54814,-0.044 -1.01738,0.11534 -1.37206,0.46604 -0.37873,0.37449 -0.48163,0.39321 -0.82431,0.14992 -0.50777,-0.36051 -1.05127,-0.43723 -1.60037,-0.22591 -0.26395,0.10161 -0.45978,0.25982 -0.72874,0.58887 -0.26933,0.32951 -0.35516,0.3652 -0.65133,0.27093 -0.7424,-0.23631 -1.61628,0.17252 -1.94599,0.9104 -0.20427,0.45715 -0.18854,0.9658 0.0452,1.4603 0.10301,0.21797 0.11784,0.27948 0.0961,0.39884 -0.0489,0.26819 -0.0182,0.76063 0.10609,1.69805 0.0686,0.51755 0.12745,1.06412 0.13081,1.2146 0.006,0.25856 4e-4,0.27993 -0.0993,0.38908 -0.12956,0.14196 -0.30139,0.17673 -0.45383,0.0919 z"
           id="path4536"
           inkscape:connector-curvature="0" />
        <path
           style="fill:#851e08;fill-opacity:1;stroke-width:0.08856367"
           inkscape:connector-curvature="0"
           d="m 195.67181,165.60892 c -1.00201,0 -1.63347,0.92886 -2.02598,2.27893 l -0.60932,-0.71082 v -5.9319 c 0,-0.48241 -0.78157,-0.87271 -1.7455,-0.87271 -0.96393,0 -1.7455,0.39039 -1.7455,0.87271 v 5.93181 l -0.60932,0.71091 c -0.39251,-1.35016 -1.02397,-2.27893 -2.02598,-2.27893 -3.37419,0 -8.72742,6.98201 -8.72742,12.21851 0,1.6867 2.73502,3.49101 6.1093,3.49101 3.37419,0 5.16406,-1.80431 5.16406,-3.49101 0,-0.94364 0.25905,-4.6557 -0.10336,-7.74329 l 1.93831,-2.26139 1.9383,2.26139 c -0.3624,3.08759 -0.10335,6.79965 -0.10335,7.74329 0,1.6867 1.78987,3.49101 5.16406,3.49101 3.37419,0 6.1093,-1.80431 6.1093,-3.49101 0,-5.2365 -5.35332,-12.21851 -8.7276,-12.21851 z m -13.51118,7.12097 c -0.36648,-0.0161 -0.6505,-0.32627 -0.63438,-0.69275 0.0161,-0.36647 0.32626,-0.6505 0.69274,-0.63438 0.36648,0.0161 0.6505,0.32627 0.63438,0.69274 -0.0161,0.36657 -0.32627,0.65059 -0.69274,0.63439 z m 4.13211,-4.27479 c -0.0298,0.0126 -1.29754,0.56034 -2.42,2.33622 -0.12638,0.19997 -0.34186,0.30944 -0.56211,0.30944 -0.12134,0 -0.24417,-0.0332 -0.35426,-0.10282 -0.31015,-0.196 -0.40261,-0.60631 -0.20662,-0.91637 1.37779,-2.17991 2.98265,-2.83342 3.05022,-2.86026 0.34115,-0.13461 0.72711,0.0322 0.86199,0.37339 0.13444,0.33982 -0.0307,0.72401 -0.36922,0.8604 z"
           id="path4600" />
        <g
           style="fill:#851e08;fill-opacity:1"
           id="g4602"
           transform="matrix(0.08856367,0,0,0.08856367,178.18279,157.73712)" />
        <g
           style="fill:#851e08;fill-opacity:1"
           id="g4604"
           transform="matrix(0.08856367,0,0,0.08856367,178.18279,157.73712)" />
        <g
           style="fill:#851e08;fill-opacity:1"
           id="g4606"
           transform="matrix(0.08856367,0,0,0.08856367,178.18279,157.73712)" />
        <g
           style="fill:#851e08;fill-opacity:1"
           id="g4608"
           transform="matrix(0.08856367,0,0,0.08856367,178.18279,157.73712)" />
        <g
           style="fill:#851e08;fill-opacity:1"
           id="g4610"
           transform="matrix(0.08856367,0,0,0.08856367,178.18279,157.73712)" />
        <g
           style="fill:#851e08;fill-opacity:1"
           id="g4612"
           transform="matrix(0.08856367,0,0,0.08856367,178.18279,157.73712)" />
        <g
           style="fill:#851e08;fill-opacity:1"
           id="g4614"
           transform="matrix(0.08856367,0,0,0.08856367,178.18279,157.73712)" />
        <g
           style="fill:#851e08;fill-opacity:1"
           id="g4616"
           transform="matrix(0.08856367,0,0,0.08856367,178.18279,157.73712)" />
        <g
           style="fill:#851e08;fill-opacity:1"
           id="g4618"
           transform="matrix(0.08856367,0,0,0.08856367,178.18279,157.73712)" />
        <g
           style="fill:#851e08;fill-opacity:1"
           id="g4620"
           transform="matrix(0.08856367,0,0,0.08856367,178.18279,157.73712)" />
        <g
           style="fill:#851e08;fill-opacity:1"
           id="g4622"
           transform="matrix(0.08856367,0,0,0.08856367,178.18279,157.73712)" />
        <g
           style="fill:#851e08;fill-opacity:1"
           id="g4624"
           transform="matrix(0.08856367,0,0,0.08856367,178.18279,157.73712)" />
        <g
           style="fill:#851e08;fill-opacity:1"
           id="g4626"
           transform="matrix(0.08856367,0,0,0.08856367,178.18279,157.73712)" />
        <g
           style="fill:#851e08;fill-opacity:1"
           id="g4628"
           transform="matrix(0.08856367,0,0,0.08856367,178.18279,157.73712)" />
        <g
           style="fill:#851e08;fill-opacity:1"
           id="g4630"
           transform="matrix(0.08856367,0,0,0.08856367,178.18279,157.73712)" />
        <path
           style="fill:#ee8a88;fill-opacity:1;stroke-width:0.11840468"
           d="m 192.1202,137.34748 c -0.0343,-2.27312 -0.0625,-2.56895 -0.29108,-3.06341 -0.37391,-0.80864 -1.05528,-1.49412 -1.93064,-1.94226 -0.42703,-0.21862 -0.93308,-0.52622 -1.12456,-0.68356 l -0.34813,-0.28608 -0.63566,0.29101 c -0.54611,0.25003 -0.77228,0.28514 -1.60554,0.2493 -0.68698,-0.0295 -1.11701,-0.11518 -1.47431,-0.29362 l -0.50444,-0.25191 -0.73196,0.29566 c -0.62065,0.25068 -0.86807,0.28748 -1.62685,0.24194 -1.49066,-0.0895 -2.67229,-0.88363 -3.30873,-2.22377 -0.44095,-0.92851 -0.44119,-2.26745 -4.5e-4,-3.19693 0.33208,-0.70047 1.1256,-1.56102 1.63339,-1.77135 0.22191,-0.0919 0.37369,-0.29962 0.52001,-0.71159 0.44839,-1.26247 1.80017,-2.29859 3.19885,-2.45186 0.51898,-0.0569 0.69695,-0.14688 1.1471,-0.58006 1.0313,-0.99243 2.44727,-1.33523 3.72467,-0.90174 l 0.70534,0.23936 0.47871,-0.24716 c 0.32815,-0.16942 0.78,-0.2637 1.43673,-0.29976 0.98768,-0.0542 1.60629,0.11477 2.4165,0.66029 0.21038,0.14164 0.55587,0.20091 1.19423,0.20486 1.20033,0.007 2.26181,0.50319 2.95503,1.3802 0.25769,0.326 0.46852,0.63873 0.46852,0.69496 0,0.0562 0.23298,0.20528 0.51772,0.33123 0.7733,0.34207 1.48855,1.05173 1.86878,1.85416 0.2844,0.6002 0.33664,0.86048 0.33672,1.67754 8e-5,0.81736 0.0498,1.06487 0.3211,1.59846 0.2678,0.5267 0.32178,0.78837 0.32561,1.57859 0.005,0.95437 -0.11479,1.32476 -0.82088,2.5457 -0.0942,0.16281 -0.26098,0.6036 -0.37073,0.97955 -0.25983,0.89 -0.86734,1.57401 -2.14565,2.41585 -1.41894,0.93444 -2.3568,2.30181 -2.60476,3.79769 l -0.0638,0.38482 h -0.76717 -0.76718 l 0.0462,-2.57531 c 0.0443,-2.47192 0.0584,-2.60182 0.35245,-3.23593 0.24983,-0.53879 0.45137,-0.76202 1.09272,-1.21035 0.9535,-0.66656 1.1261,-0.63679 2.0512,0.35386 0.6149,0.65847 0.89883,0.74927 1.05668,0.33792 0.1209,-0.31509 -0.79047,-1.36506 -1.5818,-1.82235 -0.11209,-0.0648 -0.0887,-0.23644 0.0998,-0.73202 0.19146,-0.50344 0.2371,-0.84924 0.2052,-1.55504 l -0.041,-0.90764 0.42048,-0.12598 c 0.52531,-0.15738 1.50145,-0.79592 1.65482,-1.0825 0.13321,-0.2489 0.0497,-0.54226 -0.17931,-0.63015 -0.0872,-0.0335 -0.3997,0.12695 -0.69435,0.3565 -0.29465,0.22957 -0.76163,0.48408 -1.03773,0.56561 l -0.50199,0.14822 -0.3673,-0.48428 c -0.45847,-0.60451 -1.35809,-1.21874 -2.03446,-1.38905 -0.40715,-0.10252 -0.51521,-0.18281 -0.51433,-0.38215 7.9e-4,-0.22043 0.42658,-1.03736 0.85113,-1.63367 0.10954,-0.15385 0.10621,-0.23858 -0.0151,-0.38482 -0.0856,-0.10315 -0.22489,-0.18753 -0.30952,-0.18753 -0.29435,0 -1.01278,0.99712 -1.21555,1.6871 -0.22856,0.77771 -0.34336,0.82177 -1.12239,0.43082 -0.95629,-0.47991 -1.43207,-1.14758 -1.67798,-2.35473 -0.11752,-0.57685 -0.16594,-0.65123 -0.42384,-0.65123 -0.26256,0 -0.29698,0.0581 -0.35036,0.59203 -0.0574,0.57354 -0.0777,0.60121 -0.65123,0.88679 -1.05403,0.5248 -2.38392,0.33837 -3.3804,-0.4739 -0.39157,-0.31919 -0.73139,-0.20755 -0.68137,0.22386 0.0257,0.22156 0.1958,0.41221 0.59398,0.6657 0.50686,0.32267 0.55162,0.38774 0.48876,0.71043 -0.10606,0.54451 -0.44971,1.14231 -0.91176,1.58609 l -0.41861,0.40204 -0.51128,-0.52606 c -0.54738,-0.56322 -1.4929,-1.0915 -1.83681,-1.02626 -0.12298,0.0233 -0.22459,0.16483 -0.24524,0.34154 -0.0302,0.25874 0.0492,0.34124 0.55741,0.5793 0.32597,0.15268 0.73539,0.42655 0.90981,0.60862 l 0.31714,0.33102 -0.28252,0.0581 c -0.15539,0.032 -0.59513,0.0849 -0.9772,0.11758 -1.26098,0.108 -2.60055,0.97909 -2.31789,1.50726 0.16348,0.30545 0.33976,0.28257 0.88755,-0.11522 0.56256,-0.40852 1.04773,-0.56347 2.05563,-0.65655 1.73601,-0.16034 3.21214,-1.36778 3.51335,-2.87384 0.0706,-0.35294 0.0716,-0.35334 0.92371,-0.35334 0.67391,0 0.99864,-0.0666 1.54643,-0.31744 0.38138,-0.1746 0.70077,-0.30337 0.70977,-0.28615 0.10162,0.19445 0.73386,1.01157 0.86611,1.11938 0.14866,0.12119 0.12142,0.24356 -0.19528,0.87734 -0.20242,0.40508 -0.36804,0.86121 -0.36804,1.01361 0,0.2558 -0.0485,0.2771 -0.62974,0.2771 -0.34635,0 -0.9049,0.0817 -1.24121,0.1816 -0.69587,0.20664 -0.93073,0.49479 -0.68132,0.83589 0.15593,0.21324 0.18292,0.21382 0.73544,0.0158 0.31547,-0.11307 0.85331,-0.20533 1.19521,-0.205 0.56519,4.4e-4 0.62172,0.0247 0.62278,0.26699 0.002,0.34701 0.53675,1.49438 0.85615,1.83528 0.2894,0.30887 0.65798,0.34825 0.76043,0.0812 0.0731,-0.19058 3e-5,-0.36557 -0.48905,-1.17052 -0.52506,-0.86416 -0.49645,-2.06098 0.0715,-2.98858 0.22898,-0.37402 0.23564,-0.37615 0.68262,-0.21845 0.24826,0.0876 0.81867,0.19772 1.26758,0.24473 1.13239,0.11858 1.62147,0.34296 2.23506,1.02542 0.49716,0.55298 0.76914,1.1504 0.77123,1.6941 7.9e-4,0.21562 -0.0653,0.23347 -0.73937,0.19944 -1.24435,-0.0628 -2.18698,0.41749 -1.72533,0.87912 0.16225,0.16227 0.25925,0.17258 0.57809,0.0614 0.2107,-0.0734 0.69483,-0.13355 1.07586,-0.13355 0.54672,0 0.69276,0.0387 0.69276,0.18349 0,0.48536 -0.67149,1.26354 -1.67328,1.93917 -0.51578,0.34783 -1.10546,1.19893 -1.27756,1.8439 -0.0711,0.2663 -0.12665,1.60089 -0.12702,3.04892 l -4.6e-4,2.5753 h -0.702 -0.702 z"
           id="path4756"
           inkscape:connector-curvature="0" />
        <path
           style="fill:#d46b6c;fill-opacity:1;stroke:none;stroke-width:0.18295193px;stroke-linecap:butt;stroke-linejoin:miter;stroke-opacity:1"
           d="m 196.53921,173.43078 c 0.35546,-0.10535 0.56702,-0.95684 0.56702,-0.95684 l 1.13403,-2.23264 c 0,0 0.46192,-1.4521 0.42527,-2.19719 -0.0285,-0.57862 -0.13368,-1.21371 -0.49614,-1.66562 -0.59225,-0.73841 -1.4773,-1.03182 -2.48071,-1.38211 -0.28237,-0.0986 -0.14175,-0.88596 -0.14175,-0.88596 0,0 -0.91862,-0.0695 -1.31123,-0.28351 -0.46936,-0.25591 -1.13404,-1.13404 -1.13404,-1.13404 l -1.06316,0.42527 c 0,0 -1.64112,0.70013 -2.33895,1.24035 -0.51901,0.40179 -1.09362,0.84026 -1.32895,1.45298 -0.28377,0.73887 -0.20738,1.61559 0.0177,2.37439 0.19944,0.6723 0.55709,1.37333 1.13404,1.77193 2.54624,1.75915 4.51466,4.21456 7.01684,3.47299 z"
           id="path4933"
           inkscape:connector-curvature="0"
           sodipodi:nodetypes="accaascaccaaasa" />
        <path
           style="fill:#3dabb7;fill-opacity:1;stroke:none;stroke-width:0.18295193px;stroke-linecap:butt;stroke-linejoin:miter;stroke-opacity:1"
           d="m 191.97445,161.91218 -1.20492,0.17719 c 0,0 0.20561,-1.21174 0.35439,-1.80737 0.1227,-0.49124 0.44298,-1.45298 0.44298,-1.45298 0,0 0.80253,-0.28879 1.15175,-0.12404 0.24298,0.11463 0.44299,0.67334 0.44299,0.67334 z"
           id="path4962"
           inkscape:connector-curvature="0"
           sodipodi:nodetypes="ccacacc" />
        <path
           style="fill:#d46b6c;fill-opacity:1;stroke:none;stroke-width:0.18295193px;stroke-linecap:butt;stroke-linejoin:miter;stroke-opacity:1"
           d="m 191.5441,163.49571 c 0,0 0.24774,-2.47368 0.88066,-3.49476 0.28754,-0.46387 1.24392,-1.06457 1.24392,-1.06457 l -0.10126,-1.71022 0.75177,-0.0501 0.0752,1.25295 h 0.68913 l 0.36335,-1.1903 0.56382,0.22553 -0.213,0.90212 0.47612,0.11276 0.28818,-0.61394 0.37588,0.31324 -0.32576,0.48865 c 0,0 0.45563,0.24002 0.62647,0.426 0.20747,0.22585 0.37685,0.50432 0.45106,0.80188 0.17713,0.71028 -0.0518,2.19549 -0.0518,2.19549 0,0 0.0171,0.54826 -0.0354,0.81509 -0.1039,0.52723 -0.0328,1.35809 -0.54626,1.51673 -0.52008,0.16071 -1.32364,-0.95641 -1.32364,-0.95641 l -0.33845,0.7323 z"
           id="path4939"
           inkscape:connector-curvature="0"
           sodipodi:nodetypes="caccccccccccccaacaaccc" />
        <path
           style="fill:#9d3222;fill-opacity:1;stroke:none;stroke-width:0.18295193px;stroke-linecap:butt;stroke-linejoin:miter;stroke-opacity:1"
           d="m 197.53671,165.9216 c 0,0 -0.0718,-1.10096 -0.37589,-1.5286 -0.32892,-0.46261 -1.42835,-0.92717 -1.42835,-0.92717 l -0.33845,0.7323 c 0,0 -0.13167,0.82732 0.18809,0.84641 0.95076,0.0567 1.9546,0.87706 1.9546,0.87706 z"
           id="path4937"
           inkscape:connector-curvature="0"
           sodipodi:nodetypes="caccsc" />
        <path
           style="fill:#8f3220;fill-opacity:1;stroke:none;stroke-width:0.18295193px;stroke-linecap:butt;stroke-linejoin:miter;stroke-opacity:1"
           d="m 188.60008,165.43028 c 0,0 1.45125,-1.23559 2.27606,-1.70134 0.35725,-0.20173 1.14018,-0.46359 1.14018,-0.46359 l -0.002,-1.95458 c 0,0 -1.09223,0.19235 -1.54714,0.48398 -0.69176,0.44347 -1.31094,1.08257 -1.65094,1.83065 -0.25071,0.55163 -0.21643,1.80488 -0.21643,1.80488 z"
           id="path4935"
           inkscape:connector-curvature="0"
           sodipodi:nodetypes="caccaac" />
        <path
           style="fill:#33a6b7;fill-opacity:1;stroke:none;stroke-width:0.18295193px;stroke-linecap:butt;stroke-linejoin:miter;stroke-opacity:1"
           d="m 195.39402,164.19813 c 0,0 -1.00399,-0.12369 -1.41069,-0.39376 -0.39396,-0.26161 -0.88167,-1.1115 -0.88167,-1.1115 0,0 0.96535,-1.39363 1.59474,-1.94912 0.36613,-0.32315 0.76868,-0.65313 1.24035,-0.77965 0.92481,-0.24807 1.99205,-0.11846 2.87053,0.10632 0.34806,0.089 0.2378,0.70903 0.17719,1.06315 -0.066,0.38565 -0.17737,1.06315 -0.56702,1.02772 l -0.77964,-0.0709 c 0,0 -0.84246,-0.0382 -1.13404,0.21263 -0.7713,1.16278 -0.7713,1.16278 -1.10975,1.89508 z"
           id="path4960"
           inkscape:connector-curvature="0"
           sodipodi:nodetypes="cacaasasccc" />
        <ellipse
           style="opacity:1;fill:#4c7f83;fill-opacity:1;stroke:none;stroke-width:0.20850146;stroke-miterlimit:4;stroke-dasharray:none;stroke-opacity:1"
           id="path4964"
           cx="209.58495"
           cy="135.52998"
           rx="0.8355425"
           ry="0.47133163"
           transform="rotate(6.703844)" />
        <ellipse
           style="opacity:1;fill:#4c7f83;fill-opacity:1;stroke:none;stroke-width:0.19947955;stroke-miterlimit:4;stroke-dasharray:none;stroke-opacity:1"
           id="path4964-4"
           cx="120.99828"
           cy="-208.35374"
           rx="1.1337408"
           ry="0.31795073"
           transform="matrix(-0.0468994,0.99889962,-0.98116245,-0.19318451,0,0)" />
        <ellipse
           style="opacity:1;fill:#9b423f;fill-opacity:1;stroke:none;stroke-width:0.10682005;stroke-miterlimit:4;stroke-dasharray:none;stroke-opacity:1"
           id="path4964-1"
           cx="186.84892"
           cy="165.56377"
           rx="0.42806739"
           ry="0.2414739"
           transform="rotate(-2.5167149)" />
        <ellipse
           style="opacity:1;fill:#9b423f;fill-opacity:1;stroke:none;stroke-width:0.07939792;stroke-miterlimit:4;stroke-dasharray:none;stroke-opacity:1"
           id="path4964-1-8"
           cx="233.78223"
           cy="91.730492"
           rx="0.31817675"
           ry="0.17948431"
           transform="rotate(17.36796)" />
        <ellipse
           style="opacity:1;fill:#9b423f;fill-opacity:1;stroke:none;stroke-width:0.07939792;stroke-miterlimit:4;stroke-dasharray:none;stroke-opacity:1"
           id="path4964-1-8-5"
           cx="252.29588"
           cy="-5.4862456"
           rx="0.31817675"
           ry="0.17948431"
           transform="rotate(39.998671)" />
        <ellipse
           style="opacity:1;fill:#d88180;fill-opacity:1;stroke:none;stroke-width:0.39249048;stroke-miterlimit:4;stroke-dasharray:none;stroke-opacity:1"
           id="path4964-4-9"
           cx="-51.32106"
           cy="-246.25078"
           rx="1.7684144"
           ry="0.78913462"
           transform="matrix(-0.8052596,0.5929224,-0.60795622,-0.79397055,0,0)" />
        <path
           style="fill:#d88180;fill-opacity:1;stroke:none;stroke-width:0.18295193px;stroke-linecap:butt;stroke-linejoin:miter;stroke-opacity:1"
           d="m 191.97445,162.27808 c 0,0 0.43085,-2.04675 1.19134,-2.64302 0.81837,-0.64164 3.06792,-0.56638 3.06792,-0.56638 0,0 -1.07374,0.2081 -1.59496,0.36995 -0.37858,0.11756 -0.79998,0.1839 -1.10693,0.43475 -0.73946,0.60432 -1.55737,2.4047 -1.55737,2.4047 z"
           id="path5041"
           inkscape:connector-curvature="0"
           sodipodi:nodetypes="cacaac" />
        <path
           style="fill:none;fill-opacity:1;stroke:#bd5957;stroke-width:0.18324004;stroke-linecap:round;stroke-linejoin:miter;stroke-miterlimit:4;stroke-dasharray:none;stroke-opacity:1"
           d="m 195.67181,165.60892 c 0,0 -0.26908,1.29606 -0.56702,1.87824 -0.34551,0.67515 -0.81381,1.30514 -1.3821,1.80737 -0.42052,0.37164 -0.89643,0.77849 -1.45299,0.85053 -0.523,0.0677 -1.52386,-0.42526 -1.52386,-0.42526"
           id="path5043"
           inkscape:connector-curvature="0"
           sodipodi:nodetypes="caaac" />
        <path
           style="fill:none;stroke:#bd5957;stroke-width:0.18295193px;stroke-linecap:butt;stroke-linejoin:miter;stroke-opacity:1"
           d="m 197.38555,168.46729 c 0,0 0.0136,1.23841 -0.19492,1.80736 -0.15951,0.43531 -0.57546,0.73554 -0.77965,1.15176 -0.17521,0.35718 -0.0387,0.917 -0.3721,1.13404 -0.34824,0.22668 -0.85765,0.0378 -1.24035,-0.12404 -0.3629,-0.15346 -0.90369,-0.76193 -0.90369,-0.76193"
           id="path5045"
           inkscape:connector-curvature="0"
           sodipodi:nodetypes="caaaac" />
      </g>
      <g
         transform="matrix(0.86308092,0,0,0.86308092,28.988931,14.365614)"
         id="g4986">
        <path
           style="fill:#00bc9b;fill-opacity:1;stroke:none;stroke-width:0.87551308px;stroke-linecap:butt;stroke-linejoin:miter;stroke-opacity:1"
           d="m 234.45745,201.25419 c 0,0 14.14782,-5.25969 14.14782,-5.25969 0,0 15.71131,37.71738 15.71131,37.71738 0,0 -12.03991,5.87791 -12.03991,5.87791 0,0 -17.81922,-38.3356 -17.81922,-38.3356 z"
           id="path4504"
           inkscape:connector-curvature="0"
           inkscape:path-effect="#path-effect4506"
           inkscape:original-d="m 234.45745,201.25419 14.14782,-5.25969 15.71131,37.71738 -12.03991,5.87791 z"
           sodipodi:nodetypes="ccccc" />
        <path
           style="fill:#f5544e;fill-opacity:1;stroke:none;stroke-width:0.87551308px;stroke-linecap:butt;stroke-linejoin:miter;stroke-opacity:1"
           d="m 259.32846,222.15729 c 0,0 4.98812,11.55459 4.98812,11.55459 0,0 -12.03991,5.87791 -12.03991,5.87791 0,0 -5.56034,-11.57137 -5.56034,-11.57137 0,0 12.61213,-5.86113 12.61213,-5.86113 z"
           id="path4508"
           inkscape:connector-curvature="0"
           inkscape:path-effect="#path-effect4510"
           inkscape:original-d="m 259.32846,222.15729 4.98812,11.55459 -12.03991,5.87791 -5.56034,-11.57137 z"
           sodipodi:nodetypes="ccccc" />
        <path
           style="opacity:1;fill:#00bc9b;fill-opacity:1;stroke:none;stroke-width:1.65721202;stroke-miterlimit:4;stroke-dasharray:none;stroke-opacity:1"
           d="m 211.44221,104.92227 a 52.828556,52.828556 0 0 0 -48.95975,34.08955 52.828556,52.828556 0 0 0 30.65751,68.131 52.828556,52.828556 0 0 0 68.13099,-30.6575 52.828556,52.828556 0 0 0 -30.65681,-68.13099 52.828556,52.828556 0 0 0 -19.17194,-3.43206 z m -0.75764,11.68013 a 41.822605,41.822605 0 0 1 15.1775,2.71773 41.822605,41.822605 0 0 1 24.27052,53.93664 41.822605,41.822605 0 0 1 -53.93732,24.27052 41.822605,41.822605 0 0 1 -24.27053,-53.93732 41.822605,41.822605 0 0 1 38.75983,-26.98757 z"
           id="path4500"
           inkscape:connector-curvature="0" />
      </g>
    </g>
  </g>
</svg>
