<?xml version="1.0" encoding="UTF-8" standalone="no"?>
<!-- Created with Inkscape (http://www.inkscape.org/) -->

<svg
   xmlns:dc="http://purl.org/dc/elements/1.1/"
   xmlns:cc="http://creativecommons.org/ns#"
   xmlns:rdf="http://www.w3.org/1999/02/22-rdf-syntax-ns#"
   xmlns:svg="http://www.w3.org/2000/svg"
   xmlns="http://www.w3.org/2000/svg"
   xmlns:sodipodi="http://sodipodi.sourceforge.net/DTD/sodipodi-0.dtd"
   xmlns:inkscape="http://www.inkscape.org/namespaces/inkscape"
   width="317.5mm"
   height="223.54002mm"
   viewBox="0 0 317.5 223.54002"
   version="1.1"
   id="svg5038"
   inkscape:version="0.92+devel unknown"
   sodipodi:docname="p1.svg"
   inkscape:export-filename="/home/desarrollo/Documentos/conozco-mi-cuerpo/img/p1.svg.png"
   inkscape:export-xdpi="96"
   inkscape:export-ydpi="96">
  <defs
     id="defs5032" />
  <sodipodi:namedview
     id="base"
     pagecolor="#ffffff"
     bordercolor="#666666"
     borderopacity="1.0"
     inkscape:pageopacity="0.0"
     inkscape:pageshadow="2"
     inkscape:zoom="0.50141358"
     inkscape:cx="779.61248"
     inkscape:cy="476.23328"
     inkscape:document-units="mm"
     inkscape:current-layer="layer1"
     showgrid="false"
     inkscape:snap-text-baseline="true"
     showguides="true"
     inkscape:guide-bbox="true"
     inkscape:window-width="1920"
     inkscape:window-height="1012"
     inkscape:window-x="0"
     inkscape:window-y="32"
     inkscape:window-maximized="1"
     fit-margin-top="0"
     fit-margin-left="0"
     fit-margin-right="0"
     fit-margin-bottom="0"
     inkscape:document-rotation="0" />
  <metadata
     id="metadata5035">
    <rdf:RDF>
      <cc:Work
         rdf:about="">
        <dc:format>image/svg+xml</dc:format>
        <dc:type
           rdf:resource="http://purl.org/dc/dcmitype/StillImage" />
        <dc:title />
      </cc:Work>
    </rdf:RDF>
  </metadata>
  <g
     inkscape:label="Capa 1"
     inkscape:groupmode="layer"
     id="layer1"
     transform="translate(652.73285,503.69956)">
    <rect
       style="opacity:1;fill:#66b2bf;fill-opacity:1;stroke:none;stroke-width:0.05975883;stroke-linecap:round;stroke-miterlimit:4;stroke-dasharray:none;stroke-opacity:1"
       id="rect5585"
       width="317.5"
       height="223.47038"
       x="-652.73285"
       y="-503.66473"
       inkscape:export-filename="/home/desarrollo/Imágenes/interfaz1.2.png"
       inkscape:export-xdpi="96"
       inkscape:export-ydpi="96" />
    <g
       id="g7065"
       transform="matrix(0.39523569,0,0,0.2788673,-652.05737,-503.25337)"
       inkscape:export-filename="/home/desarrollo/Imágenes/interfaz1.2.png"
       inkscape:export-xdpi="96"
       inkscape:export-ydpi="96">
      <g
         id="BACKGROUND">
        <g
           id="g7040">
          <rect
             id="rect7030"
             height="799"
             width="800"
             y="0.5"
             x="0"
             style="fill:#3edfff" />
          <g
             id="g7038">
            <path
               id="path7032"
               d="m 212.4,494 c -2,-2.5 -14.2,-18.6 -31.7,-31.7 -17.5,-13.1 -15.9,-33.1 -17.6,-48.2 -1.7,-15.1 -3.8,-41.7 -7.6,-60.8 -3.7,-19 -16.6,-46.7 -28.2,-69.5 -11.6,-22.7 -7.5,-54.8 -6.6,-83.2 0.8,-28.4 -2.8,-36.8 -13.6,-53.5 C 96.3,130.4 41.3,115.6 28.7,107.9 16.1,100.2 22.5,79.5 22.5,79.5 c 6,-7 14.4,-34.9 14.4,-34.9 4.1,1.2 5,0 5,0 6.4,-3.4 4.1,-15.9 4.3,-18.7 0.2,-2.8 1.7,-2 2.3,-8.3 0.6,-6.3 -5.4,-4.2 -5.4,-4.2 0.5,-5.2 0.7,-10 0.6,-14.4 H -1 v 548.1 c 0.1,0.8 0.2,1.5 0.3,2.1 1.9,10.7 6.5,63.3 9.2,72.9 2.6,9.7 1.8,44.2 2.6,52.3 0.9,8.1 2.5,38.8 8.6,52.6 5.1,11.5 0.1,53.5 -1.4,72.1 H 87 C 86.1,783.3 83.9,768.4 81.7,756.6 77.4,733 77.3,703.7 77.6,689.8 77.9,675.9 89.9,630 94.8,607.4 99.7,584.9 105.6,559.3 110.3,526.9 114.9,494.6 94.2,423.1 90.9,391.7 87.6,360.4 79.6,345.7 74.8,327.5 70,309.3 77,282.6 79.2,277 c 2.2,-5.6 3.3,-15.1 4,-13 0.7,2.1 7.1,16.1 6.8,34.6 -0.3,18.4 10.7,52.7 12.7,59.9 2,7.2 15.3,72.7 24.5,84.3 9.2,11.6 7.9,32.8 8.1,38.5 0.3,5.7 2.9,23.5 5.2,28.6 3.2,7 9.8,27.3 10.5,30.6 0.7,3.4 1.6,14.5 6.8,13.7 5.3,-0.7 2.1,-18.6 2.4,-22 0.3,-3.4 -2,-13.3 -2,-13.3 0,0 7.4,24.3 8.6,27.8 1.2,3.5 2.9,14.2 8.3,13.7 5.4,-0.6 -2.3,-24.9 -2.5,-28.9 -0.3,-4 -4.3,-13.5 -4.3,-13.5 2.9,3.5 10.5,25.2 11.8,29.3 1.3,4.1 3,13.5 6.3,13 3.2,-0.4 3.5,-1.2 3.7,-6.3 0.2,-5.1 -5.8,-21.7 -7.4,-28.7 -1.6,-7 -1,-6.4 -1,-6.4 2.9,1.6 5.4,16.1 9.4,25.9 4.1,9.8 6.4,9.2 6.4,9.2 7.3,-0.1 0.8,-16.2 -0.1,-20.3 -0.9,-4.1 -3,-14.1 -4,-19.5 -1,-5.4 -0.9,-9.4 -1.3,-12.8 -0.4,-3.4 -1,-9.7 -1,-9.7 2.2,0.3 7.6,4.9 8.5,5.9 0.9,1 6,4.8 11.3,3.7 5.2,-1 3.6,-4.8 1.5,-7.3 z"
               stroke-miterlimit="10"
               inkscape:connector-curvature="0"
               style="opacity:0.3;fill:#ffffff;stroke:#3edfff;stroke-miterlimit:10" />
            <path
               id="path7034"
               d="m 580.9,500.2 c 5.3,1.2 10.4,-2.6 11.3,-3.6 0.9,-1 6.3,-5.5 8.5,-5.8 0,0 -0.6,6.3 -1.1,9.7 -0.4,3.4 -0.3,7.4 -1.4,12.8 -1,5.4 -3.3,15.4 -4.2,19.5 -0.9,4.1 -7.5,20.2 -0.2,20.3 0,0 2.3,0.6 6.5,-9.2 4.1,-9.8 6.7,-24.3 9.6,-25.9 0,0 0.6,-0.6 -1,6.4 -1.6,7 -7.7,23.6 -7.6,28.7 0.1,5.1 0.4,5.8 3.6,6.3 3.2,0.4 5,-8.9 6.3,-13 1.3,-4.1 9,-25.7 11.9,-29.2 0,0 -4.1,9.5 -4.4,13.5 -0.3,4 -8.1,28.3 -2.7,28.8 5.4,0.6 7.2,-10.1 8.4,-13.6 1.2,-3.5 8.7,-27.8 8.7,-27.8 0,0 -2.4,9.9 -2.1,13.3 0.3,3.4 -3,21.2 2.3,22 5.3,0.8 8.7,-19.2 9.5,-22.6 0.7,-3.4 4.3,-18.7 6.2,-23.9 2.4,-6.5 7,-31 7.3,-36.7 0.3,-5.7 -1.1,-20.9 8.2,-32.5 9.3,-11.5 26.3,-66.1 28.3,-73.2 2.1,-7.2 15.4,-41.6 15.2,-60 -0.2,-18.4 1,-38.8 1.7,-40.8 0.7,-2 1.7,7.5 3.9,13 2.2,5.6 9,32.4 4.1,50.5 -4.9,18.1 -13,32.8 -16.4,64.1 -3.5,31.3 -24.6,102.7 -20.2,135.1 4.4,32.4 10.2,58 15,80.6 4.8,22.6 16.5,68.6 16.7,82.5 0.3,13.9 0,43.2 -4.4,66.7 -2.3,11.9 -4.6,27 -5.6,43 h 68.8 c -1.4,-18.5 -6.2,-60.7 -1,-72.2 6.2,-13.7 8,-44.5 8.9,-52.5 0.9,-8 0.3,-42.6 2.9,-52.3 2.7,-9.7 7.6,-62.2 9.6,-72.9 1.9,-10.7 0.8,-47.3 0.8,-50.5 0,-3.2 1.4,-5.7 7,-5.7 0.4,0 0.8,0 1.1,0 V -1 h -50 c -0.1,4.3 0,9 0.5,14.1 0,0 -6,-2.1 -5.4,4.2 0.6,6.3 2.1,5.6 2.2,8.4 0.1,2.8 -2.3,15.4 4.1,18.8 0,0 0.9,1.2 5,0 0,0 8.3,28 14.2,35 0,0 6.2,20.8 -6.4,28.4 -12.6,7.6 -67.7,22.1 -78.6,38.7 -10.9,16.7 -14.6,25 -13.9,53.4 0.6,28.4 4.7,60.5 -7.1,83.1 -11.8,22.7 -24.7,50.3 -28.6,69.3 -3.9,19 -6.1,45.7 -7.9,60.7 -1.8,15.1 -0.3,35.1 -17.9,48.1 -17.6,13 -29.8,29 -31.9,31.5 -1.9,2.5 -3.6,6.3 1.7,7.5 z"
               stroke-miterlimit="10"
               inkscape:connector-curvature="0"
               style="opacity:0.3;fill:#ffffff;stroke:#3edfff;stroke-miterlimit:10" />
            <path
               id="path7036"
               d="m 180.9,500.2 c 5.3,1.2 10.4,-2.6 11.3,-3.6 0.9,-1 6.3,-5.5 8.5,-5.8 0,0 -0.6,6.3 -1.1,9.7 -0.4,3.4 -0.3,7.4 -1.4,12.8 -1,5.4 -3.3,15.4 -4.2,19.5 -0.9,4.1 -7.5,20.2 -0.2,20.3 0,0 2.3,0.6 6.5,-9.2 4.1,-9.8 6.7,-24.3 9.6,-25.9 0,0 0.6,-0.6 -1,6.4 -1.6,7 -7.7,23.6 -7.6,28.7 0.1,5.1 0.4,5.8 3.6,6.3 3.2,0.4 5,-8.9 6.3,-13 1.3,-4.1 9,-25.7 11.9,-29.2 0,0 -4.1,9.5 -4.4,13.5 -0.3,4 -8.1,28.3 -2.7,28.8 5.4,0.6 7.2,-10.1 8.4,-13.6 1.2,-3.5 8.7,-27.8 8.7,-27.8 0,0 -2.4,9.9 -2.1,13.3 0.3,3.4 -3,21.2 2.3,22 5.3,0.7 8.7,-19.2 9.5,-22.6 0.7,-3.4 4.3,-18.7 6.2,-23.9 2.4,-6.5 7,-31 7.3,-36.7 0.3,-5.7 -1.1,-20.9 8.2,-32.5 9.3,-11.5 26.3,-66.1 28.3,-73.2 2.1,-7.2 15.4,-41.6 15.2,-60 -0.2,-18.4 1,-38.8 1.7,-40.8 0.7,-2 1.7,7.5 3.9,13 2.2,5.6 9,32.4 4.1,50.5 -4.9,18.1 -13,32.8 -16.4,64.1 -3.5,31.3 -24.6,102.7 -20.2,135.1 4.4,32.4 10.2,58 15,80.6 4.8,22.6 16.5,68.6 16.7,82.5 0.3,13.9 0,43.2 -4.4,66.7 -2.3,11.9 -4.6,27 -5.6,43 h 68.8 c -1.4,-18.5 -6.2,-60.7 -1,-72.2 6.2,-13.7 8,-44.5 8.9,-52.5 0.9,-8 0.3,-42.6 2.9,-52.3 2.7,-9.7 7.6,-62.2 9.6,-72.9 1.9,-10.7 0.8,-47.3 0.8,-50.5 0,-3.2 1.4,-5.7 7,-5.7 5.5,0 6.9,2.5 6.9,5.7 0,3.2 -1.4,39.8 0.5,50.5 1.9,10.7 6.5,63.3 9.2,72.9 2.6,9.7 1.8,44.2 2.6,52.3 0.9,8.1 2.5,38.8 8.6,52.6 5.1,11.5 0.1,53.5 -1.4,72.1 H 495 c -0.9,-15.8 -3.1,-30.7 -5.3,-42.5 -4.3,-23.6 -4.4,-52.9 -4.1,-66.8 0.3,-13.9 12.3,-59.8 17.2,-82.4 4.9,-22.5 10.8,-48.1 15.5,-80.5 4.6,-32.3 -16.1,-103.8 -19.4,-135.2 -3.3,-31.3 -11.3,-46 -16.1,-64.2 -4.8,-18.2 2.2,-44.9 4.4,-50.5 2.2,-5.6 3.3,-15.1 4,-13 0.7,2.1 7.1,16.1 6.8,34.6 -0.3,18.4 10.7,52.7 12.7,59.9 2,7.2 15.3,72.7 24.5,84.3 9.2,11.6 7.9,32.8 8.1,38.5 0.3,5.7 2.9,23.5 5.2,28.6 3.2,7 9.8,27.3 10.5,30.6 0.7,3.4 1.6,14.5 6.8,13.7 5.3,-0.7 2.1,-18.6 2.4,-22 0.3,-3.4 -2,-13.3 -2,-13.3 0,0 7.4,24.3 8.6,27.8 1.2,3.5 2.9,14.2 8.3,13.7 5.4,-0.6 -2.3,-24.9 -2.5,-28.9 -0.3,-4 -4.3,-13.5 -4.3,-13.5 2.9,3.5 10.5,25.2 11.8,29.3 1.3,4.1 3,13.5 6.3,13 3.2,-0.4 3.5,-1.2 3.7,-6.3 0.2,-5.1 -5.8,-21.7 -7.4,-28.7 -1.6,-7 -1,-6.4 -1,-6.4 2.9,1.6 5.4,16.1 9.4,25.9 4.1,9.8 6.4,9.2 6.4,9.2 7.3,-0.1 0.8,-16.2 -0.1,-20.3 -0.9,-4.1 -3,-14.1 -4,-19.5 -1,-5.4 -0.9,-9.4 -1.3,-12.8 -0.4,-3.4 -1,-9.7 -1,-9.7 2.2,0.3 7.6,4.9 8.5,5.9 0.9,1 6,4.8 11.3,3.7 5.3,-1.2 3.7,-5 1.6,-7.5 -2,-2.5 -14.2,-18.6 -31.7,-31.7 -17.5,-13.1 -15.9,-33.1 -17.6,-48.2 -1.7,-15.1 -3.8,-41.7 -7.6,-60.8 -3.7,-19 -16.6,-46.7 -28.2,-69.5 -11.6,-22.7 -7.5,-54.8 -6.6,-83.2 0.8,-28.4 -2.8,-36.8 -13.6,-53.5 -10.8,-16.7 -65.8,-31.5 -78.4,-39.2 -12.6,-7.7 -6.2,-28.4 -6.2,-28.4 6,-7 14.4,-34.9 14.4,-34.9 4.1,1.2 5,0 5,0 6.4,-3.4 4.1,-15.9 4.3,-18.7 0.2,-2.8 1.7,-2 2.3,-8.3 0.6,-6.3 -5.4,-4.2 -5.4,-4.2 0.5,-5.2 0.7,-10 0.6,-14.4 H 351 c -0.1,4.3 0,9 0.5,14.1 0,0 -6,-2.1 -5.4,4.2 0.6,6.3 2.1,5.6 2.2,8.4 0.1,2.8 -2.3,15.4 4.1,18.8 0,0 0.9,1.2 5,0 0,0 8.3,28 14.2,35 0,0 6.2,20.8 -6.4,28.4 -12.6,7.6 -67.7,22.1 -78.6,38.7 -10.9,16.7 -14.6,25 -13.9,53.4 0.6,28.4 4.7,60.5 -7.1,83.1 -11.8,22.7 -24.7,50.3 -28.6,69.3 -3.9,19 -6.1,45.7 -7.9,60.7 -1.8,15.1 -0.3,35.1 -17.9,48.1 -17.6,13 -29.8,29 -31.9,31.5 -2,2.6 -3.7,6.4 1.6,7.6 z"
               stroke-miterlimit="10"
               inkscape:connector-curvature="0"
               style="opacity:0.3;fill:#ffffff;stroke:#3edfff;stroke-miterlimit:10" />
          </g>
        </g>
      </g>
      <g
         id="OBJECTS" />
      <g
         id="TEXTURE">
        <rect
           id="rect7044"
           height="800"
           width="800"
           x="0"
           y="0"
           style="opacity:0.4;fill:#66b2bf" />
      </g>
    </g>
  </g>
</svg>
